<svg xmlns="http://www.w3.org/2000/svg" xmlns:xlink="http://www.w3.org/1999/xlink" viewBox="0 0 350 401.33"><defs><style>.cls-1{isolation:isolate;}.cls-10,.cls-11,.cls-12,.cls-13,.cls-14,.cls-15,.cls-16,.cls-17,.cls-18,.cls-19,.cls-2,.cls-20,.cls-21,.cls-22,.cls-23,.cls-24,.cls-25,.cls-26,.cls-27,.cls-28,.cls-29,.cls-3,.cls-30,.cls-31,.cls-32,.cls-33,.cls-34,.cls-35,.cls-36,.cls-37,.cls-38,.cls-39,.cls-4,.cls-40,.cls-41,.cls-42,.cls-43,.cls-44,.cls-45,.cls-46,.cls-47,.cls-48,.cls-49,.cls-5,.cls-50,.cls-51,.cls-52,.cls-53,.cls-54,.cls-55,.cls-56,.cls-57,.cls-6,.cls-7,.cls-8,.cls-9{fill-rule:evenodd;}.cls-2{fill:url(#linear-gradient);}.cls-3{fill:#22043d;}.cls-4{fill:url(#linear-gradient-2);}.cls-5{fill:#ffa698;}.cls-6{fill:url(#linear-gradient-3);}.cls-7{fill:#59caaf;}.cls-40,.cls-7{opacity:0.35;}.cls-10,.cls-20,.cls-24,.cls-27,.cls-29,.cls-31,.cls-33,.cls-36,.cls-40,.cls-47,.cls-7{mix-blend-mode:multiply;}.cls-8{fill:#161f69;}.cls-9{fill:url(#linear-gradient-4);}.cls-10{fill:#1e2353;}.cls-10,.cls-47{opacity:0.3;}.cls-11{fill:url(#linear-gradient-5);}.cls-12{fill:url(#linear-gradient-6);}.cls-13{fill:url(#linear-gradient-7);}.cls-14{fill:url(#linear-gradient-8);}.cls-15{fill:url(#linear-gradient-9);}.cls-16{fill:url(#linear-gradient-10);}.cls-17{fill:#ff8f7f;}.cls-18{fill:#273087;}.cls-19{fill:url(#linear-gradient-11);}.cls-20,.cls-24,.cls-27,.cls-29,.cls-31,.cls-33,.cls-35,.cls-36,.cls-38,.cls-39{opacity:0.5;}.cls-20{fill:url(#linear-gradient-12);}.cls-21{fill:#d0e7ff;}.cls-22{fill:url(#linear-gradient-13);}.cls-23{fill:url(#linear-gradient-14);}.cls-24{fill:url(#linear-gradient-15);}.cls-25{fill:#fff;}.cls-26{fill:url(#linear-gradient-16);}.cls-27{fill:url(#linear-gradient-17);}.cls-28{fill:url(#linear-gradient-18);}.cls-29{fill:url(#linear-gradient-19);}.cls-30{fill:url(#linear-gradient-20);}.cls-31{fill:url(#linear-gradient-21);}.cls-32{fill:url(#linear-gradient-22);}.cls-33{fill:url(#linear-gradient-23);}.cls-34{fill:url(#linear-gradient-24);}.cls-35{fill:#f2f4ff;}.cls-36{fill:url(#linear-gradient-25);}.cls-37{fill:url(#linear-gradient-26);}.cls-38{fill:#6d6afd;}.cls-39{fill:#44a7f7;}.cls-40{fill:#0960ac;}.cls-41{fill:#ff9483;}.cls-42{fill:url(#linear-gradient-27);}.cls-43{fill:url(#linear-gradient-28);}.cls-44{fill:#ffa495;}.cls-45{fill:url(#linear-gradient-29);}.cls-46{fill:#4c57b7;}.cls-47{fill:#060921;}.cls-48{fill:url(#linear-gradient-30);}.cls-49{fill:url(#linear-gradient-31);}.cls-50{fill:#e7a376;}.cls-51{fill:url(#linear-gradient-32);}.cls-52{fill:url(#linear-gradient-33);}.cls-53{fill:#ffb49c;}.cls-54{fill:#562e65;}.cls-55{fill:url(#linear-gradient-34);}.cls-56{fill:#0ab7e4;}.cls-57{fill:url(#linear-gradient-35);}</style><linearGradient id="linear-gradient" x1="102.91" y1="202.82" x2="112.66" y2="221.56" gradientUnits="userSpaceOnUse"><stop offset="0" stop-color="#5a2d68"/><stop offset="1" stop-color="#22043d"/></linearGradient><linearGradient id="linear-gradient-2" x1="166.21" y1="227.48" x2="165.75" y2="225.8" gradientUnits="userSpaceOnUse"><stop offset="0" stop-color="#ff8a78"/><stop offset="1" stop-color="#ffa799"/></linearGradient><linearGradient id="linear-gradient-3" x1="151.79" y1="236.12" x2="135.38" y2="216.48" gradientUnits="userSpaceOnUse"><stop offset="0" stop-color="#965cf2"/><stop offset="1" stop-color="#ff8adc"/></linearGradient><linearGradient id="linear-gradient-4" x1="130.4" y1="268.71" x2="105.97" y2="316.36" gradientUnits="userSpaceOnUse"><stop offset="0" stop-color="#3e4795"/><stop offset="1" stop-color="#273088"/></linearGradient><linearGradient id="linear-gradient-5" x1="135.66" y1="278.18" x2="98.16" y2="320.32" xlink:href="#linear-gradient-4"/><linearGradient id="linear-gradient-6" x1="125.42" y1="253.45" x2="120.09" y2="221.89" xlink:href="#linear-gradient-3"/><linearGradient id="linear-gradient-7" x1="111.02" y1="264.26" x2="112.19" y2="262.15" xlink:href="#linear-gradient-2"/><linearGradient id="linear-gradient-8" x1="99.92" y1="249.56" x2="106.24" y2="222.91" xlink:href="#linear-gradient-3"/><linearGradient id="linear-gradient-9" x1="122.13" y1="211.76" x2="121.62" y2="214.32" xlink:href="#linear-gradient-2"/><linearGradient id="linear-gradient-10" x1="131.24" y1="201.78" x2="127.29" y2="208.17" gradientUnits="userSpaceOnUse"><stop offset="0" stop-color="#ffb89e"/><stop offset="1" stop-color="#ffa799"/></linearGradient><linearGradient id="linear-gradient-11" x1="228.88" y1="312.93" x2="289.19" y2="71.25" xlink:href="#linear-gradient-3"/><linearGradient id="linear-gradient-12" x1="215.32" y1="275.8" x2="236.53" y2="362.84" gradientUnits="userSpaceOnUse"><stop offset="0" stop-color="#fd90da"/><stop offset="1" stop-color="#8e6dfd"/></linearGradient><linearGradient id="linear-gradient-13" x1="219.51" y1="328.71" x2="227.67" y2="305.62" gradientUnits="userSpaceOnUse"><stop offset="0" stop-color="#1c8ef4"/><stop offset="1" stop-color="#00cfdd"/></linearGradient><linearGradient id="linear-gradient-14" x1="220.22" y1="347.98" x2="222.49" y2="343.33" xlink:href="#linear-gradient-13"/><linearGradient id="linear-gradient-15" x1="300.73" y1="117.42" x2="311.16" y2="171.9" xlink:href="#linear-gradient-12"/><linearGradient id="linear-gradient-16" x1="303.98" y1="158.71" x2="314.13" y2="142.5" gradientUnits="userSpaceOnUse"><stop offset="0" stop-color="#6d6afe"/><stop offset="1" stop-color="#3fb0f7"/></linearGradient><linearGradient id="linear-gradient-17" x1="191.86" y1="146.75" x2="203.05" y2="203.55" xlink:href="#linear-gradient-12"/><linearGradient id="linear-gradient-18" x1="179.99" y1="193.57" x2="189.05" y2="160.32" xlink:href="#linear-gradient-16"/><linearGradient id="linear-gradient-19" x1="284.38" y1="199.6" x2="296.15" y2="182.02" xlink:href="#linear-gradient-3"/><linearGradient id="linear-gradient-20" x1="281.41" y1="200.5" x2="286.87" y2="188.32" xlink:href="#linear-gradient-13"/><linearGradient id="linear-gradient-21" x1="196.68" y1="257.16" x2="207.23" y2="230.48" xlink:href="#linear-gradient-3"/><linearGradient id="linear-gradient-22" x1="193.94" y1="258.02" x2="198.13" y2="239.42" xlink:href="#linear-gradient-13"/><linearGradient id="linear-gradient-23" x1="244.55" y1="164.71" x2="276.19" y2="268.51" xlink:href="#linear-gradient-12"/><linearGradient id="linear-gradient-24" x1="293.92" y1="238.34" x2="279.06" y2="283.49" gradientUnits="userSpaceOnUse"><stop offset="0" stop-color="#a77ef7"/><stop offset="1" stop-color="#5e65d6"/></linearGradient><linearGradient id="linear-gradient-25" x1="212.28" y1="49.8" x2="238.1" y2="138.51" xlink:href="#linear-gradient-12"/><linearGradient id="linear-gradient-26" x1="167.16" y1="92.67" x2="176.87" y2="82.5" xlink:href="#linear-gradient-16"/><linearGradient id="linear-gradient-27" x1="379.52" y1="282.96" x2="384.26" y2="276.41" xlink:href="#linear-gradient-13"/><linearGradient id="linear-gradient-28" x1="393.14" y1="287.56" x2="390.38" y2="261.12" xlink:href="#linear-gradient-13"/><linearGradient id="linear-gradient-29" x1="378.73" y1="333.34" x2="390.64" y2="390.32" xlink:href="#linear-gradient-4"/><linearGradient id="linear-gradient-30" x1="368.12" y1="339.77" x2="408.73" y2="395.16" xlink:href="#linear-gradient-4"/><linearGradient id="linear-gradient-31" x1="379.94" y1="320.41" x2="378.19" y2="282.88" xlink:href="#linear-gradient-13"/><linearGradient id="linear-gradient-32" x1="372.52" y1="237.38" x2="380.42" y2="249.84" xlink:href="#linear-gradient-2"/><linearGradient id="linear-gradient-33" x1="374.27" y1="236.19" x2="378.65" y2="249.22" xlink:href="#linear-gradient-10"/><linearGradient id="linear-gradient-34" x1="365.69" y1="226.91" x2="375.2" y2="232.7" gradientUnits="userSpaceOnUse"><stop offset="0" stop-color="#8a4791"/><stop offset="1" stop-color="#562e65"/></linearGradient><linearGradient id="linear-gradient-35" x1="345.73" y1="295.67" x2="356.37" y2="271.68" xlink:href="#linear-gradient-13"/></defs><g class="cls-1"><g id="Layer_3" data-name="Layer 3"><path class="cls-2" d="M126,187.93c3-.46,5.39,1.61,6.6,4.38a16.35,16.35,0,0,1,.74,9.62c-2,7.15,1.49,10.26,2.77,13.59a14.56,14.56,0,0,1,.73,5.51c-.09,2.55-1.56,3.87-2.8,6.16a20,20,0,0,1-1.8,6.34c-3.39,6.78-14.79,10.05-25.73,9.55-8.76-.4-17.22-3.5-21.06-7.06-4.2-3.91-4.75-13.84,2.32-14.85a7.18,7.18,0,0,0,5-2.29c1-1.17,0-4.26-.19-8.37s.68-8.16,6.46-9.56c2.22-.53,4.38-.76,6.23-2,4-2.65,2.56-7.58,6.94-10.47,2.64-1.76,6.9-2.14,11.55-.84Z" transform="translate(-78.85 -48.44)"/><path class="cls-3" d="M128.66,191.68a7.33,7.33,0,0,1-1.62,5.26c-2.69,3.8-4.11,3.5-5.58,8.34-2.42-1.61-4.09-1.86-4.78-.27-1.13,2.55-.42,4.06-.68,6.7-.43,4.29-5.56-1.59-9.58,1.7s-1.24,5.5-2.77,10.08c-.57,1.72-1,4-2.62,4.73-5,2.35-6.88,8.28,2,11.23,5.49,1.82,13.46,1.37,20.12-.9,8.79-3,14.21-16,12-22.13-.92-2.55-3.43-4.45-3.44-6.44C131.6,203.13,132.92,198.74,128.66,191.68Z" transform="translate(-78.85 -48.44)"/><path class="cls-4" d="M170.67,225.28c.8,1.16-.71,2-1.39,2-1.08.14-2.62-.41-3,.31s-5.49-.86-5.43-.91a9.21,9.21,0,0,1,4.32-1.83C168.41,225.06,167.46,225.79,170.67,225.28Z" transform="translate(-78.85 -48.44)"/><path class="cls-5" d="M161.57,231.39c-4.65,1.31-11,5.85-15.4,6.85-1.4.31-3.58.92-4.68-.26-5.67-6.14,2.22-4.12,2.89-6.44,4-3,10.36-1.59,15.54-4.38a10.82,10.82,0,0,1,1-.59c2-1,3.17-.93,6.69.84a4.14,4.14,0,0,0,2.45.43l3.54-.46c1.09,0,1.78.22,2,.58a6.34,6.34,0,0,1-.83,3.51h0c-.13.41-.93.72-2.2.74l-5.18,1.59-.24-.14C164,231.92,162.69,231.34,161.57,231.39Z" transform="translate(-78.85 -48.44)"/><path class="cls-6" d="M139.5,238.52c-4.18-3.9-10.12-9.58-12.24-14.06-1.38-2.91-1.64-11.09,2.81-12.12,1.49-.94,3.76,5.15,5.29,7.61a106.27,106.27,0,0,0,8,11.2c3.44-2.23,8.18-2.45,12.65-3.56a4.47,4.47,0,0,1,2.05-.06,6.71,6.71,0,0,0,1.56-.54c.5.14,2.18,3,1.89,4.74-.35.1-1.14.34-1.51.48-.53.18-.83.69-1.35,1-1.78,1-9.76,4.93-13.74,5.82-1.51.35-3.95,1.13-5.14-.15Z" transform="translate(-78.85 -48.44)"/><path class="cls-7" d="M139.5,238.52c-4.18-3.9-10.12-9.58-12.24-14.06-1.19-2.51-1.55-9,1.25-11.33,1.46-.16,2.3-.19,3,.39.87.73,1.22,2.53,2.48,5.2,1.91,4,4.81,6.39,5,11.14.17,3.5,1.77,7.63,4.38,9.5-1.31.27-2.76.39-3.6-.51Z" transform="translate(-78.85 -48.44)"/><path class="cls-7" d="M146.53,362l-35.89-20.44c-3.91-1.79-9.51-3.21-13.5-1.13-3.63,1.89-9.61,5.75-12.25,7.26-2,1.15-9,5.33-4.64,7.69,12.77,6.95,25.42,14.76,38.4,21.82,2.45,1.34,6,1.82,9.81,1.51a26.15,26.15,0,0,0,10.63-3.17l6.36-3.7c2.82-1.64,4.31-3.58,4.46-5.37S148.93,363.07,146.53,362Z" transform="translate(-78.85 -48.44)"/><path class="cls-5" d="M108.11,332.74a3.91,3.91,0,0,1-.45,2.22c-2.08,3,.4,2.77.29,7.08,0,.4,1.75,7.21,1.75,7.21s4.15,1,4.46.95,2.83-1,2.83-1c-.21-.37-.49-1.27-.66-1.61a27.11,27.11,0,0,1-2.29-8c-.31-1.88-.88-4.79-.49-6.76Z" transform="translate(-78.85 -48.44)"/><path class="cls-8" d="M117.13,349.12a18.54,18.54,0,0,1,1.16,2.75,1.3,1.3,0,0,1-.05,1.11c-.95,1.37-6-.9-7.73-2.31-1.11-.92-1.16-2-1.46-3.41-.45-2.05-.53-2.28-1.09-4.38l-.37,5.77-.46.31a63.71,63.71,0,0,0-1-7.42c-.18-.8-.45-1.7-.5-2.14a4.58,4.58,0,0,1,2.11-4.7c-.38,1.6,1,4.14,1.67,7.37C110.21,346,113.66,349.15,117.13,349.12Z" transform="translate(-78.85 -48.44)"/><path class="cls-9" d="M135.44,253.25c-.39,1.77,1.42,7.89,1,10.25-.44,7.74-1.8,14.3-7,29.79,0,.18-4.77,9.65-5.09,10.65C121,314,117,325,113.54,335.23c-1.27,1-5.13.68-5.63-1.72,1.06-10.2-.1-20.26,1.65-27.24,1.34-5.32,3.08-7.74,5.94-11.69.88-10,1.51-30.13,3.79-37.84Z" transform="translate(-78.85 -48.44)"/><path class="cls-10" d="M135.44,253.25c-.39,1.77-1.56,5.06-2,7.41-1.46,3.56-4.52,8.45-6.59,12.55-.62,5-.45,11.58-3.55,20.79l-2.81,21.3c-2.32,6.68-4.74,13.45-6.93,19.93-1.27,1-5.13.68-5.63-1.72,1.06-10.2-.1-20.26,1.65-27.24,1.34-5.32,3.08-7.74,5.94-11.69.88-10,1.51-30.13,3.79-37.84Z" transform="translate(-78.85 -48.44)"/><path class="cls-5" d="M112.2,343.08a13.79,13.79,0,0,1-.45,2.83,33,33,0,0,0-.31,5,44.67,44.67,0,0,0,1.12,9c.29,1.26.84,1.8,1.22,3.51l7.4,1.21c-.73-2.8-1.73-8.46-2.49-13.2l-1.41-8.87Z" transform="translate(-78.85 -48.44)"/><path class="cls-8" d="M111.82,345.42a13.5,13.5,0,0,0-1,4.3c-.07,2,.87,5.19.79,7.7l-.12,4c-.08,2.31.51,3.92,3.14,5.84,2.39,1.73,4.72,2.45,6,1.83.93-.45,1.67-2.1.25-6.42-1.19-3.61-1.5-7.13-2.2-11A39.4,39.4,0,0,0,120,360.5c.26,1.05.41,2.81-.84,3-5.16.74-5.42-.65-5.85-2.24C112.12,357,111.29,349.41,111.82,345.42Z" transform="translate(-78.85 -48.44)"/><path class="cls-11" d="M109.91,259.37c-5.74,7.19-5.88,11.17-4.64,19.81.84,5.77,2.53,12.78,3,22.93-.49,5.23-1.43,11.09-.72,19.22.53,6,2.21,16.25,3.48,23.51,1.19,2.24,6.83,1.26,7.75.11-.26-10.4-.1-17.53.4-25.93.48-8.17,1.45-15.75,2.07-23.8.5-6.67,2.53-15.74,2.79-22.94,1.08-3.39,11.24-14.64,9.13-14.49Z" transform="translate(-78.85 -48.44)"/><path class="cls-12" d="M110.61,243.2c2.58,6-1.8,9.27-.22,13.38l-.49,2.78c4.7,3.38,21.53,3.63,25.75-3.07l.09-3.34c.72-1.6.24-5.64,0-6.71-.68-3.39-.36-5.19-.73-9.11-.09-1-.28-1.61-.37-2.62,3.75-2.8,3.51-8.21,1.29-11.46a27.82,27.82,0,0,1-2.91-5.14,24.8,24.8,0,0,0-.65-2.95,4.84,4.84,0,0,0-.79-1.61c-1.07-1.53-2.8-1.71-6.33-.9-7,1.61-14.21,5.24-17.42,8.67-2.34,2.49-2.25,5.25-.91,11.23A64.69,64.69,0,0,0,110.61,243.2Z" transform="translate(-78.85 -48.44)"/><path class="cls-7" d="M110.56,243.16c2.58,6-1.7,9.38-.12,13.49l-.49,2.74c4.71,3.67,21.54,3.49,25.75-3.2l-.09-2.92c0-.12-8.26,7.33-17.66,3.19-2-.9-3.89-5.37-1.25-13.91.25-.81,3.25-.86,7.5-4-3.14,1.33-9,3.15-9.34-4.82-.13-3.57-.65-6.25-2.48-8.73-.88-1.2-6.07,5.1-5.28,8.13A76.52,76.52,0,0,0,110.56,243.16Z" transform="translate(-78.85 -48.44)"/><path class="cls-13" d="M108.33,256.38c.86.52,2.42,1,3,1.4.33.19,2.65,1.64,4,2.52s1.8,2.3,2.63,3.81a9.18,9.18,0,0,1,.94,2.73c.09.64-1.52,1.86-2.21,1.71-1.56-.35-3.15-2.26-3.56-2.48-3.49-1.81-5.16-2-6.42-3.43-.54-.61-.87-2.41-2-4l2.14-1.93Z" transform="translate(-78.85 -48.44)"/><path class="cls-14" d="M107.91,220.68C102.72,223.94,97,233,91.85,241a3.73,3.73,0,0,0-.21,4,9.59,9.59,0,0,0,1,1.82,49.73,49.73,0,0,0,10,11.22,3.91,3.91,0,0,0,1.51.63c.33.27.79.76,1.14,1-.43-.56,2.16-3.35,3.34-3.17-.3-.37-.61-.78-.93-1.21a3.55,3.55,0,0,0-.2-1.32,39.77,39.77,0,0,0-6.56-10.7c4.68-5.06,7.36-6.29,11.72-11.59C118,225.22,111.34,218.51,107.91,220.68Z" transform="translate(-78.85 -48.44)"/><path class="cls-5" d="M118.72,207.48a18.44,18.44,0,0,1-.7,9c2.52,2.34,7,1.35,8-.77-.22-1.37-.48-2.63-.63-4Z" transform="translate(-78.85 -48.44)"/><path class="cls-15" d="M118.72,207.48a17.78,17.78,0,0,1,.22,4.35c.74,3,6.34,5,6.92,2.63-.16-.92-.31-1.82-.42-2.79Z" transform="translate(-78.85 -48.44)"/><path class="cls-5" d="M129.14,194.44a10,10,0,0,1,1.64,6.85,2.91,2.91,0,0,0,.23,1.63c1.18,2.66,1.07,3.48.49,5.61s-.53,3.15-1.24,3.86a4,4,0,0,1-2.72,1c-1.89.12-5.12-1.12-7-2.15-1.39-.76-1.34-1.28-1.93-2.6-2-1.71-.69-3,0-3.09,1.89-.36,2.2,1.81,3.31,2.29C121.71,204,129,197.51,129.14,194.44Z" transform="translate(-78.85 -48.44)"/><path class="cls-16" d="M130,196a9.91,9.91,0,0,1,.81,5.32,2.91,2.91,0,0,0,.23,1.63c1.18,2.66,1.07,3.48.49,5.61-.26.93-.39,1.65-.52,2.24a1.78,1.78,0,0,1-2.2.64,3.4,3.4,0,0,1-1.75-2.83c-.14-1.1-2.4-1.83-2.86-3-.39-.93.65-2,1.28-2.5A15.69,15.69,0,0,0,130,196Z" transform="translate(-78.85 -48.44)"/><path class="cls-17" d="M129.14,194.44c-1.06,4.7-7.19,8.25-7.25,13.35C123.57,202.49,129.52,198.86,129.14,194.44Z" transform="translate(-78.85 -48.44)"/><path class="cls-7" d="M301.27,393.62,190.14,331.71c-3.49-1.59-8.61-3.1-12-1L169.35,336c-1.76,1.07-7.55,4.63-3.68,6.74,11.4,6.2,101.34,57,112.92,63.26a16.22,16.22,0,0,0,8.75,1.34,22,22,0,0,0,9.47-2.83l3.5-2.15c2.47-1.53,3.84-3.19,4-4.79S303.41,394.59,301.27,393.62Z" transform="translate(-78.85 -48.44)"/><path class="cls-18" d="M223.6,55.17a7.85,7.85,0,0,0-6.7-.75l-7,2.72c1.16-.46,123.49,71.6,122.57,77.88L289.68,401l7-2.72c2.94-1.16,4.49-4.23,4.92-7.21l37.91-258.72v0a18.5,18.5,0,0,0-3.08-12.52,14.62,14.62,0,0,0-5.07-4.88Z" transform="translate(-78.85 -48.44)"/><path class="cls-19" d="M324.37,117.6,216.64,57.89c-5.46-3-10.66-.13-11.63,6.46l-37.9,258.73c-1,6.59,2.67,14.39,8.13,17.42L283,400.21c5.47,3,10.68.13,11.64-6.46L332.51,135C333.47,128.44,329.83,120.63,324.37,117.6Z" transform="translate(-78.85 -48.44)"/><path class="cls-20" d="M283.74,323.72,183.46,268.13a7.27,7.27,0,0,0-6.23-.69c-2.34.91-4.09,3.27-4.59,6.71L166,321c-.9,6.13,2.48,13.39,7.56,16.21l100.28,55.58c5.08,2.82,9.93.12,10.83-6l6.66-46.88C292.21,333.81,288.82,326.54,283.74,323.72Z" transform="translate(-78.85 -48.44)"/><path class="cls-18" d="M282.53,334.46l-8.18,51.93.92.11,2.5-1c2.74-1.09,4.18-3.94,4.59-6.72L289,331.93v0a17.26,17.26,0,0,0-2.87-11.65,13.53,13.53,0,0,0-4.72-4.55L181.16,260.13a7.35,7.35,0,0,0-6.24-.7l-2.21.86c-1.11.42-1.45.75-1.44.82C172.31,270.82,284,324.51,282.53,334.46Z" transform="translate(-78.85 -48.44)"/><path class="cls-21" d="M278.91,316.7,178.64,261.12a7.3,7.3,0,0,0-6.24-.7c-2.34.91-4.08,3.28-4.59,6.72L161.16,314c-.9,6.14,2.48,13.4,7.56,16.22L269,385.82c5.08,2.82,9.93.12,10.83-6l6.66-46.89C287.39,326.79,284,319.52,278.91,316.7Z" transform="translate(-78.85 -48.44)"/><path class="cls-22" d="M168.49,300.64a4.05,4.05,0,0,0,1.81,3.88l102.92,57.09a1.68,1.68,0,0,0,2.59-1.44c1.68-10.12,2.91-20.47,4.35-30.65a4,4,0,0,0-1.81-3.87l-102.92-57.1a1.72,1.72,0,0,0-1.49-.17,1.92,1.92,0,0,0-1.1,1.61Z" transform="translate(-78.85 -48.44)"/><path class="cls-23" d="M273.46,370.25,170.54,313.16a1.72,1.72,0,0,0-1.49-.17,1.91,1.91,0,0,0-1.1,1.61l-.38,2.31a4,4,0,0,0,1.81,3.87l102.92,57.1a1.68,1.68,0,0,0,2.59-1.44l.39-2.31A4.06,4.06,0,0,0,273.46,370.25Z" transform="translate(-78.85 -48.44)"/><path class="cls-24" d="M329.92,132.37,292.6,111.75a8,8,0,0,0-6.88-.77c-2.57,1-4.5,3.61-5.06,7.41L276,151.47c-1,6.77,2.74,14.78,8.34,17.89L321.7,190a9.88,9.88,0,0,0,2.59,1l6.84-2,6.71-45.56C336.63,138.79,333.7,134.46,329.92,132.37Z" transform="translate(-78.85 -48.44)"/><path class="cls-18" d="M336,151.71,330.09,188l.92.11,2.5-1c2.74-1.08,4.18-3.94,4.59-6.71l4.35-31.25v0a17.15,17.15,0,0,0-2.87-11.65,13.41,13.41,0,0,0-4.71-4.55l-38.42-21.09a7.34,7.34,0,0,0-6.24-.7L288,112c-1.11.42-1.46.75-1.45.82C287.6,122.56,337.43,141.76,336,151.71Z" transform="translate(-78.85 -48.44)"/><path class="cls-25" d="M332.35,134l-38.42-21.09a7.3,7.3,0,0,0-6.24-.7c-2.33.91-4.08,3.28-4.59,6.72l-4.35,31.25c-.9,6.13,2.48,13.39,7.56,16.21l38.43,21.09c5.08,2.82,9.93.12,10.83-6l4.36-31.25C340.83,144,337.43,136.77,332.35,134Z" transform="translate(-78.85 -48.44)"/><path class="cls-26" d="M315.61,136.12a3.1,3.1,0,0,1,.32,1.79,12.69,12.69,0,0,1-.7,2.29L307,162.93c-.26.76-.5,1.34-.68,1.76a1.41,1.41,0,0,1-.74.79c-.28.13-.67,0-1.18-.27a3.1,3.1,0,0,1-1.62-3.14,15.83,15.83,0,0,1,.68-2.37L311.66,137a8.18,8.18,0,0,1,1.1-2.35c.3-.37.82-.32,1.51.1a3.49,3.49,0,0,1,1.34,1.42ZM317.8,142l-.75,6.32,12.09,14-13.56-1.72-.75,6.35,19.51,1.53.64-5.38L317.8,142Zm-34.11-4.83,17.19,21.15.76-6.35-12-14.12,13.49,1.84.77-6.41-19.52-1.55Z" transform="translate(-78.85 -48.44)"/><path class="cls-27" d="M211.59,166l-19.71-10.82-8.54,58.26,19.94,11c5.55,3.07,10.85.13,11.83-6.56l4.75-34.12C220.85,177,217.14,169.06,211.59,166Z" transform="translate(-78.85 -48.44)"/><path class="cls-18" d="M210.29,181.7,204.4,218l.92.11,2.5-1c2.74-1.08,4.18-3.94,4.59-6.71l4.35-31.25v0a17.26,17.26,0,0,0-2.87-11.65,13.53,13.53,0,0,0-4.72-4.55l-38.42-21.09a7.34,7.34,0,0,0-6.24-.7l-2.2.87c-1.11.41-1.46.75-1.45.81C161.91,152.55,211.75,171.75,210.29,181.7Z" transform="translate(-78.85 -48.44)"/><path class="cls-28" d="M206.66,163.94l-38.42-21.09a7.28,7.28,0,0,0-6.23-.7c-2.34.91-4.09,3.28-4.59,6.72l-4.36,31.25c-.9,6.13,2.48,13.39,7.57,16.21l38.42,21.09c5.08,2.82,9.93.12,10.83-6l4.36-31.25C215.14,174,211.74,166.76,206.66,163.94Z" transform="translate(-78.85 -48.44)"/><path class="cls-25" d="M190.42,176.81l-.9,6,2.72,1.51a26.05,26.05,0,0,0,3.06,1.56,1.83,1.83,0,0,0,1.79,0,2.2,2.2,0,0,0,.92-1.69,4.32,4.32,0,0,0-.22-2.27,3.69,3.69,0,0,0-1.42-1.77c-.41-.27-1.59-1-3.56-2.07l-2.39-1.33Zm-21.37.52,5.65,3.14-1.45-11.28-4.2,8.14Zm2.93-15.5,4.43,2.46,4.36,30.79-4.48-2.49-.91-7L167.1,181l-2.58,5-4.43-2.46L172,161.83Zm24.27,35.77a2.92,2.92,0,0,0,.9-1.93,4.83,4.83,0,0,0-.14-2.24,5.07,5.07,0,0,0-1.11-1.92,16.28,16.28,0,0,0-3.65-2.46l-3.37-1.88-1.06,7.06,3.88,2.15a15.35,15.35,0,0,0,2.89,1.41,1.7,1.7,0,0,0,1.66-.19Zm4.76-3.78a9.68,9.68,0,0,1,.39,4.49,7.19,7.19,0,0,1-1.17,3.14,3.85,3.85,0,0,1-2.17,1.69,4.31,4.31,0,0,1-3-.3c-.7-.3-2.37-1.14-5-2.62l-7-3.91,3.9-26.2,8.26,4.59a29,29,0,0,1,3.61,2.28,9,9,0,0,1,2,2.3,11.4,11.4,0,0,1,1.23,3.08,8.09,8.09,0,0,1,.2,3.38,5.4,5.4,0,0,1-1.29,2.94,3.12,3.12,0,0,1-2.45,1.12A10.22,10.22,0,0,1,201,193.82Z" transform="translate(-78.85 -48.44)"/><path class="cls-29" d="M284.94,209.32c-6.81-5.44-10.89-16.72-9.1-25.22s8.75-11,15.57-5.54,10.88,16.72,9.1,25.21S291.75,214.75,284.94,209.32Z" transform="translate(-78.85 -48.44)"/><path class="cls-18" d="M277.35,178c1.24-1.29,4.35-2,6.09-2.12a9.65,9.65,0,0,1,6.55,2.57c5.9,4.86,9.44,15,7.89,22.59a10.9,10.9,0,0,1-2.45,5.31,13.33,13.33,0,0,1-6.16,2.75C279.65,210.46,273.71,181.82,277.35,178Z" transform="translate(-78.85 -48.44)"/><path class="cls-30" d="M282,206.62c-5.91-4.87-9.44-15-7.89-22.59s7.59-9.84,13.5-5,9.43,15,7.89,22.59S287.94,211.48,282,206.62Z" transform="translate(-78.85 -48.44)"/><polygon class="cls-25" points="211.88 139.6 213.48 140.75 201.87 151.9 197.5 140.42 199.64 141.65 202.5 145.71 211.88 139.6"/><path class="cls-31" d="M209.41,233.43l-13.13-7.38a8.17,8.17,0,0,0-7-.79c-2.64,1-4.61,3.69-5.18,7.58l-1.73,12.22c-1,6.92,2.8,15.12,8.53,18.29L204,270.74c5.73,3.18,11.21.14,12.22-6.78L218,251.73C219,244.81,215.14,236.61,209.41,233.43Z" transform="translate(-78.85 -48.44)"/><path class="cls-18" d="M208.45,250.67l-3.07,15.88.92.11,2.5-1c2.74-1.08,4.18-3.94,4.58-6.71l1.54-10.84v0a17.28,17.28,0,0,0-2.87-11.65,13.59,13.59,0,0,0-4.72-4.54l-11.63-6.55a7.35,7.35,0,0,0-6.24-.7l-2.2.87c-1.11.41-1.46.75-1.45.82C186.86,236.06,209.91,240.72,208.45,250.67Z" transform="translate(-78.85 -48.44)"/><path class="cls-32" d="M204.82,232.91l-11.63-6.55a7.3,7.3,0,0,0-6.24-.7c-2.33.91-4.08,3.28-4.59,6.72l-1.54,10.84c-.9,6.13,2.49,13.4,7.57,16.22L200,266c5.09,2.82,9.94.12,10.84-6l1.54-10.84C213.3,243,209.9,235.73,204.82,232.91Z" transform="translate(-78.85 -48.44)"/><path class="cls-25" d="M205.37,242.83c-.23,1.54-1.43,2.23-2.7,1.53a4.24,4.24,0,0,1-1.9-4.08,1.74,1.74,0,0,1,2.71-1.47,4.18,4.18,0,0,1,1.89,4Zm-7,13.65c.22-1.54,1.42-2.21,2.71-1.49a4.2,4.2,0,0,1,1.89,4c-.23,1.54-1.43,2.23-2.7,1.53a4.21,4.21,0,0,1-1.9-4.07Zm-7.94-13.14a1.75,1.75,0,0,1-2.71,1.48,4.2,4.2,0,0,1-1.89-4c.23-1.53,1.44-2.22,2.7-1.52a4.25,4.25,0,0,1,1.9,4.07Zm13.31-6.49c-2.16-1.2-4.23-.08-4.62,2.54v.19l-7.53,1.19a6.39,6.39,0,0,0-2.78-3.43c-2.16-1.2-4.2-.05-4.59,2.56a7.16,7.16,0,0,0,3.21,6.87,2.83,2.83,0,0,0,3.29-.09l6.08,8.76-.05.14a7.21,7.21,0,0,0,3.24,6.89c2.13,1.18,4.2.06,4.58-2.55a7.2,7.2,0,0,0-3.2-6.88,2.83,2.83,0,0,0-3.88.64l-5.76-8.39a3.29,3.29,0,0,0,.3-1.06,4.76,4.76,0,0,0,0-1.25l7.16-1.22a7,7,0,0,0,3.13,4.52c2.14,1.19,4.2.06,4.59-2.56A7.18,7.18,0,0,0,203.77,236.85Z" transform="translate(-78.85 -48.44)"/><path class="cls-33" d="M323.42,238.52l-84.69-46.94a7.51,7.51,0,0,0-6.44-.73c-2.41.94-4.22,3.39-4.74,7L218.77,260c-.93,6.34,2.57,13.85,7.82,16.76l79,43.76,6.93-2.11Z" transform="translate(-78.85 -48.44)"/><path class="cls-18" d="M346.24,264.88l-10,65.26.92.11,2.5-1c2.75-1.08,4.19-3.94,4.59-6.71l8.49-60.22s0,0,0,0a17.28,17.28,0,0,0-2.87-11.65,13.59,13.59,0,0,0-4.72-4.54L244.86,190.55a7.31,7.31,0,0,0-6.24-.7l-2.21.86c-1.1.42-1.45.75-1.44.82C236,201.24,347.7,254.93,346.24,264.88Z" transform="translate(-78.85 -48.44)"/><path class="cls-34" d="M342.61,247.12,242.34,191.54a7.26,7.26,0,0,0-6.24-.7c-2.33.91-4.08,3.27-4.59,6.72L223,257.78c-.9,6.13,2.48,13.39,7.56,16.21l100.28,55.58c5.08,2.82,9.94.12,10.83-6l8.5-60.22C351.09,257.21,347.69,249.94,342.61,247.12Z" transform="translate(-78.85 -48.44)"/><path class="cls-35" d="M337.62,284,234.7,226.9a1.75,1.75,0,0,0-1.49-.16,1.91,1.91,0,0,0-1.1,1.6l-.38,2.32a4,4,0,0,0,1.81,3.87l102.92,57.1a1.68,1.68,0,0,0,2.59-1.44l.39-2.31A4.05,4.05,0,0,0,337.62,284Z" transform="translate(-78.85 -48.44)"/><path class="cls-35" d="M335.55,298.14,232.63,241.05a1.72,1.72,0,0,0-1.49-.17,1.91,1.91,0,0,0-1.1,1.61l-.38,2.31a4.06,4.06,0,0,0,1.81,3.87l102.92,57.1a1.68,1.68,0,0,0,2.59-1.44l.39-2.31A4.06,4.06,0,0,0,335.55,298.14Z" transform="translate(-78.85 -48.44)"/><path class="cls-35" d="M285,285.15l-54.41-30a1.72,1.72,0,0,0-1.49-.17,1.91,1.91,0,0,0-1.1,1.61l-.38,2.31a4.06,4.06,0,0,0,1.81,3.87l54.41,30c1.21.67,2.37,0,2.59-1.44l.38-2.31A4,4,0,0,0,285,285.15Z" transform="translate(-78.85 -48.44)"/><path class="cls-35" d="M288.64,233.22c-1.85-1-3.61,0-3.94,2.19a6.15,6.15,0,0,0,2.76,5.89c1.85,1,3.61,0,3.93-2.18a6.15,6.15,0,0,0-2.75-5.9Zm4.52,6.88c-.5,3.42-3.19,4.92-6,3.35a9.39,9.39,0,0,1-4.2-9c.5-3.41,3.19-4.91,6-3.35s4.7,5.61,4.2,9Zm4.33.4,1.84,1a15.23,15.23,0,0,1-.17,1.91,15.54,15.54,0,0,1-.37,1.78l-1.84-1a8.24,8.24,0,0,1-2.3,3.8l1.08,2.3a7.85,7.85,0,0,1-2.54,1.41l-1.07-2.29a7.07,7.07,0,0,1-4.17-.21l-.32,2.22a10.67,10.67,0,0,1-1.55-.71,14.41,14.41,0,0,1-1.51-1l.33-2.22a15.38,15.38,0,0,1-3.6-4.1l-1.53.85a23.51,23.51,0,0,1-1.78-3.8l1.54-.85a17.15,17.15,0,0,1-.92-5.59l-1.84-1a17,17,0,0,1,.16-1.89,17.59,17.59,0,0,1,.38-1.79l1.84,1a8.35,8.35,0,0,1,2.29-3.81l-1.07-2.29a7.4,7.4,0,0,1,2.54-1.41l1.07,2.29a7,7,0,0,1,4.17.21l.32-2.22a10.75,10.75,0,0,1,1.55.72,12.87,12.87,0,0,1,1.51,1L291.2,227a15.29,15.29,0,0,1,3.6,4.08l1.53-.85a23.18,23.18,0,0,1,1.77,3.81l-1.53.85A17,17,0,0,1,297.49,240.5Z" transform="translate(-78.85 -48.44)"/><path class="cls-36" d="M270.29,106.76,204.5,70.29l-11,72.46,66,36.58c5.25,2.91,10.25.12,11.18-6.2l7.42-49.64C279,117.16,275.53,109.66,270.29,106.76Z" transform="translate(-78.85 -48.44)"/><path class="cls-18" d="M269.53,123.88l-7.84,48.94.92.11,2.5-1c2.74-1.08,4.18-3.94,4.59-6.71L276,121.36v0a17.21,17.21,0,0,0-2.87-11.65,13.58,13.58,0,0,0-4.71-4.55L168.15,49.55a7.38,7.38,0,0,0-6.24-.7l-2.2.87c-1.11.41-1.46.75-1.45.82C159.3,60.24,271,113.93,269.53,123.88Z" transform="translate(-78.85 -48.44)"/><path class="cls-25" d="M265.9,106.13,165.63,50.54a7.28,7.28,0,0,0-6.23-.7c-2.34.91-4.09,3.28-4.59,6.72l-6.31,43.9c-.9,6.13,2.48,13.39,7.56,16.21l100.28,55.58c5.08,2.82,9.93.12,10.83-6l6.31-43.89C274.38,116.21,271,108.94,265.9,106.13Z" transform="translate(-78.85 -48.44)"/><path class="cls-37" d="M172.35,72.87c-7.45-4.67-14.54-.91-15.84,8.38s3.67,20.62,11.12,25.29,14.55.92,15.85-8.38S179.8,77.54,172.35,72.87Z" transform="translate(-78.85 -48.44)"/><polygon class="cls-25" points="86.64 28.6 84.34 45.42 98.69 46.61 86.64 28.6"/><path class="cls-38" d="M262.77,131.5,191.93,91.92a1.61,1.61,0,0,0-1.38-.16,1.78,1.78,0,0,0-1,1.49l-.35,2.13A3.72,3.72,0,0,0,190.86,99l70.84,39.59a1.56,1.56,0,0,0,2.39-1.33l.35-2.13A3.74,3.74,0,0,0,262.77,131.5Z" transform="translate(-78.85 -48.44)"/><path class="cls-38" d="M261.07,144.6,190.23,105a1.59,1.59,0,0,0-1.37-.15,1.77,1.77,0,0,0-1,1.48l-.35,2.13a3.74,3.74,0,0,0,1.67,3.58L260,151.64a1.55,1.55,0,0,0,2.39-1.33l.35-2.13A3.75,3.75,0,0,0,261.07,144.6Z" transform="translate(-78.85 -48.44)"/><path class="cls-38" d="M259.06,157.65l-70.84-39.58a1.61,1.61,0,0,0-1.38-.15,1.76,1.76,0,0,0-1,1.48l-.35,2.13a3.72,3.72,0,0,0,1.67,3.58L258,164.69a1.56,1.56,0,0,0,2.4-1.33l.35-2.13A3.75,3.75,0,0,0,259.06,157.65Z" transform="translate(-78.85 -48.44)"/><path class="cls-39" d="M264.68,117.65,193.84,78.07a1.61,1.61,0,0,0-1.38-.15,1.76,1.76,0,0,0-1,1.48l-.35,2.13a3.74,3.74,0,0,0,1.67,3.58l70.84,39.58a1.55,1.55,0,0,0,2.39-1.32l.35-2.14A3.75,3.75,0,0,0,264.68,117.65Z" transform="translate(-78.85 -48.44)"/><path class="cls-7" d="M424.38,427.69,377.2,400.82c-5.14-2.35-12.5-4.22-17.74-1.49-4.78,2.48-12.64,7.57-16.12,9.55-2.64,1.51-11.81,7-6.1,10.11,16.8,9.13,33.43,19.41,50.49,28.69,3.23,1.75,7.95,2.39,12.9,2a34.08,34.08,0,0,0,14-4.16l8.36-4.87c3.7-2.15,5.67-4.7,5.86-7.06S427.54,429.13,424.38,427.69Z" transform="translate(-78.85 -48.44)"/><path class="cls-40" d="M392.3,286.65c.63-2.74,1.52-5.9,2.33-9.12,1.62-6.44,2.94-13.15,1.33-17.3-.69-1.77-1.9-2.63-3.27-3.73-3.54-2.85-3,4.8-8.57,4.14-.89,1.18-.61,3.85-.32,6.4C384.85,276.24,389.26,289.49,392.3,286.65Z" transform="translate(-78.85 -48.44)"/><path class="cls-5" d="M356.93,256.89c.63-1.95,2.89-.92,3.53-.17,1.11,1.12,2.4,2.53,3.93,3a6,6,0,0,1,4.71,4.46c.27.92-.47.87-1.38,2.19-2.9-2.27-6.17-2.37-6.44-2.77C358.68,259.69,360.35,260.13,356.93,256.89Z" transform="translate(-78.85 -48.44)"/><path class="cls-5" d="M365.75,269.89l3,3.52,3.53-6.19c-.5-.72-1.44-.83-1.85-1.63-.23-.55-.47-1.08-.72-1.54-1.6-2.87-2.7-3.34-8.36-4.11a4.58,4.58,0,0,1-2.87-1.28l-3.87-3.45c-1.27-.94-2.31-1.2-2.8-.91s-1.93,3.32-1.89,4.89h0c-.11.38.13.93.69,1.55,1.69,1.85,3.12,3.48,4.61,5.3,2.56,3.11,1.84,1.93,6.18,2.51C363.85,268.89,364.85,269.21,365.75,269.89Z" transform="translate(-78.85 -48.44)"/><path class="cls-41" d="M352.6,259.35c.15-.7,1.15-4.06,1.5-4.16.69-.19,1.62.95,2.5,1.82,1.32,1.3,3.56,4.09,5.36,4.49,4.29.94,6.23,2.35,8.24,8.32l-1.1-.71c-2.32-7.09-6.4-1.7-10.61-4.35C355.92,263.15,352.48,259.9,352.6,259.35Z" transform="translate(-78.85 -48.44)"/><path class="cls-42" d="M375.83,268.18a15.84,15.84,0,0,1-3.07-1.15c-.69-.55-1.69-1.36-2.08-1.64-1.58.62-3.42,3-4.54,5.31.69.78,1.38,1.61,2.07,2.47.51.65.77,2.4,1.27,3.07,3.14,4.21,10.16,9.39,14,13.09,4.64,4.41,10.07,4.8,12.42,2.06,1.26-1.48,2-3.73.43-7-1-2.08-3.77-4.19-6.17-6.2C385.63,274.34,378.47,269.23,375.83,268.18Z" transform="translate(-78.85 -48.44)"/><path class="cls-43" d="M398.64,294c-1.7,1.91-4.84,2.15-8-.75-.2-.14-.41-.28-.62-.44l-.24-.62a4.63,4.63,0,0,1-.71-1.81c-.4-1.05-.81-2.15-1.18-3.21-1.42-4-4.36-13.34-5.18-20.33-1.14-9.74,6.28-13.69,11.39-11.05,4.39,2.26,4.62,9.9,5.22,14.06C400.14,275.81,402.75,289.4,398.64,294Z" transform="translate(-78.85 -48.44)"/><path class="cls-25" d="M403.23,425.85c-1,0-4.39-3.2-7.59-1.59-3.85,1.93-11.16.22-14.85,1.1-.65.16-1.94-.32-2.19.13-.8,1.41-1.57,3.52.39,4.91a34.13,34.13,0,0,0,6.53,3.08,56,56,0,0,0,8.27,2.34c2.72.42,4,.6,5,1.38a7.23,7.23,0,0,0,3.8.92,6.45,6.45,0,0,0,4.85-3.38,14.7,14.7,0,0,0,0-5.37,27.43,27.43,0,0,0-1.72-4.69Z" transform="translate(-78.85 -48.44)"/><path class="cls-44" d="M395.36,419c1.21,2.93.84,7.45,3.73,9,1.92,1.05,5,1.06,6.26-1.94.74-1.67-.24-4.53,0-8.2Z" transform="translate(-78.85 -48.44)"/><path class="cls-18" d="M394.55,423.54c-2.21.64-8.31.22-12.17.53-1.66.13-3.15.12-3.92,1.62s-.34,2.58,1.27,3.72a27,27,0,0,0,5.9,2.89,54.45,54.45,0,0,0,8.27,2.34c2.72.43,4,.61,5,1.39a7.25,7.25,0,0,0,3.8.92,6.7,6.7,0,0,0,4.85-3.6,13.11,13.11,0,0,0,0-5.15,8.08,8.08,0,0,0-.28-1.1c-.3-2.9-1.26-4.07-2.17-3.58a5.63,5.63,0,0,0-2.17,2.91,2.86,2.86,0,0,1-1.68,1.61,3.34,3.34,0,0,1-3.71-1.63,10.63,10.63,0,0,1-1-2.94v-.3c-.29-2.54-1.52-2.32-1.34-1.78A2.17,2.17,0,0,1,394.55,423.54Z" transform="translate(-78.85 -48.44)"/><path class="cls-25" d="M379.23,425.27c0,1-1.47,1.07-1,2.8-.72-.71.29-2.75.73-3.06C379.11,424.89,379.26,424.83,379.23,425.27Z" transform="translate(-78.85 -48.44)"/><path class="cls-25" d="M378.08,415.79c-.94-.37-3-4.52-6.58-4.11a18.08,18.08,0,0,1-6.09-.88c-3.74-1.06-9-4.4-9.84-3.86-1.94,1.19-2.09,3.37-.73,5.34a27.06,27.06,0,0,0,4.54,4.74,48,48,0,0,0,6.41,4.88c2,1.14,2.74,1,4.2,3a6.93,6.93,0,0,0,3.26,2.06,7.76,7.76,0,0,0,6.35-2.39c.71-2.3,1.95-4.48,1.16-7.93Z" transform="translate(-78.85 -48.44)"/><path class="cls-44" d="M373.14,406c.06,3.16-2,7.23.15,9.75,1.41,1.69,4.21,2.81,6.54.5,1.3-1.28,1.44-4.3,3-7.63Z" transform="translate(-78.85 -48.44)"/><path class="cls-18" d="M366.37,409.86l-.64-.18c-3.74-1.06-8.74-3.64-9.63-3.09-1.93,1.19-2.3,2.6-.94,4.57a27.06,27.06,0,0,0,4.54,4.74,48,48,0,0,0,6.41,4.88c2.05,1.14,2.74,1,4.2,3a6.93,6.93,0,0,0,3.26,2.06,8,8,0,0,0,6.45-2.4,19.21,19.21,0,0,0,1.31-5.5c.31-2.81.12-4.24-1.11-4.21-2.28.07-3.22,1.27-4.16,1.85-2,1.27-3.38-.36-3.72-2.39a11.75,11.75,0,0,1,.19-2.67c0-.09.07-.18.11-.27.66-2.47-.57-2.72-.59-2.15a2.11,2.11,0,0,1-1.88,2.15A16.58,16.58,0,0,1,366.37,409.86Z" transform="translate(-78.85 -48.44)"/><path class="cls-25" d="M356.33,406.9c-.39.9-1.79.34-2.14,2.08-.35-1,1.44-2.35,2-2.44C356.38,406.51,356.55,406.53,356.33,406.9Z" transform="translate(-78.85 -48.44)"/><path class="cls-45" d="M375.29,320.48c-.82,9.18-5.42,38.48-4.14,46.52,1.93,12.1,1.38,26.71,1.36,39.55.32,5.39,7.74,8.21,9.9,4.79,1.73-11.48,4.2-21.53,5.2-27.9,1.12-7.14.75-15.81-1.06-20.51.74-5.12,4.24-18.34,7.16-27.5,1.05-3.31,7-14,.84-24.61Z" transform="translate(-78.85 -48.44)"/><path class="cls-46" d="M372.39,403.11c0,.95,0,2.4,0,3.33.33,5.4,7.84,8.32,10,4.9.12-.85.31-1.69.44-2.52C380,412,374.26,407.89,372.39,403.11Z" transform="translate(-78.85 -48.44)"/><path class="cls-47" d="M371,361.54c2.41,12.13,9.25,28.34,13,40.53,1.94-10.45,6.81-28.24,2.6-39.14.42-2.91,1.74-8.46,3.33-14.39-3.23-6.13-.14-11-1.67-19.67-8.57-1.49,4.36-11.95-13.77-.94C372.82,341,371.3,349.13,371,361.54Z" transform="translate(-78.85 -48.44)"/><path class="cls-48" d="M375.88,373.05c4.95,11.19,14.07,33.14,18.92,46.88,2.51,3.65,11.46,3.27,11.44-.14-2-11.48-4.3-29.19-8.42-39.26a90.91,90.91,0,0,0-7.59-12.7c-1.31-5.07-2.94-18.76-4.2-26.17,1.13-6.13,6.07-16.37-3.43-25.28-3.83,2.73-15.68,4.43-21.05,1.39C360.68,342,366.62,352.08,375.88,373.05Z" transform="translate(-78.85 -48.44)"/><path class="cls-46" d="M393.79,417.53c.22.6.65,1.82.85,2.39,2.59,3.76,11.8,3.37,11.78-.14-.1-.56-.19-1.15-.29-1.74C403.93,420.28,397.29,420.31,393.79,417.53Z" transform="translate(-78.85 -48.44)"/><path class="cls-49" d="M396.84,287.57c-.8,7.2,1.36,14.27-.84,20.84-.1.67-.16,3.34-.28,4.06-1.45,8.5-19.44,17.11-34.44,8.95-.09-1.05,0-2.16-.07-4.11.27-1.82-.51-3.78-.51-4.89,0-4.63,1.46-7,.77-12.15-1.4-10.48-7.21-20.55-4-28.79.69-1.77,1.9-2.63,3.27-3.73,3.54-2.85,21.88-12.19,27.44-12.85C404.33,252.81,397.7,279.77,396.84,287.57Z" transform="translate(-78.85 -48.44)"/><path class="cls-50" d="M365.51,254.83c1,.51,6.2-.23,6.05.24-.07,2.31-.76,3.72-1,6.9,5.7-.8,13.17-1.62,13.47-6l-.06-1a.6.6,0,0,0,0-.12h0a7.65,7.65,0,0,1,.46-3.74c1.2-1.95,3.68-4.12,4.56-7.08,1.4-4.73.89-10-3.51-13.47-8.05-6.39-18.34-1.85-20.95,7.5-.51,1.82.93,2.81.88,4.37,0,.31-.41.63-.74,1.3C364.23,244.63,364.26,254.21,365.51,254.83Z" transform="translate(-78.85 -48.44)"/><path class="cls-51" d="M365.57,254.78c1,.5,6.14-.18,6,.29-.07,2.31-.76,3.72-1,6.9,3.31.81,12.23-.38,13.57-5.4,0-1.06,0-5,.3-5.5,1.2-1.95,3.68-4.12,4.56-7.08,1.4-4.73.89-10-3.51-13.47-8.05-6.39-18.34-1.85-20.95,7.5-.51,1.82.93,2.81.88,4.37,0,.31-.41.63-.74,1.3C364.23,244.63,364.31,254.16,365.57,254.78Z" transform="translate(-78.85 -48.44)"/><path class="cls-52" d="M365.72,254.83c.55.29,2.78.1,4.45-.54a7.48,7.48,0,0,0,2-1.37c.69-.28,2.22-2.45-.15-5.92s11.7,5.27,12.45,4.07c1.2-1.95,3.68-4.12,4.56-7.08,1.4-4.73.89-10-3.51-13.47-8.05-6.39-18.34-1.85-20.95,7.5-.51,1.82.93,2.81.88,4.37,0,.31-.41.63-.74,1.3C364.23,244.63,364.49,254.17,365.72,254.83Z" transform="translate(-78.85 -48.44)"/><path class="cls-5" d="M371.49,247.1c2.88-2.68,5.67,5.87,1,5.78C374.33,251,373,247.92,371.49,247.1Z" transform="translate(-78.85 -48.44)"/><path class="cls-53" d="M371.5,248.35c-.43-1.19-.06-1.63.46-1.5a3.39,3.39,0,0,1,1.83,2.21c.69,2-.3,4.52-2.23,3.54,1.66.09,1.5-1.91,1-3.14C372.23,248.62,371.71,248,371.5,248.35Z" transform="translate(-78.85 -48.44)"/><path class="cls-5" d="M372.27,248.89c-.47.87-.63,1.38-.48,1.68s.43.44.95-.07A3.1,3.1,0,0,0,372.27,248.89Z" transform="translate(-78.85 -48.44)"/><path class="cls-54" d="M368.64,235.83l-.12-.06A4.93,4.93,0,0,1,366.9,228c3.16-2.8,11.73-2.51,17.17.29s6.89,9.94,5.23,15.52c-1.1,3.71-3.78,5.64-5.12,8.45a3.35,3.35,0,0,1-3.4,1.24c-3.84-.79-4.73-4.84-7-6.62-1.27-1-2.57-1.24-3,1.43-.1,1.17-.11,2.36-.2,3.44-.13,1.7.29,2-1.15,2.6a13,13,0,0,1-4.52.92c-.35-.14-.33-2.26-.27-3.84.15,0,.16.54.23.53l.52-.07a6.43,6.43,0,0,0-.23-1.92,3,3,0,0,0-.64-1.44,2.46,2.46,0,0,1-.07-1.25,4,4,0,0,1,1.64,2.32,11.12,11.12,0,0,1,.42,2.1,4,4,0,0,0,2-.64c.81-.94.95-2.11,1.24-3.94.07-3.21-.07-3.69-1.74-6.08-.47-.66-.49-2,.66-5C368.59,236,368.62,235.89,368.64,235.83Z" transform="translate(-78.85 -48.44)"/><path class="cls-55" d="M366.49,234c1.19,1.49,6.32-2,13.5-.64-1.54-4.75-2.43-5.75-4.58-7.14-2.81-1.81-7.54-1.07-9,1.42A6,6,0,0,0,366.49,234Z" transform="translate(-78.85 -48.44)"/><path class="cls-56" d="M384.23,255.19c1.55.48,3.12,2,2.84,3.05-1.55,6.32-13.31,7.52-20.52,6-.09,0,2.8-3.81,4.18-4.26C375.27,260.43,382.83,258.93,384.23,255.19Z" transform="translate(-78.85 -48.44)"/><path class="cls-40" d="M361.07,306c-.54-12.71-2.86-26.66-3.16-31.1-.13-1.9.6-3.19,1.37-4.77s10.07-1.51,12.53,5.75C372.81,295,365.9,307.42,361.07,306Z" transform="translate(-78.85 -48.44)"/><path class="cls-5" d="M326.44,294l4.1,2.19,1.06-7.05c-.73-.48-1.64-.25-2.31-.85a12.05,12.05,0,0,0-1.23-1.17c-2.52-2.11-3.71-2.15-9.28-.84a4.52,4.52,0,0,1-3.14-.16l-4.84-1.83c-1.53-.42-2.59-.29-2.95.16s-.6,3.79,0,5.24h0c0,.4.46.83,1.21,1.2,2.23,1.12,4.15,2.13,6.2,3.28,3.51,2,2.41,1.15,6.68.13C324.3,293.72,325.35,293.65,326.44,294Z" transform="translate(-78.85 -48.44)"/><path class="cls-41" d="M310.38,288.85c-.11-.7-.2-3.4.09-3.62.58-.43,1.93.51,3.07,1a4.82,4.82,0,0,0,3.74.3c2.1,1.51,8-.58,13.28,5.76l-1.6.56c-1.8-.48-6.38.62-11.26-.33C314.73,292,310.47,289.41,310.38,288.85Z" transform="translate(-78.85 -48.44)"/><path class="cls-5" d="M313.05,290.48c-.34-2,2.14-2.15,3.05-1.78,1.51.48,3.3,1.13,4.88.85a5.93,5.93,0,0,1,6.23,1.78c.67.69,0,1-.21,2.57-3.61-.66-6.56.76-7,.53C315.89,292.16,317.58,291.78,313.05,290.48Z" transform="translate(-78.85 -48.44)"/><path class="cls-57" d="M351.55,292.78c-5.17-1.8-12.31-4-16.32-4a15.75,15.75,0,0,1-3.28,0c-.84-.27-2.07-.67-2.52-.79-1.26,1.15-2.11,4.07-2.34,6.59.93.48,1.87,1,2.82,1.57.71.41,1.58,2,2.3,2.4,4.44,2.8,12.85,5.11,17.81,7.16,2.24.93,4.05,1.8,6.67,1.75a11,11,0,0,0,4.12-2l.66-.39.29-.6a4.74,4.74,0,0,0,.85-1.75c.48-1,1-2.08,1.43-3.11,1.72-3.86,5.39-13,6.76-19.85,1.91-9.63-5.17-14.14-10.48-11.92-4.56,1.91-5.38,9.51-6.31,13.6C353.17,285.14,352.25,289.36,351.55,292.78Z" transform="translate(-78.85 -48.44)"/></g></g></svg>