<svg xmlns="http://www.w3.org/2000/svg" xmlns:xlink="http://www.w3.org/1999/xlink" viewBox="0 0 437.7 422.25"><defs><style>.cls-1{isolation:isolate;}.cls-2,.cls-46{fill:#59caaf;}.cls-10,.cls-11,.cls-12,.cls-13,.cls-14,.cls-15,.cls-16,.cls-17,.cls-18,.cls-19,.cls-2,.cls-20,.cls-21,.cls-22,.cls-23,.cls-24,.cls-25,.cls-26,.cls-27,.cls-28,.cls-29,.cls-3,.cls-30,.cls-31,.cls-32,.cls-33,.cls-34,.cls-35,.cls-36,.cls-37,.cls-38,.cls-39,.cls-4,.cls-40,.cls-41,.cls-42,.cls-43,.cls-44,.cls-46,.cls-47,.cls-48,.cls-49,.cls-5,.cls-50,.cls-6,.cls-7,.cls-8,.cls-9{fill-rule:evenodd;}.cls-2,.cls-45{opacity:0.35;}.cls-16,.cls-19,.cls-2,.cls-28,.cls-29,.cls-30,.cls-33,.cls-41,.cls-45{mix-blend-mode:multiply;}.cls-3{fill:url(#linear-gradient);}.cls-4{fill:url(#linear-gradient-2);}.cls-5{fill:#4a9ff8;}.cls-6{fill:#d0e7ff;}.cls-7{fill:#fff;}.cls-8{fill:url(#linear-gradient-3);}.cls-48,.cls-9{fill:#6d6afd;}.cls-38,.cls-40,.cls-43,.cls-46,.cls-9{opacity:0.2;}.cls-10{fill:url(#linear-gradient-4);}.cls-11{fill:#4165f3;}.cls-12{fill:#22d2fb;}.cls-13{fill:url(#linear-gradient-5);}.cls-14{fill:#12a3eb;}.cls-15{fill:#1c8df3;}.cls-16,.cls-19,.cls-28,.cls-29,.cls-30,.cls-32,.cls-33,.cls-41{opacity:0.5;}.cls-16{fill:url(#linear-gradient-6);}.cls-17{fill:url(#linear-gradient-7);}.cls-18,.cls-32{fill:#fffcf1;}.cls-19{fill:url(#linear-gradient-8);}.cls-20{fill:url(#linear-gradient-9);}.cls-21{fill:url(#linear-gradient-10);}.cls-22{fill:url(#linear-gradient-11);}.cls-23{fill:#fdbebe;}.cls-24{fill:url(#linear-gradient-12);}.cls-25{fill:url(#linear-gradient-13);}.cls-26{fill:url(#linear-gradient-14);}.cls-27{fill:#5858f0;}.cls-28{fill:url(#linear-gradient-15);}.cls-29{fill:url(#linear-gradient-16);}.cls-30{fill:url(#linear-gradient-17);}.cls-31{fill:url(#linear-gradient-18);}.cls-33{fill:url(#linear-gradient-19);}.cls-34{fill:url(#linear-gradient-20);}.cls-35{fill:url(#linear-gradient-21);}.cls-36{fill:url(#linear-gradient-22);}.cls-37{fill:#ffdb59;}.cls-38{fill:url(#linear-gradient-23);}.cls-39{fill:url(#linear-gradient-24);}.cls-40{fill:url(#linear-gradient-25);}.cls-41{fill:url(#linear-gradient-26);}.cls-42{fill:url(#linear-gradient-27);}.cls-43{fill:url(#linear-gradient-28);}.cls-44{fill:url(#linear-gradient-29);}.cls-47{fill:url(#linear-gradient-30);}.cls-49{fill:url(#linear-gradient-31);}.cls-50{fill:url(#linear-gradient-32);}</style><linearGradient id="linear-gradient" x1="335.11" y1="173.61" x2="287.71" y2="351.72" gradientUnits="userSpaceOnUse"><stop offset="0" stop-color="#d1e8ff"/><stop offset="1" stop-color="#eaefff"/></linearGradient><linearGradient id="linear-gradient-2" x1="342.77" y1="107.63" x2="281.67" y2="392.29" gradientUnits="userSpaceOnUse"><stop offset="0" stop-color="#6d6afe"/><stop offset="1" stop-color="#3fb0f7"/></linearGradient><linearGradient id="linear-gradient-3" x1="354.14" y1="60.51" x2="355.59" y2="47.18" xlink:href="#linear-gradient-2"/><linearGradient id="linear-gradient-4" x1="348.37" y1="82.77" x2="351.54" y2="69.05" xlink:href="#linear-gradient-2"/><linearGradient id="linear-gradient-5" x1="271.68" y1="223.33" x2="268.08" y2="252.21" gradientUnits="userSpaceOnUse"><stop offset="0" stop-color="#fd90da"/><stop offset="1" stop-color="#8e6dfd"/></linearGradient><linearGradient id="linear-gradient-6" x1="266.39" y1="186.47" x2="285.62" y2="122.15" gradientUnits="userSpaceOnUse"><stop offset="0" stop-color="#965cf2"/><stop offset="1" stop-color="#ff8adc"/></linearGradient><linearGradient id="linear-gradient-7" x1="260.87" y1="121.72" x2="238.95" y2="193.71" xlink:href="#linear-gradient-2"/><linearGradient id="linear-gradient-8" x1="372.27" y1="254" x2="355.25" y2="190.29" xlink:href="#linear-gradient-6"/><linearGradient id="linear-gradient-9" x1="382.19" y1="231.03" x2="384.53" y2="212.24" xlink:href="#linear-gradient-2"/><linearGradient id="linear-gradient-10" x1="356.06" y1="240.5" x2="358.69" y2="229.13" xlink:href="#linear-gradient-2"/><linearGradient id="linear-gradient-11" x1="439.6" y1="170.6" x2="449.75" y2="189.56" gradientUnits="userSpaceOnUse"><stop offset="0" stop-color="#fa5db1"/><stop offset="1" stop-color="#febfbf"/></linearGradient><linearGradient id="linear-gradient-12" x1="437.59" y1="210.02" x2="444.44" y2="185.45" xlink:href="#linear-gradient-6"/><linearGradient id="linear-gradient-13" x1="220.7" y1="254.15" x2="193.01" y2="422.21" xlink:href="#linear-gradient"/><linearGradient id="linear-gradient-14" x1="236.77" y1="222.35" x2="172.15" y2="429.34" xlink:href="#linear-gradient-2"/><linearGradient id="linear-gradient-15" x1="266.5" y1="357.58" x2="282.8" y2="323.28" xlink:href="#linear-gradient-6"/><linearGradient id="linear-gradient-16" x1="264.39" y1="296.92" x2="294.6" y2="252.79" xlink:href="#linear-gradient-6"/><linearGradient id="linear-gradient-17" x1="122.23" y1="341.9" x2="141.17" y2="300.59" xlink:href="#linear-gradient-6"/><linearGradient id="linear-gradient-18" x1="99.15" y1="296.91" x2="91.65" y2="318.42" gradientUnits="userSpaceOnUse"><stop offset="0" stop-color="#1c8ef4"/><stop offset="1" stop-color="#00cfdd"/></linearGradient><linearGradient id="linear-gradient-19" x1="124.65" y1="237.16" x2="139.99" y2="185.86" xlink:href="#linear-gradient-6"/><linearGradient id="linear-gradient-20" x1="120.24" y1="185.51" x2="102.76" y2="242.94" xlink:href="#linear-gradient-2"/><linearGradient id="linear-gradient-21" x1="267.84" y1="346.47" x2="272.97" y2="336.51" xlink:href="#linear-gradient-6"/><linearGradient id="linear-gradient-22" x1="168.06" y1="321.88" x2="155.72" y2="341.08" gradientUnits="userSpaceOnUse"><stop offset="0" stop-color="#ff66bc"/><stop offset="0.56" stop-color="#ff8adc"/><stop offset="1" stop-color="#ffbba8"/></linearGradient><linearGradient id="linear-gradient-23" x1="209.41" y1="368.36" x2="177.23" y2="369.74" xlink:href="#linear-gradient-22"/><linearGradient id="linear-gradient-24" x1="215.5" y1="370.28" x2="221.44" y2="353.96" xlink:href="#linear-gradient-6"/><linearGradient id="linear-gradient-25" x1="255.08" y1="416.69" x2="252.91" y2="376.02" xlink:href="#linear-gradient-6"/><linearGradient id="linear-gradient-26" x1="198.92" y1="317.32" x2="169.81" y2="202.79" xlink:href="#linear-gradient-6"/><linearGradient id="linear-gradient-27" x1="200.87" y1="235.18" x2="190.48" y2="249.94" xlink:href="#linear-gradient-2"/><linearGradient id="linear-gradient-28" x1="167.53" y1="253.95" x2="165.11" y2="257.38" xlink:href="#linear-gradient-2"/><linearGradient id="linear-gradient-29" x1="169.51" y1="253.73" x2="162.07" y2="259.36" xlink:href="#linear-gradient-2"/><linearGradient id="linear-gradient-30" x1="270.69" y1="251.34" x2="259.71" y2="287.93" xlink:href="#linear-gradient-2"/><linearGradient id="linear-gradient-31" x1="262.31" y1="269.19" x2="267.35" y2="253.7" xlink:href="#linear-gradient-6"/><linearGradient id="linear-gradient-32" x1="261.51" y1="268.46" x2="266.1" y2="260.64" xlink:href="#linear-gradient-2"/></defs><g class="cls-1"><g id="Layer_8" data-name="Layer 8"><path class="cls-2" d="M374.61,388.18,252.3,320.54c-3-1.38-7.42-2.67-10.36-.88l-7.54,4.6c-1.51.92-6.5,4-3.17,5.8,9.81,5.33,113.9,63.38,123.86,68.8a14.1,14.1,0,0,0,7.53,1.16,19,19,0,0,0,8.16-2.43l3-1.86c2.12-1.31,3.3-2.75,3.42-4.12S376.45,389,374.61,388.18Z" transform="translate(-38.03 -39.61)"/><path class="cls-3" d="M279.37,82a6.77,6.77,0,0,0-5.76-.64L269.28,83c-1.58,8.13,89.65,306.36,91.66,308.43L364.8,390c2.54-1,3.87-3.64,4.24-6.21l32.63-222.7v0A15.88,15.88,0,0,0,399,150.3a12.55,12.55,0,0,0-4.36-4.21Z" transform="translate(-38.03 -39.61)"/><path class="cls-4" d="M390.39,147.74,275.1,83.63c-4.7-2.61-9.17-.11-10,5.56l-32.63,222.7c-.83,5.68,2.29,12.39,7,15L354.75,391c4.7,2.61,9.19.11,10-5.56l32.63-222.7C398.23,157.07,395.09,150.35,390.39,147.74Z" transform="translate(-38.03 -39.61)"/><path class="cls-5" d="M390.39,147.74,275.1,83.63c-4.7-2.61-9.17-.11-10,5.56l-1.68,11.41,132.3,73.57,1.68-11.43C398.23,157.07,395.09,150.35,390.39,147.74Z" transform="translate(-38.03 -39.61)"/><path class="cls-6" d="M336.33,45.81c.24-1.86-.27-3,.66-4.05a10.91,10.91,0,0,1,3.23-1.83,6,6,0,0,1,5.15.68l23.54,14c4.29,2.48,7.2,8.85,6.5,14.2L371.76,95.7a8.26,8.26,0,0,1-2.25,5,8.78,8.78,0,0,1-3.89,1.92c-1.22.15-1.54-1-2.91-1.74l-23.54-14c-4.29-2.48-7.2-8.84-6.49-14.2Z" transform="translate(-38.03 -39.61)"/><path class="cls-7" d="M334.88,46.67c.71-5.36,4.76-7.69,9.05-5.21l23.54,14c4.28,2.48,7.2,8.84,6.49,14.2l-3.65,26.89c-.7,5.35-4.75,7.68-9,5.2l-23.54-14c-4.29-2.49-7.2-8.85-6.5-14.2Z" transform="translate(-38.03 -39.61)"/><path class="cls-8" d="M334.88,46.67c.71-5.36,4.76-7.69,9.05-5.21l23.54,14c4.28,2.48,7.2,8.84,6.49,14.2l-.34,2.52a13.86,13.86,0,0,0-1.44-1L334.57,49Z" transform="translate(-38.03 -39.61)"/><path class="cls-9" d="M350.39,62.05c6.54,1.49,11.56,9.28,11.21,17.39s-5.92,13.47-12.46,12S337.58,82.13,337.93,74,343.85,60.55,350.39,62.05Z" transform="translate(-38.03 -39.61)"/><path class="cls-10" d="M350.1,68.81c3.53.81,6.23,5,6,9.38s-3.2,7.26-6.72,6.45-6.23-5-6.05-9.37,3.19-7.26,6.72-6.46Zm-.16,3.71c-1.87-.42-3.47,1.11-3.57,3.43s1.34,4.56,3.22,5,3.47-1.1,3.57-3.43S351.82,73,349.94,72.52Z" transform="translate(-38.03 -39.61)"/><path class="cls-7" d="M340.69,44.31a3.07,3.07,0,0,1,2,3.14c-.06,1.47-1.07,2.44-2.25,2.17a3.07,3.07,0,0,1-2-3.15C338.5,45,339.51,44,340.69,44.31Z" transform="translate(-38.03 -39.61)"/><path class="cls-7" d="M346.07,47.4a3.06,3.06,0,0,1,2,3.14C348,52,347,53,345.85,52.71a3.07,3.07,0,0,1-2-3.15C343.88,48.1,344.89,47.13,346.07,47.4Z" transform="translate(-38.03 -39.61)"/><path class="cls-7" d="M351.9,50.79a3.05,3.05,0,0,1,2,3.15c-.06,1.46-1.07,2.43-2.25,2.16a3.07,3.07,0,0,1-2-3.14C349.71,51.49,350.71,50.52,351.9,50.79Z" transform="translate(-38.03 -39.61)"/><path class="cls-5" d="M243,282.51l39.31,21.55.17-1.19-39.31-21.55,4.8-32.67,39.31,21.54.17-1.19-39.31-21.54,4.78-32.67,39.33,21.56.17-1.19-39.32-21.55,4.79-32.69,39.31,21.56.19-1.19-39.33-21.54,4.79-32.68,39.32,21.55.17-1.19L263,145.88l4.8-32.66,39.32,21.55-4.8,32.66-.17,1.19-4.78,32.67-.19,1.19-4.78,32.68-.17,1.19L287.47,269l-.17,1.19-4.8,32.68-.17,1.19-4.79,32.67h0l-39.32-21.55,4.8-32.67ZM347.51,156.89,308.2,135.34,303.4,168l39.31,21.54-.17,1.19-39.31-21.54h0l-4.8,32.67,39.33,21.55-.18,1.19-39.32-21.55-4.78,32.68,39.31,21.54-.18,1.19L293.29,236.9h0l-4.78,32.67,39.31,21.56-.17,1.19-39.31-21.56h0l-4.8,32.68L322.86,325l-.18,1.19-39.31-21.54h0l-4.79,32.67,39.31,21.56h0l4.79-32.69.18-1.19,4.79-32.66.17-1.19,4.79-32.67.18-1.19,4.79-32.67.18-1.19,4.78-32.68.17-1.19,4.8-32.65ZM387.86,179l-4.79,32.67-.17,1.19-4.8,32.67-.17,1.18-4.78,32.69-.19,1.18-4.78,32.66-.17,1.19-4.8,32.68L363,348.3,358.24,381h0l-39.31-21.55,4.8-32.68h0L363,348.3l.17-1.19L323.9,325.55l4.79-32.66h0L368,314.43l.17-1.19L328.86,291.7,333.65,259h0L373,280.58l.19-1.18-39.32-21.56,4.79-32.67,39.31,21.54.17-1.18L338.79,224l4.79-32.68h0l39.32,21.56.17-1.19-39.32-21.56,4.8-32.66h0L387.86,179ZM267,111.46,237,315.79l122.1,66.93L389,178.35Z" transform="translate(-38.03 -39.61)"/><path class="cls-11" d="M307.09,329.82l-4.27-2.36a2.66,2.66,0,0,1-1.23-2.2l-.23-5.77a2.6,2.6,0,0,0-1.22-2.2,1.24,1.24,0,0,0-1.8.52l-2.4,4.31a1.26,1.26,0,0,1-1.8.53l-4.27-2.37c-1.55-.87-2.72,1.22-1.71,3l2.8,5a2.69,2.69,0,0,1,.1,2.52l-2.41,4.3a2.72,2.72,0,0,0,1,3.43,1.32,1.32,0,0,0,1,.13l4.13-1.21a1.3,1.3,0,0,1,1,.14,2.27,2.27,0,0,1,.86.9l2.78,5a2.22,2.22,0,0,0,.85.91c1,.55,2.14-.17,2.07-1.75l-.25-5.78a1.76,1.76,0,0,1,1.06-1.87l4.13-1.19C308.74,333.47,308.63,330.68,307.09,329.82Z" transform="translate(-38.03 -39.61)"/><path class="cls-6" d="M310.54,259.82c-2.4-1.33-5,.47-4.93,3.95a7,7,0,0,0,2,4.82,4.88,4.88,0,0,0,1,.73c2.4,1.33,4.94-.47,4.92-3.93a6.93,6.93,0,0,0-2-4.83,4.73,4.73,0,0,0-1-.74ZM308.23,271a5.81,5.81,0,0,1-1.31-1,9.38,9.38,0,0,1-2.67-6.48c0-4.67,3.4-7.09,6.63-5.3a6.26,6.26,0,0,1,1.33,1,9.28,9.28,0,0,1,2.64,6.47c0,4.66-3.39,7.08-6.62,5.29Zm11-4a1.77,1.77,0,0,1,.75,1.83l-.59,2.74a.87.87,0,0,1-1.29.7l-.29-.16a.81.81,0,0,0-1.14.31c-.16.27-.34.53-.52.78a1.59,1.59,0,0,0-.12,1.54l.15.38a1.43,1.43,0,0,1-.38,1.78l-2,1.07a.84.84,0,0,1-.81,0,1.56,1.56,0,0,1-.64-.77l-.15-.37a1.52,1.52,0,0,0-.64-.76.89.89,0,0,0-.47-.12,8.06,8.06,0,0,1-.85,0,.92.92,0,0,0-.95.82l-.07.35a.86.86,0,0,1-1.29.7l-2.21-1.22a1.78,1.78,0,0,1-.75-1.83l.08-.36a1.88,1.88,0,0,0-.43-1.57c-.24-.27-.46-.54-.68-.81a1.27,1.27,0,0,0-.43-.38.8.8,0,0,0-.79,0l-.26.13a.82.82,0,0,1-.8,0,1.54,1.54,0,0,1-.64-.78l-1.15-2.8a1.43,1.43,0,0,1,.38-1.78l.26-.14a1.29,1.29,0,0,0,.51-1.34c-.06-.37-.09-.75-.12-1.13a1.69,1.69,0,0,0-.77-1.37l-.29-.16a1.78,1.78,0,0,1-.75-1.83l.59-2.74a.86.86,0,0,1,1.29-.7l.29.16a.8.8,0,0,0,1.14-.32A8.63,8.63,0,0,1,303,256a1.59,1.59,0,0,0,.12-1.54l-.15-.38a1.43,1.43,0,0,1,.38-1.78l2-1.08a.86.86,0,0,1,.81,0,1.59,1.59,0,0,1,.64.78l.15.37a1.52,1.52,0,0,0,.64.76.89.89,0,0,0,.47.12,6,6,0,0,1,.85,0,.89.89,0,0,0,.94-.8l.08-.36c.15-.71.73-1,1.29-.71l2.21,1.23a1.77,1.77,0,0,1,.75,1.83l-.08.36a1.85,1.85,0,0,0,.43,1.56c.24.27.46.54.68.82a1.34,1.34,0,0,0,.42.38.82.82,0,0,0,.8,0l.26-.14a.79.79,0,0,1,.8,0,1.53,1.53,0,0,1,.65.77l1.14,2.8a1.44,1.44,0,0,1-.38,1.79l-.26.15a1.26,1.26,0,0,0-.51,1.32c.06.38.09.75.12,1.13a1.69,1.69,0,0,0,.77,1.38Z" transform="translate(-38.03 -39.61)"/><path class="cls-12" d="M268.12,316.18c-1.45,6.74-7.08,9.79-12.53,6.76s-8.7-11-7.25-17.73,7.08-9.79,12.52-6.77,8.71,11,7.26,17.74Zm-8.79-2.77a2.19,2.19,0,0,0,1-1.53,3.82,3.82,0,0,0-1-3.38l1.31-6.06a1,1,0,0,0-.45-1.09c-.33-.19-.68,0-.77.42l-1.3,6.05a1.86,1.86,0,0,0-2.08,1.69,3.69,3.69,0,0,0,1.57,3.83,2.16,2.16,0,0,0,.74.25l2.46,9a.66.66,0,0,0,.32.43.53.53,0,0,0,.3.07c.26,0,.38-.4.29-.75l-2.44-8.9Zm2-17.14c-6.42-3.56-13,0-14.75,8s2.12,17.33,8.54,20.89,13.05,0,14.76-8S267.75,299.82,261.33,296.27Z" transform="translate(-38.03 -39.61)"/><path class="cls-13" d="M283.63,232.48l-24.71-13.59A1.25,1.25,0,0,0,257,220l-3.18,27.1a3.1,3.1,0,0,0,1.47,2.89L280,263.56a1.26,1.26,0,0,0,1.93-1.11l3.17-27.1A3,3,0,0,0,283.63,232.48Z" transform="translate(-38.03 -39.61)"/><path class="cls-7" d="M280.52,235.13a1.28,1.28,0,0,1,.52,1.69l-12,15.52a.55.55,0,0,1-.73.11,1.31,1.31,0,0,1-.57-.68l-7.31-19.11c-.3-.79.16-1.44.79-1.11l3.49,1.84a1.33,1.33,0,0,1,.58.69l3,7.91a1.31,1.31,0,0,0,.58.69.54.54,0,0,0,.72-.11l7-9a.56.56,0,0,1,.73-.1Z" transform="translate(-38.03 -39.61)"/><path class="cls-12" d="M339.26,194.52l-34.48-18.7a.69.69,0,0,0-1.06.58l-.47,3a1.59,1.59,0,0,0,.73,1.55l34.47,18.71a.69.69,0,0,0,1.05-.59l.47-3A1.62,1.62,0,0,0,339.26,194.52Z" transform="translate(-38.03 -39.61)"/><path class="cls-12" d="M337.21,205.53l-18.35-10a.69.69,0,0,0-1.06.58l-.14.89a1.61,1.61,0,0,0,.72,1.56l18.35,10a.7.7,0,0,0,1.06-.58l.14-.9A1.61,1.61,0,0,0,337.21,205.53Z" transform="translate(-38.03 -39.61)"/><path class="cls-12" d="M312.89,154.35c-.84,7.59,3.36,16.86,9.42,20.69s11.85-1.1,12.48-6.81-.43-8.1-2.16-11.86l-3.16,1.73a11.85,11.85,0,0,1,1.41,7.64c-.41,3.68-4.14,6.85-8,4.38s-6.59-8.42-6-13.29Z" transform="translate(-38.03 -39.61)"/><path class="cls-14" d="M317.19,146.65c-2.26,1.23-3.88,3.89-4.3,7.7l3.92,2.48c.27-2.44,1.3-4.16,2.75-5Z" transform="translate(-38.03 -39.61)"/><path class="cls-15" d="M325.38,147.52c-3-1.91-5.94-2.1-8.19-.88l2.37,5.24a5.14,5.14,0,0,1,5.26.56,13.34,13.34,0,0,1,4.69,5.74c1.05-.56,2.1-1.13,3.16-1.72A20.72,20.72,0,0,0,325.38,147.52Z" transform="translate(-38.03 -39.61)"/><path class="cls-12" d="M325.13,295.3l-34.48-18.7a.69.69,0,0,0-1.06.58l-.47,3a1.61,1.61,0,0,0,.73,1.56l34.47,18.7c.49.27,1,0,1.05-.59l.47-3A1.62,1.62,0,0,0,325.13,295.3Z" transform="translate(-38.03 -39.61)"/><path class="cls-12" d="M307.68,297.15l-18.35-10a.69.69,0,0,0-1.06.58l-.14.89a1.6,1.6,0,0,0,.73,1.56l18.34,10a.69.69,0,0,0,1.06-.58l.14-.9A1.61,1.61,0,0,0,307.68,297.15Z" transform="translate(-38.03 -39.61)"/><path class="cls-16" d="M286.41,134.71,261.1,122.48l-10,62.51-1.29,8.79L276.14,208c4.57,2.53,8.94.1,9.75-5.41l7.34-53.27C294,143.79,291,137.25,286.41,134.71Z" transform="translate(-38.03 -39.61)"/><path class="cls-6" d="M283.33,149.58l-7.89,51,.82.1,2.25-.88c2.47-1,3.76-3.54,4.13-6l6.51-46.42v0a15.5,15.5,0,0,0-2.58-10.49,12.09,12.09,0,0,0-4.24-4.08l-48.4-26.31a6.61,6.61,0,0,0-5.61-.62l-2,.77c-1,.38-1.31.68-1.31.74C226,116,284.64,140.63,283.33,149.58Z" transform="translate(-38.03 -39.61)"/><path class="cls-17" d="M280.06,133.61l-48.4-26.3a6.54,6.54,0,0,0-5.61-.63c-2.1.82-3.67,2.94-4.12,6l-6.52,46.42c-.81,5.52,2.23,12.05,6.81,14.58L270.62,200c4.57,2.53,8.94.11,9.75-5.41l6.51-46.42C287.69,142.68,284.64,136.14,280.06,133.61Z" transform="translate(-38.03 -39.61)"/><path class="cls-18" d="M271.1,187.61,222.47,161.5c-1.13-.6-2.2,0-2.41,1.41a3.59,3.59,0,0,0,1.64,3.54l48.62,26.1c1.13.6,2.22,0,2.44-1.4a3.66,3.66,0,0,0-1.66-3.54Zm2.17-14.14a3.66,3.66,0,0,1,1.66,3.55c-.22,1.39-1.31,2-2.43,1.4l-48.63-26.1a3.63,3.63,0,0,1-1.64-3.54c.22-1.39,1.29-2,2.41-1.41l48.63,26.1Zm5-32-48.63-26.1a1.59,1.59,0,0,0-2.4,1.36l-.54,3.46a3.61,3.61,0,0,0,1.64,3.53L277,149.78a1.59,1.59,0,0,0,2.42-1.35l.54-3.46a3.64,3.64,0,0,0-1.66-3.54Zm-2.81,18a3.6,3.6,0,0,1,1.66,3.52c-.22,1.41-1.31,2-2.43,1.4l-48.63-26.11a3.56,3.56,0,0,1-1.64-3.5c.22-1.42,1.29-2,2.41-1.42Z" transform="translate(-38.03 -39.61)"/><path class="cls-19" d="M344.91,203.87c.7-5.36,4.75-7.69,9-5.21l37.93,22.17-6,47.91-4.5,2.92-34.53-20.19c-4.3-2.48-7.2-8.85-6.5-14.2Z" transform="translate(-38.03 -39.61)"/><path class="cls-6" d="M349.78,206c.24-1.87-.27-3,.66-4.06a11.13,11.13,0,0,1,3.23-1.83,6,6,0,0,1,5.15.68l53.23,31.11c4.29,2.49,7.2,8.85,6.5,14.21L414.9,273a8.26,8.26,0,0,1-2.25,5,8.78,8.78,0,0,1-3.89,1.92c-1.21.15-1.54-.95-2.9-1.74l-53.24-31.11c-4.29-2.49-7.2-8.85-6.49-14.21Z" transform="translate(-38.03 -39.61)"/><path class="cls-7" d="M348.33,206.85c.71-5.36,4.76-7.69,9.05-5.21l53.23,31.12c4.29,2.48,7.2,8.84,6.5,14.2l-3.65,26.89c-.71,5.35-4.76,7.69-9,5.2l-53.23-31.11c-4.29-2.48-7.2-8.85-6.5-14.2Z" transform="translate(-38.03 -39.61)"/><path class="cls-20" d="M348.33,206.85c.71-5.36,4.76-7.69,9.05-5.21l53.23,31.12c4.29,2.48,7.2,8.85,6.5,14.2l-.35,2.52a14.87,14.87,0,0,0-1.43-1L348,209.18Z" transform="translate(-38.03 -39.61)"/><path class="cls-9" d="M357.73,223.32c5.42,1.24,9.59,7.69,9.3,14.41s-4.91,11.17-10.33,9.93-9.59-7.69-9.3-14.42S352.31,222.07,357.73,223.32Z" transform="translate(-38.03 -39.61)"/><path class="cls-21" d="M357.49,228.93c2.93.66,5.17,4.15,5,7.77s-2.65,6-5.57,5.35-5.17-4.15-5-7.77,2.65-6,5.57-5.35Zm-.13,3.07c-1.55-.35-2.87.92-3,2.85s1.11,3.77,2.67,4.12,2.87-.91,3-2.84A4,4,0,0,0,357.36,232Z" transform="translate(-38.03 -39.61)"/><path class="cls-9" d="M370.28,236.25c.19-1.43,1.27-2,2.41-1.35l34.76,19.71a4.15,4.15,0,0,1,1.73,3.83l-.36,2.83c-.19,1.42-1.27,2-2.41,1.35l-34.76-19.71a4.15,4.15,0,0,1-1.73-3.83Z" transform="translate(-38.03 -39.61)"/><path class="cls-9" d="M369,246.65c.11-.84.74-1.2,1.42-.8l20.53,11.64a2.47,2.47,0,0,1,1,2.26l-.22,1.67c-.11.85-.75,1.2-1.42.8l-20.53-11.64a2.45,2.45,0,0,1-1-2.26Z" transform="translate(-38.03 -39.61)"/><path class="cls-7" d="M354.14,204.49a3.07,3.07,0,0,1,2,3.14c-.06,1.47-1.07,2.44-2.25,2.17a3.07,3.07,0,0,1-2-3.14C352,205.19,353,204.22,354.14,204.49Z" transform="translate(-38.03 -39.61)"/><path class="cls-7" d="M359.52,207.58a3.07,3.07,0,0,1,2,3.14c-.06,1.47-1.07,2.44-2.25,2.17a3.07,3.07,0,0,1-2-3.14C357.33,208.28,358.34,207.31,359.52,207.58Z" transform="translate(-38.03 -39.61)"/><path class="cls-7" d="M365.35,211a3,3,0,0,1,2,3.14c-.06,1.46-1.07,2.43-2.25,2.16a3.06,3.06,0,0,1-2-3.14C363.16,211.67,364.16,210.71,365.35,211Z" transform="translate(-38.03 -39.61)"/><path class="cls-2" d="M450.37,169.22l-.62.12c-9.62,1.85-20.13,10.2-23.8,19.3l2.7,3.9a24.48,24.48,0,0,1,3.41-5.82c.24-.31.5-.62.76-.93a37,37,0,0,1,18.27-11.74l.4-.1c4.86-1.19,11.42-1.27,14.51,3.19l-2.7-3.9C460.57,169.29,454.73,168.49,450.37,169.22Z" transform="translate(-38.03 -39.61)"/><path class="cls-2" d="M471.3,168.39l.25.42.19.37c.07.15.15.29.21.44s.12.26.17.39.12.3.17.45.1.28.14.42.1.3.14.46.08.28.11.43.08.34.11.51,0,.29.07.44.05.35.08.53,0,.29,0,.44,0,.44,0,.67,0,.27,0,.4,0,.51,0,.77c0,.11,0,.22,0,.33,0,.42-.07.84-.13,1.27,0,.11,0,.22-.05.33-.05.33-.11.67-.18,1,0,.16-.07.31-.1.47l-.15.59-.15.55-.19.61c-.06.19-.12.37-.19.56s-.14.41-.22.62l-.22.57-.27.64c-.11.26-.22.52-.35.79-.2.43-.41.87-.64,1.3s-.46.86-.71,1.28l2.7,3.9c.49-.84,1-1.71,1.35-2.58.07-.14.13-.28.19-.41s.1-.26.16-.38l.27-.64.22-.57c.07-.21.15-.41.22-.62s.13-.37.19-.56.13-.41.19-.61l.15-.55.15-.59a2.27,2.27,0,0,1,.06-.25,2.07,2.07,0,0,1,0-.22c.07-.34.13-.67.18-1,0-.11,0-.22.05-.33.06-.43.1-.85.13-1.27v0a2.72,2.72,0,0,0,0-.28c0-.26,0-.51,0-.77s0-.27,0-.4,0-.45,0-.67a1.09,1.09,0,0,1,0-.18c0-.09,0-.17,0-.26s0-.35-.07-.53,0-.29-.07-.44-.07-.34-.11-.51,0-.16-.05-.23l-.06-.2c0-.16-.09-.31-.14-.47s-.09-.27-.14-.41-.11-.3-.17-.45l-.09-.24-.08-.15c-.06-.15-.14-.29-.21-.44l-.2-.37c-.07-.14-.16-.28-.24-.42l-.15-.24-.15-.23-2.7-3.9C471.11,168.07,471.2,168.23,471.3,168.39Z" transform="translate(-38.03 -39.61)"/><path class="cls-22" d="M455.76,162.51c-14.38,1.21-30.95,12.75-37,25.76a29.24,29.24,0,0,0-1.12,2.77l8.32-2.4c.13-.33.27-.67.43-1,4.29-9.2,16-17.35,26.16-18.21s14.91,5.89,10.63,15.09c-.17.35-.34.71-.52,1.06l6.8.87c.49-.84.95-1.71,1.35-2.58C476.87,170.85,470.14,161.29,455.76,162.51Z" transform="translate(-38.03 -39.61)"/><path class="cls-23" d="M462.81,172.65c-3.48-5.12-13.12-4.41-19.83-1.23-8.29,3.94-14.61,10.37-17.65,16.58,0,0-7.51,2.49-7.7,3l8.32-2.4c.13-.33.27-.67.43-1,4.29-9.2,16-17.35,26.16-18.21C457.26,169,460.79,170.28,462.81,172.65Z" transform="translate(-38.03 -39.61)"/><path class="cls-2" d="M469,185.65s-6.21-.43-6.39-.08l6.8.87c.49-.84.95-1.71,1.35-2.58,3.18-6.81,2.84-12.67-.25-16.54C475.38,175,469.53,184.8,469,185.65Z" transform="translate(-38.03 -39.61)"/><path class="cls-2" d="M428.65,192.55s-2.47-3.57-2.7-3.91c-3,6.87-1.6,9.66,3,14.15a7.64,7.64,0,0,1-.54-.92,1.3,1.3,0,0,0-.08-.17C427,198.82,427.5,195.4,428.65,192.55Z" transform="translate(-38.03 -39.61)"/><path class="cls-2" d="M472.15,190.34l-2.7-3.9c-6.29,10.83-39.34,30.44-50.89,17.77l2.69,3.9c2.71,3.91,8,6,15.24,5.42.84-.07,1.68-.18,2.52-.32l.88-.17c.64-.13,1.25-.24,1.88-.39a45.37,45.37,0,0,0,6.89-2.32l.3-.14a52.09,52.09,0,0,0,21.37-17.05c.16-.23.34-.45.49-.68C471.29,191.76,471.74,191.05,472.15,190.34Z" transform="translate(-38.03 -39.61)"/><path class="cls-24" d="M462.65,185.57c-4.66,8.74-15.86,16.32-25.63,17.14s-14.55-5.4-11.07-14.07l-8.32,2.4c-3.93,11.58,2.83,19.72,16.16,18.59s28.74-11.27,35.66-23.19Z" transform="translate(-38.03 -39.61)"/><path class="cls-2" d="M434,209c-21.59,1.55-16.32-18-16.32-18-3.93,11.58,2.83,19.72,16.16,18.59s28.74-11.27,35.66-23.19C469.45,186.44,455.72,207.35,434,209Z" transform="translate(-38.03 -39.61)"/><path class="cls-2" d="M300.86,452.3,110.07,345c-2.41-1.09-5.95-2.13-8.31-.69l-6,3.69c-1.22.75-5.21,3.21-2.54,4.66,7.87,4.27,184,103.9,192,108.24a11.25,11.25,0,0,0,6,.92,15.29,15.29,0,0,0,6.54-2l2.41-1.49c1.71-1.06,2.66-2.21,2.75-3.31S302.33,453,300.86,452.3Z" transform="translate(-38.03 -39.61)"/><path class="cls-25" d="M132,170.14a5.1,5.1,0,0,0-4.3-.48l-3.23,1.27c-1.17,6.06,166.25,284.4,167.74,286l2.89-1.09a5.65,5.65,0,0,0,3.16-4.63l24.33-166.07v0a11.86,11.86,0,0,0-2-8,9.28,9.28,0,0,0-3.25-3.13Z" transform="translate(-38.03 -39.61)"/><path class="cls-26" d="M314.14,275.13,128.77,171.37c-3.5-1.94-6.84-.07-7.46,4.15L97,341.59c-.62,4.23,1.71,9.24,5.22,11.18L287.56,456.53c3.51,2,6.85.09,7.47-4.14l24.33-166.07C320,282.09,317.64,277.08,314.14,275.13Z" transform="translate(-38.03 -39.61)"/><path class="cls-5" d="M314.14,275.13,128.77,171.37c-3.5-1.94-6.84-.07-7.46,4.15l-.82,5.6L318.53,292l.83-5.66C320,282.09,317.64,277.08,314.14,275.13Z" transform="translate(-38.03 -39.61)"/><path class="cls-27" d="M127.62,175.51a3.62,3.62,0,0,1,2.41,3.74c-.07,1.74-1.27,2.89-2.68,2.57a3.66,3.66,0,0,1-2.41-3.74C125,176.34,126.22,175.19,127.62,175.51Z" transform="translate(-38.03 -39.61)"/><path class="cls-27" d="M134,179.18a3.65,3.65,0,0,1,2.42,3.74c-.08,1.74-1.28,2.9-2.68,2.58a3.66,3.66,0,0,1-2.42-3.74C131.42,180,132.62,178.86,134,179.18Z" transform="translate(-38.03 -39.61)"/><path class="cls-27" d="M141,183.22a3.63,3.63,0,0,1,2.41,3.74c-.07,1.74-1.27,2.9-2.68,2.57a3.64,3.64,0,0,1-2.41-3.73C138.34,184.05,139.54,182.9,141,183.22Z" transform="translate(-38.03 -39.61)"/><path class="cls-28" d="M291.59,332.71,258.3,314.43a6.3,6.3,0,0,0-5.41-.61c-2,.79-3.54,2.84-4,5.82l-3.77,27.08c-.78,5.32,2.15,11.61,6.56,14L285,379.05c4.4,2.45,8.61.11,9.39-5.21l3.77-27.08C298.94,341.45,296,335.15,291.59,332.71Z" transform="translate(-38.03 -39.61)"/><path class="cls-29" d="M242.85,237.47l73,35.61-1.94,2-7,49c-.72,5-4.54,7.25-8.53,5l-68.34-39.08-5.94-13.24Z" transform="translate(-38.03 -39.61)"/><path class="cls-30" d="M151.17,313,106,288l-1.51,2.31L97.11,340.8l46.75,25.91c4.95,2.75,9.67.12,10.55-5.85l4.13-32C159.42,322.85,156.12,315.77,151.17,313Z" transform="translate(-38.03 -39.61)"/><path class="cls-6" d="M149.17,324.1l-5.39,35.43.85.1,2.34-.9c2.56-1,3.9-3.68,4.28-6.27l4-30.72v0a16.06,16.06,0,0,0-2.68-10.87,12.67,12.67,0,0,0-4.4-4.24L54.58,254.75a6.81,6.81,0,0,0-5.81-.65l-2.06.8c-1,.39-1.36.7-1.35.77C46.33,264.72,150.53,314.82,149.17,324.1Z" transform="translate(-38.03 -39.61)"/><path class="cls-31" d="M145.79,307.53,52.23,255.67a6.78,6.78,0,0,0-5.81-.65c-2.18.85-3.82,3.06-4.29,6.27l-4,30.72c-.84,5.73,2.31,12.5,7,15.13L138.78,359c4.75,2.63,9.27.11,10.11-5.61l4-30.72C153.7,317,150.53,310.16,145.79,307.53Z" transform="translate(-38.03 -39.61)"/><path class="cls-32" d="M144.68,317.09,80.11,281.58a1.63,1.63,0,0,0-1.39-.15,1.77,1.77,0,0,0-1,1.49l-.36,2.16A3.77,3.77,0,0,0,79,288.7l64.57,35.51a1.56,1.56,0,0,0,2.41-1.34l.36-2.16a3.79,3.79,0,0,0-1.69-3.62Zm-36,8.36a3.77,3.77,0,0,1,1.69,3.62l-.35,2.15a1.57,1.57,0,0,1-2.42,1.34L75.17,315.08a3.75,3.75,0,0,1-1.69-3.61l.36-2.16a1.79,1.79,0,0,1,1-1.5,1.6,1.6,0,0,1,1.39.16l32.47,17.48Zm34,4.84a3.79,3.79,0,0,1,1.69,3.62l-.36,2.15a1.57,1.57,0,0,1-2.42,1.34L77.1,301.89a3.77,3.77,0,0,1-1.69-3.62l.36-2.15a1.77,1.77,0,0,1,1-1.5,1.63,1.63,0,0,1,1.39.15Z" transform="translate(-38.03 -39.61)"/><path class="cls-32" d="M59.53,281c-3.05-1.69-6.29.59-6.25,5a8.83,8.83,0,0,0,2.51,6.12A6,6,0,0,0,57,293c3,1.69,6.27-.59,6.25-5a8.85,8.85,0,0,0-2.5-6.12,6.2,6.2,0,0,0-1.25-.94Zm-2.94,14.13a8.33,8.33,0,0,1-1.66-1.24,11.92,11.92,0,0,1-3.38-8.23c0-5.93,4.31-9,8.41-6.73a7.6,7.6,0,0,1,1.68,1.26A11.81,11.81,0,0,1,65,288.37c0,5.91-4.31,9-8.41,6.71Zm14-5a2.26,2.26,0,0,1,1,2.33l-.75,3.48a1.09,1.09,0,0,1-1.64.88l-.36-.2a1,1,0,0,0-1.45.4c-.21.34-.43.67-.66,1a2,2,0,0,0-.15,2l.19.47a1.8,1.8,0,0,1-.49,2.26L63.7,304a1,1,0,0,1-1,0,1.88,1.88,0,0,1-.81-1l-.2-.46a1.93,1.93,0,0,0-.81-1,1.16,1.16,0,0,0-.6-.15,9.47,9.47,0,0,1-1.07-.05,1.15,1.15,0,0,0-1.2,1l-.1.46a1.09,1.09,0,0,1-1.64.88l-2.8-1.55a2.24,2.24,0,0,1-1-2.32l.1-.45a2.39,2.39,0,0,0-.55-2c-.3-.34-.59-.68-.87-1a1.7,1.7,0,0,0-.53-.48,1,1,0,0,0-1,0l-.33.17a1,1,0,0,1-1,0,2,2,0,0,1-.81-1L46,291.42a1.83,1.83,0,0,1,.49-2.26l.33-.18a1.62,1.62,0,0,0,.64-1.7c-.07-.47-.11-.95-.14-1.43a2.2,2.2,0,0,0-1-1.75l-.36-.2a2.22,2.22,0,0,1-1-2.32l.74-3.47c.2-.9.93-1.29,1.65-.9l.36.21a1,1,0,0,0,1.45-.4,10,10,0,0,1,.66-1,2,2,0,0,0,.15-1.95l-.2-.47a1.84,1.84,0,0,1,.49-2.27L52.86,270a1,1,0,0,1,1,0,2,2,0,0,1,.81,1l.19.47a1.94,1.94,0,0,0,.81,1,1.21,1.21,0,0,0,.61.16,9.63,9.63,0,0,1,1.07,0,1.13,1.13,0,0,0,1.2-1l.1-.45a1.1,1.1,0,0,1,1.64-.9l2.8,1.56a2.25,2.25,0,0,1,1,2.33l-.1.45a2.3,2.3,0,0,0,.54,2c.3.34.59.68.87,1.05a1.65,1.65,0,0,0,.53.47,1,1,0,0,0,1,0l.33-.18a1,1,0,0,1,1,0,1.94,1.94,0,0,1,.82,1l1.45,3.56a1.83,1.83,0,0,1-.48,2.27l-.34.18a1.6,1.6,0,0,0-.63,1.68c.06.48.11,1,.14,1.44a2.17,2.17,0,0,0,1,1.74Z" transform="translate(-38.03 -39.61)"/><path class="cls-33" d="M140.61,195.88l-20.19-9.76-8,49.87-1,7,21,11.33c3.65,2,7.13.09,7.77-4.31l5.86-42.49C146.7,203.12,144.26,197.9,140.61,195.88Z" transform="translate(-38.03 -39.61)"/><path class="cls-6" d="M138.15,207.74l-6.29,40.65.66.08,1.79-.7A5.84,5.84,0,0,0,137.6,243l5.2-37v0a12.32,12.32,0,0,0-2.06-8.35,9.68,9.68,0,0,0-3.38-3.26l-38.61-21a5.28,5.28,0,0,0-4.48-.5l-1.58.62c-.8.3-1,.54-1,.59C92.4,181,139.2,200.6,138.15,207.74Z" transform="translate(-38.03 -39.61)"/><path class="cls-34" d="M135.55,195,96.94,174a5.23,5.23,0,0,0-4.47-.5c-1.68.66-2.93,2.35-3.3,4.82l-5.19,37c-.65,4.41,1.78,9.62,5.42,11.64L128,248c3.65,2,7.13.09,7.77-4.31l5.2-37C141.63,202.24,139.2,197,135.55,195Z" transform="translate(-38.03 -39.61)"/><path class="cls-18" d="M128.4,238.07,89.61,217.25c-.9-.48-1.75,0-1.93,1.12A2.86,2.86,0,0,0,89,221.19L127.78,242c.9.49,1.77,0,1.94-1.11a2.91,2.91,0,0,0-1.32-2.83Zm1.73-11.27a2.88,2.88,0,0,1,1.32,2.82c-.17,1.12-1,1.6-1.94,1.12L90.72,209.92a2.88,2.88,0,0,1-1.3-2.82c.17-1.11,1-1.6,1.92-1.12l38.79,20.82Zm4-25.56L95.33,180.41a1.27,1.27,0,0,0-1.92,1.09L93,184.26a2.89,2.89,0,0,0,1.31,2.82l38.79,20.82a1.28,1.28,0,0,0,1.94-1.08l.42-2.76a2.88,2.88,0,0,0-1.32-2.82Zm-2.24,14.37a2.89,2.89,0,0,1,1.32,2.81c-.17,1.13-1,1.6-1.94,1.12L92.47,198.72a2.86,2.86,0,0,1-1.31-2.8c.18-1.13,1-1.61,1.92-1.13Z" transform="translate(-38.03 -39.61)"/><path class="cls-6" d="M289.83,345.32l-4.59,28.31.72.09,2-.76c2.14-.84,3.27-3.07,3.58-5.24l3.4-24.37v0a13.4,13.4,0,0,0-2.24-9.09,10.43,10.43,0,0,0-3.68-3.55l-30-16.45a5.73,5.73,0,0,0-4.87-.55l-1.72.68c-.86.32-1.13.58-1.13.64C252.1,322.58,291,337.55,289.83,345.32Z" transform="translate(-38.03 -39.61)"/><path class="cls-7" d="M287,331.47,257,315a5.65,5.65,0,0,0-4.86-.54c-1.82.71-3.19,2.55-3.58,5.24l-3.4,24.37c-.7,4.79,1.94,10.45,5.9,12.65l30,16.46c4,2.2,7.75.09,8.45-4.69l3.4-24.38C293.62,339.34,291,333.66,287,331.47Z" transform="translate(-38.03 -39.61)"/><path class="cls-35" d="M274,333.16a2.49,2.49,0,0,1,.25,1.39,10.39,10.39,0,0,1-.55,1.79l-6.39,17.73c-.2.6-.39,1.05-.53,1.37a1,1,0,0,1-.58.62c-.22.1-.52,0-.92-.21A2.4,2.4,0,0,1,264,353.4a11.81,11.81,0,0,1,.53-1.85l6.37-17.75a6.23,6.23,0,0,1,.86-1.83c.23-.29.63-.25,1.17.08a2.72,2.72,0,0,1,1.05,1.11Zm1.7,4.6-.58,4.94,9.43,10.94-10.57-1.34-.59,5,15.22,1.19.5-4.2-13.41-16.49ZM249.05,334l13.41,16.5.59-4.95-9.4-11L264.18,336l.6-5-15.23-1.22Z" transform="translate(-38.03 -39.61)"/><path class="cls-7" d="M172.14,334.27c.54-3.68,3.35-5.31,6.27-3.63l43.45,24.5c2.92,1.68,4.85,6,4.31,9.73l-5.78,39.32c-.54,3.69-3.35,5.31-6.27,3.63l-43.44-24.5c-2.92-1.68-4.85-6-4.32-9.72Z" transform="translate(-38.03 -39.61)"/><polygon class="cls-36" points="139.4 334.75 154.55 313.75 157.49 336.01 164.87 327.99 169.22 351.79 139.4 334.75"/><path class="cls-37" d="M202.4,354.3c1.62.33,2.84,2.22,2.72,4.23s-1.52,3.38-3.14,3.05-2.84-2.23-2.73-4.24S200.77,354,202.4,354.3Z" transform="translate(-38.03 -39.61)"/><path class="cls-38" d="M175.67,339.9c.45-3.06,2.78-4.42,5.21-3L217,357.24c2.42,1.4,4,5,3.58,8.08L215.76,398c-.45,3.06-2.78,4.41-5.21,3l-36.09-20.35c-2.43-1.4-4-5-3.59-8.08Z" transform="translate(-38.03 -39.61)"/><path class="cls-7" d="M230.77,368.32c.54-3.68,3.35-5.31,6.27-3.63l43.45,24.5c2.92,1.68,4.85,6,4.31,9.73L279,438.25c-.54,3.68-3.35,5.31-6.27,3.62l-43.44-24.49c-2.92-1.69-4.85-6-4.31-9.73Z" transform="translate(-38.03 -39.61)"/><polygon class="cls-39" points="198.03 368.8 213.18 347.81 216.12 370.07 223.51 362.04 227.85 385.85 198.03 368.8"/><path class="cls-37" d="M261,388.35c1.62.33,2.84,2.23,2.72,4.24s-1.52,3.37-3.14,3-2.84-2.23-2.73-4.24S259.41,388,261,388.35Z" transform="translate(-38.03 -39.61)"/><path class="cls-40" d="M234.3,374c.45-3.06,2.78-4.41,5.21-3l36.1,20.35c2.43,1.4,4,5,3.58,8.08l-4.8,32.68c-.44,3.06-2.78,4.41-5.21,3l-36.09-20.35c-2.43-1.4-4-5-3.59-8.08Z" transform="translate(-38.03 -39.61)"/><path class="cls-41" d="M154.33,224.06c1-7.18,6.42-10.27,12.16-6.89l59.33,34.64c5.74,3.38,9.61,11.95,8.64,19.13l-9,68.43c-1,7.17-6.43,10.26-12.17,6.89l-59.33-34.65c-5.74-3.38-9.61-11.94-8.63-19.12Z" transform="translate(-38.03 -39.61)"/><path class="cls-6" d="M156.43,223.67c.11-.78.26-4.25,1.19-4.95a21.82,21.82,0,0,1,4.23-2.52,7.7,7.7,0,0,1,5.89,1.06l55.43,32.13c5.34,3.14,8.93,11.11,8,17.78l-8.4,63.58a10.23,10.23,0,0,1-2.31,5.5,16.78,16.78,0,0,1-4.16,2.92c-1.59.82-3.83-1.43-4.84-2L156.06,305c-5.34-3.14-8.93-11.1-8-17.77Z" transform="translate(-38.03 -39.61)"/><path class="cls-7" d="M154.48,225c.9-6.67,6-9.54,11.3-6.4l55.13,32.19c5.34,3.13,8.93,11.1,8,17.77l-8.4,63.58c-.91,6.67-6,9.54-11.31,6.4L154.1,306.39c-5.33-3.15-8.93-11.11-8-17.78Z" transform="translate(-38.03 -39.61)"/><path class="cls-42" d="M154.48,225c.9-6.67,6-9.54,11.3-6.4l55.13,32.19c5.34,3.13,8.93,11.1,8,17.77l-.86,6.32-74.47-43.48Z" transform="translate(-38.03 -39.61)"/><path class="cls-7" d="M163.34,225.28a3.16,3.16,0,0,1,2.08,3.25c-.07,1.5-1.12,2.49-2.33,2.2a3.16,3.16,0,0,1-2.07-3.25C161.09,226,162.13,225,163.34,225.28Z" transform="translate(-38.03 -39.61)"/><path class="cls-7" d="M169.83,229.32a3.17,3.17,0,0,1,2.07,3.25c-.07,1.5-1.11,2.49-2.33,2.2a3.15,3.15,0,0,1-2.07-3.24C167.57,230,168.61,229,169.83,229.32Z" transform="translate(-38.03 -39.61)"/><path class="cls-7" d="M176.31,233.36a3.17,3.17,0,0,1,2.07,3.25c-.07,1.51-1.11,2.49-2.33,2.21a3.18,3.18,0,0,1-2.07-3.25C174.05,234.06,175.09,233.07,176.31,233.36Z" transform="translate(-38.03 -39.61)"/><path class="cls-43" d="M166.18,244.06c5.62,1.33,9.92,8.08,9.6,15.06s-5.16,11.56-10.78,10.23-9.93-8.08-9.61-15.06S160.55,242.72,166.18,244.06Z" transform="translate(-38.03 -39.61)"/><path class="cls-44" d="M165.9,249.89c3,.71,5.36,4.35,5.18,8.11s-2.78,6.24-5.81,5.52-5.35-4.36-5.18-8.12S162.87,249.17,165.9,249.89Z" transform="translate(-38.03 -39.61)"/><g class="cls-45"><path class="cls-46" d="M179.16,257.61c.2-1.49,1.33-2.11,2.51-1.39l36,20.77a4.33,4.33,0,0,1,1.78,4l-.39,2.93c-.2,1.48-1.32,2.1-2.5,1.39l-36-20.78a4.34,4.34,0,0,1-1.78-4Z" transform="translate(-38.03 -39.61)"/><path class="cls-46" d="M177.73,268.4c.12-.87.78-1.24,1.48-.82l21.28,12.27a2.55,2.55,0,0,1,1,2.36l-.23,1.73c-.12.88-.78,1.24-1.48.82l-21.28-12.27a2.55,2.55,0,0,1-1.05-2.36Z" transform="translate(-38.03 -39.61)"/></g><g class="cls-45"><path class="cls-46" d="M153.68,271.15c.14-1.08,1-1.53,1.82-1l62.23,35.7a3.13,3.13,0,0,1,1.3,2.91l-.19,1.41c-.15,1.08-1,1.53-1.83,1l-62.23-35.7a3.19,3.19,0,0,1-1.3-2.91Z" transform="translate(-38.03 -39.61)"/><path class="cls-46" d="M152.37,281.63c.15-1.09,1-1.54,1.83-1l62.23,35.7a3.16,3.16,0,0,1,1.3,2.91l-.19,1.41c-.15,1.08-1,1.53-1.83,1L153.48,286a3.15,3.15,0,0,1-1.3-2.91Z" transform="translate(-38.03 -39.61)"/><path class="cls-46" d="M151,291.6c.15-1.08,1-1.53,1.83-1l62.23,35.71a3.16,3.16,0,0,1,1.3,2.9l-.2,1.42c-.14,1.08-1,1.53-1.82,1l-62.24-35.71a3.13,3.13,0,0,1-1.29-2.9Z" transform="translate(-38.03 -39.61)"/></g><path class="cls-6" d="M231.42,217.88c.2-1.39-.73-2.45-.12-3.37s2.85-1.7,3.81-2a5.47,5.47,0,0,1,4.57.6l66.19,37.85c3.86,2.21,6.44,8,5.75,12.82l-7.43,51.94a6.75,6.75,0,0,1-2.85,5c-.89.55-3.32,1.58-4.41,1.45-.78-.09-.19-1.18-1-1.64l-66.19-37.85c-3.87-2.21-6.45-8-5.75-12.82Z" transform="translate(-38.03 -39.61)"/><path class="cls-47" d="M229.43,218.67c.7-4.87,4.4-7,8.26-4.81l66.2,37.84c3.86,2.21,6.44,8,5.74,12.82l-7.43,51.94c-.69,4.86-4.39,7-8.26,4.81l-66.19-37.85c-3.87-2.21-6.44-7.95-5.75-12.82Z" transform="translate(-38.03 -39.61)"/><path class="cls-48" d="M224.3,273c.06-.42.38-.6.71-.4l73.41,42.09a1.2,1.2,0,0,1,.5,1.13l-.2,1.28c-.06.43-.38.61-.71.4L224.6,275.39a1.2,1.2,0,0,1-.5-1.13Z" transform="translate(-38.03 -39.61)"/><path class="cls-2" d="M224.33,273c.06-.41.37-.58.69-.39l29.61,17a1.16,1.16,0,0,1,.48,1.09l-.19,1.23c0,.41-.36.58-.69.39l-29.61-17a1.18,1.18,0,0,1-.48-1.09Z" transform="translate(-38.03 -39.61)"/><path class="cls-49" d="M253.35,248c.17-1.16,1.05-1.67,2-1.14l20.37,11.65a3.22,3.22,0,0,1,1.37,3L274.31,281c-.16,1.16-1,1.67-2,1.15L252,270.47a3.22,3.22,0,0,1-1.37-3.05Z" transform="translate(-38.03 -39.61)"/><path class="cls-50" d="M265,256.47c-3.53-2-6.9-.05-7.53,4.39s1.71,9.67,5.24,11.69,6.89.05,7.53-4.39S268.5,258.49,265,256.47Z" transform="translate(-38.03 -39.61)"/><polygon class="cls-7" points="223.68 219.01 222.57 227.04 229.37 227.23 223.68 219.01"/></g></g></svg>