<svg xmlns="http://www.w3.org/2000/svg" xmlns:xlink="http://www.w3.org/1999/xlink" viewBox="0 0 350 363.42"><defs><style>.cls-1{isolation:isolate;}.cls-2{fill:#202249;}.cls-10,.cls-11,.cls-12,.cls-13,.cls-14,.cls-15,.cls-16,.cls-17,.cls-18,.cls-19,.cls-2,.cls-20,.cls-21,.cls-22,.cls-23,.cls-24,.cls-25,.cls-26,.cls-27,.cls-28,.cls-29,.cls-3,.cls-30,.cls-31,.cls-32,.cls-33,.cls-34,.cls-35,.cls-36,.cls-37,.cls-38,.cls-4,.cls-40,.cls-41,.cls-42,.cls-43,.cls-44,.cls-45,.cls-46,.cls-47,.cls-48,.cls-49,.cls-5,.cls-50,.cls-51,.cls-52,.cls-53,.cls-54,.cls-55,.cls-56,.cls-57,.cls-58,.cls-59,.cls-6,.cls-60,.cls-61,.cls-62,.cls-63,.cls-64,.cls-65,.cls-7,.cls-8,.cls-9{fill-rule:evenodd;}.cls-3{fill:url(#GradientFill_22);}.cls-4{fill:#1e2353;opacity:0.3;}.cls-11,.cls-12,.cls-13,.cls-17,.cls-30,.cls-35,.cls-39,.cls-4,.cls-57,.cls-6{mix-blend-mode:multiply;}.cls-5{fill:url(#GradientFill_22-2);}.cls-40,.cls-6{fill:#59caaf;}.cls-30,.cls-39,.cls-57,.cls-6{opacity:0.35;}.cls-7{fill:url(#linear-gradient);}.cls-8{fill:url(#linear-gradient-2);}.cls-9{fill:#4a9ff8;}.cls-10{fill:#5858f0;}.cls-11,.cls-12,.cls-13,.cls-16,.cls-17,.cls-35{opacity:0.5;}.cls-11{fill:url(#linear-gradient-3);}.cls-12{fill:url(#linear-gradient-4);}.cls-13{fill:url(#linear-gradient-5);}.cls-14{fill:#d0e7ff;}.cls-15{fill:url(#linear-gradient-6);}.cls-16,.cls-19{fill:#fffcf1;}.cls-17{fill:url(#linear-gradient-7);}.cls-18{fill:url(#linear-gradient-8);}.cls-20{fill:#fff;}.cls-21{fill:url(#linear-gradient-9);}.cls-22{fill:url(#linear-gradient-10);}.cls-23{fill:#ffdb59;}.cls-24,.cls-26,.cls-37,.cls-40{opacity:0.2;}.cls-24{fill:url(#linear-gradient-11);}.cls-25{fill:url(#linear-gradient-12);}.cls-26{fill:url(#linear-gradient-13);}.cls-27{fill:url(#linear-gradient-14);}.cls-28{fill:url(#linear-gradient-15);}.cls-29{fill:url(#linear-gradient-16);}.cls-30{fill:#3469c0;}.cls-31{fill:url(#linear-gradient-17);}.cls-32{fill:url(#linear-gradient-18);}.cls-33{fill:#ffa698;}.cls-34{fill:#ff9080;}.cls-35{fill:url(#linear-gradient-19);}.cls-36{fill:url(#linear-gradient-20);}.cls-37{fill:url(#linear-gradient-21);}.cls-38{fill:url(#linear-gradient-22);}.cls-41{fill:url(#linear-gradient-23);}.cls-42{fill:#6d6afd;}.cls-43{fill:url(#linear-gradient-24);}.cls-44{fill:url(#linear-gradient-25);}.cls-45{fill:url(#linear-gradient-26);}.cls-46{fill:url(#linear-gradient-27);}.cls-47{fill:#ffa495;}.cls-48{fill:#193161;}.cls-49{fill:url(#linear-gradient-28);}.cls-50{fill:url(#GradientFill_15);}.cls-51{fill:url(#linear-gradient-29);}.cls-52{fill:url(#GradientFill_15-2);}.cls-53{fill:url(#linear-gradient-30);}.cls-54{fill:#ff8978;}.cls-55{fill:url(#linear-gradient-31);}.cls-56{fill:url(#linear-gradient-32);}.cls-57{fill:#6266d7;}.cls-58{fill:url(#linear-gradient-33);}.cls-59{fill:url(#linear-gradient-34);}.cls-60{fill:#ffb49c;}.cls-61{fill:#ff9d8e;}.cls-62{fill:#562e65;}.cls-63{fill:url(#linear-gradient-35);}.cls-64{fill:url(#linear-gradient-36);}.cls-65{fill:url(#linear-gradient-37);}</style><linearGradient id="GradientFill_22" x1="257.61" y1="131.68" x2="257.6" y2="163.42" gradientUnits="userSpaceOnUse"><stop offset="0" stop-color="#324179"/><stop offset="1" stop-color="#0c124d"/></linearGradient><linearGradient id="GradientFill_22-2" x1="262.89" y1="133.7" x2="262.87" y2="187.78" xlink:href="#GradientFill_22"/><linearGradient id="linear-gradient" x1="288.34" y1="187.24" x2="254.29" y2="393.91" gradientUnits="userSpaceOnUse"><stop offset="0" stop-color="#d1e8ff"/><stop offset="1" stop-color="#eaefff"/></linearGradient><linearGradient id="linear-gradient-2" x1="308.1" y1="148.13" x2="228.64" y2="402.67" gradientUnits="userSpaceOnUse"><stop offset="0" stop-color="#6d6afe"/><stop offset="1" stop-color="#3fb0f7"/></linearGradient><linearGradient id="linear-gradient-3" x1="344.66" y1="314.43" x2="364.71" y2="272.26" gradientUnits="userSpaceOnUse"><stop offset="0" stop-color="#965cf2"/><stop offset="1" stop-color="#ff8adc"/></linearGradient><linearGradient id="linear-gradient-4" x1="342.06" y1="239.83" x2="379.21" y2="185.57" xlink:href="#linear-gradient-3"/><linearGradient id="linear-gradient-5" x1="167.25" y1="295.15" x2="190.54" y2="244.35" xlink:href="#linear-gradient-3"/><linearGradient id="linear-gradient-6" x1="138.87" y1="239.83" x2="129.64" y2="266.28" gradientUnits="userSpaceOnUse"><stop offset="0" stop-color="#1c8ef4"/><stop offset="1" stop-color="#00cfdd"/></linearGradient><linearGradient id="linear-gradient-7" x1="170.22" y1="166.35" x2="189.08" y2="103.26" xlink:href="#linear-gradient-3"/><linearGradient id="linear-gradient-8" x1="164.8" y1="102.83" x2="143.3" y2="173.46" xlink:href="#linear-gradient-2"/><linearGradient id="linear-gradient-9" x1="346.3" y1="300.77" x2="352.61" y2="288.52" xlink:href="#linear-gradient-3"/><linearGradient id="linear-gradient-10" x1="206.67" y1="239.99" x2="191.49" y2="263.6" gradientUnits="userSpaceOnUse"><stop offset="0" stop-color="#ff66bc"/><stop offset="0.56" stop-color="#ff8adc"/><stop offset="1" stop-color="#ffbba8"/></linearGradient><linearGradient id="linear-gradient-11" x1="274.45" y1="327.69" x2="234.88" y2="329.39" xlink:href="#linear-gradient-10"/><linearGradient id="linear-gradient-12" x1="265.01" y1="299.52" x2="272.31" y2="279.45" xlink:href="#linear-gradient-3"/><linearGradient id="linear-gradient-13" x1="330.62" y1="387.12" x2="327.95" y2="337.11" xlink:href="#linear-gradient-3"/><linearGradient id="linear-gradient-14" x1="232" y1="83.09" x2="232.05" y2="118.95" gradientUnits="userSpaceOnUse"><stop offset="0" stop-color="#5a2d68"/><stop offset="1" stop-color="#22043d"/></linearGradient><linearGradient id="linear-gradient-15" x1="233.01" y1="144.33" x2="231.47" y2="143.78" gradientUnits="userSpaceOnUse"><stop offset="0" stop-color="#ff8a78"/><stop offset="1" stop-color="#ffa799"/></linearGradient><linearGradient id="linear-gradient-16" x1="233.75" y1="132.12" x2="233.53" y2="101.33" xlink:href="#linear-gradient-3"/><linearGradient id="linear-gradient-17" x1="253.34" y1="125.07" x2="245.99" y2="101.7" xlink:href="#linear-gradient-3"/><linearGradient id="linear-gradient-18" x1="235.21" y1="98.51" x2="237.07" y2="100.78" xlink:href="#linear-gradient-15"/><linearGradient id="linear-gradient-19" x1="261.56" y1="264.92" x2="225.76" y2="124.08" xlink:href="#linear-gradient-3"/><linearGradient id="linear-gradient-20" x1="263.95" y1="163.91" x2="251.18" y2="182.07" xlink:href="#linear-gradient-2"/><linearGradient id="linear-gradient-21" x1="222.96" y1="186.99" x2="219.98" y2="191.21" xlink:href="#linear-gradient-2"/><linearGradient id="linear-gradient-22" x1="225.39" y1="186.72" x2="216.25" y2="193.65" xlink:href="#linear-gradient-2"/><linearGradient id="linear-gradient-23" x1="349.81" y1="183.78" x2="336.31" y2="228.77" xlink:href="#linear-gradient-2"/><linearGradient id="linear-gradient-24" x1="339.51" y1="205.74" x2="345.7" y2="186.69" xlink:href="#linear-gradient-3"/><linearGradient id="linear-gradient-25" x1="338.53" y1="204.84" x2="344.17" y2="195.22" xlink:href="#linear-gradient-2"/><linearGradient id="linear-gradient-26" x1="238.78" y1="149.07" x2="237.49" y2="148.47" xlink:href="#linear-gradient-15"/><linearGradient id="linear-gradient-27" x1="246.56" y1="136.33" x2="243.82" y2="106.93" xlink:href="#linear-gradient-3"/><linearGradient id="linear-gradient-28" x1="213.05" y1="312.88" x2="203.53" y2="358.42" gradientUnits="userSpaceOnUse"><stop offset="0" stop-color="#40457f"/><stop offset="1" stop-color="#1e2353"/></linearGradient><linearGradient id="GradientFill_15" x1="215.15" y1="371.13" x2="211.57" y2="376.26" gradientUnits="userSpaceOnUse"><stop offset="0" stop-color="#3773b9"/><stop offset="1" stop-color="#003c76"/></linearGradient><linearGradient id="linear-gradient-29" x1="221.54" y1="318.02" x2="189.08" y2="362.3" xlink:href="#linear-gradient-28"/><linearGradient id="GradientFill_15-2" x1="196.84" y1="381.59" x2="191.44" y2="382.97" xlink:href="#GradientFill_15"/><linearGradient id="linear-gradient-30" x1="230.66" y1="211.15" x2="237.5" y2="201.39" xlink:href="#linear-gradient-15"/><linearGradient id="linear-gradient-31" x1="216.42" y1="235.57" x2="224.32" y2="250.4" gradientUnits="userSpaceOnUse"><stop offset="0" stop-color="#a77ef7"/><stop offset="1" stop-color="#5e65d6"/></linearGradient><linearGradient id="linear-gradient-32" x1="214.88" y1="259.59" x2="210.19" y2="300.7" xlink:href="#linear-gradient-31"/><linearGradient id="linear-gradient-33" x1="215.13" y1="247.62" x2="213.67" y2="251.29" xlink:href="#linear-gradient-15"/><linearGradient id="linear-gradient-34" x1="220.08" y1="237.34" x2="217.92" y2="241.48" gradientUnits="userSpaceOnUse"><stop offset="0" stop-color="#ffb89e"/><stop offset="1" stop-color="#ffa799"/></linearGradient><linearGradient id="linear-gradient-35" x1="215.51" y1="227.28" x2="206" y2="232.73" gradientUnits="userSpaceOnUse"><stop offset="0" stop-color="#8a4791"/><stop offset="1" stop-color="#562e65"/></linearGradient><linearGradient id="linear-gradient-36" x1="263.72" y1="251.83" x2="270.1" y2="243.41" xlink:href="#linear-gradient-15"/><linearGradient id="linear-gradient-37" x1="243.87" y1="254.96" x2="245.8" y2="294.12" xlink:href="#linear-gradient-31"/></defs><g class="cls-1"><g id="Layer_2" data-name="Layer 2"><path class="cls-2" d="M280.55,161.15c.2.11.47.2.79.36,1,2.5,1.43,3.24,1.22,3.49s-.15.09-.24.59c-.12.69,2.29,3.65,2.66,4.59a3.48,3.48,0,0,1,.08,2.5A13.09,13.09,0,0,1,282.5,177c-.95,1.07-2,1.75-2.92,1.54-1.12-.25-.93-1.26-.76-2.26.06-.35.74-1.14.69-1.5-.31-2-1.77-3.74-2.84-5.48a40.92,40.92,0,0,1-3.34-2.75c-1.24-1.43-1.48-2.94.07-3.82.49-.28,1.73-1.67,2.36-1.62C277,161.23,279,160.25,280.55,161.15Z" transform="translate(-63.71 -79.25)"/><path class="cls-3" d="M239,155.41c-.83,2.28-.18,4.29,1.65,5.16l0,0,.23.08a4.27,4.27,0,0,0,.6.18c2.18.65,5.45,1.24,7.45,1.63,8,1.52,19.87,2.47,25.45,4.6,2.19-1.61,2.84-4.59,1.41-6.39-6.09-2.9-14.32-6.67-17.77-8a9.94,9.94,0,0,0-2.88-.48c5.14-4.64,10.59-9.66,12.7-13.93,1.5-3,1.74-7.24,2.78-9.87-8.39,2.46-10-2.6-11.54-4.39-1.32,1.94-1.29,1.58-2.62,3.66-4.53,7-11.2,16.93-15.73,24.31A11.9,11.9,0,0,0,239,155.41Z" transform="translate(-63.71 -79.25)"/><path class="cls-4" d="M266.37,156.33c-3.42-1.55-6.52-2.9-8.33-3.57a9.94,9.94,0,0,0-2.88-.48c5.14-4.64,10.59-9.66,12.7-13.93,1.5-3,1.74-7.24,2.78-9.87A12.31,12.31,0,0,1,265,129l.22,1.64c-6.47,6.44-18.24,21.42-19.34,31.21,4,.92,14.77,2.3,16.5,2.5.45-2.9,2.35-5.22,4-8ZM260.47,126c-.54-.73-1-1.43-1.37-1.91-.84,1.24-1.13,1.54-1.58,2.13Z" transform="translate(-63.71 -79.25)"/><path class="cls-2" d="M265.33,193.63c1.17,1.63-2,9.83-2.78,11.56-.68,1.52-.46,2.46,1.15,2.48,1.27,0,3.29-1.78,4.52-3,2.31-2.21,2.45-4.47,3.12-5.43l.78-.25a8.24,8.24,0,0,0,2.37-3.38,18.47,18.47,0,0,0-.87-2.29c-1.26-2.32-1.54-1.3-3.19-2.72C268.54,192,269.88,192.55,265.33,193.63Z" transform="translate(-63.71 -79.25)"/><path class="cls-5" d="M250.26,165.52c3.45,6.67,12,21.72,15.05,28.41,2.67.56,5.37-1,5.61-3.1-1.95-6.41-5.12-17-6.68-20.34a44.71,44.71,0,0,0-4.7-7.45c5.09-7.13,13.16-18.35,15.49-24.92,3.17-9-.47-14.05-5.35-16.86-1.74-1-3.61.6-4.49-.47A71.73,71.73,0,0,0,260,135.37c-1.7,6.94-9.81,21.67-10.42,26.62a5.34,5.34,0,0,0,.48,2.8A7.27,7.27,0,0,0,250.26,165.52Z" transform="translate(-63.71 -79.25)"/><path class="cls-6" d="M386.91,430.91,152.3,299c-3-1.35-7.32-2.62-10.22-.85l-7.43,4.54c-1.5.91-6.41,3.94-3.13,5.73,9.68,5.25,226.31,127.77,236.13,133.1a13.78,13.78,0,0,0,7.43,1.13,18.65,18.65,0,0,0,8.05-2.41l3-1.83c2.1-1.3,3.26-2.71,3.37-4.07S388.73,431.74,386.91,430.91Z" transform="translate(-63.71 -79.25)"/><path class="cls-7" d="M179.21,83.93a6.24,6.24,0,0,0-5.29-.59l-4,1.56c-1.44,7.46,204.44,349.74,206.28,351.64l3.55-1.34c2.32-.92,3.54-3.34,3.89-5.69l29.91-204.22v0a14.62,14.62,0,0,0-2.44-9.88,11.43,11.43,0,0,0-4-3.86Z" transform="translate(-63.71 -79.25)"/><path class="cls-8" d="M403.24,213,175.3,85.45c-4.32-2.39-8.42-.1-9.18,5.1L136.2,294.77c-.76,5.2,2.1,11.36,6.42,13.75l227.94,127.6c4.31,2.39,8.43.1,9.19-5.1L409.67,226.8C410.43,221.6,407.55,215.43,403.24,213Z" transform="translate(-63.71 -79.25)"/><path class="cls-9" d="M403.24,213,175.3,85.45c-4.32-2.39-8.42-.1-9.18,5.1l-1,6.89L408.65,233.77l1-7C410.43,221.6,407.55,215.43,403.24,213Z" transform="translate(-63.71 -79.25)"/><path class="cls-10" d="M173.88,90.53c1.73.39,3.06,2.45,3,4.6s-1.56,3.56-3.29,3.16-3.06-2.45-3-4.6S172.15,90.13,173.88,90.53Z" transform="translate(-63.71 -79.25)"/><path class="cls-10" d="M181.75,95.05c1.73.4,3.06,2.45,3,4.6s-1.57,3.56-3.3,3.16-3-2.45-3-4.59S180,94.65,181.75,95.05Z" transform="translate(-63.71 -79.25)"/><path class="cls-10" d="M190.27,100c1.73.39,3.06,2.45,3,4.59s-1.56,3.56-3.29,3.17-3.06-2.46-3-4.6S188.54,99.62,190.27,100Z" transform="translate(-63.71 -79.25)"/><path class="cls-11" d="M375.52,283.84l-40.95-22.48a7.74,7.74,0,0,0-6.64-.74c-2.49,1-4.36,3.49-4.89,7.16l-4.64,33.3c-1,6.53,2.64,14.27,8.06,17.28l41,22.48c5.42,3,10.59.12,11.55-6.41l4.64-33.3C384.55,294.59,380.94,286.85,375.52,283.84Z" transform="translate(-63.71 -79.25)"/><path class="cls-12" d="M315.58,166.72l89.78,43.79L403,212.94l-8.62,60.23c-.88,6.18-5.58,8.92-10.48,6.11l-84-48L292.54,215Z" transform="translate(-63.71 -79.25)"/><path class="cls-13" d="M202.84,259.65l-55.51-30.77-1.86,2.83-9.11,62.08,57.49,31.87c6.09,3.37,11.89.14,13-7.19l5.08-39.41C213,271.72,208.92,263,202.84,259.65Z" transform="translate(-63.71 -79.25)"/><path class="cls-14" d="M200.38,273.26l-6.63,43.57,1.05.12,2.87-1.11c3.15-1.24,4.8-4.52,5.26-7.7l4.88-37.78v0A19.71,19.71,0,0,0,204.52,257a15.43,15.43,0,0,0-5.41-5.21L84.06,188a8.36,8.36,0,0,0-7.15-.8l-2.53,1c-1.28.48-1.67.87-1.66,1C73.91,200.24,202.06,261.84,200.38,273.26Z" transform="translate(-63.71 -79.25)"/><path class="cls-15" d="M196.22,252.89l-115-63.78a8.37,8.37,0,0,0-7.15-.8c-2.68,1.05-4.69,3.76-5.27,7.71L63.87,233.8c-1,7,2.85,15.37,8.68,18.6L187.6,316.18c5.84,3.23,11.41.13,12.44-6.9l4.87-37.78C206,264.46,202.05,256.12,196.22,252.89Z" transform="translate(-63.71 -79.25)"/><path class="cls-16" d="M194.85,264.64,115.45,221a2,2,0,0,0-1.71-.19,2.17,2.17,0,0,0-1.25,1.84l-.44,2.65a4.63,4.63,0,0,0,2.07,4.45l79.4,43.67c1.4.78,2.73,0,3-1.65l.44-2.65a4.64,4.64,0,0,0-2.08-4.45Zm-44.21,10.28a4.66,4.66,0,0,1,2.08,4.45l-.44,2.65c-.25,1.68-1.58,2.42-3,1.65l-39.94-21.5a4.63,4.63,0,0,1-2.07-4.45l.44-2.65a2.16,2.16,0,0,1,1.26-1.84,2,2,0,0,1,1.71.19l39.93,21.5Zm41.84,5.95a4.65,4.65,0,0,1,2.08,4.45l-.44,2.65c-.25,1.68-1.58,2.42-3,1.65L111.75,246a4.66,4.66,0,0,1-2.08-4.45l.44-2.65a2.17,2.17,0,0,1,1.26-1.84,2,2,0,0,1,1.71.19Z" transform="translate(-63.71 -79.25)"/><path class="cls-16" d="M90.15,220.2c-3.76-2.08-7.74.73-7.7,6.16a10.86,10.86,0,0,0,3.1,7.52A7.45,7.45,0,0,0,87.07,235c3.74,2.08,7.71-.73,7.68-6.14a10.84,10.84,0,0,0-3.07-7.53,7.47,7.47,0,0,0-1.53-1.15Zm-3.62,17.37a9.62,9.62,0,0,1-2-1.53,14.63,14.63,0,0,1-4.16-10.12c0-7.28,5.3-11.07,10.34-8.27a9.64,9.64,0,0,1,2.07,1.55,14.57,14.57,0,0,1,4.14,10.12c0,7.26-5.31,11-10.35,8.25Zm17.19-6.19a2.77,2.77,0,0,1,1.17,2.87l-.92,4.26c-.24,1.09-1.14,1.58-2,1.09l-.45-.25a1.27,1.27,0,0,0-1.78.49,12.9,12.9,0,0,1-.81,1.22,2.48,2.48,0,0,0-.18,2.41l.23.58a2.24,2.24,0,0,1-.6,2.78l-3.09,1.67a1.27,1.27,0,0,1-1.25,0,2.41,2.41,0,0,1-1-1.21l-.24-.56a2.31,2.31,0,0,0-1-1.19,1.39,1.39,0,0,0-.74-.19c-.43,0-.88,0-1.32-.06a1.41,1.41,0,0,0-1.47,1.27l-.12.55c-.24,1.09-1.14,1.58-2,1.09l-3.44-1.91a2.74,2.74,0,0,1-1.17-2.85l.12-.56a2.9,2.9,0,0,0-.68-2.46c-.37-.4-.71-.83-1.06-1.26a2.1,2.1,0,0,0-.65-.59,1.29,1.29,0,0,0-1.25,0l-.4.21a1.27,1.27,0,0,1-1.25,0,2.36,2.36,0,0,1-1-1.2l-1.79-4.38a2.24,2.24,0,0,1,.6-2.78l.41-.22a2,2,0,0,0,.79-2.08c-.09-.59-.14-1.18-.18-1.77a2.67,2.67,0,0,0-1.21-2.14l-.45-.25A2.77,2.77,0,0,1,72.32,221l.92-4.27c.24-1.1,1.14-1.59,2-1.1l.45.25a1.26,1.26,0,0,0,1.78-.49,11.59,11.59,0,0,1,.81-1.21,2.5,2.5,0,0,0,.18-2.41l-.23-.57a2.27,2.27,0,0,1,.6-2.8l3.09-1.67a1.27,1.27,0,0,1,1.25.05,2.34,2.34,0,0,1,1,1.2l.24.58a2.38,2.38,0,0,0,1,1.19,1.44,1.44,0,0,0,.75.19,11.65,11.65,0,0,1,1.32.05A1.39,1.39,0,0,0,89,208.7l.12-.56a1.36,1.36,0,0,1,2-1.1L94.55,209a2.77,2.77,0,0,1,1.16,2.87l-.12.56a2.86,2.86,0,0,0,.67,2.44c.37.4.73.83,1.07,1.28a2.06,2.06,0,0,0,.65.58,1.25,1.25,0,0,0,1.24,0l.41-.22a1.29,1.29,0,0,1,1.25,0,2.42,2.42,0,0,1,1,1.21l1.79,4.38a2.25,2.25,0,0,1-.6,2.79l-.41.22a2,2,0,0,0-.79,2.07c.08.59.14,1.18.18,1.76a2.69,2.69,0,0,0,1.21,2.15Z" transform="translate(-63.71 -79.25)"/><path class="cls-17" d="M189.86,115.58l-24.83-12-9.8,61.32L154,173.52l25.82,13.93c4.49,2.48,8.77.1,9.56-5.31l7.2-52.25C197.34,124.48,194.34,118.07,189.86,115.58Z" transform="translate(-63.71 -79.25)"/><path class="cls-14" d="M186.83,130.16l-7.74,50,.81.1,2.21-.86c2.42-.95,3.69-3.47,4-5.92l6.39-45.54a0,0,0,0,0,0,0A15.21,15.21,0,0,0,190,117.63a11.89,11.89,0,0,0-4.15-4l-47.49-25.8a6.47,6.47,0,0,0-5.5-.62l-2,.76c-1,.37-1.28.67-1.27.73C130.56,97.25,188.12,121.38,186.83,130.16Z" transform="translate(-63.71 -79.25)"/><path class="cls-18" d="M183.63,114.5,136.15,88.69a6.4,6.4,0,0,0-5.5-.61c-2.07.8-3.61,2.89-4.05,5.93l-6.39,45.53c-.79,5.42,2.19,11.82,6.67,14.31l47.49,25.8c4.48,2.49,8.76.11,9.56-5.3l6.38-45.54C191.11,123.4,188.11,117,183.63,114.5Z" transform="translate(-63.71 -79.25)"/><path class="cls-19" d="M174.83,167.47l-47.7-25.61c-1.1-.59-2.15,0-2.37,1.38a3.56,3.56,0,0,0,1.61,3.47l47.7,25.61c1.1.59,2.18,0,2.39-1.38a3.57,3.57,0,0,0-1.63-3.47ZM177,153.6a3.59,3.59,0,0,1,1.62,3.48c-.21,1.37-1.28,2-2.38,1.37l-47.71-25.6a3.53,3.53,0,0,1-1.6-3.47c.21-1.36,1.26-2,2.36-1.38L177,153.6Zm4.9-31.43-47.7-25.61a1.56,1.56,0,0,0-2.36,1.34l-.53,3.39a3.56,3.56,0,0,0,1.61,3.47l47.7,25.6A1.57,1.57,0,0,0,183,129l.53-3.4a3.56,3.56,0,0,0-1.63-3.47Zm-2.76,17.68a3.54,3.54,0,0,1,1.63,3.46c-.22,1.39-1.28,2-2.38,1.37l-47.71-25.61a3.51,3.51,0,0,1-1.61-3.44c.22-1.39,1.27-2,2.37-1.38Z" transform="translate(-63.71 -79.25)"/><path class="cls-14" d="M373.36,299.35l-5.65,34.82.88.1,2.4-.93c2.64-1,4-3.77,4.4-6.44l4.18-30v0a16.42,16.42,0,0,0-2.75-11.17,12.92,12.92,0,0,0-4.52-4.36l-36.86-20.24a7,7,0,0,0-6-.67l-2.11.83c-1.07.4-1.4.72-1.39.78C327,271.38,374.76,289.8,373.36,299.35Z" transform="translate(-63.71 -79.25)"/><path class="cls-20" d="M369.88,282.32,333,262.08a7,7,0,0,0-6-.67c-2.24.87-3.92,3.14-4.41,6.45l-4.17,30c-.87,5.89,2.38,12.86,7.25,15.56l36.87,20.23c4.87,2.71,9.53.12,10.39-5.76l4.18-30C378,292,374.76,285,369.88,282.32Z" transform="translate(-63.71 -79.25)"/><path class="cls-21" d="M353.82,284.4a2.9,2.9,0,0,1,.31,1.71,12.31,12.31,0,0,1-.67,2.2l-7.86,21.81c-.25.73-.48,1.28-.65,1.68a1.31,1.31,0,0,1-.71.76c-.28.13-.65,0-1.14-.26a3,3,0,0,1-1.55-3,15.55,15.55,0,0,1,.65-2.27L350,285.19a7.9,7.9,0,0,1,1-2.25c.28-.36.78-.31,1.44.1a3.29,3.29,0,0,1,1.29,1.36Zm2.1,5.66-.72,6.07,11.6,13.46-13-1.65-.73,6.09,18.72,1.47.61-5.17-16.48-20.27Zm-32.72-4.63,16.49,20.3.72-6.1-11.54-13.54,12.94,1.76.73-6.15-18.72-1.49Z" transform="translate(-63.71 -79.25)"/><path class="cls-20" d="M228.63,285.77c.66-4.54,4.11-6.54,7.71-4.47l53.42,30.13c3.59,2.07,6,7.43,5.31,12L288,371.75c-.66,4.53-4.12,6.53-7.71,4.46l-53.42-30.12c-3.6-2.07-6-7.43-5.31-12Z" transform="translate(-63.71 -79.25)"/><polygon class="cls-22" points="171.42 255.81 190.06 230 193.67 257.38 202.75 247.51 208.1 276.78 171.42 255.81"/><path class="cls-23" d="M265.83,310.39c2,.41,3.49,2.74,3.35,5.21s-1.87,4.15-3.86,3.75-3.5-2.74-3.36-5.21S263.84,310,265.83,310.39Z" transform="translate(-63.71 -79.25)"/><path class="cls-24" d="M233,292.69c.55-3.77,3.42-5.43,6.4-3.71l44.39,25c3,1.72,5,6.17,4.41,9.94l-5.9,40.18c-.55,3.77-3.42,5.43-6.41,3.71l-44.39-25c-3-1.72-5-6.17-4.41-9.94Z" transform="translate(-63.71 -79.25)"/><path class="cls-20" d="M300.73,327.64c.66-4.53,4.11-6.53,7.71-4.46l53.42,30.13c3.59,2.06,6,7.42,5.31,12l-7.11,48.36c-.66,4.53-4.12,6.53-7.71,4.46L298.93,388c-3.6-2.07-6-7.42-5.31-12Z" transform="translate(-63.71 -79.25)"/><polygon class="cls-25" points="243.52 297.69 262.16 271.88 265.77 299.25 274.85 289.38 280.2 318.65 243.52 297.69"/><path class="cls-23" d="M337.93,352.27c2,.41,3.49,2.74,3.35,5.21s-1.87,4.15-3.86,3.74-3.5-2.74-3.35-5.21S335.94,351.86,337.93,352.27Z" transform="translate(-63.71 -79.25)"/><path class="cls-26" d="M305.07,334.56c.55-3.76,3.42-5.43,6.4-3.7l44.39,25c3,1.72,5,6.17,4.41,9.93L354.37,406c-.55,3.76-3.42,5.42-6.41,3.71l-44.39-25c-3-1.72-5-6.17-4.41-9.93Z" transform="translate(-63.71 -79.25)"/><path class="cls-27" d="M220,84.58c-4.75,2.79-2.48,9.23,1.85,16,6.13,9.67-8.71,20.56,11.46,26.07-2.11-5.9,6.63-8.07,10.93-16.13C249.14,101.27,246.4,92,240,84,234.85,77.53,225.37,77.61,220,84.58Z" transform="translate(-63.71 -79.25)"/><path class="cls-28" d="M229.37,145.69l1.16,4.38c.36.94.58,1.2,1.93.59.74-.36.51-1.89.3-3a6.79,6.79,0,0,1,.05-2.77,2.22,2.22,0,0,1,.85-1.15c.81-.65,1.75-1.08,1.17-3.14a10.71,10.71,0,0,1-.25-3l-2.81-.19c.06,2.51-1.05,4.2-2.21,6.31C229,144.74,229.12,144.55,229.37,145.69Z" transform="translate(-63.71 -79.25)"/><path class="cls-29" d="M239.37,117.86l0-.14a2.08,2.08,0,0,0-.09-.6c-.71-4.77-2.16-12.8-3.29-17-2-7.32-8.24-4.79-8.17-.42.06,4.13,3.9,13.07,4.79,17-.32,2.82-1.5,16.93-1.09,19.39a5.47,5.47,0,0,1,.26,1.29,4.62,4.62,0,0,1-.24,1,32.93,32.93,0,0,1,3.3.56,7.88,7.88,0,0,1,.17-1.1c.19-.53.67-.8.89-1.25,1.08-2.21,2.87-13.8,3.36-17.57A4.83,4.83,0,0,0,239.37,117.86Z" transform="translate(-63.71 -79.25)"/><path class="cls-30" d="M238.55,122.33a21.94,21.94,0,0,0,.89-5.57c0-2.91-1.1-5.31-1.44-7.16L227.84,99.49c.07,1.9,2.28,6.94,3.18,10.66C232.43,116,235.51,121,238.55,122.33Z" transform="translate(-63.71 -79.25)"/><path class="cls-31" d="M270,123c-1.43,4.74-8.15,8.47-14.88,7-1.61-1.78-2.09-1.23-3.56-2.67s-3-3.11-5.3-5.45c-1.29-2-6.35-2.84-8.59-3.72-2.53-1-4.77-3.06-5.81-7.07-.51-2-2.72-7.9-3.51-9.89-2.29-5.74,2.68-7.88,6.05-5.76a61.69,61.69,0,0,0,9.25,2.47,40,40,0,0,0,4.1.61c2.8.27,5.83,2.31,8,4C261.54,107.19,269.45,116.52,270,123Z" transform="translate(-63.71 -79.25)"/><path class="cls-32" d="M236.2,93.12a14.28,14.28,0,0,0,4,6.75c-.71,2.55-5.58,4.39-7.12,2.66a10.16,10.16,0,0,0-.45-1.35c-.26-.74-.51-1.4-.73-1.92Z" transform="translate(-63.71 -79.25)"/><path class="cls-33" d="M222.08,89.71A8.28,8.28,0,0,0,224.61,95a2.45,2.45,0,0,1,.7,1.17,5.34,5.34,0,0,0,2.61,3.84c1.45,1,2,1.74,2.81,1.83A3.39,3.39,0,0,0,233,101c1.26-.9,2.68-3.38,3.35-5,.49-1.22.19-1.52-.13-2.68.37-2.12-1.1-2.25-1.59-2-1.4.75-.46,2.3-.92,3.2C228.76,95.56,223.67,91.15,222.08,89.71Z" transform="translate(-63.71 -79.25)"/><path class="cls-34" d="M222.08,89.71c2.74,4.56,8.76,5.71,11.61,4.77C228.76,95.56,223.67,91.15,222.08,89.71Z" transform="translate(-63.71 -79.25)"/><path class="cls-30" d="M253.93,128.82a.61.61,0,0,1-.13,0,9.47,9.47,0,0,1-2.28-1.53c-1.34-1.31-3-3.11-5.3-5.45-.66-1-2.29-1.75-4-2.32.28-4.71.16-15.48,1.7-16.88,2.13-1.93,5.07-3.22,7.52-.7C256,106.72,251.42,124.29,253.93,128.82Z" transform="translate(-63.71 -79.25)"/><polygon class="cls-9" points="183.7 55.91 180.77 44.89 182.79 43.09 201.28 53.46 199.56 55.39 191.53 60.76 183.7 55.91"/><path class="cls-14" d="M244.49,124.17l-1.35-4.3,23.06,12.8-3,2Z" transform="translate(-63.71 -79.25)"/><path class="cls-35" d="M206.72,150.24c1.2-8.83,7.89-12.63,15-8.47l73,42.59c7.06,4.16,11.82,14.7,10.62,23.53L294.14,292c-1.2,8.83-7.9,12.63-15,8.47l-73-42.6c-7.06-4.15-11.82-14.69-10.62-23.52Z" transform="translate(-63.71 -79.25)"/><path class="cls-14" d="M209.31,149.75c.13-.95.32-5.22,1.46-6.08a27.11,27.11,0,0,1,5.2-3.1,9.4,9.4,0,0,1,7.24,1.31l68.17,39.51c6.56,3.86,11,13.65,9.87,21.85l-10.33,78.2a12.61,12.61,0,0,1-2.83,6.76,21.13,21.13,0,0,1-5.13,3.59c-1.95,1-4.7-1.75-5.94-2.48L208.85,249.8c-6.57-3.86-11-13.66-9.88-21.86Z" transform="translate(-63.71 -79.25)"/><path class="cls-20" d="M206.91,151.43c1.11-8.2,7.33-11.74,13.9-7.87l67.79,39.58c6.56,3.86,11,13.65,9.87,21.86l-10.33,78.19c-1.11,8.2-7.34,11.73-13.9,7.87l-67.79-39.59c-6.57-3.86-11-13.65-9.88-21.85Z" transform="translate(-63.71 -79.25)"/><path class="cls-36" d="M206.91,151.43c1.11-8.2,7.33-11.74,13.9-7.87l67.79,39.58c6.56,3.86,11,13.65,9.87,21.86l-1.06,7.76L205.84,159.3Z" transform="translate(-63.71 -79.25)"/><path class="cls-20" d="M217.81,151.73a3.92,3.92,0,0,1,2.55,4c-.09,1.85-1.37,3.07-2.87,2.71a3.88,3.88,0,0,1-2.54-4C215,152.6,216.31,151.38,217.81,151.73Z" transform="translate(-63.71 -79.25)"/><path class="cls-20" d="M225.78,156.7a3.92,3.92,0,0,1,2.55,4c-.09,1.85-1.37,3.07-2.87,2.71a3.88,3.88,0,0,1-2.54-4C223,157.56,224.28,156.35,225.78,156.7Z" transform="translate(-63.71 -79.25)"/><path class="cls-20" d="M233.75,161.67a3.91,3.91,0,0,1,2.55,4c-.09,1.85-1.37,3.07-2.87,2.71a3.88,3.88,0,0,1-2.54-4C231,162.53,232.25,161.32,233.75,161.67Z" transform="translate(-63.71 -79.25)"/><path class="cls-37" d="M221.29,174.83c6.92,1.64,12.21,9.93,11.81,18.52s-6.34,14.22-13.26,12.58S207.63,196,208,187.41,214.37,173.19,221.29,174.83Z" transform="translate(-63.71 -79.25)"/><path class="cls-38" d="M221,182c3.73.89,6.58,5.36,6.36,10s-3.42,7.67-7.15,6.78-6.58-5.35-6.36-10S217.22,181.11,221,182Z" transform="translate(-63.71 -79.25)"/><g class="cls-39"><path class="cls-40" d="M237.26,191.49c.25-1.82,1.63-2.59,3.08-1.7l44.32,25.54a5.34,5.34,0,0,1,2.18,4.91l-.47,3.61c-.25,1.82-1.63,2.59-3.09,1.7L239,200a5.33,5.33,0,0,1-2.19-4.91Z" transform="translate(-63.71 -79.25)"/><path class="cls-40" d="M235.5,204.76c.14-1.07,1-1.52,1.82-1l26.16,15.08a3.16,3.16,0,0,1,1.3,2.9l-.29,2.13c-.14,1.08-1,1.53-1.82,1l-26.16-15.09a3.15,3.15,0,0,1-1.3-2.89Z" transform="translate(-63.71 -79.25)"/></g><g class="cls-39"><path class="cls-40" d="M205.92,208.15c.18-1.33,1.18-1.89,2.24-1.24l76.53,43.9a3.9,3.9,0,0,1,1.6,3.58l-.24,1.74c-.18,1.33-1.19,1.88-2.25,1.24l-76.53-43.91a3.87,3.87,0,0,1-1.59-3.57Z" transform="translate(-63.71 -79.25)"/><path class="cls-40" d="M204.32,221c.18-1.33,1.18-1.89,2.24-1.24l76.53,43.9a3.9,3.9,0,0,1,1.6,3.58l-.24,1.74c-.18,1.33-1.19,1.88-2.25,1.24l-76.53-43.91a3.87,3.87,0,0,1-1.59-3.57Z" transform="translate(-63.71 -79.25)"/><path class="cls-40" d="M202.64,233.29c.18-1.32,1.19-1.88,2.25-1.24L281.42,276a3.87,3.87,0,0,1,1.59,3.57l-.24,1.74c-.18,1.33-1.18,1.89-2.24,1.24L204,238.61a3.9,3.9,0,0,1-1.6-3.58Z" transform="translate(-63.71 -79.25)"/></g><path class="cls-14" d="M301.52,142.63c.24-1.7-.89-3-.15-4.14s3.51-2.09,4.69-2.51a6.62,6.62,0,0,1,5.62.74l81.4,46.53C397.83,186,401,193,400.14,199L391,262.89c-.42,2.93-1.73,5.06-3.51,6.15-1.09.67-4.07,1.95-5.42,1.78-.95-.11-.23-1.44-1.23-2l-81.4-46.53c-4.76-2.73-7.92-9.79-7.07-15.78Z" transform="translate(-63.71 -79.25)"/><path class="cls-41" d="M299.08,143.61c.85-6,5.4-8.64,10.16-5.92l81.4,46.54c4.75,2.72,7.92,9.78,7.07,15.77l-9.14,63.86c-.85,6-5.41,8.64-10.16,5.92L297,223.24c-4.75-2.72-7.92-9.79-7.07-15.77Z" transform="translate(-63.71 -79.25)"/><path class="cls-42" d="M292.76,210.39c.08-.51.47-.74.88-.49l90.28,51.77a1.49,1.49,0,0,1,.61,1.38l-.24,1.58c-.07.52-.47.74-.88.49l-90.28-51.76a1.5,1.5,0,0,1-.61-1.39Z" transform="translate(-63.71 -79.25)"/><path class="cls-6" d="M292.8,210.44c.08-.5.46-.71.85-.47l36.42,20.87a1.46,1.46,0,0,1,.59,1.34l-.23,1.52c-.08.5-.46.72-.85.48L293.16,213.3a1.45,1.45,0,0,1-.59-1.34Z" transform="translate(-63.71 -79.25)"/><path class="cls-43" d="M328.49,179.72c.21-1.43,1.29-2.06,2.42-1.41L356,192.64a4,4,0,0,1,1.68,3.75l-3.38,23.85c-.2,1.42-1.29,2-2.42,1.41l-25.06-14.34a4,4,0,0,1-1.68-3.75Z" transform="translate(-63.71 -79.25)"/><path class="cls-44" d="M342.79,190.09c-4.34-2.48-8.48-.06-9.26,5.39s2.11,11.9,6.44,14.38,8.48.07,9.26-5.4S347.12,192.57,342.79,190.09Z" transform="translate(-63.71 -79.25)"/><polygon class="cls-20" points="275.07 113.49 273.7 123.37 282.07 123.6 275.07 113.49"/><path class="cls-45" d="M241.3,142.24c-.71,1.18-.33,3.76-.56,5a20.7,20.7,0,0,1-1.09,3.57c-.15.32-4.87,4.51-5.15,4.3-.62-.48-1-3.79-.21-4.75a6.67,6.67,0,0,0,1.65-2.69c.14-.8.09-3.41.44-3.81.77-.92,1.58-1.21,1.93-2.35Z" transform="translate(-63.71 -79.25)"/><path class="cls-46" d="M250.49,126.22a6.07,6.07,0,0,0,.17-.83c1.23-5.08,2.48-13.78,2.32-18.82-.12-3.85-2-7.1-6.51-5.85a4.1,4.1,0,0,0-3.2,3.27,74.11,74.11,0,0,0,.29,9.53c.17,3,.15,8.31.27,10.48l-.06.2a117.4,117.4,0,0,0-5.52,15.32,6.67,6.67,0,0,0,0,1.41,2.7,2.7,0,0,1-.36,1.14,6.89,6.89,0,0,0,3.09,1.59,11.11,11.11,0,0,1,.63-1.12c.2-.29,1.1-.58,1.46-1,1.87-2.24,6.8-12.49,7.41-15.21A.43.43,0,0,1,250.49,126.22Z" transform="translate(-63.71 -79.25)"/><path class="cls-6" d="M178.37,388.06l41-23.34c4.47-2,10.86-3.66,15.42-1.29,4.14,2.15,11,6.57,14,8.29,2.29,1.31,10.26,6.08,5.3,8.78-14.6,7.94-29,16.86-43.86,24.93-2.8,1.52-6.9,2.07-11.21,1.71a29.63,29.63,0,0,1-12.14-3.61l-7.26-4.23c-3.22-1.87-4.92-4.09-5.09-6.13S175.63,389.32,178.37,388.06Z" transform="translate(-63.71 -79.25)"/><path class="cls-20" d="M193.47,386.83c.8,0,3.51-2.56,6.07-1.28,3.08,1.54,8.92.18,11.87.88.52.13,1.55-.26,1.75.1.64,1.13,1.25,2.82-.31,3.93a26.72,26.72,0,0,1-5.23,2.46,43.81,43.81,0,0,1-6.61,1.87c-2.17.34-3.16.48-4,1.11a5.73,5.73,0,0,1-3,.73,5.13,5.13,0,0,1-3.87-2.7,11.5,11.5,0,0,1,0-4.29,21.71,21.71,0,0,1,1.37-3.75Z" transform="translate(-63.71 -79.25)"/><path class="cls-47" d="M199.76,381.36c-1,2.34-.67,5.95-3,7.21a3.42,3.42,0,0,1-5-1.55c-.59-1.34.19-3.62,0-6.56Z" transform="translate(-63.71 -79.25)"/><path class="cls-48" d="M200.41,385c1.76.51,6.64.17,9.73.42,1.32.11,2.51.1,3.13,1.3s.27,2.06-1,3a22,22,0,0,1-4.71,2.31,44.15,44.15,0,0,1-6.61,1.87c-2.18.34-3.17.48-4,1.11a5.75,5.75,0,0,1-3,.73,5.37,5.37,0,0,1-3.88-2.87,10.8,10.8,0,0,1,0-4.12c.06-.28.14-.58.23-.87.24-2.33,1-3.26,1.73-2.87a4.53,4.53,0,0,1,1.74,2.33,2.27,2.27,0,0,0,1.35,1.28,2.64,2.64,0,0,0,3-1.3,8.46,8.46,0,0,0,.81-2.35v-.24c.23-2,1.22-1.85,1.07-1.42A1.73,1.73,0,0,0,200.41,385Z" transform="translate(-63.71 -79.25)"/><path class="cls-20" d="M212.65,386.36c0,.78,1.18.86.84,2.23.57-.56-.23-2.19-.59-2.44C212.75,386.05,212.63,386,212.65,386.36Z" transform="translate(-63.71 -79.25)"/><path class="cls-20" d="M213.58,378.78c.74-.29,2.41-3.61,5.25-3.28a14.33,14.33,0,0,0,4.87-.71c3-.84,7.16-3.52,7.87-3.08,1.54,1,1.67,2.69.58,4.27a22,22,0,0,1-3.63,3.79,37.82,37.82,0,0,1-5.12,3.89c-1.65.92-2.19.84-3.36,2.42a5.5,5.5,0,0,1-2.6,1.64,6.17,6.17,0,0,1-5.08-1.9c-.57-1.84-1.56-3.58-.93-6.34Z" transform="translate(-63.71 -79.25)"/><path class="cls-47" d="M217.52,371c0,2.54,1.57,5.79-.12,7.8a3.43,3.43,0,0,1-5.23.4c-1-1-1.15-3.43-2.39-6.1Z" transform="translate(-63.71 -79.25)"/><path class="cls-48" d="M222.94,374l.51-.14c3-.85,7-2.91,7.69-2.47,1.55.95,1.84,2.08.76,3.65a21.77,21.77,0,0,1-3.64,3.79,37.26,37.26,0,0,1-5.12,3.9c-1.64.91-2.19.83-3.36,2.41a5.49,5.49,0,0,1-2.6,1.65,6.36,6.36,0,0,1-5.16-1.92,15.12,15.12,0,0,1-1-4.39c-.25-2.25-.1-3.4.88-3.37,1.82.06,2.57,1,3.33,1.48,1.62,1,2.7-.29,3-1.91a9.22,9.22,0,0,0-.15-2.13c0-.07,0-.15-.08-.22-.54-2,.45-2.17.47-1.72a1.68,1.68,0,0,0,1.5,1.72A13.05,13.05,0,0,0,222.94,374Z" transform="translate(-63.71 -79.25)"/><path class="cls-20" d="M231,371.68c.31.72,1.43.27,1.71,1.66.28-.76-1.15-1.88-1.58-1.95C230.91,371.36,230.78,371.38,231,371.68Z" transform="translate(-63.71 -79.25)"/><path class="cls-49" d="M215.8,302.6c.66,7.34,4.33,30.76,3.31,37.19-1.54,9.67-1.1,21.35-1.08,31.61-.26,4.31-6.19,6.56-7.92,3.82-1.38-9.17-3.35-17.2-4.15-22.3-.9-5.7-.6-12.63.84-16.38-.59-4.1-3.38-14.67-5.72-22-.84-2.64-5.61-11.18-.67-19.67Z" transform="translate(-63.71 -79.25)"/><path class="cls-50" d="M218.12,368.64c0,.77,0,1.93,0,2.67-.26,4.31-6.26,6.65-8,3.91-.1-.67-.25-1.34-.35-2C212.08,375.71,216.62,372.47,218.12,368.64Z" transform="translate(-63.71 -79.25)"/><path class="cls-4" d="M219.27,335.42c-1.94,9.7-7.4,22.65-10.39,32.4-1.55-8.35-5.44-22.58-2.08-31.28-.33-2.34-1.39-6.77-2.66-11.51,2.59-4.9.11-8.81,1.34-15.72,6.85-1.2-3.49-9.56,11-.75C217.78,319,219,325.51,219.27,335.42Z" transform="translate(-63.71 -79.25)"/><path class="cls-51" d="M215.33,344.62c-4,8.94-11.24,26.49-15.12,37.47-2,2.92-9.16,2.61-9.15-.11,1.58-9.18,3.44-23.33,6.73-31.38a71.15,71.15,0,0,1,6.08-10.15c1-4.05,2.34-15,3.35-20.92-.9-4.89-4.85-13.09,2.74-20.21,3.06,2.18,12.53,3.55,16.83,1.12C227.48,319.79,222.73,327.86,215.33,344.62Z" transform="translate(-63.71 -79.25)"/><path class="cls-52" d="M201,380.18c-.17.48-.51,1.45-.68,1.9-2.06,3-9.42,2.69-9.41-.11.08-.45.16-.91.24-1.39C192.91,382.37,198.22,382.39,201,380.18Z" transform="translate(-63.71 -79.25)"/><path class="cls-53" d="M239.55,195.36c-.28.6-.55,1.19-.84,1.78l-1.21,2.42c-.26-1.19-1.2-1.64-1.93-1a2.07,2.07,0,0,0-.59.79c-.11-.33-1-1.05-2.27.71a1.34,1.34,0,0,0-1.5.86,8.63,8.63,0,0,0-.52,1.27,5,5,0,0,0-.36,1.72c0,1.16.06,2.43,0,3.82s-1.75,3.42-2.68,4.53l5.61,1.77a32.22,32.22,0,0,1,2.19-2.73c.88-.89,2-1,2.83-1.68a11.15,11.15,0,0,0,1.54-2c.66-.94,1-2,1.65-3a2.73,2.73,0,0,0,.64-2,23.67,23.67,0,0,1,.42-2.39c-1.15-.57-2.06.85-2.05,2.24a3.42,3.42,0,0,0-1.24,1.69c-.92-1.2-.37-1.7,0-3.24a15.52,15.52,0,0,0,1.32-3.09c.18-.47.36-1,.55-1.49a1.49,1.49,0,0,0-.34-1.65C240.58,194.49,240,194.55,239.55,195.36Z" transform="translate(-63.71 -79.25)"/><path class="cls-54" d="M241.89,200.05c-.82.12-1.4,1.25-1.39,2.36a3.35,3.35,0,0,0-1.21,1.6,7.71,7.71,0,0,1,1.47-1.46,3.54,3.54,0,0,1,1.13-2.5Zm-4.28-.7-.11.21a2.09,2.09,0,0,0-.3-.74,3.08,3.08,0,0,1-.8,1.78,2,2,0,0,0,1.21-1.25Zm-2.64-.06a.68.68,0,0,0-.29-.3,4.92,4.92,0,0,1-.63,1.61,2.71,2.71,0,0,0,.92-1.31Zm-2.23.69,0,0a1.47,1.47,0,0,0-.36,0,3.65,3.65,0,0,1-.65,1.79A2.91,2.91,0,0,0,232.74,200Z" transform="translate(-63.71 -79.25)"/><path class="cls-55" d="M218.37,227.78c2.82-4.92,5-11.09,9-16.08.33-.42,1.1-.74,1.38-1.18l1.23-1.87a8.72,8.72,0,0,1,5.68,2.56c-.22.66-.44,1.31-.65,2s.23,2.39,0,3.15a125.17,125.17,0,0,1-6.92,18.85c-3.91,5-21.3,37.44-30.39,25.69-.82-4.18.29-7.66,2.39-11.05a30.24,30.24,0,0,1,4.13-4.74C207.07,242.1,214.08,232.2,218.37,227.78Z" transform="translate(-63.71 -79.25)"/><path class="cls-56" d="M199,276.33c.64,5.74-1.09,11.38.67,16.62.08.54.13,2.66.22,3.24,1.16,6.79,15.51,13.65,27.48,7.14.07-.84,0-1.72.06-3.28-.23-1.45.4-3,.4-3.9,0-3.69-1.17-5.58-.62-9.69,1.13-8.36,5.76-16.39,3.19-23a7,7,0,0,0-2.6-3c-2.83-2.28-17.46-9.73-21.9-10.25C193.05,248.6,198.33,270.11,199,276.33Z" transform="translate(-63.71 -79.25)"/><path class="cls-57" d="M228.53,280.4c1.66-6.14,3.83-11.94,1.89-16.91a7,7,0,0,0-2.6-3c-2.83-2.28-2.45,3.83-6.89,3.31C220.08,272,224.11,279.42,228.53,280.4Z" transform="translate(-63.71 -79.25)"/><path class="cls-33" d="M219.5,247.7a31.54,31.54,0,0,0,.33,7.05c-4.2-.14-10-1.24-10.66-4.36,0-.37.06-.75.07-1.13a1.09,1.09,0,0,0-.17-.13c-1.5-1-4-1.74-5.59-3.57-2.55-2.92-3.91-6.85-1.9-10.8,3.66-7.22,12.51-7.34,17.45-1.5,1,1.14.26,2.32.81,3.42.1.21.5.31.95.68.64.53,2.48,5,2.43,7.39,0,.95-2.2,2.28-3.17,2.81A2.93,2.93,0,0,1,219.5,247.7Z" transform="translate(-63.71 -79.25)"/><path class="cls-58" d="M219.5,247.7a31.54,31.54,0,0,0,.33,7.05c-4.2-.14-10-1.24-10.66-4.36,0-.37.06-.75.07-1.13-.05,0-.12-.08-.17-.13-3.18-3,1.08-6.4,6.47-3.46A4.16,4.16,0,0,0,219.5,247.7Z" transform="translate(-63.71 -79.25)"/><path class="cls-59" d="M223.22,244.75c0,.41-1.74,1-2.46,1.14.49-4.46-3.75-5.14-3.11-9.49.39-2.62-2.3-3.56-1.25-5.48a12,12,0,0,1,2.63,2.34c1,1.14.26,2.32.81,3.42.1.21.5.31.95.68C221.43,237.89,223.33,242.4,223.22,244.75Z" transform="translate(-63.71 -79.25)"/><path class="cls-60" d="M217.44,242.94c-.08-1-.49-1.19-.82-.93a2.7,2.7,0,0,0-.58,2.19c.16,1.65,1.69,3.14,2.75,1.8-1.15.61-1.7-.87-1.75-1.92C217,243.37,217.19,242.77,217.44,242.94Z" transform="translate(-63.71 -79.25)"/><path class="cls-61" d="M217.07,243.58c.62.46.9.78.89,1s-.16.45-.7.26A2.3,2.3,0,0,1,217.07,243.58Z" transform="translate(-63.71 -79.25)"/><path class="cls-6" d="M209.12,250.28c-1.24.38-2.4,1.66-2.18,2.48,1.24,5,10.49,6.17,16.25,4.95.07,0-2.16-2.95-3.26-3.31C216.31,254.76,210.23,253.26,209.12,250.28Z" transform="translate(-63.71 -79.25)"/><path class="cls-62" d="M208.67,250c-1.53-1.64-4.13-2.42-5.79-4.33s-3.44-4.76-2.35-7.72c-1.93-6.09,4.68-10.91,10.25-12a4.33,4.33,0,0,1,4.64,6.38,5.87,5.87,0,0,1,1.34,4.45A4,4,0,0,0,217,240c.44,1,1.53,3.51-.45,1.93-1.28-1-2.17,1.23-1.74,2.78a7.06,7.06,0,0,1,.28,3C214.76,251,209.53,250.88,208.67,250Z" transform="translate(-63.71 -79.25)"/><path class="cls-63" d="M202.38,235.16c-1.32-5.89,6.43-8.87,9.46-8.94s5.47,5,1.83,6.67C211.19,234.05,206.28,231.79,202.38,235.16Z" transform="translate(-63.71 -79.25)"/><path class="cls-64" d="M263.81,243.51a4,4,0,0,0-.25,1.19,9.54,9.54,0,0,0-.57,1.81,16.68,16.68,0,0,0-.15,3,6.28,6.28,0,0,0,.26,1.83,17,17,0,0,1-3,3.55l3.54,2.7c1.5-1,2.66-2,3.95-2.87a4.43,4.43,0,0,0,1.73-1c.82-.85,3.23-3.39,3.37-4.39a23,23,0,0,0-.39-5.08c-.64-3.59-2-7.37-2.25-5.7-.34.4-.06,3.64-.27,4.12-.84,1-1.24,1.37-2.29,2.52a12.16,12.16,0,0,1-1.4.84c-.36.1-.56-.15-.57-.47a13.61,13.61,0,0,1,.4-1.92c0-1.53-.38-2.41-1.21-2.33a.83.83,0,0,0-.77.72C263.85,242.38,263.87,242.88,263.81,243.51Z" transform="translate(-63.71 -79.25)"/><path class="cls-65" d="M228.11,258.57c4.88.76,14.29,6.12,20.78,9,3.62-5.16,8.37-11.35,11.3-13.43a9.62,9.62,0,0,0,1.46-1c.43-.53.84-1.06,1.24-1.61,1.83.25,4.49,2.54,4.45,3.62l-.9,1.69a10.32,10.32,0,0,0-.25,1.72c-1,3.61-6.48,12-9,15.68-1.47,2.15-2,3.42-3,4.06-1.61,1-3.76.47-7.91-.58-3.49-.87-14.76-2.92-19.95-5.66-3.65-1.93-6.46-5.41-5-9.41A6.32,6.32,0,0,1,228.11,258.57Z" transform="translate(-63.71 -79.25)"/></g></g></svg>