<svg xmlns="http://www.w3.org/2000/svg" viewBox="0 0 350 291.83"><defs><style>.cls-1{isolation:isolate;}.cls-12,.cls-2{fill:#e2e9fb;}.cls-13,.cls-2{mix-blend-mode:multiply;}.cls-3{fill:#343c6b;}.cls-13,.cls-4{fill:#b8c9f5;}.cls-5{fill:#819bea;}.cls-6{fill:#9ba1a7;}.cls-7{fill:#fcbac0;}.cls-8{fill:#c6d0e9;}.cls-9{fill:#445393;}.cls-10{fill:#ed8b8b;}.cls-11{fill:#81a0ea;}</style></defs><g class="cls-1"><g id="Layer_7" data-name="Layer 7"><path class="cls-2" d="M280.14,376.33c0,13.41-21.83,24.27-48.75,24.27s-48.75-10.86-48.75-24.27,21.82-24.27,48.75-24.27S280.14,362.93,280.14,376.33Z" transform="translate(-81.49 -108.78)"/><path class="cls-3" d="M207.8,366.54c1.35-4.35,4.76-7.17,7.61-6.29s3.23,4.91,2.74,9.5a6.06,6.06,0,0,1-1,2.27A9.59,9.59,0,0,0,216,376.8a13.74,13.74,0,0,1-.61,4.05c-.92,3-3.89,4.94-6.07,6a3.65,3.65,0,0,1-4.91-1.74c-1.21-2.57-1.81-6.47-.1-9.56C205,374.31,207.55,367.36,207.8,366.54Z" transform="translate(-81.49 -108.78)"/><path class="cls-3" d="M237.52,359.73a24.47,24.47,0,0,1,2.42,2.45,16,16,0,0,0,6.45,3.66c3.32,1.17,6,1.42,7.92.92a2.74,2.74,0,0,0,1.54-4.23,36.1,36.1,0,0,0-5.63-5.83c-1.5-1.32-2.89-2.51-4-3.46a8,8,0,0,1-2.78-5.33,5.47,5.47,0,0,0-.42-2.22c-4-1.54-9.82-.69-10.85,1.27,0,0-1.15,6-1.15,7.5a3.21,3.21,0,0,0,2,3.2A17.49,17.49,0,0,1,237.52,359.73Z" transform="translate(-81.49 -108.78)"/><path class="cls-4" d="M203.19,205.32v14.56c0,2.2,3.7,142.66,3.7,142.66,0,3.61,13.63,3.94,13.58-.73l7.17-102.29,2.81,86.8c0,4.39,15.13,3.33,14.88-.33l2.13-116.3a26.84,26.84,0,0,0-.59-6.13Z" transform="translate(-81.49 -108.78)"/><path class="cls-5" d="M227.64,260.08l2.9-1.78a2.38,2.38,0,0,1,3.61,2.15l-3.9,77.73Z" transform="translate(-81.49 -108.78)"/><path class="cls-3" d="M275.41,206.39s.87,1.68.42,6.22a12.38,12.38,0,0,1-2.09,5.56l-3.25-2.42,2.08-8.59Z" transform="translate(-81.49 -108.78)"/><path class="cls-6" d="M278.19,207.69s.69,1.34.33,5a9.8,9.8,0,0,1-1.67,4.44l-2.59-1.93,1.66-6.86Z" transform="translate(-81.49 -108.78)"/><path class="cls-7" d="M295.27,214.28c-.84.72-7.32,3-9.27,2.9-4-.17-11.21-.82-12.21-1-.77-.13-1.61-.26-2.52-.37l2-8.75c1,.33,2,.7,3.06,1a8.79,8.79,0,0,0,1.65.41c.07,0,1-2,1-2a4.29,4.29,0,0,1,1.88-1.89s2.25-1.12,3.76-1.77c1.85-.8,3.29-1.66,3.86-.92s-.84,2-1.47,2.48l-3.21,2.44c3.84-1.82,7.77-4,8.28-1.45C292.13,205.42,300.17,209.88,295.27,214.28Z" transform="translate(-81.49 -108.78)"/><path class="cls-8" d="M276.85,217.09c-.11,0-2.15.15-5.06.07l1.78-10.34,4.62.87C276,208.66,275.88,215.43,276.85,217.09Z" transform="translate(-81.49 -108.78)"/><path class="cls-3" d="M275.41,206.39c-2.75,1.21-2.9,9.71-1.67,11.78,0,0-27.58,0-32.19-3.87-3.18-2.69-7.84-29.68-9.7-41.13a3.72,3.72,0,0,1,.5-2.86,3.89,3.89,0,0,1,2.5-1.77s12.23-1.55,12.61.32c.92,4.78,5.47,27.47,6.33,32.42a1.23,1.23,0,0,0,.91.92C256.67,202.93,275.41,206.39,275.41,206.39Z" transform="translate(-81.49 -108.78)"/><path class="cls-8" d="M196,181l5.6,18.54,1.1,33.91c1.92,12.54,43.65,8.84,43.65-7.51V169c0-9.72-7-14.05-14.14-13.31a15.78,15.78,0,0,0-4.6,1.19c-.57.22-5-2.17-5.51-1.87l-11.63,6.71c-.79.47-1.56.91-2.29,1.36C200.57,167.69,196,172,196,181Z" transform="translate(-81.49 -108.78)"/><path class="cls-7" d="M214.74,145.11v16.11a2.56,2.56,0,0,0,1.31,1.93c2.15,1.4,6.15,1.66,9,.61,1.67-.61,2.57-1.54,2.57-2.54V148.28l-6.09-7.9h-.67Z" transform="translate(-81.49 -108.78)"/><path class="cls-7" d="M211.17,274.78c-.73.25-1.72-.7-2-1.7a28.77,28.77,0,0,0-1.62-3.27s-1.84,4.93-4.23,3.94c-6.14-2.54-6.14-5.74-5.66-8s2-3.93,2.28-6.18l-.74-7.87h8.32l-.15,4.71a10.2,10.2,0,0,0,1.36,5.48l.88,1.51a8.63,8.63,0,0,1,.92,2.46l1.33,6.33C212.24,273.53,212.13,274.48,211.17,274.78Z" transform="translate(-81.49 -108.78)"/><path class="cls-9" d="M251.13,233.63c0,5.32-8.5,11.63-9.62,10.85s1-33.51-1.69-55c-1.36-10.83-3.64-20.8-7.42-27-1.86-3-4.91-5.39-4.61-5.45,1.69-.34,1.3-1.12,2.56-1.37.16,0,1.66,0,1.85,0,7.25,0,15.26,3.53,15.26,13.25l1.09,23.85Z" transform="translate(-81.49 -108.78)"/><path class="cls-9" d="M202.44,244.56l-.84-45L193.77,182c0-9,6.79-14.31,14.41-18.92.73-.46,1.51-.9,2.29-1.36l4.28-2.47c0,.1-.38,2.48-.38,2.48-.63,4.28,8,21.07,10.67,32.5,3.47,15,5.35,54.25,4.54,54.91C228.1,250.35,203.54,251.72,202.44,244.56Z" transform="translate(-81.49 -108.78)"/><path class="cls-8" d="M196.63,186.57l-1,31.59a25.31,25.31,0,0,0,.11,3.26l3.72,35.46c.59,2.07,8.3,1.48,8.57-.86l1-34.85a27.43,27.43,0,0,1,.16-3.85c.61-5.46,2.59-23.64,3-28.64Z" transform="translate(-81.49 -108.78)"/><path class="cls-9" d="M213.4,188.84c-.37,5.13-2.47,24.17-3,28.62a26.39,26.39,0,0,0-.16,3.68l-.84,31.15c.11,3.24-11.55,3.68-11.8.85l-3.15-31.59a26.32,26.32,0,0,1-.11-3.43L193.77,182Z" transform="translate(-81.49 -108.78)"/><path class="cls-10" d="M214.74,145.11v.76c0,6.11,5,11.34,11.12,10.93a9.78,9.78,0,0,0,1.41-.18l.35-.09v-8.25l-6.09-7.9-.27-.32-.4.32Z" transform="translate(-81.49 -108.78)"/><path class="cls-7" d="M233.16,129.66c3.06,5,5.25,14.48,2.65,19.72-1.61,3.24-4,4.94-7.26,5.07a25,25,0,0,1-11.67-3.55,23,23,0,0,1-6.57-6.46c-5.17-8.05-3.06-16.24,3.36-20.43C225.45,116.32,229,122.94,233.16,129.66Z" transform="translate(-81.49 -108.78)"/><path class="cls-3" d="M202,135.49c.4,6,4.78,12.88,12.74,16.23v-3.23a8.12,8.12,0,0,1-2.51-3.47c-.29-.88,1.11-1.37,2.51-.85a.56.56,0,0,1,.2.06,4.43,4.43,0,0,0,2.48.06,2.38,2.38,0,0,0,1.75-3.29c-4.23-9.95,7.43-12.25,10.31-15.51,1.26,1.19,3.68,4.17,3.68,4.17a40.9,40.9,0,0,0-1.9-4.84A10.71,10.71,0,0,0,220,118.17a19.77,19.77,0,0,0-2.42.44C205.9,121.44,201.62,129.57,202,135.49Z" transform="translate(-81.49 -108.78)"/><path class="cls-7" d="M217.34,143.47c2.24,2,3,4.78,1.72,6.24s-4.16,1-6.41-1-3-4.79-1.71-6.25S215.1,141.47,217.34,143.47Z" transform="translate(-81.49 -108.78)"/><path class="cls-11" d="M395.74,110,275.85,180A17.8,17.8,0,0,0,267,195.4v94.66a8.91,8.91,0,0,0,13.38,7.71l119.91-70.34A17.82,17.82,0,0,0,409.1,212V117.69A8.9,8.9,0,0,0,395.74,110Z" transform="translate(-81.49 -108.78)"/><path class="cls-12" d="M400.22,112.87l-119.89,70a17.83,17.83,0,0,0-8.89,15.42V293a8.91,8.91,0,0,0,13.38,7.7l119.9-70.34a17.8,17.8,0,0,0,8.87-15.4V120.58A8.91,8.91,0,0,0,400.22,112.87Z" transform="translate(-81.49 -108.78)"/><path class="cls-11" d="M418.82,185.52l-73.75,43.06a10.94,10.94,0,0,0-5.47,9.48V296.3a5.47,5.47,0,0,0,8.23,4.73l73.76-43.26a11,11,0,0,0,5.45-9.48v-58A5.48,5.48,0,0,0,418.82,185.52Z" transform="translate(-81.49 -108.78)"/><path class="cls-12" d="M423.27,188.29l-73.76,43.06a11,11,0,0,0-5.47,9.49v58.23a5.48,5.48,0,0,0,8.23,4.74L426,260.54a11,11,0,0,0,5.46-9.47V193A5.48,5.48,0,0,0,423.27,188.29Z" transform="translate(-81.49 -108.78)"/><path class="cls-11" d="M101.19,164.6l73.75,43.06a11,11,0,0,1,5.47,9.49v58.23a5.48,5.48,0,0,1-8.23,4.74L98.42,236.85A11,11,0,0,1,93,227.38v-58A5.48,5.48,0,0,1,101.19,164.6Z" transform="translate(-81.49 -108.78)"/><path class="cls-12" d="M96.44,167.38l73.75,43.06a10.93,10.93,0,0,1,5.47,9.48v58.24a5.47,5.47,0,0,1-8.23,4.73L93.67,239.63a11,11,0,0,1-5.45-9.48v-58A5.47,5.47,0,0,1,96.44,167.38Z" transform="translate(-81.49 -108.78)"/><path class="cls-11" d="M113.66,269.55l47.85,27.94a7.11,7.11,0,0,1,3.55,6.15v37.79a3.55,3.55,0,0,1-5.34,3.07l-47.86-28.07a7.12,7.12,0,0,1-3.54-6.15V272.63A3.56,3.56,0,0,1,113.66,269.55Z" transform="translate(-81.49 -108.78)"/><path class="cls-12" d="M109.39,271.93l47.85,27.94a7.09,7.09,0,0,1,3.55,6.15V343.8a3.56,3.56,0,0,1-5.34,3.08L107.6,318.81a7.13,7.13,0,0,1-3.54-6.15V275A3.55,3.55,0,0,1,109.39,271.93Z" transform="translate(-81.49 -108.78)"/><path class="cls-13" d="M399,248.67l-73.76,43.06a11,11,0,0,0-5.47,9.49v58.23a5.48,5.48,0,0,0,8.23,4.74l73.76-43.27a11,11,0,0,0,5.46-9.47v-58A5.48,5.48,0,0,0,399,248.67Z" transform="translate(-81.49 -108.78)"/><path class="cls-13" d="M86.89,138.25l48.41,28.26a7.21,7.21,0,0,1,3.59,6.23V211a3.6,3.6,0,0,1-5.4,3.11L85.07,185.67a7.17,7.17,0,0,1-3.58-6.22V141.36A3.6,3.6,0,0,1,86.89,138.25Z" transform="translate(-81.49 -108.78)"/><path class="cls-13" d="M334.83,121.33,286.41,149.6a7.21,7.21,0,0,0-3.59,6.23v38.22a3.6,3.6,0,0,0,5.41,3.11l48.42-28.4a7.21,7.21,0,0,0,3.58-6.22V124.45A3.6,3.6,0,0,0,334.83,121.33Z" transform="translate(-81.49 -108.78)"/></g></g></svg>