<svg xmlns="http://www.w3.org/2000/svg" xmlns:xlink="http://www.w3.org/1999/xlink" viewBox="0 0 350 405.65"><defs><style>.cls-1{isolation:isolate;}.cls-2{fill:#59caaf;}.cls-10,.cls-11,.cls-12,.cls-13,.cls-14,.cls-15,.cls-16,.cls-17,.cls-18,.cls-19,.cls-2,.cls-20,.cls-21,.cls-22,.cls-23,.cls-24,.cls-25,.cls-26,.cls-27,.cls-28,.cls-29,.cls-3,.cls-30,.cls-31,.cls-32,.cls-33,.cls-34,.cls-35,.cls-36,.cls-37,.cls-38,.cls-39,.cls-4,.cls-40,.cls-41,.cls-42,.cls-43,.cls-44,.cls-45,.cls-46,.cls-47,.cls-48,.cls-49,.cls-5,.cls-50,.cls-51,.cls-52,.cls-53,.cls-54,.cls-55,.cls-56,.cls-57,.cls-58,.cls-59,.cls-6,.cls-60,.cls-61,.cls-62,.cls-63,.cls-64,.cls-7,.cls-8,.cls-9{fill-rule:evenodd;}.cls-2,.cls-22,.cls-48{opacity:0.35;}.cls-16,.cls-2,.cls-22,.cls-25,.cls-38,.cls-48{mix-blend-mode:multiply;}.cls-3{fill:url(#linear-gradient);}.cls-4{fill:url(#linear-gradient-2);}.cls-5{fill:#4a9ff8;}.cls-6{fill:#d0e7ff;}.cls-7{fill:#fff;}.cls-8{fill:url(#linear-gradient-3);}.cls-9{fill:#6d6afd;opacity:0.2;}.cls-10{fill:url(#linear-gradient-4);}.cls-11,.cls-48{fill:#4165f3;}.cls-12{fill:#22d2fb;}.cls-13{fill:url(#linear-gradient-5);}.cls-14{fill:#12a3eb;}.cls-15{fill:#1c8df3;}.cls-16,.cls-38{opacity:0.5;}.cls-16{fill:url(#linear-gradient-6);}.cls-17{fill:url(#linear-gradient-7);}.cls-18{fill:#fffcf1;}.cls-19{fill:#ffa495;}.cls-20{fill:#193161;}.cls-21{fill:url(#linear-gradient-8);}.cls-22{fill:#6266d7;}.cls-23{fill:url(#linear-gradient-9);}.cls-24{fill:url(#GradientFill_15);}.cls-25{fill:#1e2353;opacity:0.3;}.cls-26{fill:url(#linear-gradient-10);}.cls-27{fill:url(#GradientFill_15-2);}.cls-28{fill:url(#linear-gradient-11);}.cls-29{fill:#ffa698;}.cls-30{fill:url(#linear-gradient-12);}.cls-31{fill:url(#linear-gradient-13);}.cls-32{fill:#ffb49c;}.cls-33{fill:#ff9d8e;}.cls-34{fill:#562e65;}.cls-35{fill:url(#linear-gradient-14);}.cls-36{fill:url(#linear-gradient-15);}.cls-37{fill:url(#linear-gradient-16);}.cls-38{fill:url(#linear-gradient-17);}.cls-39{fill:#ff9281;}.cls-40{fill:url(#linear-gradient-18);}.cls-41{fill:#1f202b;}.cls-42{fill:#161a40;}.cls-43{fill:#161f69;}.cls-44{fill:url(#linear-gradient-19);}.cls-45{fill:url(#linear-gradient-20);}.cls-46{fill:url(#linear-gradient-21);}.cls-47{fill:url(#linear-gradient-22);}.cls-49{fill:url(#linear-gradient-23);}.cls-50{fill:#06c0e1;}.cls-51{fill:url(#linear-gradient-24);}.cls-52{fill:url(#linear-gradient-25);}.cls-53{fill:url(#linear-gradient-26);}.cls-54{fill:url(#linear-gradient-27);}.cls-55{fill:#fdbebe;}.cls-56{fill:url(#linear-gradient-28);}.cls-57{fill:url(#GradientFill_17);}.cls-58{fill:#1994f0;}.cls-59{fill:url(#linear-gradient-29);}.cls-60{fill:#00edff;}.cls-61{fill:#0d7ae9;}.cls-62{fill:#494cec;}.cls-63{fill:url(#linear-gradient-30);}.cls-64{fill:#aab4ff;}</style><linearGradient id="linear-gradient" x1="290.95" y1="192.25" x2="242.04" y2="376.04" gradientUnits="userSpaceOnUse"><stop offset="0" stop-color="#d1e8ff"/><stop offset="1" stop-color="#eaefff"/></linearGradient><linearGradient id="linear-gradient-2" x1="298.85" y1="124.17" x2="235.8" y2="417.91" gradientUnits="userSpaceOnUse"><stop offset="0" stop-color="#6d6afe"/><stop offset="1" stop-color="#3fb0f7"/></linearGradient><linearGradient id="linear-gradient-3" x1="310.58" y1="75.54" x2="312.08" y2="61.78" xlink:href="#linear-gradient-2"/><linearGradient id="linear-gradient-4" x1="304.63" y1="98.51" x2="307.9" y2="84.36" xlink:href="#linear-gradient-2"/><linearGradient id="linear-gradient-5" x1="225.49" y1="243.55" x2="221.78" y2="273.36" gradientUnits="userSpaceOnUse"><stop offset="0" stop-color="#fd90da"/><stop offset="1" stop-color="#8e6dfd"/></linearGradient><linearGradient id="linear-gradient-6" x1="220.04" y1="205.52" x2="239.88" y2="139.15" gradientUnits="userSpaceOnUse"><stop offset="0" stop-color="#965cf2"/><stop offset="1" stop-color="#ff8adc"/></linearGradient><linearGradient id="linear-gradient-7" x1="214.34" y1="138.7" x2="191.72" y2="212.99" xlink:href="#linear-gradient-2"/><linearGradient id="linear-gradient-8" x1="153.39" y1="231.95" x2="149.14" y2="269.2" gradientUnits="userSpaceOnUse"><stop offset="0" stop-color="#a77ef7"/><stop offset="1" stop-color="#5e65d6"/></linearGradient><linearGradient id="linear-gradient-9" x1="170.91" y1="291.37" x2="160.9" y2="339.27" gradientUnits="userSpaceOnUse"><stop offset="0" stop-color="#40457f"/><stop offset="1" stop-color="#1e2353"/></linearGradient><linearGradient id="GradientFill_15" x1="173.12" y1="352.64" x2="169.36" y2="358.04" gradientUnits="userSpaceOnUse"><stop offset="0" stop-color="#3773b9"/><stop offset="1" stop-color="#003c76"/></linearGradient><linearGradient id="linear-gradient-10" x1="179.84" y1="296.77" x2="145.69" y2="343.35" xlink:href="#linear-gradient-9"/><linearGradient id="GradientFill_15-2" x1="153.86" y1="363.64" x2="148.18" y2="365.09" xlink:href="#GradientFill_15"/><linearGradient id="linear-gradient-11" x1="172.41" y1="235.24" x2="167.47" y2="278.57" xlink:href="#linear-gradient-8"/><linearGradient id="linear-gradient-12" x1="172.65" y1="222.62" x2="171.12" y2="226.49" gradientUnits="userSpaceOnUse"><stop offset="0" stop-color="#ff8a78"/><stop offset="1" stop-color="#ffa799"/></linearGradient><linearGradient id="linear-gradient-13" x1="177.86" y1="211.81" x2="175.59" y2="216.16" gradientUnits="userSpaceOnUse"><stop offset="0" stop-color="#ffb89e"/><stop offset="1" stop-color="#ffa799"/></linearGradient><linearGradient id="linear-gradient-14" x1="173.06" y1="201.23" x2="163.05" y2="206.96" gradientUnits="userSpaceOnUse"><stop offset="0" stop-color="#8a4791"/><stop offset="1" stop-color="#562e65"/></linearGradient><linearGradient id="linear-gradient-15" x1="231.18" y1="214.86" x2="233.24" y2="217.72" xlink:href="#linear-gradient-13"/><linearGradient id="linear-gradient-16" x1="203.62" y1="234.23" x2="207.42" y2="246.92" xlink:href="#linear-gradient-8"/><linearGradient id="linear-gradient-17" x1="329.29" y1="275.21" x2="311.73" y2="209.46" xlink:href="#linear-gradient-6"/><linearGradient id="linear-gradient-18" x1="324.87" y1="301.07" x2="335.43" y2="295.16" gradientUnits="userSpaceOnUse"><stop offset="0" stop-color="#1c8ef4"/><stop offset="1" stop-color="#00cfdd"/></linearGradient><linearGradient id="linear-gradient-19" x1="322.06" y1="358.5" x2="298.99" y2="400.88" gradientUnits="userSpaceOnUse"><stop offset="0" stop-color="#3e4795"/><stop offset="1" stop-color="#273088"/></linearGradient><linearGradient id="linear-gradient-20" x1="331.35" y1="364.44" x2="314.4" y2="406.8" xlink:href="#linear-gradient-19"/><linearGradient id="linear-gradient-21" x1="320.84" y1="315.01" x2="320.22" y2="348.61" xlink:href="#linear-gradient-18"/><linearGradient id="linear-gradient-22" x1="324.45" y1="319.03" x2="356.2" y2="311.54" xlink:href="#linear-gradient-18"/><linearGradient id="linear-gradient-23" x1="319.94" y1="310" x2="322.81" y2="314.61" xlink:href="#linear-gradient-12"/><linearGradient id="linear-gradient-24" x1="317.27" y1="295.69" x2="310.85" y2="335.38" gradientUnits="userSpaceOnUse"><stop offset="0" stop-color="#5a2d68"/><stop offset="1" stop-color="#22043d"/></linearGradient><linearGradient id="linear-gradient-25" x1="339.53" y1="251.5" x2="341.94" y2="232.11" xlink:href="#linear-gradient-2"/><linearGradient id="linear-gradient-26" x1="312.56" y1="261.27" x2="315.28" y2="249.54" xlink:href="#linear-gradient-2"/><linearGradient id="linear-gradient-27" x1="398.77" y1="189.14" x2="409.24" y2="208.71" gradientUnits="userSpaceOnUse"><stop offset="0" stop-color="#fa5db1"/><stop offset="1" stop-color="#febfbf"/></linearGradient><linearGradient id="linear-gradient-28" x1="396.7" y1="229.82" x2="403.77" y2="204.47" xlink:href="#linear-gradient-6"/><linearGradient id="GradientFill_17" x1="121.85" y1="151.17" x2="117.86" y2="159.36" gradientUnits="userSpaceOnUse"><stop offset="0" stop-color="#3964af"/><stop offset="1" stop-color="#00bcce"/></linearGradient><linearGradient id="linear-gradient-29" x1="121.78" y1="150.78" x2="113.75" y2="169.61" xlink:href="#linear-gradient-18"/><linearGradient id="linear-gradient-30" x1="131.22" y1="179.19" x2="119.48" y2="161.54" xlink:href="#linear-gradient-2"/></defs><g class="cls-1"><g id="Layer_8" data-name="Layer 8"><path class="cls-2" d="M331.71,413.66l-126.22-69.8c-3.1-1.41-7.65-2.75-10.69-.9L187,347.7c-1.56.95-6.7,4.12-3.26,6,10.12,5.5,117.52,65.41,127.8,71a14.46,14.46,0,0,0,7.77,1.19,19.49,19.49,0,0,0,8.42-2.51l3.11-1.91c2.19-1.36,3.41-2.84,3.53-4.26S333.61,414.53,331.71,413.66Z" transform="translate(-86.05 -53.98)"/><path class="cls-3" d="M233.43,97.7a7,7,0,0,0-6-.67L223,98.78c-1.62,8.39,92.52,316.13,94.59,318.27l4-1.51c2.61-1,4-3.75,4.37-6.4l33.67-229.81v0a16.38,16.38,0,0,0-2.74-11.12,13,13,0,0,0-4.49-4.34Z" transform="translate(-86.05 -53.98)"/><path class="cls-4" d="M348,165.56,229,99.4c-4.86-2.69-9.48-.11-10.33,5.74L185,335c-.86,5.85,2.37,12.78,7.22,15.47l119,66.16c4.86,2.69,9.49.11,10.34-5.74L355.22,181C356.08,175.18,352.84,168.24,348,165.56Z" transform="translate(-86.05 -53.98)"/><path class="cls-5" d="M348,165.56,229,99.4c-4.86-2.69-9.48-.11-10.33,5.74L217,116.91l136.52,75.92,1.73-11.8C356.08,175.18,352.84,168.24,348,165.56Z" transform="translate(-86.05 -53.98)"/><path class="cls-6" d="M292.2,60.38c.26-1.93-.27-3.09.69-4.18a11.4,11.4,0,0,1,3.33-1.9,6.17,6.17,0,0,1,5.31.7l24.29,14.45c4.43,2.57,7.43,9.13,6.71,14.66l-3.77,27.75a8.41,8.41,0,0,1-2.32,5.18,9,9,0,0,1-4,2c-1.26.16-1.59-1-3-1.79l-24.29-14.45c-4.43-2.57-7.43-9.13-6.7-14.66Z" transform="translate(-86.05 -53.98)"/><path class="cls-7" d="M290.71,61.26c.73-5.53,4.91-7.94,9.33-5.38l24.3,14.46c4.42,2.56,7.42,9.12,6.7,14.65l-3.77,27.75c-.72,5.52-4.9,7.93-9.33,5.37l-24.29-14.45c-4.43-2.57-7.43-9.13-6.7-14.66Z" transform="translate(-86.05 -53.98)"/><path class="cls-8" d="M290.71,61.26c.73-5.53,4.91-7.94,9.33-5.38l24.3,14.46c4.42,2.56,7.42,9.13,6.7,14.65l-.35,2.61a12.83,12.83,0,0,0-1.49-1l-38.81-23Z" transform="translate(-86.05 -53.98)"/><path class="cls-9" d="M306.71,77.13c6.75,1.54,11.93,9.58,11.58,17.94s-6.12,13.9-12.86,12.36-11.93-9.58-11.58-18S300,75.58,306.71,77.13Z" transform="translate(-86.05 -53.98)"/><path class="cls-10" d="M306.42,84.11c3.63.83,6.43,5.16,6.24,9.67s-3.3,7.5-6.94,6.67-6.43-5.17-6.24-9.68,3.3-7.49,6.94-6.66Zm-.17,3.83c-1.93-.44-3.58,1.14-3.68,3.54s1.38,4.69,3.32,5.14,3.58-1.15,3.68-3.54S308.19,88.38,306.25,87.94Z" transform="translate(-86.05 -53.98)"/><path class="cls-7" d="M296.71,58.82a3.17,3.17,0,0,1,2.09,3.25c-.07,1.51-1.11,2.51-2.33,2.23a3.17,3.17,0,0,1-2.09-3.24C294.45,59.54,295.49,58.54,296.71,58.82Z" transform="translate(-86.05 -53.98)"/><path class="cls-7" d="M302.26,62a3.15,3.15,0,0,1,2.09,3.25c-.06,1.51-1.1,2.51-2.32,2.23a3.15,3.15,0,0,1-2.09-3.24C300,62.73,301,61.73,302.26,62Z" transform="translate(-86.05 -53.98)"/><path class="cls-7" d="M308.27,65.52a3.15,3.15,0,0,1,2.09,3.24c-.06,1.51-1.1,2.51-2.32,2.23a3.17,3.17,0,0,1-2.1-3.24C306,66.24,307.05,65.24,308.27,65.52Z" transform="translate(-86.05 -53.98)"/><path class="cls-5" d="M195.92,304.62l40.57,22.24.17-1.22L196.09,303.4,201,269.68l40.57,22.23.18-1.22-40.57-22.23,4.93-33.71L246.74,257l.17-1.23-40.57-22.24,4.94-33.72L251.85,222l.19-1.23-40.58-22.22,4.94-33.73L257,187.1l.18-1.23-40.57-22.23,4.95-33.71,40.57,22.24-5,33.7L257,187.1,252,220.81l-.19,1.23-4.94,33.72-.17,1.23-5,33.7-.18,1.22-5,33.73-.17,1.22-5,33.72h0L191,338.33l4.95-33.71ZM303.74,175l-40.57-22.24-4.95,33.71,40.57,22.23-.17,1.23-40.57-22.23h0l-5,33.71,40.58,22.24-.19,1.23-40.57-22.24L248,256.35l40.57,22.23-.2,1.23-40.57-22.25h0l-4.93,33.72,40.57,22.24-.18,1.22L242.68,292.5h0l-4.94,33.73,40.56,22.22-.17,1.23-40.57-22.23h0l-4.95,33.71,40.57,22.25h0l4.95-33.73.17-1.23,4.95-33.71.18-1.22,4.93-33.71.2-1.23,4.93-33.71.19-1.23,4.94-33.72.17-1.23,4.95-33.7Zm41.64,22.83-4.95,33.7-.17,1.23-4.95,33.71-.18,1.23-4.93,33.72-.19,1.23-4.94,33.7-.18,1.22L320,371.29l-.18,1.22-4.95,33.71h0L274.25,384l4.95-33.72h0l40.57,22.24.18-1.22L279.38,349l4.95-33.71h0l40.56,22.23.18-1.22L284.5,314.11l4.94-33.72h0L330,302.64l.19-1.23-40.57-22.24,4.93-33.71,40.57,22.23.18-1.23-40.57-22.23,4.95-33.72h0l40.57,22.24.17-1.23-40.57-22.24,4.95-33.7h0l40.57,22.24Zm-124.75-69.7L189.72,339l126,69.06,30.84-210.89Z" transform="translate(-86.05 -53.98)"/><path class="cls-11" d="M262,353.45,257.62,351a2.76,2.76,0,0,1-1.26-2.27l-.24-6a2.66,2.66,0,0,0-1.26-2.26,1.28,1.28,0,0,0-1.86.53l-2.47,4.45a1.31,1.31,0,0,1-1.87.55l-4.4-2.45c-1.6-.9-2.8,1.26-1.76,3.13l2.89,5.19a2.8,2.8,0,0,1,.1,2.6L243,359a2.81,2.81,0,0,0,1,3.53,1.38,1.38,0,0,0,1,.14l4.25-1.25a1.39,1.39,0,0,1,1.05.14,2.42,2.42,0,0,1,.89.93l2.87,5.2a2.39,2.39,0,0,0,.87.93c1,.57,2.21-.17,2.14-1.8l-.25-6a1.8,1.8,0,0,1,1.09-1.94l4.26-1.23C263.74,357.21,263.62,354.33,262,353.45Z" transform="translate(-86.05 -53.98)"/><path class="cls-6" d="M265.6,281.21c-2.48-1.37-5.12.48-5.09,4.07a7.21,7.21,0,0,0,2,5,5.17,5.17,0,0,0,1,.75c2.48,1.37,5.1-.48,5.08-4.06a7.16,7.16,0,0,0-2-5,5.24,5.24,0,0,0-1-.76Zm-2.39,11.49a6.46,6.46,0,0,1-1.36-1A9.74,9.74,0,0,1,259.1,285c0-4.82,3.51-7.32,6.84-5.47a5.79,5.79,0,0,1,1.37,1,9.65,9.65,0,0,1,2.74,6.68c0,4.81-3.51,7.31-6.84,5.46Zm11.36-4.1a1.83,1.83,0,0,1,.77,1.9l-.61,2.82a.89.89,0,0,1-1.33.72l-.3-.16a.82.82,0,0,0-1.17.32,9.31,9.31,0,0,1-.54.8,1.68,1.68,0,0,0-.12,1.6l.15.38a1.49,1.49,0,0,1-.39,1.84l-2,1.11a.83.83,0,0,1-.82,0,1.64,1.64,0,0,1-.67-.8l-.15-.37a1.59,1.59,0,0,0-.66-.79,1,1,0,0,0-.49-.13l-.88,0a.93.93,0,0,0-1,.83l-.08.37a.89.89,0,0,1-1.33.72l-2.28-1.26a1.82,1.82,0,0,1-.77-1.89l.08-.37a1.93,1.93,0,0,0-.45-1.62c-.25-.27-.47-.55-.7-.84a1.3,1.3,0,0,0-.44-.38.86.86,0,0,0-.82,0l-.26.14a.85.85,0,0,1-.83,0,1.55,1.55,0,0,1-.66-.79l-1.19-2.9a1.47,1.47,0,0,1,.4-1.84l.27-.14a1.34,1.34,0,0,0,.52-1.38,11.6,11.6,0,0,1-.12-1.17,1.76,1.76,0,0,0-.8-1.41l-.3-.17a1.83,1.83,0,0,1-.77-1.89l.61-2.82a.89.89,0,0,1,1.33-.73l.3.17a.82.82,0,0,0,1.17-.33,7.54,7.54,0,0,1,.55-.8,1.63,1.63,0,0,0,.11-1.59l-.15-.38a1.5,1.5,0,0,1,.39-1.85l2.05-1.1a.85.85,0,0,1,.83,0,1.58,1.58,0,0,1,.66.8l.16.38a1.57,1.57,0,0,0,.65.79,1,1,0,0,0,.49.12,6.47,6.47,0,0,1,.88,0,.93.93,0,0,0,1-.83l.08-.37c.16-.73.75-1.05,1.34-.73l2.27,1.27a1.8,1.8,0,0,1,.77,1.89l-.07.37a1.89,1.89,0,0,0,.44,1.61c.24.27.48.56.7.85a1.46,1.46,0,0,0,.44.39.83.83,0,0,0,.82,0l.27-.15a.83.83,0,0,1,.82,0,1.59,1.59,0,0,1,.67.8l1.18,2.89a1.48,1.48,0,0,1-.4,1.85l-.27.15a1.29,1.29,0,0,0-.51,1.37c.05.38.09.77.11,1.16a1.8,1.8,0,0,0,.8,1.42Z" transform="translate(-86.05 -53.98)"/><path class="cls-12" d="M221.82,339.36c-1.5,7-7.3,10.11-12.93,7s-9-11.34-7.49-18.3,7.31-10.1,12.93-7,9,11.34,7.49,18.3Zm-9.07-2.85a2.27,2.27,0,0,0,1.07-1.58,4,4,0,0,0-1-3.49l1.34-6.25a1.1,1.1,0,0,0-.46-1.13c-.34-.19-.7,0-.8.44l-1.34,6.25a1.91,1.91,0,0,0-2.14,1.74,3.79,3.79,0,0,0,1.61,3.94,2.16,2.16,0,0,0,.77.27l2.54,9.25a.67.67,0,0,0,.33.44.58.58,0,0,0,.31.08c.27,0,.39-.42.29-.77l-2.51-9.19Zm2.06-17.69c-6.62-3.67-13.45,0-15.22,8.22s2.19,17.89,8.82,21.56,13.46,0,15.23-8.23S221.44,322.49,214.81,318.82Z" transform="translate(-86.05 -53.98)"/><path class="cls-13" d="M237.83,253l-25.51-14a1.29,1.29,0,0,0-2,1.12l-3.27,28a3.14,3.14,0,0,0,1.51,3l25.5,14a1.3,1.3,0,0,0,2-1.14l3.27-28A3.15,3.15,0,0,0,237.83,253Z" transform="translate(-86.05 -53.98)"/><path class="cls-7" d="M234.62,255.74a1.3,1.3,0,0,1,.53,1.74l-12.42,16a.57.57,0,0,1-.75.12,1.33,1.33,0,0,1-.59-.71l-7.54-19.72c-.32-.81.16-1.48.81-1.14l3.6,1.89a1.39,1.39,0,0,1,.6.72l3.12,8.16a1.3,1.3,0,0,0,.59.71.55.55,0,0,0,.75-.11l7.24-9.3a.56.56,0,0,1,.75-.11Z" transform="translate(-86.05 -53.98)"/><path class="cls-12" d="M295.23,213.83l-35.58-19.3a.71.71,0,0,0-1.09.6l-.49,3.08a1.67,1.67,0,0,0,.75,1.61l35.58,19.3c.5.27,1,0,1.08-.61l.48-3.08A1.64,1.64,0,0,0,295.23,213.83Z" transform="translate(-86.05 -53.98)"/><path class="cls-12" d="M293.11,225.19l-18.93-10.36a.72.72,0,0,0-1.1.6l-.14.92a1.64,1.64,0,0,0,.75,1.61l18.93,10.36c.51.28,1,0,1.09-.61l.14-.92A1.63,1.63,0,0,0,293.11,225.19Z" transform="translate(-86.05 -53.98)"/><path class="cls-12" d="M268,172.37c-.87,7.83,3.47,17.4,9.71,21.36s12.23-1.14,12.89-7-.45-8.35-2.23-12.23l-3.26,1.78a12.24,12.24,0,0,1,1.45,7.89c-.42,3.79-4.27,7.06-8.28,4.52s-6.8-8.69-6.24-13.72Z" transform="translate(-86.05 -53.98)"/><path class="cls-14" d="M272.46,164.43c-2.34,1.27-4,4-4.44,7.94l4,2.56c.28-2.51,1.34-4.29,2.85-5.1Q273.68,167.15,272.46,164.43Z" transform="translate(-86.05 -53.98)"/><path class="cls-15" d="M280.9,165.33c-3.12-2-6.12-2.17-8.44-.91.81,1.81,1.63,3.62,2.45,5.41,1.5-.81,3.42-.69,5.42.58a13.79,13.79,0,0,1,4.84,5.92l3.26-1.77A21.36,21.36,0,0,0,280.9,165.33Z" transform="translate(-86.05 -53.98)"/><path class="cls-12" d="M280.64,317.82l-35.57-19.29a.71.71,0,0,0-1.09.6l-.49,3.08a1.65,1.65,0,0,0,.75,1.6l35.58,19.3c.5.28,1,0,1.08-.6l.48-3.08A1.64,1.64,0,0,0,280.64,317.82Z" transform="translate(-86.05 -53.98)"/><path class="cls-12" d="M262.64,319.73l-18.93-10.36a.72.72,0,0,0-1.1.6l-.14.92a1.63,1.63,0,0,0,.75,1.61l18.93,10.36a.71.71,0,0,0,1.09-.6l.14-.93A1.63,1.63,0,0,0,262.64,319.73Z" transform="translate(-86.05 -53.98)"/><path class="cls-16" d="M240.69,152.11l-26.12-12.62L204.27,204l-1.33,9.06,27.16,14.65c4.72,2.62,9.22.11,10.05-5.58l7.58-55C248.56,161.47,245.41,154.73,240.69,152.11Z" transform="translate(-86.05 -53.98)"/><path class="cls-6" d="M237.51,167.45,229.37,220l.85.1,2.32-.9c2.55-1,3.89-3.66,4.26-6.23l6.72-47.9v0a15.92,15.92,0,0,0-2.66-10.82,12.7,12.7,0,0,0-4.37-4.22l-50-27.14a6.8,6.8,0,0,0-5.79-.65l-2.05.8c-1,.39-1.35.7-1.34.76C178.32,132.83,238.87,158.22,237.51,167.45Z" transform="translate(-86.05 -53.98)"/><path class="cls-17" d="M234.14,151,184.2,123.83a6.74,6.74,0,0,0-5.79-.65c-2.17.85-3.79,3-4.26,6.24l-6.72,47.9c-.83,5.69,2.3,12.43,7,15.05l50,27.14c4.72,2.62,9.22.11,10.06-5.58l6.72-47.9C242,160.34,238.86,153.59,234.14,151Z" transform="translate(-86.05 -53.98)"/><path class="cls-18" d="M224.89,206.69l-50.18-26.93c-1.16-.62-2.26,0-2.49,1.45a3.73,3.73,0,0,0,1.69,3.65l50.18,26.93c1.16.63,2.29,0,2.51-1.44a3.75,3.75,0,0,0-1.71-3.66Zm2.24-14.58a3.77,3.77,0,0,1,1.72,3.66c-.23,1.43-1.36,2.06-2.51,1.44l-50.18-26.93a3.72,3.72,0,0,1-1.69-3.65c.22-1.44,1.33-2.08,2.48-1.45l50.18,26.93ZM232.3,159l-50.18-26.93a1.64,1.64,0,0,0-2.48,1.41l-.56,3.56a3.72,3.72,0,0,0,1.69,3.65L231,167.66a1.65,1.65,0,0,0,2.5-1.39l.56-3.57A3.77,3.77,0,0,0,232.3,159Zm-2.91,18.6a3.75,3.75,0,0,1,1.72,3.64c-.23,1.46-1.35,2.06-2.51,1.44l-50.18-26.93a3.7,3.7,0,0,1-1.7-3.62c.23-1.46,1.34-2.08,2.49-1.46Z" transform="translate(-86.05 -53.98)"/><path class="cls-2" d="M135.19,370.56l37.24-21.21c4.06-1.85,9.87-3.33,14-1.18,3.77,2,10,6,12.72,7.54,2.09,1.19,9.32,5.53,4.82,8-13.26,7.21-26.39,15.32-39.85,22.64-2.55,1.39-6.27,1.89-10.18,1.56a26.83,26.83,0,0,1-11-3.28l-6.6-3.84c-2.92-1.7-4.47-3.72-4.63-5.57S132.7,371.7,135.19,370.56Z" transform="translate(-86.05 -53.98)"/><path class="cls-7" d="M150.32,369.15c.84,0,3.69-2.69,6.38-1.34,3.24,1.62,9.38.18,12.48.93.55.13,1.63-.28,1.85.1.67,1.19,1.31,3-.33,4.13a28.36,28.36,0,0,1-5.5,2.59,46.83,46.83,0,0,1-6.95,2c-2.29.35-3.33.5-4.19,1.16a6,6,0,0,1-3.19.77,5.4,5.4,0,0,1-4.08-2.84,12.24,12.24,0,0,1,0-4.51,23.64,23.64,0,0,1,1.44-3.94Z" transform="translate(-86.05 -53.98)"/><path class="cls-19" d="M156.94,363.4c-1,2.46-.71,6.26-3.14,7.58a3.61,3.61,0,0,1-5.27-1.63c-.61-1.41.21-3.81,0-6.89Z" transform="translate(-86.05 -53.98)"/><path class="cls-20" d="M157.61,367.21c1.86.54,7,.18,10.24.44,1.39.11,2.64.1,3.29,1.37s.29,2.16-1.07,3.12a22.68,22.68,0,0,1-5,2.43,45.65,45.65,0,0,1-7,2c-2.29.36-3.33.51-4.19,1.17a6.18,6.18,0,0,1-3.19.77,5.65,5.65,0,0,1-4.08-3,11.26,11.26,0,0,1,0-4.33,8.33,8.33,0,0,1,.24-.92c.26-2.44,1.06-3.43,1.82-3a4.65,4.65,0,0,1,1.83,2.45A2.45,2.45,0,0,0,152,371a2.8,2.8,0,0,0,3.11-1.37,9,9,0,0,0,.86-2.48v-.25c.24-2.13,1.28-1.94,1.12-1.49A1.86,1.86,0,0,0,157.61,367.21Z" transform="translate(-86.05 -53.98)"/><path class="cls-7" d="M170.5,368.66c0,.82,1.24.9.87,2.35.61-.6-.24-2.31-.62-2.57C170.6,368.34,170.47,368.29,170.5,368.66Z" transform="translate(-86.05 -53.98)"/><path class="cls-7" d="M171.47,360.69c.78-.31,2.53-3.8,5.53-3.46a15.15,15.15,0,0,0,5.12-.74c3.14-.89,7.52-3.7,8.27-3.24,1.63,1,1.76,2.83.61,4.49a23.11,23.11,0,0,1-3.81,4,39.76,39.76,0,0,1-5.39,4.1c-1.73,1-2.31.88-3.54,2.54a5.68,5.68,0,0,1-2.73,1.73,6.53,6.53,0,0,1-5.35-2c-.6-1.94-1.63-3.77-1-6.67Z" transform="translate(-86.05 -53.98)"/><path class="cls-19" d="M175.62,352.45c-.05,2.67,1.64,6.09-.13,8.21a3.62,3.62,0,0,1-5.5.42c-1.09-1.08-1.21-3.62-2.51-6.42Z" transform="translate(-86.05 -53.98)"/><path class="cls-20" d="M181.31,355.7l.54-.15c3.14-.89,7.34-3.06,8.09-2.6,1.63,1,1.94,2.19.8,3.84a23.62,23.62,0,0,1-3.82,4,39.76,39.76,0,0,1-5.39,4.1c-1.73,1-2.3.88-3.53,2.54a5.74,5.74,0,0,1-2.74,1.73,6.67,6.67,0,0,1-5.43-2,16.23,16.23,0,0,1-1.1-4.61c-.26-2.37-.1-3.58.93-3.55,1.92.06,2.71,1.07,3.5,1.56,1.7,1.07,2.85-.31,3.12-2a9.6,9.6,0,0,0-.15-2.24l-.09-.23c-.56-2.08.48-2.29.5-1.81a1.77,1.77,0,0,0,1.58,1.81A13.79,13.79,0,0,0,181.31,355.7Z" transform="translate(-86.05 -53.98)"/><path class="cls-7" d="M189.75,353.22c.33.75,1.51.28,1.8,1.74.29-.8-1.21-2-1.66-2C189.7,352.88,189.57,352.9,189.75,353.22Z" transform="translate(-86.05 -53.98)"/><path class="cls-21" d="M139.91,259.46c6.26,7.25,6.35,7.82,18.56,15l2.33-4.57c-4.1-8.39-5.33-9.51-10.65-16a62,62,0,0,0,12.52-11.78c8-10.63,3.54-18-3.34-16.52-6,1.31-15.37,16.84-20.46,25.6C136.75,254.79,136.24,255.19,139.91,259.46Z" transform="translate(-86.05 -53.98)"/><path class="cls-22" d="M152.21,252.33a61.59,61.59,0,0,0,10.46-10.27c8-10.63,3.31-17.8-3.57-16.3C155.51,226.85,149.1,234.45,152.21,252.33Z" transform="translate(-86.05 -53.98)"/><path class="cls-23" d="M173.81,280.56c.69,7.71,4.55,32.34,3.48,39.11-1.62,10.17-1.16,22.46-1.14,33.25-.27,4.54-6.51,6.91-8.33,4-1.45-9.64-3.53-18.09-4.37-23.45-.94-6-.63-13.3.89-17.24-.62-4.31-3.56-15.43-6-23.13-.88-2.78-5.9-11.76-.71-20.69Z" transform="translate(-86.05 -53.98)"/><path class="cls-24" d="M176.25,350c0,.8,0,2,0,2.81-.28,4.54-6.59,7-8.41,4.11-.1-.71-.26-1.41-.37-2.11C169.89,357.46,174.67,354,176.25,350Z" transform="translate(-86.05 -53.98)"/><path class="cls-25" d="M177.45,315.08c-2,10.2-7.78,23.82-10.92,34.08-1.64-8.79-5.73-23.75-2.19-32.91-.35-2.46-1.46-7.12-2.8-12.1,2.72-5.16.12-9.28,1.41-16.54,7.2-1.26-3.67-10.05,11.57-.79C175.89,297.76,177.17,304.65,177.45,315.08Z" transform="translate(-86.05 -53.98)"/><path class="cls-26" d="M173.31,324.75c-4.16,9.41-11.83,27.87-15.9,39.42-2.11,3.06-9.64,2.75-9.62-.12,1.66-9.65,3.61-24.54,7.08-33a75.94,75.94,0,0,1,6.38-10.68c1.1-4.26,2.47-15.77,3.53-22-.95-5.15-5.11-13.77,2.88-21.25,3.22,2.29,13.19,3.72,17.7,1.17C186.09,298.64,181.1,307.12,173.31,324.75Z" transform="translate(-86.05 -53.98)"/><path class="cls-27" d="M158.25,362.15l-.71,2c-2.18,3.16-9.92,2.83-9.91-.11.09-.48.17-1,.25-1.47C149.73,364.46,155.31,364.49,158.25,362.15Z" transform="translate(-86.05 -53.98)"/><path class="cls-28" d="M155.69,252.89c.67,6-1.14,12,.71,17.51.08.57.13,2.81.23,3.42,1.22,7.15,16.35,14.39,29,7.52.07-.88,0-1.81.06-3.45-.23-1.53.43-3.18.42-4.11,0-3.9-1.22-5.89-.64-10.22,1.18-8.81,6.06-17.27,3.36-24.21a7.4,7.4,0,0,0-2.75-3.13c-3-2.39-18.4-10.25-23.07-10.8C149.4,223.66,155,246.33,155.69,252.89Z" transform="translate(-86.05 -53.98)"/><path class="cls-29" d="M177.26,222.71a32.94,32.94,0,0,0,.34,7.41c-4.41-.14-10.55-1.3-11.22-4.58,0-.39.06-.79.08-1.19l-.18-.14c-1.58-1.05-4.2-1.83-5.88-3.75-2.69-3.08-4.12-7.21-2-11.37,3.86-7.59,13.18-7.72,18.37-1.58,1,1.2.27,2.44.85,3.6.11.22.52.32,1,.72.66.55,2.6,5.3,2.55,7.77,0,1-2.32,2.41-3.33,3A2.54,2.54,0,0,1,177.26,222.71Z" transform="translate(-86.05 -53.98)"/><path class="cls-30" d="M177.26,222.71a32.94,32.94,0,0,0,.34,7.41c-4.41-.14-10.55-1.3-11.22-4.58,0-.39.06-.79.08-1.19l-.18-.14c-3.35-3.14,1.13-6.73,6.8-3.64A4.41,4.41,0,0,0,177.26,222.71Z" transform="translate(-86.05 -53.98)"/><path class="cls-31" d="M181.17,219.6c0,.44-1.83,1.1-2.58,1.2.51-4.69-4-5.41-3.28-10,.4-2.75-2.43-3.74-1.32-5.76a13.05,13.05,0,0,1,2.77,2.46c1,1.2.27,2.44.85,3.6.11.22.52.32,1,.72C179.28,212.38,181.28,217.13,181.17,219.6Z" transform="translate(-86.05 -53.98)"/><path class="cls-32" d="M175.09,217.7c-.09-1-.52-1.25-.87-1a2.8,2.8,0,0,0-.61,2.29c.17,1.74,1.79,3.3,2.9,1.9-1.22.64-1.79-.92-1.84-2C174.63,218.15,174.82,217.52,175.09,217.7Z" transform="translate(-86.05 -53.98)"/><path class="cls-33" d="M174.7,218.37c.65.49.94.82.93,1.1s-.16.48-.73.28A2.49,2.49,0,0,1,174.7,218.37Z" transform="translate(-86.05 -53.98)"/><path class="cls-2" d="M166.33,225.42c-1.31.4-2.53,1.75-2.29,2.61,1.3,5.31,11,6.5,17.09,5.22.08,0-2.26-3.11-3.42-3.49C173.9,230.14,167.51,228.56,166.33,225.42Z" transform="translate(-86.05 -53.98)"/><path class="cls-34" d="M165.86,225.09c-1.61-1.72-4.34-2.54-6.1-4.55s-3.62-5-2.46-8.12c-2-6.41,4.92-11.48,10.78-12.64A4.56,4.56,0,0,1,173,206.5a6.14,6.14,0,0,1,1.41,4.68,4.27,4.27,0,0,0,.29,3.42c.47,1.08,1.62,3.7-.47,2-1.34-1.07-2.28,1.29-1.83,2.93a7.38,7.38,0,0,1,.29,3.15C172.26,226.15,166.76,226.05,165.86,225.09Z" transform="translate(-86.05 -53.98)"/><path class="cls-35" d="M159.24,209.52c-1.39-6.2,6.76-9.34,9.95-9.42s5.76,5.24,1.93,7C168.51,208.35,163.35,206,159.24,209.52Z" transform="translate(-86.05 -53.98)"/><path class="cls-36" d="M229.59,221.14c.54-.19,1.58.38,3.42,0a7.6,7.6,0,0,0,4-2.93c1-3.17,2.58-11.56.69-11.08a7.24,7.24,0,0,1-2.46,3.73,10.46,10.46,0,0,1-4.78,1.62l.06,0c2.62-.38,4.41-1.35,3.4-3a7.19,7.19,0,0,1-3.1.85c-3.24.21-4.57,3.06-5.27,5a15.93,15.93,0,0,1-2.66,3.68l2.5,5.22A21,21,0,0,1,229.59,221.14Z" transform="translate(-86.05 -53.98)"/><path class="cls-22" d="M186.67,257.78c1.72-6.22,3.78-12.09,1.81-17.14a7.32,7.32,0,0,0-2.74-3.13,3.39,3.39,0,0,0-5.12.72C175.71,244.68,179.62,254.19,186.67,257.78Z" transform="translate(-86.05 -53.98)"/><path class="cls-37" d="M183.23,236.09c.77-.36,18.66-2.81,21.87-3,1.81-1.95,10-10.29,14.48-12.47a13.32,13.32,0,0,0,2.5-1.16c.55-.5,1.34-1.24,1.64-1.49,1.37.42,3.05,2.34,4.13,4.17-.53.69-1.06,1.43-1.59,2.19-.38.57-.5,2.06-.88,2.65-2.38,3.71-7.94,8.47-11,11.81a13,13,0,0,1-4.44,3.71c-1.34.61-3.06,1.36-4.65,2-3.3,1.32-11.41,4.64-17.24,5.58C177.34,251.82,176.21,239.37,183.23,236.09Z" transform="translate(-86.05 -53.98)"/><path class="cls-38" d="M301.06,223.47c.73-5.52,4.9-7.93,9.33-5.37L349.53,241l-6.16,49.44-4.64,3L303.09,272.6c-4.43-2.57-7.43-9.13-6.71-14.66Z" transform="translate(-86.05 -53.98)"/><path class="cls-2" d="M280.72,441.48l38.76-22.07c4.23-1.93,10.27-3.47,14.58-1.22,3.92,2,10.38,6.21,13.24,7.84,2.17,1.24,9.7,5.75,5,8.3-13.8,7.51-27.46,15.95-41.48,23.57-2.65,1.45-6.52,2-10.59,1.63a28.11,28.11,0,0,1-11.48-3.42l-6.88-4c-3-1.77-4.65-3.86-4.81-5.8S278.13,442.67,280.72,441.48Z" transform="translate(-86.05 -53.98)"/><path class="cls-29" d="M329.51,284.55a2.07,2.07,0,0,1-.46-2.47c.5-.92,2.55-2.08,2.7-2.25s.55-2.74,2.18-2a17.37,17.37,0,0,1-.77,2.91C332.55,281.54,330.42,284.79,329.51,284.55Z" transform="translate(-86.05 -53.98)"/><path class="cls-29" d="M333.17,280.64c-1.67,1.23-4,.8-4.37,2.74a24.26,24.26,0,0,0-.31,2.63,7.22,7.22,0,0,0,3.35,1.78,2.49,2.49,0,0,1,.35-.67c.59-.75,1.39-1.25,3.38-2.24s2.27-1.29,2.75-5.4c.36-3,.53-4.67-.73-5.32C334.65,272.65,334.92,278.2,333.17,280.64Z" transform="translate(-86.05 -53.98)"/><path class="cls-39" d="M331,286.07c-.11.49-.18.95-.25,1.4a5.32,5.32,0,0,0,1.11.32,2.49,2.49,0,0,1,.35-.67c.59-.75,1.39-1.25,3.38-2.24s2.27-1.29,2.75-5.4c.24-2,.4-3.43.09-4.34-.15-.44-.92-.32-1,.32-.34,2.87-.17,5-1.3,7C335.62,283.3,331.39,284.14,331,286.07Z" transform="translate(-86.05 -53.98)"/><path class="cls-39" d="M333.23,280.66c.15.56.88.68.39.84-2.6.81-3.37,1.55-3.59,3.6a7,7,0,0,1,4.35-3.35l1.42.34C334.8,281.48,334.16,281.22,333.23,280.66Z" transform="translate(-86.05 -53.98)"/><path class="cls-40" d="M309,312.08c1-1.3,3.48-2.12,5.11-3.32,2.69-2,5.8-4.76,8.63-6.37,0-2.09,4.15-14.24,5.16-16.52,1.08-.18,3.22.63,4.59,1.52-.93,4.7-.82,10.83-2.1,15a17.22,17.22,0,0,1-.58,3,23.12,23.12,0,0,1-3.43,4.38c-1.9,2-6.21,6.83-9.9,9.48-2.7,1.94-4.15,1.58-5.53.78C307.76,318.08,307,314.67,309,312.08Z" transform="translate(-86.05 -53.98)"/><path class="cls-29" d="M301.81,411.3a18.15,18.15,0,0,1-1.47,6.11c-.41.44-.92.71-1.16,1.22-1.28,2.71-1.56,5.33-.67,19.26l3.27.07.42-4.92c.41-2,1.53-4.91,2-6.72,1-3.94,1.08-5.92,1.69-8.82Z" transform="translate(-86.05 -53.98)"/><path class="cls-41" d="M295,428.09a5,5,0,0,1-1.11-.17c-.17-.18-.49-1.11-.25-1.28C294,426.36,294.84,427.82,295,428.09Z" transform="translate(-86.05 -53.98)"/><path class="cls-42" d="M296.77,422.51c.39,1.25-.17,2.45-.56,3.74-1.37,4.52-2.17,4.78-1.59,6.82a9.15,9.15,0,0,0,2,3.59,11.67,11.67,0,0,0,2.29,2.52c1.72,1.18,3.24,1.74,2.87-.64a11.47,11.47,0,0,0-.56-2.2c-1.21-2.82-2.63-4.06-1.86-7.58.57-2.61,1.47-4.33.3-6.1Z" transform="translate(-86.05 -53.98)"/><path class="cls-43" d="M297,419.7a14.88,14.88,0,0,1-3.45,6.94c.27-.07,1,.64,1.35,1.43,2.83-3.25,4.2-4.83,5.07-3.43a43.47,43.47,0,0,1-.87,4.95,5,5,0,0,0,.09,2.58c1.11,2.67,3.15,6.56,2.37,7.83a4.56,4.56,0,0,0,.58-2.54c0-1.84-.32-4.33-.36-5.87-.05-2.07.73-3.86.86-6.68a23.22,23.22,0,0,0,0-2.36c-.12-2-.33-4.64-1.74-5.39a3.62,3.62,0,0,0-2.46.27A2.94,2.94,0,0,0,297,419.7Z" transform="translate(-86.05 -53.98)"/><path class="cls-44" d="M316.37,384.25l10-28.91.33-7.94a7.38,7.38,0,0,0-1-3.23c-5.26,1.55-8.2,3.22-13.85,3-1.69,2.52-4,7.24-4.1,10.8-.17,6.94.38,11.57-1.75,23.18-6.3,21.22-3,20.48-5.44,34.58-.2,1.51,4.43,2.7,6,1.77Z" transform="translate(-86.05 -53.98)"/><path class="cls-25" d="M316.37,384.25l10-28.91.33-7.94a7.38,7.38,0,0,0-1-3.23c-1.06.31-2,.63-2.94.94l-5.87,9.37c-2.25,4.6-2.82,10.53-4.45,11.9,1.85,4.49,1.05,13.51.39,18.47-1.9-.64-3.64-.9-5.51-1.6,1.28,1.07,3.64,2.13,4.95,3.48a147.55,147.55,0,0,0-4.34,26.17Z" transform="translate(-86.05 -53.98)"/><path class="cls-29" d="M320.26,422.92c-.08,2.22-2.19,4.36-2.43,5.8-.57,3.31,1.83,1.59,4.54,5.84,1.08,0,3.47,3.9,6.71,4.11a1.74,1.74,0,0,0,.6-3c-.65-.38-1.24-.1-1.78-.57-1.12-1-2.44-9.14-2.18-11.48Z" transform="translate(-86.05 -53.98)"/><path class="cls-43" d="M319,426.19c2.62.32,5.07,6.73,7.11,9.52,1,1.36,3.08,0,2.23-.4a21.52,21.52,0,0,1,3.19,0c1.65.26,1.07,1.91-.05,2.69-2.49,1.72-4.71,2.69-7,1.55a11.72,11.72,0,0,1-1.38-.92,8,8,0,0,1-.93-.75c-.73-.88-1-2.29-1.68-3.49-.22-.4-.4-.49-.54-.38-.28.39,0,6.15.14,7.31-.07.33-1.19.59-1.42.34l-2.09-10.25a3.63,3.63,0,0,1,.28-2.62A22.33,22.33,0,0,1,319,426.19Z" transform="translate(-86.05 -53.98)"/><path class="cls-42" d="M325.88,440a4.68,4.68,0,0,1-1.34-.44,11.72,11.72,0,0,1-1.38-.92,8,8,0,0,1-.93-.75c-.79-1-1.18-2.72-2.06-3.93.3-.18,1.06-.16,1.83,1.11,1.16,2.12,1.95,3.69,3.48,4.72A2.19,2.19,0,0,0,325.88,440Z" transform="translate(-86.05 -53.98)"/><path class="cls-45" d="M333.72,378.13a56.62,56.62,0,0,0,.94-17.72c-.19-3.22.15-4.81-.92-7.94a18.83,18.83,0,0,0-1.54-3.22c-5,1.54-8.76,3.07-14.44,2.87a16.21,16.21,0,0,0-1.95,9.45c.91,6.94,3.3,12.62,4.07,24.53-1.95,13.87-.52,23.23-.24,36.67,0,1.5,4.86,2.7,6.29,1.76C328.92,408.78,330.76,393.53,333.72,378.13Z" transform="translate(-86.05 -53.98)"/><path class="cls-46" d="M312.89,313.67c-5.88-.66-5.89,9-3.85,13.58,5.32,11.86,1.88,13.69,2.37,19.1l-.11,2.17c5.05,7.52,19.68,6.94,21.46,1.5-.1-.34-.17-1.76-.3-2.12.35-4.77-1.94-8.52-1.49-11.77.74-5.46,3.71-7.37,2.11-12a26.69,26.69,0,0,0-7.62-6A39.69,39.69,0,0,0,312.89,313.67Z" transform="translate(-86.05 -53.98)"/><path class="cls-29" d="M358.59,295.44c-1.8,1-4,.35-4.65,2.23a22.43,22.43,0,0,0-.6,2.58,7.17,7.17,0,0,0,3.13,2.15,2.47,2.47,0,0,1,.42-.63c.67-.68,1.52-1.08,3.61-1.84s2.4-1,3.34-5.07c.68-2.95,1-4.58-.14-5.36C361,287.66,360.6,293.22,358.59,295.44Z" transform="translate(-86.05 -53.98)"/><path class="cls-39" d="M360.48,298.17c-1.8,1-4.05.55-4.68,2.43-.16.47-.28.92-.4,1.35a5.21,5.21,0,0,0,1.07.45,2.47,2.47,0,0,1,.42-.63c.67-.68,1.52-1.08,3.61-1.84s2.4-1,3.34-5.07c.46-2,.77-3.37.57-4.3-.1-.46-.88-.42-1,.21C362.62,294,362.49,295.94,360.48,298.17Z" transform="translate(-86.05 -53.98)"/><path class="cls-39" d="M363.17,290a13.08,13.08,0,0,1-2.19,4.72c-.42.59-.47,1.11-1.12,1.45-.27.13-.69-.26-1.22-.66.09.57.4,1-.1,1.12-3.31.64-3.67,1.44-4.06,4.73h0c1.24-2.44,2.49-2.4,4.4-3.35l1.15-1A15.94,15.94,0,0,0,363.17,290Z" transform="translate(-86.05 -53.98)"/><path class="cls-47" d="M328.19,320.58c1.32-1,3.9-1.2,5.77-2,3.1-1.27,6.79-3.19,9.93-4.06.48-2,7.51-12.78,9-14.75,1.1.09,3,1.4,4.09,2.59-2.06,4.34-3.45,10.31-5.71,14a16,16,0,0,1-1.29,2.72,22.44,22.44,0,0,1-4.4,3.41c-2.32,1.44-7.69,5.11-11.91,6.77-3.09,1.22-3.19-1.27-4.32-2.39C327.91,323.76,325.57,322.59,328.19,320.58Z" transform="translate(-86.05 -53.98)"/><path class="cls-48" d="M312.89,313.67c-5.88-.66-5.89,9-3.85,13.58,5.32,11.86,1.88,13.69,2.37,19.1l-.11,2.17c5.05,7.52,19.68,6.94,21.46,1.5-.09-.31-.16-1.53-.27-2-5.32,5.09-13,3.75-17.59,1a6.06,6.06,0,0,1,.11-3.71c3.66-3.95,12.72-2.53,14.93-13.37a11.14,11.14,0,0,0-1.87-9.15c-1-1.19-3.28-1.08-4.58-2.89-2.12.5-6.06-.2-6.53-1.06-.17-.3.67-2.95.53-3.28C313.86,314,315,313.91,312.89,313.67Z" transform="translate(-86.05 -53.98)"/><path class="cls-49" d="M315.15,316.88c0,2,7.33,2.4,9.44.82l-.06-.46c-.28-2.95-.67-5.27-.06-7.53,1.2.2,3.91-.29,4.06-.72-8.59-4.07-18-6.35-18.44-3.18,1.21,1.95,3.41,3,4.66,4.17a4.33,4.33,0,0,1,.93,1.77h0A20.62,20.62,0,0,1,315.15,316.88Z" transform="translate(-86.05 -53.98)"/><path class="cls-29" d="M328.5,309c-.53.55-5.3.12-5.65.23-3.41,1-7.18,1.57-8.1.72-1.25-1.16-3.45-2.22-4.66-4.17-1.94-3.1-2.62-7-.16-10.33,4.28-5.87,13.49-4.48,15.92.45,1,2,.43,2.35.87,3.76.81,2.59.88,1.53,1.62,5.76C328.62,307.06,328.85,308.66,328.5,309Z" transform="translate(-86.05 -53.98)"/><path class="cls-50" d="M315.79,313.76c.19,1.75,5.13,3,8.13,2.29.32-.07.52-.13.63-.34a6.49,6.49,0,0,1,1.78,2.84c-2.59,2.5-10.77,1-11.77-1.89A2.2,2.2,0,0,1,315.79,313.76Z" transform="translate(-86.05 -53.98)"/><path class="cls-51" d="M299.64,311.66c-4.08,4.91-5.64,12.43-2.9,15.85,2.47,3.11,7.5,4.11,6.4,6.69-.91,2.13-3.43,4.65.38,6.87,2,1.15,6.81,4.32,15.07.18,8.05-4,15.73-13.16,7.47-19.29-8.69-6.44-4.63-9.26-1.36-16.66,1.72-3.92,2.69-11.1.37-13.15-4-3.51-5.69.08-9.11-.7-6.51-1.48-11.17,1.74-13.33,6.91C300.7,303,302.88,307.75,299.64,311.66Z" transform="translate(-86.05 -53.98)"/><path class="cls-6" d="M306.08,225.67c.25-1.93-.27-3.09.69-4.18a11.15,11.15,0,0,1,3.33-1.89,6.14,6.14,0,0,1,5.31.7l54.93,32.1c4.43,2.56,7.43,9.13,6.71,14.66l-3.77,27.74A8.41,8.41,0,0,1,371,300a9,9,0,0,1-4,2c-1.26.16-1.59-1-3-1.79L309,268.07c-4.43-2.56-7.43-9.13-6.7-14.66Z" transform="translate(-86.05 -53.98)"/><path class="cls-7" d="M304.59,226.55c.73-5.53,4.91-7.94,9.33-5.37l54.93,32.1c4.43,2.57,7.43,9.13,6.71,14.66l-3.77,27.75c-.72,5.52-4.9,7.93-9.33,5.37L307.53,269c-4.43-2.56-7.43-9.13-6.7-14.65Z" transform="translate(-86.05 -53.98)"/><path class="cls-52" d="M304.59,226.55c.73-5.53,4.91-7.94,9.33-5.37l54.93,32.1c4.43,2.57,7.43,9.13,6.71,14.66l-.35,2.6a16,16,0,0,0-1.49-1L304.27,229Z" transform="translate(-86.05 -53.98)"/><path class="cls-9" d="M314.29,243.54c5.59,1.28,9.89,7.94,9.6,14.88s-5.07,11.52-10.67,10.24-9.89-7.94-9.59-14.87S308.69,242.26,314.29,243.54Z" transform="translate(-86.05 -53.98)"/><path class="cls-53" d="M314,249.33c3,.69,5.34,4.28,5.18,8s-2.73,6.22-5.75,5.53-5.33-4.29-5.17-8,2.73-6.21,5.74-5.52Zm-.13,3.18c-1.6-.37-3,.94-3.05,2.93s1.14,3.89,2.74,4.26,3-.95,3.06-2.93S315.51,252.87,313.91,252.51Z" transform="translate(-86.05 -53.98)"/><path class="cls-9" d="M327.24,256.89c.19-1.47,1.31-2.1,2.49-1.39l35.87,20.33a4.32,4.32,0,0,1,1.78,3.95L367,282.7c-.2,1.48-1.31,2.1-2.49,1.4l-35.87-20.34a4.28,4.28,0,0,1-1.78-3.95Z" transform="translate(-86.05 -53.98)"/><path class="cls-9" d="M325.86,267.62c.12-.87.78-1.24,1.47-.82l21.18,12a2.53,2.53,0,0,1,1.06,2.33l-.22,1.72c-.12.87-.78,1.24-1.47.83l-21.18-12a2.54,2.54,0,0,1-1.06-2.33Z" transform="translate(-86.05 -53.98)"/><path class="cls-7" d="M310.59,224.12a3.16,3.16,0,0,1,2.09,3.24c-.07,1.51-1.11,2.51-2.33,2.23a3.16,3.16,0,0,1-2.09-3.24C308.33,224.84,309.37,223.84,310.59,224.12Z" transform="translate(-86.05 -53.98)"/><path class="cls-7" d="M316.14,227.31a3.15,3.15,0,0,1,2.09,3.24c-.06,1.51-1.1,2.51-2.32,2.23a3.15,3.15,0,0,1-2.09-3.24C313.88,228,314.92,227,316.14,227.31Z" transform="translate(-86.05 -53.98)"/><path class="cls-7" d="M322.15,230.81a3.16,3.16,0,0,1,2.09,3.24c-.06,1.51-1.11,2.51-2.32,2.23a3.17,3.17,0,0,1-2.1-3.24C319.89,231.53,320.93,230.53,322.15,230.81Z" transform="translate(-86.05 -53.98)"/><path class="cls-2" d="M409.89,187.71l-.64.13c-9.93,1.91-20.78,10.53-24.56,19.92l2.78,4a25.13,25.13,0,0,1,3.52-6c.25-.33.52-.64.78-1a38.21,38.21,0,0,1,18.85-12.11l.42-.11c5-1.23,11.79-1.31,15,3.3l-2.79-4C420.41,187.79,414.38,187,409.89,187.71Z" transform="translate(-86.05 -53.98)"/><path class="cls-2" d="M431.48,186.87l.26.42.2.39.22.45c.06.13.11.27.17.41l.18.46c.05.14.1.28.14.43l.15.48c0,.14.07.29.11.44s.07.35.11.53.05.3.08.45,0,.37.07.55,0,.3,0,.45,0,.46,0,.69,0,.28,0,.42,0,.52,0,.79c0,.11,0,.23,0,.34,0,.43-.08.87-.14,1.31,0,.11,0,.23-.05.34-.05.34-.12.69-.19,1,0,.16-.06.32-.1.48s-.1.41-.16.61l-.15.57c-.06.2-.13.41-.19.63l-.2.57c-.07.22-.15.43-.23.64s-.15.4-.23.59-.18.44-.27.66-.23.54-.36.82c-.21.44-.43.89-.66,1.34s-.48.89-.73,1.32l2.78,4c.51-.88,1-1.77,1.39-2.67.07-.14.14-.28.2-.43s.11-.26.16-.39.19-.43.28-.65.15-.4.23-.59.15-.43.23-.64.13-.39.19-.58.13-.42.19-.63.11-.38.16-.57.11-.41.15-.61l.07-.25a1.85,1.85,0,0,1,0-.23c.07-.35.13-.69.18-1l.06-.35c.06-.44.1-.87.13-1.3,0,0,0,0,0-.06v-.29c0-.26,0-.53,0-.79s0-.28,0-.41,0-.46,0-.69a1.21,1.21,0,0,0,0-.19c0-.09,0-.18,0-.26s0-.37-.07-.56-.05-.3-.08-.45-.07-.35-.11-.53,0-.16-.05-.23l-.06-.21c0-.16-.09-.32-.14-.48l-.15-.43c-.05-.15-.11-.31-.17-.46a2.6,2.6,0,0,1-.1-.25l-.08-.16c-.07-.15-.14-.3-.22-.45s-.13-.25-.2-.38-.17-.29-.25-.43l-.15-.25-.16-.24-2.79-4C431.28,186.54,431.38,186.7,431.48,186.87Z" transform="translate(-86.05 -53.98)"/><path class="cls-54" d="M415.44,180.79c-14.83,1.26-31.93,13.16-38.19,26.59-.45,1-.83,1.93-1.15,2.86l8.59-2.48c.13-.34.27-.69.44-1,4.42-9.49,16.51-17.9,27-18.79s15.39,6.09,11,15.57c-.17.37-.35.74-.54,1.1l7,.9c.5-.87,1-1.77,1.39-2.66C437.23,189.4,430.28,179.53,415.44,180.79Z" transform="translate(-86.05 -53.98)"/><path class="cls-55" d="M422.72,191.26c-3.59-5.28-13.54-4.55-20.46-1.27-8.56,4.06-15.08,10.71-18.21,17.1,0,0-7.76,2.58-7.95,3.15l8.59-2.48c.13-.34.27-.69.44-1,4.42-9.49,16.51-17.9,27-18.79C417,187.51,420.64,188.81,422.72,191.26Z" transform="translate(-86.05 -53.98)"/><path class="cls-2" d="M429.15,204.67s-6.41-.44-6.6-.08l7,.9c.5-.87,1-1.77,1.39-2.66,3.27-7,2.93-13.08-.27-17.07C435.69,193.63,429.65,203.8,429.15,204.67Z" transform="translate(-86.05 -53.98)"/><path class="cls-2" d="M387.47,211.79s-2.54-3.68-2.78-4c-3.06,7.09-1.66,10,3.09,14.6a6.9,6.9,0,0,1-.55-1,1.3,1.3,0,0,1-.08-.17C385.74,218.27,386.28,214.74,387.47,211.79Z" transform="translate(-86.05 -53.98)"/><path class="cls-2" d="M432.36,209.52l-2.78-4c-6.49,11.18-40.6,31.41-52.53,18.34l2.79,4c2.79,4,8.26,6.22,15.72,5.59.86-.07,1.73-.18,2.6-.33.3,0,.61-.12.91-.18.66-.12,1.29-.24,1.93-.4a44.78,44.78,0,0,0,7.12-2.39l.31-.14a53.87,53.87,0,0,0,22.05-17.59c.17-.24.35-.47.51-.71C431.47,211,431.94,210.25,432.36,209.52Z" transform="translate(-86.05 -53.98)"/><path class="cls-56" d="M422.55,204.59c-4.8,9-16.36,16.84-26.45,17.69s-15-5.57-11.41-14.52l-8.59,2.48c-4.05,11.94,2.92,20.34,16.68,19.17s29.65-11.62,36.8-23.92Z" transform="translate(-86.05 -53.98)"/><path class="cls-2" d="M392.94,228.81c-22.28,1.6-16.84-18.57-16.84-18.57-4.05,11.94,2.92,20.34,16.68,19.17s29.65-11.62,36.8-23.92C429.58,205.49,415.4,227.06,392.94,228.81Z" transform="translate(-86.05 -53.98)"/><path class="cls-57" d="M139.66,167a14.41,14.41,0,0,0-2.46-8.93c-3.21-4.75-8.54-8.38-13.7-10.78-10.7-5-24.84-8.12-27.74,6.41.1-.2.23-.39.34-.58a10.32,10.32,0,0,1,6.92-4.46,20,20,0,0,1,4.56-.49h.47a34.15,34.15,0,0,1,13.38,3.33c5.14,2.39,10.37,6.18,13.57,10.92a21.39,21.39,0,0,1,1.32,2.24,12.14,12.14,0,0,1,1.43,6.23h0Z" transform="translate(-86.05 -53.98)"/><path class="cls-58" d="M103.59,173.13l-.46-.32c-.7-.48-1.39-1-2.07-1.49l-.5-.39c-.81-.62-1.58-1.27-2.33-1.93l-.67-.61-.77-.72-.71-.71-.72-.75-.52-.57c-.39-.44-.78-.89-1.14-1.34l-.45-.55c-.48-.62-1-1.24-1.38-1.88C87.74,155.75,87,150,89.12,145.64l-1.91,3.9c-2.13,4.35-1.38,10.11,2.75,16.23.43.63.9,1.26,1.38,1.88l.44.54c.37.46.76.9,1.15,1.34l.29.34.23.24.72.74c.23.24.47.48.71.71s.51.48.76.72.33.32.51.47l.17.15c.75.66,1.52,1.3,2.33,1.93l.18.15.32.24c.68.51,1.37,1,2.07,1.49l.24.17.22.15h0Z" transform="translate(-86.05 -53.98)"/><path class="cls-59" d="M144.66,158c-8.22-12.16-26.7-21.17-41.28-20.1s-19.73,11.82-11.51,24a42.81,42.81,0,0,0,11.72,11.26l4.51-3.73a30.66,30.66,0,0,1-8.49-8.1c-5.8-8.6-2.16-16.18,8.13-16.94s23.36,5.6,29.17,14.2c2.05,3,2.93,5.94,2.75,8.47l8.89,2.74C148.75,166.24,147.51,162.21,144.66,158Z" transform="translate(-86.05 -53.98)"/><path class="cls-60" d="M144.23,158a17.77,17.77,0,0,1,3.24,10.6c-1.06-.19-4.71-.93-7.81-1.53l8.89,2.74c.2-3.53-1-7.56-3.89-11.78-7.25-10.73-22.49-19-36-20.06C122.06,139.14,137.05,147.34,144.23,158Z" transform="translate(-86.05 -53.98)"/><path class="cls-61" d="M107.74,144.36a24.6,24.6,0,0,1,3.64,0c-1.38-.12-2.74,0-4.07,0-10.82,0-18.22,12.76-.88,25.29,0,0-2.92,3.46-2.84,3.51l4.51-3.73a30.66,30.66,0,0,1-8.49-8.1C93.81,152.7,97.45,145.12,107.74,144.36Z" transform="translate(-86.05 -53.98)"/><path class="cls-62" d="M139.66,167l-1.91,3.9a8.37,8.37,0,0,1-.79,3l1.91-3.9A8.12,8.12,0,0,0,139.66,167Z" transform="translate(-86.05 -53.98)"/><path class="cls-62" d="M145.8,176.64c-2.62,3-6.58,4.48-10.44,5.07l-.62.09c-6.57.85-13.73-.58-19.79-2.85a55.89,55.89,0,0,1-11.36-5.82l-1.91,3.9A56.4,56.4,0,0,0,113,182.85l.25.1c6,2.22,13.06,3.57,19.54,2.75,4.07-.53,8.29-2,11.06-5.17a11,11,0,0,0,1.48-2.16c0-.08.09-.17.13-.25l1.91-3.9A11.85,11.85,0,0,1,145.8,176.64Z" transform="translate(-86.05 -53.98)"/><path class="cls-63" d="M148.55,169.77,139.66,167c-.34,4.64-4.21,8-10.88,8.47s-14.44-2-20.68-6.1l-4.51,3.73c8.9,6,20.06,9.53,29.56,8.84S148.18,176.43,148.55,169.77Z" transform="translate(-86.05 -53.98)"/><path class="cls-64" d="M148.55,169.77s-.41,10.53-15.7,11.75c-14.07,1.13-29.26-8.39-29.26-8.39,8.9,6,20.06,9.53,29.56,8.84S148.18,176.43,148.55,169.77Z" transform="translate(-86.05 -53.98)"/></g></g></svg>