<svg xmlns="http://www.w3.org/2000/svg" xmlns:xlink="http://www.w3.org/1999/xlink" viewBox="0 0 350 358.07"><defs><style>.cls-1{isolation:isolate;}.cls-14,.cls-2{fill:#fff;}.cls-10,.cls-11,.cls-12,.cls-13,.cls-14,.cls-15,.cls-16,.cls-17,.cls-18,.cls-19,.cls-2,.cls-20,.cls-21,.cls-22,.cls-23,.cls-24,.cls-25,.cls-26,.cls-27,.cls-28,.cls-29,.cls-3,.cls-30,.cls-31,.cls-32,.cls-33,.cls-34,.cls-35,.cls-36,.cls-37,.cls-38,.cls-39,.cls-4,.cls-40,.cls-41,.cls-42,.cls-43,.cls-44,.cls-45,.cls-46,.cls-47,.cls-48,.cls-49,.cls-5,.cls-50,.cls-51,.cls-52,.cls-53,.cls-54,.cls-55,.cls-56,.cls-57,.cls-58,.cls-59,.cls-6,.cls-60,.cls-61,.cls-62,.cls-63,.cls-7,.cls-8,.cls-9{fill-rule:evenodd;}.cls-3{fill:#59caaf;}.cls-3,.cls-38{opacity:0.35;}.cls-11,.cls-18,.cls-21,.cls-23,.cls-25,.cls-29,.cls-3,.cls-30,.cls-38,.cls-41{mix-blend-mode:multiply;}.cls-4{fill:url(#linear-gradient);}.cls-5{fill:url(#linear-gradient-2);}.cls-6{fill:#4a9ff8;}.cls-7{fill:#4c68e5;}.cls-8{fill:#3856d8;}.cls-11,.cls-14,.cls-18,.cls-21,.cls-23,.cls-25,.cls-29,.cls-30,.cls-8{opacity:0.5;}.cls-9{fill:#6bb6ff;}.cls-10{fill:aqua;}.cls-11{fill:url(#linear-gradient-3);}.cls-12{fill:#e5edff;}.cls-13{fill:#d1e7ff;}.cls-15{fill:#22d2fb;}.cls-16{fill:#12a3eb;}.cls-17{fill:#1c8df3;}.cls-18{fill:url(#linear-gradient-4);}.cls-19{fill:#d0e7ff;}.cls-20{fill:url(#linear-gradient-5);}.cls-21{fill:url(#linear-gradient-6);}.cls-22{fill:url(#linear-gradient-7);}.cls-23{fill:url(#linear-gradient-8);}.cls-24{fill:url(#linear-gradient-9);}.cls-25{fill:url(#linear-gradient-10);}.cls-26{fill:url(#linear-gradient-11);}.cls-27,.cls-32{fill:#6d6afd;}.cls-27{opacity:0.25;}.cls-28{fill:#4a9ef8;}.cls-29{fill:#4164f3;}.cls-30{fill:url(#linear-gradient-12);}.cls-31{fill:url(#linear-gradient-13);}.cls-32{opacity:0.2;}.cls-33{fill:url(#linear-gradient-14);}.cls-34{fill:#ffa698;}.cls-35{fill:url(#linear-gradient-15);}.cls-36{fill:url(#linear-gradient-16);}.cls-37{fill:url(#linear-gradient-17);}.cls-38{fill:#3469c0;}.cls-39{fill:#193161;}.cls-40{fill:url(#linear-gradient-18);}.cls-41{fill:#1e2353;opacity:0.3;}.cls-42{fill:url(#linear-gradient-19);}.cls-43{fill:url(#linear-gradient-20);}.cls-44{fill:#70b4f5;}.cls-45{fill:url(#linear-gradient-21);}.cls-46{fill:url(#linear-gradient-22);}.cls-47{fill:url(#linear-gradient-23);}.cls-48{fill:url(#linear-gradient-24);}.cls-49{fill:#562e65;}.cls-50{fill:url(#linear-gradient-25);}.cls-51{fill:url(#linear-gradient-26);}.cls-52{fill:#22043d;}.cls-53{fill:url(#linear-gradient-27);}.cls-54{fill:url(#linear-gradient-28);}.cls-55{fill:#161f69;}.cls-56{fill:url(#linear-gradient-29);}.cls-57{fill:url(#linear-gradient-30);}.cls-58{fill:url(#linear-gradient-31);}.cls-59{fill:url(#linear-gradient-32);}.cls-60{fill:url(#linear-gradient-33);}.cls-61{fill:url(#linear-gradient-34);}.cls-62{fill:url(#linear-gradient-35);}.cls-63{fill:#ff8f7f;}</style><linearGradient id="linear-gradient" x1="290.9" y1="177.28" x2="240.81" y2="365.53" gradientUnits="userSpaceOnUse"><stop offset="0" stop-color="#d1e8ff"/><stop offset="1" stop-color="#eaefff"/></linearGradient><linearGradient id="linear-gradient-2" x1="324.45" y1="275.11" x2="151.22" y2="178.83" gradientUnits="userSpaceOnUse"><stop offset="0" stop-color="#6d6afe"/><stop offset="1" stop-color="#3fb0f7"/></linearGradient><linearGradient id="linear-gradient-3" x1="229.35" y1="257.69" x2="254.16" y2="206.44" gradientUnits="userSpaceOnUse"><stop offset="0" stop-color="#965cf2"/><stop offset="1" stop-color="#ff8adc"/></linearGradient><linearGradient id="linear-gradient-4" x1="304.32" y1="289.71" x2="322.48" y2="262.59" xlink:href="#linear-gradient-3"/><linearGradient id="linear-gradient-5" x1="312.06" y1="263.96" x2="300.72" y2="288.67" gradientUnits="userSpaceOnUse"><stop offset="0" stop-color="#fd90da"/><stop offset="1" stop-color="#8e6dfd"/></linearGradient><linearGradient id="linear-gradient-6" x1="263.18" y1="358.51" x2="290.62" y2="311.02" xlink:href="#linear-gradient-3"/><linearGradient id="linear-gradient-7" x1="286.91" y1="366.78" x2="264.07" y2="285.68" gradientUnits="userSpaceOnUse"><stop offset="0" stop-color="#1c8ef4"/><stop offset="1" stop-color="#00cfdd"/></linearGradient><linearGradient id="linear-gradient-8" x1="190.53" y1="260.45" x2="200.72" y2="312.14" gradientUnits="userSpaceOnUse"><stop offset="0" stop-color="#fd70cb"/><stop offset="1" stop-color="#6e4dfd"/></linearGradient><linearGradient id="linear-gradient-9" x1="179.26" y1="302.32" x2="185.28" y2="281.76" xlink:href="#linear-gradient-2"/><linearGradient id="linear-gradient-10" x1="333.83" y1="184.96" x2="349.14" y2="140.83" xlink:href="#linear-gradient-3"/><linearGradient id="linear-gradient-11" x1="364.4" y1="130.83" x2="352.06" y2="178.21" xlink:href="#linear-gradient-2"/><linearGradient id="linear-gradient-12" x1="223.18" y1="162.53" x2="217.72" y2="111.7" xlink:href="#linear-gradient-3"/><linearGradient id="linear-gradient-13" x1="197.29" y1="117.93" x2="199.75" y2="98.07" xlink:href="#linear-gradient-2"/><linearGradient id="linear-gradient-14" x1="169.66" y1="127.93" x2="172.44" y2="115.91" xlink:href="#linear-gradient-2"/><linearGradient id="linear-gradient-15" x1="177.46" y1="221.41" x2="178.16" y2="228.8" gradientUnits="userSpaceOnUse"><stop offset="0" stop-color="#ff8a78"/><stop offset="1" stop-color="#ffa799"/></linearGradient><linearGradient id="linear-gradient-16" x1="178.04" y1="220.9" x2="178.62" y2="226.99" xlink:href="#linear-gradient-15"/><linearGradient id="linear-gradient-17" x1="139.89" y1="207.11" x2="149.63" y2="233.3" xlink:href="#linear-gradient-2"/><linearGradient id="linear-gradient-18" x1="131.14" y1="275.12" x2="115.2" y2="326.63" gradientUnits="userSpaceOnUse"><stop offset="0" stop-color="#235da3"/><stop offset="1" stop-color="#123a76"/></linearGradient><linearGradient id="linear-gradient-19" x1="121.91" y1="278.25" x2="92.34" y2="337.83" xlink:href="#linear-gradient-18"/><linearGradient id="linear-gradient-20" x1="113.11" y1="213.94" x2="122.36" y2="261.35" xlink:href="#linear-gradient-2"/><linearGradient id="linear-gradient-21" x1="107.12" y1="272.82" x2="109.2" y2="269.21" xlink:href="#linear-gradient-15"/><linearGradient id="linear-gradient-22" x1="91.58" y1="223.59" x2="97.06" y2="263.64" xlink:href="#linear-gradient-2"/><linearGradient id="linear-gradient-23" x1="117.9" y1="200.12" x2="115.18" y2="203.18" xlink:href="#linear-gradient-15"/><linearGradient id="linear-gradient-24" x1="127.07" y1="191.14" x2="123.69" y2="199.48" gradientUnits="userSpaceOnUse"><stop offset="0" stop-color="#ffb89e"/><stop offset="1" stop-color="#ffa799"/></linearGradient><linearGradient id="linear-gradient-25" x1="128.75" y1="184.82" x2="126.26" y2="182.43" gradientUnits="userSpaceOnUse"><stop offset="0" stop-color="#8a4791"/><stop offset="1" stop-color="#562e65"/></linearGradient><linearGradient id="linear-gradient-26" x1="393.77" y1="247.29" x2="381.5" y2="270.89" gradientUnits="userSpaceOnUse"><stop offset="0" stop-color="#5a2d68"/><stop offset="1" stop-color="#22043d"/></linearGradient><linearGradient id="linear-gradient-27" x1="327.22" y1="236.72" x2="328.06" y2="236.08" xlink:href="#linear-gradient-15"/><linearGradient id="linear-gradient-28" x1="332.21" y1="255.16" x2="361.95" y2="248.42" xlink:href="#linear-gradient-3"/><linearGradient id="linear-gradient-29" x1="367.53" y1="312.54" x2="395.25" y2="366.61" gradientUnits="userSpaceOnUse"><stop offset="0" stop-color="#3e4795"/><stop offset="1" stop-color="#273088"/></linearGradient><linearGradient id="linear-gradient-30" x1="361.56" y1="323.28" x2="404.11" y2="371.11" xlink:href="#linear-gradient-29"/><linearGradient id="linear-gradient-31" x1="373.18" y1="295.22" x2="379.23" y2="259.41" xlink:href="#linear-gradient-3"/><linearGradient id="linear-gradient-32" x1="389.52" y1="307.5" x2="388.17" y2="305.05" xlink:href="#linear-gradient-15"/><linearGradient id="linear-gradient-33" x1="402.11" y1="290.81" x2="394.95" y2="260.57" xlink:href="#linear-gradient-3"/><linearGradient id="linear-gradient-34" x1="376.91" y1="247.92" x2="377.49" y2="250.82" xlink:href="#linear-gradient-15"/><linearGradient id="linear-gradient-35" x1="366.58" y1="236.6" x2="371.05" y2="243.84" xlink:href="#linear-gradient-24"/></defs><g class="cls-1"><g id="Layer_1" data-name="Layer 1"><path class="cls-2" d="M341.32,376.39l-1.19,2.14-4.28-2.38L337,374l4.28,2.38ZM306.71,102.68l2.83,1.58,1.19-2.14-2.83-1.58-1.19,2.14Zm5,2.77,1.19-2.14,4.28,2.38L316,107.83l-4.28-2.38ZM318.1,109l1.19-2.13,4.28,2.37-1.19,2.14L318.1,109Zm6.41,3.57,1.19-2.14,4.28,2.38L328.79,115l-4.28-2.38Zm6.42,3.57,1.19-2.14,4.28,2.38-1.19,2.14-4.28-2.38Zm6.42,3.57,1.19-2.14,4.28,2.38-1.19,2.14-4.28-2.38Zm6.42,3.57,1.19-2.14,4.28,2.38-1.19,2.14-4.28-2.38Zm6.42,3.57,1.19-2.14,4.28,2.38-1.19,2.14-4.28-2.38Zm6.42,3.57,1.19-2.14,4.28,2.38-1.19,2.14-4.28-2.38ZM363,134l1.19-2.14,4.28,2.38-1.2,2.14L363,134Zm6.41,3.57,1.19-2.14,4.28,2.38L373.72,140l-4.28-2.38Zm6.42,3.57,1.19-2.14,4.28,2.38-1.19,2.14-4.28-2.38Zm6.42,3.57,1.19-2.14,4.28,2.38-1.19,2.14-4.28-2.38Zm6.42,3.57,1.19-2.14,4.28,2.38L393,150.66l-4.28-2.38Zm6.42,3.57,1.19-2.14,4.28,2.38-1.19,2.14-4.28-2.38Zm6.28,3.55a11.76,11.76,0,0,1,3.06,3.19l2-1.36a14.31,14.31,0,0,0-3.68-3.84l-1.41,2Zm4.17,5.16a15.49,15.49,0,0,1,1.29,4.32h0l2.42-.32a17.69,17.69,0,0,0-1.5-5l-2.21,1Zm1.41,6.55a44.37,44.37,0,0,1-.62,4.72l2.42.35a46.36,46.36,0,0,0,.64-5l-2.44-.09Zm-1,7.14,2.42.36-.71,4.84-2.42-.35.71-4.85Zm-1.06,7.27,2.42.35-.71,4.85-2.42-.36.71-4.84Zm-1.07,7.27,2.42.35-.71,4.85-2.42-.36.71-4.84Zm-1.06,7.26,2.42.36-.71,4.84-2.42-.35.71-4.85Zm-1.07,7.27,2.42.36-.71,4.84-2.42-.35.71-4.85Zm-1.06,7.27,2.42.35-.71,4.85-2.42-.36.71-4.84Zm-1.07,7.27,2.43.35-.71,4.85-2.43-.36.71-4.84Zm-1.06,7.26,2.42.36-.71,4.84-2.42-.35.71-4.85Zm-1.07,7.27,2.43.35-.71,4.85-2.43-.36.71-4.84Zm-1.06,7.27,2.42.35-.71,4.85-2.42-.36.71-4.84Zm-1.07,7.26,2.43.36-.71,4.84-2.43-.35.71-4.85Zm-1.06,7.27,2.42.36-.71,4.84-2.42-.35.71-4.85Zm-1.06,7.27,2.42.35-.71,4.85-2.42-.36.71-4.84Zm-1.07,7.27,2.42.35-.71,4.85-2.42-.36.71-4.84ZM391.1,276l2.42.36-.71,4.84-2.42-.35.71-4.85ZM390,283.26l2.42.35-.71,4.85-2.42-.36.71-4.84ZM389,290.53l2.42.35-.71,4.85-2.42-.36.71-4.84Zm-1.07,7.26,2.42.36-.71,4.84-2.42-.35.71-4.85Zm-1.06,7.27,2.42.35-.71,4.85-2.42-.36.71-4.84Zm-1.07,7.27,2.42.35-.7,4.85-2.43-.36.71-4.84Zm-1.06,7.26,2.42.36-.71,4.84-2.42-.35.71-4.85Zm-1.07,7.27,2.43.35-.71,4.85-2.43-.36.71-4.84Zm-1.06,7.27,2.42.35-.71,4.84-2.42-.35.71-4.84Zm-1.07,7.26,2.43.36-.71,4.84-2.43-.35.71-4.85Zm-1.06,7.27,2.42.35-.71,4.85-2.42-.36.71-4.84Zm-1.06,7.27,2.42.35-.71,4.84-2.42-.35.71-4.84Zm-1.07,7.26,2.42.36-.71,4.84-2.42-.35.71-4.85Zm-1.06,7.27,2.42.35-.71,4.85-2.42-.36.71-4.84Zm-1.07,7.26,2.42.36-.71,4.84-2.42-.35.71-4.85ZM375.13,385l2.42.36-.16,1.12a10.55,10.55,0,0,1-1.39,4l-2.08-1.29a8.11,8.11,0,0,0,1-3.07l.17-1.12Zm-2.53,5.66a4.48,4.48,0,0,1-3.67.75l-.5,2.4a6.9,6.9,0,0,0,5.62-1.18l-1.45-2Zm-5.61,0-1.18,2.14-4.28-2.38,1.19-2.14,4.27,2.38Zm-6.41-3.57-1.19,2.14-4.28-2.38,1.19-2.14,4.28,2.38Zm-6.42-3.57L353,385.67l-4.28-2.38,1.19-2.14,4.28,2.38ZM347.74,380l-1.19,2.14-4.28-2.38,1.19-2.14Z" transform="translate(-76.03 -79.35)"/><path class="cls-2" d="M162.93,106.41l1-1.87,3.73,2.07-1,1.87-3.73-2.07Zm5.5,174.65-2.81-1.56-1,1.87,2.81,1.56,1-1.87Zm-4.68-2.6-1,1.87L159,278.25l1-1.86,3.73,2.07Zm-5.59-3.11-1,1.87-3.73-2.08,1-1.87,3.73,2.08Zm-5.6-3.11-1,1.86L147.79,272l1-1.87,3.73,2.08Zm-5.6-3.12-1,1.87-3.73-2.08,1-1.86,3.73,2.07ZM141.37,266l-1,1.87-3.73-2.08,1-1.86,3.74,2.07Zm-5.6-3.11-1,1.86-1.92-1.06a9.34,9.34,0,0,1-1.88-1.43l1.5-1.52a6.2,6.2,0,0,0,1.42,1.08l1.92,1.07Zm-4.52-3.62a10.24,10.24,0,0,1-1.42-3.57l-2.09.39a12.07,12.07,0,0,0,1.71,4.32l1.8-1.14Zm-1.57-5.46c.06-1.35.37-2.81.56-4.11l-2.11-.31a40.15,40.15,0,0,0-.58,4.34l2.13.08Zm.87-6.23-2.11-.3.62-4.23,2.11.31-.62,4.22Zm.93-6.33-2.11-.31.62-4.23,2.11.31-.62,4.23Zm.93-6.34-2.11-.31.61-4.22,2.12.31-.62,4.22Zm.93-6.34-2.12-.31.62-4.22,2.12.31-.62,4.22Zm.92-6.33-2.11-.31.62-4.23,2.11.31-.62,4.23Zm.93-6.34-2.11-.31.62-4.23,2.11.31-.62,4.23Zm.93-6.34-2.11-.31.62-4.22,2.11.31-.62,4.22Zm.93-6.34-2.11-.3.62-4.23,2.11.31-.62,4.22Zm.93-6.33-2.11-.31.62-4.23,2.11.31L138,196.9Zm.93-6.34-2.12-.31.62-4.22,2.12.31-.62,4.22Zm.93-6.34-2.12-.31.62-4.22,2.11.31-.61,4.22Zm.92-6.33-2.11-.31.62-4.23,2.11.31-.62,4.23Zm.93-6.34-2.11-.31.62-4.22,2.11.31-.62,4.22Zm.93-6.34-2.11-.31.62-4.22,2.11.31-.62,4.22Zm.93-6.33-2.11-.31.61-4.23,2.12.31-.62,4.23Zm.93-6.34-2.12-.31L143,148l2.11.31-.61,4.23Zm.92-6.34-2.11-.31.62-4.22L146,142l-.62,4.22Zm.93-6.33-2.11-.31.62-4.23,2.11.31-.62,4.23Zm.93-6.34-2.11-.31.62-4.23,2.11.31-.62,4.23Zm.93-6.34-2.11-.31.61-4.22,2.12.31-.62,4.22Zm.93-6.34-2.12-.31.62-4.22,2.12.31-.62,4.22Zm.92-6.33-2.11-.31.62-4.23,2.11.31-.62,4.23Zm.93-6.34-2.11-.31a19.43,19.43,0,0,1,.89-4.44l2,.83a18.19,18.19,0,0,0-.75,3.92Zm1.69-5.27a2.87,2.87,0,0,1,2.94-.5l.7-2a5,5,0,0,0-5.06.91l1.42,1.6Zm4.68.38,1-1.86,3.74,2.07-1,1.87Z" transform="translate(-76.03 -79.35)"/><path class="cls-3" d="M329,401.26,199.69,329.77c-3.18-1.45-7.84-2.82-10.95-.92l-8,4.85c-1.6,1-6.87,4.21-3.34,6.13,10.36,5.64,120.37,67,130.9,72.72a14.73,14.73,0,0,0,8,1.22,20,20,0,0,0,8.62-2.57l3.18-2c2.25-1.39,3.5-2.9,3.62-4.35S330.91,402.15,329,401.26Z" transform="translate(-76.03 -79.35)"/><path class="cls-4" d="M232,80.43a7.15,7.15,0,0,0-6.09-.68l-4.58,1.79c-1.66,8.6,94.76,323.8,96.88,326l4.09-1.54c2.68-1.06,4.08-3.85,4.48-6.56l34.48-235.38v0a16.83,16.83,0,0,0-2.8-11.38,13.07,13.07,0,0,0-4.61-4.44Z" transform="translate(-76.03 -79.35)"/><path class="cls-5" d="M349.33,149.94,227.48,82.17c-5-2.75-9.7-.11-10.58,5.89L182.42,323.44c-.88,6,2.43,13.09,7.39,15.84L311.66,407c5,2.76,9.71.12,10.59-5.87l34.48-235.38C357.61,159.8,354.3,152.69,349.33,149.94Z" transform="translate(-76.03 -79.35)"/><path class="cls-6" d="M349.33,149.94,227.48,82.17c-5-2.75-9.7-.11-10.58,5.89l-1.76,12L355,177.87l1.77-12.08C357.61,159.8,354.3,152.69,349.33,149.94Z" transform="translate(-76.03 -79.35)"/><path class="cls-7" d="M226.45,98.87a6.77,6.77,0,0,1-2.09-6c.41-2,2-2.62,3.58-1.32a6.78,6.78,0,0,1,2.1,6C229.63,99.57,228,100.16,226.45,98.87Z" transform="translate(-76.03 -79.35)"/><path class="cls-7" d="M236.42,104.92a6.78,6.78,0,0,1-2.1-6c.41-2,2-2.61,3.59-1.32a6.77,6.77,0,0,1,2.09,6C239.59,105.63,238,106.22,236.42,104.92Z" transform="translate(-76.03 -79.35)"/><path class="cls-7" d="M246.38,111a6.79,6.79,0,0,1-2.09-6c.41-2,2-2.61,3.58-1.32a6.81,6.81,0,0,1,2.1,6C249.56,111.68,248,112.27,246.38,111Z" transform="translate(-76.03 -79.35)"/><path class="cls-8" d="M342,207a.76.76,0,0,0-1.15.65,1.84,1.84,0,0,0,.8,1.75.77.77,0,0,0,1.18-.65A1.85,1.85,0,0,0,342,207ZM203.41,239l.94.53,10-68-.94-.52-10,67.95Zm10.91-71.08c-.53-.29-1.06,0-1.16.67a1.82,1.82,0,0,0,.81,1.74.76.76,0,0,0,1.18-.64,1.84,1.84,0,0,0-.83-1.77Zm4,82.88,1,.53,9.95-68-.94-.53-10,68Zm10.92-71.08c-.54-.3-1.07,0-1.17.66a1.85,1.85,0,0,0,.82,1.74.76.76,0,0,0,1.17-.64,1.82,1.82,0,0,0-.82-1.76Zm6.88,63.41.95.52,10-68-1-.53-9.95,68Zm10.93-71.08c-.55-.31-1.07,0-1.17.65a1.84,1.84,0,0,0,.82,1.76.76.76,0,0,0,1.16-.66,1.82,1.82,0,0,0-.81-1.75ZM254,235.46l.93.52,10-68-.92-.51-10,68Zm10.91-71.09c-.55-.3-1.06,0-1.16.68a1.83,1.83,0,0,0,.81,1.73.75.75,0,0,0,1.16-.64,1.82,1.82,0,0,0-.81-1.77Zm5,76.39.95.52,9.95-68-.94-.52-10,68Zm10.92-71.08c-.54-.3-1.07,0-1.17.66a1.86,1.86,0,0,0,.82,1.75.76.76,0,0,0,1.17-.65,1.84,1.84,0,0,0-.82-1.76Zm3.55,86.12.95.53,10-68-.95-.53-10,68Zm10.92-71.08c-.53-.29-1.06,0-1.16.67a1.86,1.86,0,0,0,.81,1.73.75.75,0,0,0,1.17-.63,1.82,1.82,0,0,0-.82-1.77Zm3.08,89.36.95.52,10-68-.94-.52-10,68ZM309.26,203a.77.77,0,0,0-1.18.65,1.84,1.84,0,0,0,.83,1.75.75.75,0,0,0,1.16-.64,1.84,1.84,0,0,0-.81-1.76Zm4,82.78.93.52,10-68-.93-.52-10,68Zm10.92-71.08c-.55-.3-1.06,0-1.16.65a1.82,1.82,0,0,0,.8,1.75.77.77,0,0,0,1.18-.66,1.82,1.82,0,0,0-.82-1.74Zm6.87,63.4,1,.53,9.95-68-.95-.53Z" transform="translate(-76.03 -79.35)"/><path class="cls-8" d="M347.94,213.73a1.59,1.59,0,0,0-.62-.66.83.83,0,0,0-.91,0c-2.31,1.78-4.43,3.32-6.41,4.65s-3.79,2.45-5.5,3.4c-7.93,4.33-13.68,4.64-19.33,1.5s-10.88-9.91-17.85-19.37c-7.79-10.58-14.67-17.75-21.6-21.59a31,31,0,0,0-3.08-1.49c-8-3.29-16.1-2.14-25.83,3.32-1,.54-2,1.12-2.95,1.68-7.48,4.33-14.49,8.38-22.05,4.19-3.94-2.18-8-6.59-12.4-14.36a1.63,1.63,0,0,0-.62-.65.81.81,0,0,0-.91,0,1.59,1.59,0,0,0-.11,1.9c4.89,8.68,9.41,13.58,13.74,16,8.15,4.52,15.63.18,23.61-4.44l2.95-1.66c9.27-5.22,17-6.34,24.44-3.27a27.13,27.13,0,0,1,2.78,1.34c6.53,3.62,13.13,10.51,20.66,20.73,7.24,9.78,12.79,16.77,18.8,20.24l.35.19c5.95,3.31,12.19,3,20.62-1.56q2.63-1.43,5.64-3.47c2-1.38,4.16-2.94,6.48-4.72A1.55,1.55,0,0,0,347.94,213.73Z" transform="translate(-76.03 -79.35)"/><path class="cls-9" d="M346.64,208.74a1.59,1.59,0,0,0-.62-.66.83.83,0,0,0-.91,0c-2.31,1.82-4.43,3.39-6.41,4.75s-3.79,2.5-5.5,3.48c-7.93,4.44-13.68,4.82-19.33,1.76S303,208.33,296,199c-7.79-10.47-14.67-17.54-21.61-21.29a29.28,29.28,0,0,0-3.07-1.44c-8-3.18-16.1-1.92-25.83,3.67-1,.56-2,1.15-2.95,1.73-7.48,4.43-14.49,8.58-22.05,4.5-3.94-2.13-8-6.48-12.4-14.19a1.6,1.6,0,0,0-.62-.64.8.8,0,0,0-.91,0,1.57,1.57,0,0,0-.11,1.89c4.89,8.62,9.41,13.45,13.74,15.79,8.15,4.41,15.63,0,23.61-4.77,1-.56,2-1.14,3-1.7,9.27-5.35,17-6.58,24.44-3.61a26.68,26.68,0,0,1,2.78,1.3c6.53,3.53,13.13,10.32,20.66,20.44,7.24,9.68,12.79,16.59,18.8,20l.35.19c5.95,3.22,12.19,2.85,20.62-1.86,1.75-1,3.63-2.16,5.64-3.55s4.16-3,6.48-4.81A1.54,1.54,0,0,0,346.64,208.74Z" transform="translate(-76.03 -79.35)"/><path class="cls-10" d="M345.11,208.1a99.29,99.29,0,0,1-11.91,8.23c-7.93,4.44-13.68,4.82-19.33,1.76S303,208.33,296,199c-6.17-8.29-14.76-18.79-24.68-22.73-10.64-4.24-19.56-.05-28.78,5.4-7.48,4.43-14.49,8.58-22.05,4.5-3.94-2.13-8-6.48-12.4-14.19a1.6,1.6,0,0,0-.62-.64c1.24,3.19,6.81,12.65,12.19,15.56,8.16,4.41,15.17.54,23.15-4.18,8.9-5.07,18.1-9.63,28.38-5.55,9.34,3.73,18.33,14.63,24.14,22.44,7.24,9.69,12.44,16.3,18.45,19.69a14.94,14.94,0,0,0,13.62,1C332,218.55,342.76,211.79,345.11,208.1Z" transform="translate(-76.03 -79.35)"/><path class="cls-11" d="M274.24,225.22l-71.62-39.69-10,68.48,72.32,40.08c5.06,2.8,9.9.11,10.79-6l6.09-46.71C282.69,235.27,279.31,228,274.24,225.22Z" transform="translate(-76.03 -79.35)"/><path class="cls-12" d="M272.94,239.71,266,286.94l.83.1,2.28-.88c2.49-1,3.8-3.59,4.17-6.11l5.56-42.64v0a15.62,15.62,0,0,0-2.61-10.61,12.21,12.21,0,0,0-4.29-4.13l-91.22-50.57a6.69,6.69,0,0,0-5.68-.63l-2,.78c-1,.38-1.32.68-1.32.75C172.66,181.81,274.27,230.65,272.94,239.71Z" transform="translate(-76.03 -79.35)"/><path class="cls-13" d="M269.64,223.55,178.41,173a6.6,6.6,0,0,0-5.67-.63c-2.12.83-3.71,3-4.17,6.11L163,221.1c-.82,5.58,2.26,12.19,6.88,14.76l91.23,50.56c4.62,2.57,9,.11,9.85-5.47l5.56-42.64C277.35,232.73,274.26,226.11,269.64,223.55Z" transform="translate(-76.03 -79.35)"/><path class="cls-14" d="M271.34,241.33l-52-28.59a1.61,1.61,0,0,0-1.35-.15,1.75,1.75,0,0,0-1,1.47l-.35,2.1a3.67,3.67,0,0,0,1.65,3.52l52,28.59a1.53,1.53,0,0,0,2.36-1.31l.34-2.1A3.68,3.68,0,0,0,271.34,241.33Z" transform="translate(-76.03 -79.35)"/><path class="cls-14" d="M269.45,254.2l-52-28.59a1.54,1.54,0,0,0-1.35-.15,1.74,1.74,0,0,0-1,1.46l-.35,2.1a3.66,3.66,0,0,0,1.65,3.53l52,28.58a1.52,1.52,0,0,0,2.35-1.3l.35-2.11A3.66,3.66,0,0,0,269.45,254.2Z" transform="translate(-76.03 -79.35)"/><path class="cls-14" d="M236.28,249.48l-20.67-11a1.61,1.61,0,0,0-1.36-.16,1.75,1.75,0,0,0-1,1.47l-.34,2.1a3.67,3.67,0,0,0,1.64,3.52l20.67,11a1.53,1.53,0,0,0,2.36-1.3l.34-2.11A3.67,3.67,0,0,0,236.28,249.48Z" transform="translate(-76.03 -79.35)"/><path class="cls-15" d="M170,199.56c-1.6,14.39,6.38,32,17.85,39.23s22.46-2.09,23.66-12.92-.82-15.34-4.09-22.48l-6,3.28c2.13,4.59,3.44,7.53,2.66,14.49s-7.84,13-15.21,8.3-12.49-16-11.46-25.2Z" transform="translate(-76.03 -79.35)"/><path class="cls-16" d="M178.17,185c-4.29,2.32-7.35,7.37-8.15,14.58l7.42,4.7c.52-4.62,2.47-7.87,5.23-9.37C181.16,191.59,179.66,188.3,178.17,185Z" transform="translate(-76.03 -79.35)"/><path class="cls-17" d="M193.69,186.63c-5.74-3.64-11.25-4-15.52-1.67q2.24,5,4.5,9.93c2.76-1.49,6.3-1.27,10,1.06a25.33,25.33,0,0,1,8.88,10.88c2-1.07,4-2.15,6-3.26C204.29,196.47,199.43,190.26,193.69,186.63Z" transform="translate(-76.03 -79.35)"/><path class="cls-18" d="M305.18,304.69c-10.51-8.38-16.79-25.79-14-38.89s13.5-16.93,24-8.55,16.79,25.79,14,38.89S315.69,313.06,305.18,304.69Z" transform="translate(-76.03 -79.35)"/><path class="cls-19" d="M293.48,256.42c1.91-2,6.7-3.13,9.39-3.28,3.14-.17,6.64,1.11,10.1,4,9.11,7.51,14.56,23.11,12.17,34.85a16.75,16.75,0,0,1-3.77,8.19c-1.67,1.79-7,4-9.51,4.24C297,306.45,287.86,262.28,293.48,256.42Z" transform="translate(-76.03 -79.35)"/><path class="cls-20" d="M300.71,300.53c-9.11-7.51-14.56-23.11-12.17-34.85s11.71-15.17,20.82-7.66,14.55,23.11,12.17,34.84S309.82,308,300.71,300.53Z" transform="translate(-76.03 -79.35)"/><polygon class="cls-2" points="238.08 192.53 240.56 194.3 222.64 211.5 215.9 193.79 219.21 195.69 223.62 201.95 238.08 192.53"/><path class="cls-21" d="M336.33,339.84,228.16,280a6.46,6.46,0,0,0-5.51-.62c-2.06.81-3.6,2.9-4.05,5.94l-7.5,53.18c-.79,5.41,2.19,11.83,6.68,14.31l99.54,55.11c1.09-.41,6.36-1.34,6.65-2.9Z" transform="translate(-76.03 -79.35)"/><path class="cls-19" d="M343.45,355.62l-8.45,55,.77.09,2.11-.82.31-.13h0c2.32-.91,3.53-3.32,3.87-5.66l7.16-50.74v0a14.5,14.5,0,0,0-2.42-9.82,11.37,11.37,0,0,0-4-3.83L233.6,279.18a6.16,6.16,0,0,0-5.25-.58l-1.86.72-.51.21c-.8.33-1.06.58-1,.63C225.8,288.34,344.68,347.23,343.45,355.62Z" transform="translate(-76.03 -79.35)"/><path class="cls-22" d="M340.39,340.65,231.14,280.17a6.14,6.14,0,0,0-5.26-.59c-2,.77-3.44,2.76-3.87,5.66L214.86,336c-.76,5.17,2.09,11.29,6.37,13.67l109.26,60.48c4.28,2.37,8.37.1,9.13-5.07l7.16-50.74C347.53,349.15,344.67,343,340.39,340.65Z" transform="translate(-76.03 -79.35)"/><path class="cls-19" d="M221.15,318.47c1.23-7.17,4-9.59,7.58-8.59a7.15,7.15,0,0,1,1.69.72c3.49,2,7.06,7.2,7.6,15.87.35,5.49,1.4,10.52,6,13.14,12.09,6.47,7.73-31.83,19.17-25.3,9.86,5.63,4,26,7.8,38.86,1.33,4.47,3.73,6.57,5.39,7.52,7,3.71,7.73-8,8.64-13,4.19-22.82,6.85-24.07,11.1-21.65,4.43,2.57,6.41,4.32,5.59,28.15-.34,9.75,0,18.48,6.85,22.59,7.66,4.37,8.33-4.59,11.73-8.95,2-2.59,4.65-3.12,7-1.75,2.59,1.47,4.91,5.17,5.92,10.86,1.69,9.56.92,22.78.41,27.4L218.4,339.11C219.4,332.12,220.08,324.66,221.15,318.47Z" transform="translate(-76.03 -79.35)"/><path class="cls-23" d="M208.48,278l-17.93-9.84-7.76,53,18.13,10c5.05,2.8,9.87.12,10.77-6l4.32-31C216.9,288,213.53,280.75,208.48,278Z" transform="translate(-76.03 -79.35)"/><path class="cls-19" d="M207.3,292.25l-5.36,33,.84.1,2.27-.89c2.5-1,3.81-3.58,4.18-6.1l4-28.43v0a15.64,15.64,0,0,0-2.61-10.6,12.32,12.32,0,0,0-4.29-4.14L171.34,256a6.66,6.66,0,0,0-5.68-.64l-2,.79c-1,.38-1.32.68-1.32.74C163.29,265.73,208.62,283.2,207.3,292.25Z" transform="translate(-76.03 -79.35)"/><path class="cls-2" d="M204,276.1l-35-19.19a6.64,6.64,0,0,0-5.67-.64c-2.12.83-3.71,3-4.17,6.12l-4,28.42c-.81,5.58,2.26,12.19,6.89,14.75l34.95,19.19c4.63,2.56,9,.11,9.86-5.47l4-28.43C211.71,285.28,208.62,278.66,204,276.1Z" transform="translate(-76.03 -79.35)"/><path class="cls-24" d="M197.88,286.44c-.35,2.42-2.25,3.51-4.25,2.4a6.65,6.65,0,0,1-3-6.42c.35-2.4,2.24-3.45,4.27-2.32a6.61,6.61,0,0,1,3,6.34Zm-11,21.5c.35-2.42,2.24-3.47,4.28-2.34a6.6,6.6,0,0,1,3,6.36c-.35,2.41-2.25,3.51-4.25,2.4a6.65,6.65,0,0,1-3-6.42Zm-12.51-20.69c-.35,2.4-2.27,3.43-4.27,2.32a6.61,6.61,0,0,1-3-6.34c.35-2.42,2.26-3.51,4.25-2.4a6.71,6.71,0,0,1,3,6.42Zm21-10.23c-3.4-1.89-6.67-.13-7.27,4v.31l-11.87,1.87a10,10,0,0,0-4.37-5.4c-3.4-1.89-6.62-.08-7.23,4s1.65,8.94,5.06,10.83a4.43,4.43,0,0,0,5.18-.15l9.57,13.81-.07.22c-.6,4.11,1.7,9,5.1,10.85s6.62.1,7.23-4-1.68-9-5.05-10.84c-2.42-1.34-4.74-.83-6.12,1l-9.07-13.21a5.24,5.24,0,0,0,.47-1.68,8,8,0,0,0,.07-2l11.28-1.93a11,11,0,0,0,4.93,7.13c3.36,1.87,6.62.08,7.23-4S198.73,278.89,195.36,277Z" transform="translate(-76.03 -79.35)"/><path class="cls-25" d="M366.17,153.6,326.8,133.16l-4.11,2-5.77,41.93c-.85,5.83,2.36,12.74,7.19,15.42L350.68,207l4.52-1.75Z" transform="translate(-76.03 -79.35)"/><path class="cls-19" d="M390.1,148.15l-10.2,67.62.87.11,2.38-.92c2.6-1,4-3.75,4.36-6.39l8.75-62.83v0a16.34,16.34,0,0,0-2.73-11.08,12.84,12.84,0,0,0-4.48-4.31l-46.49-25.47a7,7,0,0,0-5.93-.67l-2.1.82c-1,.4-1.38.72-1.37.78C334.15,115,391.49,138.69,390.1,148.15Z" transform="translate(-76.03 -79.35)"/><path class="cls-2" d="M386.65,131.27,340.16,105.8a6.89,6.89,0,0,0-5.92-.66c-2.23.86-3.89,3.11-4.37,6.38l-8.75,62.83c-.85,5.83,2.36,12.74,7.19,15.42l46.5,25.46c4.83,2.68,9.44.12,10.3-5.71l8.75-62.83C394.71,140.86,391.49,134,386.65,131.27Z" transform="translate(-76.03 -79.35)"/><path class="cls-26" d="M386.65,131.27,340.16,105.8a6.89,6.89,0,0,0-5.92-.66c-2.23.86-3.89,3.11-4.37,6.38l-7,50,64,35.06,7-49.92C394.71,140.86,391.49,134,386.65,131.27Z" transform="translate(-76.03 -79.35)"/><path class="cls-27" d="M328,170c.15-1.17,1-1.68,2-1.15l21,11.42a3.3,3.3,0,0,1,1.4,3.08l-.31,2.31c-.16,1.17-1,1.68-2,1.15l-21.05-11.42a3.28,3.28,0,0,1-1.39-3.08Z" transform="translate(-76.03 -79.35)"/><path class="cls-27" d="M326.64,180.09c.14-1,.91-1.49,1.73-1,11.93,6.47,31.49,17,43.42,23.5A2.91,2.91,0,0,1,373,205.3l-.27,2c-.14,1-.91,1.48-1.73,1-11.93-6.47-31.49-17-43.42-23.5a2.91,2.91,0,0,1-1.22-2.72Z" transform="translate(-76.03 -79.35)"/><path class="cls-28" d="M379.43,144.63,374,185.18l10.4,5.85,5.44-40.54-10.4-5.86Zm-29.59-29.92L342.55,169l10.39,5.86,7.3-54.28-10.4-5.85Zm14.34,18.07,10.4,5.86-6,45-10.4-5.85,6-45Zm-31.79-13.13,10.4,5.86-5.44,40.54L327,160.19Z" transform="translate(-76.03 -79.35)"/><path class="cls-29" d="M330.16,135.54a.69.69,0,0,1,.19-1,.94.94,0,0,1,1.2,0l9.35,9.37,4.88,1.86,11.39-3,7.72-7.91a1,1,0,0,1,1.22-.21.61.61,0,0,1,.16.16l13.56,16.06,9.33,1.74c.47-.05.83.24.79.65a1,1,0,0,1-.92.81l-9.75-1.7a.74.74,0,0,1-.69-.23l-13.24-15.67-7.16,7.32h0a1.23,1.23,0,0,1-.51.3l-12,3.2a.92.92,0,0,1-.57,0l-5.22-2a.64.64,0,0,1-.29-.16Z" transform="translate(-76.03 -79.35)"/><path class="cls-2" d="M330.13,135.75a.91.91,0,0,1,.22-1.22.84.84,0,0,1,1.2,0l9.11,11.12,4.83,2.26,11.44-3.45,7.89-9.2A.91.91,0,0,1,366,135a.61.61,0,0,1,.17.19l12.42,18.51,10.64-1.12a.68.68,0,0,1,.78.76,1.1,1.1,0,0,1-.94.95L378,155.46a.68.68,0,0,1-.68-.28l-12.12-18.06-7.31,8.53h0a1.1,1.1,0,0,1-.52.34l-12.06,3.63a.85.85,0,0,1-.57,0l-5.17-2.42a.61.61,0,0,1-.28-.19Z" transform="translate(-76.03 -79.35)"/><path class="cls-30" d="M212.52,113.15l19.68,9c4.7,2.72,6.11,11.51,5.34,17.38l-4,29.46c-.77,5.86-5.21,8.42-9.91,5.7L205.8,163.91l.7-4.88Z" transform="translate(-76.03 -79.35)"/><path class="cls-19" d="M163,91.47c.26-2-.27-3.17.71-4.29a11.54,11.54,0,0,1,3.41-1.93,6.32,6.32,0,0,1,5.44.71l56.26,32.89c4.54,2.62,7.61,9.35,6.87,15l-3.86,28.42c-.23,1.75-.88,4-2.38,5.31a9.25,9.25,0,0,1-4.1,2c-1.29.16-1.63-1-3.07-1.84L166,134.9c-4.53-2.63-7.61-9.35-6.86-15Z" transform="translate(-76.03 -79.35)"/><path class="cls-2" d="M161.5,92.37c.74-5.66,5-8.13,9.56-5.5l56.26,32.88c4.53,2.63,7.61,9.35,6.87,15l-3.86,28.42c-.74,5.66-5,8.13-9.56,5.5L164.51,135.8c-4.54-2.63-7.61-9.35-6.87-15Z" transform="translate(-76.03 -79.35)"/><path class="cls-31" d="M161.5,92.37c.74-5.66,5-8.13,9.56-5.5l56.26,32.88c4.53,2.63,7.61,9.35,6.87,15l-.37,2.67a14.71,14.71,0,0,0-1.51-1L161.16,94.83Z" transform="translate(-76.03 -79.35)"/><path class="cls-32" d="M171.43,109.77c5.73,1.31,10.13,8.14,9.83,15.24s-5.19,11.81-10.92,10.49-10.13-8.13-9.83-15.24S165.7,108.46,171.43,109.77Z" transform="translate(-76.03 -79.35)"/><path class="cls-33" d="M171.18,115.7c3.09.71,5.46,4.39,5.3,8.22s-2.8,6.36-5.89,5.66-5.46-4.39-5.3-8.22,2.8-6.36,5.89-5.66ZM171,119c-1.64-.37-3,1-3.13,3s1.18,4,2.82,4.36,3-1,3.13-3S172.68,119.33,171,119Z" transform="translate(-76.03 -79.35)"/><path class="cls-32" d="M184.7,123.45c.19-1.51,1.33-2.15,2.54-1.43L224,142.85a4.37,4.37,0,0,1,1.83,4l-.38,3c-.2,1.51-1.34,2.15-2.55,1.43l-36.74-20.83a4.37,4.37,0,0,1-1.83-4Z" transform="translate(-76.03 -79.35)"/><path class="cls-32" d="M183.29,134.44c.11-.89.79-1.27,1.5-.85l21.69,12.31a2.55,2.55,0,0,1,1.08,2.38l-.22,1.77c-.12.89-.79,1.27-1.51.84l-21.69-12.3a2.57,2.57,0,0,1-1.08-2.39Z" transform="translate(-76.03 -79.35)"/><path class="cls-2" d="M167.64,89.88a3.22,3.22,0,0,1,2.14,3.32c-.07,1.55-1.13,2.57-2.38,2.29a3.24,3.24,0,0,1-2.14-3.33C165.32,90.61,166.39,89.59,167.64,89.88Z" transform="translate(-76.03 -79.35)"/><path class="cls-2" d="M173.33,93.14a3.26,3.26,0,0,1,2.14,3.32c-.07,1.55-1.13,2.58-2.38,2.29a3.24,3.24,0,0,1-2.15-3.32C171,93.88,172.08,92.86,173.33,93.14Z" transform="translate(-76.03 -79.35)"/><path class="cls-2" d="M179.48,96.73a3.23,3.23,0,0,1,2.14,3.32c-.06,1.55-1.13,2.58-2.38,2.29A3.23,3.23,0,0,1,177.1,99C177.16,97.47,178.23,96.45,179.48,96.73Z" transform="translate(-76.03 -79.35)"/><path class="cls-3" d="M79.88,368.75l40.71-23.18c4.44-2,10.8-3.65,15.32-1.29,4.12,2.14,10.91,6.53,13.91,8.24,2.28,1.3,10.19,6,5.26,8.72-14.5,7.89-28.85,16.76-43.57,24.76-2.79,1.52-6.86,2.07-11.13,1.71a29.36,29.36,0,0,1-12.06-3.59l-7.22-4.2c-3.2-1.86-4.89-4.06-5.06-6.09S77.15,370,79.88,368.75Z" transform="translate(-76.03 -79.35)"/><path class="cls-34" d="M176.85,221.56a6.75,6.75,0,0,1-1-.22l.84-.14a28.38,28.38,0,0,0,3.9-2.48c-1.18-2.37-4.09.09-4.65.14-.23,0-1.74-.25-3.22-.32a5.35,5.35,0,0,0-4.85,1.94c-.67.46-1.43,1-2.19,1.64a10.1,10.1,0,0,0,1.64,5.37,3.71,3.71,0,0,1,1.14-.32c1.49-.16,2.91.18,6.2,1.27s3.92,1.08,9.07-2.63c3.77-2.71,5.82-4.23,5.18-6.22C187.44,214.93,181.49,220.91,176.85,221.56Z" transform="translate(-76.03 -79.35)"/><path class="cls-35" d="M176.42,226.42c-3.2-.5-5.44-3.16-8.07-1.61-.66.39-1.26.78-1.83,1.17a8.48,8.48,0,0,0,.84,1.51,3.71,3.71,0,0,1,1.14-.32c1.49-.16,2.91.18,6.2,1.27s3.92,1.08,9.07-2.63c2.53-1.82,4.29-3.1,5-4.35.34-.61-.65-1.3-1.45-.73C183.14,223.7,181.07,225.77,176.42,226.42Z" transform="translate(-76.03 -79.35)"/><path class="cls-36" d="M187.84,219.61c-1.41,1.07-8.79,4.48-10.52,4.13-.47-.09-.39-1-.44-2.1-.35.74.08,2.39-.62,2-4-2-5.67-2.38-8-.93a8.24,8.24,0,0,1,4.52.32c1.38.47,2.66,1.28,4.12,1.68C180.77,223.61,183.1,223.22,187.84,219.61Z" transform="translate(-76.03 -79.35)"/><path class="cls-37" d="M134.92,240.11c-.8-.78-1.56-1.61-2.08-2.1-4-3.73-10.64-15.84-14.37-33.88,1.35-1.09,5.34-2.13,6-2.27a7.43,7.43,0,0,1,6.7,2.11c1.67,2,3.37,5.56,4.41,11.31.71,3.87,3.59,9,5.54,13.83.09.21.17.42.25.62,3.28-1.73,6.77-3.15,8.58-3.88,3.88-1.55,8.3-3,13.09-4.4.58-.17,1.1.21,1.67.05.31-.14,1.72-.64,2-.75a10.07,10.07,0,0,0,2.35,6.94c-.29.1-1.83.81-2.15.93a6.88,6.88,0,0,0-1.38,1.32c-3.6,3.72-14,9.29-23.56,12.21C138.74,243.15,136.29,242.6,134.92,240.11Z" transform="translate(-76.03 -79.35)"/><path class="cls-38" d="M134.92,240.11c-.8-.78-1.56-1.61-2.08-2.1-4-3.73-10.64-15.84-14.37-33.88,8-6.52,15.69,4.25,17,11.47,1.7,9.36,3.37,17.35,3.45,27A4.53,4.53,0,0,1,134.92,240.11Z" transform="translate(-76.03 -79.35)"/><path class="cls-39" d="M97.93,357a18.17,18.17,0,0,1-.49,2.53,28.48,28.48,0,0,0-1.3,4.06c-.67,2.83.25,6.62-.65,10.62a4.4,4.4,0,0,0,.63,4.3c1,1.38,3,3.6,5.56,3.52a3.82,3.82,0,0,0,2.7-1.31,6.41,6.41,0,0,0,1.61-4.74,41.35,41.35,0,0,1-.42-5.46c.07-2,.43-3,.38-5.19s-.22-5.4-.26-6.87Z" transform="translate(-76.03 -79.35)"/><path class="cls-39" d="M120.52,345.32a13.1,13.1,0,0,0-1.26,5.68c.45,1.49,1.49,2.09,2.66,3.11l.82.18c2,1.11,2.78,5,4.67,6.73,1.33,1.24,4,1.91,6.61,2.42,2.82.54,5.49-.26,4.76-2.47-1.82-5.5-9.69-11.71-9.87-17.85Z" transform="translate(-76.03 -79.35)"/><path class="cls-40" d="M132.32,306.15c-.2,10.53-2.5,30.23-2.15,40.61-2.69,2.69-8.07,1.86-9.82-.9-1.09-9.55-2.37-23.11-2.49-28.35a40.22,40.22,0,0,1,1.4-12.28c-1.57-11.53-8.22-27.24-6.64-38.08.7-4.76,3.82-9.89,4.73-13.82,7.84,9.67,13.82,5,17.07,4.2,0,3.34.24,2.89.13,6.4-.37,11.88-.92,24.55-1.57,36.87A16.82,16.82,0,0,1,132.32,306.15Z" transform="translate(-76.03 -79.35)"/><path class="cls-41" d="M118.54,327.5c-.37-4.15-.63-7.76-.68-10a40.22,40.22,0,0,1,1.4-12.28c-1.57-11.53-8.22-27.24-6.64-38.08.7-4.76,3.82-9.89,4.73-13.82,7.84,9.67,13.82,5,17.07,4.2v1l-10.28,7.6,2.53-.57c-.09,13.68-1.78,26.15-2,39.65a206.83,206.83,0,0,0-6,22.07Z" transform="translate(-76.03 -79.35)"/><path class="cls-42" d="M114.84,313.81c-1.89,10.53-7.41,36.08-8.72,46.45-3.4,1.89-7.74.9-8.94-1.86,0-9.54,0-26.72.72-31.95a65.2,65.2,0,0,1,3.88-15c-.7-24.6-3.45-31.15-.13-42,1.46-4.76,5.28-9.35,6.82-13.28,2.11,3.23,5.36,7.82,12.32,7.26.68-.06,6.49-4.21,8.4-4.68-2.43,14.63-9.43,33.75-12.83,49.71A18.28,18.28,0,0,1,114.84,313.81Z" transform="translate(-76.03 -79.35)"/><path class="cls-43" d="M125.69,201.61a6,6,0,0,1,2.18.73c5.18,2.88,7,11.34,7.81,18.76.73,6.43.18,11.77,0,17.65-.16,4.7.45,9,.24,13.48-.07,1.32-.57,2.75-.7,4.15,0,1-.35,2-.34,2.77-2.59,9.89-27.1,10.71-30.67,4a19.4,19.4,0,0,0,.63-3c-2.31-2.1-1-7.23-1.34-10.8A29.06,29.06,0,0,0,102,242c-3.33-8.21-8-14.53-8.91-20.83-.64-4.34,4.91-9.75,12.22-14.12C112.37,202.81,121.92,200.51,125.69,201.61Z" transform="translate(-76.03 -79.35)"/><path class="cls-44" d="M135.71,221.32c-2.6,2.64-18.64,18-36.4,14l.19-1.21c18.71,4.15,35.61-14,35.66-14.08l.45.43c0,.21,0,.41.07.61Z" transform="translate(-76.03 -79.35)"/><path class="cls-44" d="M136,230.83c-4.39,4.14-18,15.52-33.32,13.31-.1-.45-.22-.88-.35-1.29,16.27,2.65,30.85-11,33.71-13.83C136,229.63,136,230.23,136,230.83Z" transform="translate(-76.03 -79.35)"/><path class="cls-44" d="M101.93,241.76l3.15-6.57,4.23,7.13,3.64-8.68,5,6.7,2.59-9.33,5.29,5.7,2.41-10.61,3.94,6,3.31-12.46c.07.51.13,1,.18,1.51l.06.53-3.24,12.19-3.9-5.89-2.33,10.29-5.34-5.76L118.29,242l-5.13-6.86L109.45,244l-4.27-7.21-2.88,6c-.09-.26-.18-.52-.28-.76Z" transform="translate(-76.03 -79.35)"/><path class="cls-44" d="M105.37,240.61a.69.69,0,0,1,.63.69.58.58,0,0,1-.63.6.69.69,0,0,1-.62-.69A.58.58,0,0,1,105.37,240.61Z" transform="translate(-76.03 -79.35)"/><path class="cls-44" d="M109.13,236.79a.69.69,0,0,1,.63.69.59.59,0,0,1-.63.61.7.7,0,0,1-.62-.7A.58.58,0,0,1,109.13,236.79Z" transform="translate(-76.03 -79.35)"/><path class="cls-44" d="M113.53,239.62a.69.69,0,0,1,.62.69.58.58,0,0,1-.62.6.69.69,0,0,1-.63-.69A.58.58,0,0,1,113.53,239.62Z" transform="translate(-76.03 -79.35)"/><path class="cls-44" d="M117.25,234.69a.7.7,0,0,1,.62.7.58.58,0,0,1-.62.6.69.69,0,0,1-.63-.69A.59.59,0,0,1,117.25,234.69Z" transform="translate(-76.03 -79.35)"/><path class="cls-44" d="M121.91,236.54a.69.69,0,0,1,.62.69.59.59,0,0,1-.62.61.7.7,0,0,1-.63-.7A.59.59,0,0,1,121.91,236.54Z" transform="translate(-76.03 -79.35)"/><path class="cls-44" d="M124.68,231.1a.69.69,0,0,1,.63.69.59.59,0,0,1-.63.61.7.7,0,0,1-.62-.7A.58.58,0,0,1,124.68,231.1Z" transform="translate(-76.03 -79.35)"/><path class="cls-44" d="M129.38,232.25a.7.7,0,0,1,.63.7.59.59,0,0,1-.63.6.7.7,0,0,1-.62-.69A.59.59,0,0,1,129.38,232.25Z" transform="translate(-76.03 -79.35)"/><path class="cls-44" d="M131.88,226.34a.7.7,0,0,1,.62.69.59.59,0,0,1-.62.61.7.7,0,0,1-.63-.69A.59.59,0,0,1,131.88,226.34Z" transform="translate(-76.03 -79.35)"/><path class="cls-44" d="M135.88,227a.41.41,0,0,1,.16,0c0,.42,0,.84,0,1.25a.42.42,0,0,1-.16,0,.69.69,0,0,1-.62-.69A.58.58,0,0,1,135.88,227Z" transform="translate(-76.03 -79.35)"/><path class="cls-44" d="M101.2,236.92a.69.69,0,0,1,.63.69.58.58,0,0,1-.63.6.69.69,0,0,1-.62-.69A.58.58,0,0,1,101.2,236.92Z" transform="translate(-76.03 -79.35)"/><path class="cls-38" d="M105,224.55c.94,5.06-.24,13.64-2.74,18.17a57.93,57.93,0,0,0-3.92-8.32C98.51,234,103.88,218.29,105,224.55Z" transform="translate(-76.03 -79.35)"/><path class="cls-45" d="M103.38,262.74c1.14.59,3.16,1.1,4,1.52.43.23,3.52,1.88,5.26,2.89s2.47,2.78,3.66,4.63a12.18,12.18,0,0,1,1.42,3.41c.17.8-1.79,2.49-2.67,2.35-2-.31-4.2-2.61-4.74-2.85-4.6-2-6.75-2.11-8.47-3.84-.74-.74-1.31-3-2.86-5l2.57-2.65Z" transform="translate(-76.03 -79.35)"/><path class="cls-46" d="M92.73,218.14c-4.1,6.56-7,18.5-10.69,26.58a5.12,5.12,0,0,0-.47,1.72c-.67,2,.38,3.69,1.77,5.47,3.41,4.37,6.13,8.31,13.14,13.54a4.29,4.29,0,0,0,1.83.54c.44.32,1.07.9,1.54,1.23-.6-.67,2.47-4.51,4-4.37-.41-.45-.84-1-1.27-1.47a4.63,4.63,0,0,0-.44-1.69,71,71,0,0,0-9.28-12.29c1.63-2.12,3-4.58,4.15-6.33a104.69,104.69,0,0,0,5.41-9.36c.64-1.24,1-1.85,1.61-3.12C108.55,219.15,97.7,210.18,92.73,218.14Z" transform="translate(-76.03 -79.35)"/><path class="cls-34" d="M122.15,206.41c.08-.39.17-.79.26-1.21.24-1.21-.08-3.56.25-6.33l-10.5-4.44c-.17,5.89-1.14,7.11-2.22,11.91.11,4.72,11.84,6.84,12.09,1.29A8.27,8.27,0,0,1,122.15,206.41Z" transform="translate(-76.03 -79.35)"/><path class="cls-47" d="M122.15,206.41c.08-.39.17-.79.26-1.21.24-1.21-.08-3.56.25-6.33l-10.5-4.44c0,1.34-.12,2.44-.23,3.4-.38,3.9,3.37,10.7,10.1,9.8A8.27,8.27,0,0,1,122.15,206.41Z" transform="translate(-76.03 -79.35)"/><path class="cls-34" d="M122.75,206.15c-1.28-.85-4.8-3-6-3.83-2.52-1.86-2.21-4.22-2.94-7.92-2.36-1.68-3.16-3-3.37-4.53-.5-3.59,1.55-7.46,4.29-9.58a9.51,9.51,0,0,1,8.25-1.68c6,1.31,8.51,5.87,8.82,11.08a3.35,3.35,0,0,1-.17,1.29,16.89,16.89,0,0,0-.55,1.94c-.32,1.54.72,2.1.31,4-.57,2.61-2.73,7.71-3.62,8.56C127.13,206.15,124.08,206.37,122.75,206.15Z" transform="translate(-76.03 -79.35)"/><path class="cls-48" d="M131.55,187.42a15.48,15.48,0,0,1,.29,2.27,3.35,3.35,0,0,1-.17,1.29,16.89,16.89,0,0,0-.55,1.94c-.32,1.54.72,2.1.31,4a31.7,31.7,0,0,1-1.63,4.8c-3.88,2.95-7.27-.65-7.79-1.32-2.43-3.13-2.61-7.82-.78-12.2A14.91,14.91,0,0,0,131.55,187.42Z" transform="translate(-76.03 -79.35)"/><path class="cls-49" d="M108.8,188.17a30,30,0,0,0,2.9,9c1.22,2,.69-.44,1.33-1.79.5-1,2.1-1.15,2.58-2.22a3.38,3.38,0,0,0,1.14,2.11c.37.2,1.13.48,1.16-.59.1-3.69,1.85-4,1.29-6.16-.41-1.67-.31-2.38.1-3,1.2.17,2,1.41,3.39,2a12.41,12.41,0,0,0,8.4-.8c3-1.63,3.26-5.26.75-7.59-1.39-1.29-3-1.62-5.13-3.08a9.47,9.47,0,0,0-12.19,1.29C109,178.49,108.44,183.72,108.8,188.17Z" transform="translate(-76.03 -79.35)"/><path class="cls-34" d="M114.62,191.28c-2.27-1-2.55,1.68-2.35,3.36.14,1.16,1.09,1.17,1.34,2.09a2.14,2.14,0,0,0,1.78,1.73c1.43.1.76-2.11.67-3C116.36,194.12,116.07,191.94,114.62,191.28Z" transform="translate(-76.03 -79.35)"/><path class="cls-50" d="M120.85,183.75c-.22,1.55,1.77,3.36,4.56,3.51,2.59.15,6.1-.47,7.39-3.61a3.57,3.57,0,0,0-1.36-3.88,3.24,3.24,0,0,0-3.1,0c-1.91.84-3.51,3-4.88,3.51A17.68,17.68,0,0,1,120.85,183.75Z" transform="translate(-76.03 -79.35)"/><path class="cls-51" d="M372.48,220.88c-3.42-.53-6.12,1.82-7.49,5a18.53,18.53,0,0,0-.84,10.93c2.23,8.1-1.7,11.64-3.14,15.41a16.42,16.42,0,0,0-.83,6.25c.09,2.91,1.77,4.4,3.17,7a23,23,0,0,0,2,7.19c3.85,7.69,16.79,11.41,29.2,10.84,9.94-.46,19.55-4,23.89-8,4.78-4.43,5.39-15.69-2.62-16.84-1.87-.27-4-.67-5.64-2.6-1.09-1.33,0-4.83.23-9.5.25-4.51-.78-9.26-7.34-10.85-2.51-.6-5-.85-7.06-2.23-4.59-3-2.91-8.6-7.88-11.89-3-2-7.83-2.41-13.11-.95C374.21,220.68,373.35,220.79,372.48,220.88Z" transform="translate(-76.03 -79.35)"/><path class="cls-52" d="M369.51,225.13a8.24,8.24,0,0,0,1.83,6c3.06,4.32,4.66,4,6.33,9.47,2.75-1.83,4.64-2.11,5.43-.31,1.28,2.89.47,4.61.77,7.6.48,4.87,6.3-1.8,10.87,1.93s1.41,6.25,3.14,11.44c.65,1.95,1.15,4.5,3,5.36,5.64,2.68,7.81,9.41-2.24,12.75-6.23,2.07-15.27,1.55-22.83-1-10-3.4-16.12-18.11-13.58-25.1,1.06-2.89,3.9-5.06,3.92-7.31C366.17,238.13,364.67,233.15,369.51,225.13Z" transform="translate(-76.03 -79.35)"/><path class="cls-53" d="M324.26,232c-1.52.5-.72,2.26-.13,2.76.88.87,2.64,1.44,2.49,2.35s5.54,3,5.53,2.92a10.44,10.44,0,0,0-2.63-4.63C326.45,233.37,326.8,234.68,324.26,232Z" transform="translate(-76.03 -79.35)"/><path class="cls-34" d="M328.26,243.79c3.28,4.38,5.87,12.84,9.17,16.78,1,1.25,2.58,3.3,4.39,3,9.35-1.62.84-5.24,1.84-7.79-1.58-5.49-8.26-8.57-11-14.64a13.09,13.09,0,0,0-.5-1.23c-1.14-2.31-2.22-3-6.61-3.85a4.57,4.57,0,0,1-2.5-1.3l-2.89-2.86c-1-.78-1.75-1-2.15-.82a7.29,7.29,0,0,0-1.67,3.75h0c-.16.47.35,1.3,1.47,2.19l3.58,5,.31,0C325.69,242.59,327.28,243,328.26,243.79Z" transform="translate(-76.03 -79.35)"/><path class="cls-54" d="M343.24,265.42c6.46-.64,15.72-1.67,20.72-4.25,3.25-1.67,9.12-8.87,5.82-12.87-.7-1.87-6.94,2.06-10,3.23a122.94,122.94,0,0,1-15,4.56c-1.56-4.38-5.69-7.84-8.95-11.92a5,5,0,0,0-1.82-1.46,8.37,8.37,0,0,1-1-1.56c-.55-.23-4.06,1.23-5,3,.26.33.8,1.09,1,1.47.35.53.27,1.19.55,1.8.94,2.09,5.41,11.17,8.37,14.72,1.13,1.35,2.79,3.74,4.75,3.4Z" transform="translate(-76.03 -79.35)"/><path class="cls-3" d="M343.24,265.42c6.46-.64,15.72-1.67,20.72-4.25,2.81-1.45,7.57-7,6.68-11.08-1.21-1.14-1.94-1.75-3-1.71-1.29.06-2.85,1.45-5.82,3-4.5,2.33-8.74,2.45-12.22,6.58-2.57,3-6.86,5.66-10.5,5.55,1,1.15,2.23,2.25,3.61,2Z" transform="translate(-76.03 -79.35)"/><path class="cls-3" d="M349.23,418.36,390,395.17c4.44-2,10.79-3.64,15.31-1.29,4.12,2.14,10.91,6.53,13.91,8.24,2.28,1.31,10.2,6.05,5.27,8.73-14.5,7.88-28.85,16.75-43.58,24.76-2.78,1.51-6.85,2.06-11.13,1.71a29.52,29.52,0,0,1-12.06-3.6l-7.22-4.2c-3.2-1.86-4.89-4.06-5.06-6.09S346.51,419.6,349.23,418.36Z" transform="translate(-76.03 -79.35)"/><path class="cls-34" d="M392.82,385.2a4.49,4.49,0,0,0,.51,2.51c2.36,3.43-.45,3.14-.33,8,0,.45-2,8.18-2,8.18S386.3,405.07,386,405s-3.21-1.16-3.21-1.16c.24-.42.56-1.44.76-1.83a31.08,31.08,0,0,0,2.6-9.06c.34-2.12,1-5.43.55-7.66Z" transform="translate(-76.03 -79.35)"/><path class="cls-55" d="M382.59,403.78a20.67,20.67,0,0,0-1.32,3.12,1.45,1.45,0,0,0,.06,1.26c1.08,1.55,6.82-1,8.76-2.62,1.26-1,1.33-2.32,1.67-3.87.51-2.32.59-2.58,1.23-5l.42,6.55.52.34a73.23,73.23,0,0,1,1.1-8.42c.19-.9.51-1.92.56-2.42a5.18,5.18,0,0,0-2.4-5.33c.44,1.82-1.17,4.69-1.89,8.36C390.44,400.21,386.52,403.81,382.59,403.78Z" transform="translate(-76.03 -79.35)"/><path class="cls-56" d="M361.81,295c.44,2-1.61,8.95-1.09,11.62.5,8.79,2,16.23,8,33.81,0,.2,5.41,10.95,5.77,12.08,3.69,11.47,8.29,23.92,12.2,35.51,1.44,1.12,5.83.77,6.39-2-1.21-11.57.11-23-1.88-30.9-1.51-6-3.49-8.79-6.74-13.26-1-11.38-1.71-34.2-4.3-42.94Z" transform="translate(-76.03 -79.35)"/><path class="cls-41" d="M361.81,295c.44,2,1.77,5.73,2.29,8.4,1.65,4.05,5.13,9.59,7.48,14.24.71,5.65.51,13.14,4,23.6l3.19,24.17c2.63,7.57,5.38,15.26,7.86,22.61,1.44,1.12,5.83.77,6.39-2-1.21-11.57.11-23-1.88-30.9-1.51-6-3.49-8.79-6.74-13.26-1-11.38-1.71-34.2-4.3-42.94Z" transform="translate(-76.03 -79.35)"/><path class="cls-34" d="M388.18,396.93a15.44,15.44,0,0,0,.51,3.21,37.4,37.4,0,0,1,.35,5.69,50.84,50.84,0,0,1-1.27,10.23c-.32,1.42-1,2-1.38,4L378,421.41c.82-3.17,2-9.6,2.82-15l1.6-10.06Z" transform="translate(-76.03 -79.35)"/><path class="cls-55" d="M388.61,399.58a15.53,15.53,0,0,1,1.12,4.88c.07,2.3-1,5.89-.9,8.73l.14,4.52c.08,2.63-.59,4.45-3.57,6.63-2.71,2-5.35,2.77-6.78,2.08-1.06-.52-1.91-2.38-.29-7.29,1.35-4.09,1.7-8.09,2.49-12.53a44.81,44.81,0,0,1-1.43,10.09c-.3,1.2-.47,3.2.95,3.4,5.86.84,6.15-.74,6.64-2.55C388.27,412.71,389.21,404.11,388.61,399.58Z" transform="translate(-76.03 -79.35)"/><path class="cls-57" d="M390.77,301.94c6.52,8.16,6.68,12.68,5.27,22.48-.94,6.55-2.87,14.5-3.35,26,.57,5.94,1.63,12.59.82,21.82-.6,6.79-2.5,18.43-3.94,26.67-1.36,2.54-7.76,1.43-8.8.12.3-11.8.11-19.89-.45-29.42-.55-9.26-1.65-17.86-2.35-27-.57-7.57-2.87-17.86-3.17-26-1.22-3.85-12.76-16.61-10.35-16.45Z" transform="translate(-76.03 -79.35)"/><path class="cls-58" d="M390,283.59c-2.92,6.77,2,10.52.26,15.18l.55,3.16c-5.34,3.83-24.43,4.12-29.21-3.48l-.1-3.79c-.83-1.82-.29-6.4,0-7.61.76-3.85.4-5.89.82-10.34.11-1.13.32-1.83.43-3-4.26-3.18-4-9.33-1.47-13a32.18,32.18,0,0,0,3.31-5.84,26.54,26.54,0,0,1,.73-3.34,5.66,5.66,0,0,1,.89-1.83c1.22-1.73,3.18-1.94,7.19-1,7.94,1.83,16.12,6,19.77,9.84,2.65,2.82,2.55,6,1,12.74A72.11,72.11,0,0,1,390,283.59Z" transform="translate(-76.03 -79.35)"/><path class="cls-3" d="M390,283.55c-2.93,6.77,1.93,10.64.14,15.3l.55,3.12c-5.34,4.15-24.43,4-29.22-3.64l.1-3.31c0-.13,9.38,8.31,20.05,3.62,2.31-1,4.41-6.09,1.41-15.78-.28-.92-3.68-1-8.5-4.53,3.55,1.51,10.26,3.57,10.59-5.48.15-4,.74-7.08,2.81-9.89,1-1.37,6.89,5.79,6,9.22A86.26,86.26,0,0,1,390,283.55Z" transform="translate(-76.03 -79.35)"/><path class="cls-59" d="M392.57,298.55c-1,.59-2.74,1.16-3.45,1.59-.37.22-3,1.86-4.49,2.86s-2,2.61-3,4.32a10.35,10.35,0,0,0-1.06,3.1c-.11.72,1.73,2.11,2.5,1.93,1.77-.39,3.58-2.56,4-2.8,4-2.06,5.86-2.26,7.3-3.89.61-.7,1-2.74,2.24-4.58l-2.43-2.19Z" transform="translate(-76.03 -79.35)"/><path class="cls-60" d="M393.05,258c5.89,3.7,12.39,13.93,18.22,23a4.24,4.24,0,0,1,.24,4.52,11,11,0,0,1-1.14,2.06A56.9,56.9,0,0,1,399,300.38a4.6,4.6,0,0,1-1.73.71c-.37.31-.89.86-1.29,1.18.5-.63-2.45-3.8-3.78-3.59.34-.43.69-.89,1.05-1.37a3.9,3.9,0,0,1,.23-1.51,45.27,45.27,0,0,1,7.44-12.14c-5.31-5.74-8.35-7.13-13.29-13.15C381.6,263.19,389.15,255.58,393.05,258Z" transform="translate(-76.03 -79.35)"/><path class="cls-34" d="M380.79,243.06a20.85,20.85,0,0,0,.79,10.21c-2.86,2.65-7.95,1.52-9.14-.88.25-1.56.54-3,.71-4.58Z" transform="translate(-76.03 -79.35)"/><path class="cls-61" d="M380.79,243.06a19.67,19.67,0,0,0-.26,4.94c-.84,3.39-7.19,5.69-7.85,3,.18-1.05.36-2.07.47-3.18Z" transform="translate(-76.03 -79.35)"/><path class="cls-34" d="M369,228.27A11.31,11.31,0,0,0,367.1,236a3.32,3.32,0,0,1-.26,1.86c-1.34,3-1.22,4-.56,6.36s.6,3.58,1.4,4.38a4.7,4.7,0,0,0,3.1,1.09c2.13.13,5.8-1.28,7.94-2.44,1.58-.87,1.52-1.46,2.18-3,2.23-1.94.79-3.36,0-3.5-2.14-.42-2.49,2.05-3.76,2.6C377.39,239.08,369.12,231.75,369,228.27Z" transform="translate(-76.03 -79.35)"/><path class="cls-62" d="M368,230a11.23,11.23,0,0,0-.91,6,3.32,3.32,0,0,1-.26,1.86c-1.34,3-1.22,4-.56,6.36.29,1.05.44,1.88.59,2.55a2,2,0,0,0,2.5.72,3.88,3.88,0,0,0,2-3.21c.15-1.25,2.71-2.07,3.24-3.34.44-1.06-.74-2.23-1.46-2.84A17.8,17.8,0,0,1,368,230Z" transform="translate(-76.03 -79.35)"/><path class="cls-63" d="M369,228.27c1.2,5.33,8.16,9.36,8.22,15.15C375.28,237.4,368.52,233.29,369,228.27Z" transform="translate(-76.03 -79.35)"/></g></g></svg>