<svg xmlns="http://www.w3.org/2000/svg" viewBox="0 0 305.05 439.3"><defs><style>.cls-1{isolation:isolate;}.cls-2,.cls-9{fill:#e2e9fb;}.cls-3{fill:#b8c9f5;}.cls-4{fill:#81a0ea;}.cls-5{fill:#343c6b;}.cls-6{fill:#445393;}.cls-7{fill:#819bea;}.cls-8{fill:#3754e0;}.cls-9{mix-blend-mode:multiply;}.cls-10{fill:#fcbac0;}.cls-11{fill:#5278ff;}.cls-12{fill:#f8afac;}.cls-13{fill:#fec7c4;}.cls-14{fill:#535873;}.cls-15{fill:#fbb2b8;}.cls-16{fill:#ff4a59;}</style></defs><g class="cls-1"><g id="Layer_6" data-name="Layer 6"><path class="cls-2" d="M193,391.26l.17-.18c-.67-2.55,1-5.49,5.05-7.79l24.39-14.05a13.39,13.39,0,0,0,6.72-11.62V345.91l45.3-26.31v8.1a6.7,6.7,0,0,0,10.05,5.81l10.78-6.2c6.22-3.58,15.53-4.24,20.79-1.48l28.41,14.88c2.4,1.26,3.49,3,3.43,4.9.06,0,.06,6.76.06,6.76,0,2.27-1.89,4.72-5.33,6.7l-97.08,56c-6.21,3.58-15.52,4.24-20.79,1.47l-28.41-14.87C192.07,398.89,193,395.19,193,391.26Z" transform="translate(-99.17 -32.82)"/><polygon class="cls-3" points="130.18 307.41 130.18 268.26 175.48 246.2 175.48 286.78 130.18 313.09 130.18 307.41"/><path class="cls-4" d="M229.31,340.41V301.25l7.54-3.67v55.49a13.41,13.41,0,0,1-6.72,11.63l-5.27,3a13.37,13.37,0,0,0,4.45-9.94V340.41Z" transform="translate(-99.17 -32.82)"/><path class="cls-3" d="M193.19,390.94a4.65,4.65,0,0,1,.27-2.78,7.11,7.11,0,0,0,3.1,3.47L225,406.51c5.27,2.76,14.58,2.1,20.79-1.48l97.08-56c2.67-1.53,4.37-3.35,5-5.14a4.13,4.13,0,0,1,.26,1.56c.06,0,.06,6.76.06,6.76,0,2.27-1.89,4.72-5.33,6.7l-97.08,56c-6.21,3.58-15.52,4.24-20.79,1.47L196.56,401.5c-4.49-2.75-3.54-6.45-3.54-10.38Z" transform="translate(-99.17 -32.82)"/><path class="cls-5" d="M392.07,51.16l-7.48,168.46a32.22,32.22,0,0,1-16,27.86L130.92,393.62c-10.74,6.24-31.75-.46-31.75-17.67V204.72a32.19,32.19,0,0,1,16.09-27.89L360.41,35C374.51,28,392.07,38.75,392.07,51.16Z" transform="translate(-99.17 -32.82)"/><path class="cls-6" d="M392.14,203.43v19.92a32.22,32.22,0,0,1-16,27.86L130.92,393.62a16.11,16.11,0,0,1-24.2-13.93V369.2Z" transform="translate(-99.17 -32.82)"/><path class="cls-2" d="M106.72,208.45a32.22,32.22,0,0,1,16.09-27.89L368,38.77a16.11,16.11,0,0,1,24.18,13.94V203.43L106.72,369.2Z" transform="translate(-99.17 -32.82)"/><polygon class="cls-7" points="275.12 21.5 275.12 164.09 25.4 309.14 25.4 165.93 275.12 21.5"/><polygon class="cls-2" points="44.03 226.89 44.03 285.18 87.03 260.2 87.03 202.02 44.03 226.89"/><polygon class="cls-2" points="217.85 74.16 159.21 108.07 159.21 166.25 217.85 132.19 217.85 74.16"/><polygon class="cls-8" points="150.26 111.72 44.03 173.05 44.03 177.05 150.26 115.58 150.26 111.72"/><polygon class="cls-2" points="150.26 125.87 44.03 187.2 44.03 191.19 150.26 129.72 150.26 125.87"/><polygon class="cls-6" points="150.26 140.01 44.03 201.34 44.03 205.33 150.26 143.86 150.26 140.01"/><polygon class="cls-2" points="259.09 51.2 259.09 55.15 227.4 73.45 227.4 69.48 259.09 51.2"/><polygon class="cls-8" points="259.09 80.28 259.09 84.22 227.4 102.53 227.4 98.55 259.09 80.28"/><ellipse class="cls-9" cx="258.39" cy="366.44" rx="46.66" ry="23.23"/><path class="cls-10" d="M282.08,166.23c.25-.44.46-.83.46-.83-.49-1.4-4.45-5-3.83-5.78,1.85-2.36,9.78,6.67,9.78,6.67s-.86-2.43-1.19-3.22a1.91,1.91,0,0,1,.41-2.21c1-.67,2,.5,2.25,1.16l2.94,5.26a7.44,7.44,0,0,1,.83,2.28l.29,1.58c.33,1.74,1.86,4.92,2.25,6.12l-1.87,7.13a60.08,60.08,0,0,0-6.17-7.71,32.22,32.22,0,0,1-3.67-3.24s-2.68-2.82-2.87-4.22A4.15,4.15,0,0,1,282.08,166.23Z" transform="translate(-99.17 -32.82)"/><path class="cls-6" d="M359.18,382.78s0,3,3.66,5.67c.52.39,1.22.86,2,1.34a52.23,52.23,0,0,1,6.67,5.41,5.52,5.52,0,0,0,3.61,1.68c2.24.11,4.21-.61,3.94-4,0-.23,0-.63-.09-1,0-.18-.05-.36-.07-.54s-.19-6.5-.21-6.63c-.27,1.13-1.84-3.28-2.81-3.33-1.47-.07-1.26,3.44-2.26,2.51-1.78-1.7-3.69-.92-8.59-3.42l-.94-.16c-3.8-.44-4.38.82-4.77,2C359.25,382.44,359.2,382.62,359.18,382.78Z" transform="translate(-99.17 -32.82)"/><path class="cls-6" d="M330.52,398.2s3.45-.33,4.6-.37c2.71-.1,8.64-1.8,10.49-.52,2.11,1.46,6.78,2.68,6.85-1.26l2.67.87c.05.83.29,5.7.31,6a6.93,6.93,0,0,1-1,4.13c-1.78,2.8-7.28,1.17-10.44.53l-9.41-1.26a8.18,8.18,0,0,1-6.28-5.18A2.69,2.69,0,0,1,330.52,398.2Z" transform="translate(-99.17 -32.82)"/><path class="cls-5" d="M380.44,263.08l1.11,4.08a19,19,0,0,1,.56,3.08,85.9,85.9,0,0,1,.17,14.7l-.79,10.71-2.44,88.05c.24,3.54-11.57,3.9-11.53-.35l-2.38-91.28-3.32,1.31-6.37,103.08c0,3.63-11.8,4-11.91-.41,0,0-3.49-104.75-3.9-121.19-.29-11.58,20.76-8.47,20.76-9l-10.92-8.53Z" transform="translate(-99.17 -32.82)"/><path class="cls-8" d="M351,245.47s38.61,6.88,44-1.59c2.42-3.79-11.88-42.6-11.88-42.6l-3.42-4.23-9.67,2.76c-1.29.37-3.15-1.59-3.15-1.59,1.59,5.2,9.9,30.47,11.87,36.4.31.92-28.21,2.89-28.21,2.89C352.76,238.11,353.08,244.58,351,245.47Z" transform="translate(-99.17 -32.82)"/><path class="cls-11" d="M380.63,246.05l1.15,19.66c-.53,10-40.67,11.82-43.88,5.14-.61-1.3,0-16.57.48-26.63a62.59,62.59,0,0,0-1.6-17.4c-.06-.28-.13-.55-.2-.85a13.11,13.11,0,0,0-6.77-8.69c-4.94-2.56-15.27-6.88-18.54-8.39a12.94,12.94,0,0,1-5.12-4.16l-16.32-21.49c-1.81-2.17,6.08-8.94,8.2-7.29l18.91,20,11,3.63a14.86,14.86,0,0,0,7.51.54,42.51,42.51,0,0,1,10-.37,23.81,23.81,0,0,0,4.83-2c1.3-.7,2.21-1.23,2.21-1.23l.21-.09,6.72-3.59.53-.28a6.52,6.52,0,0,1,2.49.9,12.26,12.26,0,0,0,2.7,1.12,16,16,0,0,1,4.57-1,17.61,17.61,0,0,1,1.78,0c6.43.32,12.83,4.66,12.53,13.26l-3.31,34.34A32.34,32.34,0,0,0,380.63,246.05Z" transform="translate(-99.17 -32.82)"/><path class="cls-10" d="M368.08,198.33c0,3.16-5.14,5.74-11.5,5.74-5.35,0-9.87-1.85-11.11-4.32a24.64,24.64,0,0,0,4.83-2c1.3-.7,2.21-1.23,2.21-1.23l.21-.09,6.72-3.59a18.73,18.73,0,0,1,3,.62,11.83,11.83,0,0,1,2.7,1.12C367,195.54,368.08,196.87,368.08,198.33Z" transform="translate(-99.17 -32.82)"/><path class="cls-10" d="M343.6,184.2c1.93,9.51,8.25,10.42,14.2,7.55,6.62-3.2,10.68-11,11.08-16.67.6-8.67-4.87-14.34-12.05-14.83C340.45,159.11,342.94,180.9,343.6,184.2Z" transform="translate(-99.17 -32.82)"/><path class="cls-10" d="M364.85,179.7l-.67,18.92c0,.88-.87,1.7-2.39,2.19-2.62.86-6.25.5-8.14-.83a2.15,2.15,0,0,1-1.1-1.77l.63-18.92Z" transform="translate(-99.17 -32.82)"/><path class="cls-5" d="M357.31,172.33a9.8,9.8,0,0,1-8.11,4c-.95,0-1.87-2.37-3.07-3.75-.79-.89-2-.84-2.47-1.27-2.13-1.89-2.46-8.74,2.3-11.47a18.44,18.44,0,0,1,12.61-2.1c.48.09-2.57,1.55-2.18,1.86C360.1,162.45,360.51,168.15,357.31,172.33Z" transform="translate(-99.17 -32.82)"/><path class="cls-5" d="M359.24,186.55l-1.41-5.63a9.12,9.12,0,0,0-6.06-6.5l-5.64-1.83c.33,4.76,2.36,8.69,6.75,13.33a13.4,13.4,0,0,0,6.59,4.08l0-.91A9.42,9.42,0,0,0,359.24,186.55Z" transform="translate(-99.17 -32.82)"/><path class="cls-5" d="M358.57,157.75c-6.87-.62-12.5,5-12.51,13.35,0,.51,0,1,.07,1.49l5.64,1.83a9.12,9.12,0,0,1,6.06,6.5l1.41,5.63a9.42,9.42,0,0,1,.26,2.54l0,.91c4.22.94,9-2.19,10.69-8.09C371,178.81,378.54,159.56,358.57,157.75Z" transform="translate(-99.17 -32.82)"/><path class="cls-10" d="M348.29,182.21c-1.58,1.95-1.83,4.36-.56,5.39s3.57.27,5.15-1.68,1.83-4.37.56-5.39S349.87,180.26,348.29,182.21Z" transform="translate(-99.17 -32.82)"/><ellipse class="cls-9" cx="140.38" cy="416.08" rx="46.66" ry="23.23"/><path class="cls-12" d="M231.52,345.77,234.11,389a29.91,29.91,0,0,0,1.19,7l10.24,39.31a10.58,10.58,0,0,0-4.16-1.61c-.44,0-.84,0-1.26,0h-.72a2.87,2.87,0,0,0-2.66,1.95c0,.18-.08.35-.11.5s0,2.9,3.56,5.51c.5.37,1.18.83,1.91,1.29a37.17,37.17,0,0,1,5.61,4.39,5.35,5.35,0,0,0,3.51,1.62A3.64,3.64,0,0,0,255,445c0-.22,0-.61-.09-1,0-.17,0-.35-.07-.52s0-.35-.06-.51c-.14-.9-.29-1.9-.44-2.85a53,53,0,0,1-.66-6.4c-.46-9.3-2-32.77-5.94-45.76l5.52-46.92Z" transform="translate(-99.17 -32.82)"/><path class="cls-13" d="M216.8,450.82l7-.57a6.74,6.74,0,0,0,4.91-2.24,2.64,2.64,0,0,0,.58-2.35c-3.85-16.76-23.1-106-13.5-126.23,10.73-22.61,34-4.62,34-4.62s7,16.58,3.55,26.24c-3.09,8.68-16.62,12.29-16.62,12.29l-2.39,39.2c2.32,14.06,4.38,57.09,5.12,61.21a9.21,9.21,0,0,1-.83,5.67c-1.75,2.61-5.7,1.69-8.76,1.07l-9-1.78a8,8,0,0,1-6.1-5A2.62,2.62,0,0,1,216.8,450.82Z" transform="translate(-99.17 -32.82)"/><path class="cls-14" d="M236.74,435.57c0,.18-.08.35-.11.5a6.48,6.48,0,0,0,1.69,3.78c-.13-1.82-.24-3.75-.39-5.77A2.77,2.77,0,0,0,236.74,435.57Z" transform="translate(-99.17 -32.82)"/><path class="cls-5" d="M236.63,436.07s0,2.9,3.56,5.51c.5.37,1.18.83,1.91,1.29a37.17,37.17,0,0,1,5.61,4.39,5.35,5.35,0,0,0,3.51,1.62c2.17.11,4.08-.58,3.82-3.86,0-.22,0-.61-.09-1,0-.17,0-.35-.07-.52s0-.38-.06-.51c-.27,1.1-1.47,1.38-2.42,1.34a5.45,5.45,0,0,1-3.64-1.31c-1.74-1.64-14.16-8.73-6.48-9.2l-.9-.15c-3.69-.43-4.26.79-4.64,1.91C236.7,435.75,236.66,435.92,236.63,436.07Z" transform="translate(-99.17 -32.82)"/><path class="cls-3" d="M253.3,341.05c1.36-3.83,1.1-8.74.24-13.28a70,70,0,0,0-3.79-13s-22.39-17.55-34,4.62a27,27,0,0,0-2.41,8.32c-5,32.76,15.4,117.58,15.4,117.58a3.14,3.14,0,0,0,2.06,1.27,2.15,2.15,0,0,0,.57.13c2.61.49,6.36-.06,7.74-1.73,0,0-3.44-44-4.82-52.46l.06-1.07a30.88,30.88,0,0,0,1,4.49l9.32,36.6a5.37,5.37,0,0,0,2.7,1.32l.59.13c2.19.42,4.82.2,6-1.4,0,0,.33-32.32-6.14-44.64Z" transform="translate(-99.17 -32.82)"/><polygon class="cls-7" points="135.94 343.99 137.77 312.24 144.82 309.14 135.94 343.99"/><path class="cls-5" d="M216.8,450.82l4.47-.36c-1.78.5-2.37,2.12-.58,3.36,2.05,1.42,18.66,3.75,18.72-.07.08.76.11,1.36.13,1.66a6.76,6.76,0,0,1-1,4c-1.72,2.72-5.7,1.69-8.76,1.07l-9-1.78a8,8,0,0,1-6.1-5A2.62,2.62,0,0,1,216.8,450.82Z" transform="translate(-99.17 -32.82)"/><path class="cls-5" d="M221.53,302.31s35.34,7.14,40.49-.53c2.31-3.43-10.46-41.14-10.46-41.14L249,258.41,240,260.75c-1.19.3-2.86-1.53-2.86-1.53,1.36,4.81,8.46,28.22,10.14,33.71.26.85-26,2.05-26,2.05C223.28,295.58,223.44,301.53,221.53,302.31Z" transform="translate(-99.17 -32.82)"/><path class="cls-15" d="M236.68,259.5a11.25,11.25,0,0,1-7.22,3.66,14.17,14.17,0,0,1-3.58-.47c-2.14-.58-5.8-1.77-7.66-2.4.62-.38,1.24-.78,1.89-1.14l2.21-1.28,8.05-4.65,5,1.76A2.83,2.83,0,0,1,236.68,259.5Z" transform="translate(-99.17 -32.82)"/><path class="cls-13" d="M214.4,244.54c2.34,9.77,8.93,10.48,15,7.29,6.74-3.55,10.67-11.75,10.87-17.66.3-9-5.56-14.66-13-14.91C210.22,218.68,213.59,241.15,214.4,244.54Z" transform="translate(-99.17 -32.82)"/><path class="cls-15" d="M236.24,239.11v19.6c0,.92-.85,1.8-2.4,2.36-2.68,1-6.45.74-8.46-.56a2.25,2.25,0,0,1-1.2-1.8l0-19.6Z" transform="translate(-99.17 -32.82)"/><path class="cls-15" d="M182.63,295.35l-3.78,6.13c-2.21-1.53-3.57-2.54-3.57-2.54a26.56,26.56,0,0,1-5.42-1.89,5.05,5.05,0,0,1-1.45-7.84l.38-.42s-2.64-2.4-3.27-2.94-1-1.3-.7-1.81c.55-1,1.57-.53,2.43.06,1.62,1.1,6.5,4.35,6.5,4.35a7.07,7.07,0,0,1,1.68,1.64l.92,1.24a9.4,9.4,0,0,0,4,3.06S181.2,294.77,182.63,295.35Z" transform="translate(-99.17 -32.82)"/><path class="cls-5" d="M250.85,291.26l1.23-10.42,1.7-14.18c.08-10-6.76-14-13.62-13.11a14.85,14.85,0,0,0-3.94,1c-.53.23-4.63-2-5.17-1.77l-.68.39L224,256.89l-1.7,1-2.21,1.28q-.95.56-1.89,1.14l-.39.22a33.9,33.9,0,0,0-7.57,5.76,13.78,13.78,0,0,0-3.54,7.76s-3,25-3.53,27.83C203,303,179.5,294,179.5,294c-1.53.55-3.42,4.15-3.05,5.74,0,0,26.44,19.32,35.18,12.93.75-.56,1.61-2.5,2.48-5.19.35,7.64-1.37,13.85-1.1,15.14a.37.37,0,0,0,.09.18c9.35,6.86,36.66,5.12,39.76-2.47.43-1-1.86-8.24-2.57-11.32C249,303.15,250.13,297.24,250.85,291.26Z" transform="translate(-99.17 -32.82)"/><path class="cls-16" d="M214.16,222.31c4.43-6,21.5-9.8,33.24-.71a13.12,13.12,0,0,0,1.78,1.39,17,17,0,0,1,7.29,8.13,19.59,19.59,0,0,1,1.65,9.84,5.36,5.36,0,0,0,1.36,4.06,13,13,0,0,1,2.11,3.32c2.35,5.23,1.4,11.14-2,14.1a7.26,7.26,0,0,1-3.1,1.63c.6,4.05-.57,8-3.14,10.21a7.39,7.39,0,0,1-1.34,1c-3.74,2-8.33.46-11.29-3.49l-.41.26c-6.15,3.37-14-.38-17.64-8.36a18.49,18.49,0,0,1-.26-15.19,12.93,12.93,0,0,1,1.14-1.95,23,23,0,0,1-4.92-7.32,5.76,5.76,0,0,0-2.36-2.77,5.81,5.81,0,0,1-.61-.4C211.52,233.11,210.78,226.9,214.16,222.31Z" transform="translate(-99.17 -32.82)"/><path class="cls-13" d="M219.18,242.31c-1.56,2.07-1.73,4.58-.38,5.6s3.71.15,5.27-1.93,1.73-4.59.38-5.6S220.74,240.23,219.18,242.31Z" transform="translate(-99.17 -32.82)"/></g></g></svg>