<svg id="Layer_5" data-name="Layer 5" xmlns="http://www.w3.org/2000/svg" xmlns:xlink="http://www.w3.org/1999/xlink" viewBox="0 0 210.35 442.41"><defs><style>.cls-1{mask:url(#mask);}.cls-10,.cls-11,.cls-12,.cls-13,.cls-14,.cls-15,.cls-16,.cls-17,.cls-18,.cls-19,.cls-2,.cls-20,.cls-21,.cls-22,.cls-23,.cls-24,.cls-25,.cls-26,.cls-27,.cls-29,.cls-3,.cls-30,.cls-31,.cls-4,.cls-5,.cls-6,.cls-7,.cls-8,.cls-9{fill-rule:evenodd;}.cls-2{mix-blend-mode:multiply;fill:url(#linear-gradient);}.cls-3{fill:#d8eaff;}.cls-4{fill:#c5dffe;}.cls-5{fill:#eef6ff;}.cls-6{fill:#a9cbf3;}.cls-7{fill:#fff;}.cls-8{fill:#0154a3;}.cls-9{fill:#16e7b3;}.cls-10{fill:#ffaa83;}.cls-11{fill:#ed9870;}.cls-12{fill:#452312;}.cls-13{fill:#713d22;}.cls-14{fill:#ce7c56;}.cls-15{fill:#d1e7f4;}.cls-16{fill:#0aa98e;}.cls-17{fill:#333;}.cls-18{fill:#e8faff;}.cls-19{fill:#c5e3ff;}.cls-20{fill:#52517b;}.cls-21{fill:#dda274;}.cls-22{fill:#343354;}.cls-23{fill:#a48263;}.cls-24{fill:#826448;}.cls-25{fill:#ceab8b;}.cls-26{fill:url(#linear-gradient-2);}.cls-27{fill:#007eff;}.cls-28{mask:url(#mask-2);}.cls-29{fill:url(#linear-gradient-3);}.cls-30{fill:#66658f;}.cls-31{fill:#666;}.cls-32{filter:url(#luminosity-noclip-2);}.cls-33{filter:url(#luminosity-noclip);}</style><filter id="luminosity-noclip" x="197.69" y="-8442" width="117.55" height="32766" filterUnits="userSpaceOnUse" color-interpolation-filters="sRGB"><feFlood flood-color="#fff" result="bg"/><feBlend in="SourceGraphic" in2="bg"/></filter><mask id="mask" x="197.69" y="-8442" width="117.55" height="32766" maskUnits="userSpaceOnUse"><g class="cls-33"/></mask><linearGradient id="linear-gradient" x1="187.86" y1="180.56" x2="330.63" y2="180.56" gradientUnits="userSpaceOnUse"><stop offset="0.07" stop-color="#707070"/><stop offset="0.8" stop-color="#fff"/></linearGradient><linearGradient id="linear-gradient-2" x1="128.57" y1="-337.11" x2="445.64" y2="-337.11" gradientTransform="translate(-143.44 149) rotate(60.29)" gradientUnits="userSpaceOnUse"><stop offset="0.58" stop-color="#d8eaff"/><stop offset="0.62" stop-color="#a9cbf3"/></linearGradient><filter id="luminosity-noclip-2" x="197.69" y="79.75" width="117.55" height="201.61" filterUnits="userSpaceOnUse" color-interpolation-filters="sRGB"><feFlood flood-color="#fff" result="bg"/><feBlend in="SourceGraphic" in2="bg"/></filter><mask id="mask-2" x="40.23" y="55.45" width="117.55" height="201.61" maskUnits="userSpaceOnUse"><g class="cls-32"><g transform="translate(-157.46 -24.3)"><g class="cls-1"><path class="cls-2" d="M212.68,79.75v2.33l-3.61-2.17v-.16Zm10.41,2.49,5,2.88V91l-5-2.88Zm1.29-2.17v-.32h5.68v3.61Zm36,23.72,4.09,2.33V112l-4.09-2.33Zm0-8.81,10.42,6v5.85l-10.42-6Zm-42.71,36.7L221,133.6v5.77l-3.37-1.92Zm4.81,11.46,2.89,1.6v5.85l-2.89-1.6Zm-6.33-3.69v5.85l-18.43-10.66v-5.85Zm7.93-7-3-1.76v-5.85l3,1.76Zm3.61,5,3.45,2v5.85l-3.45-2.08Zm-14.82-26.12v5.85l-5.05-2.81v-5.85Zm8.09,4.72v5.85l-5-2.88v-5.85Zm2.48,7.3v-5.93l5.45,3.28v5.77Zm-9.29-2.41,3,1.68v5.93l-3-1.76ZM211.07,119V125l-13.38-7.77v-5.85Zm13.87-3.69v-5.77L231,113v5.85ZM212.68,93.78v5.77l-15-8.66V85.12Zm5.85,3.36V103l-2.17-1.28V95.86Zm5.92,9.22v-5.77l2.25,1.2v5.85Zm-1.84-1L220.37,104V98.18l2.24,1.37Zm-12.5-4.41,7,4.09v5.85l-7-4Zm7.53-7.13V87.93l7.7,4.32V98.1ZM216,86.89v5.85L197.69,82.16V79.75h6Zm17.71,10.25V103L227,99.07V93.22Zm26.6,24.12,5.77,3.37v5.77l-5.77-3.29Zm13,4.57-13-7.45v-5.85l13,7.45Zm-20.6-9v5.84L241.2,116V110.2Zm-8.25,4.08,8.17,4.65v5.93l-8.17-4.81Zm8.25-12.74V114l-3-1.76v-5.85Zm-3.76-11,3.76,2.17v5.85L249,103Zm-32.62,60,7.37,4.17v5.85l-7.37-4.25Zm1.28-8.09,3.93,2.32v5.85l-3.93-2.32Zm-6,5.29v5.85l-13.94-8v-5.85Zm17.71-7.3v5.85l-2.8-1.6v-5.85Zm4.41,2.65v5.77L231,153.8V148Zm1.2,6.41v-5.85l2.89,1.68v5.93ZM227,163.25l2.8,1.6v5.85l-2.8-1.6ZM212.36,146V152l-3.93-2.24v-5.85Zm48,1.53,3,1.68v5.85l-3-1.76Zm0,8.73,12.5,7.21v5.85l-12.5-7.21Zm-11.69,7.85V158.2l4.08,2.33v5.85Zm4.08-24-3.44-1.92V132.4l3.44,1.92Zm-2.24,1.61,2.24,1.28v5.85l-2.24-1.28Zm24.2-3.53v5.85L271,141.94v-5.77Zm-14.35,6.41v-5.93l9.86,5.77v5.85Zm0-8.73v-5.85l6.82,3.84v5.85Zm-20.19,14.5v-5.85l12.58,7.29v5.77Zm43,19,2.89,1.76V177l-2.89-1.68ZM291.45,183l3.92,2.33v5.77l-3.92-2.25Zm5.2-5.77V183l-7.29-4.16V173Zm7.06-4.64v5.85l-4.81-2.81v-5.85Zm11.53,30-5.68-3.29v-5.85l5.68,3.29Zm0-14.59v5.85l-13.78-8V180Zm0-17.55v5.85l-14.34-8.25v-5.85Zm-4.32,6.25,4.32,2.57v5.77l-4.32-2.57Zm-2.41-18.83,6.73,3.85v5.93l-6.73-3.93Zm-13.14-7.61V156l-7.61-4.33v-5.93ZM305.55,162l-7.69-4.49v-5.77l7.69,4.33ZM277.1,148.43l6.25,3.6v5.85l-6.25-3.52Zm8,13.38,5.12,3v5.77l-5.12-3Zm2.64-1.44v-5.85l5.61,3.36v5.85Zm-6-18,3.77,2.16v5.85l-3.77-2.24Zm6-5.37,3,1.84v5.85l-3-1.84Zm-1-.48v5.85l-3.45-2v-5.85Zm-10.42,8.57v-5.85l3.69,2.17v5.85Zm-.72-15.06,7,4v5.85l-7-4Zm10.42-2.73v5.77l-4.33-2.4V125Zm15.06,5.77v-5.85l14.1,8.26v5.85Zm-8.89,12.34v-5.77l23,13.3v5.85Zm-.08-14.58v5.85l-4.41-2.65v-5.77Zm2.72,7.45v-5.85l20.35,11.78v5.85Zm-1.68-15.54,4.09,2.32V131l-4.09-2.33Zm3.85-.73v-5.85l18.18,10.5v5.85Zm-9.3-5.45v-5.84l7.61,4.4v5.93Zm-.48,2.65,3.68,2.16v5.85l-3.68-2.08ZM285,118v5.85l-3.6-2.09v-5.85Zm1.13-8.1v5.85l-6.81-4v-5.85Zm-3.93,82.3-2.88-1.68v-5.85l2.88,1.76Zm5.61-2.65,2.8,1.69v5.85l-2.8-1.69Zm-4.09,3.61v-5.85l2.81,1.6v5.85Zm-8.49-10.82,2.88,1.69v5.76l-2.88-1.6ZM285.36,197v5.85l-3.45-2V195Zm15.3-8.74,3.93,2.25v5.85l-3.93-2.17ZM292,200.75l3.36,1.93v5.85L292,206.6Zm4.88,0V194.9l18.35,10.58v5.85Zm9.54,14.19v-5.85l8.81,5.13v5.84ZM302,221.19v-5.93L315.24,223v5.85Zm-9.93,3v-5.85l5.05,2.89v5.85Zm-.16-14.66v5.85L289,213.57V207.8Zm3.92,2.16,3,1.76v5.85l-3-1.76Zm-30.61,8.62q-.3.22-.6.48a9.2,9.2,0,0,0-4.16,2.6l-.13-.08V217.5ZM268,219l-7.62-4.36v-5.85l8.26,4.8v5.25C268.39,218.86,268.18,218.92,268,219Zm25.48,43.92,7.29,4.2v5.77L292.25,268v-4.12A11,11,0,0,0,293.45,262.9Zm2.24-19.12a35.91,35.91,0,0,0-1.2-3.48v-3.09l2.16,1.28v5.85Zm-6.09-20.91-5.37-3.29v-5.85l5.37,3.21Zm-7.53.36v-2l6.09,3.6v4.45A34.4,34.4,0,0,0,282.07,223.23Zm29.25,6.21,3.92,2.32v5.85l-3.92-2.32Zm-3,12.82v-5.77l6.89,4v5.85Zm-12.5-7.13v-5.85l7.13,4.09v5.85Zm9.38-3.37-5.05-2.88v-5.77l5.05,2.8Zm-35.34-61.3v5.85l-9.54-5.37V165Zm-17.15-1.2v5.93l-9.53-5.53v-5.77Zm11.62,12.66-4-2.32v-5.77l4,2.24Zm-11.62-3.84v5.85l-12.58-7.22v-5.85Zm-9.93,11.69,9.93,5.77v5.93l-9.93-5.76Zm3,10.58,6.89,3.93v5.85l-6.89-3.85Zm6.89-13.46v5.77l-3.2-1.84v-5.77Zm20.11,8.73-12.5-7.29v-5.85l12.5,7.29ZM216,218.14V224l-18.35-10.58v-5.77Zm1.6,6.89V219.1l7.7,4.41v5.85ZM212,207.08v5.77l-14.26-8.17v-5.85Zm3.85,8v-5.85l4,2.32v5.85Zm6.33-2.25,3.69,2.17v5.85l-3.69-2.09Zm3.21-1-4.49-2.48v-5.85l4.49,2.56Zm14.42,8.34v-5.77l13,7.45v5.85Zm-11.7-3.77,3.69,2.08v5.85l-3.69-2.08Zm-1-9.3,4.25,2.41v5.77L227,212.85Zm-11.86-24.36v5.85l-7.61-4.4v-5.93Zm15.3,17.55,7,4v5.85l-7-4.09Zm6.18-5.21v5.85L233,198.75V193Zm5.36,9-3.6-2.17V196l3.6,2.16Zm-12.42-4.25v5.77l-3.28-1.92v-5.85Zm-2-4.17v-5.85l3.69,2.17v5.85Zm-6.81-1v5.77l-23.08-13.3v-5.77Zm4.57,2.57v5.85l-3.13-1.77v-5.85Zm0-2.89-7.7-4.4v-5.77l7.7,4.32Zm-13.22-22.19v5.77l-14.43-8.26v-5.77Zm7.53,4.32,5.69,3.29v5.85l-5.69-3.29Zm8.25-3.92v5.85l-5.21-3.05v-5.77Zm1.76,9.69,6.25,3.61v5.85l-6.25-3.53Zm32.86,16.11-2.17-1.2v-5.93l2.17,1.36ZM260.35,200l3.37,1.93v5.84l-3.37-1.92Zm-26.6,34.22L227,230.32v-5.85l6.73,4Zm14.91-.16v-5.85l4.08,2.32v5.85Zm-6.34,5.13v-5.85l10.42,5.93v5.93Zm10.42-20.36-5.85-3.28v-5.77l5.85,3.28Zm7.61,27.81q.88,2,2,4.05l-2-1.17Zm-42.14-44.8v5.77L197.69,196V190.1Zm70.51,63.95V266l-.12-.08Zm11.7-1.84v-5.85l3.61,2.16v5.85Zm14.82-6v5.85l-18.18-10.5v-5.93Zm0-8.74v5.85l-14.82-8.65v-5.77Zm0,26.29v5.85l-11-6.42v-5.76Zm0-8.74v5.85l-5.12-3v-5.85ZM214.12,164.61v5.69l-4.81-2.72v-5.85Zm-16.43-38.7v-5.85l9,5.21v5.85Zm0-23.32,4,2.33v5.85l-4-2.33Zm0-8.73,7.05,4v5.85l-7.05-4Zm0,49.6v-5.85l5.77,3.28v5.85Zm0,11.62,4.49,2.56v5.77l-4.49-2.48Zm0,17.47,6.81,3.92v5.85l-6.81-3.84Z"/></g></g></g></mask><linearGradient id="linear-gradient-3" x1="187.86" y1="180.56" x2="330.63" y2="180.56" gradientUnits="userSpaceOnUse"><stop offset="0.07" stop-color="#007eff"/><stop offset="0.8" stop-color="#fff"/></linearGradient></defs><path class="cls-3" d="M311.4,72.78V65.65l6.09,3.53v7.13ZM251.46,36.16l6.09,3.53v7.13l-6.09-3.53ZM204.74,307.73l22,12.62a24.8,24.8,0,0,1-.32,2.52,17,17,0,0,0-.24,6.81c0,.1,0,.2,0,.29l-21.52-12.3Zm49.85,38.46c0-1.06.06-2.13.08-3.2a38.28,38.28,0,0,0-.57-7l43.52,24.92L308,356l.48.32q1.36.72,5,3l2.65,1.45-18.43,10.17Zm-36.15,106L231,459.5l-12.51,7.21-12.5-7.29Z" transform="translate(-157.46 -24.3)"/><path class="cls-4" d="M311.4,77.59l6.09,3.53v7l-6.09-3.53ZM257.55,58.68l-6.09-3.53v-7l6.09,3.53Zm0,4.81-.08,7.05L251.38,67l.08-7.05Zm53.77,33,.08-7L317.49,93l-.08,7Zm-57,253.78c.1-1.35.18-2.71.25-4.09l43,24.68,18.43-10.17q3.12,1.76,6.33,3.68,4.8,2.81,9.53,5.61,4.89,2.73,9.78,5.53c1.76,1.07,3.58,2.08,5.45,3.05a4,4,0,0,0,3.92-.16c1.13-.65,2.27-1.34,3.45-2.09l2.8-1.84.56-.44,9.94,5.73-31.17,18Zm-39.18-47.6-10.42,5.05v9.94L226.26,330c.27,1.52.52,3,.76,4.56l-68.87-39.74c0-.62,0-1.25,0-1.89v-1.6L177,280.4q3.12,1.77,6.25,3.61,5.13,3,10.33,6,5.53,3.21,11.14,6.49Q210,299.63,215.16,302.68Zm45.52,125.17,12.5,7.29-12.5,7.21-12.5-7.29Zm-21.16,26.68L227,447.24,239.6,440l12.5,7.29Z" transform="translate(-157.46 -24.3)"/><path class="cls-5" d="M317.57,57.32v7.05l-6.09-3.53V53.79Zm-66-26v-7l6.09,3.53v7.05ZM216.36,157.16v5.77l7.37,4.25v-5.85Zm-4.73-2.8-13.94-8v5.85l13.94,8ZM227,163.25v5.85l2.8,1.6v-5.85ZM285.36,197l-3.45-2v5.85l3.45,2Zm6.65,3.76v5.85l3.36,1.93v-5.85Zm14.42,14.19,8.81,5.12v-5.84l-8.81-5.13Zm-53.69-36.86-12.58-7.22v5.85l12.58,7.22Zm20.11,17.54v-5.85l-12.5-7.29v5.85ZM215.16,302.68q-5.21-3-10.42-6.17-5.61-3.28-11.14-6.49-5.21-3-10.33-6-3.14-1.85-6.25-3.61l-18.83,10.9a60.14,60.14,0,0,0-.73-7.77l12.27-7.13c-2.22-1.3-4.35-2.69-6.41-4.17a.89.89,0,0,0,.48-.4,13.7,13.7,0,0,0,1.6-4,1.12,1.12,0,0,0-.16-.8,1.55,1.55,0,0,0-.64-.48,1,1,0,0,0-.8.16,1.35,1.35,0,0,0-.48.72,11,11,0,0,1-1.37,3.37.9.9,0,0,0-.12.24,7.3,7.3,0,0,1-.52-.72,8.79,8.79,0,0,1-1.2-3.77,53.26,53.26,0,0,1-.24-5.53v-2.32q.16-4.89.16-9v-5.93c.05-1.12.08-2.29.08-3.52V129.84c.16-2.68.85-4.25,2.08-4.73a8.42,8.42,0,0,1,3.53,1.28l183.34,107.3a5.83,5.83,0,0,1,2,3.76v141a4,4,0,0,1-3.92.16c-1.87-1-3.69-2-5.45-3.05q-4.89-2.81-9.78-5.53-4.73-2.81-9.53-5.61-3.21-1.92-6.33-3.68l-2.65-1.45q-3.6-2.24-5-3L308,356l-57.49-33a.34.34,0,0,1,0-.12,125.4,125.4,0,0,1-1.84-13.7v-.48a26.44,26.44,0,0,0,4-1.68l91,52.08V238L168.68,136.65V259l50.21,28.73a3.46,3.46,0,0,0-.76,1.56A20.17,20.17,0,0,0,222.37,306a18,18,0,0,1,1.12,1.56c-1.48-.87-3-1.77-4.48-2.69a17.19,17.19,0,0,1-2.49-1.44A9.75,9.75,0,0,0,215.16,302.68ZM162,258.45a1,1,0,0,0-.72-.32.78.78,0,0,0-.72.4.85.85,0,0,0-.32.72,1,1,0,0,0,.32.72,9.49,9.49,0,0,1,2.32,3,.77.77,0,0,0,.57.48,1.33,1.33,0,0,0,.88,0,1.69,1.69,0,0,0,.48-.56,2.65,2.65,0,0,0,0-.89A12.84,12.84,0,0,0,162,258.45Zm-3.68,42.87a1.24,1.24,0,0,0-.56.64,1.31,1.31,0,0,0,.08.8,26.17,26.17,0,0,1,1.68,3.77.73.73,0,0,0,.48.56.85.85,0,0,0,.8.08,1.34,1.34,0,0,0,.64-.56,1.17,1.17,0,0,0,.08-.72,24.8,24.8,0,0,0-1.84-4.09.76.76,0,0,0-.64-.48A.82.82,0,0,0,158.27,301.32ZM240,375.84l-3.2-.4.08,1.2a10.83,10.83,0,0,1-.16-2.64q.15-4.81.72-9.54a86.93,86.93,0,0,1,2.64-13.3v-.08l.4,1.44c.06.16.11.32.16.48l1,3.53a6.12,6.12,0,0,1,.08,1.76Q241,367,240,375.84Zm-.12,5.41-.16-.08.2-.2A2.36,2.36,0,0,1,239.88,381.25Zm13.1,7.57-.08,0v-.2C252.93,388.67,253,388.75,253,388.82Zm7.7,39-12.5,7.21,12.5,7.29,12.5-7.21Zm-42.24,24.36-12.5,7.21,12.5,7.29L231,459.5Zm21.08,2.32,12.58-7.21L239.6,440,227,447.24Zm54.73-31.65-12.5-7.29-12.5,7.29,12.5,7.29Zm8.57-5,12.5-7.21-12.5-7.29-12.5,7.21Z" transform="translate(-157.46 -24.3)"/><path class="cls-6" d="M257.47,75.43v7L251.38,79v-7Zm0,18.91-6.09-3.53v-7l6.09,3.53Zm59.94,10.58v7l-6.09-3.53v-7Zm0,18.91-6.09-3.53v-7l6.09,3.53ZM226.78,320.35l-22-12.62,10.42-5.05a9.75,9.75,0,0,1,1.36.72,17.19,17.19,0,0,0,2.49,1.44c1.5.92,3,1.82,4.48,2.69A20.05,20.05,0,0,1,226.78,320.35Zm24.68,6.85a32.74,32.74,0,0,1-1-4.21L308,356l-10.33,5L254.1,336A37.57,37.57,0,0,0,251.46,327.2Zm-84.94-15.62,1.12-.65,10.58,6.58-1.12.64Zm2.81-1.61.07,0,1-.6L180.94,316l-1,.56Zm10.81,10.18,1.13-.56,10.65,6.65-1.12.64Zm2.73-1.52,1-.64,10.82,6.65-1,.64Zm120,99.28-12.5-7.29,12.5-7.21,12.5,7.29Zm-8.57,5-12.5,7.29-12.5-7.29,12.5-7.29Z" transform="translate(-157.46 -24.3)"/><path class="cls-7" d="M269.09,295.87l-1.76,1.52q-1.29-5.44-4.73-5.05l3.2-2.24a15.58,15.58,0,0,0,1.53.88l.48.24c.8.46,1.24,1.52,1.32,3.17C269.14,294.84,269.12,295.34,269.09,295.87Zm-42.63-10.34a20.61,20.61,0,0,0,6.61,3.45,14.9,14.9,0,0,0,2.6.56l2.41,1.36h.08V291a6,6,0,0,1-4.09,1.08,10.35,10.35,0,0,1-1.68-.2c-2.46-.48-4.52-2.21-6.17-5.21Zm28.77,8.5-.08-.64a5.48,5.48,0,0,0,.16-5.13,7.33,7.33,0,0,0-1.37-2.09.61.61,0,0,0,.32-.08h.08l2.17-.64a.27.27,0,0,1,.08.16,7.43,7.43,0,0,1,1.6,4.65,5.17,5.17,0,0,1-1,3.21H257l-.48.16A6.66,6.66,0,0,0,255.23,294ZM169.33,310l10.57,6.57,1-.56-10.57-6.65-1,.6Zm-2.81,1.61,10.58,6.57,1.12-.64-10.58-6.58Zm16.35,7.05,10.82,6.65,1-.64L183.91,318Zm-2.73,1.52,10.66,6.73,1.12-.64-10.65-6.65Z" transform="translate(-157.46 -24.3)"/><path class="cls-8" d="M295.85,211.73v5.85l3,1.76v-5.85Zm-3.92-2.16L289,207.8v5.77l2.89,1.85Zm.16,14.66,5.05,2.89v-5.85l-5.05-2.89Zm9.93-3,13.22,7.69V223L302,215.26Zm-19.95,2a29.18,29.18,0,0,0-3.21-2.12q-5.78-3.33-10.25-2.29v-5.25l-8.26-4.8v5.85L268,219a10.26,10.26,0,0,0-1.93.84c-.27.16-.54.34-.8.53l-4.89-2.85v5.85l.13.08q-3.09,3.33-3.09,9.94a33.39,33.39,0,0,0,3,13.3v2.88l2,1.17c.1.2.21.4.32.6a43.32,43.32,0,0,0,4.77,6.73l-7.1-4v5.85l9.42,5.37-2.52,9.62a5.47,5.47,0,0,0-.81,0,2.2,2.2,0,0,0-.36,0l-5.73-3.33v5.85l3.53,2-.16.56a12,12,0,0,0-1.88,1.09l-1.49-.85v2.25a6,6,0,0,0-.36.52l-.2.28a.67.67,0,0,1-.16.24,8,8,0,0,0-.4,1.2H259l-.32.08a1.41,1.41,0,0,1,.4.08,2,2,0,0,1,.8.16,4.2,4.2,0,0,0-1.2-.16c-.8.22-1.52.4-2.16.56l-2.17.64h-.08a.61.61,0,0,1-.32.08c-.41.1-.81.2-1.2.28v-1.88l-8.25-4.81v5.93l2.84,1.65a70.37,70.37,0,0,1-11.5.44,5.17,5.17,0,0,1,1.21-2.17,2.17,2.17,0,0,1,.48-.48l3.12-2.64a18.88,18.88,0,0,0-1.44-7.37h-.08a24.94,24.94,0,0,0-1.84-3.61,2.34,2.34,0,0,0,.08-.48v-.8a2.67,2.67,0,0,0-.24-1.2q-.88-1.77-4.65-1a13.44,13.44,0,0,0-4.89,2l-2.64-1.53v4.33a10.1,10.1,0,0,0-1.29,3.69l-.24-.16v5.85l1.13.68s0,.07.08.12a8.39,8.39,0,0,0,2.24,2.08l-.4.4-3.21.48a9.72,9.72,0,0,0-1.6.16,7.09,7.09,0,0,0-1.52.56,3.45,3.45,0,0,0-1.24,1L168.68,259V136.65L343.61,238V359.09l-91-52.08a68.56,68.56,0,0,0,7.77-4.37v1l9.94,5.77v-5.85l-5.09-3a9.32,9.32,0,0,0,1.72.08c1-.11,1.5-.38,1.61-.8l1.08-4.13a2.06,2.06,0,0,0,.84-.92,3.14,3.14,0,0,0,.44-1.2,1.87,1.87,0,0,0,.36-.24,14.21,14.21,0,0,0,1.12-1.61,16.91,16.91,0,0,0,2.49-8.25.76.76,0,0,1-.32-.08,1.62,1.62,0,0,0-.88-.08h-.16l-.16.08v-2l.88-3.37c.1-.48-.26-1-1.09-1.44l3-11.5a22.05,22.05,0,0,0,3.25,1.44v4.21l6.73,3.92v-5.84l-2.65-1.53a9.5,9.5,0,0,0,4.89-1.28l.28-.16.12.08v-.16a10,10,0,0,0,1-.72,10,10,0,0,0,2-.88l.56-.36V268l8.49,4.89V267.1l-7.29-4.2q3.53-3.39,3.52-10.46a30.64,30.64,0,0,0-1.28-8.66l1,.56v-5.85l-2.16-1.28v3.09q-.83-2-1.92-4.13c-.28-.53-.58-1.07-.88-1.6a47.08,47.08,0,0,0-3.53-5.25v-4.45l-6.09-3.6Zm-63.86-21.36L197.69,190.1V196l20.52,11.69Zm27.72,43.76v5.85l6.81,3.92v-5.85Zm6.81,18.51v-5.85L249,256.12v5.93Zm36.86-41.27v-5.93l-5.37-3.21v5.85Zm15.63,8.89v-5.85l-5.05-2.8v5.77Zm-9.38,3.37,7.13,4.09v-5.85l-7.13-4.09Zm12.5,7.13,6.89,4.09V240.5l-6.89-4Zm3-12.82v5.85l3.92,2.32v-5.85Zm-58.58-42.55-3.2-1.84v5.77l3.2,1.84Zm-6.89,13.46v5.93l6.89,3.85v-5.85Zm-3-10.58v5.94l9.93,5.76v-5.93ZM260.35,200v5.85l3.37,1.92V202Zm2.17-1.68v-5.77l-2.17-1.36v5.93Zm-32.86-16.11v5.93l6.25,3.53v-5.85Zm-1.76-9.69-5.21-3v5.77l5.21,3.05Zm-8.25,3.92v5.85l5.69,3.29v-5.85Zm-7.53-4.32-14.43-8.26v5.77l14.43,8.26Zm13.22,22.19v-5.85l-7.7-4.32v5.77Zm0,2.89-3.13-1.77v5.85l3.13,1.77Zm-4.57-2.57-23.08-13.3v5.77l23.08,13.3Zm6.81,1,3.69,2.17v-5.85l-3.69-2.17Zm2,4.17-3.28-2v5.85l3.28,1.92ZM242,204v-5.85L238.4,196v5.84Zm-5.36-9L233,193v5.77l3.69,2.16Zm-6.18,5.21V206l7,4.09v-5.85Zm-15.3-17.55-7.61-4.48v5.93l7.61,4.4ZM227,207.08v5.77l4.25,2.41v-5.77Zm1,9.3v5.85l3.69,2.08v-5.85Zm11.7,3.77,13,7.53v-5.85l-13-7.45Zm-14.42-8.34V206l-4.49-2.56v5.85Zm-3.21,1v5.93l3.69,2.09V215Zm-6.33,2.25,4,2.32v-5.85l-4-2.32Zm-3.85-8-14.26-8.25v5.85L212,212.85ZM217.64,225l7.7,4.33v-5.85l-7.7-4.41Zm-1.6-6.89-18.35-10.5v5.77L216,224Zm8.34,20.92,5.77,3.28v-5.85l-5.77-3.28Zm-12-12.83v5.94l8.49,4.8v-5.85Zm.32,9-3.61-2.16v5.85l3.61,2.16Zm21.07-1v-5.77l-6.73-4v5.85Zm-10.58,7v5.85l5,3V244.1Zm29.57-22.36v-5.77l-5.85-3.28v5.77Zm-10.42,20.36,10.42,6V239.3l-10.42-5.93Zm6.34-5.13,4.08,2.32v-5.85l-4.08-2.32Zm11.69,28.68v5.86l4,2.4V265.1ZM255.23,294a6.66,6.66,0,0,1,1.28-.4l.48-.16h.16c1.39-.4,2.46-.68,3.2-.85v.32l-.24,1a26.18,26.18,0,0,1-7.37,3.2v-2.56C253.4,294.44,254.23,294.26,255.23,294Zm-2.49-18.19-11.46-6.65V275l11.46,6.57Zm0-2.89V267.1l-3-1.68v5.85ZM227,252.2v5.85l6.81,4V256.2Zm-11-6.33-18.27-10.5v5.85L216,251.72Zm1.69,6.89,7.69,4.33v-5.85l-7.69-4.33ZM210.11,260v5.85l7.13,4.09v-5.85Zm10.34,3.13,2.24,1.28v-5.85l-2.24-1.28Zm-1.84-7-2.17-1.28v5.85l2.17,1.28Zm-5.93-3.36-14.91-8.66V250l14.91,8.66ZM216,272.07v5.85l5,2.88V275Zm-3.12-1.84-5-2.81v5.85l5,2.81Zm11.61-10.66v5.85l2.25,1.2v-5.77ZM246.69,298a9.65,9.65,0,0,0-1.76-2.32c.47,0,.93-.06,1.4-.12,1.12-.14,2.11-.27,3-.4v2.08l.8.44A27.53,27.53,0,0,1,246.69,298ZM271,295.15V301l3.69,2.08v-5.85Zm44.23-28.37-5.12-3v5.85l5.12,3Zm0,8.74-11-6.33V275l11,6.42Zm0-26.29-14.82-8.57v5.77l14.82,8.65Zm0,8.74-18.18-10.58v5.93l18.18,10.5Zm-14.82,6,3.61,2.16v-5.85l-3.61-2.16Zm-13.14,20.27,3.68,2V280.4l-3.68-2ZM285,277l-3.61-2v5.85l3.61,2.09Zm2.72-1.28,7.69,4.4v-5.85l-7.69-4.4Zm9.38,5.37,18.18,10.57v-5.85L297.14,275.2Zm-3.85.72v5.85l4.08,2.32v-5.85Zm-1,22.75,23,13.39V312l-23-13.39Zm-.08-14.58-4.49-2.64v5.85l4.49,2.56Zm2.64,7.37,20.43,11.78v-5.77l-20.43-11.78Zm6.33-5.21,14.1,8.26v-5.85l-14.1-8.26Zm-15.14-5.77-4.25-2.4v5.77l4.25,2.4Zm-10.42,8.58,6.89,4v-5.76l-6.89-4.09Zm.72,9.21,3.77,2.17v-5.85l-3.77-2.17Zm14.5-6.25L287.76,296V302l3.12,1.76Zm-4,3.53v-5.85l-3.45-1.92v5.85Zm-5.05,0v5.85l3.69,2.16v-5.85Zm-4.73,11.86,6.33,3.68v-5.85l-6.33-3.6Zm10.66,6.17,5.61,3.28v-5.93l-5.61-3.2Zm10.1-8.82v5.85l7.69,4.49V315.1Zm-2.41-1.36-7.69-4.49v5.85l7.69,4.49Zm13.14,7.53v5.93l6.73,3.93v-5.85ZM214.12,164.61l-4.81-2.88v5.85l4.81,2.72Zm-16.43-9.53v5.85l4.49,2.48v-5.77Zm0,17.47v5.93l6.81,3.84v-5.85Zm.08,45.27v5.85L208.83,230v-5.85Zm0,8.74v5.85l5.21,3V229.6Zm0,32.13,7,4v-5.84l-7-4Zm0,2.88v5.85l4,2.33V263.9Zm117.55,68L301,321.19v5.93l14.34,8.33Z" transform="translate(-157.46 -24.3)"/><path class="cls-9" d="M289.68,265.1a10,10,0,0,1-1,.72l-.12.08-.28.16a9.5,9.5,0,0,1-4.89,1.28,13.52,13.52,0,0,1-4.08-.76,22.05,22.05,0,0,1-3.25-1.44l-.6-.36a29.57,29.57,0,0,1-4.65-3.33l-.08-.08a32.51,32.51,0,0,1-3.32-3.32,43.32,43.32,0,0,1-4.77-6.73c-.11-.2-.22-.4-.32-.6q-1.12-2-2-4.05a33.39,33.39,0,0,1-3-13.3q0-6.62,3.09-9.94a9.2,9.2,0,0,1,4.16-2.6,8.56,8.56,0,0,1,1-.24q4.32-.83,9.86,2.36a33.61,33.61,0,0,1,10.9,10.42c.66,1,1.3,2,1.92,3l.24.44a42.48,42.48,0,0,1,1.92,3.81,38.24,38.24,0,0,1,1.49,3.8,33,33,0,0,1,1.48,6.7,29.91,29.91,0,0,1,.16,3.12Q293.61,261.72,289.68,265.1Zm-22.59-37.58a6.07,6.07,0,0,0-.81.4,6.8,6.8,0,0,0-3,3.52,10.05,10.05,0,0,0-.56,2.05,15.3,15.3,0,0,0-.24,2.8v0a22.6,22.6,0,0,0,1,6.41,25.73,25.73,0,0,0,1.36,3.61q.63,1.44,1.44,2.88c.29.49.59,1,.89,1.45a25.08,25.08,0,0,0,8.33,8.25q4.29,2.46,7.53,1.6a6.56,6.56,0,0,0,1.68-.72,6.76,6.76,0,0,0,1.45-1.08l0,0a7.11,7.11,0,0,0,1.4-2.08,12.53,12.53,0,0,0,1-5.21v-.08a20.72,20.72,0,0,0-.24-3.13,22.38,22.38,0,0,0-.56-2.6,30.11,30.11,0,0,0-3.05-7.1,25.25,25.25,0,0,0-9.21-9.69,13.69,13.69,0,0,0-3.69-1.56,7.32,7.32,0,0,0-4.44.16Z" transform="translate(-157.46 -24.3)"/><path class="cls-10" d="M261.84,281.09a12,12,0,0,1,1.88-1.09c.47-.22,1-.43,1.52-.64a1.34,1.34,0,0,1,0,1.53,4.33,4.33,0,0,1-1.2,1,4.49,4.49,0,0,0-1,.88l-.16.16c0,.11-.11.21-.16.32a.24.24,0,0,0,0,.12.43.43,0,0,0,0,.16v.08a.65.65,0,0,0,0,.2v0a.94.94,0,0,0,.12.28h-.2l-.48,1.72c0-.06-.07-.13-.12-.2a7.9,7.9,0,0,0-1.69-1.72,4.48,4.48,0,0,0-.72-.44.67.67,0,0,0,.16-.24l.2-.28a6,6,0,0,1,.36-.52l.2-.2a8.69,8.69,0,0,1,1-1A2,2,0,0,1,261.84,281.09Zm10.53,10.69-.4-.4a9.08,9.08,0,0,0-1-.76,8.85,8.85,0,0,0-1.88-.92,4,4,0,0,0-1.2-.24,28.23,28.23,0,0,1,3-5.61,28,28,0,0,0-1,3.61l.32.4c-.16.1,0,.05.56-.16a2.47,2.47,0,0,0,1.2-1.05,10.31,10.31,0,0,0,1.09-2l0-.08a4.63,4.63,0,0,1,.24-.84,3,3,0,0,1,.16-.36h.16a1.62,1.62,0,0,1,.88.08.76.76,0,0,0,.32.08A16.91,16.91,0,0,1,272.37,291.78Zm-37.1-10.25a3.48,3.48,0,0,1,1-1.93h.07l.17-.16,1.28,2.33V281c.53-.21.93-.88,1.2-2,.16-1.44.24-2.19.24-2.24,0-.54,0-1.07-.08-1.6a18.88,18.88,0,0,1,1.44,7.37l-3.12,2.64-.88-1.12-.4.24A4.24,4.24,0,0,1,235.27,281.53Z" transform="translate(-157.46 -24.3)"/><path class="cls-11" d="M261.88,287a1.19,1.19,0,0,1-.08-.16,3.94,3.94,0,0,0-1.45-1.52,3.58,3.58,0,0,0-.48-.24,2,2,0,0,0-.8-.16.24.24,0,0,1-.08-.16h.24a8,8,0,0,1,.4-1.2,4.48,4.48,0,0,1,.72.44,7.9,7.9,0,0,1,1.69,1.72c0,.07.08.14.12.2Zm6,2.49a4,4,0,0,1,1.2.24,8.85,8.85,0,0,1,1.88.92,9.08,9.08,0,0,1,1,.76l.4.4a14.21,14.21,0,0,1-1.12,1.61,1.87,1.87,0,0,1-.36.24,4.37,4.37,0,0,0,0-1,3.31,3.31,0,0,0-.16-.4l-.12-.44a3.38,3.38,0,0,0-2-2H268l-.2,0C267.81,289.65,267.84,289.56,267.89,289.46Zm5.45-6,.16-.08a3,3,0,0,0-.16.36,4.63,4.63,0,0,0-.24.84l0,.08a10.31,10.31,0,0,1-1.09,2,2.47,2.47,0,0,1-1.2,1.05c-.53.21-.72.26-.56.16l-.32-.4a28,28,0,0,1,1-3.61,7.76,7.76,0,0,1,.56-.8.77.77,0,0,1,.56-.24,2.78,2.78,0,0,1,.24.64,10.86,10.86,0,0,1,.08,1.36,3.65,3.65,0,0,1,.41-.88,1.58,1.58,0,0,1,.15-.24A2.49,2.49,0,0,1,273.34,283.45Zm-34.14-8.33c.05.53.08,1.06.08,1.6,0,0-.08.8-.24,2.24-.27,1.12-.67,1.79-1.2,2l-.24-5.12c0-.75,0-1.47-.08-2.17v-.16c-.06-.32-.11-.64-.16-1v-.32a4.05,4.05,0,0,0-.08-.72,24.94,24.94,0,0,1,1.84,3.61Z" transform="translate(-157.46 -24.3)"/><path class="cls-12" d="M229.9,287a7.87,7.87,0,0,1-2.64-1.52,3.72,3.72,0,0,0-.4-.32,8.39,8.39,0,0,1-2.24-2.08.1.1,0,0,1,.08,0,.25.25,0,0,1,.16,0,.66.66,0,0,0-.32-.08,5.22,5.22,0,0,1-.81-1.76,5.37,5.37,0,0,1-.16-1.21,9.26,9.26,0,0,0,3.93.72,10,10,0,0,0,1.36-.08,6.86,6.86,0,0,0,5.61-3.36,8.69,8.69,0,0,0,1.12-4.25c.48-1.65.94-3,1.37-4.08l.16.16a2.67,2.67,0,0,1,.24,1.2v.8a2.34,2.34,0,0,1-.08.48,4.05,4.05,0,0,1,.08.72v.32c0,.32.1.64.16,1v.16c0,.7.08,1.42.08,2.17l.24,5.12v.81l-1.28-2.33-.17.16h-.07a11.5,11.5,0,0,0,.4-1.12,7,7,0,0,1,.16-.8,9.51,9.51,0,0,1-8,5.45,13.3,13.3,0,0,1-1.44.08,7.89,7.89,0,0,1-1.6-.16l1.6.48,1.44.4a7.5,7.5,0,0,0,1.52.24,5.56,5.56,0,0,0,4.89-2.64,4.24,4.24,0,0,0,1,2.72c-.17.21-.33.43-.49.64a6.73,6.73,0,0,1-3.28,2.08H229.9Zm12.83,109.62a6.12,6.12,0,0,0,1.84-.48c1.17-.21,2.32-.42,3.44-.64a19.78,19.78,0,0,1,3.93-.24q4.89.57,7.85-2.24l.16-.12a4.4,4.4,0,0,0,.73-.92,5.25,5.25,0,0,0,.8-1,3.87,3.87,0,0,1-.85,2.36,5.07,5.07,0,0,1-.44.52,7.15,7.15,0,0,1-3.2,1.76,27.22,27.22,0,0,1-4.09.32,24.72,24.72,0,0,0-4.16.4v1.29q-.57.07-2.25.48a20.61,20.61,0,0,1-2.56.48q-2.73.24-3.85-2.81A2.72,2.72,0,0,0,242.73,396.59Zm-15.23-7.53a7.1,7.1,0,0,0,5.53-1l.16-.16,1.44-1.12v-.08a5.34,5.34,0,0,0,.56-.64q-1.51,6.64-7.21,3.84A.89.89,0,0,1,227.5,389.06Zm12.22-7.89-3.65,3.41.49-1.21.24-.64,3-2.64.08.88Z" transform="translate(-157.46 -24.3)"/><path class="cls-13" d="M224.54,282.93v0a.66.66,0,0,1,.32.08.25.25,0,0,0-.16,0,.1.1,0,0,0-.08,0C224.57,283,224.54,283,224.54,282.93Zm.4-10.06a8.81,8.81,0,0,1,2.64-2.8,13.44,13.44,0,0,1,4.89-2q3.76-.8,4.65,1l-.16-.16c-.43,1.06-.89,2.43-1.37,4.08a8.69,8.69,0,0,1-1.12,4.25,6.86,6.86,0,0,1-5.61,3.36,10,10,0,0,1-1.36.08,9.26,9.26,0,0,1-3.93-.72,2.74,2.74,0,0,1-.08-.64,15.74,15.74,0,0,1,.16-2.72A10.1,10.1,0,0,1,224.94,272.87Zm11.38,6.73a3.48,3.48,0,0,0-1,1.93,5.56,5.56,0,0,1-4.89,2.64,7.5,7.5,0,0,1-1.52-.24l-1.44-.4-1.6-.48a7.89,7.89,0,0,0,1.6.16,13.3,13.3,0,0,0,1.44-.08,9.51,9.51,0,0,0,8-5.45,7,7,0,0,0-.16.8A11.5,11.5,0,0,1,236.32,279.6ZM232.47,287a5.08,5.08,0,0,1-2.57,0h2.57Z" transform="translate(-157.46 -24.3)"/><path class="cls-14" d="M229.9,287a5.08,5.08,0,0,0,2.57,0,6.73,6.73,0,0,0,3.28-2.08c.16-.21.32-.43.49-.64l.4-.24.88,1.12a2.17,2.17,0,0,0-.48.48,5.17,5.17,0,0,0-1.21,2.17,5.36,5.36,0,0,0-.16,1.76,14.9,14.9,0,0,1-2.6-.56,20.61,20.61,0,0,1-6.61-3.45l.4-.4a3.72,3.72,0,0,1,.4.32A7.87,7.87,0,0,0,229.9,287Z" transform="translate(-157.46 -24.3)"/><path class="cls-15" d="M261.48,390.91a5.25,5.25,0,0,1-.8,1,4.4,4.4,0,0,1-.73.92l-.16.12q-3,2.81-7.85,2.24a19.78,19.78,0,0,0-3.93.24c-1.12.22-2.27.43-3.44.64l.48-.16q.72-.31,1.44-.72a15.94,15.94,0,0,0,4.09-2.72A4,4,0,0,0,253,389v-.16c0-.07,0-.15-.08-.24l-.56-1.28.8.08-.08.4q5.54-1.51,8.58,1.68a.91.91,0,0,1,0,1.13A3.18,3.18,0,0,0,261.48,390.91Zm-21.64-10.82-3,2.64.32-1.36.32-1.48.16-.68-.64-.88-.08-1.69-.08-1.2,3.2.4Z" transform="translate(-157.46 -24.3)"/><path class="cls-16" d="M282.07,223.23a34.4,34.4,0,0,1,6.09,6.09,47.08,47.08,0,0,1,3.53,5.25c.3.53.6,1.07.88,1.6q1.1,2.09,1.92,4.13a35.91,35.91,0,0,1,1.2,3.48,30.64,30.64,0,0,1,1.28,8.66q0,7.08-3.52,10.46a11,11,0,0,1-1.2,1l-.56.36a10,10,0,0,1-2,.88q3.93-3.37,3.93-10.82a29.91,29.91,0,0,0-.16-3.12,33,33,0,0,0-1.48-6.7,38.24,38.24,0,0,0-1.49-3.8,42.48,42.48,0,0,0-1.92-3.81l-.24-.44c-.62-1.07-1.26-2.08-1.92-3A33.61,33.61,0,0,0,275.5,223q-5.53-3.18-9.86-2.36a8.56,8.56,0,0,0-1,.24q.3-.26.6-.48c.26-.19.53-.37.8-.53A10.26,10.26,0,0,1,268,219c.21-.06.42-.12.64-.16q4.47-1,10.25,2.29A29.18,29.18,0,0,1,282.07,223.23Zm4.09,35.5a6.76,6.76,0,0,1-1.45,1.08,6.56,6.56,0,0,1-1.68.72q-3.24.86-7.53-1.6a25.08,25.08,0,0,1-8.33-8.25c-.3-.48-.6-1-.89-1.45q-.81-1.44-1.44-2.88a25.73,25.73,0,0,1-1.36-3.61,22.6,22.6,0,0,1-1-6.41v0a15.3,15.3,0,0,1,.24-2.8,10.05,10.05,0,0,1,.56-2.05,6.8,6.8,0,0,1,3-3.52,6.07,6.07,0,0,1,.81-.4,11,11,0,0,0-1.77,6.65,25.88,25.88,0,0,0,3.93,13.06,26.41,26.41,0,0,0,9.29,9.86,14.37,14.37,0,0,0,4.49,1.72A7.8,7.8,0,0,0,286.16,258.73Z" transform="translate(-157.46 -24.3)"/><path class="cls-17" d="M273.13,276.64c.83.48,1.19,1,1.09,1.44l-.88,3.37-.64,2.48a3.65,3.65,0,0,0-.41.88,10.86,10.86,0,0,0-.08-1.36,2.78,2.78,0,0,0-.24-.64.77.77,0,0,0-.56.24,7.76,7.76,0,0,0-.56.8,28.23,28.23,0,0,0-3,5.61c-.05.1-.08.19-.12.28a4,4,0,0,0-2,.36l-3.2,2.24a7.75,7.75,0,0,0-1.6,1l-.89.6.24-1,.08-.32,1.45-5.61v0l.28-1.08.48-1.72h.2a.94.94,0,0,1-.12-.28v0l.28-1a4.49,4.49,0,0,1,1-.88,4.33,4.33,0,0,0,1.2-1,1.34,1.34,0,0,0,0-1.53c-.54.21-1.05.42-1.52.64l.16-.56,1-3.76c.1-.42.51-.68,1.24-.76a2.2,2.2,0,0,1,.36,0,5.47,5.47,0,0,1,.81,0l-.33,1.28a2.42,2.42,0,0,0,.41,1.76,3.84,3.84,0,0,0,2,1.12,3.48,3.48,0,0,0,2.24-.08,2,2,0,0,0,.8-.48,1.23,1.23,0,0,0,.48-.8Zm-5.8,20.75,1.76-1.52a1.14,1.14,0,0,0,.52-.12l-1.08,4.13c-.11.42-.64.69-1.61.8a9.32,9.32,0,0,1-1.72-.08,12.56,12.56,0,0,1-1.52-.28Q265.54,298.92,267.33,297.39Z" transform="translate(-157.46 -24.3)"/><path class="cls-18" d="M286.16,258.73a7.8,7.8,0,0,1-3.13.08,14.37,14.37,0,0,1-4.49-1.72,26.41,26.41,0,0,1-9.29-9.86,25.88,25.88,0,0,1-3.93-13.06,11,11,0,0,1,1.77-6.65l.28-.12a7.32,7.32,0,0,1,4.44-.16,13.69,13.69,0,0,1,3.69,1.56,25.25,25.25,0,0,1,9.21,9.69,30.11,30.11,0,0,1,3.05,7.1,22.38,22.38,0,0,1,.56,2.6,20.72,20.72,0,0,1,.24,3.13v.08a12.53,12.53,0,0,1-1,5.21,7.11,7.11,0,0,1-1.4,2.08Z" transform="translate(-157.46 -24.3)"/><path class="cls-19" d="M240.08,395.71q1.13,3,3.85,2.81a20.61,20.61,0,0,0,2.56-.48q1.68-.41,2.25-.48v-1.29a24.72,24.72,0,0,1,4.16-.4,27.22,27.22,0,0,0,4.09-.32,7.15,7.15,0,0,0,3.2-1.76,5.07,5.07,0,0,0,.44-.52l.37.2q3.84,2.16-1.85,5.37l-8.41,4.81q-5.53,3.12-9.38,1l-22.83-13.22q-3.78-2.17,1.84-5.37l5.41-3a32,32,0,0,0,1.72,6.09.89.89,0,0,0,.48.88q5.69,2.81,7.21-3.84l.88-1.52,3.65-3.41.16.08q-.54,5.88-1,11.74c.05.16.11.32.16.48A4.82,4.82,0,0,0,240.08,395.71Zm-3-14.34-.32,1.36-.24.64Zm13.46,11.14.72-.56a3.81,3.81,0,0,0,1.6-3.17l.08,0V389A4,4,0,0,1,250.58,392.51Z" transform="translate(-157.46 -24.3)"/><path class="cls-20" d="M243.77,330.81a4.78,4.78,0,0,1-1.29.32,9.51,9.51,0,0,1-2.64.4A10.19,10.19,0,0,1,233,329.2c-.43-.26-.91-.53-1.44-.8a10.53,10.53,0,0,1-5.13-5.53,24.8,24.8,0,0,0,.32-2.52,20.05,20.05,0,0,0-3.29-12.82,18,18,0,0,0-1.12-1.56,20.17,20.17,0,0,1-4.24-16.67,3.87,3.87,0,0,1,2-2.57,7.09,7.09,0,0,1,1.52-.56,9.72,9.72,0,0,1,1.6-.16l3.21-.48-.24,1.12c1.65,3,3.71,4.73,6.17,5.21a10.35,10.35,0,0,0,1.68.2,6,6,0,0,0,4.09-1.08q2,1.2,3.92,2.57l1.29,1a14.84,14.84,0,0,0-1.53,1.08,10.88,10.88,0,0,0-2.92,3.6q-1.84,3.75-.36,8.94,1.13,4,1.84,8c.07.41.13.81.2,1.21a112,112,0,0,0,2.93,12.58C243.6,330.23,243.68,330.52,243.77,330.81Z" transform="translate(-157.46 -24.3)"/><path class="cls-21" d="M259,284.73a.24.24,0,0,0,.08.16,1.41,1.41,0,0,0-.4-.08Z" transform="translate(-157.46 -24.3)"/><path class="cls-22" d="M250.46,323a32.74,32.74,0,0,0,1,4.21q-3,1.6-5.85,2.89c-.35.15-.71.3-1.08.44l-.76.28c-.09-.29-.17-.58-.24-.88a112,112,0,0,1-2.93-12.58c-.07-.4-.13-.8-.2-1.21q-.72-4-1.84-8-1.49-5.19.36-8.94a10.88,10.88,0,0,1,2.92-3.6,14.84,14.84,0,0,1,1.53-1.08,7.71,7.71,0,0,1,1.56,1.16,9.65,9.65,0,0,1,1.76,2.32c-.39,0-.77,0-1.16,0l-2.08-.08a4.72,4.72,0,0,0-2,3.21q-1.68,8.49,6.65,7.69l.49-.16v.48a125.4,125.4,0,0,0,1.84,13.7A.34.34,0,0,0,250.46,323Z" transform="translate(-157.46 -24.3)"/><path class="cls-23" d="M242.73,396.59a2.72,2.72,0,0,1-2.65-.88,4.82,4.82,0,0,1-1-2.24c0-.16-.11-.32-.16-.48q.47-5.87,1-11.74a2.36,2.36,0,0,0,0-.28l-.08-.88.16-4.25q1-8.82,1.76-17.55a6.12,6.12,0,0,0-.08-1.76l-1-3.53c0-.16-.1-.32-.16-.48l-.4-1.44v.08q-1.12-3.36-2.4-6.65-.9-2.38-1.72-4.85l-.13-.36q-.74-2.3-1.4-4.65c-.5-1.8-1-3.61-1.4-5.45a10.19,10.19,0,0,0,6.81,2.33,27.38,27.38,0,0,0,.88,2.8c.86,2.51,1.36,4,1.53,4.49a2.53,2.53,0,0,0,.12.36c.4,1.46.94,3.17,1.6,5.13.44,1.26.94,2.64,1.48,4.13a29.2,29.2,0,0,1,1.68,9.13,79.46,79.46,0,0,1-1,11.94q-1.51,9.69-1.84,13,0,.54-.12,1.2c-.13,1.33-.33,3.07-.6,5.21q-.57,4.25-.72,6.17C242.81,395.45,242.78,396,242.73,396.59Z" transform="translate(-157.46 -24.3)"/><path class="cls-24" d="M227.5,389.06a32,32,0,0,1-1.72-6.09,34.87,34.87,0,0,1-.36-9.61c.21-2.25.4-4.46.56-6.65a91.32,91.32,0,0,1,2.56-16.11,10.09,10.09,0,0,0,.24-3.37q-.75-6.33-1.76-12.7c-.24-1.52-.49-3-.76-4.56,0-.09,0-.19,0-.29a17,17,0,0,1,.24-6.81,10.53,10.53,0,0,0,5.13,5.53c.53.27,1,.54,1.44.8.43,1.84.9,3.65,1.4,5.45q.66,2.36,1.4,4.65a1.45,1.45,0,0,1,0,.28q-.4,3.66-1.64,12.14-2.09,15.06-2.08,18.67v3.77c0,2,.09,3.82.16,5.57,0,.67.05,1.32.08,2a51.31,51.31,0,0,0,.72,6.41A7.1,7.1,0,0,1,227.5,389.06Zm9.62-7.69-.56,2,.88-3.48Z" transform="translate(-157.46 -24.3)"/><path class="cls-25" d="M244.57,396.11a6.12,6.12,0,0,1-1.84.48c.05-.64.08-1.14.08-1.52q.15-1.92.72-6.17c.27-2.14.47-3.88.6-5.21q.08-.66.12-1.2.31-3.28,1.84-13a79.46,79.46,0,0,0,1-11.94,29.2,29.2,0,0,0-1.68-9.13c-.54-1.49-1-2.87-1.48-4.13-.66-2-1.2-3.67-1.6-5.13a2.53,2.53,0,0,1-.12-.36c-.17-.48-.67-2-1.53-4.49a27.38,27.38,0,0,1-.88-2.8,9.51,9.51,0,0,0,2.64-.4,4.78,4.78,0,0,0,1.29-.32l.76-.28c.37-.14.73-.29,1.08-.44q2.8-1.29,5.85-2.89A37.57,37.57,0,0,1,254.1,336a38.28,38.28,0,0,1,.57,7c0,1.07,0,2.14-.08,3.2-.07,1.38-.15,2.74-.25,4.09q-.39,5.28-1.2,10.5-1.27,8.42-1.92,16.9a51.12,51.12,0,0,0,0,8,1.79,1.79,0,0,0,1.12,1.6l.56,1.28v.2a3.81,3.81,0,0,1-1.6,3.17l-.72.56a15.94,15.94,0,0,1-4.09,2.72q-.72.4-1.44.72Zm-8.74-56.81.13.36q.82,2.46,1.72,4.85,1.27,3.28,2.4,6.65a86.93,86.93,0,0,0-2.64,13.3q-.57,4.73-.72,9.54a10.83,10.83,0,0,0,.16,2.64l.08,1.69.64.88-.16.68-.88,3.48-.49,1.21-.88,1.52a5.34,5.34,0,0,1-.56.64v.08l-1.44,1.12-.16.16a51.31,51.31,0,0,1-.72-6.41c0-.64-.06-1.29-.08-2-.07-1.75-.12-3.6-.16-5.57v-3.77q0-3.6,2.08-18.67,1.24-8.49,1.64-12.14A1.45,1.45,0,0,0,235.83,339.3Z" transform="translate(-157.46 -24.3)"/><path class="cls-26" d="M217.64,149.07v5.85l3.93,2.32v-5.85Zm-5.28-3-3.93-2.16v5.85l3.93,2.24Zm62.82,36.3v5.85l2.88,1.6V184Zm8.49,10.82,2.81,1.6v-5.85l-2.81-1.6Zm4.09-3.61v5.85l2.8,1.69v-5.85Zm-5.61,2.65v-5.77l-2.88-1.76v5.85Zm14.74,8.57,18.35,10.58v-5.85L296.89,194.9Zm-32.53-18.83v-5.85l-4-2.24v5.77Zm-11.62-12.66-9.53-5.37v5.77l9.53,5.53ZM357.87,374l-.56.44-2.8,1.84c-1.18.75-2.32,1.44-3.45,2.09v-141a5.83,5.83,0,0,0-2-3.76L165.72,126.39a8.42,8.42,0,0,0-3.53-1.28l7.29-3.93a3.47,3.47,0,0,1,4,0L358,228.88q2.64,1,2.48,3.44v4.25c-.05,2.73-.08,5.45-.08,8.18V267.9q0,3.53-.08,7.14V295q0,3.12-.08,6.17v19.39q0,3.69-.16,7.45v36.62a53.59,53.59,0,0,1-.4,6.49,3.51,3.51,0,0,1-1.44,2.73ZM197.69,143.46l5.77,3.28v-5.85l-5.77-3.28Z" transform="translate(-157.46 -24.3)"/><path class="cls-27" d="M212.68,235.21v5.85l-3.61-2.16v-5.85Zm-.32-9,8.49,4.89V237l-8.49-4.8Zm12,12.83v-5.85l5.77,3.28v5.85Zm-1.21,2.16,5,2.88V250l-5-3Zm29.57,45.23c-1.06.23-2,.41-2.88.52s-1.68.26-2.53.37l-2.84-1.65v-5.93l8.25,4.81Zm0-22.31L249,262.05v-5.93l3.76,2.17Zm-6.81-18.51,6.81,3.92v5.85l-6.81-3.92Zm23.84,19.63-9.42-5.37V254l7.1,4a32.51,32.51,0,0,0,3.32,3.32Zm13.66,2.08,2.65,1.53v5.84l-6.73-3.92v-4.21A13.52,13.52,0,0,0,283.43,267.34Zm-23.08-4.57,4,2.33V271l-4-2.4ZM252.74,273l-3-1.68v-5.85l3,1.68Zm0,2.89v5.77L241.28,275v-5.85Zm11.14,3.6-3.53-2v-5.85l5.73,3.33c-.73.08-1.14.34-1.24.76Zm-1.16,4.41a.65.65,0,0,1,0-.2v-.08a.43.43,0,0,1,0-.16.24.24,0,0,1,0-.12c.05-.11.11-.21.16-.32l.16-.16Zm-2.37,9.09v-.32h.08Zm13-11.49v2a2.49,2.49,0,0,0-.49.24,1.58,1.58,0,0,0-.15.24Zm-13,1v-2.25l1.49.85a2,2,0,0,0-.28.2,8.69,8.69,0,0,0-1,1Zm3.33,17.83a12.56,12.56,0,0,0,1.52.28l5.09,3v5.85l-9.94-5.77v-1C261.48,301.9,262.59,301.13,263.68,300.32Zm-39.14-17.43v0l-1.13-.68V276.4l.24.16a15.74,15.74,0,0,0-.16,2.72,2.74,2.74,0,0,0,.08.64,5.37,5.37,0,0,0,.16,1.21A5.22,5.22,0,0,0,224.54,282.89Zm3-12.82a8.81,8.81,0,0,0-2.64,2.8v-4.33Zm-14.9-17.31v5.85L197.77,250V244.1Zm5.93,3.36V262l-2.17-1.28v-5.85Zm1.84,7v-5.85l2.24,1.28v5.85ZM210.11,260l7.13,4.09v5.85l-7.13-4.09Zm7.62-7.21v-5.85l7.69,4.33v5.85ZM216,245.87v5.85l-18.27-10.5v-5.85Zm11,6.33,6.81,4v5.85l-6.81-4Zm-14.18,18v5.85l-5-2.81v-5.85Zm3.12,1.84,5,2.88v5.85l-5-2.88Zm8.49-12.5,2.25,1.28v5.77l-2.25-1.2Zm28.29,35v2.56a26.35,26.35,0,0,1-2.64.56l-.8-.44v-2.08c1.46-.21,2.53-.39,3.2-.56Zm18.27.6,3.69,2.08v5.85L271,301Zm16.75-19.47v-5.85l7.69,4.4v5.85ZM285,277v5.93l-3.61-2.09V275Zm2.24,7.29V278.4l3.68,2v5.85Zm21.31,32.53,6.73,4v5.85l-6.73-3.93Zm-13.14-7.53v5.85l-7.69-4.49v-5.85Zm2.41,1.36,7.69,4.49V321l-7.69-4.49Zm-10.1,8.82v-5.85l5.61,3.2v5.93Zm-10.66-6.17v-5.77l6.33,3.6v5.85Zm4.73-11.86,3.69,2.16v5.85l-3.69-2.16Zm5.05,0-3.45-1.92v-5.85l3.45,1.92Zm4-3.53v5.85L287.76,302V296Zm-14.5,6.25v-5.85l3.77,2.17v5.85Zm-.72-9.21v-5.85l6.89,4.09v5.76Zm10.42-8.58v5.77l-4.25-2.4v-5.77Zm15.14,5.77v-5.85l14.1,8.26v5.85Zm-6.33,5.21v-5.77l20.43,11.78v5.77Zm-2.64-7.37v5.77l-4.49-2.56V287.3Zm.08,14.58v-5.93l23,13.39v5.93Zm1-22.75,4.08,2.32v5.85l-4.08-2.32Zm3.85-.72V275.2l18.18,10.57v5.85Zm-99.37-54.49,5.21,3v5.77l-5.21-3Zm0-8.74,11.06,6.33V230l-11.06-6.33Zm0,43.75,4,2.33v5.85l-4-2.33Zm0-2.88v-5.85l7,4v5.84Zm117.55,70.84v5.92L301,327.12v-5.93Z" transform="translate(-157.46 -24.3)"/><g class="cls-28"><path class="cls-29" d="M212.68,79.75v2.33l-3.61-2.17v-.16Zm10.41,2.49,5,2.88V91l-5-2.88Zm1.29-2.17v-.32h5.68v3.61Zm36,23.72,4.09,2.33V112l-4.09-2.33Zm0-8.81,10.42,6v5.85l-10.42-6Zm-42.71,36.7L221,133.6v5.77l-3.37-1.92Zm4.81,11.46,2.89,1.6v5.85l-2.89-1.6Zm-6.33-3.69v5.85l-18.43-10.66v-5.85Zm7.93-7-3-1.76v-5.85l3,1.76Zm3.61,5,3.45,2v5.85l-3.45-2.08Zm-14.82-26.12v5.85l-5.05-2.81v-5.85Zm8.09,4.72v5.85l-5-2.88v-5.85Zm2.48,7.3v-5.93l5.45,3.28v5.77Zm-9.29-2.41,3,1.68v5.93l-3-1.76ZM211.07,119V125l-13.38-7.77v-5.85Zm13.87-3.69v-5.77L231,113v5.85ZM212.68,93.78v5.77l-15-8.66V85.12Zm5.85,3.36V103l-2.17-1.28V95.86Zm5.92,9.22v-5.77l2.25,1.2v5.85Zm-1.84-1L220.37,104V98.18l2.24,1.37Zm-12.5-4.41,7,4.09v5.85l-7-4Zm7.53-7.13V87.93l7.7,4.32V98.1ZM216,86.89v5.85L197.69,82.16V79.75h6Zm17.71,10.25V103L227,99.07V93.22Zm26.6,24.12,5.77,3.37v5.77l-5.77-3.29Zm13,4.57-13-7.45v-5.85l13,7.45Zm-20.6-9v5.84L241.2,116V110.2Zm-8.25,4.08,8.17,4.65v5.93l-8.17-4.81Zm8.25-12.74V114l-3-1.76v-5.85Zm-3.76-11,3.76,2.17v5.85L249,103Zm-32.62,60,7.37,4.17v5.85l-7.37-4.25Zm1.28-8.09,3.93,2.32v5.85l-3.93-2.32Zm-6,5.29v5.85l-13.94-8v-5.85Zm17.71-7.3v5.85l-2.8-1.6v-5.85Zm4.41,2.65v5.77L231,153.8V148Zm1.2,6.41v-5.85l2.89,1.68v5.93ZM227,163.25l2.8,1.6v5.85l-2.8-1.6ZM212.36,146V152l-3.93-2.24v-5.85Zm48,1.53,3,1.68v5.85l-3-1.76Zm0,8.73,12.5,7.21v5.85l-12.5-7.21Zm-11.69,7.85V158.2l4.08,2.33v5.85Zm4.08-24-3.44-1.92V132.4l3.44,1.92Zm-2.24,1.61,2.24,1.28v5.85l-2.24-1.28Zm24.2-3.53v5.85L271,141.94v-5.77Zm-14.35,6.41v-5.93l9.86,5.77v5.85Zm0-8.73v-5.85l6.82,3.84v5.85Zm-20.19,14.5v-5.85l12.58,7.29v5.77Zm43,19,2.89,1.76V177l-2.89-1.68ZM291.45,183l3.92,2.33v5.77l-3.92-2.25Zm5.2-5.77V183l-7.29-4.16V173Zm7.06-4.64v5.85l-4.81-2.81v-5.85Zm11.53,30-5.68-3.29v-5.85l5.68,3.29Zm0-14.59v5.85l-13.78-8V180Zm0-17.55v5.85l-14.34-8.25v-5.85Zm-4.32,6.25,4.32,2.57v5.77l-4.32-2.57Zm-2.41-18.83,6.73,3.85v5.93l-6.73-3.93Zm-13.14-7.61V156l-7.61-4.33v-5.93ZM305.55,162l-7.69-4.49v-5.77l7.69,4.33ZM277.1,148.43l6.25,3.6v5.85l-6.25-3.52Zm8,13.38,5.12,3v5.77l-5.12-3Zm2.64-1.44v-5.85l5.61,3.36v5.85Zm-6-18,3.77,2.16v5.85l-3.77-2.24Zm6-5.37,3,1.84v5.85l-3-1.84Zm-1-.48v5.85l-3.45-2v-5.85Zm-10.42,8.57v-5.85l3.69,2.17v5.85Zm-.72-15.06,7,4v5.85l-7-4Zm10.42-2.73v5.77l-4.33-2.4V125Zm15.06,5.77v-5.85l14.1,8.26v5.85Zm-8.89,12.34v-5.77l23,13.3v5.85Zm-.08-14.58v5.85l-4.41-2.65v-5.77Zm2.72,7.45v-5.85l20.35,11.78v5.85Zm-1.68-15.54,4.09,2.32V131l-4.09-2.33Zm3.85-.73v-5.85l18.18,10.5v5.85Zm-9.3-5.45v-5.84l7.61,4.4v5.93Zm-.48,2.65,3.68,2.16v5.85l-3.68-2.08ZM285,118v5.85l-3.6-2.09v-5.85Zm1.13-8.1v5.85l-6.81-4v-5.85Zm-3.93,82.3-2.88-1.68v-5.85l2.88,1.76Zm5.61-2.65,2.8,1.69v5.85l-2.8-1.69Zm-4.09,3.61v-5.85l2.81,1.6v5.85Zm-8.49-10.82,2.88,1.69v5.76l-2.88-1.6ZM285.36,197v5.85l-3.45-2V195Zm15.3-8.74,3.93,2.25v5.85l-3.93-2.17ZM292,200.75l3.36,1.93v5.85L292,206.6Zm4.88,0V194.9l18.35,10.58v5.85Zm9.54,14.19v-5.85l8.81,5.13v5.84ZM302,221.19v-5.93L315.24,223v5.85Zm-9.93,3v-5.85l5.05,2.89v5.85Zm-.16-14.66v5.85L289,213.57V207.8Zm3.92,2.16,3,1.76v5.85l-3-1.76Zm-30.61,8.62q-.3.22-.6.48a9.2,9.2,0,0,0-4.16,2.6l-.13-.08V217.5ZM268,219l-7.62-4.36v-5.85l8.26,4.8v5.25C268.39,218.86,268.18,218.92,268,219Zm25.48,43.92,7.29,4.2v5.77L292.25,268v-4.12A11,11,0,0,0,293.45,262.9Zm2.24-19.12a35.91,35.91,0,0,0-1.2-3.48v-3.09l2.16,1.28v5.85Zm-6.09-20.91-5.37-3.29v-5.85l5.37,3.21Zm-7.53.36v-2l6.09,3.6v4.45A34.4,34.4,0,0,0,282.07,223.23Zm29.25,6.21,3.92,2.32v5.85l-3.92-2.32Zm-3,12.82v-5.77l6.89,4v5.85Zm-12.5-7.13v-5.85l7.13,4.09v5.85Zm9.38-3.37-5.05-2.88v-5.77l5.05,2.8Zm-35.34-61.3v5.85l-9.54-5.37V165Zm-17.15-1.2v5.93l-9.53-5.53v-5.77Zm11.62,12.66-4-2.32v-5.77l4,2.24Zm-11.62-3.84v5.85l-12.58-7.22v-5.85Zm-9.93,11.69,9.93,5.77v5.93l-9.93-5.76Zm3,10.58,6.89,3.93v5.85l-6.89-3.85Zm6.89-13.46v5.77l-3.2-1.84v-5.77Zm20.11,8.73-12.5-7.29v-5.85l12.5,7.29ZM216,218.14V224l-18.35-10.58v-5.77Zm1.6,6.89V219.1l7.7,4.41v5.85ZM212,207.08v5.77l-14.26-8.17v-5.85Zm3.85,8v-5.85l4,2.32v5.85Zm6.33-2.25,3.69,2.17v5.85l-3.69-2.09Zm3.21-1-4.49-2.48v-5.85l4.49,2.56Zm14.42,8.34v-5.77l13,7.45v5.85Zm-11.7-3.77,3.69,2.08v5.85l-3.69-2.08Zm-1-9.3,4.25,2.41v5.77L227,212.85Zm-11.86-24.36v5.85l-7.61-4.4v-5.93Zm15.3,17.55,7,4v5.85l-7-4.09Zm6.18-5.21v5.85L233,198.75V193Zm5.36,9-3.6-2.17V196l3.6,2.16Zm-12.42-4.25v5.77l-3.28-1.92v-5.85Zm-2-4.17v-5.85l3.69,2.17v5.85Zm-6.81-1v5.77l-23.08-13.3v-5.77Zm4.57,2.57v5.85l-3.13-1.77v-5.85Zm0-2.89-7.7-4.4v-5.77l7.7,4.32Zm-13.22-22.19v5.77l-14.43-8.26v-5.77Zm7.53,4.32,5.69,3.29v5.85l-5.69-3.29Zm8.25-3.92v5.85l-5.21-3.05v-5.77Zm1.76,9.69,6.25,3.61v5.85l-6.25-3.53Zm32.86,16.11-2.17-1.2v-5.93l2.17,1.36ZM260.35,200l3.37,1.93v5.84l-3.37-1.92Zm-26.6,34.22L227,230.32v-5.85l6.73,4Zm14.91-.16v-5.85l4.08,2.32v5.85Zm-6.34,5.13v-5.85l10.42,5.93v5.93Zm10.42-20.36-5.85-3.28v-5.77l5.85,3.28Zm7.61,27.81q.88,2,2,4.05l-2-1.17Zm-42.14-44.8v5.77L197.69,196V190.1Zm70.51,63.95V266l-.12-.08Zm11.7-1.84v-5.85l3.61,2.16v5.85Zm14.82-6v5.85l-18.18-10.5v-5.93Zm0-8.74v5.85l-14.82-8.65v-5.77Zm0,26.29v5.85l-11-6.42v-5.76Zm0-8.74v5.85l-5.12-3v-5.85ZM214.12,164.61v5.69l-4.81-2.72v-5.85Zm-16.43-38.7v-5.85l9,5.21v5.85Zm0-23.32,4,2.33v5.85l-4-2.33Zm0-8.73,7.05,4v5.85l-7.05-4Zm0,49.6v-5.85l5.77,3.28v5.85Zm0,11.62,4.49,2.56v5.77l-4.49-2.48Zm0,17.47,6.81,3.92v5.85l-6.81-3.84Z" transform="translate(-157.46 -24.3)"/></g><path class="cls-30" d="M252.74,286.45c.39-.08.79-.18,1.2-.28a7.33,7.33,0,0,1,1.37,2.09,5.48,5.48,0,0,1-.16,5.13l.08.64c-1,.23-1.83.41-2.49.52l-.24,0c-.67.17-1.74.35-3.2.56-.86.13-1.85.26-3,.4-.47.06-.93.1-1.4.12a7.71,7.71,0,0,0-1.56-1.16l-1.29-1q-1.92-1.37-3.92-2.57v-.08h-.08l-2.41-1.36a5.36,5.36,0,0,1,.16-1.76,70.37,70.37,0,0,0,11.5-.44c.85-.11,1.69-.23,2.53-.37S251.68,286.68,252.74,286.45Zm4.41,7a5.17,5.17,0,0,0,1-3.21,7.43,7.43,0,0,0-1.6-4.65.27.27,0,0,0-.08-.16c.64-.16,1.36-.34,2.16-.56a4.2,4.2,0,0,1,1.2.16,3.58,3.58,0,0,1,.48.24,3.94,3.94,0,0,1,1.45,1.52,1.19,1.19,0,0,0,.08.16v0l-1.45,5.61h-.08C259.61,292.79,258.54,293.07,257.15,293.47Zm-4.41,3.64a26.18,26.18,0,0,0,7.37-3.2l.89-.6a7.75,7.75,0,0,1,1.6-1q3.43-.39,4.73,5.05-1.79,1.53-3.65,2.93c-1.09.81-2.2,1.58-3.33,2.32a68.56,68.56,0,0,1-7.77,4.37,26.44,26.44,0,0,1-4,1.68l-.49.16q-8.33.81-6.65-7.69a4.72,4.72,0,0,1,2-3.21l2.08.08c.39,0,.77,0,1.16,0a27.53,27.53,0,0,0,3.41-.32A26.35,26.35,0,0,0,252.74,297.11Zm16.87-1.36a1.14,1.14,0,0,1-.52.12c0-.53.05-1,0-1.48-.08-1.65-.52-2.71-1.32-3.17l-.48-.24a15.58,15.58,0,0,1-1.53-.88,4,4,0,0,1,2-.36l.2,0h.64a3.38,3.38,0,0,1,2,2l.12.44a3.31,3.31,0,0,1,.16.4,4.37,4.37,0,0,1,0,1,3.14,3.14,0,0,1-.44,1.2A2.06,2.06,0,0,1,269.61,295.75Z" transform="translate(-157.46 -24.3)"/><path class="cls-31" d="M276.1,265.14l-3,11.5-.28,1a1.23,1.23,0,0,1-.48.8,2,2,0,0,1-.8.48,3.48,3.48,0,0,1-2.24.08,3.84,3.84,0,0,1-2-1.12,2.42,2.42,0,0,1-.41-1.76l.33-1.28,2.52-9.62,1-3.89.08.08a29.57,29.57,0,0,0,4.65,3.33Z" transform="translate(-157.46 -24.3)"/></svg>