<svg id="Layer_9" data-name="Layer 9" xmlns="http://www.w3.org/2000/svg" viewBox="0 0 350 254.84"><defs><style>.cls-1,.cls-8{fill:#577ca0;}.cls-1{opacity:0.4;}.cls-2{fill:#212a38;}.cls-3{fill:#d8e4ea;}.cls-4{fill:#ffbfa6;}.cls-5{fill:#fff;}.cls-6{fill:#e8563d;}.cls-7{fill:#bf391f;}</style></defs><polygon class="cls-1" points="121.76 90.13 207.06 134.29 80.84 207.4 0 160.43 121.76 90.13"/><path class="cls-2" d="M291.77,125.88a6.54,6.54,0,0,0-1.75-.64l-.21,0a7.57,7.57,0,0,0-1.86-.09l-.36,0a10.19,10.19,0,0,0-2.06.45c-.45.15-.92.4-1.39.61s-.83.34-1.26.59l-14,8.11L177.47,188l-14,8.11a20.83,20.83,0,0,0-3.07,2.28c-.35.31-.69.64-1,1s-.87.87-1.28,1.34-1,1.13-1.42,1.73c-.11.14-.22.27-.32.42-.59.81-1.14,1.67-1.65,2.54l-.24.43c-.49.87-.94,1.76-1.34,2.67l-.18.42a28.51,28.51,0,0,0-1,2.76c-.05.16-.09.33-.14.49-.24.85-.43,1.69-.58,2.53,0,.16-.07.32-.09.48a19.22,19.22,0,0,0-.23,3l.57,102.48c0,4.07,1.49,6.93,3.82,8.25l-8.18-4.66c-2.34-1.32-3.8-4.18-3.82-8.25l-.58-102.49a19.67,19.67,0,0,1,.21-2.83,1.22,1.22,0,0,1,0-.17c0-.15.06-.31.09-.47.09-.54.18-1.07.31-1.61.08-.31.18-.61.27-.92s.09-.33.14-.5l.12-.43c.19-.58.39-1.14.62-1.71.08-.21.18-.41.26-.61l.18-.42c.09-.2.17-.4.26-.59.25-.54.52-1.08.8-1.6.09-.17.19-.32.28-.49l.24-.42c.14-.23.26-.47.4-.7q.54-.85,1.11-1.68l.13-.17.33-.42c.31-.42.63-.85,1-1.25.14-.17.31-.31.45-.47.42-.47.85-.91,1.28-1.34.24-.24.45-.5.69-.72s.24-.16.35-.26a19.66,19.66,0,0,1,3.07-2.28l14-8.12,91.44-53.12,14-8.12.22-.12c.36-.2.7-.3,1-.46a12.66,12.66,0,0,1,1.38-.61l.13-.06a10.87,10.87,0,0,1,1.58-.37c.13,0,.24,0,.36,0l.36,0a5.48,5.48,0,0,1,.57,0,10,10,0,0,1,1.12.09l.17,0,.21.06a4.72,4.72,0,0,1,.65.15,6.76,6.76,0,0,1,1,.41l.14.08Z" transform="translate(-72.6 -120.39)"/><path class="cls-3" d="M295.59,134.15c0-8.09-5.76-11.41-12.71-7.37l-14,8.11L177.47,188l-14,8.11c-6.95,4-12.62,14-12.57,22.07l.57,102.48c0,8,5.72,11.36,12.63,7.42l14.07-8.18,91.45-53.12,14.14-8.22c6.88-4.11,12.42-13.93,12.38-21.95Z" transform="translate(-72.6 -120.39)"/><path class="cls-2" d="M201.67,200.67c2.45,1.4,4,4.42,4,8.72,0,8.59-6,19-13.48,23.35l0-15.54,0,15.54c-3.74,2.16-7.13,2.38-9.59,1s-4-4.43-4-8.71c0-8.59,6-19.06,13.49-23.38C195.81,199.49,199.2,199.29,201.67,200.67Zm-36.76,8.75.14,46.9L219.32,225l-.13-46.9Z" transform="translate(-72.6 -120.39)"/><path class="cls-2" d="M212.33,277.78l-40,23.09V297l40-23.09Zm0-13.55-40,23.09,0-17.42,40-23.1Zm-47.22,1.84.14,46.9,54.27-31.33-.13-46.91Z" transform="translate(-72.6 -120.39)"/><path class="cls-2" d="M243.33,257.36l8.56-7.69,8.57-1.65,5.74-5.2,8.83-1.91v.67l-40,23.09,0-5.26Zm0-10.15,8.54-12.06,8.58-.41,5.74-5.22,8.84.8v6.37l0,4.22-8.83,1.91-5.74,5.2-8.57,1.65-8.56,7.69L235,259.41V253.2l0-8.33Zm-15.53-17.34.14,46.9,54.27-31.33L282,198.53Z" transform="translate(-72.6 -120.39)"/><path class="cls-2" d="M274.85,178.16l-40,23.09,0-10.65,40-23.09Zm-.06-20.33-40,23.09v-3.87l40-23.09Zm-47.18,15.39.14,46.9L282,188.79l-.14-46.9Z" transform="translate(-72.6 -120.39)"/><polygon class="cls-4" points="162.18 56.66 202.18 33.56 202.19 37.43 162.19 60.53 162.18 56.66"/><polygon class="cls-5" points="162.22 70.21 202.22 47.12 202.25 57.76 162.25 80.86 162.22 70.21"/><polygon class="cls-5" points="99.72 176.61 139.72 153.51 139.73 157.38 99.73 180.48 99.72 176.61"/><polygon class="cls-6" points="99.64 149.5 139.64 126.41 139.69 143.83 99.69 166.92 99.64 149.5"/><path class="cls-4" d="M192.08,201.64l0,15.56L178.59,225C178.56,216.43,184.61,206,192.08,201.64Z" transform="translate(-72.6 -120.39)"/><path class="cls-3" d="M192.08,201.64c3.73-2.15,7.12-2.35,9.59-1l-9.54,16.53Z" transform="translate(-72.6 -120.39)"/><path class="cls-5" d="M178.59,225c0,4.28,1.54,7.29,4,8.71l9.55-16.53Z" transform="translate(-72.6 -120.39)"/><path class="cls-7" d="M201.67,200.67c2.45,1.4,4,4.42,4,8.72,0,8.59-6,19-13.48,23.35l0-15.54Z" transform="translate(-72.6 -120.39)"/><path class="cls-8" d="M192.13,217.2l0,15.54c-3.74,2.16-7.13,2.38-9.59,1Z" transform="translate(-72.6 -120.39)"/><polygon class="cls-5" points="162.37 124.48 170.7 126.81 179.24 114.76 187.82 114.35 193.56 109.13 202.39 109.93 202.41 116.29 193.58 116.83 187.85 125.59 179.26 123.07 170.71 129.94 162.39 132.81 162.37 124.48"/><polygon class="cls-7" points="162.41 139.01 170.73 136.97 179.28 129.27 187.86 127.63 193.59 122.43 202.42 120.52 202.43 121.19 162.43 144.28 162.41 139.01"/><polygon class="cls-4" points="162.39 132.81 170.71 129.94 179.26 123.07 187.85 125.59 193.58 116.83 202.41 116.29 202.42 120.52 193.59 122.43 187.86 127.63 179.28 129.27 170.73 136.97 162.41 139.01 162.39 132.81"/><path class="cls-4" d="M341.67,224.36l-1.52.41c.15,8.74.31,19,.32,29.7,0,2.64,0,5.3,0,8a3.23,3.23,0,0,0,.59-.22C348.09,258.44,341.43,237.08,341.67,224.36Z" transform="translate(-72.6 -120.39)"/><polygon class="cls-6" points="274.72 163.94 258.72 147.74 267.45 131.42 283.45 147.63 274.72 163.94"/><path class="cls-4" d="M316.47,192.9,316,193c.09.1.16.21.24.31C316.33,193.2,316.4,193.05,316.47,192.9Z" transform="translate(-72.6 -120.39)"/><path class="cls-2" d="M318.4,185a7,7,0,0,1-1.17-1.24c-1.25-1.69-1.56-3.58-.69-4.22a1.88,1.88,0,0,1,2,.23c.28-1.84,1.17-3.29,3.84-3.26,6.85.08,8.58-1.42,11.13-2.23-1.06-4.59-4.08-8.19-9.75-8.87-5.18-.58-14.41,2.92-7.4,18.79a11.55,11.55,0,0,1,.85,3C318,186.85,318.31,186,318.4,185Z" transform="translate(-72.6 -120.39)"/><path class="cls-2" d="M342.8,224.06c-.66-17.76-1.32-30.66-13.95-32.31l-.29.23a28.53,28.53,0,0,1,2.26,5.37c4.12,12.94,4.75,36.13,4.75,59.25a6.37,6.37,0,0,0,4.9-2.13c0-10.73-.17-21-.32-29.7l1.52-.41Z" transform="translate(-72.6 -120.39)"/><path class="cls-2" d="M336.82,317.91c-3.08,1.56-8.44,1.85-10.94.63a29.23,29.23,0,0,0-.35,5c8.37,0,12.09,5.53,22.58,3C349,321.67,340.34,324,336.82,317.91Z" transform="translate(-72.6 -120.39)"/><path class="cls-2" d="M311,327.25c-.48,5.29,4,4.91,5.67,7.81,2.94,5,1.9,7.33,9.28,7.62,8.1,0-.71-7.95-1.95-10.21a10.14,10.14,0,0,1-1.59-4.53C318.42,328.91,313.4,328.37,311,327.25Z" transform="translate(-72.6 -120.39)"/><path class="cls-2" d="M319.48,199.75a21.5,21.5,0,0,0-3.23-6.41c-.08-.1-.15-.21-.24-.31a34.73,34.73,0,0,0-14.42,8.74,47.1,47.1,0,0,0-10,14.65,38.62,38.62,0,0,1,7.63,5c1,.83,1.95,1.62,2.76,2.27a26.25,26.25,0,0,1,8.05-6c.09,7.11-.39,12.44-.58,19.8l1,.66c1.78-3,5-4.33,8.57-2.48-2.92,8.81-6.61,10-9.64,8.37,0,3.59.08,7.7.34,12.63,0,.13,0,.27,0,.4a30.62,30.62,0,0,0,11.28,1.92C322.54,234.61,323.69,212.43,319.48,199.75Z" transform="translate(-72.6 -120.39)"/><path class="cls-4" d="M310.5,238.08l-1-.66c-3.77-2.44-11.34-8-11.37-12.58a8.15,8.15,0,0,1,1.14-3.44,38.62,38.62,0,0,0-7.63-5,17.58,17.58,0,0,0-1.59,7.84c.49,5.54,5.54,12.4,19.38,19.69,3.07,1.63,6.76.46,9.68-8.35C315.46,233.75,312.28,235.13,310.5,238.08Z" transform="translate(-72.6 -120.39)"/><path class="cls-4" d="M333.84,180.74a19.82,19.82,0,0,0-.3-6.51c-2.55.81-4.28,2.31-11.13,2.23-2.67,0-3.56,1.42-3.84,3.26a1.88,1.88,0,0,0-2-.23c-.87.64-.56,2.53.69,4.22A7,7,0,0,0,318.4,185c-.09,1.07-.36,1.9-1.16,2.16a10.26,10.26,0,0,1-.77,5.79c-.07.15-.14.3-.22.44a21.5,21.5,0,0,1,3.23,6.41c4.5,1.08,9.49.52,11.34-2.4a28.53,28.53,0,0,0-2.26-5.37l.29-.23C332,189.38,333.35,185.14,333.84,180.74Z" transform="translate(-72.6 -120.39)"/><path class="cls-8" d="M335.55,250.74c-.11-21.11-1-41.54-4.73-53.39-1.85,2.92-6.84,3.48-11.34,2.4,3.84,11.55,3.22,31,2,52.75C326.67,253.19,331.56,252.74,335.55,250.74Z" transform="translate(-72.6 -120.39)"/><path class="cls-5" d="M335.55,250.74c-4,2-8.88,2.45-14.1,1.76-.12,2.13-.25,4.26-.38,6.42A30.62,30.62,0,0,1,309.79,257c.51,10.63,4.25,32.43,1.22,70.25,2.39,1.12,7.41,1.66,11.41.69a39,39,0,0,1,.1-4.38c.59-11.72,3.4-40.59,5-55.48.59,12.69-.58,37-1.64,50.46,2.5,1.22,7.86.93,10.94-.63a490.79,490.79,0,0,0,3.64-55.45c0-2.69,0-5.35,0-8a6.37,6.37,0,0,1-4.9,2.13C335.57,254.65,335.56,252.69,335.55,250.74Z" transform="translate(-72.6 -120.39)"/><polygon class="cls-4" points="300.54 118.46 318.78 133.1 306.19 135.19 287.95 120.54 300.54 118.46"/><path class="cls-8" d="M355.78,239.69l22.46,18,17.91-3-22.45-18Zm4.77,1.24,12.59-2.08,18.24,14.65-12.59,2.08Z" transform="translate(-72.6 -120.39)"/><path class="cls-2" d="M404.86,368.54c0,.09.07.19.12.28,1.79,3.45-.52,9.7-7,4.31-7.68-6.25-13.9-3.39-15.12-10.18,2.27-5.16,9.28,2.34,12.94-.95C396.46,365.28,400.37,368.12,404.86,368.54Z" transform="translate(-72.6 -120.39)"/><path class="cls-2" d="M395,358.19c-2.79-1.53-2.09-4.42,1-4.81.12,1.7.21,3.48.25,5.33C395.81,358.53,395.4,358.35,395,358.19Z" transform="translate(-72.6 -120.39)"/><path class="cls-4" d="M371.38,249.26a6.72,6.72,0,0,0-2.87,4.73c-5.92-1.27-5.15-3.25-4.74-5.26.34-1.64-2.23-1.67-1.71-3.31C365.85,244.27,368.8,246.4,371.38,249.26Z" transform="translate(-72.6 -120.39)"/><path class="cls-4" d="M402.54,315.13a27.12,27.12,0,0,0,10.23-4.29c.71,7.5,4.09,11.34,4.05,17.62-.05,7.89-3.63,14.32-3.29,25.81a19.2,19.2,0,0,0,1.36,5.84c.37,1,.73,2,1,2.84-5.11-.35-8.83-2.06-9.26-6a8.53,8.53,0,0,1,.08-2.34C408,339.11,404.88,326.76,402.54,315.13Z" transform="translate(-72.6 -120.39)"/><path class="cls-2" d="M403.42,355.4c1,.48,2.1,1,3.17,1.51.43,4,4.15,5.69,9.26,6,.44,1.68.39,3-1.08,3.86-3.63,1.77-6.73-.85-11.17-3.91C403.41,360.66,403.39,358.12,403.42,355.4Z" transform="translate(-72.6 -120.39)"/><path class="cls-4" d="M396,353.38a114.92,114.92,0,0,0-4.19-22.62c-1.6-5.89-3.08-11-4.25-15.82a31.77,31.77,0,0,0,11.68.75c.64,5.33,1.84,11.3,3.31,18.51,1.35,6.68,1,14.46.89,21.2,0,2.72,0,5.26.18,7.5a17.56,17.56,0,0,0,1.26,5.64c-4.49-.42-8.4-3.26-9-6.54a2.86,2.86,0,0,0,.46-.46c0-1,0-1.89-.06-2.83C396.19,356.86,396.1,355.08,396,353.38Z" transform="translate(-72.6 -120.39)"/><path class="cls-2" d="M396.57,199.34c3.24-3.42,10.3-3,14.18-.38l.21-.11c2.92-1.1,6.35.83,7.67,4.32,2.39,6.21-2.28,14.12,4,15.56-6.55,2-9.82.11-11.61-2.79a14.19,14.19,0,0,1-2.74,2.89,14.87,14.87,0,0,1-2.05,1.36,6.51,6.51,0,0,1-6.35-3.87,3.8,3.8,0,0,0,1.93-3.11c.21-2-.77-3.69-2.2-3.84a2.05,2.05,0,0,0-1.47.44c-1-1.81-3.12-2.47-4.58-3.33A12.1,12.1,0,0,1,396.57,199.34Z" transform="translate(-72.6 -120.39)"/><path class="cls-4" d="M398.17,226.42c1-.65,1.77-1.77,2-4.59-.28,0-.55,0-.84,0-5.68,0-8-8-5.83-15.39,1.46.86,3.54,1.52,4.58,3.33a2.05,2.05,0,0,1,1.47-.44c1.43.15,2.41,1.87,2.2,3.84a3.8,3.8,0,0,1-1.93,3.11,6.51,6.51,0,0,0,6.35,3.87,14.87,14.87,0,0,0,2.05-1.36,6.85,6.85,0,0,0,.07,1.23c.35,2.32,1.86,3.2,3.58,3.9C412.72,229.24,404.83,231.4,398.17,226.42Z" transform="translate(-72.6 -120.39)"/><path class="cls-2" d="M414.82,264.62c.84,3,1.84,5.85,2.61,8.83,2.37,9.91,1.39,23.05-1.83,34.59a12,12,0,0,1-2.83,2.8,27.12,27.12,0,0,1-10.23,4.29c-1.08.23-2.19.42-3.32.56a31.77,31.77,0,0,1-11.68-.75c-2.56-10.62-3.59-20.12-1-34.6.19-1.86.59-4.21,1.05-7C399.29,277.28,410.72,271.11,414.82,264.62Z" transform="translate(-72.6 -120.39)"/><path class="cls-3" d="M371.38,249.26l.48.53c14.55,9.62,11.35-3.88,16.27-14.35a13.1,13.1,0,0,1,1-2.22c2.7-4.54,7.21-5.67,9-6.8,6.66,5,14.55,2.82,13.73-2.46,2.31.94,5,1.54,5.84,4.82,1.42,5.54-5,18.06-4.49,27.05a41.83,41.83,0,0,0,1.57,8.79c-4.1,6.49-15.53,12.66-27.24,8.76.59-3.56,1.29-7.83,1.82-12.59.14-1.31.27-2.63.38-4,0-.12,0-.24,0-.36-4,4.51-11.44,3.93-21-2.37l-.3-.07A6.72,6.72,0,0,1,371.38,249.26Z" transform="translate(-72.6 -120.39)"/></svg>