<svg xmlns="http://www.w3.org/2000/svg" xmlns:xlink="http://www.w3.org/1999/xlink" viewBox="0 0 350 360.84"><defs><style>.cls-1{isolation:isolate;}.cls-10,.cls-11,.cls-12,.cls-2{fill:#fff;}.cls-10,.cls-11,.cls-12,.cls-13,.cls-14,.cls-15,.cls-16,.cls-17,.cls-18,.cls-19,.cls-2,.cls-20,.cls-21,.cls-22,.cls-23,.cls-24,.cls-25,.cls-26,.cls-27,.cls-28,.cls-29,.cls-3,.cls-30,.cls-31,.cls-32,.cls-33,.cls-34,.cls-35,.cls-36,.cls-37,.cls-38,.cls-39,.cls-4,.cls-40,.cls-41,.cls-42,.cls-43,.cls-44,.cls-45,.cls-46,.cls-47,.cls-48,.cls-49,.cls-5,.cls-50,.cls-51,.cls-52,.cls-53,.cls-54,.cls-6,.cls-7,.cls-8,.cls-9{fill-rule:evenodd;}.cls-3{fill:#59caaf;opacity:0.35;}.cls-13,.cls-19,.cls-25,.cls-3,.cls-35,.cls-41,.cls-7{mix-blend-mode:multiply;}.cls-4{fill:#303a7d;}.cls-5{fill:url(#linear-gradient);}.cls-6{fill:#3e4992;}.cls-10,.cls-13,.cls-15,.cls-16,.cls-19,.cls-25,.cls-27,.cls-29,.cls-41,.cls-7,.cls-9{opacity:0.5;}.cls-7{fill:url(#linear-gradient-2);}.cls-8{fill:url(#linear-gradient-3);}.cls-28,.cls-9{fill:aqua;}.cls-11,.cls-35{opacity:0.3;}.cls-12{opacity:0.2;}.cls-13{fill:url(#linear-gradient-4);}.cls-14{fill:#273087;}.cls-15{fill:url(#linear-gradient-5);}.cls-16{fill:url(#linear-gradient-6);}.cls-17{fill:#6d6afd;}.cls-18{fill:url(#linear-gradient-7);}.cls-19{fill:url(#linear-gradient-8);}.cls-20{fill:url(#linear-gradient-9);}.cls-21{fill:#f2f4ff;}.cls-22{fill:#c5dbf1;}.cls-23{fill:#dce8f8;}.cls-24{fill:url(#linear-gradient-10);}.cls-25{fill:url(#linear-gradient-11);}.cls-26{fill:url(#linear-gradient-12);}.cls-27{fill:#3856d8;}.cls-29{fill:url(#linear-gradient-13);}.cls-30{fill:#ffa698;}.cls-31{fill:#1f202b;}.cls-32{fill:#161a40;}.cls-33{fill:#161f69;}.cls-34{fill:url(#linear-gradient-14);}.cls-35{fill:#1e2353;}.cls-36{fill:url(#linear-gradient-15);}.cls-37{fill:url(#linear-gradient-16);}.cls-38{fill:url(#linear-gradient-17);}.cls-39{fill:url(#linear-gradient-18);}.cls-40{fill:url(#linear-gradient-19);}.cls-41{fill:#ff8fd5;}.cls-42{fill:url(#linear-gradient-20);}.cls-43{fill:url(#linear-gradient-21);}.cls-44{fill:url(#GradientFill_17);}.cls-45{fill:#1994f0;}.cls-46{fill:url(#linear-gradient-22);}.cls-47{fill:#00edff;}.cls-48{fill:#0d7ae9;}.cls-49{fill:#494cec;}.cls-50{fill:url(#linear-gradient-23);}.cls-51{fill:#aab4ff;}.cls-52{fill:url(#linear-gradient-24);}.cls-53{fill:#fdbebe;}.cls-54{fill:url(#linear-gradient-25);}</style><linearGradient id="linear-gradient" x1="227.7" y1="313.7" x2="297.36" y2="140.87" gradientUnits="userSpaceOnUse"><stop offset="0" stop-color="#965cf2"/><stop offset="1" stop-color="#ff8adc"/></linearGradient><linearGradient id="linear-gradient-2" x1="308.59" y1="261.92" x2="336.82" y2="206.74" xlink:href="#linear-gradient"/><linearGradient id="linear-gradient-3" x1="333.87" y1="226.42" x2="317.52" y2="263.97" gradientUnits="userSpaceOnUse"><stop offset="0" stop-color="#1c8ef4"/><stop offset="1" stop-color="#00cfdd"/></linearGradient><linearGradient id="linear-gradient-4" x1="169.48" y1="195.21" x2="194.25" y2="138.33" xlink:href="#linear-gradient"/><linearGradient id="linear-gradient-5" x1="153.7" y1="175.24" x2="180.38" y2="157.21" gradientUnits="userSpaceOnUse"><stop offset="0" stop-color="#6d6afe"/><stop offset="1" stop-color="#3fb0f7"/></linearGradient><linearGradient id="linear-gradient-6" x1="163.67" y1="145.37" x2="169.75" y2="137.97" xlink:href="#linear-gradient-5"/><linearGradient id="linear-gradient-7" x1="278.73" y1="116.38" x2="288.76" y2="94.6" xlink:href="#linear-gradient-5"/><linearGradient id="linear-gradient-8" x1="135.38" y1="271.77" x2="153.95" y2="211.82" xlink:href="#linear-gradient"/><linearGradient id="linear-gradient-9" x1="141.52" y1="253.01" x2="112.31" y2="218.11" gradientUnits="userSpaceOnUse"><stop offset="0" stop-color="#fa5db1"/><stop offset="1" stop-color="#febfbf"/></linearGradient><linearGradient id="linear-gradient-10" x1="145.61" y1="272.76" x2="87.55" y2="229.07" xlink:href="#linear-gradient-9"/><linearGradient id="linear-gradient-11" x1="234.34" y1="336.98" x2="264.87" y2="272.58" xlink:href="#linear-gradient"/><linearGradient id="linear-gradient-12" x1="246.28" y1="296.71" x2="232.02" y2="324.07" xlink:href="#linear-gradient-5"/><linearGradient id="linear-gradient-13" x1="325.93" y1="369.72" x2="346.27" y2="356.18" xlink:href="#linear-gradient-9"/><linearGradient id="linear-gradient-14" x1="217.19" y1="292.1" x2="187.53" y2="346.58" gradientUnits="userSpaceOnUse"><stop offset="0" stop-color="#3e4795"/><stop offset="1" stop-color="#273088"/></linearGradient><linearGradient id="linear-gradient-15" x1="229.13" y1="299.74" x2="207.33" y2="354.2" xlink:href="#linear-gradient-14"/><linearGradient id="linear-gradient-16" x1="191" y1="260.49" x2="203" y2="252.7" xlink:href="#linear-gradient"/><linearGradient id="linear-gradient-17" x1="215.68" y1="252.76" x2="221.54" y2="288.76" gradientUnits="userSpaceOnUse"><stop offset="0" stop-color="#ff66bc"/><stop offset="0.56" stop-color="#ff8adc"/><stop offset="1" stop-color="#ffbba8"/></linearGradient><linearGradient id="linear-gradient-18" x1="266.67" y1="214.88" x2="264.01" y2="210.98" gradientUnits="userSpaceOnUse"><stop offset="0" stop-color="#ff8a78"/><stop offset="1" stop-color="#ffa799"/></linearGradient><linearGradient id="linear-gradient-19" x1="231.29" y1="250.83" x2="258.16" y2="221.97" xlink:href="#linear-gradient-17"/><linearGradient id="linear-gradient-20" x1="215.92" y1="230.94" x2="218.27" y2="237.9" xlink:href="#linear-gradient-18"/><linearGradient id="linear-gradient-21" x1="216.34" y1="213.22" x2="201.5" y2="259.14" gradientUnits="userSpaceOnUse"><stop offset="0" stop-color="#5a2d68"/><stop offset="1" stop-color="#22043d"/></linearGradient><linearGradient id="GradientFill_17" x1="102.92" y1="320.9" x2="99.35" y2="328.22" gradientUnits="userSpaceOnUse"><stop offset="0" stop-color="#3964af"/><stop offset="1" stop-color="#00bcce"/></linearGradient><linearGradient id="linear-gradient-22" x1="102.86" y1="320.55" x2="95.68" y2="337.39" xlink:href="#linear-gradient-3"/><linearGradient id="linear-gradient-23" x1="111.3" y1="345.96" x2="100.8" y2="330.18" xlink:href="#linear-gradient-5"/><linearGradient id="linear-gradient-24" x1="357.33" y1="125.28" x2="366.7" y2="142.77" xlink:href="#linear-gradient-9"/><linearGradient id="linear-gradient-25" x1="355.48" y1="161.65" x2="361.8" y2="138.98" xlink:href="#linear-gradient"/></defs><g class="cls-1"><g id="Layer_4" data-name="Layer 4"><path class="cls-2" d="M401.07,282.61a10.46,10.46,0,0,1-4.13-1.34l-1.18,2.13a12.9,12.9,0,0,0,5.08,1.63l.23-2.42Zm-91.6-148.53,1.18-2.13,4.26,2.36-1.18,2.13-4.26-2.36Zm6.39,3.54,1.18-2.13,4.27,2.37L320.13,140l-4.27-2.37Zm6.4,3.55,1.18-2.13,4.26,2.36-1.18,2.13-4.26-2.36Zm6.39,3.54,1.18-2.13,4.27,2.36-1.19,2.14-4.26-2.37Zm6.4,3.55,1.18-2.13,4.26,2.36-1.18,2.13-4.26-2.36Zm6.39,3.54,1.18-2.13,4.26,2.36-1.18,2.14-4.26-2.37Zm6.39,3.55,1.19-2.13,4.26,2.36-1.18,2.13-4.27-2.36Zm6.4,3.54,1.18-2.13,4.26,2.36-1.18,2.13-4.26-2.36Zm6.39,3.55,1.18-2.14,4.27,2.37-1.18,2.13-4.27-2.36ZM367,166l1.18-2.13,4.26,2.36-1.18,2.13L367,166Zm6.39,3.54,1.18-2.13,4.27,2.36-1.19,2.14-4.26-2.37Zm6.39,3.55,1.19-2.13,4.26,2.36-1.18,2.13-4.27-2.36Zm6.4,3.54,1.18-2.13,4.26,2.36L390.46,179l-4.26-2.36Zm6.39,3.54,1.18-2.13,4.27,2.37-1.19,2.13-4.26-2.37Zm6.4,3.55,1.18-2.13,4.26,2.36-1.18,2.13L399,183.7Zm6.39,3.54,1.18-2.13c1.38.77,3,1.56,4.33,2.46l-1.36,2c-1.27-.87-2.86-1.64-4.15-2.36Zm5.94,3.74a20.19,20.19,0,0,1,3,3.45l2-1.39a22.36,22.36,0,0,0-3.4-3.87L411.32,191Zm4.23,5.41a25.38,25.38,0,0,1,1.84,4.25l2.32-.74a25.57,25.57,0,0,0-2-4.68l-2.13,1.17Zm2.44,6.49a20.63,20.63,0,0,1,.49,4.57l2.43,0a23,23,0,0,0-.54-5.1l-2.38.51Zm.33,6.85c-.16,1.59-.42,3.24-.63,4.84l2.41.31c.21-1.59.48-3.24.63-4.82l-2.41-.33Zm-.95,7.25,2.42.32-.63,4.83-2.42-.31.63-4.84Zm-.94,7.25,2.41.32-.63,4.83-2.41-.32.63-4.83Zm-.95,7.25,2.42.32-.63,4.83-2.42-.32.63-4.83Zm-.94,7.25,2.41.32-.63,4.83-2.41-.32.63-4.83Zm-1,7.25,2.42.31-.63,4.84-2.42-.32.63-4.83Zm-.94,7.25,2.41.31-.63,4.84-2.41-.32.63-4.83Zm-.95,7.25,2.42.31-.63,4.84-2.42-.32.63-4.83Zm-.94,7.25,2.41.31-.63,4.84-2.41-.32.63-4.83Zm-1,7.15a12.17,12.17,0,0,1-1.6,4.1l2,1.32a14.57,14.57,0,0,0,1.95-4.92l-2.39-.5Zm-3,5.75-.24.22a7.2,7.2,0,0,1-3.41,1.67l.43,2.39a9.6,9.6,0,0,0,4.71-2.34l.18-.17Z" transform="translate(-70.92 -78.27)"/><path class="cls-2" d="M118,141.77l1.18-2.13L123.4,142l-1.18,2.13L118,141.77Zm-14,90.93-1.18,2.13-4.26-2.37,1.18-2.13,4.26,2.37Zm-6.39-3.55-1.18,2.13-4.27-2.36,1.19-2.13,4.26,2.36Zm-6.4-3.54L90,227.74l-4.26-2.37,1.18-2.13,4.26,2.37Zm-6.39-3.55-1.18,2.13a23.14,23.14,0,0,1-4.29-2.77l1.59-1.86a21.09,21.09,0,0,0,3.88,2.5ZM79.23,218a23,23,0,0,1-2.71-3.72l-2.11,1.21a24,24,0,0,0,3,4.15L79.23,218Zm-3.77-5.79A24.84,24.84,0,0,1,74,207.81l-2.37.55a26.79,26.79,0,0,0,1.64,4.84l2.22-1Zm-1.9-6.65a19.41,19.41,0,0,1-.07-4.57l-2.42-.28a22.18,22.18,0,0,0,.07,5.15l2.42-.3Zm.24-7-2.41-.32.63-4.83,2.42.32-.64,4.83Zm1-7.25L72.33,191l.63-4.84,2.42.32-.63,4.83Zm1-7.25-2.42-.31.63-4.84,2.42.32-.63,4.83Zm.94-7.25-2.42-.31.63-4.84,2.42.32-.63,4.83Zm1-7.25-2.42-.31.63-4.83,2.42.31-.63,4.83Zm.94-7.25L76.11,162l.63-4.83,2.42.31-.63,4.83Zm1-7.25-2.42-.31.63-4.83,2.42.31-.63,4.83Zm.94-7.24L78,147.51l.63-4.83,2.42.31-.63,4.84Zm1-7.25L79,140.26c.21-1.61.36-3.28.66-4.89l2.39.44c-.32,1.52-.43,3.22-.63,4.77Zm1.2-7,0-.09a10.16,10.16,0,0,1,2.16-3.63L83,128.23a12.58,12.58,0,0,0-2.73,4.6l2.3.8Zm3.83-5a7.48,7.48,0,0,1,1-.49,7.12,7.12,0,0,1,3-.48l.11-2.44a9.9,9.9,0,0,0-4,.64,9.3,9.3,0,0,0-1.38.68l1.24,2.09Zm6.11-.62a11.21,11.21,0,0,1,2.4,1l1.74,1,1.18-2.13-1.74-1a13,13,0,0,0-2.91-1.22L92.51,128Zm6.27,3.16L100,129l4.26,2.36L103,133.5l-4.26-2.36Zm6.39,3.54,1.18-2.13,4.27,2.36L109.43,137l-4.26-2.36Zm6.4,3.54,1.18-2.13,4.26,2.37-1.18,2.13Z" transform="translate(-70.92 -78.27)"/><path class="cls-2" d="M249.08,102.22l1.18-2.13,4.26,2.36-1.18,2.13-4.26-2.36Zm-38.43,12.85.57-4.38-2.41-.31-.57,4.38,2.41.31Zm.89-6.79-2.42-.32.63-4.83,2.42.31-.63,4.84Zm.94-7.25-2.41-.32c.21-1.61.36-3.28.65-4.89l2.4.44c-.32,1.52-.43,3.22-.64,4.77Zm1.21-7,0-.09a10.16,10.16,0,0,1,2.16-3.63l-1.76-1.68a12.75,12.75,0,0,0-2.74,4.6l2.31.8Zm3.83-5a6.81,6.81,0,0,1,1-.49,7.19,7.19,0,0,1,3-.48l.11-2.44a9.9,9.9,0,0,0-4,.64,9.77,9.77,0,0,0-1.38.67l1.24,2.1Zm6.1-.62a11.29,11.29,0,0,1,2.41,1l1.73,1L229,88.27l-1.74-1a13,13,0,0,0-2.91-1.22l-.68,2.34Zm6.28,3.16,1.18-2.14,4.26,2.37L234.16,94l-4.26-2.36Zm6.39,3.54L237.47,93l4.26,2.36-1.18,2.13-4.26-2.36Zm6.39,3.54,1.19-2.13,4.26,2.37L247,101Z" transform="translate(-70.92 -78.27)"/><path class="cls-3" d="M364.83,425.38,136.72,297.23c-3.46-1.57-8.55-3.06-11.94-1l-8.68,5.3c-1.74,1.06-7.49,4.6-3.65,6.68,11.3,6.13,218.41,123.26,229.89,129.49A16.06,16.06,0,0,0,351,439a21.79,21.79,0,0,0,9.4-2.81l3.47-2.14c2.45-1.51,3.81-3.17,3.94-4.75S367,426.35,364.83,425.38Z" transform="translate(-70.92 -78.27)"/><path class="cls-4" d="M156.23,79.22a6.24,6.24,0,0,0-5.32-.59l-4,1.56c-1.45,7.5,205.65,351.81,207.5,353.72l3.56-1.35c2.34-.92,3.57-3.36,3.92-5.72L392,221.41v0a14.67,14.67,0,0,0-2.44-9.94,11.66,11.66,0,0,0-4-3.88Z" transform="translate(-70.92 -78.27)"/><path class="cls-5" d="M381.59,209.09,152.29,80.74c-4.33-2.4-8.46-.1-9.23,5.14L113,291.3c-.77,5.23,2.11,11.43,6.45,13.83L348.71,433.49c4.34,2.4,8.48.1,9.25-5.13l30.09-205.43C388.82,217.7,385.92,211.5,381.59,209.09Z" transform="translate(-70.92 -78.27)"/><path class="cls-6" d="M381.59,209.09,152.29,80.74c-4.33-2.4-8.46-.1-9.23,5.14l-1,6.92L387,229.94l1-7C388.82,217.7,385.92,211.5,381.59,209.09Z" transform="translate(-70.92 -78.27)"/><path class="cls-4" d="M150.87,85.85c1.74.4,3.07,2.47,3,4.63s-1.57,3.58-3.31,3.18-3.08-2.47-3-4.62S149.13,85.46,150.87,85.85Z" transform="translate(-70.92 -78.27)"/><path class="cls-4" d="M158.79,90.4c1.74.4,3.07,2.47,3,4.63s-1.57,3.58-3.31,3.18-3.08-2.47-3-4.62S157.05,90,158.79,90.4Z" transform="translate(-70.92 -78.27)"/><path class="cls-4" d="M167.36,95.4c1.73.39,3.07,2.47,3,4.62s-1.58,3.58-3.32,3.19-3.07-2.47-3-4.63S165.62,95,167.36,95.4Z" transform="translate(-70.92 -78.27)"/><path class="cls-7" d="M385.88,237.71,266.37,171.46a8.92,8.92,0,0,0-7.64-.85c-2.87,1.11-5,4-5.63,8.24l-7.49,57.47c-1.11,7.52,3,16.42,9.27,19.88L373.54,322l4-1.6,1-7.28Z" transform="translate(-70.92 -78.27)"/><path class="cls-4" d="M393.86,257.62,385,318l1.07.13L389,317c3.2-1.26,4.87-4.58,5.34-7.81l7.11-54.55s0,0,0,0a20.08,20.08,0,0,0-3.34-13.56,15.8,15.8,0,0,0-5.49-5.29l-116.7-64.68a8.51,8.51,0,0,0-7.25-.81l-2.57,1c-1.29.48-1.69.87-1.68.95C265.59,183.55,395.56,246,393.86,257.62Z" transform="translate(-70.92 -78.27)"/><path class="cls-8" d="M389.64,237,273,172.27a8.42,8.42,0,0,0-7.25-.81c-2.72,1.06-4.76,3.81-5.35,7.82l-7.11,54.55c-1,7.13,2.89,15.59,8.81,18.87l116.69,64.68c5.92,3.28,11.57.14,12.61-7l7.11-54.55C399.51,248.7,395.56,240.24,389.64,237Z" transform="translate(-70.92 -78.27)"/><path class="cls-9" d="M391.81,259.7l-66.46-36.57a2,2,0,0,0-1.74-.19,2.24,2.24,0,0,0-1.28,1.87l-.44,2.69A4.72,4.72,0,0,0,324,232l66.47,36.57c1.42.78,2.77,0,3-1.68l.44-2.69A4.71,4.71,0,0,0,391.81,259.7Z" transform="translate(-70.92 -78.27)"/><path class="cls-9" d="M389.41,276.16l-66.47-36.57a2,2,0,0,0-1.74-.19,2.21,2.21,0,0,0-1.27,1.87l-.45,2.68a4.72,4.72,0,0,0,2.11,4.52L388.06,285c1.41.79,2.76,0,3-1.67l.44-2.69A4.68,4.68,0,0,0,389.41,276.16Z" transform="translate(-70.92 -78.27)"/><path class="cls-9" d="M347,270.12l-26.44-14.07a2,2,0,0,0-1.74-.2,2.24,2.24,0,0,0-1.27,1.87l-.45,2.69a4.69,4.69,0,0,0,2.11,4.51L345.62,279c1.41.78,2.76,0,3-1.68l.44-2.69A4.69,4.69,0,0,0,347,270.12Z" transform="translate(-70.92 -78.27)"/><path class="cls-10" d="M262.21,206.26c-2,18.41,8.16,40.9,22.83,50.19s28.73-2.67,30.28-16.53-1.05-19.62-5.25-28.76c-2.55,1.41-5.1,2.82-7.65,4.2,2.72,5.87,4.4,9.63,3.4,18.54s-10,16.59-19.45,10.62-16-20.42-14.66-32.24C268.58,210.28,265.38,208.27,262.21,206.26Z" transform="translate(-70.92 -78.27)"/><path class="cls-11" d="M272.64,187.61c-5.49,3-9.4,9.44-10.43,18.65,3.17,2,6.37,4,9.5,6,.66-5.91,3.16-10.07,6.68-12C276.47,196.08,274.54,191.86,272.64,187.61Z" transform="translate(-70.92 -78.27)"/><path class="cls-12" d="M292.49,189.72c-7.34-4.64-14.39-5.11-19.85-2.13,1.9,4.24,3.83,8.49,5.75,12.7,3.53-1.91,8.06-1.62,12.75,1.36s8.73,8.1,11.37,13.92c2.55-1.38,5.1-2.76,7.66-4.17C306.05,202.31,299.83,194.37,292.49,189.72Z" transform="translate(-70.92 -78.27)"/><path class="cls-13" d="M220.45,158.17l-79-43.69a8.4,8.4,0,0,0-2.48-.93l-11.32,77.28a11.42,11.42,0,0,0,2.63,2l79,43.7c4.83,2.67,9.44.11,10.29-5.72l8.08-57.23C228.51,167.76,225.29,160.85,220.45,158.17Z" transform="translate(-70.92 -78.27)"/><path class="cls-14" d="M217.94,168.12l-9,58.87.83.1,2.25-.88c2.48-1,3.78-3.55,4.14-6.05l7.66-54.32v0a15.52,15.52,0,0,0-2.58-10.51,12.38,12.38,0,0,0-4.26-4.1l-90.46-50.14a6.6,6.6,0,0,0-5.62-.63l-2,.78c-1,.38-1.31.68-1.31.74C118.5,110.7,219.26,159.14,217.94,168.12Z" transform="translate(-70.92 -78.27)"/><path class="cls-2" d="M214.67,152.1,124.21,102a6.52,6.52,0,0,0-5.63-.63c-2.1.82-3.68,3-4.14,6.06l-7.66,54.32c-.81,5.53,2.24,12.08,6.83,14.63l90.46,50.14c4.58,2.54,9,.11,9.77-5.42l7.66-54.33C222.32,161.2,219.25,154.64,214.67,152.1Z" transform="translate(-70.92 -78.27)"/><path class="cls-15" d="M210.17,185.37l-92.85-51.51a1.56,1.56,0,0,0-1.34-.15,1.73,1.73,0,0,0-1,1.45l-.35,2.08a3.67,3.67,0,0,0,1.63,3.5l92.85,51.51a1.52,1.52,0,0,0,2.34-1.3l.34-2.09a3.61,3.61,0,0,0-1.63-3.49Zm-47.5,1a3.64,3.64,0,0,1,1.63,3.5L164,192a1.52,1.52,0,0,1-2.34,1.29l-49.08-27a3.61,3.61,0,0,1-1.63-3.49l.34-2.09a1.74,1.74,0,0,1,1-1.45,1.61,1.61,0,0,1,1.35.15l49.08,27Zm45.63,11.72a3.66,3.66,0,0,1,1.64,3.5l-.35,2.09a1.51,1.51,0,0,1-2.33,1.29l-92.85-51.5a3.66,3.66,0,0,1-1.64-3.5l.35-2.08a1.72,1.72,0,0,1,1-1.45,1.52,1.52,0,0,1,1.34.15Z" transform="translate(-70.92 -78.27)"/><path class="cls-16" d="M166,139.56c-1.67-.92-3.26,0-3.55,2a5.57,5.57,0,0,0,2.48,5.31c1.67.92,3.26,0,3.56-2a5.55,5.55,0,0,0-2.49-5.32Zm4.08,6.21c-.45,3.08-2.88,4.43-5.43,3a8.5,8.5,0,0,1-3.8-8.14c.46-3.08,2.89-4.43,5.43-3a8.48,8.48,0,0,1,3.8,8.14Zm3.91.36,1.66.92c0,.57-.07,1.15-.15,1.72a15,15,0,0,1-.34,1.6l-1.66-.92a7.46,7.46,0,0,1-2.07,3.43l1,2.08a6.82,6.82,0,0,1-2.3,1.26l-1-2.06a6.34,6.34,0,0,1-3.76-.18l-.29,2a9.66,9.66,0,0,1-1.4-.64,11.67,11.67,0,0,1-1.36-.88l.29-2a14.17,14.17,0,0,1-3.24-3.7l-1.38.77a19.47,19.47,0,0,1-1.6-3.43l1.38-.77a15.39,15.39,0,0,1-.83-5l-1.66-.92a16.21,16.21,0,0,1,.15-1.71,12.86,12.86,0,0,1,.34-1.62l1.66.93a7.46,7.46,0,0,1,2.07-3.43l-1-2.07a6.83,6.83,0,0,1,2.29-1.28l1,2.07a6.23,6.23,0,0,1,3.75.19l.3-2a11.51,11.51,0,0,1,1.39.65,12.69,12.69,0,0,1,1.37.88l-.3,2a13.85,13.85,0,0,1,3.25,3.69l1.37-.77a19.65,19.65,0,0,1,1.61,3.44l-1.39.76A15.36,15.36,0,0,1,174,146.13Z" transform="translate(-70.92 -78.27)"/><path class="cls-17" d="M263.55,86.21a17.71,17.71,0,0,1,6.34,6c0-.46,0,1.22,0-1.37s-1.47-6.77.56-8.89c.8-.84,4.72-2.4,5.66-2.65a8.36,8.36,0,0,1,6.13,1c3.4,1.83,6.47,5.42,8.71,9.75a40.53,40.53,0,0,1,3.62,14.21c0,2.62,0,.9,0,1.34,1.9-.58,3.59-.59,6.51,1s6.6,5.55,8.89,10A32.67,32.67,0,0,1,313.63,131a15.31,15.31,0,0,1-2.32,8.89c-1.48,2.11-4.34,3.37-6.36,4.06-5.81,2.07-17-9.61-22.92-12.9l-18.72-10.43c-3.38-1.88-6.42-5.5-8.59-9.84a31.73,31.73,0,0,1-3.43-14.1c0-2.76-2-6.88.62-8.88C256,84.67,260.3,84.44,263.55,86.21Z" transform="translate(-70.92 -78.27)"/><path class="cls-18" d="M260.26,87.67a17.64,17.64,0,0,1,6.35,6c0-.46-.05,1.22,0-1.38S268,84,270.22,82.09s5.31-2.17,8.7-.35,6.48,5.42,8.71,9.75a40.9,40.9,0,0,1,3.63,14.21c0,2.63,0,.91,0,1.35,1.89-.58,3.59-.59,6.51,1s6.6,5.54,8.88,10a32.58,32.58,0,0,1,3.74,14.45c0,4.87-1.41,8.5-3.7,10.43s-5.44,2.13-8.92.19l-19-10.58L260,122.07c-3.38-1.89-6.41-5.51-8.58-9.84A31.63,31.63,0,0,1,248,98.13c0-4.72,1.42-8.24,3.63-10.13S257.42,86.12,260.26,87.67Z" transform="translate(-70.92 -78.27)"/><polygon class="cls-2" points="195.91 32.73 190.08 29.42 199.24 45.19 208.45 39.86 202.63 36.55 202.65 21.62 195.92 17.8 195.91 32.73"/><polygon class="cls-2" points="216.08 39.02 221.9 42.32 212.74 26.55 203.53 31.88 209.35 35.19 209.33 50.12 216.06 53.95 216.08 39.02"/><path class="cls-19" d="M155.66,298.53l-40.34-23.44,10.73-71.4,45.67,26.54h0a.88.88,0,0,1,.26,1l-13.38,63.57a9.41,9.41,0,0,1-.81,2.48,2.85,2.85,0,0,1-1.08,1.22A.94.94,0,0,1,155.66,298.53Z" transform="translate(-70.92 -78.27)"/><path class="cls-20" d="M152.46,287.34l-51.41-29.87L113,200.83v0h0v0h0v0h0v0h0v0h0v0h0v0h0v0h0v0h0v0h0v0h0v0h0v0h0v0h0v0h0v0h0v0h0v0h0l0,0h0v0h0v0h0v0h0v0h0l0,0h0v0h0l0,0h0v0h0v0h0v0h0l0,0v0h0v0h0l0,0,0,0h0l0,0h0l0,0h.07l0,0h0l0,0h0a.85.85,0,0,1,.77,0l51.4,29.87C164.24,228.43,157.4,270.64,152.46,287.34Z" transform="translate(-70.92 -78.27)"/><path class="cls-3" d="M113,200.83c21.59,24.74,47.34,40,44.82,61.49l-5.35,25-51.41-29.87Z" transform="translate(-70.92 -78.27)"/><polygon class="cls-21" points="80.83 145.87 79.67 203.31 25.75 172.19 25.91 115.24 80.83 145.87"/><polygon class="cls-22" points="79.83 146.37 80.95 145.71 80.79 202.66 79.67 203.31 79.83 146.37"/><polygon class="cls-23" points="25.91 115.24 27.05 114.58 80.95 145.71 79.83 146.37 25.91 115.24"/><path class="cls-22" d="M148.69,269.26v3.6l-49.9-28.81v-3.59l49.9,28.8ZM148.8,228v3.59l-49.9-28.81v-3.59L148.8,228Zm0,5.9L98.89,205.06v3.59l49.89,28.81v-3.59Zm0,5.9L98.87,211v3.59l49.9,28.81v-3.59Zm0,5.9-49.9-28.81v3.59l49.9,28.81v-3.59Zm0,5.9L98.83,222.76v3.59l49.9,28.81,0-3.59Zm0,5.9-49.9-28.81v3.59l49.9,28.81v-3.59Zm0,5.9L98.8,234.56v3.59L148.69,267Z" transform="translate(-70.92 -78.27)"/><path class="cls-24" d="M138.55,246.17l12.25,43.1h0a5.52,5.52,0,0,0,.76,1.37l-51.4-29.87a2.07,2.07,0,0,1-.76-1.37L87.15,216.3h0l-2.3-8.08a2.1,2.1,0,0,1,.44-1.46c2.14,1.94,13.54,8.92,15.64,10.16,3.52,2.75,3.64,6.16,9,11.82a9.28,9.28,0,0,0,2.64,2.11Z" transform="translate(-70.92 -78.27)"/><path class="cls-3" d="M139.18,244.51l.25-.18c.41-.23.77-.13.89.26l12.14,42.75,11.93-56.64a2,2,0,0,1,.87-1.28.87.87,0,0,1,.25-.1c.49-.14.78.28.64.92l-12,57a8.62,8.62,0,0,1-.73,2.23,2.56,2.56,0,0,1-1,1.09.83.83,0,0,1-.95,0,2.59,2.59,0,0,1-.7-1.33l-12.25-43.1A1.89,1.89,0,0,1,139.18,244.51Z" transform="translate(-70.92 -78.27)"/><path class="cls-3" d="M114.15,229.2l25.93,15.07c-.67-.33-1.71,1.18-1.53,1.9L112.36,231a17.32,17.32,0,0,1-2.18-1.41c-3.72-2.94-5.48-7-7.91-10.23a10.19,10.19,0,0,0-2.09-2.11l-.87-.48-14.45-8.51a2.12,2.12,0,0,1,.44-1.45c.28-.29.71-.65,1.09-.45l14.48,8.53.87.48a10.19,10.19,0,0,1,2.09,2.11c2.57,3.45,4.41,7.32,8.59,10.61A13.32,13.32,0,0,0,114.15,229.2Z" transform="translate(-70.92 -78.27)"/><path class="cls-25" d="M311.57,303,190.23,235.47c-4.95-2.74-9.66-.11-10.53,5.86l-10.64,73.13c-.87,6,2.42,13,7.36,15.78l121.34,67.49c4.95,2.74,9.67.11,10.55-5.86L319,318.73C319.82,312.77,316.52,305.69,311.57,303Z" transform="translate(-70.92 -78.27)"/><path class="cls-4" d="M192.49,231.88a6.78,6.78,0,0,0-5.75-.64l-4.32,1.69C180.85,241,294.25,385.61,296.25,387.67l3.85-1.45c2.53-1,3.86-3.63,4.23-6.19l10.08-69.27v0A15.89,15.89,0,0,0,311.77,300a12.55,12.55,0,0,0-4.35-4.19Z" transform="translate(-70.92 -78.27)"/><path class="cls-26" d="M303.16,297.44,188.23,233.53c-4.69-2.6-9.15-.11-10,5.55l-10.07,69.27c-.83,5.66,2.28,12.35,7,14.95l114.94,63.92c4.68,2.6,9.16.11,10-5.55l10.08-69.27C311,306.75,307.85,300,303.16,297.44Z" transform="translate(-70.92 -78.27)"/><path class="cls-27" d="M302.41,309a.71.71,0,0,0-1.08.61,1.7,1.7,0,0,0,.75,1.65c.53.3,1,0,1.11-.61a1.73,1.73,0,0,0-.78-1.65ZM176.2,315,182,275.59l-.89-.49-5.77,39.38.89.5ZM182,272.15c-.5-.28-1,0-1.09.63a1.71,1.71,0,0,0,.75,1.64.72.72,0,0,0,1.12-.6,1.74,1.74,0,0,0-.78-1.67Zm8.76,50.92,5.32-36.36-.89-.49-5.32,36.35.89.5Zm5.34-39.79c-.51-.29-1,0-1.1.62a1.75,1.75,0,0,0,.77,1.65.72.72,0,0,0,1.11-.61,1.73,1.73,0,0,0-.78-1.66Zm9.21,47.88,7.57-51.69L212,279l-7.57,51.68.9.5ZM212.88,276a.73.73,0,0,0-1.11.62,1.72,1.72,0,0,0,.78,1.65.71.71,0,0,0,1.09-.61,1.74,1.74,0,0,0-.76-1.66Zm7.12,63.3,9.64-67.11-.87-.48-9.65,67.1.88.49Zm9.67-70.54c-.52-.29-1,0-1.09.64a1.7,1.7,0,0,0,.76,1.63.7.7,0,0,0,1.09-.6,1.7,1.7,0,0,0-.76-1.67Zm4.89,78.64,10.09-70.19-.89-.5-10.09,70.19.89.5Zm10.11-73.63a.72.72,0,0,0-1.1.62,1.74,1.74,0,0,0,.77,1.65c.52.29,1,0,1.11-.61a1.74,1.74,0,0,0-.78-1.66Zm4.42,81.71,9.22-64.09-.9-.5L248.19,355l.9.5ZM258.32,288c-.51-.28-1,0-1.1.63a1.73,1.73,0,0,0,.76,1.63.72.72,0,0,0,1.11-.6,1.71,1.71,0,0,0-.77-1.66Zm5.15,75.52,8-54.84-.89-.5-8,54.84.89.5Zm8.06-58.27a.72.72,0,0,0-1.11.61,1.75,1.75,0,0,0,.78,1.66.72.72,0,0,0,1.1-.62,1.73,1.73,0,0,0-.77-1.65ZM278,371.6l7.61-51.89-.89-.49-7.6,51.89.88.49Zm7.63-55.31a.7.7,0,0,0-1.09.6,1.75,1.75,0,0,0,.76,1.66.72.72,0,0,0,1.11-.62,1.72,1.72,0,0,0-.78-1.64Zm7,63.46,9.75-67.28-.9-.49-9.75,67.27Z" transform="translate(-70.92 -78.27)"/><path class="cls-27" d="M306.26,326.8a1.61,1.61,0,0,0-.59-.62.77.77,0,0,0-.85,0c-2.19,1.68-4.18,3.13-6.05,4.39s-3.58,2.31-5.19,3.21c-7.48,4.08-12.9,4.37-18.24,1.41s-10.25-9.35-16.83-18.27c-7.35-10-13.84-16.74-20.38-20.37a29.54,29.54,0,0,0-2.9-1.4c-7.53-3.1-15.19-2-24.36,3.13-1,.51-1.87,1.06-2.79,1.59-7.05,4.08-13.67,7.9-20.8,3.95-3.71-2.06-7.56-6.22-11.69-13.54a1.48,1.48,0,0,0-.59-.62.77.77,0,0,0-.86,0,1.5,1.5,0,0,0-.1,1.79c4.61,8.19,8.87,12.81,13,15.07,7.69,4.27,14.74.17,22.27-4.18l2.78-1.57c8.75-4.93,16-6,23.06-3.09a27.28,27.28,0,0,1,2.62,1.27c6.16,3.42,12.39,9.91,19.49,19.55,6.82,9.23,12.06,15.82,17.73,19.09l.33.19c5.62,3.11,11.5,2.85,19.45-1.48q2.47-1.35,5.32-3.27c1.89-1.3,3.93-2.77,6.11-4.46A1.45,1.45,0,0,0,306.26,326.8Z" transform="translate(-70.92 -78.27)"/><path class="cls-28" d="M305,322.09a1.45,1.45,0,0,0-.59-.61.75.75,0,0,0-.85,0c-2.18,1.71-4.18,3.19-6,4.47s-3.58,2.37-5.18,3.28c-7.49,4.19-12.91,4.56-18.24,1.67s-10.26-9.21-16.83-18c-7.36-9.89-13.85-16.56-20.39-20.09a28.06,28.06,0,0,0-2.9-1.36c-7.53-3-15.19-1.81-24.36,3.47-.95.52-1.87,1.08-2.78,1.62-7.06,4.19-13.67,8.1-20.81,4.25-3.71-2-7.56-6.11-11.69-13.38a1.49,1.49,0,0,0-.58-.61.77.77,0,0,0-.87,0,1.48,1.48,0,0,0-.09,1.79c4.61,8.12,8.87,12.68,13,14.89,7.69,4.15,14.75,0,22.27-4.5.94-.53,1.85-1.08,2.79-1.61,8.74-5,16-6.2,23-3.41a24.76,24.76,0,0,1,2.62,1.23c6.16,3.33,12.39,9.74,19.49,19.28,6.83,9.14,12.07,15.66,17.73,18.85l.33.18c5.62,3,11.5,2.69,19.46-1.75q2.46-1.38,5.32-3.35c1.88-1.32,3.92-2.82,6.1-4.54A1.45,1.45,0,0,0,305,322.09Z" transform="translate(-70.92 -78.27)"/><path class="cls-29" d="M353.3,361.41l-7.8-4.69a6.09,6.09,0,0,1-2.53-4l-1.68-10.34a5.88,5.88,0,0,0-2.56-4.06c-1.15-.7-2.37-.6-2.93.74l-3.1,7.45c-.5,1.19-1.67,1.5-2.94.73L322,342.49c-2.8-1.69-4.31,1.92-2.2,5.27l5.85,9.26a5.33,5.33,0,0,1,.75,4.54L323.26,369c-.85,2,.59,5.15,2.4,6.24a2.2,2.2,0,0,0,1.74.33l6.72-1.69a2.28,2.28,0,0,1,1.76.35,5.25,5.25,0,0,1,1.64,1.7l5.84,9.29A5.3,5.3,0,0,0,345,386.9c1.8,1.08,3.57-.07,3.11-2.9l-1.7-10.34c-.28-1.68.27-3,1.36-3.27l6.72-1.66C356.92,368.12,356.1,363.1,353.3,361.41Z" transform="translate(-70.92 -78.27)"/><path class="cls-3" d="M245.31,396.53,201.5,371.58c-4.78-2.18-11.62-3.92-16.48-1.38-4.44,2.3-11.74,7-15,8.87-2.45,1.4-11,6.5-5.66,9.38,15.6,8.49,31,18,46.88,26.64,3,1.63,7.38,2.22,12,1.84a31.74,31.74,0,0,0,13-3.86l7.77-4.53c3.43-2,5.25-4.36,5.44-6.55S248.24,397.87,245.31,396.53Z" transform="translate(-70.92 -78.27)"/><path class="cls-30" d="M191.16,360a23.13,23.13,0,0,1-1.9,7.85c-.53.57-1.18.92-1.49,1.57-1.64,3.49-2,6.85-.86,24.77l4.21.09.54-6.33c.52-2.57,2-6.32,2.54-8.64,1.27-5.07,1.39-7.61,2.17-11.34Z" transform="translate(-70.92 -78.27)"/><path class="cls-31" d="M182.33,381.56a6.52,6.52,0,0,1-1.42-.21c-.22-.24-.63-1.43-.33-1.65C181.11,379.34,182.19,381.21,182.33,381.56Z" transform="translate(-70.92 -78.27)"/><path class="cls-32" d="M184.67,374.39c.5,1.61-.21,3.15-.72,4.81-1.76,5.81-2.79,6.14-2,8.76a11.74,11.74,0,0,0,2.57,4.62c1.14,1.3,1.48,2.23,3,3.24,2.2,1.52,4.16,2.23,3.68-.82a14.26,14.26,0,0,0-.72-2.83c-1.56-3.63-3.38-5.22-2.39-9.75.73-3.36,1.89-5.57.38-7.83Z" transform="translate(-70.92 -78.27)"/><path class="cls-33" d="M185,370.77a18.92,18.92,0,0,1-4.44,8.93c.35-.1,1.25.82,1.74,1.83,3.64-4.18,5.4-6.21,6.52-4.41a58.57,58.57,0,0,1-1.12,6.38,6.4,6.4,0,0,0,.12,3.31c1.43,3.43,4,8.43,3,10.07a6,6,0,0,0,.74-3.27c0-2.37-.41-5.57-.46-7.54-.07-2.66.94-5,1.1-8.59,0-1,0-2,0-3-.15-2.56-.43-6-2.23-6.92a4.65,4.65,0,0,0-3.18.34A3.79,3.79,0,0,0,185,370.77Z" transform="translate(-70.92 -78.27)"/><path class="cls-34" d="M209.87,325.2,222.69,288l.42-10.2c.07-1.65-.81-2.86-1.33-4.15-6.76,2-10.54,4.13-17.81,3.88-2.18,3.24-5.16,9.3-5.27,13.88-.22,8.93.48,14.88-2.24,29.8-8.11,27.28-3.91,26.34-7,44.46-.26,1.94,5.7,3.47,7.72,2.27Z" transform="translate(-70.92 -78.27)"/><path class="cls-35" d="M209.87,325.2,222.69,288l.42-10.2c.07-1.65-.81-2.86-1.33-4.15-1.37.4-2.61.81-3.79,1.2l-7.54,12.06c-2.9,5.9-3.63,13.52-5.72,15.28,2.38,5.78,1.35,17.38.5,23.75-2.44-.81-4.68-1.16-7.08-2.05,1.65,1.37,4.68,2.74,6.37,4.47-3.08,11-4.56,22.28-5.58,33.64Z" transform="translate(-70.92 -78.27)"/><path class="cls-30" d="M214.87,374.91c-.1,2.86-2.81,5.62-3.13,7.47-.72,4.25,2.35,2,5.84,7.5,1.4,0,4.47,5,8.63,5.28.95.06,2.66-2.26.77-3.9-.84-.48-1.59-.12-2.28-.72-1.44-1.28-3.14-11.75-2.81-14.77Z" transform="translate(-70.92 -78.27)"/><path class="cls-33" d="M213.28,379.12c3.38.41,6.53,8.66,9.15,12.24,1.26,1.74,3.95-.05,2.86-.52a28.67,28.67,0,0,1,4.11,0c2.12.34,1.38,2.46-.06,3.46-3.21,2.21-6.06,3.46-9,2a14.23,14.23,0,0,1-1.79-1.18,8.49,8.49,0,0,1-1.18-1c-.94-1.12-1.3-2.94-2.16-4.48-.29-.51-.52-.62-.7-.49-.36.5,0,7.91.18,9.4-.09.42-1.54.76-1.83.43l-2.68-13.17a4.67,4.67,0,0,1,.35-3.37C211.38,381,212.93,379.76,213.28,379.12Z" transform="translate(-70.92 -78.27)"/><path class="cls-32" d="M222.1,396.91a6,6,0,0,1-1.72-.58,14.23,14.23,0,0,1-1.79-1.18,8.49,8.49,0,0,1-1.18-1c-1-1.22-1.52-3.48-2.65-5,.38-.23,1.36-.21,2.35,1.42,1.49,2.73,2.51,4.74,4.47,6.07A3.25,3.25,0,0,0,222.1,396.91Z" transform="translate(-70.92 -78.27)"/><path class="cls-36" d="M232.17,317.33a72.42,72.42,0,0,0,1.21-22.77c-.24-4.15.19-6.19-1.18-10.21a23.79,23.79,0,0,0-2-4.15c-6.44,2-11.26,3.95-18.56,3.69a20.94,20.94,0,0,0-2.51,12.16c1.18,8.92,4.24,16.22,5.23,31.53-2.51,17.83-.67,29.86-.3,47.14,0,1.94,6.24,3.48,8.07,2.27C226,356.74,228.37,337.13,232.17,317.33Z" transform="translate(-70.92 -78.27)"/><path class="cls-37" d="M198.28,255.57l12.88,2.95c2.58,1.15.62,6.64-1.93,7.28l-18-2.33c-4.58-1-5.59-4-4.59-6.34l.06-.15c.31-1.45,9.47-14.62,10.79-16.41a19.2,19.2,0,0,1,4.55-4.55,5,5,0,0,1,5,.13,3.73,3.73,0,0,1,1.75,4.75C207.46,244.07,202.45,250.26,198.28,255.57Z" transform="translate(-70.92 -78.27)"/><path class="cls-38" d="M205.39,234.47c-7.55-.85-7.57,11.59-4.94,17.45,6.83,15.25,2.41,17.61,3,24.56l-.14,2.79c6.49,9.67,25.31,8.92,27.59,1.93-.12-.43-.22-2.27-.38-2.73.44-6.12-2.49-11-1.92-15.13,1-7,4.77-9.48,2.71-15.48-1.5-2.06-5.57-5.37-9.8-7.69C215.61,236.92,209,234.87,205.39,234.47Z" transform="translate(-70.92 -78.27)"/><path class="cls-39" d="M256.74,216.93c2.07-3,4.43-7.91,6.89-9.42,1.27-1.56,3.11-4,4.31-5.53.88-1.1,2.23.66,1.54,1.74s-2.58,3.79-2.58,3.8l-.09.09a6,6,0,0,1,2.12,3.29c.35,1.47-1.89,4.54-3.22,6.64-1.19,1.86-3.57,1.91-4.31,3.29C259.1,220.79,257.79,218.68,256.74,216.93Z" transform="translate(-70.92 -78.27)"/><path class="cls-40" d="M225,243.54c1.69-1.29,5-1.53,7.4-2.52,4-1.63,8.7-4.1,12.73-5.21.49-2.09,6-11.54,9.29-16.43.36-.54,1.14-.87,1.43-1.29s.66-.93.88-1.2c1.4.12,3.81,1.8,5.23,3.33-.26.55-.51,1.12-.75,1.7s-.06,1.67-.24,2.14c-2,5.06-3.94,10.21-6.32,14.12a21.46,21.46,0,0,1-1.65,3.49c-.89,1.21-4.29,3.54-5.65,4.38-3,1.84-9.86,6.54-15.27,8.67-4,1.57-5.67.67-7.13-.77C221.56,250.62,221.64,246.12,225,243.54Z" transform="translate(-70.92 -78.27)"/><path class="cls-41" d="M205.39,234.47c-7.55-.85-7.57,11.59-4.94,17.45,6.83,15.25,2.41,17.61,3,24.56l-.14,2.79c6.49,9.67,25.31,8.92,27.59,1.93-.11-.4-.2-2-.34-2.58-6.85,6.54-16.76,4.81-22.62,1.32a7.8,7.8,0,0,1,.14-4.77c4.71-5.07,16.36-3.25,19.19-17.18.83-4.05-1.85-7.61-4.44-10.82-1.25-1.54-2.17-2.34-3.84-4.66-2.73.64-7.8-.26-8.41-1.37-.21-.39.87-3.8.69-4.21C206.65,234.87,208.13,234.78,205.39,234.47Z" transform="translate(-70.92 -78.27)"/><path class="cls-42" d="M207.81,237.9c-.58,2.48,8.47,5.16,11.57,3.81l.07-.6c.8-3.7,1.59-6.84,2.14-9.44,1.44.62,5,.8,5.3.3-9.55-7.62-20.71-13.26-22.15-9.41.95,2.79,3.39,4.77,4.62,6.59a5.73,5.73,0,0,1,.63,2.49h0A26.92,26.92,0,0,1,207.81,237.9Z" transform="translate(-70.92 -78.27)"/><path class="cls-30" d="M226.83,232c-.82.54-6.66-1.4-7.14-1.38-4.54.23-9.43-.14-10.33-1.48-1.23-1.82-3.67-3.8-4.62-6.59-1.51-4.45-1.21-9.48,2.86-13,7.09-6.08,18.2-1.62,19.79,5.27.65,2.82-.16,3.06,0,5,.24,3.49.64,2.17.32,7.69C227.57,229.59,227.38,231.66,226.83,232Z" transform="translate(-70.92 -78.27)"/><path class="cls-3" d="M209.12,234.58c.25,2.26,6.6,3.85,10.45,2.95.42-.1.67-.17.82-.44a8.28,8.28,0,0,1,2.29,3.65c-3.33,3.21-13.86,1.33-15.13-2.43A2.82,2.82,0,0,1,209.12,234.58Z" transform="translate(-70.92 -78.27)"/><path class="cls-43" d="M191.59,227.1c-6.06,5.07-9.47,14.19-6.72,19.36,2.5,4.69,8.59,7.45,6.72,10.42-1.55,2.45-5.2,4.91-.86,8.87,2.23,2,7.69,7.51,18.82,4.68,10.86-2.76,22.24-12.14,13.1-22.39-9.62-10.79-4-13.17,1.53-21.66,2.91-4.48,5.52-13.35,3-16.64-4.28-5.66-7.13-1.58-11.26-3.58-7.87-3.81-14.32-1.09-18,4.87C194.6,216.37,196.4,223.07,191.59,227.1Z" transform="translate(-70.92 -78.27)"/><path class="cls-44" d="M118.84,335.09a12.89,12.89,0,0,0-2.2-8c-2.87-4.25-7.64-7.49-12.25-9.63-9.57-4.46-22.2-7.27-24.8,5.72.09-.18.21-.35.31-.52a9.24,9.24,0,0,1,6.19-4,18,18,0,0,1,4.07-.44h.42a30.54,30.54,0,0,1,12,3c4.58,2.13,9.26,5.52,12.12,9.75a17.76,17.76,0,0,1,1.18,2,10.85,10.85,0,0,1,1.28,5.57h0Z" transform="translate(-70.92 -78.27)"/><path class="cls-45" d="M86.6,340.54l-.41-.29c-.64-.43-1.25-.88-1.86-1.33l-.45-.35c-.71-.56-1.41-1.13-2.08-1.73l-.6-.54-.68-.65-.64-.63c-.22-.22-.43-.44-.64-.67l-.47-.51q-.52-.6-1-1.2l-.4-.49c-.43-.55-.85-1.11-1.23-1.68-3.7-5.47-4.37-10.62-2.46-14.51L72,319.44c-1.9,3.89-1.24,9,2.46,14.51.39.57.8,1.13,1.24,1.68.12.17.26.33.39.49.33.41.67.81,1,1.2l.25.3.21.22.64.66.64.64.68.64.45.42.15.13c.67.59,1.37,1.17,2.08,1.72l.17.14.29.21c.6.46,1.22.9,1.85,1.33l.21.16.2.13h0Z" transform="translate(-70.92 -78.27)"/><path class="cls-46" d="M123.3,327c-7.34-10.87-23.86-18.92-36.9-18S68.77,319.6,76.12,330.47A38.26,38.26,0,0,0,86.6,340.54l4-3.34A27.16,27.16,0,0,1,83,330c-5.19-7.68-1.94-14.47,7.27-15.14s20.88,5,26.07,12.69a12.23,12.23,0,0,1,2.46,7.58l8,2.45C127,334.38,125.85,330.77,123.3,327Z" transform="translate(-70.92 -78.27)"/><path class="cls-47" d="M122.92,327a15.88,15.88,0,0,1,2.9,9.47c-.95-.17-4.21-.83-7-1.36l8,2.45c.17-3.16-.94-6.77-3.49-10.54-6.48-9.59-20.1-17-32.17-17.93C103.1,310.15,116.51,317.49,122.92,327Z" transform="translate(-70.92 -78.27)"/><path class="cls-48" d="M90.31,314.82a22.08,22.08,0,0,1,3.25,0c-1.24-.11-2.46,0-3.64,0-9.67,0-16.29,11.41-.79,22.61,0,0-2.61,3.09-2.53,3.14l4-3.34A27.16,27.16,0,0,1,83,330C77.85,322.28,81.1,315.49,90.31,314.82Z" transform="translate(-70.92 -78.27)"/><path class="cls-49" d="M118.84,335.09l-1.71,3.48a7.29,7.29,0,0,1-.71,2.68l1.71-3.49A7.23,7.23,0,0,0,118.84,335.09Z" transform="translate(-70.92 -78.27)"/><path class="cls-49" d="M124.32,343.67c-2.34,2.69-5.87,4-9.33,4.54l-.55.08c-5.87.75-12.28-.52-17.69-2.55a49.62,49.62,0,0,1-10.15-5.2L84.89,344A49.13,49.13,0,0,0,95,349.22l.22.09c5.37,2,11.68,3.2,17.47,2.46,3.64-.47,7.41-1.78,9.89-4.62a10.14,10.14,0,0,0,1.32-1.93l.12-.23,1.71-3.48A10.47,10.47,0,0,1,124.32,343.67Z" transform="translate(-70.92 -78.27)"/><path class="cls-50" d="M126.79,337.54l-8-2.45c-.3,4.14-3.77,7.13-9.73,7.56s-12.9-1.77-18.48-5.45l-4,3.34c8,5.32,17.93,8.52,26.42,7.89S126.45,343.49,126.79,337.54Z" transform="translate(-70.92 -78.27)"/><path class="cls-51" d="M126.79,337.54s-.38,9.41-14,10.5c-12.57,1-26.15-7.5-26.15-7.5,8,5.32,17.93,8.52,26.42,7.89S126.45,343.49,126.79,337.54Z" transform="translate(-70.92 -78.27)"/><path class="cls-3" d="M367.27,124l-.57.11c-8.87,1.71-18.57,9.41-21.95,17.81l2.49,3.59a22.7,22.7,0,0,1,3.14-5.36l.7-.86a34.18,34.18,0,0,1,16.85-10.83l.38-.1c4.48-1.09,10.53-1.17,13.38,2.95l-2.49-3.6C376.68,124.08,371.29,123.34,367.27,124Z" transform="translate(-70.92 -78.27)"/><path class="cls-3" d="M386.58,123.25l.23.38.18.35c.06.13.13.26.19.4s.11.24.16.37.11.27.16.41.08.25.13.38l.12.43c0,.13.07.26.1.39s.07.32.1.48.05.27.07.4.05.33.07.49,0,.27,0,.41l0,.61c0,.13,0,.25,0,.38s0,.46,0,.7,0,.21,0,.31q0,.57-.12,1.17c0,.1,0,.2,0,.3-.05.31-.1.62-.17.93l-.09.43c0,.18-.09.36-.14.55s-.09.33-.14.5-.11.38-.17.56-.11.35-.17.52l-.21.57-.2.53c-.08.2-.16.39-.25.59s-.21.48-.32.73-.38.8-.59,1.2-.43.79-.65,1.18l2.49,3.6c.45-.78.87-1.58,1.24-2.39.06-.12.12-.25.17-.38a3.68,3.68,0,0,0,.15-.35l.25-.58.2-.53.21-.57c.06-.17.12-.35.17-.52s.12-.37.17-.56.1-.34.14-.51.1-.36.14-.54l.06-.23,0-.2c.07-.32.12-.62.17-.93,0-.1,0-.2,0-.31.05-.39.09-.78.12-1.16v-.05c0-.09,0-.17,0-.26,0-.24,0-.47,0-.71s0-.25,0-.37l0-.61a1,1,0,0,1,0-.17l0-.24c0-.16,0-.33-.07-.49s0-.27-.07-.41-.06-.31-.1-.47,0-.14,0-.21l-.06-.18c0-.15-.08-.29-.13-.43l-.12-.39c-.05-.14-.11-.27-.16-.41l-.09-.22c0-.05-.05-.1-.07-.14s-.13-.27-.19-.4l-.18-.35c-.08-.13-.15-.26-.23-.38l-.14-.23-.14-.21-2.49-3.6C386.4,123,386.49,123.1,386.58,123.25Z" transform="translate(-70.92 -78.27)"/><path class="cls-52" d="M372.24,117.82c-13.26,1.12-28.54,11.77-34.14,23.77-.4.87-.74,1.72-1,2.55l7.68-2.21c.12-.3.25-.62.4-.94,4-8.48,14.75-16,24.12-16.79s13.76,5.43,9.81,13.91c-.16.33-.31.66-.48,1l6.28.81c.45-.78.87-1.58,1.24-2.38C391.71,125.51,385.51,116.69,372.24,117.82Z" transform="translate(-70.92 -78.27)"/><path class="cls-53" d="M378.75,127.17c-3.21-4.71-12.1-4.06-18.29-1.12-7.65,3.62-13.48,9.56-16.28,15.28,0,0-6.94,2.31-7.11,2.81l7.68-2.21c.12-.3.25-.62.4-.94,4-8.48,14.75-16,24.12-16.79C373.62,123.83,376.88,125,378.75,127.17Z" transform="translate(-70.92 -78.27)"/><path class="cls-3" d="M384.49,139.17s-5.72-.4-5.89-.08l6.28.81c.45-.78.87-1.58,1.24-2.38,2.93-6.28,2.62-11.69-.24-15.26C390.34,129.3,384.94,138.38,384.49,139.17Z" transform="translate(-70.92 -78.27)"/><path class="cls-3" d="M347.24,145.53l-2.49-3.6c-2.73,6.34-1.48,8.9,2.77,13a7.27,7.27,0,0,1-.5-.85A1,1,0,0,1,347,154C345.69,151.32,346.18,148.16,347.24,145.53Z" transform="translate(-70.92 -78.27)"/><path class="cls-3" d="M387.37,143.5l-2.49-3.6c-5.81,10-36.29,28.07-46.95,16.39l2.49,3.6c2.49,3.61,7.38,5.56,14.05,5,.77-.06,1.55-.16,2.33-.29.26,0,.54-.11.81-.16.58-.11,1.15-.22,1.73-.36a41,41,0,0,0,6.36-2.13l.27-.13a48.16,48.16,0,0,0,19.72-15.73c.14-.21.3-.42.45-.63Q386.79,144.48,387.37,143.5Z" transform="translate(-70.92 -78.27)"/><path class="cls-54" d="M378.6,139.09c-4.3,8.07-14.63,15-23.65,15.82s-13.42-5-10.2-13l-7.68,2.21c-3.62,10.68,2.61,18.19,14.91,17.15s26.51-10.39,32.9-21.39Z" transform="translate(-70.92 -78.27)"/><path class="cls-3" d="M352.13,160.75c-19.92,1.42-15.06-16.61-15.06-16.61-3.62,10.68,2.61,18.19,14.91,17.15s26.51-10.39,32.9-21.39C384.88,139.9,372.2,159.18,352.13,160.75Z" transform="translate(-70.92 -78.27)"/></g></g></svg>