<?xml version="1.0" encoding="utf-8"?>
<!-- Generator: Adobe Illustrator 24.2.3, SVG Export Plug-In . SVG Version: 6.00 Build 0)  -->
<svg version="1.1" id="Layer_1" xmlns="http://www.w3.org/2000/svg" xmlns:xlink="http://www.w3.org/1999/xlink" x="0px" y="0px"
	 viewBox="0 0 1920 3200" style="enable-background:new 0 0 1920 3200;" xml:space="preserve">
<style type="text/css">
	.st0{opacity:0.3;clip-path:url(#SVGID_2_);}
	.st1{fill:#7163DE;}
	.st2{fill:#A29AFD;}
	.st3{fill:#4433C8;}
	.st4{clip-path:url(#SVGID_4_);}
	.st5{fill:#D281F9;}
	.st6{fill:#B228F1;}
	.st7{fill:#C45AF4;}
	.st8{clip-path:url(#SVGID_6_);}
	.st9{clip-path:url(#SVGID_8_);}
	.st10{fill:#1C82F9;}
	.st11{fill:#003C85;}
	.st12{fill:#0056BD;}
	.st13{clip-path:url(#SVGID_10_);}
</style>
<g>
	<defs>
		<rect id="SVGID_1_" width="1920" height="3200"/>
	</defs>
	<clipPath id="SVGID_2_">
		<use xlink:href="#SVGID_1_"  style="overflow:visible;"/>
	</clipPath>
	<g class="st0">
		<g>
			<path class="st1" d="M-65.5,640.8l203.3,165.3l-58,206.6L-65.5,640.8L-65.5,640.8z"/>
			<path class="st2" d="M-65.5,640.8l101.1-59.6l210.9,159.6l-108.6,65.3L-65.5,640.8L-65.5,640.8z"/>
			<path class="st3" d="M137.8,806.1l108.6-65.3l-63.9,209.4l-102.7,62.4C79.8,1012.7,137.8,806.1,137.8,806.1z"/>
		</g>
		<g>
			<path class="st1" d="M1697.1,2264.8l203.3,165.3l-58,206.6L1697.1,2264.8L1697.1,2264.8z"/>
			<path class="st2" d="M1697.1,2264.8l101.1-59.6l210.9,159.6l-108.7,65.3L1697.1,2264.8z"/>
			<path class="st3" d="M1900.5,2430.1l108.6-65.3l-63.9,209.4l-102.7,62.4L1900.5,2430.1L1900.5,2430.1z"/>
		</g>
		<g>
			<g>
				<defs>
					
						<rect id="SVGID_3_" x="1712.4" y="1195.6" transform="matrix(0.1191 -0.9929 0.9929 0.1191 321.6442 3087.0996)" width="376.4" height="333.4"/>
				</defs>
				<clipPath id="SVGID_4_">
					<use xlink:href="#SVGID_3_"  style="overflow:visible;"/>
				</clipPath>
				<g class="st4">
					<path class="st5" d="M1729.3,1531.3l-12.8-33.7l17-123.2l13.7,34.3L1729.3,1531.3z"/>
					<path class="st6" d="M1747.1,1408.7l-13.7-34.3l58.1,17.9l14,33.8L1747.1,1408.7L1747.1,1408.7z"/>
					<path class="st7" d="M1847,1255.7l97.3,61.2l71.9-98.8l64.5,43.8l-351.2,269.4l17.8-122.6l58.4,17.4L1847,1255.7L1847,1255.7z"
						/>
					<path class="st6" d="M1847,1255.7l-15.4-34.4l96.9,62l15.7,33.5L1847,1255.7L1847,1255.7z"/>
					<path class="st5" d="M1805.5,1426.1l-14-33.8l40.1-171l15.4,34.4L1805.5,1426.1L1805.5,1426.1z"/>
				</g>
			</g>
		</g>
		<g>
			<g>
				<defs>
					
						<rect id="SVGID_5_" x="-89.4" y="2749.7" transform="matrix(0.9982 -5.949808e-02 5.949808e-02 0.9982 -173.3454 11.0443)" width="376.4" height="333.4"/>
				</defs>
				<clipPath id="SVGID_6_">
					<use xlink:href="#SVGID_5_"  style="overflow:visible;"/>
				</clipPath>
				<g class="st8">
					<path class="st5" d="M95.2,2951.2l30.2-21.4l109.8,51.9l-30,22.6C205.2,3004.4,95.2,2951.2,95.2,2951.2z"/>
					<path class="st6" d="M205.2,3004.4l30-22.6l-32.2,71.2l-29.4,22.7L205.2,3004.4z"/>
					<path class="st7" d="M138.1,2844.6l-42.9,106.6l110,53.1l-31.6,71.2L-154,2777.9l123.8-4.3l-6.8,60.5L138.1,2844.6
						L138.1,2844.6z"/>
					<path class="st6" d="M138.1,2844.6l31.1-21.3l-43.8,106.4l-30.2,21.4L138.1,2844.6L138.1,2844.6z"/>
					<path class="st5" d="M-37,2834.2l30.8-19.8l175.4,9l-31.1,21.3C138.1,2844.6-37,2834.2-37,2834.2z"/>
				</g>
			</g>
		</g>
		<g>
			<g>
				<defs>
					
						<rect id="SVGID_7_" x="1669.8" y="110.8" transform="matrix(0.234 -0.9722 0.9722 0.234 1150.2803 2056.2297)" width="420.3" height="374.7"/>
				</defs>
				<clipPath id="SVGID_8_">
					<use xlink:href="#SVGID_7_"  style="overflow:visible;"/>
				</clipPath>
				<g class="st9">
					<path class="st10" d="M2099.5,186.9l-387.4,287l93.5-339.2L2099.5,186.9z"/>
					<path class="st11" d="M1712.1,473.9l-50-70.8L1747.6,61l58,73.8L1712.1,473.9L1712.1,473.9z"/>
					<path class="st12" d="M1805.6,134.8l-58-73.8l296.6,60.6l55.2,65.4C2099.5,186.9,1805.6,134.8,1805.6,134.8z"/>
				</g>
			</g>
		</g>
		<g>
			<g>
				<defs>
					
						<rect id="SVGID_9_" x="-59.1" y="1701.9" transform="matrix(0.9982 -5.930640e-02 5.930640e-02 0.9982 -109.981 7.954)" width="276.1" height="309.8"/>
				</defs>
				<clipPath id="SVGID_10_">
					<use xlink:href="#SVGID_9_"  style="overflow:visible;"/>
				</clipPath>
				<g class="st13">
					<path class="st10" d="M209.9,1731.3L-1.7,2016.8l-6.8-259.2L209.9,1731.3z"/>
					<path class="st12" d="M-8.5,1757.6l-56.7-39.6l222.1-21l53,34.3L-8.5,1757.6z"/>
				</g>
			</g>
		</g>
	</g>
</g>
</svg>
