<?xml version="1.0" encoding="utf-8"?>
<!-- Generator: Adobe Illustrator 24.2.3, SVG Export Plug-In . SVG Version: 6.00 Build 0)  -->
<svg version="1.1" id="Layer_1" xmlns="http://www.w3.org/2000/svg" xmlns:xlink="http://www.w3.org/1999/xlink" x="0px" y="0px"
	 viewBox="0 0 1000 7000" style="enable-background:new 0 0 1000 7000;" xml:space="preserve">
<style type="text/css">
	.st0{opacity:0.2;clip-path:url(#SVGID_2_);}
	.st1{fill:#7163DE;}
	.st2{fill:#A29AFD;}
	.st3{fill:#4433C8;}
	.st4{clip-path:url(#SVGID_4_);}
	.st5{fill:#D281F9;}
	.st6{fill:#B228F1;}
	.st7{fill:#C45AF4;}
	.st8{clip-path:url(#SVGID_6_);}
	.st9{clip-path:url(#SVGID_8_);}
	.st10{fill:#1C82F9;}
	.st11{fill:#003C85;}
	.st12{fill:#0056BD;}
	.st13{clip-path:url(#SVGID_10_);}
</style>
<g>
	<defs>
		<rect id="SVGID_1_" width="1000" height="7000"/>
	</defs>
	<clipPath id="SVGID_2_">
		<use xlink:href="#SVGID_1_"  style="overflow:visible;"/>
	</clipPath>
	<g class="st0">
		<g>
			<path class="st1" d="M-65.5,1336.9l203.3,165.3l-58,206.6L-65.5,1336.9L-65.5,1336.9z"/>
			<path class="st2" d="M-65.5,1336.9l101.1-59.6l210.9,159.6l-108.6,65.3L-65.5,1336.9L-65.5,1336.9z"/>
			<path class="st3" d="M137.8,1502.2l108.6-65.3l-63.9,209.4l-102.7,62.4C79.8,1708.8,137.8,1502.2,137.8,1502.2z"/>
		</g>
		<g>
			<path class="st1" d="M787.1,4900.7L990.4,5066l-58,206.6L787.1,4900.7L787.1,4900.7z"/>
			<path class="st2" d="M787.1,4900.7l101.1-59.6l210.9,159.6L990.4,5066L787.1,4900.7z"/>
			<path class="st3" d="M990.5,5066l108.6-65.3l-63.9,209.4l-102.7,62.4L990.5,5066L990.5,5066z"/>
		</g>
		<g>
			<g>
				<g>
					<defs>
						
							<rect id="SVGID_3_" x="802.4" y="2475.4" transform="matrix(0.1191 -0.9929 0.9929 0.1191 -1750.6522 3311.0212)" width="376.4" height="333.4"/>
					</defs>
					<clipPath id="SVGID_4_">
						<use xlink:href="#SVGID_3_"  style="overflow:visible;"/>
					</clipPath>
					<g class="st4">
						<path class="st5" d="M819.3,2811.2l-12.8-33.7l17-123.2l13.7,34.3L819.3,2811.2z"/>
						<path class="st6" d="M837.1,2688.6l-13.7-34.3l58.1,17.9l14,33.8L837.1,2688.6L837.1,2688.6z"/>
						<path class="st7" d="M937,2535.6l97.3,61.2l71.9-98.8l64.5,43.8l-351.2,269.4l17.8-122.6l58.4,17.4L937,2535.6L937,2535.6z"/>
						<path class="st6" d="M937,2535.6l-15.4-34.4l96.9,62l15.7,33.5L937,2535.6L937,2535.6z"/>
						<path class="st5" d="M895.5,2706l-14-33.8l40.1-171l15.4,34.4L895.5,2706L895.5,2706z"/>
					</g>
				</g>
			</g>
		</g>
		<g>
			<g>
				<g>
					<defs>
						
							<rect id="SVGID_5_" x="-89.4" y="5943.4" transform="matrix(0.9982 -5.949977e-02 5.949977e-02 0.9982 -363.3764 16.7036)" width="376.4" height="333.4"/>
					</defs>
					<clipPath id="SVGID_6_">
						<use xlink:href="#SVGID_5_"  style="overflow:visible;"/>
					</clipPath>
					<g class="st8">
						<path class="st5" d="M95.2,6145l30.2-21.4l109.8,51.9l-30,22.6C205.2,6198.2,95.2,6145,95.2,6145z"/>
						<path class="st6" d="M205.2,6198.2l30-22.6l-32.2,71.2l-29.4,22.7L205.2,6198.2z"/>
						<path class="st7" d="M138.1,6038.4L95.2,6145l110,53.1l-31.6,71.2L-154,5971.7l123.8-4.3l-6.8,60.5L138.1,6038.4L138.1,6038.4
							z"/>
						<path class="st6" d="M138.1,6038.4l31.1-21.3l-43.8,106.4l-30.2,21.4L138.1,6038.4L138.1,6038.4z"/>
						<path class="st5" d="M-37,6028l30.8-19.8l175.4,9l-31.1,21.3C138.1,6038.4-37,6028-37,6028z"/>
					</g>
				</g>
			</g>
		</g>
		<g>
			<g>
				<g>
					<defs>
						
							<rect id="SVGID_7_" x="759.9" y="161" transform="matrix(0.234 -0.9722 0.9722 0.234 404.4118 1209.9183)" width="420.3" height="374.7"/>
					</defs>
					<clipPath id="SVGID_8_">
						<use xlink:href="#SVGID_7_"  style="overflow:visible;"/>
					</clipPath>
					<g class="st9">
						<path class="st10" d="M1189.5,236.9l-387.4,287l93.5-339.2L1189.5,236.9z"/>
						<path class="st11" d="M802.1,523.9l-50-70.8L837.6,111l58,73.8L802.1,523.9L802.1,523.9z"/>
						<path class="st12" d="M895.6,184.8l-58-73.8l296.6,60.6l55.2,65.4C1189.5,236.9,895.6,184.8,895.6,184.8z"/>
					</g>
				</g>
			</g>
		</g>
		<g>
			<g>
				<g>
					<defs>
						
							<rect id="SVGID_9_" x="-59.1" y="3684.2" transform="matrix(0.9982 -5.930876e-02 5.930876e-02 0.9982 -227.55 11.4402)" width="276.1" height="309.8"/>
					</defs>
					<clipPath id="SVGID_10_">
						<use xlink:href="#SVGID_9_"  style="overflow:visible;"/>
					</clipPath>
					<g class="st13">
						<path class="st10" d="M209.9,3713.6L-1.7,3999.1l-6.8-259.2L209.9,3713.6z"/>
						<path class="st12" d="M-8.5,3739.9l-56.7-39.6l222.1-21l53,34.3L-8.5,3739.9z"/>
					</g>
				</g>
			</g>
		</g>
	</g>
</g>
</svg>
