<?xml version="1.0" encoding="utf-8"?>
<!-- Generator: Adobe Illustrator 24.2.3, SVG Export Plug-In . SVG Version: 6.00 Build 0)  -->
<svg version="1.1" id="Layer_1" xmlns="http://www.w3.org/2000/svg" xmlns:xlink="http://www.w3.org/1999/xlink" x="0px" y="0px"
	 viewBox="0 0 500 500" style="enable-background:new 0 0 500 500;" xml:space="preserve">
<style type="text/css">
	.st0{opacity:0.4;fill:#577CA0;}
	.st1{fill:#3D5476;}
	.st2{fill:#92BACE;}
	.st3{fill:#577CA0;}
	.st4{fill:#FBBFA7;}
	.st5{fill:#212A38;}
	.st6{fill:#B7D7F1;}
	.st7{fill:#E8573E;}
	.st8{fill:#D8E4EA;}
	.st9{fill:#BF3C27;}
	.st10{fill:#F36E54;}
	.st11{fill:#BCD6EA;}
</style>
<g>
	<polygon class="st0" points="218.4,352.4 169.8,324.1 75,379.2 177,438.6 257.6,392 314.4,424.9 415.7,366.2 425,360.8 
		314.1,296.8 	"/>
	<g>
		<polygon class="st1" points="135.9,230.5 131.5,227.9 131.6,267.5 136,270.1 		"/>
		<polygon class="st2" points="179.4,205.4 175,202.8 131.5,227.9 135.9,230.5 		"/>
		<polygon class="st3" points="135.9,230.5 136,270.1 179.6,244.9 179.4,205.4 		"/>
		<path class="st4" d="M190.7,148.6c-0.2,0.3-0.5,0.6-0.8,0.9C190.2,149.2,190.4,148.9,190.7,148.6z"/>
		<path class="st4" d="M191.9,146.8c-0.3,0.5-0.6,1-0.9,1.4C191.3,147.8,191.6,147.3,191.9,146.8z"/>
		<path class="st5" d="M186.2,116c-10.1,1.5-16.7,10-14.9,22.2c0.5,3.4,1.8,6.5,3.6,9.4c1.4,2.3,2,4,2.3,5.8
			c0.1,0.6,0.2,1.2,0.2,1.8c0.8,0.1,1.5,0.1,2.2,0.1c5-0.1,8.6-2.9,10.8-5.4c0.2-0.3,0.5-0.6,0.7-0.8c0.1-0.1,0.2-0.2,0.2-0.3
			c0.3-0.4,0.6-0.8,0.8-1.3c-0.9-1.1-1.5-2.9-1.6-5c-0.1-3.6,1.4-6.5,3.5-6.6c0.5,0,1.5,0.1,2.2,1.1c0.3,0.4,0.6,1,0.8,1.9
			c3.7-1.2,7.7-7.4,9.4-11C203.2,119,194.8,114.7,186.2,116z"/>
		<path class="st5" d="M186.4,414.9c7.1,0.6,13.1-3.2,15.9-7.3c0.2-2.5,0.3-5.2,0.5-8c4.7-0.8,13.2-4.4,16.7-2.1
			c7,4.6-5.5,14.7-11.1,16c-4.3,1-7.5-0.8-12.1,2.6c-6.3,4.8-18.8,2.5-16.8-4.6l0,0.2C181.5,413.8,183.9,414.8,186.4,414.9z"/>
		<path class="st5" d="M167.6,390.3c2.3-3.5,3.9-8.5,4.5-13.3c0.1-1,0.3-1.9,0.4-2.9c3.4-1.8,6.6-2.3,9-1.1c0.2,0.1,0.4,0.3,0.6,0.4
			c-0.3,3.2-0.6,6.4-0.9,9.5c-0.5,0.4-1,0.9-1.6,1.2c-3.3,2.3-6.7,1.8-9.5,6.4c-3.8,6.3-17.7,6.1-17-2.4
			C157,392.8,162.7,392.5,167.6,390.3z"/>
		<path class="st4" d="M175.6,160.3c1.1-1.7,1.9-3.6,1.8-5.1c0.8,0.1,1.5,0.1,2.2,0.1c5-0.1,8.6-2.9,10.8-5.4
			c0.2-0.3,0.5-0.6,0.7-0.8c0.1-0.1,0.2-0.2,0.2-0.3c0.3-0.4,0.6-0.8,0.8-1.3c-0.9-1.1-1.5-2.9-1.6-5c-0.1-3.6,1.4-6.5,3.5-6.6
			c0.5,0,1.5,0.1,2.2,1.1c0.3,0.4,0.6,1,0.8,1.9c3.7-1.2,7.7-7.4,9.4-11c0.6,1.5,1.1,3.1,1.3,4.9c1.8,12.2-1.2,25.8-11.3,27.2
			c-1.9,0.5-2.5,2.3-2.1,3.9C186.3,164.9,177.8,163.7,175.6,160.3z"/>
		<path class="st6" d="M175.6,160.3c2.2,3.4,10.8,4.6,18.9,3.6c0.2,1.2,2.6,4.3,3.7,4.9c-16.8,5.4-26.1-3.4-26.1-5
			C173.4,163.1,174.6,161.8,175.6,160.3z"/>
		<path class="st4" d="M255.8,203.8c2-4,4.9-11.9,7.1-14.9c0.7-1,2.1,4,0.5,8c10.4-7.4,14.6-7.9,12.2,3.1c-2,8.7-8.3,7.4-13.9,12.9
			c-0.2,0.2-0.5,0.5-0.7,0.7C260.2,209.1,258.3,205.5,255.8,203.8z"/>
		<path class="st6" d="M253,207.9c0.7-0.7,1.3-1.5,1.8-2.2c0.3-0.4,0.6-1.1,1-1.8c2.5,1.7,4.4,5.3,5.1,9.7c-1.2,1.2-2.5,2.4-3.8,3.7
			C256.7,213.1,254.7,209,253,207.9z"/>
		<path class="st1" d="M202.6,285.5c3.8-0.2,7.6-0.6,11.1-1.4c-1.8,40.3-8.8,80.4-10.7,113.7c0,0.6-0.1,1.2-0.1,1.8
			c-0.2,2.8-0.3,5.5-0.5,8c-2.8,4.1-8.8,7.9-15.9,7.3c-2.6-0.1-5-1.1-6.8-3.3c0-9.3,0.7-18.9,1.6-28.7c0.3-3.2,0.6-6.3,0.9-9.5
			c2.4-24.5,5.4-49.7,2-71.6c-0.8,7.4-4.7,31.1-6,37.8c-2.4,12.7-4.1,23.3-5.6,34.5c-0.1,0.9-0.3,1.9-0.4,2.9
			c-0.6,4.8-2.3,9.8-4.5,13.3c-4.9,2.2-10.6,2.6-14.5-2.1c-0.2-0.3-0.4-0.6-0.7-0.9c0-32.5,6.4-60.3,8.8-97.9
			c0.3-4.2-1.1-9.7-2-15.8c4,3.6,9.7,6.5,16.2,8.6C183.6,284.9,193.1,286.2,202.6,285.5z"/>
		<path class="st7" d="M156.8,173.7c4.2-4.3,8.2-7.4,15.2-10c0,1.6,9.3,10.4,26.1,5c7.3,1.5,16.2,7,22.6,19.3
			c1.9,3.6,3.6,7.3,5.2,11c3.2,7.5,5.8,13.8,8,18.8c10.4-3.8,15.8-6.5,19.1-10.1c1.7,1.1,3.6,5.3,4.1,9.3c0.2,1.4,0.1,2.8-0.1,4
			c-10,9.3-24.4,16.4-34.3,9.5c-0.5-0.3-1-1-1.4-1.5c-2.5-2.9-5.9-5.9-8.9-10.8c2.7,23.6,3.3,38.1,3.7,61.3c0,0.8,0.2,3.1,0.1,3.8
			c-0.8,0.2-1.6,0.4-2.5,0.5c-3.6,0.7-7.3,1.2-11.1,1.4c-9.5,0.7-19-0.5-27.1-3.4c-6.6-2.1-12.2-5-16.2-8.6c-0.5-0.5-1-0.9-1.5-1.4
			c0-4.8,0.7-9.9,1-16.4c1.3-12.8,1.7-22.8,0.9-31.9c-0.7-7.3-1.8-13.6-2.9-19.1c-0.5,2.9-0.8,6-1,9.2l-13.2,7.6
			C141.3,197,148.2,181.8,156.8,173.7z"/>
	</g>
	<g>
		<path class="st3" d="M304.8,226.5c-0.2-1.7-0.3-3.6-0.3-5.8c-0.3-5-0.5-9.9-0.6-14.7c6.5,1.7,14.4,2.6,22.6,2.3
			c0.3,3.3,0.7,6.7,1.2,10.1c0.6,4.1,1.2,8.3,2,12.5c11.7,0,21.6-3.9,24.9-9.4c-3,36.1,3.1,63.1,0.6,114.9
			c-4.1,1.9-12.4,4.1-19.3,2.4c-1-20.2-9-74.3-11.7-100.1c-1,21.9,1,63.8,2.8,87.1c-4.3,2.1-13.9,2.3-19.2-0.4
			c0,0.3-7.5-63.8-7.7-96.2c0-1.9,0-4.1,0-6.3C301.1,225.1,302.7,226.4,304.8,226.5z"/>
		<path class="st8" d="M334.7,124c0.4-1,0.8-2.1,1.2-3.1c0.1-0.3,0.2-0.5,0.3-0.8c0.4-1.1,0.8-2.2,1.3-3.3c1.9-4.8,3.4-8.3,3.4-8.3
			c7.7,2.2,17.6,7,20.9,12.6c11.2,19.3,16.7,52.6,16.7,86.3c0,0.7-0.4,1.4-1,2.1c-2.2,2.5-7.8,3.9-12.6,2.5c-0.5-0.1-1-0.3-1.5-0.5
			c0-21.5-3.2-34.5-7.6-48.6c-5.9,17.7-2.3,41.9,0,54.7c0,1.4-0.4,2.8-1.2,4c-3.3,5.4-13.2,9.4-24.9,9.4c-0.8-4.3-1.5-8.4-2-12.5
			c-0.5-3.4-0.9-6.8-1.2-10.1C323.2,172.3,329.4,142.4,334.7,124z"/>
		<path class="st8" d="M271.8,186.8c16.7-28.3,21.8-61.6,30.9-72.7c4.3-5.3,7.1-5,14.6-7l2.2-0.6c0.3,0.3,0.6,0.6,0.9,0.8
			c-1.5,2.6-3.2,6.4-4.4,9.9c-5.3,16.1-12.7,48.2-12,88.6c0.1,4.8,0.3,9.7,0.6,14.7c0.1,1.9,0.2,3.8,0.4,5.8c-2.1,0-3.9-1.4-5-3.5
			c-0.7-1.3-1.2-3-1.3-4.7c-1.7-17.4-1.1-44.3,2.1-59.8c0,0-14.4,36.1-16.7,37.3c-0.3,0.2-0.7,0.3-1.1,0.4c0.3-0.6,0.6-1.2,0.9-1.8
			c0.1-0.2,0.1-0.5,0.1-0.7c0.3-1,0-2.4-0.4-3.2c-1.3-2.7-4.4-4.7-8.1-4.7c-1.7,0-2.8,0.9-2.8,0.9c-0.3,0.4-0.7,0.9-1,1.4
			C271.7,187.6,271.7,187.1,271.8,186.8z"/>
		<path class="st5" d="M307.7,325.5c5.3,2.7,14.9,2.5,19.2,0.4c0.4,1.9,0.6,6,0.6,9.3c-14.5,0-20.9,9.6-39,5.2
			C287,332,301.6,336,307.7,325.5z"/>
		<path class="st5" d="M355.2,336.5c0.8,9.1-6.4,9.7-9.4,14.7c-5.1,8.6-3.3,12.6-16,13.2c-13.2-3.4,1.2-13.7,3.4-17.6
			c1.9-3.4,2.6-5.4,2.8-7.8C342.8,340.6,351.1,338.4,355.2,336.5z"/>
		<polygon class="st9" points="346.7,246.7 341.6,243.7 341.7,289.7 346.9,292.7 		"/>
		<polygon class="st10" points="397.4,217.5 392.2,214.5 341.6,243.7 346.7,246.7 		"/>
		<path class="st5" d="M378.7,223.6l-4.9-0.8c-0.3,0.6,0.4,1.5,2.5,1.9l5,0.5L378.7,223.6z"/>
		<path class="st9" d="M337.8,95.3c0.7-0.6,1.4-1.3,2-2.1c2.2-2.9,2.7-6.2,1.2-7.3c-0.8-0.6-2.1-0.4-3.5,0.4c-0.5-3.2-2-5.7-6.6-5.6
			c-11.8,0.1-14.8-2.4-19.2-3.8c1.8-7.9,7-14.2,16.8-15.3c9-1,24.9,5,12.8,32.4c-0.8,1.7-1.2,3.4-1.5,5.1
			C338.4,98.6,337.9,97.1,337.8,95.3z"/>
		<path class="st4" d="M377.4,211.6c-1,3.9-7.4,6.7-12.2,3.9c-2.2,4.5-3.6,10.2-2.5,15.7C379.6,231.2,377.8,222,377.4,211.6z"/>
		<path class="st6" d="M377.6,210.7c0-0.4,0-0.8,0-1.2c-0.1,0.1-0.2,0.1-0.2,0.2c0,0.7,0,1.3,0.1,1.9
			C377.4,211.3,377.6,211,377.6,210.7z"/>
		<path class="st5" d="M377.3,209.7c-2,2-6.2,3.2-10.4,2.7c-0.7-0.1-1.3-0.2-2-0.4c0,1.1,0,2.2,0,3.5c0.1,0,0.1,0,0.2,0.1
			c4.8,2.8,11.3,0.1,12.2-3.9C377.3,211,377.3,210.3,377.3,209.7z"/>
		<path class="st4" d="M271.3,189.2c0.1,0,0.2,0,0.3-0.1c3.2-0.7,8.1,2.3,10.2,6c-0.2,0.5-0.4,0.9-0.6,1.4
			c-2.4,4.6-8,12.5-17.7,10.7c-7.6-2.4-3.2-5.2,4.1-11.5c0.3-0.3-5,2.6-8.3,0.3C258.2,195.1,268,191.9,271.3,189.2z"/>
		<path class="st5" d="M271.7,188.1c0.3-0.5,0.7-1,1-1.4c0,0,1.1-0.9,2.8-0.9c3.8,0,6.8,2,8.1,4.7c0.4,0.8,0.7,2.2,0.4,3.2
			c0,0.2,0,0.5-0.1,0.7c-0.3,0.6-0.6,1.2-0.9,1.8l-0.5,0.1c-0.4,0.1-0.8,0.1-1.2,0.1c0.2-0.5,0.4-0.9,0.6-1.4c-2.2-3.7-7-6.6-10.2-6
			c-0.1,0-0.2,0-0.3,0.1c-0.1,0-0.4,0.3-0.5,0.4C271.1,189.2,271.4,188.5,271.7,188.1z"/>
		<path class="st5" d="M361.5,233.4l3.1-6.4c1.1-0.6,2.7,0.4,2.5,1.9l-2.9,6.1L361.5,233.4z"/>
		<polygon class="st7" points="346.8,254.2 346.7,246.7 397.4,217.5 397.4,225.9 372.1,256.6 		"/>
		<polygon class="st10" points="372.1,256.6 397.4,225.9 397.5,263.5 346.9,292.7 346.8,254.2 		"/>
		<polygon class="st11" points="368.4,255.4 368.5,262.1 375.8,257.8 375.8,251.1 		"/>
		<path class="st4" d="M316.1,116.9c1.1-3.4,2.8-7,4.2-9.5c-0.3-0.2-0.6-0.5-0.9-0.8c-4.6-4.3-7.5-11.6-8.3-18.6
			c-0.4-3.9-0.3-7.7,0.5-11.2c4.4,1.4,7.4,4,19.2,3.8c4.6-0.1,6.1,2.4,6.6,5.6c1.4-0.8,2.7-1,3.5-0.4c1.5,1.1,1,4.4-1.2,7.3
			c-0.6,0.8-1.3,1.6-2,2.1c0.2,1.9,0.6,3.3,2,3.7c-0.5,3.5,0,6.7,1.1,9.5c0,0-1.5,3.5-3.4,8.3C329.8,122.4,319.3,122.6,316.1,116.9z
			"/>
		<path class="st5" d="M315.9,117.4c0-0.2,0.1-0.3,0.2-0.5c3.2,5.6,13.7,5.4,21.5-0.2c-0.5,1.1-0.9,2.1-1.3,3.3
			c-0.1,0.3-0.2,0.5-0.3,0.8c-0.4,1-0.8,2.1-1.2,3.1c-5.4,18.4-11.5,48.3-8.3,84.4c-8.1,0.3-16.1-0.6-22.6-2.3
			C303.2,165.6,310.6,133.5,315.9,117.4z"/>
	</g>
</g>
</svg>
