<?xml version="1.0" encoding="utf-8"?>
<!-- Generator: Adobe Illustrator 24.2.3, SVG Export Plug-In . SVG Version: 6.00 Build 0)  -->
<svg version="1.1" id="Ñëîé_1" xmlns="http://www.w3.org/2000/svg" xmlns:xlink="http://www.w3.org/1999/xlink" x="0px" y="0px"
	 viewBox="0 0 500 350" style="enable-background:new 0 0 500 350;" xml:space="preserve">
<style type="text/css">
	.st0{fill:url(#SVGID_1_);}
	.st1{fill:#42E8E0;}
	.st2{fill:url(#SVGID_2_);}
	.st3{fill:url(#SVGID_3_);}
	.st4{opacity:0.3;fill:#24126A;}
	.st5{fill:#FFFFFF;}
	.st6{opacity:0.5;fill:url(#SVGID_4_);}
	.st7{opacity:0.5;fill:url(#SVGID_5_);}
	.st8{fill:url(#SVGID_6_);}
	.st9{fill:url(#SVGID_7_);}
	.st10{fill:#24126A;}
	.st11{opacity:0.51;}
	.st12{fill:#453C9E;}
	.st13{fill:url(#SVGID_8_);}
	.st14{fill:url(#SVGID_9_);}
	.st15{opacity:0.15;}
	.st16{clip-path:url(#SVGID_11_);}
	.st17{fill:url(#SVGID_12_);}
	.st18{fill:url(#SVGID_13_);}
	.st19{opacity:0.5;}
	.st20{opacity:0.8;}
	.st21{opacity:0.4;fill:#42E8E0;}
	.st22{fill:url(#SVGID_14_);}
	.st23{opacity:0.3;fill:#0F054C;}
	.st24{fill:url(#SVGID_15_);}
	.st25{fill:url(#SVGID_16_);}
	.st26{fill:url(#SVGID_17_);}
	.st27{opacity:0.5;fill:url(#SVGID_18_);}
	.st28{fill:url(#SVGID_19_);}
	.st29{fill:url(#SVGID_20_);}
	.st30{fill:#0F054C;}
	.st31{fill:#03002D;}
	.st32{fill:#5351AF;}
	.st33{fill:url(#SVGID_21_);}
	.st34{opacity:0.5;fill:url(#SVGID_22_);}
	.st35{fill:url(#SVGID_23_);}
	.st36{fill:url(#SVGID_24_);}
	.st37{opacity:0.5;fill:url(#SVGID_25_);}
	.st38{opacity:0.8;fill:#42E8E0;}
	.st39{opacity:0.5;fill:url(#SVGID_42_);}
</style>
<radialGradient id="SVGID_1_" cx="77.0304" cy="-1498.0636" r="532.6512" gradientTransform="matrix(0.8333 0 0 0.9992 -0.164 1326.476)" gradientUnits="userSpaceOnUse">
	<stop  offset="0" style="stop-color:#2B237C"/>
	<stop  offset="0.31" style="stop-color:#251C72"/>
	<stop  offset="1" style="stop-color:#0F054C"/>
</radialGradient>
<rect class="st0" width="500" height="350"/>
<g>
	<path class="st1" d="M367.3,263.1l-0.2-0.3l87.5-50.5c1-0.6,1.6-1.3,1.6-2.2c0-0.8-0.6-1.6-1.6-2.2l-15.4-8.9l0.2-0.3l15.4,8.9
		c1.1,0.6,1.7,1.5,1.7,2.4s-0.6,1.8-1.7,2.4L367.3,263.1z"/>
	<path class="st1" d="M253.1,275.5c-0.8,0-1.6-0.2-2.2-0.6L149,216.1c-0.6-0.4-1-0.9-1-1.4c0-0.4,0.3-0.8,0.7-1.1l60.8-35.1
		c1-0.6,2.8-0.5,3.9,0.2l101.9,58.9c0.6,0.4,1,0.9,1,1.4c0,0.4-0.3,0.8-0.7,1.1l-60.8,35.1C254.4,275.4,253.8,275.5,253.1,275.5z
		 M149.2,215.8l101.9,58.9c1.1,0.6,2.7,0.7,3.6,0.2l60.8-35.1c0.4-0.2,0.6-0.5,0.6-0.8c0-0.4-0.3-0.8-0.8-1.1L213.3,179
		c-1.1-0.6-2.7-0.7-3.6-0.2L148.9,214c-0.4,0.2-0.6,0.5-0.6,0.8C148.3,215.1,148.6,215.5,149.2,215.8L149.2,215.8z"/>
	<g>
		<linearGradient id="SVGID_2_" gradientUnits="userSpaceOnUse" x1="313.1182" y1="220.5802" x2="144.9875" y2="220.5802">
			<stop  offset="0" style="stop-color:#5761D7"/>
			<stop  offset="0.1779" style="stop-color:#5C66D9"/>
			<stop  offset="0.3876" style="stop-color:#6A73DF"/>
			<stop  offset="0.6134" style="stop-color:#8289E8"/>
			<stop  offset="0.849" style="stop-color:#A3A7F5"/>
			<stop  offset="1" style="stop-color:#BCBEFF"/>
		</linearGradient>
		<path class="st2" d="M316.3,228.7l-5.6-0.8l-97.3-56.2c-1.1-0.6-2.8-0.7-3.8-0.2l-57.9,33.4l-3.6-0.5v4.7l0,0
			c0,0.4,0.3,0.9,0.9,1.2L251,269.4c1.1,0.6,2.8,0.7,3.8,0.2l60.8-35.1c0.4-0.3,0.6-0.6,0.6-1l0,0V228.7z"/>
		
			<linearGradient id="SVGID_3_" gradientUnits="userSpaceOnUse" x1="447.3924" y1="216.6664" x2="615.5231" y2="216.6664" gradientTransform="matrix(-1 0 0 1 707.1696 0)">
			<stop  offset="0" style="stop-color:#C0BFF6"/>
			<stop  offset="0.2938" style="stop-color:#C5C4F7"/>
			<stop  offset="0.6399" style="stop-color:#D3D2F9"/>
			<stop  offset="1" style="stop-color:#E9E9FD"/>
		</linearGradient>
		<path class="st3" d="M149.1,205.8L251,264.7c1.1,0.6,2.8,0.7,3.8,0.2l60.8-35.1c1-0.6,0.8-1.5-0.3-2.2l-101.9-58.9
			c-1.1-0.6-2.8-0.7-3.8-0.2l-60.8,35.1C147.8,204.2,148,205.2,149.1,205.8z"/>
		<path class="st4" d="M157.9,207l91.1,52.6c1,0.6,2.5,0.6,3.4,0.1l54.4-31.4c0.9-0.5,0.8-1.4-0.2-1.9l-91.1-52.6
			c-1-0.6-2.5-0.6-3.4-0.1L157.7,205C156.8,205.5,156.9,206.4,157.9,207z"/>
		<path class="st5" d="M315.6,229.2l-60.8,35.1c-1,0.6-2.7,0.5-3.8-0.2l-101.9-58.9c-0.5-0.3-0.8-0.6-0.9-1
			c-0.2,0.5,0.1,1.1,0.9,1.5L251,264.7c1.1,0.6,2.8,0.7,3.8,0.2l60.8-35.1c0.5-0.3,0.7-0.8,0.6-1.2C316.1,228.8,316,229,315.6,229.2
			z"/>
	</g>
	<path class="st1" d="M249.6,176.4l-0.2-0.3l32.4-18.7l-85.1-49.1c-2.4-1.4-5.4-1.4-7.8,0l-27.7,16l-0.2-0.3l27.7-16
		c2.5-1.4,5.6-1.4,8.1,0l85.6,49.4l-0.2,0.1L249.6,176.4z"/>
	<g>
		<g>
			<path class="st1" d="M433,202.8l-16.5-9.2c-3.7-2.1-6.9-6.6-8.1-11.3l-14.3-58.9c-0.9-3.7-2.9-6.9-5.2-9.1l-2,6.1
				c-0.5,1.5-1.4,2.6-2.7,3.1c-1.5,0.6-3.5,0.3-5.4-0.9l-2.3-1.3l-2.1,6.3c-0.5,1.5-1.4,2.6-2.7,3.1c-1.5,0.6-3.5,0.3-5.4-0.9
				l-3-1.7c-3.4-2-6.6-6.3-7.8-10.7c-1.1-4-3.4-7.2-5.9-9.2l-1.4,2.9c-0.6,1.2-1.5,2.1-2.6,2.4c-1.5,0.5-3.3,0.1-5.2-0.9l-1.6-0.9
				l-3.1,6.6c-0.6,1.2-1.5,2.1-2.6,2.4c-1.5,0.5-3.3,0.1-5.2-0.9l-3.4-2c-3.7-2.2-6.9-6.8-8-11.5l-14.2-63.6c-0.9-4-3.1-7.3-5.5-9.6
				l-20.5,56.1c-0.5,1.4-1.4,2.4-2.7,2.9c-1.5,0.6-3.4,0.2-5.4-0.9l-2.1-1.2l-2.3,6.4c-0.5,1.4-1.4,2.4-2.7,2.9
				c-1.5,0.5-3.4,0.2-5.4-0.9l-11.9-6.9l12.8-7.4l0.1,0l9.3,5.3l20.7-56.5c0.8-2.2,2.4-3.3,4.5-3.2c1.7,0.1,3.7,1.1,5.5,2.6l2.4-6.7
				c0.8-2.2,2.4-3.3,4.5-3.2c4.2,0.3,9.9,5.5,11.5,12.7l14.2,63.6c1,4.6,4.3,9.2,7.8,11.3l1.5,0.9l1.4-3.1c0.9-1.9,2.5-2.8,4.5-2.6
				c1.5,0.1,3.2,0.9,4.9,2.2l3.2-6.7c0.9-1.9,2.5-2.8,4.5-2.6c3.9,0.3,9.2,4.9,11.2,11.8c1.2,4.3,4.3,8.5,7.6,10.5l0.3,0.2l2.1-6.5
				c0.7-2.3,2.3-3.5,4.5-3.4c1.8,0.1,3.9,1.1,5.9,2.8l2.1-6.6c0.7-2.3,2.3-3.5,4.5-3.4c4.2,0.2,9.8,5.2,11.6,12.4l14.3,58.9
				c1.1,4.6,4.3,9.1,7.9,11.1l16.5,9.2l-0.2,0.3l-16.5-9.2c-3.7-2.1-6.9-6.6-8.1-11.3l-14.3-58.9c-1.7-7-7.3-12-11.3-12.2
				c-0.1,0-0.1,0-0.2,0c-1.9,0-3.3,1.1-3.9,3.2l-2.2,6.7c2.4,2.2,4.5,5.5,5.4,9.4l14.3,58.9c1.1,4.6,4.3,9.1,7.9,11.1l16.5,9.2
				L433,202.8z M349.9,107.8c2.5,2.1,4.9,5.4,6,9.5c1.2,4.3,4.3,8.5,7.6,10.5l3,1.7c1.9,1.1,3.7,1.4,5.2,0.8c1.2-0.4,2-1.4,2.5-2.9
				l2.1-6.4l-0.4-0.2c-3.4-2-6.6-6.3-7.8-10.7c-1.9-6.8-7.1-11.3-10.9-11.6c-1.9-0.2-3.3,0.7-4.1,2.4L349.9,107.8z M376.7,120.9
				l2.4,1.4c1.9,1.1,3.7,1.4,5.2,0.8c1.2-0.4,2-1.4,2.5-2.9l2-6.3c-1.9-1.7-4-2.8-5.8-2.8c-2-0.1-3.4,1-4.1,3.2L376.7,120.9z
				 M297,32.6c2.5,2.3,4.8,5.7,5.7,9.8l14.2,63.6c1,4.6,4.3,9.2,7.8,11.3l3.4,2c1.8,1,3.5,1.4,4.9,0.9c1.1-0.3,1.9-1.1,2.5-2.2
				l3.1-6.6l-1.6-0.9c-3.7-2.2-6.9-6.8-8-11.5l-14.2-63.6c-1.6-7-7.2-12.2-11.2-12.4c-2-0.1-3.5,0.9-4.2,2.9L297,32.6z M339.2,111.3
				l1.6,0.9c1.8,1,3.5,1.4,4.9,0.9c1.1-0.3,1.9-1.1,2.5-2.2l1.4-3c-1.6-1.3-3.3-2-4.8-2.1c-1.9-0.2-3.3,0.7-4.1,2.4L339.2,111.3z
				 M244.5,91.3L256,98c1.9,1.1,3.7,1.4,5.1,0.9c1.1-0.4,2-1.3,2.5-2.7l2.4-6.5l-9.2-5.3L244.5,91.3z M266.3,89.5l2.2,1.2
				c1.9,1.1,3.7,1.4,5.1,0.9c1.1-0.4,2-1.3,2.5-2.7l20.6-56.3c-1.8-1.6-3.8-2.5-5.4-2.6c-2-0.1-3.5,0.9-4.2,2.9L266.3,89.5z"/>
			<polygon class="st1" points="288.8,30.6 288.7,30.3 301.3,23.1 301.4,23.4 			"/>
			
				<rect x="340.9" y="102.4" transform="matrix(0.8662 -0.4996 0.4996 0.8662 -4.6792 187.7397)" class="st1" width="14.7" height="0.3"/>
			
				<rect x="379.3" y="107.8" transform="matrix(0.8674 -0.4975 0.4975 0.8674 -2.4025 206.8412)" class="st1" width="15.3" height="0.3"/>
			<path class="st1" d="M433,202.8l-16.5-9.2c-3.7-2.1-6.9-6.6-8.1-11.3l-14.3-58.9c-0.9-3.7-2.9-6.9-5.2-9.1l-2,6.1
				c-0.5,1.5-1.4,2.6-2.7,3.1c-1.5,0.6-3.5,0.3-5.4-0.9l-2.3-1.3l-2.1,6.3c-0.5,1.5-1.4,2.6-2.7,3.1c-1.5,0.6-3.5,0.3-5.4-0.9
				l-3-1.7c-3.4-2-6.6-6.3-7.8-10.7c-1.1-4-3.4-7.2-5.9-9.2l-1.4,2.9c-0.6,1.2-1.5,2.1-2.6,2.4c-1.5,0.5-3.3,0.1-5.2-0.9l-1.6-0.9
				l-3.1,6.6c-0.6,1.2-1.5,2.1-2.6,2.4c-1.5,0.5-3.3,0.1-5.2-0.9l-3.4-2c-3.7-2.2-6.9-6.8-8-11.5l-14.2-63.6c-0.9-4-3.1-7.3-5.5-9.6
				l-20.5,56.1c-0.5,1.4-1.4,2.4-2.7,2.9c-1.5,0.6-3.4,0.2-5.4-0.9l-2.1-1.2l-2.3,6.4c-0.5,1.4-1.4,2.4-2.7,2.9
				c-1.5,0.5-3.4,0.2-5.4-0.9l-11.9-6.9l12.8-7.4l0.1,0l9.3,5.3l20.7-56.5c0.8-2.2,2.4-3.3,4.5-3.2c1.7,0.1,3.7,1.1,5.5,2.6l2.4-6.7
				c0.8-2.2,2.4-3.3,4.5-3.2c4.2,0.3,9.9,5.5,11.5,12.7l14.2,63.6c1,4.6,4.3,9.2,7.8,11.3l1.5,0.9l1.4-3.1c0.9-1.9,2.5-2.8,4.5-2.6
				c1.5,0.1,3.2,0.9,4.9,2.2l3.2-6.7c0.9-1.9,2.5-2.8,4.5-2.6c3.9,0.3,9.2,4.9,11.2,11.8c1.2,4.3,4.3,8.5,7.6,10.5l0.3,0.2l2.1-6.5
				c0.7-2.3,2.3-3.5,4.5-3.4c1.8,0.1,3.9,1.1,5.9,2.8l2.1-6.6c0.7-2.3,2.3-3.5,4.5-3.4c4.2,0.2,9.8,5.2,11.6,12.4l14.3,58.9
				c1.1,4.6,4.3,9.1,7.9,11.1l16.5,9.2l-0.2,0.3l-16.5-9.2c-3.7-2.1-6.9-6.6-8.1-11.3l-14.3-58.9c-1.7-7-7.3-12-11.3-12.2
				c-0.1,0-0.1,0-0.2,0c-1.9,0-3.3,1.1-3.9,3.2l-2.2,6.7c2.4,2.2,4.5,5.5,5.4,9.4l14.3,58.9c1.1,4.6,4.3,9.1,7.9,11.1l16.5,9.2
				L433,202.8z M349.9,107.8c2.5,2.1,4.9,5.4,6,9.5c1.2,4.3,4.3,8.5,7.6,10.5l3,1.7c1.9,1.1,3.7,1.4,5.2,0.8c1.2-0.4,2-1.4,2.5-2.9
				l2.1-6.4l-0.4-0.2c-3.4-2-6.6-6.3-7.8-10.7c-1.9-6.8-7.1-11.3-10.9-11.6c-1.9-0.2-3.3,0.7-4.1,2.4L349.9,107.8z M376.7,120.9
				l2.4,1.4c1.9,1.1,3.7,1.4,5.2,0.8c1.2-0.4,2-1.4,2.5-2.9l2-6.3c-1.9-1.7-4-2.8-5.8-2.8c-2-0.1-3.4,1-4.1,3.2L376.7,120.9z
				 M297,32.6c2.5,2.3,4.8,5.7,5.7,9.8l14.2,63.6c1,4.6,4.3,9.2,7.8,11.3l3.4,2c1.8,1,3.5,1.4,4.9,0.9c1.1-0.3,1.9-1.1,2.5-2.2
				l3.1-6.6l-1.6-0.9c-3.7-2.2-6.9-6.8-8-11.5l-14.2-63.6c-1.6-7-7.2-12.2-11.2-12.4c-2-0.1-3.5,0.9-4.2,2.9L297,32.6z M339.2,111.3
				l1.6,0.9c1.8,1,3.5,1.4,4.9,0.9c1.1-0.3,1.9-1.1,2.5-2.2l1.4-3c-1.6-1.3-3.3-2-4.8-2.1c-1.9-0.2-3.3,0.7-4.1,2.4L339.2,111.3z
				 M244.5,91.3L256,98c1.9,1.1,3.7,1.4,5.1,0.9c1.1-0.4,2-1.3,2.5-2.7l2.4-6.5l-9.2-5.3L244.5,91.3z M266.3,89.5l2.2,1.2
				c1.9,1.1,3.7,1.4,5.1,0.9c1.1-0.4,2-1.3,2.5-2.7l20.6-56.3c-1.8-1.6-3.8-2.5-5.4-2.6c-2-0.1-3.5,0.9-4.2,2.9L266.3,89.5z"/>
		</g>
		<linearGradient id="SVGID_4_" gradientUnits="userSpaceOnUse" x1="256.6881" y1="109.0812" x2="445.5995" y2="109.0812">
			<stop  offset="0" style="stop-color:#42E8E0"/>
			<stop  offset="0.1055" style="stop-color:#37B6BF"/>
			<stop  offset="0.2197" style="stop-color:#2C87A1"/>
			<stop  offset="0.338" style="stop-color:#235F87"/>
			<stop  offset="0.4587" style="stop-color:#1C3F72"/>
			<stop  offset="0.5824" style="stop-color:#162561"/>
			<stop  offset="0.7105" style="stop-color:#121355"/>
			<stop  offset="0.8458" style="stop-color:#10084E"/>
			<stop  offset="1" style="stop-color:#0F054C"/>
		</linearGradient>
		<path class="st6" d="M256.7,84.2l11.7,6.8c3.5,2,6.6,1.3,7.8-1.9l23.1-63.2c2.6-7.2,13.4-0.7,15.7,9.5l14.2,63.6
			c1,4.7,4.3,9.3,7.9,11.4l3.4,2c3.3,1.9,6.3,1.4,7.6-1.4l4.7-10c2.9-6.2,12.7-0.4,15.3,9.2v0c1.2,4.4,4.3,8.6,7.7,10.6l3,1.7
			c3.6,2.1,6.8,1.2,7.9-2.1l4.3-13.2c2.4-7.5,13.3-1.2,15.7,9l14.3,58.9c1.1,4.6,4.4,9.2,8,11.2l16.5,9.2L256.7,84.2z"/>
		<linearGradient id="SVGID_5_" gradientUnits="userSpaceOnUse" x1="244.1929" y1="116.0812" x2="433.1043" y2="116.0812">
			<stop  offset="0" style="stop-color:#42E8E0"/>
			<stop  offset="0.1055" style="stop-color:#37B6BF"/>
			<stop  offset="0.2197" style="stop-color:#2C87A1"/>
			<stop  offset="0.338" style="stop-color:#235F87"/>
			<stop  offset="0.4587" style="stop-color:#1C3F72"/>
			<stop  offset="0.5824" style="stop-color:#162561"/>
			<stop  offset="0.7105" style="stop-color:#121355"/>
			<stop  offset="0.8458" style="stop-color:#10084E"/>
			<stop  offset="1" style="stop-color:#0F054C"/>
		</linearGradient>
		<path class="st7" d="M244.2,91.2l11.7,6.8c3.5,2,6.6,1.3,7.8-1.9l23.1-63.2c2.6-7.2,13.4-0.7,15.7,9.5l14.2,63.6
			c1,4.7,4.3,9.3,7.9,11.4l3.4,2c3.3,1.9,6.3,1.4,7.6-1.4l4.7-10c2.9-6.2,12.7-0.4,15.3,9.2v0c1.2,4.4,4.3,8.6,7.7,10.6l3,1.7
			c3.6,2.1,6.8,1.2,7.9-2.1l4.3-13.2c2.4-7.5,13.3-1.2,15.7,9l14.3,58.9c1.1,4.6,4.4,9.2,8,11.2l16.5,9.2L244.2,91.2z"/>
	</g>
	<g>
		<path class="st1" d="M153.9,185.9c-1.6,0-3.1-0.3-4.3-1l-19.8-11.4c-1.2-0.7-1.8-1.6-1.8-2.6c0-1,0.6-1.9,1.8-2.6l19.8-11.4
			c2.4-1.4,6.2-1.4,8.6,0l19.8,11.4c1.2,0.7,1.8,1.6,1.8,2.6c0,1-0.6,1.9-1.8,2.6l-19.8,11.4C157,185.6,155.4,185.9,153.9,185.9z
			 M149.7,184.6c2.3,1.3,6,1.3,8.2,0l19.8-11.4c1.1-0.6,1.6-1.4,1.6-2.3c0-0.9-0.6-1.7-1.7-2.3L158,157.2c-2.3-1.3-6-1.3-8.2,0
			L130,168.7c-1.1,0.6-1.6,1.4-1.6,2.3c0,0.9,0.6,1.7,1.7,2.3L149.7,184.6z"/>
	</g>
	<g>
		<g>
			<g>
				<g>
					<g>
						
							<linearGradient id="SVGID_6_" gradientUnits="userSpaceOnUse" x1="374.9892" y1="142.9139" x2="493.971" y2="142.9139" gradientTransform="matrix(-1 0 0 1 707.1696 0)">
							<stop  offset="0" style="stop-color:#C0BFF6"/>
							<stop  offset="0.2938" style="stop-color:#C5C4F7"/>
							<stop  offset="0.6399" style="stop-color:#D3D2F9"/>
							<stop  offset="1" style="stop-color:#E9E9FD"/>
						</linearGradient>
						<path class="st8" d="M213.2,150.3l12.9-76.5l-1-0.4l1.6-0.9l0,0c0.3-0.2,0.7-0.2,1.2,0.1l103,59.5c0.8,0.5,1.5,1.7,1.3,2.6
							l-13,77.1c-0.1,0.4-0.3,0.7-0.5,0.8l0,0l-1.5,0.9l-0.3-1.4l0.1,0l-102.4-59.1C213.7,152.4,213.1,151.2,213.2,150.3z"/>
						
							<linearGradient id="SVGID_7_" gradientUnits="userSpaceOnUse" x1="374.9899" y1="173.4274" x2="395.4203" y2="173.4274" gradientTransform="matrix(-1 0 0 1 707.1696 0)">
							<stop  offset="0" style="stop-color:#5761D7"/>
							<stop  offset="0.1779" style="stop-color:#5C66D9"/>
							<stop  offset="0.3876" style="stop-color:#6A73DF"/>
							<stop  offset="0.6134" style="stop-color:#8289E8"/>
							<stop  offset="0.849" style="stop-color:#A3A7F5"/>
							<stop  offset="1" style="stop-color:#BCBEFF"/>
						</linearGradient>
						<path class="st9" d="M330.2,134.2l1.7-0.7c0.2,0.4,0.3,0.9,0.2,1.3l-13,77.1c-0.1,0.4-0.3,0.7-0.5,0.8l0,0l-1.5,0.9l-0.3-1.4
							l0.1,0l-5.2-3L330.2,134.2z"/>
						<path class="st10" d="M212.9,153.9l103,59.5c0.8,0.5,1.5,0.2,1.6-0.6l13-77.1c0.1-0.9-0.5-2.1-1.3-2.6l-103-59.5
							c-0.8-0.5-1.5-0.2-1.6,0.6l-13,77.1C211.5,152.1,212.1,153.4,212.9,153.9z"/>
						<g class="st11">
							<polygon class="st12" points="225.9,75 329.3,134.7 316.3,212 212.9,152.3 							"/>
						</g>
					</g>
					<g>
						
							<linearGradient id="SVGID_8_" gradientUnits="userSpaceOnUse" x1="390.93" y1="206.7197" x2="558.9712" y2="206.7197" gradientTransform="matrix(-1 0 0 1 707.1696 0)">
							<stop  offset="0" style="stop-color:#5761D7"/>
							<stop  offset="0.1779" style="stop-color:#5C66D9"/>
							<stop  offset="0.3876" style="stop-color:#6A73DF"/>
							<stop  offset="0.6134" style="stop-color:#8289E8"/>
							<stop  offset="0.849" style="stop-color:#A3A7F5"/>
							<stop  offset="1" style="stop-color:#BCBEFF"/>
						</linearGradient>
						<path class="st13" d="M148.2,190.3l5.6,2.9l56.4-32.5c0.9-0.5,2.6-0.5,3.7,0.2l97.2,56.1c0.9-0.5,5.2-2.6,5.2-2.6l-2.1,3.3
							c0,0,0,0,0,0c-0.1,0.2-0.3,0.5-0.6,0.6l-59.4,34.3c-0.9,0.5-2.6,0.5-3.7-0.2l-99.5-57.4c-0.4-0.3-0.7-0.6-0.8-0.9l0,0
							L148.2,190.3z"/>
						
							<linearGradient id="SVGID_9_" gradientUnits="userSpaceOnUse" x1="447.3924" y1="202.1249" x2="615.5231" y2="202.1249" gradientTransform="matrix(-1 0 0 1 707.1696 0)">
							<stop  offset="0" style="stop-color:#C0BFF6"/>
							<stop  offset="0.2938" style="stop-color:#C5C4F7"/>
							<stop  offset="0.6399" style="stop-color:#D3D2F9"/>
							<stop  offset="1" style="stop-color:#E9E9FD"/>
						</linearGradient>
						<path class="st14" d="M149.1,191.3L251,250.1c1.1,0.6,2.8,0.7,3.8,0.2l60.8-35.1c1-0.6,0.8-1.5-0.3-2.2l-101.9-58.9
							c-1.1-0.6-2.8-0.7-3.8-0.2l-60.8,35.1C147.8,189.6,148,190.6,149.1,191.3z"/>
						<path class="st5" d="M149.1,190.8L251,249.7c1.1,0.6,2.8,0.7,3.8,0.2l60.8-35.1c0.3-0.2,0.5-0.4,0.6-0.7
							c0.1,0.4-0.1,0.9-0.6,1.2l-60.8,35.1c-1,0.6-2.7,0.5-3.8-0.2l-101.9-58.9c-0.7-0.4-1-1-0.9-1.5
							C148.3,190.2,148.6,190.5,149.1,190.8z"/>
					</g>
				</g>
				<g class="st15">
					<defs>
						<polygon id="SVGID_10_" class="st15" points="329.3,134.7 225.9,75 212.9,152.3 316.3,212 						"/>
					</defs>
					<clipPath id="SVGID_11_">
						<use xlink:href="#SVGID_10_"  style="overflow:visible;"/>
					</clipPath>
					<g class="st16">
						<g>
							
								<linearGradient id="SVGID_12_" gradientUnits="userSpaceOnUse" x1="326.3128" y1="169.7372" x2="494.3541" y2="169.7372" gradientTransform="matrix(-1 0 0 1 707.1696 0)">
								<stop  offset="0" style="stop-color:#5761D7"/>
								<stop  offset="0.1779" style="stop-color:#5C66D9"/>
								<stop  offset="0.3876" style="stop-color:#6A73DF"/>
								<stop  offset="0.6134" style="stop-color:#8289E8"/>
								<stop  offset="0.849" style="stop-color:#A3A7F5"/>
								<stop  offset="1" style="stop-color:#BCBEFF"/>
							</linearGradient>
							<path class="st17" d="M212.8,153.4l5.6,2.9l56.4-32.5c0.9-0.5,2.6-0.5,3.7,0.2l97.2,56.1c0.9-0.5,5.2-2.6,5.2-2.6l-2.1,3.3
								c0,0,0,0,0,0c-0.1,0.2-0.3,0.5-0.6,0.6l-59.4,34.3c-0.9,0.5-2.6,0.5-3.7-0.2l-99.5-57.4c-0.4-0.3-0.7-0.6-0.8-0.9l0,0
								L212.8,153.4z"/>
							
								<linearGradient id="SVGID_13_" gradientUnits="userSpaceOnUse" x1="382.7753" y1="165.1425" x2="550.906" y2="165.1425" gradientTransform="matrix(-1 0 0 1 707.1696 0)">
								<stop  offset="0" style="stop-color:#C0BFF6"/>
								<stop  offset="0.2938" style="stop-color:#C5C4F7"/>
								<stop  offset="0.6399" style="stop-color:#D3D2F9"/>
								<stop  offset="1" style="stop-color:#E9E9FD"/>
							</linearGradient>
							<path class="st18" d="M213.7,154.3l101.9,58.9c1.1,0.6,2.8,0.7,3.8,0.2l60.8-35.1c1-0.6,0.8-1.5-0.3-2.2L278,117.1
								c-1.1-0.6-2.8-0.7-3.8-0.2l-60.8,35.1C212.4,152.7,212.6,153.6,213.7,154.3z"/>
							<path class="st5" d="M380,176L278,117.1c-0.7-0.4-1.7-0.6-2.5-0.5c0.6,0,1.3,0.2,1.8,0.5L379.2,176c1.1,0.6,1.2,1.6,0.3,2.2
								l-60.8,35.1c-0.3,0.2-0.8,0.3-1.3,0.4c0.7,0.1,1.5-0.1,2-0.4l60.8-35.1C381.2,177.6,381.1,176.6,380,176z"/>
						</g>
						<g class="st19">
							<path class="st10" d="M267.1,144.2l-3.3-1.9c-0.3-0.2-0.7-0.1-1,0l-3.6,2.1c-0.3,0.2-0.3,0.4,0,0.6l3.3,1.9
								c0.3,0.2,0.7,0.1,1,0l3.6-2.1C267.3,144.6,267.3,144.3,267.1,144.2z"/>
							<path class="st10" d="M272.1,147.1l-3.3-1.9c-0.3-0.2-0.7-0.1-1,0l-3.6,2.1c-0.3,0.2-0.3,0.4,0,0.6l3.3,1.9
								c0.3,0.2,0.7,0.1,1,0l3.6-2.1C272.4,147.5,272.4,147.2,272.1,147.1z"/>
							<path class="st10" d="M277.2,150l-3.3-1.9c-0.3-0.2-0.7-0.1-1,0l-3.6,2.1c-0.3,0.2-0.3,0.4,0,0.6l3.3,1.9
								c0.3,0.2,0.7,0.1,1,0l3.6-2.1C277.4,150.4,277.4,150.1,277.2,150z"/>
							<path class="st10" d="M273.3,153.9l-3.3-1.9c-0.3-0.2-0.7-0.1-1,0l-3,1.8c-0.3,0.2-0.3,0.4,0,0.6l3.3,1.9
								c0.3,0.2,0.7,0.1,1,0l3-1.8C273.6,154.3,273.6,154,273.3,153.9z"/>
							<path class="st10" d="M278.4,156.8l-3.3-1.9c-0.3-0.2-0.7-0.1-1,0l-3,1.8c-0.3,0.2-0.3,0.4,0,0.6l3.3,1.9
								c0.3,0.2,0.7,0.1,1,0l3-1.8C278.6,157.2,278.6,156.9,278.4,156.8z"/>
							<path class="st10" d="M283.4,159.7l-3.3-1.9c-0.3-0.2-0.7-0.1-1,0l-3,1.8c-0.3,0.2-0.3,0.4,0,0.6l3.3,1.9
								c0.3,0.2,0.7,0.1,1,0l3-1.8C283.7,160.1,283.7,159.8,283.4,159.7z"/>
							<path class="st10" d="M288.5,162.6l-3.3-1.9c-0.3-0.2-0.7-0.1-1,0l-3,1.8c-0.3,0.2-0.3,0.4,0,0.6l3.3,1.9
								c0.3,0.2,0.7,0.1,1,0l3-1.8C288.7,163,288.7,162.7,288.5,162.6z"/>
							<path class="st10" d="M293.5,165.5l-3.3-1.9c-0.3-0.2-0.7-0.1-1,0l-3,1.8c-0.3,0.2-0.3,0.4,0,0.6l3.3,1.9
								c0.3,0.2,0.7,0.1,1,0l3-1.8C293.8,165.9,293.8,165.7,293.5,165.5z"/>
							<path class="st10" d="M298.6,168.4l-3.3-1.9c-0.3-0.2-0.7-0.1-1,0l-3,1.8c-0.3,0.2-0.3,0.4,0,0.6l3.3,1.9
								c0.3,0.2,0.7,0.1,1,0l3-1.8C298.8,168.8,298.8,168.6,298.6,168.4z"/>
							<path class="st10" d="M303.6,171.3l-3.3-1.9c-0.3-0.2-0.7-0.1-1,0l-3,1.8c-0.3,0.2-0.3,0.4,0,0.6l3.3,1.9
								c0.3,0.2,0.7,0.1,1,0l3-1.8C303.9,171.7,303.9,171.5,303.6,171.3z"/>
							<path class="st10" d="M308.7,174.3l-3.3-1.9c-0.3-0.2-0.7-0.1-1,0l-3,1.8c-0.3,0.2-0.3,0.4,0,0.6l3.3,1.9
								c0.3,0.2,0.7,0.1,1,0l3-1.8C308.9,174.7,308.9,174.4,308.7,174.3z"/>
							<path class="st10" d="M313.7,177.2l-3.3-1.9c-0.3-0.2-0.7-0.1-1,0l-3,1.8c-0.3,0.2-0.3,0.4,0,0.6l3.3,1.9
								c0.3,0.2,0.7,0.1,1,0l3-1.8C314,177.6,314,177.3,313.7,177.2z"/>
							<path class="st10" d="M318.8,180.1l-3.3-1.9c-0.3-0.2-0.7-0.1-1,0l-3,1.8c-0.3,0.2-0.3,0.4,0,0.6l3.3,1.9
								c0.3,0.2,0.7,0.1,1,0l3-1.8C319,180.5,319,180.2,318.8,180.1z"/>
							<path class="st10" d="M271.2,158l-3.3-1.9c-0.3-0.2-0.7-0.1-1,0l-3,1.8c-0.3,0.2-0.3,0.4,0,0.6l3.3,1.9c0.3,0.2,0.7,0.1,1,0
								l3-1.8C271.5,158.4,271.5,158.2,271.2,158z"/>
							<path class="st10" d="M266.1,155.1l-3.3-1.9c-0.3-0.2-0.7-0.1-1,0l-3,1.8c-0.3,0.2-0.3,0.4,0,0.6l3.3,1.9
								c0.3,0.2,0.7,0.1,1,0l3-1.8C266.4,155.5,266.4,155.2,266.1,155.1z"/>
							<path class="st10" d="M261,152.1l-7-4.1c-0.3-0.2-0.7-0.1-1,0l-3,1.8c-0.3,0.2-0.3,0.4,0,0.6l7,4.1c0.3,0.2,0.7,0.1,1,0
								l3-1.8C261.2,152.5,261.2,152.2,261,152.1z"/>
							<path class="st10" d="M255,154l-5.7-3.3c-0.3-0.2-0.7-0.1-1,0l-3,1.8c-0.3,0.2-0.3,0.4,0,0.6l5.7,3.3c0.3,0.2,0.7,0.1,1,0
								l3-1.8C255.3,154.4,255.3,154.2,255,154z"/>
							<path class="st10" d="M276.3,160.9L273,159c-0.3-0.2-0.7-0.1-1,0l-3,1.8c-0.3,0.2-0.3,0.4,0,0.6l3.3,1.9c0.3,0.2,0.7,0.1,1,0
								l3-1.8C276.5,161.3,276.5,161.1,276.3,160.9z"/>
							<path class="st10" d="M281.3,163.8l-3.3-1.9c-0.3-0.2-0.7-0.1-1,0l-3,1.8c-0.3,0.2-0.3,0.4,0,0.6l3.3,1.9
								c0.3,0.2,0.7,0.1,1,0l3-1.8C281.6,164.3,281.6,164,281.3,163.8z"/>
							<path class="st10" d="M286.4,166.8l-3.3-1.9c-0.3-0.2-0.7-0.1-1,0l-3,1.8c-0.3,0.2-0.3,0.4,0,0.6l3.3,1.9
								c0.3,0.2,0.7,0.1,1,0l3-1.8C286.6,167.2,286.6,166.9,286.4,166.8z"/>
							<path class="st10" d="M291.4,169.7l-3.3-1.9c-0.3-0.2-0.7-0.1-1,0l-3,1.8c-0.3,0.2-0.3,0.4,0,0.6l3.3,1.9
								c0.3,0.2,0.7,0.1,1,0l3-1.8C291.7,170.1,291.7,169.8,291.4,169.7z"/>
							<path class="st10" d="M296.5,172.6l-3.3-1.9c-0.3-0.2-0.7-0.1-1,0l-3,1.8c-0.3,0.2-0.3,0.4,0,0.6l3.3,1.9
								c0.3,0.2,0.7,0.1,1,0l3-1.8C296.7,173,296.7,172.7,296.5,172.6z"/>
							<path class="st10" d="M301.5,175.5l-3.3-1.9c-0.3-0.2-0.7-0.1-1,0l-3,1.8c-0.3,0.2-0.3,0.4,0,0.6l3.3,1.9
								c0.3,0.2,0.7,0.1,1,0l3-1.8C301.8,175.9,301.8,175.7,301.5,175.5z"/>
							<path class="st10" d="M306.6,178.4l-3.3-1.9c-0.3-0.2-0.7-0.1-1,0l-3,1.8c-0.3,0.2-0.3,0.4,0,0.6l3.3,1.9
								c0.3,0.2,0.7,0.1,1,0l3-1.8C306.8,178.8,306.8,178.6,306.6,178.4z"/>
							<path class="st10" d="M311.6,181.3l-3.3-1.9c-0.3-0.2-0.7-0.1-1,0l-3,1.8c-0.3,0.2-0.3,0.4,0,0.6l3.3,1.9
								c0.3,0.2,0.7,0.1,1,0l3-1.8C311.9,181.7,311.9,181.5,311.6,181.3z"/>
							<path class="st10" d="M316.7,184.2l-3.3-1.9c-0.3-0.2-0.7-0.1-1,0l-3,1.8c-0.3,0.2-0.3,0.4,0,0.6l3.3,1.9
								c0.3,0.2,0.7,0.1,1,0l3-1.8C316.9,184.6,316.9,184.4,316.7,184.2z"/>
							<path class="st10" d="M325.6,189.4l-7.1-4.1c-0.3-0.2-0.7-0.1-1,0l-3,1.8c-0.3,0.2-0.3,0.4,0,0.6l7.1,4.1
								c0.3,0.2,0.7,0.1,1,0l3-1.8C325.9,189.8,325.9,189.6,325.6,189.4z"/>
							<path class="st10" d="M316.4,194.8l-6-3.5c-0.3-0.2-0.7-0.1-1,0l-3,1.8c-0.3,0.2-0.3,0.4,0,0.6l6,3.5c0.3,0.2,0.7,0.1,1,0
								l3-1.8C316.6,195.2,316.6,195,316.4,194.8z"/>
							<path class="st10" d="M275.6,165.9l-3.3-1.9c-0.3-0.2-0.7-0.1-1,0l-3,1.8c-0.3,0.2-0.3,0.4,0,0.6l3.3,1.9
								c0.3,0.2,0.7,0.1,1,0l3-1.8C275.8,166.3,275.8,166.1,275.6,165.9z"/>
							<path class="st10" d="M270.4,162.9l-3.3-1.9c-0.3-0.2-0.7-0.1-1,0l-3,1.8c-0.3,0.2-0.3,0.4,0,0.6l3.3,1.9
								c0.3,0.2,0.7,0.1,1,0l3-1.8C270.7,163.3,270.7,163.1,270.4,162.9z"/>
							<path class="st10" d="M265.2,159.9L262,158c-0.3-0.2-0.7-0.1-1,0l-3,1.8c-0.3,0.2-0.3,0.4,0,0.6l3.3,1.9c0.3,0.2,0.7,0.1,1,0
								l3-1.8C265.5,160.3,265.5,160.1,265.2,159.9z"/>
							<path class="st10" d="M260.1,156.9l-3.3-1.9c-0.3-0.2-0.7-0.1-1,0l-3,1.8c-0.3,0.2-0.3,0.4,0,0.6l3.3,1.9
								c0.3,0.2,0.7,0.1,1,0l3-1.8C260.3,157.3,260.3,157.1,260.1,156.9z"/>
							<path class="st10" d="M280.6,168.8l-3.3-1.9c-0.3-0.2-0.7-0.1-1,0l-3,1.8c-0.3,0.2-0.3,0.4,0,0.6l3.3,1.9
								c0.3,0.2,0.7,0.1,1,0l3-1.8C280.9,169.2,280.9,169,280.6,168.8z"/>
							<path class="st10" d="M285.7,171.7l-3.3-1.9c-0.3-0.2-0.7-0.1-1,0l-3,1.8c-0.3,0.2-0.3,0.4,0,0.6l3.3,1.9
								c0.3,0.2,0.7,0.1,1,0l3-1.8C285.9,172.1,285.9,171.9,285.7,171.7z"/>
							<path class="st10" d="M290.7,174.6l-3.3-1.9c-0.3-0.2-0.7-0.1-1,0l-3,1.8c-0.3,0.2-0.3,0.4,0,0.6l3.3,1.9
								c0.3,0.2,0.7,0.1,1,0l3-1.8C291,175,291,174.8,290.7,174.6z"/>
							<path class="st10" d="M295.8,177.6l-3.3-1.9c-0.3-0.2-0.7-0.1-1,0l-3,1.8c-0.3,0.2-0.3,0.4,0,0.6l3.3,1.9
								c0.3,0.2,0.7,0.1,1,0l3-1.8C296,178,296,177.7,295.8,177.6z"/>
							<path class="st10" d="M300.8,180.5l-3.3-1.9c-0.3-0.2-0.7-0.1-1,0l-3,1.8c-0.3,0.2-0.3,0.4,0,0.6l3.3,1.9
								c0.3,0.2,0.7,0.1,1,0l3-1.8C301.1,180.9,301.1,180.6,300.8,180.5z"/>
							<path class="st10" d="M305.9,183.4l-3.3-1.9c-0.3-0.2-0.7-0.1-1,0l-3,1.8c-0.3,0.2-0.3,0.4,0,0.6l3.3,1.9
								c0.3,0.2,0.7,0.1,1,0l3-1.8C306.1,183.8,306.1,183.5,305.9,183.4z"/>
							<path class="st10" d="M310.9,186.3l-3.3-1.9c-0.3-0.2-0.7-0.1-1,0l-3,1.8c-0.3,0.2-0.3,0.4,0,0.6l3.3,1.9
								c0.3,0.2,0.7,0.1,1,0l3-1.8C311.2,186.7,311.2,186.4,310.9,186.3z"/>
							<path class="st10" d="M316,189.2l-3.3-1.9c-0.3-0.2-0.7-0.1-1,0l-3,1.8c-0.3,0.2-0.3,0.4,0,0.6l3.3,1.9c0.3,0.2,0.7,0.1,1,0
								l3-1.8C316.2,189.6,316.2,189.4,316,189.2z"/>
							<path class="st10" d="M321,192.1l-3.3-1.9c-0.3-0.2-0.7-0.1-1,0l-3,1.8c-0.3,0.2-0.3,0.4,0,0.6l3.3,1.9c0.3,0.2,0.7,0.1,1,0
								l3-1.8C321.2,192.5,321.3,192.3,321,192.1z"/>
							<path class="st10" d="M263.4,164.2l-3.3-1.9c-0.3-0.2-0.7-0.1-1,0l-3,1.8c-0.3,0.2-0.3,0.4,0,0.6l3.3,1.9
								c0.3,0.2,0.7,0.1,1,0l3-1.8C263.6,164.6,263.6,164.4,263.4,164.2z"/>
							<path class="st10" d="M258.4,161.3l-3.3-1.9c-0.3-0.2-0.7-0.1-1,0l-3,1.8c-0.3,0.2-0.3,0.4,0,0.6l3.3,1.9
								c0.3,0.2,0.7,0.1,1,0l3-1.8C258.6,161.7,258.6,161.5,258.4,161.3z"/>
							<path class="st10" d="M253.3,158.4l-3.3-1.9c-0.3-0.2-0.7-0.1-1,0l-3,1.8c-0.3,0.2-0.3,0.4,0,0.6l3.3,1.9
								c0.3,0.2,0.7,0.1,1,0l3-1.8C253.6,158.8,253.6,158.6,253.3,158.4z"/>
							<path class="st10" d="M248.3,155.5l-3.3-1.9c-0.3-0.2-0.7-0.1-1,0l-3,1.8c-0.3,0.2-0.3,0.4,0,0.6l3.3,1.9
								c0.3,0.2,0.7,0.1,1,0l3-1.8C248.6,155.9,248.6,155.7,248.3,155.5z"/>
							<path class="st10" d="M243.5,158.4l-3.3-1.9c-0.3-0.2-0.7-0.1-1,0l-1,0.6c-0.3,0.2-0.3,0.4,0,0.6l3.3,1.9
								c0.3,0.2,0.7,0.1,1,0l1-0.6C243.7,158.8,243.7,158.5,243.5,158.4z"/>
							<path class="st10" d="M250,162.2l-3.3-1.9c-0.3-0.2-0.7-0.1-1,0l-1,0.6c-0.3,0.2-0.3,0.4,0,0.6l3.3,1.9c0.3,0.2,0.7,0.1,1,0
								l1-0.6C250.3,162.6,250.3,162.3,250,162.2z"/>
							<path class="st10" d="M255,165l-3.3-1.9c-0.3-0.2-0.7-0.1-1,0l-1,0.6c-0.3,0.2-0.3,0.4,0,0.6l3.3,1.9c0.3,0.2,0.7,0.1,1,0
								l1-0.6C255.3,165.5,255.3,165.2,255,165z"/>
							<path class="st10" d="M260,167.9l-3.3-1.9c-0.3-0.2-0.7-0.1-1,0l-1,0.6c-0.3,0.2-0.3,0.4,0,0.6l3.3,1.9c0.3,0.2,0.7,0.1,1,0
								l1-0.6C260.3,168.3,260.3,168.1,260,167.9z"/>
							<path class="st10" d="M265,170.8l-3.3-1.9c-0.3-0.2-0.7-0.1-1,0l-1,0.6c-0.3,0.2-0.3,0.4,0,0.6l3.3,1.9c0.3,0.2,0.7,0.1,1,0
								l1-0.6C265.3,171.2,265.3,171,265,170.8z"/>
							<path class="st10" d="M292.9,186.9l-3.3-1.9c-0.3-0.2-0.7-0.1-1,0l-1,0.6c-0.3,0.2-0.3,0.4,0,0.6l3.3,1.9
								c0.3,0.2,0.7,0.1,1,0l1-0.6C293.2,187.3,293.2,187.1,292.9,186.9z"/>
							<path class="st10" d="M297.9,189.8l-3.3-1.9c-0.3-0.2-0.7-0.1-1,0l-1,0.6c-0.3,0.2-0.3,0.4,0,0.6l3.3,1.9
								c0.3,0.2,0.7,0.1,1,0l1-0.6C298.2,190.2,298.2,190,297.9,189.8z"/>
							<path class="st10" d="M302.9,192.7l-3.3-1.9c-0.3-0.2-0.7-0.1-1,0l-1,0.6c-0.3,0.2-0.3,0.4,0,0.6l3.3,1.9
								c0.3,0.2,0.7,0.1,1,0l1-0.6C303.2,193.1,303.2,192.9,302.9,192.7z"/>
							<path class="st10" d="M307.9,195.6l-3.3-1.9c-0.3-0.2-0.7-0.1-1,0l-1,0.6c-0.3,0.2-0.3,0.4,0,0.6l3.3,1.9
								c0.3,0.2,0.7,0.1,1,0l1-0.6C308.2,196,308.2,195.7,307.9,195.6z"/>
							<path class="st10" d="M268.4,167.1l-3.3-1.9c-0.3-0.2-0.7-0.1-1,0l-3,1.8c-0.3,0.2-0.3,0.4,0,0.6l3.3,1.9
								c0.3,0.2,0.7,0.1,1,0l3-1.8C268.7,167.6,268.7,167.3,268.4,167.1z"/>
							<path class="st10" d="M273.5,170.1l-3.3-1.9c-0.3-0.2-0.7-0.1-1,0l-3,1.8c-0.3,0.2-0.3,0.4,0,0.6l3.3,1.9
								c0.3,0.2,0.7,0.1,1,0l3-1.8C273.7,170.5,273.7,170.2,273.5,170.1z"/>
							<path class="st10" d="M278.5,173l-3.3-1.9c-0.3-0.2-0.7-0.1-1,0l-3,1.8c-0.3,0.2-0.3,0.4,0,0.6l3.3,1.9c0.3,0.2,0.7,0.1,1,0
								l3-1.8C278.8,173.4,278.8,173.1,278.5,173z"/>
							<path class="st10" d="M283.6,175.9l-3.3-1.9c-0.3-0.2-0.7-0.1-1,0l-3,1.8c-0.3,0.2-0.3,0.4,0,0.6l3.3,1.9
								c0.3,0.2,0.7,0.1,1,0l3-1.8C283.8,176.3,283.8,176,283.6,175.9z"/>
							<path class="st10" d="M288.6,178.8l-3.3-1.9c-0.3-0.2-0.7-0.1-1,0l-3,1.8c-0.3,0.2-0.3,0.4,0,0.6l3.3,1.9
								c0.3,0.2,0.7,0.1,1,0l3-1.8C288.9,179.2,288.9,179,288.6,178.8z"/>
							<path class="st10" d="M293.7,181.7l-3.3-1.9c-0.3-0.2-0.7-0.1-1,0l-3,1.8c-0.3,0.2-0.3,0.4,0,0.6l3.3,1.9
								c0.3,0.2,0.7,0.1,1,0l3-1.8C293.9,182.1,293.9,181.9,293.7,181.7z"/>
							<path class="st10" d="M298.7,184.6l-3.3-1.9c-0.3-0.2-0.7-0.1-1,0l-3,1.8c-0.3,0.2-0.3,0.4,0,0.6l3.3,1.9
								c0.3,0.2,0.7,0.1,1,0l3-1.8C299,185,299,184.8,298.7,184.6z"/>
							<path class="st10" d="M303.8,187.5l-3.3-1.9c-0.3-0.2-0.7-0.1-1,0l-3,1.8c-0.3,0.2-0.3,0.4,0,0.6l3.3,1.9
								c0.3,0.2,0.7,0.1,1,0l3-1.8C304,187.9,304,187.7,303.8,187.5z"/>
							<path class="st10" d="M308.8,190.5l-3.3-1.9c-0.3-0.2-0.7-0.1-1,0l-3,1.8c-0.3,0.2-0.3,0.4,0,0.6l3.3,1.9
								c0.3,0.2,0.7,0.1,1,0l3-1.8C309,190.9,309.1,190.6,308.8,190.5z"/>
							<path class="st10" d="M268.2,150.9l-9.6-5.6c-0.3-0.2-0.7-0.1-1,0l-3,1.8c-0.3,0.2-0.3,0.4,0,0.6l9.6,5.6
								c0.3,0.2,0.7,0.1,1,0l3-1.8C268.4,151.3,268.5,151,268.2,150.9z"/>
							<path class="st10" d="M330.2,186.7l-9.6-5.6c-0.3-0.2-0.7-0.1-1,0l-3,1.8c-0.3,0.2-0.3,0.4,0,0.6l9.6,5.6
								c0.3,0.2,0.7,0.1,1,0l3-1.8C330.4,187.1,330.5,186.8,330.2,186.7z"/>
							<path class="st10" d="M320.8,175.2l-3.3-1.9c-0.3-0.2-0.7-0.1-1,0l-3.6,2.1c-0.3,0.2-0.3,0.4,0,0.6l3.3,1.9
								c0.3,0.2,0.7,0.1,1,0l3.6-2.1C321.1,175.6,321.1,175.3,320.8,175.2z"/>
							<path class="st10" d="M284.2,154l-5.2-3c-0.3-0.2-0.7-0.1-1,0l-3.6,2.1c-0.3,0.2-0.3,0.4,0,0.6l5.2,3c0.3,0.2,0.7,0.1,1,0
								l3.6-2.1C284.4,154.4,284.4,154.2,284.2,154z"/>
							<path class="st10" d="M316,172.4l-5.2-3c-0.3-0.2-0.7-0.1-1,0l-3.6,2.1c-0.3,0.2-0.3,0.4,0,0.6l5.2,3c0.3,0.2,0.7,0.1,1,0
								l3.6-2.1C316.2,172.8,316.2,172.5,316,172.4z"/>
							<path class="st10" d="M291.5,158.2l-5.2-3c-0.3-0.2-0.7-0.1-1,0l-3.6,2.1c-0.3,0.2-0.3,0.4,0,0.6l5.2,3c0.3,0.2,0.7,0.1,1,0
								l3.6-2.1C291.7,158.6,291.7,158.4,291.5,158.2z"/>
							<path class="st10" d="M281.6,158l22.7,13.1c0.3,0.2,0.7,0.2,1,0l3.7-2.2c0.3-0.2,0.3-0.4,0-0.6l-22.7-13.1L281.6,158z"/>
							<path class="st10" d="M330.1,183.3l3.6,2.1c0.2,0.1,0.6,0.1,0.8,0l1.5-0.9c0.2-0.1,0.2-0.3,0-0.5l-3.6-2.1
								c-0.2-0.1-0.6-0.1-0.8,0l-1.5,0.9C329.9,182.9,329.9,183.1,330.1,183.3z"/>
							<path class="st10" d="M325,180.3l3.6,2.1c0.2,0.1,0.6,0.1,0.8,0l1.5-0.9c0.2-0.1,0.2-0.3,0-0.5l-3.6-2.1
								c-0.2-0.1-0.6-0.1-0.8,0l-1.5,0.9C324.8,180,324.8,180.2,325,180.3z"/>
							<path class="st10" d="M320,177.4l3.6,2.1c0.2,0.1,0.6,0.1,0.8,0l1.5-0.9c0.2-0.1,0.2-0.3,0-0.5l-3.6-2.1
								c-0.2-0.1-0.6-0.1-0.8,0l-1.5,0.9C319.8,177.1,319.8,177.3,320,177.4z"/>
							<path class="st10" d="M322.4,181.9l3.6,2.1c0.2,0.1,0.6,0.1,0.8,0l1.5-0.9c0.2-0.1,0.2-0.3,0-0.5l-3.6-2.1
								c-0.2-0.1-0.6-0.1-0.8,0l-1.5,0.9C322.2,181.5,322.2,181.7,322.4,181.9z"/>
						</g>
					</g>
				</g>
			</g>
			<g class="st20">
				<path class="st10" d="M196,184.7l-3.2-1.9c-0.3-0.2-0.2-0.4,0.1-0.6l3.8-2.2c0.3-0.2,0.8-0.2,1,0l3.2,1.9
					c0.3,0.1,0.2,0.4-0.1,0.6l-3.8,2.2C196.7,184.9,196.2,184.9,196,184.7z"/>
				<path class="st10" d="M201,187.6l-3.2-1.9c-0.3-0.2-0.2-0.4,0.1-0.6l3.8-2.2c0.3-0.2,0.8-0.2,1,0l3.2,1.9
					c0.3,0.2,0.2,0.4-0.1,0.6l-3.8,2.2C201.7,187.8,201.2,187.8,201,187.6z"/>
				<path class="st10" d="M206,190.5l-3.2-1.9c-0.3-0.2-0.2-0.4,0.1-0.6l3.8-2.2c0.3-0.2,0.8-0.2,1,0l3.2,1.9
					c0.3,0.2,0.2,0.4-0.1,0.6l-3.8,2.2C206.7,190.7,206.2,190.7,206,190.5z"/>
				<path class="st10" d="M212.9,188.1l-3.2-1.9c-0.3-0.1-0.2-0.4,0.1-0.6l3.2-1.9c0.3-0.2,0.8-0.2,1,0l3.2,1.9
					c0.3,0.2,0.2,0.4-0.1,0.6l-3.2,1.9C213.6,188.3,213.1,188.3,212.9,188.1z"/>
				<path class="st10" d="M217.9,191l-3.2-1.9c-0.3-0.1-0.2-0.4,0.1-0.6l3.2-1.9c0.3-0.2,0.8-0.2,1,0l3.2,1.9
					c0.3,0.1,0.2,0.4-0.1,0.6l-3.2,1.9C218.6,191.2,218.1,191.2,217.9,191z"/>
				<path class="st10" d="M222.9,193.9l-3.2-1.9c-0.3-0.2-0.2-0.4,0.1-0.6l3.2-1.9c0.3-0.2,0.8-0.2,1,0l3.2,1.9
					c0.3,0.1,0.2,0.4-0.1,0.6l-3.2,1.9C223.6,194,223.1,194.1,222.9,193.9z"/>
				<path class="st10" d="M227.9,196.8l-3.2-1.9c-0.3-0.1-0.2-0.4,0.1-0.6l3.2-1.9c0.3-0.2,0.8-0.2,1,0l3.2,1.9
					c0.3,0.2,0.2,0.4-0.1,0.6l-3.2,1.9C228.6,196.9,228.1,196.9,227.9,196.8z"/>
				<path class="st10" d="M232.9,199.7l-3.2-1.9c-0.3-0.1-0.2-0.4,0.1-0.6l3.2-1.9c0.3-0.2,0.8-0.2,1,0l3.2,1.9
					c0.3,0.1,0.2,0.4-0.1,0.6l-3.2,1.9C233.6,199.8,233.1,199.8,232.9,199.7z"/>
				<path class="st10" d="M237.9,202.6l-3.2-1.9c-0.3-0.2-0.2-0.4,0.1-0.6l3.2-1.9c0.3-0.2,0.8-0.2,1,0l3.2,1.9
					c0.3,0.1,0.2,0.4-0.1,0.6l-3.2,1.9C238.6,202.7,238.1,202.7,237.9,202.6z"/>
				<path class="st10" d="M242.9,205.5l-3.2-1.9c-0.3-0.2-0.2-0.4,0.1-0.6l3.2-1.9c0.3-0.2,0.8-0.2,1,0l3.2,1.9
					c0.3,0.2,0.2,0.4-0.1,0.6l-3.2,1.9C243.6,205.6,243.1,205.6,242.9,205.5z"/>
				<path class="st10" d="M247.9,208.3l-3.2-1.9c-0.3-0.2-0.2-0.4,0.1-0.6l3.2-1.9c0.3-0.2,0.8-0.2,1,0l3.2,1.9
					c0.3,0.2,0.2,0.4-0.1,0.6l-3.2,1.9C248.6,208.5,248.1,208.5,247.9,208.3z"/>
				<path class="st10" d="M252.9,211.2l-3.2-1.9c-0.3-0.1-0.2-0.4,0.1-0.6l3.2-1.9c0.3-0.2,0.8-0.2,1,0l3.2,1.9
					c0.3,0.2,0.2,0.4-0.1,0.6l-3.2,1.9C253.6,211.4,253.1,211.4,252.9,211.2z"/>
				<path class="st10" d="M257.9,214.1l-3.2-1.9c-0.3-0.1-0.2-0.4,0.1-0.6l3.2-1.9c0.3-0.2,0.8-0.2,1,0l3.2,1.9
					c0.3,0.1,0.2,0.4-0.1,0.6l-3.2,1.9C258.6,214.2,258.1,214.3,257.9,214.1z"/>
				<path class="st10" d="M220.2,186.8l-3.2-1.9c-0.3-0.2-0.2-0.4,0.1-0.6l3.2-1.9c0.3-0.2,0.8-0.2,1,0l3.2,1.9
					c0.3,0.1,0.2,0.4-0.1,0.6l-3.2,1.9C220.9,186.9,220.5,186.9,220.2,186.8z"/>
				<path class="st10" d="M215.2,183.8l-3.2-1.9c-0.3-0.1-0.2-0.4,0.1-0.6l3.2-1.9c0.3-0.2,0.8-0.2,1,0l3.2,1.9
					c0.3,0.2,0.2,0.4-0.1,0.6l-3.2,1.9C215.9,184,215.4,184,215.2,183.8z"/>
				<path class="st10" d="M210.1,180.9l-7-4c-0.3-0.2-0.2-0.4,0.1-0.6l3.2-1.9c0.3-0.2,0.8-0.2,1,0l7,4c0.3,0.1,0.2,0.4-0.1,0.6
					l-3.2,1.9C210.8,181,210.3,181.1,210.1,180.9z"/>
				<path class="st10" d="M213.6,177.3l-5.7-3.3c-0.3-0.1-0.2-0.4,0.1-0.6l3.2-1.9c0.3-0.2,0.8-0.2,1,0l5.7,3.3
					c0.3,0.2,0.2,0.4-0.1,0.6l-3.2,1.9C214.3,177.5,213.9,177.5,213.6,177.3z"/>
				<path class="st10" d="M225.2,189.7l-3.2-1.9c-0.3-0.2-0.2-0.4,0.1-0.6l3.2-1.9c0.3-0.2,0.8-0.2,1,0l3.2,1.9
					c0.3,0.2,0.2,0.4-0.1,0.6l-3.2,1.9C225.9,189.8,225.5,189.8,225.2,189.7z"/>
				<path class="st10" d="M230.2,192.5l-3.2-1.9c-0.3-0.2-0.2-0.4,0.1-0.6l3.2-1.9c0.3-0.2,0.8-0.2,1,0l3.2,1.9
					c0.3,0.2,0.2,0.4-0.1,0.6l-3.2,1.9C230.9,192.7,230.5,192.7,230.2,192.5z"/>
				<path class="st10" d="M235.2,195.4l-3.2-1.9c-0.3-0.1-0.2-0.4,0.1-0.6l3.2-1.9c0.3-0.2,0.8-0.2,1,0l3.2,1.9
					c0.3,0.2,0.2,0.4-0.1,0.6l-3.2,1.9C235.9,195.6,235.5,195.6,235.2,195.4z"/>
				<path class="st10" d="M240.2,198.3l-3.2-1.9c-0.3-0.2-0.2-0.4,0.1-0.6l3.2-1.9c0.3-0.2,0.8-0.2,1,0l3.2,1.9
					c0.3,0.1,0.2,0.4-0.1,0.6l-3.2,1.9C240.9,198.4,240.5,198.5,240.2,198.3z"/>
				<path class="st10" d="M245.2,201.2l-3.2-1.9c-0.3-0.2-0.2-0.4,0.1-0.6l3.2-1.9c0.3-0.2,0.8-0.2,1,0l3.2,1.9
					c0.3,0.2,0.2,0.4-0.1,0.6l-3.2,1.9C245.9,201.3,245.5,201.3,245.2,201.2z"/>
				<path class="st10" d="M250.2,204.1l-3.2-1.9c-0.3-0.1-0.2-0.4,0.1-0.6l3.2-1.9c0.3-0.2,0.8-0.2,1,0l3.2,1.9
					c0.3,0.2,0.2,0.4-0.1,0.6l-3.2,1.9C250.9,204.2,250.5,204.2,250.2,204.1z"/>
				<path class="st10" d="M255.2,207l-3.2-1.9c-0.3-0.1-0.2-0.4,0.1-0.6l3.2-1.9c0.3-0.2,0.8-0.2,1,0l3.2,1.9
					c0.3,0.1,0.2,0.4-0.1,0.6l-3.2,1.9C255.9,207.1,255.5,207.1,255.2,207z"/>
				<path class="st10" d="M260.2,209.9L257,208c-0.3-0.2-0.2-0.4,0.1-0.6l3.2-1.9c0.3-0.2,0.8-0.2,1,0l3.2,1.9
					c0.3,0.1,0.2,0.4-0.1,0.6l-3.2,1.9C260.9,210,260.5,210,260.2,209.9z"/>
				<path class="st10" d="M265.2,212.7l-3.2-1.9c-0.3-0.1-0.2-0.4,0.1-0.6l3.2-1.9c0.3-0.2,0.8-0.2,1,0l3.2,1.9
					c0.3,0.2,0.2,0.4-0.1,0.6l-3.2,1.9C265.9,212.9,265.5,212.9,265.2,212.7z"/>
				<path class="st10" d="M274.1,217.9l-7.1-4.1c-0.3-0.2-0.2-0.4,0.1-0.6l3.2-1.9c0.3-0.2,0.8-0.2,1,0l7.1,4.1
					c0.3,0.2,0.2,0.4-0.1,0.6l-3.2,1.9C274.8,218,274.4,218,274.1,217.9z"/>
				<path class="st10" d="M283.8,212.3l-6-3.4c-0.3-0.2-0.2-0.4,0.1-0.6l3.2-1.9c0.3-0.2,0.8-0.2,1,0l6,3.4c0.3,0.1,0.2,0.4-0.1,0.6
					l-3.2,1.9C284.5,212.4,284.1,212.4,283.8,212.3z"/>
				<path class="st10" d="M234,189.1l-3.2-1.9c-0.3-0.2-0.2-0.4,0.1-0.6l3.2-1.9c0.3-0.2,0.8-0.2,1,0l3.2,1.9
					c0.3,0.1,0.2,0.4-0.1,0.6L235,189C234.7,189.2,234.2,189.2,234,189.1z"/>
				<path class="st10" d="M228.9,186.1l-3.2-1.9c-0.3-0.2-0.2-0.4,0.1-0.6l3.2-1.9c0.3-0.2,0.8-0.2,1,0l3.2,1.9
					c0.3,0.1,0.2,0.4-0.1,0.6l-3.2,1.9C229.6,186.3,229.1,186.3,228.9,186.1z"/>
				<path class="st10" d="M223.7,183.2l-3.2-1.9c-0.3-0.1-0.2-0.4,0.1-0.6l3.2-1.9c0.3-0.2,0.8-0.2,1,0l3.2,1.9
					c0.3,0.2,0.2,0.4-0.1,0.6l-3.2,1.9C224.5,183.3,224,183.3,223.7,183.2z"/>
				<path class="st10" d="M218.6,180.2l-3.2-1.9c-0.3-0.2-0.2-0.4,0.1-0.6l3.2-1.9c0.3-0.2,0.8-0.2,1,0l3.2,1.9
					c0.3,0.2,0.2,0.4-0.1,0.6l-3.2,1.9C219.3,180.4,218.9,180.4,218.6,180.2z"/>
				<path class="st10" d="M239,192l-3.2-1.9c-0.3-0.2-0.2-0.4,0.1-0.6l3.2-1.9c0.3-0.2,0.8-0.2,1,0l3.2,1.9c0.3,0.2,0.2,0.4-0.1,0.6
					l-3.2,1.9C239.7,192.1,239.2,192.1,239,192z"/>
				<path class="st10" d="M244,194.9l-3.2-1.9c-0.3-0.2-0.2-0.4,0.1-0.6l3.2-1.9c0.3-0.2,0.8-0.2,1,0l3.2,1.9
					c0.3,0.2,0.2,0.4-0.1,0.6l-3.2,1.9C244.7,195,244.2,195,244,194.9z"/>
				<path class="st10" d="M249,197.7l-3.2-1.9c-0.3-0.1-0.2-0.4,0.1-0.6l3.2-1.9c0.3-0.2,0.8-0.2,1,0l3.2,1.9
					c0.3,0.2,0.2,0.4-0.1,0.6l-3.2,1.9C249.7,197.9,249.2,197.9,249,197.7z"/>
				<path class="st10" d="M254,200.6l-3.2-1.9c-0.3-0.1-0.2-0.4,0.1-0.6l3.2-1.9c0.3-0.2,0.8-0.2,1,0l3.2,1.9
					c0.3,0.1,0.2,0.4-0.1,0.6l-3.2,1.9C254.7,200.8,254.2,200.8,254,200.6z"/>
				<path class="st10" d="M259,203.5l-3.2-1.9c-0.3-0.2-0.2-0.4,0.1-0.6l3.2-1.9c0.3-0.2,0.8-0.2,1,0l3.2,1.9
					c0.3,0.1,0.2,0.4-0.1,0.6l-3.2,1.9C259.7,203.7,259.2,203.7,259,203.5z"/>
				<path class="st10" d="M264,206.4l-3.2-1.9c-0.3-0.1-0.2-0.4,0.1-0.6l3.2-1.9c0.3-0.2,0.8-0.2,1,0l3.2,1.9
					c0.3,0.2,0.2,0.4-0.1,0.6l-3.2,1.9C264.7,206.5,264.2,206.6,264,206.4z"/>
				<path class="st10" d="M269,209.3l-3.2-1.9c-0.3-0.1-0.2-0.4,0.1-0.6l3.2-1.9c0.3-0.2,0.8-0.2,1,0l3.2,1.9
					c0.3,0.1,0.2,0.4-0.1,0.6l-3.2,1.9C269.7,209.4,269.2,209.4,269,209.3z"/>
				<path class="st10" d="M274,212.2l-3.2-1.9c-0.3-0.2-0.2-0.4,0.1-0.6l3.2-1.9c0.3-0.2,0.8-0.2,1,0l3.2,1.9
					c0.3,0.1,0.2,0.4-0.1,0.6l-3.2,1.9C274.7,212.3,274.2,212.3,274,212.2z"/>
				<path class="st10" d="M279,215.1l-3.2-1.9c-0.3-0.1-0.2-0.4,0.1-0.6l3.2-1.9c0.3-0.2,0.8-0.2,1,0l3.2,1.9
					c0.3,0.2,0.2,0.4-0.1,0.6L280,215C279.7,215.2,279.2,215.2,279,215.1z"/>
				<path class="st10" d="M231.4,182l-3.2-1.9c-0.3-0.2-0.2-0.4,0.1-0.6l3.2-1.9c0.3-0.2,0.8-0.2,1,0l3.2,1.9
					c0.3,0.2,0.2,0.4-0.1,0.6l-3.2,1.9C232.1,182.1,231.6,182.1,231.4,182z"/>
				<path class="st10" d="M226.4,179.1l-3.2-1.9c-0.3-0.1-0.2-0.4,0.1-0.6l3.2-1.9c0.3-0.2,0.8-0.2,1,0l3.2,1.9
					c0.3,0.1,0.2,0.4-0.1,0.6l-3.2,1.9C227.1,179.2,226.6,179.2,226.4,179.1z"/>
				<path class="st10" d="M221.4,176.2l-3.2-1.9c-0.3-0.1-0.2-0.4,0.1-0.6l3.2-1.9c0.3-0.2,0.8-0.2,1,0l3.2,1.9
					c0.3,0.2,0.2,0.4-0.1,0.6l-3.2,1.9C222.1,176.3,221.7,176.4,221.4,176.2z"/>
				<path class="st10" d="M216.4,173.3l-3.2-1.9c-0.3-0.2-0.2-0.4,0.1-0.6l3.2-1.9c0.3-0.2,0.8-0.2,1,0l3.2,1.9
					c0.3,0.2,0.2,0.4-0.1,0.6l-3.2,1.9C217.1,173.5,216.7,173.5,216.4,173.3z"/>
				<path class="st10" d="M221.5,170.4l-3.2-1.9c-0.3-0.2-0.2-0.4,0.1-0.6l1.1-0.6c0.3-0.2,0.8-0.2,1,0l3.2,1.9
					c0.3,0.1,0.2,0.4-0.1,0.6l-1.1,0.6C222.3,170.5,221.8,170.5,221.5,170.4z"/>
				<path class="st10" d="M228,174.1l-3.2-1.9c-0.3-0.1-0.2-0.4,0.1-0.6l1.1-0.6c0.3-0.2,0.8-0.2,1,0l3.2,1.9
					c0.3,0.2,0.2,0.4-0.1,0.6l-1.1,0.6C228.8,174.3,228.3,174.3,228,174.1z"/>
				<path class="st10" d="M233,177l-3.2-1.9c-0.3-0.1-0.2-0.4,0.1-0.6l1.1-0.6c0.3-0.2,0.8-0.2,1,0l3.2,1.9c0.3,0.2,0.2,0.4-0.1,0.6
					L234,177C233.7,177.1,233.3,177.1,233,177z"/>
				<path class="st10" d="M237.9,179.9l-3.2-1.9c-0.3-0.2-0.2-0.4,0.1-0.6l1.1-0.6c0.3-0.2,0.8-0.2,1,0l3.2,1.9
					c0.3,0.1,0.2,0.4-0.1,0.6l-1.1,0.6C238.7,180,238.2,180,237.9,179.9z"/>
				<path class="st10" d="M242.9,182.7l-3.2-1.9c-0.3-0.2-0.2-0.4,0.1-0.6l1.1-0.6c0.3-0.2,0.8-0.2,1,0l3.2,1.9
					c0.3,0.1,0.2,0.4-0.1,0.6l-1.1,0.6C243.6,182.8,243.2,182.9,242.9,182.7z"/>
				<path class="st10" d="M270.5,198.7l-3.2-1.9c-0.3-0.1-0.2-0.4,0.1-0.6l1.1-0.6c0.3-0.2,0.8-0.2,1,0l3.2,1.9
					c0.3,0.2,0.2,0.4-0.1,0.6l-1.1,0.6C271.3,198.8,270.8,198.8,270.5,198.7z"/>
				<path class="st10" d="M275.5,201.5l-3.2-1.9c-0.3-0.2-0.2-0.4,0.1-0.6l1.1-0.6c0.3-0.2,0.8-0.2,1,0l3.2,1.9
					c0.3,0.2,0.2,0.4-0.1,0.6l-1.1,0.6C276.2,201.7,275.8,201.7,275.5,201.5z"/>
				<path class="st10" d="M280.4,204.4l-3.2-1.9c-0.3-0.1-0.2-0.4,0.1-0.6l1.1-0.6c0.3-0.2,0.8-0.2,1,0l3.2,1.9
					c0.3,0.2,0.2,0.4-0.1,0.6l-1.1,0.6C281.2,204.5,280.7,204.5,280.4,204.4z"/>
				<path class="st10" d="M285.4,207.3l-3.2-1.9c-0.3-0.1-0.2-0.4,0.1-0.6l1.1-0.6c0.3-0.2,0.8-0.2,1,0l3.2,1.9
					c0.3,0.2,0.2,0.4-0.1,0.6l-1.1,0.6C286.1,207.4,285.7,207.4,285.4,207.3z"/>
				<path class="st10" d="M236.4,184.8l-3.2-1.9c-0.3-0.2-0.2-0.4,0.1-0.6l3.2-1.9c0.3-0.2,0.8-0.2,1,0l3.2,1.9
					c0.3,0.1,0.2,0.4-0.1,0.6l-3.2,1.9C237.1,185,236.6,185,236.4,184.8z"/>
				<path class="st10" d="M241.4,187.7l-3.2-1.9c-0.3-0.1-0.2-0.4,0.1-0.6l3.2-1.9c0.3-0.2,0.8-0.2,1,0l3.2,1.9
					c0.3,0.2,0.2,0.4-0.1,0.6l-3.2,1.9C242.1,187.9,241.6,187.9,241.4,187.7z"/>
				<path class="st10" d="M246.3,190.6l-3.2-1.9c-0.3-0.1-0.2-0.4,0.1-0.6l3.2-1.9c0.3-0.2,0.8-0.2,1,0l3.2,1.9
					c0.3,0.1,0.2,0.4-0.1,0.6l-3.2,1.9C247.1,190.7,246.6,190.8,246.3,190.6z"/>
				<path class="st10" d="M251.3,193.5l-3.2-1.9c-0.3-0.2-0.2-0.4,0.1-0.6l3.2-1.9c0.3-0.2,0.8-0.2,1,0l3.2,1.9
					c0.3,0.1,0.2,0.4-0.1,0.6l-3.2,1.9C252.1,193.6,251.6,193.6,251.3,193.5z"/>
				<path class="st10" d="M256.3,196.4l-3.2-1.9c-0.3-0.2-0.2-0.4,0.1-0.6l3.2-1.9c0.3-0.2,0.8-0.2,1,0l3.2,1.9
					c0.3,0.2,0.2,0.4-0.1,0.6l-3.2,1.9C257.1,196.5,256.6,196.5,256.3,196.4z"/>
				<path class="st10" d="M261.3,199.3l-3.2-1.9c-0.3-0.1-0.2-0.4,0.1-0.6l3.2-1.9c0.3-0.2,0.8-0.2,1,0l3.2,1.9
					c0.3,0.2,0.2,0.4-0.1,0.6l-3.2,1.9C262.1,199.4,261.6,199.4,261.3,199.3z"/>
				<path class="st10" d="M266.3,202.2l-3.2-1.9c-0.3-0.2-0.2-0.4,0.1-0.6l3.2-1.9c0.3-0.2,0.8-0.2,1,0l3.2,1.9
					c0.3,0.1,0.2,0.4-0.1,0.6l-3.2,1.9C267.1,202.3,266.6,202.3,266.3,202.2z"/>
				<path class="st10" d="M271.3,205l-3.2-1.9c-0.3-0.2-0.2-0.4,0.1-0.6l3.2-1.9c0.3-0.2,0.8-0.2,1,0l3.2,1.9
					c0.3,0.2,0.2,0.4-0.1,0.6l-3.2,1.9C272.1,205.2,271.6,205.2,271.3,205z"/>
				<path class="st10" d="M276.3,207.9l-3.2-1.9c-0.3-0.2-0.2-0.4,0.1-0.6l3.2-1.9c0.3-0.2,0.8-0.2,1,0l3.2,1.9
					c0.3,0.2,0.2,0.4-0.1,0.6l-3.2,1.9C277,208.1,276.6,208.1,276.3,207.9z"/>
				<path class="st10" d="M207.8,185.2l-9.5-5.5c-0.3-0.2-0.2-0.4,0.1-0.6l3.2-1.9c0.3-0.2,0.8-0.2,1,0l9.5,5.5
					c0.3,0.2,0.2,0.4-0.1,0.6l-3.2,1.9C208.5,185.3,208,185.3,207.8,185.2z"/>
				<path class="st10" d="M269.2,220.6l-9.5-5.5c-0.3-0.2-0.2-0.4,0.1-0.6l3.2-1.9c0.3-0.2,0.8-0.2,1,0l9.5,5.5
					c0.3,0.2,0.2,0.4-0.1,0.6l-3.2,1.9C269.9,220.8,269.4,220.8,269.2,220.6z"/>
				<path class="st10" d="M249.2,215.5l-3.2-1.9c-0.3-0.2-0.2-0.4,0.1-0.6l3.8-2.2c0.3-0.2,0.8-0.2,1,0l3.2,1.9
					c0.3,0.2,0.2,0.4-0.1,0.6l-3.8,2.2C249.9,215.6,249.5,215.6,249.2,215.5z"/>
				<path class="st10" d="M212.9,194.5l-5.2-3c-0.3-0.1-0.2-0.4,0.1-0.6l3.8-2.2c0.3-0.2,0.8-0.2,1,0l5.2,3c0.3,0.2,0.2,0.4-0.1,0.6
					l-3.8,2.2C213.6,194.7,213.2,194.7,212.9,194.5z"/>
				<path class="st10" d="M244.4,212.7l-5.2-3c-0.3-0.2-0.2-0.4,0.1-0.6l3.8-2.2c0.3-0.2,0.8-0.2,1,0l5.2,3c0.3,0.2,0.2,0.4-0.1,0.6
					l-3.8,2.2C245.1,212.8,244.6,212.9,244.4,212.7z"/>
				<path class="st10" d="M220.1,198.7l-5.2-3c-0.3-0.1-0.2-0.4,0.1-0.6l3.8-2.2c0.3-0.2,0.8-0.2,1,0l5.2,3c0.3,0.2,0.2,0.4-0.1,0.6
					l-3.8,2.2C220.8,198.8,220.4,198.8,220.1,198.7z"/>
				<path class="st10" d="M219.9,192.9l22.5,13c0.3,0.2,0.3,0.4,0,0.6l-3.9,2.2c-0.3,0.2-0.7,0.2-1,0l-22.5-13L219.9,192.9z"/>
				<path class="st10" d="M263.2,220.7l3.6,2.1c0.2,0.1,0.2,0.3-0.1,0.5l-1.6,0.9c-0.2,0.1-0.6,0.2-0.8,0l-3.6-2.1
					c-0.2-0.1-0.2-0.3,0.1-0.5l1.6-0.9C262.6,220.6,262.9,220.6,263.2,220.7z"/>
				<path class="st10" d="M258.1,217.8l3.6,2.1c0.2,0.1,0.2,0.3-0.1,0.5l-1.6,0.9c-0.2,0.1-0.6,0.2-0.8,0l-3.6-2.1
					c-0.2-0.1-0.2-0.3,0.1-0.5l1.6-0.9C257.5,217.7,257.9,217.7,258.1,217.8z"/>
				<path class="st10" d="M253.1,214.9l3.6,2.1c0.2,0.1,0.2,0.3-0.1,0.5l-1.6,0.9c-0.2,0.1-0.6,0.2-0.8,0l-3.6-2.1
					c-0.2-0.1-0.2-0.3,0.1-0.5l1.6-0.9C252.5,214.8,252.9,214.8,253.1,214.9z"/>
				<path class="st10" d="M260.9,216.2l3.6,2.1c0.2,0.1,0.2,0.3-0.1,0.5l-1.6,0.9c-0.2,0.1-0.6,0.2-0.8,0l-3.6-2.1
					c-0.2-0.1-0.2-0.3,0.1-0.5l1.6-0.9C260.3,216.1,260.7,216.1,260.9,216.2z"/>
			</g>
		</g>
		<g>
			<path class="st1" d="M311.9,138.4c-0.2,0-0.5-0.1-0.8-0.2c-0.8-0.5-1.2-1.4-1.1-2.2c0.1-0.4,0.3-0.7,0.6-0.8
				c0.4-0.2,0.8-0.1,1.2,0.1c0.8,0.4,1.2,1.4,1.1,2.2c-0.1,0.4-0.3,0.7-0.6,0.8C312.2,138.4,312,138.4,311.9,138.4z M311.1,135.5
				c-0.1,0-0.2,0-0.3,0.1c-0.2,0.1-0.4,0.3-0.4,0.6c-0.2,0.7,0.3,1.5,0.9,1.9c0.3,0.2,0.6,0.2,0.9,0.1c0.2-0.1,0.4-0.3,0.4-0.6
				c0.2-0.7-0.2-1.5-0.9-1.9C311.5,135.5,311.3,135.5,311.1,135.5z"/>
			<path class="st1" d="M316,140.8c-0.2,0-0.5-0.1-0.8-0.2c-0.8-0.4-1.2-1.4-1.1-2.2c0.1-0.4,0.3-0.7,0.6-0.8
				c0.4-0.2,0.8-0.1,1.2,0.1c0.8,0.4,1.2,1.4,1.1,2.2c-0.1,0.4-0.3,0.7-0.6,0.8C316.3,140.8,316.1,140.8,316,140.8z M315.3,137.8
				c-0.1,0-0.2,0-0.3,0.1c-0.2,0.1-0.4,0.3-0.4,0.6c-0.2,0.7,0.3,1.5,0.9,1.9c0.3,0.2,0.6,0.2,0.9,0.1c0.2-0.1,0.4-0.3,0.4-0.6l0,0
				c0.2-0.7-0.2-1.5-0.9-1.9C315.6,137.9,315.4,137.8,315.3,137.8z"/>
			<path class="st1" d="M321,142.3c-0.2,0.7-0.9,1-1.6,0.6c-0.7-0.4-1.1-1.3-1-2c0.2-0.7,0.9-1,1.6-0.6
				C320.8,140.6,321.2,141.6,321,142.3z"/>
		</g>
		<polygon class="st1" points="242,96.8 239.8,95.5 240,94.5 242.2,95.8 		"/>
		<polygon class="st1" points="245.2,98.6 243,97.4 243.2,96.4 245.4,97.6 		"/>
		<polygon class="st1" points="238.8,95 234,92.2 234.2,91.2 239,93.9 		"/>
	</g>
	<g>
		<g>
			<path class="st1" d="M355.1,286.1c-1.4,0-2.7-0.3-3.7-0.9l-19.8-11.4c-1-0.6-1.6-1.4-1.6-2.3c0-0.9,0.6-1.7,1.6-2.3l19.8-11.4
				c2.1-1.2,5.4-1.2,7.5,0l19.8,11.4c1,0.6,1.6,1.4,1.6,2.3c0,0.9-0.6,1.7-1.6,2.3l-19.8,11.4C357.8,285.8,356.4,286.1,355.1,286.1z
				 M351.5,284.9c2,1.1,5.1,1.1,7.1,0l19.8-11.4c0.9-0.5,1.4-1.2,1.4-2c0-0.7-0.5-1.4-1.4-2l-19.8-11.4c-2-1.1-5.1-1.1-7.1,0
				l-19.8,11.4c-0.9,0.5-1.4,1.2-1.4,2c0,0.7,0.5,1.4,1.4,2L351.5,284.9z"/>
			<g>
				<path class="st21" d="M380.8,267.2v-6.8l-1.2-0.7c-0.4,2.1-2.8,3.5-4.9,3.8l-14.2,8.3l-6.2,2.2l-19.7-10.2l0.5-0.3
					c-1.7-0.8-2.6-2.6-3.5-4.2l-1.3,0.8l-0.8,0.2v6.9v0c0,0.9,0.6,1.8,1.7,2.4l19.8,11.4c2.3,1.3,6.1,1.3,8.4,0l19.8-11.4
					c1.1-0.7,1.7-1.5,1.7-2.4C380.8,267.2,380.8,267.2,380.8,267.2L380.8,267.2z"/>
				<g>
					<g>
						<linearGradient id="SVGID_14_" gradientUnits="userSpaceOnUse" x1="334.4604" y1="247.7544" x2="375.2702" y2="271.3159">
							<stop  offset="0" style="stop-color:#BCBEFF"/>
							<stop  offset="0.2271" style="stop-color:#AAADF8"/>
							<stop  offset="0.6802" style="stop-color:#7C83E5"/>
							<stop  offset="1" style="stop-color:#5761D7"/>
						</linearGradient>
						<path class="st22" d="M380.8,261.1v-4.5l-1.2-0.7c-0.4,2.1-2.8,3.5-4.9,3.8l-14.2,8.3l-6.2,2.2l-19.7-10.2l0.5-0.3
							c-1.7-0.8-2.6-2.6-3.5-4.2l-1.3,0.8l-0.8,0.2v4.6v0c0,0.9,0.6,1.8,1.7,2.4l19.8,11.4c2.3,1.3,6.1,1.3,8.4,0l19.8-11.4
							c1.1-0.7,1.7-1.5,1.7-2.4C380.8,261.2,380.8,261.2,380.8,261.1L380.8,261.1z"/>
						<path class="st23" d="M374.6,259.8l-14.2,8.3l-5.4,1.9v6.1c1.5,0,3-0.3,4.2-1l19.8-11.4c1.1-0.7,1.7-1.5,1.7-2.4
							c0,0,0-0.1,0-0.1l0,0v-4.5l-1.1-0.6h-0.1C379.1,258.1,376.7,259.5,374.6,259.8z"/>
						<linearGradient id="SVGID_15_" gradientUnits="userSpaceOnUse" x1="336.9097" y1="246.1677" x2="373.3039" y2="267.1799">
							<stop  offset="0.2421" style="stop-color:#5761D7"/>
							<stop  offset="0.3923" style="stop-color:#7A82E5"/>
							<stop  offset="0.5463" style="stop-color:#979CF0"/>
							<stop  offset="0.7" style="stop-color:#ACAFF8"/>
							<stop  offset="0.8519" style="stop-color:#B8BAFD"/>
							<stop  offset="1" style="stop-color:#BCBEFF"/>
						</linearGradient>
						<path class="st24" d="M335,259.8l18.7-10.8c0.7-0.4,1.9-0.4,2.7,0l18.4,10.6l-0.2,0.1c2.1-0.3,4.6-1.7,4.9-3.8l-20.7-11.5
							l-6-1.6l-4.9,2.9l-16.5,9.8C332.4,257.2,333.3,259.1,335,259.8z"/>
						<path class="st23" d="M355.1,243.5l-2.2-0.6l-4.9,2.9l-16.5,9.8c0.9,1.6,1.8,3.4,3.5,4.2l18.7-10.8c0.4-0.2,0.9-0.3,1.3-0.3
							V243.5z"/>
						<g>
							<linearGradient id="SVGID_16_" gradientUnits="userSpaceOnUse" x1="329.3433" y1="256.6606" x2="380.779" y2="256.6606">
								<stop  offset="0" style="stop-color:#E9E9FD"/>
								<stop  offset="0.3601" style="stop-color:#D3D2F9"/>
								<stop  offset="0.7062" style="stop-color:#C5C4F7"/>
								<stop  offset="1" style="stop-color:#C0BFF6"/>
							</linearGradient>
							<path class="st25" d="M350.9,270.5l-19.8-11.4c-2.3-1.3-2.3-3.5,0-4.9l19.8-11.4c2.3-1.3,6.1-1.3,8.4,0l19.8,11.4
								c2.3,1.3,2.3,3.5,0,4.8l-19.8,11.4C356.9,271.8,353.2,271.8,350.9,270.5z M356.4,244.5c-0.7-0.4-1.9-0.4-2.7,0l-19.8,11.4
								c-0.7,0.4-0.7,1.1,0,1.6l19.8,11.4c0.7,0.4,1.9,0.4,2.7,0l19.8-11.4c0.7-0.4,0.7-1.1,0-1.6L356.4,244.5z"/>
						</g>
						<g>
							<path class="st5" d="M376.2,255.9l-19.8-11.4c-0.7-0.4-1.9-0.4-2.7,0l-19.8,11.4c-0.5,0.3-0.7,0.7-0.5,1.1
								c0.1-0.2,0.2-0.4,0.5-0.5l19.8-11.4c0.7-0.4,1.9-0.4,2.7,0l19.8,11.4c0.2,0.1,0.4,0.3,0.5,0.5
								C376.8,256.6,376.7,256.2,376.2,255.9z"/>
							<path class="st5" d="M379,259.1l-19.8,11.4c-2.3,1.3-6.1,1.3-8.4,0l-19.8-11.4c-1-0.6-1.6-1.4-1.7-2.1c-0.1,1,0.4,2,1.7,2.7
								l19.8,11.4c2.3,1.3,6.1,1.3,8.4,0l19.8-11.4c1.3-0.7,1.9-1.7,1.7-2.7C380.6,257.7,380.1,258.5,379,259.1z"/>
						</g>
						<g>
							<linearGradient id="SVGID_17_" gradientUnits="userSpaceOnUse" x1="330.133" y1="256.6606" x2="379.9893" y2="256.6606">
								<stop  offset="0" style="stop-color:#E9E9FD"/>
								<stop  offset="0.3601" style="stop-color:#D3D2F9"/>
								<stop  offset="0.7062" style="stop-color:#C5C4F7"/>
								<stop  offset="1" style="stop-color:#C0BFF6"/>
							</linearGradient>
							<path class="st26" d="M351.4,270.2l-19.8-11.4c-2-1.2-2-3,0-4.2l19.8-11.4c2-1.2,5.3-1.2,7.3,0l19.8,11.4c2,1.2,2,3,0,4.2
								l-19.8,11.4C356.7,271.3,353.4,271.3,351.4,270.2z M357,244.1c-1-0.6-2.8-0.6-3.8,0l-19.8,11.4c-1,0.6-1,1.6,0,2.2l19.8,11.4
								c1,0.6,2.8,0.6,3.8,0l19.8-11.4c1-0.6,1-1.6,0-2.2L357,244.1z"/>
						</g>
					</g>
					<path class="st21" d="M356.4,244.5c-0.7-0.4-1.9-0.4-2.7,0l-19.8,11.4c-0.7,0.4-0.7,1.1,0,1.6l19.8,11.4c0.7,0.4,1.9,0.4,2.7,0
						l19.8-11.4c0.7-0.4,0.7-1.1,0-1.6L356.4,244.5z"/>
				</g>
			</g>
		</g>
		<linearGradient id="SVGID_18_" gradientUnits="userSpaceOnUse" x1="355.06" y1="269.1784" x2="355.06" y2="186.0962">
			<stop  offset="0" style="stop-color:#42E8E0"/>
			<stop  offset="0.1055" style="stop-color:#37B6BF"/>
			<stop  offset="0.2197" style="stop-color:#2C87A1"/>
			<stop  offset="0.338" style="stop-color:#235F87"/>
			<stop  offset="0.4587" style="stop-color:#1C3F72"/>
			<stop  offset="0.5824" style="stop-color:#162561"/>
			<stop  offset="0.7105" style="stop-color:#121355"/>
			<stop  offset="0.8458" style="stop-color:#10084E"/>
			<stop  offset="1" style="stop-color:#0F054C"/>
		</linearGradient>
		<path class="st27" d="M376.7,256.6v-70.5h-43.4l0,70.5c0,0.3,0.2,0.6,0.6,0.8l19.8,11.4c0.7,0.4,1.9,0.4,2.7,0l19.8-11.4
			C376.6,257.2,376.7,256.9,376.7,256.6z"/>
	</g>
	<g>
		<g>
			<path class="st1" d="M153.9,141.6c-1.4,0-2.7-0.3-3.7-0.9l-19.8-11.4c-1-0.6-1.6-1.4-1.6-2.3c0-0.9,0.6-1.7,1.6-2.3l19.8-11.4
				c2.1-1.2,5.4-1.2,7.5,0l19.8,11.4c1,0.6,1.6,1.4,1.6,2.3c0,0.9-0.6,1.7-1.6,2.3l-19.8,11.4C156.6,141.3,155.2,141.6,153.9,141.6z
				 M150.3,140.4c2,1.1,5.1,1.1,7.1,0l19.8-11.4c0.9-0.5,1.4-1.2,1.4-2c0-0.7-0.5-1.4-1.4-2l-19.8-11.4c-2-1.1-5.1-1.1-7.1,0
				l-19.8,11.4c-0.9,0.5-1.4,1.2-1.4,2c0,0.7,0.5,1.4,1.4,2L150.3,140.4z"/>
			<g>
				<path class="st21" d="M179.6,122.7v-6.8l-1.2-0.7c-0.3,2.1-2.8,3.5-4.9,3.8l-14.2,8.3l-6.2,2.2l-19.7-10.2l0.5-0.3
					c-1.7-0.8-2.6-2.6-3.5-4.2l-1.3,0.8l-0.8,0.2v6.9l0,0c0,0.9,0.6,1.8,1.7,2.4l19.8,11.4c2.3,1.3,6.1,1.3,8.4,0l19.8-11.4
					c1.1-0.7,1.7-1.5,1.7-2.4C179.6,122.8,179.6,122.7,179.6,122.7L179.6,122.7z"/>
				<g>
					<g>
						<linearGradient id="SVGID_19_" gradientUnits="userSpaceOnUse" x1="133.2531" y1="103.2722" x2="174.0629" y2="126.8337">
							<stop  offset="0" style="stop-color:#BCBEFF"/>
							<stop  offset="0.2271" style="stop-color:#AAADF8"/>
							<stop  offset="0.6802" style="stop-color:#7C83E5"/>
							<stop  offset="1" style="stop-color:#5761D7"/>
						</linearGradient>
						<path class="st28" d="M179.6,116.7v-4.5l-1.2-0.7c-0.3,2.1-2.8,3.5-4.9,3.8l-14.2,8.3l-6.2,2.2l-19.7-10.2l0.5-0.3
							c-1.7-0.8-2.6-2.6-3.5-4.2l-1.3,0.8l-0.8,0.2v4.6l0,0c0,0.9,0.6,1.8,1.7,2.4l19.8,11.4c2.3,1.3,6.1,1.3,8.4,0l19.8-11.4
							c1.1-0.7,1.7-1.5,1.7-2.4C179.6,116.7,179.6,116.7,179.6,116.7L179.6,116.7z"/>
						<path class="st23" d="M173.4,115.3l-14.2,8.3l-5.4,1.9v6.1c1.5,0,3-0.3,4.2-1l19.8-11.4c1.1-0.7,1.7-1.5,1.7-2.4
							c0,0,0-0.1,0-0.1l0,0v-4.5l-1.1-0.6h-0.1C177.9,113.6,175.5,115,173.4,115.3z"/>
						<g>
							<linearGradient id="SVGID_20_" gradientUnits="userSpaceOnUse" x1="128.136" y1="112.1783" x2="179.5716" y2="112.1783">
								<stop  offset="0" style="stop-color:#E9E9FD"/>
								<stop  offset="0.3601" style="stop-color:#D3D2F9"/>
								<stop  offset="0.7062" style="stop-color:#C5C4F7"/>
								<stop  offset="1" style="stop-color:#C0BFF6"/>
							</linearGradient>
							<path class="st29" d="M149.7,126l-19.8-11.4c-2.3-1.3-2.3-3.5,0-4.9l19.8-11.4c2.3-1.3,6.1-1.3,8.4,0l19.8,11.4
								c2.3,1.3,2.3,3.5,0,4.8L158.1,126C155.7,127.4,152,127.4,149.7,126z"/>
						</g>
						<g>
							<path class="st5" d="M177.8,114.6L158.1,126c-2.3,1.3-6.1,1.3-8.4,0l-19.8-11.4c-1-0.6-1.6-1.4-1.7-2.1c-0.1,1,0.4,2,1.7,2.7
								l19.8,11.4c2.3,1.3,6.1,1.3,8.4,0l19.8-11.4c1.3-0.7,1.9-1.7,1.7-2.7C179.4,113.2,178.9,114,177.8,114.6z"/>
						</g>
					</g>
				</g>
			</g>
		</g>
	</g>
	<path class="st1" d="M279,314.2c-1.7,0-3.3-0.4-4.6-1.1l-79.5-45.9c-1.3-0.7-1.9-1.7-1.9-2.7c0-1,0.7-2,1.9-2.7l16.8-9.7l0.2,0.3
		l-16.8,9.7c-1.1,0.7-1.8,1.5-1.8,2.4s0.6,1.8,1.8,2.4l79.5,45.9c2.4,1.4,6.4,1.4,8.8,0l58.2-33.5l0.2,0.3l-58.2,33.5
		C282.3,313.9,280.6,314.2,279,314.2z"/>
	<g>
		<path class="st30" d="M117.3,163.9c-1.6,0-3.2-0.3-4.4-1l-19.8-11.4c-1.2-0.7-1.9-1.7-1.9-2.7c0-1,0.7-2,1.9-2.7l19.8-11.4
			c2.4-1.4,6.3-1.4,8.8,0l19.8,11.4c1.2,0.7,1.9,1.7,1.9,2.7c0,1-0.7,2-1.9,2.7l-19.8,11.4C120.5,163.6,118.9,163.9,117.3,163.9z
			 M113.3,162.3c2.2,1.3,5.8,1.3,8.1,0l19.8-11.4c1-0.6,1.6-1.3,1.6-2.1c0-0.8-0.6-1.5-1.6-2.1l-19.8-11.4c-2.2-1.3-5.8-1.3-8.1,0
			l-19.8,11.4c-1,0.6-1.6,1.3-1.6,2.1c0,0.8,0.6,1.5,1.6,2.1L113.3,162.3z"/>
	</g>
	<g>
		<path class="st31" d="M182.8,301.1c-1.6,0-3.2-0.3-4.4-1l-19.8-11.4c-1.2-0.7-1.9-1.7-1.9-2.7c0-1,0.7-2,1.9-2.7l19.8-11.4
			c2.4-1.4,6.3-1.4,8.8,0l19.8,11.4c1.2,0.7,1.9,1.7,1.9,2.7c0,1-0.7,2-1.9,2.7l-19.8,11.4C186,300.8,184.4,301.1,182.8,301.1z
			 M178.8,299.5c2.2,1.3,5.8,1.3,8.1,0l19.8-11.4c1-0.6,1.6-1.3,1.6-2.1c0-0.8-0.6-1.5-1.6-2.1l-19.8-11.4c-2.2-1.3-5.8-1.3-8.1,0
			L159,283.8c-1,0.6-1.6,1.3-1.6,2.1c0,0.8,0.6,1.5,1.6,2.1L178.8,299.5z"/>
	</g>
	<path class="st1" d="M152.3,263.6c-1,0-1.9-0.2-2.8-0.7l-26.3-15.2l0.2-0.3l26.3,15.2c1.6,0.9,3.6,0.9,5.2,0l37.5-21.7l0.2,0.3
		l-37.5,21.7C154.3,263.4,153.3,263.6,152.3,263.6z"/>
	<g>
		<circle class="st21" cx="376.3" cy="97.5" r="3.3"/>
		<circle class="st21" cx="376.3" cy="97.5" r="1.4"/>
	</g>
	<g>
		<circle class="st21" cx="326" cy="39.6" r="3.3"/>
		<circle class="st21" cx="326" cy="39.6" r="1.4"/>
	</g>
	<g>
		<circle class="st21" cx="420.1" cy="109.1" r="3.3"/>
		<circle class="st21" cx="420.1" cy="109.1" r="1.4"/>
	</g>
	<path class="st1" d="M107.4,251.4c-6.1,0-12.3-1.3-16.9-4c-4.6-2.6-7.1-6.1-7.1-9.9c0-3.7,2.5-7.2,7.1-9.9c9.3-5.4,24.5-5.4,33.9,0
		c4.6,2.6,7.1,6.1,7.1,9.9c0,3.7-2.5,7.2-7.1,9.9l0,0C119.7,250,113.6,251.4,107.4,251.4z M107.4,223.8c-6.1,0-12.1,1.3-16.8,4
		c-4.4,2.6-6.9,6-6.9,9.6c0,3.6,2.4,7,6.9,9.6c9.2,5.3,24.3,5.3,33.5,0c4.4-2.6,6.9-6,6.9-9.6c0-3.6-2.4-7-6.9-9.6
		C119.6,225.2,113.5,223.8,107.4,223.8z"/>
	<g>
		<g>
			<g>
				<g>
					<path class="st32" d="M98,227.6c5.3-3.1,13.9-3.1,19.2,0c0.9,0.5,1.6,1,2.2,1.6c3-3,2.3-6.9-2.2-9.5c-5.3-3.1-13.9-3.1-19.2,0
						c-4.5,2.6-5.2,6.5-2.2,9.5C96.4,228.7,97.1,228.1,98,227.6z"/>
					<linearGradient id="SVGID_21_" gradientUnits="userSpaceOnUse" x1="83.5149" y1="233.29" x2="131.6909" y2="233.29">
						<stop  offset="0" style="stop-color:#BCBEFF"/>
						<stop  offset="0.151" style="stop-color:#A3A7F5"/>
						<stop  offset="0.3866" style="stop-color:#8289E8"/>
						<stop  offset="0.6124" style="stop-color:#6A73DF"/>
						<stop  offset="0.8221" style="stop-color:#5C66D9"/>
						<stop  offset="1" style="stop-color:#5761D7"/>
					</linearGradient>
					<path class="st33" d="M128.1,225.4c-1-0.9-2.1-1.8-3.5-2.5c-2.1-1.2-4.5-2.2-7.1-2.8c5,3.1,4.8,8-0.5,11
						c-5.4,3.1-14.2,3.1-19.6,0c-5.1-2.9-5.4-7.6-0.9-10.7c-2.1,0.6-4.1,1.5-5.9,2.5c-1.4,0.8-2.5,1.6-3.5,2.5h-3.6v7.3h0
						c0,3.6,2.4,7.1,7.1,9.8c9.4,5.4,24.7,5.4,34.1,0c4.7-2.7,7.1-6.3,7.1-9.8v-7.3H128.1z"/>
					<path class="st23" d="M124.6,222.8c-2.1-1.2-4.5-2.2-7.1-2.8c5,3.1,4.8,8-0.5,11c-2.6,1.5-6,2.3-9.5,2.3v13.2
						c6.2,0,12.3-1.4,17-4.1c4.7-2.7,7.1-6.3,7.1-9.8v-7.3h-3.6C127.2,224.5,126,223.6,124.6,222.8z"/>
					<radialGradient id="SVGID_22_" cx="130.4747" cy="240.6459" r="27.9966" gradientUnits="userSpaceOnUse">
						<stop  offset="0" style="stop-color:#42E8E0"/>
						<stop  offset="3.469288e-02" style="stop-color:#3FDCD8"/>
						<stop  offset="0.2363" style="stop-color:#319CAE"/>
						<stop  offset="0.4286" style="stop-color:#25668B"/>
						<stop  offset="0.6062" style="stop-color:#1B3C70"/>
						<stop  offset="0.7662" style="stop-color:#151E5C"/>
						<stop  offset="0.9028" style="stop-color:#100C50"/>
						<stop  offset="1" style="stop-color:#0F054C"/>
					</radialGradient>
					<path class="st34" d="M124.6,222.8c-2.1-1.2-4.5-2.2-7.1-2.8c5,3.1,4.8,8-0.5,11c-2.6,1.5-6,2.3-9.5,2.3v13.2
						c6.2,0,12.3-1.4,17-4.1c4.7-2.7,7.1-6.3,7.1-9.8v-7.3h-3.6C127.2,224.5,126,223.6,124.6,222.8z"/>
					<linearGradient id="SVGID_23_" gradientUnits="userSpaceOnUse" x1="83.5149" y1="225.9845" x2="131.6909" y2="225.9845">
						<stop  offset="0" style="stop-color:#C0BFF6"/>
						<stop  offset="0.2938" style="stop-color:#C5C4F7"/>
						<stop  offset="0.6399" style="stop-color:#D3D2F9"/>
						<stop  offset="1" style="stop-color:#E9E9FD"/>
					</linearGradient>
					<path class="st35" d="M124.6,216.2c-9.4-5.4-24.7-5.4-34.1,0c-9.4,5.4-9.4,14.2,0,19.7c9.4,5.4,24.7,5.4,34.1,0
						C134,230.4,134,221.6,124.6,216.2z M117.2,231.6c-5.4,3.1-14.2,3.1-19.6,0c-5.4-3.1-5.4-8.2,0-11.3c5.4-3.1,14.2-3.1,19.6,0
						C122.7,223.4,122.7,228.5,117.2,231.6z"/>
					<g>
						<path class="st5" d="M124.6,235.1c-9.4,5.4-24.7,5.4-34.1,0c-4.5-2.6-6.9-6-7-9.5c-0.2,3.7,2.2,7.4,7,10.2
							c9.4,5.4,24.7,5.4,34.1,0c4.9-2.8,7.2-6.5,7-10.2C131.5,229,129.2,232.4,124.6,235.1z"/>
						<path class="st5" d="M117.2,219.6c-5.4-3.1-14.2-3.1-19.6,0c-2.9,1.7-4.2,3.9-4,6c0.2-1.9,1.5-3.8,4-5.3
							c5.4-3.1,14.2-3.1,19.6,0c2.5,1.5,3.9,3.4,4,5.3C121.5,223.4,120.1,221.2,117.2,219.6z"/>
					</g>
					<linearGradient id="SVGID_24_" gradientUnits="userSpaceOnUse" x1="85.2654" y1="225.2984" x2="130.1119" y2="225.2984">
						<stop  offset="0" style="stop-color:#C0BFF6"/>
						<stop  offset="0.2938" style="stop-color:#C5C4F7"/>
						<stop  offset="0.6399" style="stop-color:#D3D2F9"/>
						<stop  offset="1" style="stop-color:#E9E9FD"/>
					</linearGradient>
					<path class="st36" d="M123.5,216.1c-8.8-5.1-23-5.1-31.7,0c-8.8,5.1-8.8,13.3,0,18.3c8.8,5.1,23,5.1,31.7,0
						C132.3,229.4,132.3,221.2,123.5,216.1z M117.2,230.8c-5.2,3-13.7,3-18.9,0c-5.2-3-5.2-7.9,0-10.9c5.2-3,13.7-3,18.9,0
						C122.4,222.9,122.4,227.7,117.2,230.8z"/>
				</g>
			</g>
			<ellipse class="st21" cx="107.7" cy="225.3" rx="13.4" ry="7.7"/>
			<linearGradient id="SVGID_25_" gradientUnits="userSpaceOnUse" x1="107.6872" y1="155.3107" x2="107.6872" y2="233.0309">
				<stop  offset="0" style="stop-color:#0F054C"/>
				<stop  offset="0.1542" style="stop-color:#10084E"/>
				<stop  offset="0.2895" style="stop-color:#121355"/>
				<stop  offset="0.4176" style="stop-color:#162561"/>
				<stop  offset="0.5413" style="stop-color:#1C3F72"/>
				<stop  offset="0.662" style="stop-color:#235F87"/>
				<stop  offset="0.7803" style="stop-color:#2C87A1"/>
				<stop  offset="0.8945" style="stop-color:#37B6BF"/>
				<stop  offset="1" style="stop-color:#42E8E0"/>
			</linearGradient>
			<path class="st37" d="M121.1,225.2L121.1,225.2l0-69.8H94.3v69.9h0c0,2,1.3,4,3.9,5.5c5.2,3,13.7,3,18.9,0
				C119.8,229.2,121.1,227.2,121.1,225.2z"/>
		</g>
		<g>
			<path class="st21" d="M117.6,197.2c0,0.4-0.4,0.8-0.8,0.8c-0.4,0-0.8-0.4-0.8-0.8c0-0.4,0.4-0.8,0.8-0.8
				C117.2,196.4,117.6,196.7,117.6,197.2z"/>
			<path class="st21" d="M103.6,160.6c0,0.4-0.4,0.8-0.8,0.8c-0.4,0-0.8-0.4-0.8-0.8c0-0.4,0.4-0.8,0.8-0.8
				C103.2,159.8,103.6,160.1,103.6,160.6z"/>
			<path class="st21" d="M105.1,187.9c0,0.7-0.5,1.2-1.2,1.2s-1.2-0.5-1.2-1.2c0-0.7,0.5-1.2,1.2-1.2S105.1,187.3,105.1,187.9z"/>
			<path class="st38" d="M103,208.1c0,0.5-0.4,0.8-0.8,0.8c-0.5,0-0.8-0.4-0.8-0.8c0-0.5,0.4-0.8,0.8-0.8
				C102.6,207.2,103,207.6,103,208.1z"/>
			<path class="st38" d="M114.9,174.3c0,0.7-0.6,1.3-1.3,1.3c-0.7,0-1.3-0.6-1.3-1.3c0-0.7,0.6-1.3,1.3-1.3
				C114.3,173.1,114.9,173.6,114.9,174.3z"/>
			<path class="st38" d="M113.9,178.5c0,0.5-0.4,0.9-0.9,0.9c-0.5,0-0.9-0.4-0.9-0.9c0-0.5,0.4-0.9,0.9-0.9
				C113.5,177.6,113.9,178,113.9,178.5z"/>
		</g>
		<g class="st20">
			<g>
				<defs>
					<path id="SVGID_26_" d="M122.7,206.7l0.3-0.1c0.1,0,0.1,0,0.2,0.1c0,0.1,0,0.1-0.1,0.2l-0.3,0.1L122.7,206.7z"/>
				</defs>
				<clipPath id="SVGID_27_">
					<use xlink:href="#SVGID_26_"  style="overflow:visible;"/>
				</clipPath>
				<g style="clip-path:url(#SVGID_27_);">
					
						<image style="overflow:visible;" width="7" height="4" xlink:href="536FFDEF.png"  transform="matrix(0.24 0 0 0.24 122.08 206.36)">
					</image>
				</g>
			</g>
			
				<image style="overflow:visible;" width="202" height="118" xlink:href="536FFDED.png"  transform="matrix(0.24 0 0 0.24 83.44 181.88)">
			</image>
			<g>
				<defs>
					<path id="SVGID_28_" d="M125.1,205.8l-0.3,0.2c-0.1,0-0.1,0-0.2,0c0-0.1,0-0.1,0-0.2l0,0l0.3-0.2L125.1,205.8z"/>
				</defs>
				<clipPath id="SVGID_29_">
					<use xlink:href="#SVGID_28_"  style="overflow:visible;"/>
				</clipPath>
				<g style="clip-path:url(#SVGID_29_);">
					
						<image style="overflow:visible;" width="7" height="5" xlink:href="536FFDF3.png"  transform="matrix(0.24 0 0 0.24 124 205.16)">
					</image>
				</g>
			</g>
		</g>
		<g class="st20">
			<g>
				<defs>
					<path id="SVGID_30_" d="M90,173.1L90,173.1c0.1,0.1,0.1,0.1,0.1,0.2c0,0.1-0.1,0.1-0.2,0l-0.1,0L90,173.1z"/>
				</defs>
				<clipPath id="SVGID_31_">
					<use xlink:href="#SVGID_30_"  style="overflow:visible;"/>
				</clipPath>
				<g style="clip-path:url(#SVGID_31_);">
					
						<image style="overflow:visible;" width="7" height="5" xlink:href="536FFDF5.png"  transform="matrix(0.24 0 0 0.24 89.68 173)">
					</image>
				</g>
			</g>
			
				<image style="overflow:visible;" width="202" height="101" xlink:href="536FFDF7.png"  transform="matrix(0.24 0 0 0.24 83.44 149.72)">
			</image>
			<g>
				<defs>
					<path id="SVGID_32_" d="M125.1,173.6l-0.3,0.2c-0.1,0-0.1,0-0.2,0c0-0.1,0-0.1,0-0.2l0,0l0.3-0.2L125.1,173.6z"/>
				</defs>
				<clipPath id="SVGID_33_">
					<use xlink:href="#SVGID_32_"  style="overflow:visible;"/>
				</clipPath>
				<g style="clip-path:url(#SVGID_33_);">
					<image style="overflow:visible;" width="7" height="5" xlink:href="536FFDF4.png"  transform="matrix(0.24 0 0 0.24 124 173)">
					</image>
				</g>
			</g>
		</g>
		<g class="st20">
			<g>
				<defs>
					<path id="SVGID_34_" d="M122.7,174.6l0.3-0.1c0.1,0,0.1,0,0.2,0.1c0,0.1,0,0.1-0.1,0.2l-0.3,0.1L122.7,174.6z"/>
				</defs>
				<clipPath id="SVGID_35_">
					<use xlink:href="#SVGID_34_"  style="overflow:visible;"/>
				</clipPath>
				<g style="clip-path:url(#SVGID_35_);">
					
						<image style="overflow:visible;" width="7" height="4" xlink:href="536FFDFC.png"  transform="matrix(0.24 0 0 0.24 122.08 174.2)">
					</image>
				</g>
			</g>
			
				<image style="overflow:visible;" width="71" height="15" xlink:href="536FFDFD.png"  transform="matrix(0.24 0 0 0.24 106.24 174.44)">
			</image>
			<g>
				<defs>
					<path id="SVGID_36_" d="M106.6,177.9l-0.3,0c-0.1,0-0.1-0.1-0.1-0.1c0-0.1,0.1-0.1,0.1-0.1l0.3,0L106.6,177.9z"/>
				</defs>
				<clipPath id="SVGID_37_">
					<use xlink:href="#SVGID_36_"  style="overflow:visible;"/>
				</clipPath>
				<g style="clip-path:url(#SVGID_37_);">
					
						<image style="overflow:visible;" width="7" height="2" xlink:href="536FFDFF.png"  transform="matrix(0.24 0 0 0.24 105.76 177.56)">
					</image>
				</g>
			</g>
		</g>
		<g class="st20">
			<g>
				<defs>
					<path id="SVGID_38_" d="M124.4,191.2l0.3-0.2l0,0c0.1,0,0.1,0,0.2,0.1c0,0.1,0,0.1-0.1,0.2l-0.3,0.2L124.4,191.2z"/>
				</defs>
				<clipPath id="SVGID_39_">
					<use xlink:href="#SVGID_38_"  style="overflow:visible;"/>
				</clipPath>
				<g style="clip-path:url(#SVGID_39_);">
					
						<image style="overflow:visible;" width="7" height="5" xlink:href="F2FB39C.png"  transform="matrix(0.24 0 0 0.24 123.76 190.76)">
					</image>
				</g>
			</g>
			
				<image style="overflow:visible;" width="173" height="101" xlink:href="F2FB39B.png"  transform="matrix(0.24 0 0 0.24 83.44 171.32)">
			</image>
			<g>
				<defs>
					<path id="SVGID_40_" d="M90.3,171.6l0.3-0.2c0.1,0,0.1,0,0.2,0c0,0.1,0,0.1,0,0.2l0,0l-0.3,0.2L90.3,171.6z"/>
				</defs>
				<clipPath id="SVGID_41_">
					<use xlink:href="#SVGID_40_"  style="overflow:visible;"/>
				</clipPath>
				<g style="clip-path:url(#SVGID_41_);">
					
						<image style="overflow:visible;" width="7" height="5" xlink:href="F2FB394.png"  transform="matrix(0.24 0 0 0.24 89.68 171.08)">
					</image>
				</g>
			</g>
		</g>
		<path class="st38" d="M126,205.8c0,0.7-0.6,1.3-1.3,1.3c-0.7,0-1.3-0.6-1.3-1.3c0-0.7,0.6-1.3,1.3-1.3
			C125.4,204.5,126,205.1,126,205.8z"/>
		<path class="st38" d="M126.6,202.3c0,0.5-0.4,1-1,1c-0.5,0-1-0.4-1-1c0-0.5,0.4-1,1-1C126.1,201.3,126.6,201.8,126.6,202.3z"/>
		<circle class="st38" cx="128.3" cy="201.9" r="0.6"/>
		<path class="st38" d="M131.3,200.6c0.2,0.1,0.2,0.4,0.1,0.6c-0.1,0.2-0.4,0.2-0.6,0.1c-0.2-0.1-0.2-0.4-0.1-0.6
			C130.9,200.5,131.1,200.5,131.3,200.6z"/>
		<path class="st38" d="M132.5,198.8c0.3,0.2,0.3,0.5,0.2,0.8s-0.5,0.3-0.8,0.2c-0.3-0.2-0.3-0.5-0.2-0.8
			C131.9,198.7,132.2,198.7,132.5,198.8z"/>
		<path class="st38" d="M131.4,197.6c0.3,0.2,0.4,0.6,0.2,1c-0.2,0.3-0.6,0.4-1,0.2c-0.3-0.2-0.4-0.6-0.2-1
			C130.6,197.4,131.1,197.3,131.4,197.6z"/>
		<circle class="st38" cx="90.6" cy="171.5" r="1.3"/>
		<circle class="st38" cx="86.7" cy="171.8" r="0.9"/>
		<path class="st38" d="M88.1,174.3c0,0.4-0.3,0.8-0.8,0.8c-0.4,0-0.8-0.3-0.8-0.8s0.3-0.8,0.8-0.8
			C87.7,173.6,88.1,173.9,88.1,174.3z"/>
		<circle class="st38" cx="86.6" cy="176.2" r="0.5"/>
		<path class="st38" d="M84.4,176.2c0.2,0.1,0.3,0.3,0.3,0.5c-0.1,0.2-0.3,0.3-0.5,0.3c-0.2-0.1-0.3-0.3-0.3-0.5
			C84,176.2,84.2,176.1,84.4,176.2z"/>
		<path class="st38" d="M126,173.7c0,0.7-0.6,1.3-1.3,1.3c-0.7,0-1.3-0.6-1.3-1.3c0-0.7,0.6-1.3,1.3-1.3
			C125.4,172.4,126,173,126,173.7z"/>
		<path class="st38" d="M126.9,170.2c0,0.5-0.4,0.9-0.9,0.9s-0.9-0.4-0.9-0.9c0-0.5,0.4-0.9,0.9-0.9S126.9,169.7,126.9,170.2z"/>
		<circle class="st38" cx="128.6" cy="169.1" r="0.7"/>
		<circle class="st38" cx="130.7" cy="169.3" r="0.5"/>
		<path class="st38" d="M132,167.9c0,0.1-0.1,0.2-0.2,0.2c-0.1,0-0.2-0.1-0.2-0.2c0-0.1,0.1-0.2,0.2-0.2
			C131.9,167.6,132,167.7,132,167.9z"/>
	</g>
	<g>
		<polygon class="st1" points="239.1,105 233.8,101.9 234,100.7 239.3,103.8 		"/>
		<polygon class="st1" points="243.6,107.6 240.9,106.1 241.1,104.8 243.8,106.4 		"/>
		<polygon class="st1" points="240.1,108.7 237.9,107.4 238.1,106.2 240.3,107.5 		"/>
		<polygon class="st1" points="243.9,110.9 241.3,109.4 241.5,108.2 244.1,109.7 		"/>
		<polygon class="st1" points="247.8,116.3 237.4,110.3 237.6,109.1 248,115.1 		"/>
		<polygon class="st1" points="238.8,140.2 228.4,134.2 228.6,133 239,139 		"/>
		<polygon class="st1" points="242.8,142.5 240.1,141 240.3,139.7 243,141.3 		"/>
		<polygon class="st1" points="239.2,114.4 236.9,113.2 237.1,111.9 239.4,113.2 		"/>
		<polygon class="st1" points="242.9,116.6 240.3,115.1 240.5,113.9 243.1,115.4 		"/>
		<polygon class="st1" points="242.1,119.3 236.5,116 236.7,114.8 242.3,118.1 		"/>
		<polygon class="st1" points="246,121.5 243.3,120 243.5,118.8 246.2,120.3 		"/>
		<polygon class="st1" points="249.8,123.7 247.1,122.2 247.3,121 250,122.5 		"/>
		<polygon class="st1" points="256,127.3 251,124.4 251.2,123.2 256.2,126.1 		"/>
		<polygon class="st1" points="252,131.3 249.4,129.7 249.6,128.5 252.2,130 		"/>
		<polygon class="st1" points="258.2,134.8 253.2,131.9 253.4,130.7 258.4,133.6 		"/>
		<polygon class="st1" points="238.1,123.2 235.5,121.7 235.7,120.5 238.3,122 		"/>
		<polygon class="st1" points="242,125.4 239.3,123.9 239.5,122.7 242.2,124.2 		"/>
		<polygon class="st1" points="248.1,129 243.2,126.1 243.4,124.9 248.3,127.8 		"/>
		<polygon class="st1" points="256.2,130.6 253.6,129 253.8,127.8 256.4,129.3 		"/>
		<polygon class="st1" points="260.1,132.8 257.4,131.3 257.6,130 260.3,131.6 		"/>
		<polygon class="st1" points="266.2,136.3 261.3,133.5 261.5,132.2 266.4,135.1 		"/>
		<polygon class="st1" points="246.9,144.9 244.3,143.3 244.5,142.1 247.1,143.6 		"/>
		<polygon class="st1" points="253.1,148.4 248.1,145.5 248.3,144.3 253.3,147.2 		"/>
		<polygon class="st1" points="237.2,128.9 234.5,127.4 234.7,126.2 237.4,127.7 		"/>
		<polygon class="st1" points="243.3,132.5 238.4,129.6 238.6,128.4 243.6,131.3 		"/>
		<polygon class="st1" points="249.8,149.6 247.1,148.1 247.3,146.9 250,148.4 		"/>
		<polygon class="st1" points="255.9,153.2 251,150.3 251.2,149.1 256.1,152 		"/>
		<polygon class="st1" points="255.6,120.8 253,119.3 253.2,118.1 255.8,119.6 		"/>
		<polygon class="st1" points="251.7,118.5 249,117 249.2,115.8 251.9,117.3 		"/>
		<polygon class="st1" points="261.8,124.4 256.8,121.5 257,120.3 262,123.2 		"/>
		<polygon class="st1" points="238.3,120.2 236,118.9 236.2,117.6 238.6,119 		"/>
		<polygon class="st1" points="245.4,124.3 239.6,121 239.8,119.8 245.6,123.1 		"/>
		<polygon class="st1" points="252.4,128.4 246.7,125 246.9,123.8 252.6,127.2 		"/>
		<polygon class="st1" points="265.5,126.5 263.1,125.1 263.3,123.9 265.7,125.3 		"/>
		<polygon class="st1" points="272.5,130.6 266.7,127.2 266.9,126 272.7,129.4 		"/>
		<polygon class="st1" points="279.6,134.6 273.8,131.3 274,130.1 279.8,133.4 		"/>
		<polygon class="st1" points="240.8,127.9 235.1,124.6 235.3,123.4 241,126.7 		"/>
		<polygon class="st1" points="243.9,129.7 242.1,128.7 242.3,127.5 244.1,128.5 		"/>
		<polygon class="st1" points="246.9,131.5 245.2,130.4 245.4,129.2 247.1,130.2 		"/>
		<polygon class="st1" points="252.6,134.7 248.2,132.2 248.4,131 252.8,133.5 		"/>
		<polygon class="st1" points="258.9,129 257.1,127.9 257.3,126.7 259.1,127.8 		"/>
		<polygon class="st1" points="264.5,132.2 260.2,129.7 260.4,128.5 264.8,131 		"/>
		<polygon class="st1" points="265.7,132.9 261.4,130.4 261.6,129.2 265.9,131.7 		"/>
		<polygon class="st1" points="242.5,148.6 236.8,145.3 237,144.1 242.7,147.4 		"/>
		<polygon class="st1" points="246.3,150.8 243.7,149.3 243.9,148 246.5,149.6 		"/>
		<polygon class="st1" points="250.1,153 247.5,151.5 247.7,150.3 250.3,151.8 		"/>
		<polygon class="st1" points="256.3,156.6 251.3,153.7 251.5,152.5 256.5,155.3 		"/>
		<polygon class="st1" points="260.3,158.8 257.6,157.3 257.8,156.1 260.5,157.6 		"/>
		<polygon class="st1" points="266.4,162.4 261.5,159.5 261.7,158.3 266.6,161.2 		"/>
		<polygon class="st1" points="247.5,157.7 244.9,156.2 245.1,155 247.7,156.5 		"/>
		<polygon class="st1" points="253.7,161.3 248.7,158.4 248.9,157.2 253.9,160.1 		"/>
		<polygon class="st1" points="233.7,149.8 231.1,148.3 231.3,147 233.9,148.6 		"/>
		<polygon class="st1" points="237.6,152 234.9,150.5 235.1,149.3 237.8,150.8 		"/>
		<polygon class="st1" points="243.7,155.6 238.8,152.7 239,151.5 243.9,154.3 		"/>
		<polygon class="st1" points="238.7,149.5 236.3,148.2 236.5,146.9 238.9,148.3 		"/>
		<polygon class="st1" points="245.8,153.6 240,150.3 240.2,149 246,152.4 		"/>
		<polygon class="st1" points="252.8,157.7 247,154.3 247.2,153.1 253,156.4 		"/>
		<polygon class="st1" points="231.8,151.8 226,148.5 226.2,147.2 232,150.6 		"/>
		<polygon class="st1" points="234.8,153.6 233.1,152.5 233.3,151.3 235,152.3 		"/>
		<polygon class="st1" points="237.9,155.3 236.1,154.3 236.3,153.1 238.1,154.1 		"/>
		<polygon class="st1" points="243.5,158.6 239.2,156.1 239.4,154.8 243.7,157.4 		"/>
		<polygon class="st1" points="244.7,159.3 240.3,156.7 240.6,155.5 244.9,158 		"/>
		<polygon class="st1" points="234.4,140.8 232.6,139.7 232.8,138.5 234.6,139.6 		"/>
		<polygon class="st1" points="240,144 235.7,141.5 235.9,140.3 240.2,142.8 		"/>
		<polygon class="st1" points="245.8,147.4 241.4,144.8 241.6,143.6 246,146.1 		"/>
		<polygon class="st1" points="268,166.4 265.4,164.9 265.6,163.7 268.2,165.2 		"/>
		<polygon class="st1" points="274.2,170 269.2,167.1 269.4,165.9 274.4,168.8 		"/>
		<polygon class="st1" points="258.3,160.8 253.9,158.3 254.1,157.1 258.5,159.6 		"/>
		<polygon class="st1" points="264,164.2 259.7,161.6 259.9,160.4 264.2,162.9 		"/>
		<polygon class="st1" points="231.3,128.7 229.5,127.7 229.7,126.5 231.5,127.5 		"/>
		<polygon class="st1" points="236.9,132 232.6,129.4 232.8,128.2 237.2,130.7 		"/>
		<polygon class="st1" points="242.7,135.3 238.3,132.8 238.6,131.5 242.9,134.1 		"/>
	</g>
	<g>
		<path class="st21" d="M344.9,208.3c0-0.4,0.4-0.8,0.8-0.8c0.4,0,0.8,0.4,0.8,0.8c0,0.4-0.4,0.8-0.8,0.8
			C345.3,209.1,344.9,208.8,344.9,208.3z"/>
		<path class="st21" d="M358.9,244.9c0-0.4,0.4-0.8,0.8-0.8c0.4,0,0.8,0.4,0.8,0.8s-0.4,0.8-0.8,0.8
			C359.2,245.7,358.9,245.4,358.9,244.9z"/>
		<circle class="st21" cx="358.5" cy="217.6" r="1.2"/>
		<circle class="st38" cx="360.3" cy="197.4" r="0.8"/>
		<path class="st38" d="M347.6,231.1c0-0.7,0.6-1.3,1.3-1.3c0.7,0,1.3,0.6,1.3,1.3c0,0.7-0.6,1.3-1.3,1.3
			C348.2,232.4,347.6,231.8,347.6,231.1z"/>
		<circle class="st38" cx="349.4" cy="227" r="0.9"/>
	</g>
	<path class="st1" d="M310.1,167c-0.3,0-0.6-0.1-0.9-0.2l-24.1-13.9c-1-0.6-1.6-2-1.4-3.2l1.5-9.2c0.1-0.6,0.4-1.1,0.9-1.4
		c0.4-0.2,0.9-0.2,1.4,0.1l24.1,13.9c1,0.6,1.6,2,1.4,3.2l-1.5,9.2c-0.1,0.6-0.4,1.1-0.9,1.4C310.5,166.9,310.3,167,310.1,167z
		 M286.7,139.3c-0.1,0-0.3,0-0.4,0.1c-0.3,0.2-0.6,0.5-0.7,1l-1.5,9.2c-0.2,1.1,0.4,2.3,1.2,2.8l24.1,13.9c0.4,0.2,0.7,0.2,1,0.1
		c0.3-0.2,0.6-0.5,0.7-1l1.5-9.2c0.2-1.1-0.4-2.3-1.2-2.8l-24.1-13.9C287.1,139.3,286.9,139.3,286.7,139.3z"/>
	<path class="st1" d="M307.4,182.8c-0.3,0-0.6-0.1-0.9-0.2l-24.1-13.9c-1-0.6-1.6-2-1.4-3.2l1.5-9.2c0.1-0.6,0.4-1.1,0.9-1.4
		c0.4-0.2,0.9-0.2,1.4,0.1l24.1,13.9c1,0.6,1.6,2,1.4,3.2l-1.5,9.2c-0.1,0.6-0.4,1.1-0.9,1.4C307.8,182.8,307.6,182.8,307.4,182.8z
		 M284,155.1c-0.1,0-0.3,0-0.4,0.1c-0.3,0.2-0.6,0.5-0.7,1l-1.5,9.2c-0.2,1.1,0.4,2.3,1.2,2.8l24.1,13.9c0.4,0.2,0.7,0.2,1,0.1
		c0.3-0.2,0.6-0.5,0.7-1l1.5-9.2c0.2-1.1-0.4-2.3-1.2-2.8l-24.1-13.9C284.5,155.2,284.2,155.1,284,155.1z"/>
	<linearGradient id="SVGID_42_" gradientUnits="userSpaceOnUse" x1="289.1321" y1="149.0801" x2="323.8207" y2="163.9205">
		<stop  offset="0" style="stop-color:#42E8E0"/>
		<stop  offset="0.1055" style="stop-color:#37B6BF"/>
		<stop  offset="0.2197" style="stop-color:#2C87A1"/>
		<stop  offset="0.338" style="stop-color:#235F87"/>
		<stop  offset="0.4587" style="stop-color:#1C3F72"/>
		<stop  offset="0.5824" style="stop-color:#162561"/>
		<stop  offset="0.7105" style="stop-color:#121355"/>
		<stop  offset="0.8458" style="stop-color:#10084E"/>
		<stop  offset="1" style="stop-color:#0F054C"/>
	</linearGradient>
	<path class="st39" d="M287.3,151.8c0.4,0.2,0.8,0.2,0.9-0.2l2.8-7.7c0.3-0.9,1.6-0.1,1.9,1.2l1.7,7.7c0.1,0.6,0.5,1.1,1,1.4
		l0.4,0.2c0.4,0.2,0.8,0.2,0.9-0.2l0.6-1.2c0.4-0.8,1.5,0,1.9,1.1l0,0c0.1,0.5,0.5,1,0.9,1.3l0.4,0.2c0.4,0.3,0.8,0.1,1-0.3l0.5-1.6
		c0.3-0.9,1.6-0.2,1.9,1.1l1.7,7.2c0.1,0.6,0.5,1.1,1,1.4L287.3,151.8z"/>
	<path class="st1" d="M303.8,179.2c-0.5-0.3-0.9-0.9-1.1-1.5l-1.7-7.2c-0.2-0.8-0.8-1.3-1.2-1.3c-0.1,0-0.2,0-0.3,0.3l-0.5,1.6
		c-0.1,0.2-0.2,0.4-0.4,0.5c-0.2,0.1-0.5,0-0.8-0.1l-0.4-0.2c-0.5-0.3-0.9-0.8-1-1.4c-0.2-0.7-0.8-1.2-1.2-1.3c-0.2,0-0.3,0-0.3,0.2
		l-0.6,1.2c-0.1,0.2-0.2,0.3-0.4,0.4c-0.2,0.1-0.5,0-0.8-0.1l-0.4-0.2c-0.5-0.3-0.9-0.9-1.1-1.5l-1.7-7.7c-0.2-0.7-0.8-1.3-1.2-1.4
		c-0.2,0-0.3,0.1-0.3,0.2l-2.8,7.7c-0.1,0.2-0.2,0.4-0.4,0.5c-0.2,0.1-0.5,0-0.8-0.1l0.2-0.4c0.2,0.1,0.3,0.1,0.5,0.1
		c0.1,0,0.1-0.1,0.2-0.2l2.8-7.7c0.1-0.3,0.4-0.5,0.7-0.5c0.6,0,1.4,0.7,1.6,1.7l1.7,7.7c0.1,0.5,0.5,1,0.9,1.3l0.4,0.2
		c0.2,0.1,0.3,0.1,0.4,0.1c0.1,0,0.1-0.1,0.2-0.2l0.6-1.2c0.1-0.3,0.4-0.5,0.7-0.4c0.6,0.1,1.3,0.7,1.5,1.6c0.1,0.5,0.5,1,0.8,1.2
		l0.4,0.2c0.2,0.1,0.3,0.1,0.5,0.1c0.1,0,0.2-0.1,0.2-0.2l0.5-1.6c0.1-0.4,0.4-0.5,0.7-0.5c0.6,0,1.4,0.7,1.6,1.7l1.7,7.2
		c0.1,0.5,0.5,1,0.9,1.2L303.8,179.2z"/>
</g>
</svg>
