<?xml version="1.0" encoding="utf-8"?>
<!-- Generator: Adobe Illustrator 24.2.3, SVG Export Plug-In . SVG Version: 6.00 Build 0)  -->
<svg version="1.1" id="Layer_1" xmlns="http://www.w3.org/2000/svg" xmlns:xlink="http://www.w3.org/1999/xlink" x="0px" y="0px"
	 viewBox="0 0 500 500" style="enable-background:new 0 0 500 500;" xml:space="preserve">
<style type="text/css">
	.st0{fill-rule:evenodd;clip-rule:evenodd;fill:#FFFFFF;}
	.st1{opacity:0.35;fill-rule:evenodd;clip-rule:evenodd;fill:#61C3AC;}
	.st2{fill-rule:evenodd;clip-rule:evenodd;fill:url(#SVGID_1_);}
	.st3{fill-rule:evenodd;clip-rule:evenodd;fill:url(#SVGID_2_);}
	.st4{fill-rule:evenodd;clip-rule:evenodd;fill:url(#SVGID_3_);}
	.st5{fill-rule:evenodd;clip-rule:evenodd;fill:#6199D1;}
	.st6{fill-rule:evenodd;clip-rule:evenodd;fill:#5468B0;}
	.st7{opacity:0.5;fill-rule:evenodd;clip-rule:evenodd;fill:#485EAB;}
	.st8{fill-rule:evenodd;clip-rule:evenodd;fill:#7BB2E0;}
	.st9{fill-rule:evenodd;clip-rule:evenodd;fill:#70CDDD;}
	.st10{opacity:0.5;fill-rule:evenodd;clip-rule:evenodd;fill:url(#SVGID_4_);}
	.st11{fill-rule:evenodd;clip-rule:evenodd;fill:#E6ECF8;}
	.st12{fill-rule:evenodd;clip-rule:evenodd;fill:#D2E5F6;}
	.st13{opacity:0.5;fill-rule:evenodd;clip-rule:evenodd;fill:#FFFFFF;}
	.st14{fill-rule:evenodd;clip-rule:evenodd;fill:#47C7EF;}
	.st15{fill-rule:evenodd;clip-rule:evenodd;fill:#33A0DA;}
	.st16{fill-rule:evenodd;clip-rule:evenodd;fill:#4685C6;}
	.st17{opacity:0.5;fill-rule:evenodd;clip-rule:evenodd;fill:url(#SVGID_5_);}
	.st18{fill-rule:evenodd;clip-rule:evenodd;fill:#D1E5F6;}
	.st19{fill-rule:evenodd;clip-rule:evenodd;fill:url(#SVGID_6_);}
	.st20{opacity:0.5;fill-rule:evenodd;clip-rule:evenodd;fill:url(#SVGID_7_);}
	.st21{fill-rule:evenodd;clip-rule:evenodd;fill:url(#SVGID_8_);}
	.st22{opacity:0.5;fill-rule:evenodd;clip-rule:evenodd;fill:url(#SVGID_9_);}
	.st23{fill-rule:evenodd;clip-rule:evenodd;fill:url(#SVGID_10_);}
	.st24{opacity:0.5;fill-rule:evenodd;clip-rule:evenodd;fill:url(#SVGID_11_);}
	.st25{fill-rule:evenodd;clip-rule:evenodd;fill:url(#SVGID_12_);}
	.st26{opacity:0.25;fill-rule:evenodd;clip-rule:evenodd;fill:#6669B0;}
	.st27{fill-rule:evenodd;clip-rule:evenodd;fill:#6098D1;}
	.st28{opacity:0.5;fill-rule:evenodd;clip-rule:evenodd;fill:#5067B0;}
	.st29{opacity:0.5;fill-rule:evenodd;clip-rule:evenodd;fill:url(#SVGID_13_);}
	.st30{fill-rule:evenodd;clip-rule:evenodd;fill:url(#SVGID_14_);}
	.st31{opacity:0.2;fill-rule:evenodd;clip-rule:evenodd;fill:#6669B0;}
	.st32{fill-rule:evenodd;clip-rule:evenodd;fill:url(#SVGID_15_);}
	.st33{fill-rule:evenodd;clip-rule:evenodd;fill:#F8A598;}
	.st34{fill-rule:evenodd;clip-rule:evenodd;fill:url(#SVGID_16_);}
	.st35{fill-rule:evenodd;clip-rule:evenodd;fill:url(#SVGID_17_);}
	.st36{fill-rule:evenodd;clip-rule:evenodd;fill:url(#SVGID_18_);}
	.st37{opacity:0.35;fill-rule:evenodd;clip-rule:evenodd;fill:#3D6AB3;}
	.st38{fill-rule:evenodd;clip-rule:evenodd;fill:#1D3261;}
	.st39{fill-rule:evenodd;clip-rule:evenodd;fill:url(#SVGID_19_);}
	.st40{opacity:0.3;fill-rule:evenodd;clip-rule:evenodd;fill:#1E2453;}
	.st41{fill-rule:evenodd;clip-rule:evenodd;fill:url(#SVGID_20_);}
	.st42{fill-rule:evenodd;clip-rule:evenodd;fill:url(#SVGID_21_);}
	.st43{fill-rule:evenodd;clip-rule:evenodd;fill:#7AB2E0;}
	.st44{fill-rule:evenodd;clip-rule:evenodd;fill:url(#SVGID_22_);}
	.st45{fill-rule:evenodd;clip-rule:evenodd;fill:url(#SVGID_23_);}
	.st46{fill-rule:evenodd;clip-rule:evenodd;fill:url(#SVGID_24_);}
	.st47{fill-rule:evenodd;clip-rule:evenodd;fill:url(#SVGID_25_);}
	.st48{fill-rule:evenodd;clip-rule:evenodd;fill:#562F65;}
	.st49{fill-rule:evenodd;clip-rule:evenodd;fill:url(#SVGID_26_);}
	.st50{fill-rule:evenodd;clip-rule:evenodd;fill:url(#SVGID_27_);}
	.st51{fill-rule:evenodd;clip-rule:evenodd;fill:#24093D;}
	.st52{fill-rule:evenodd;clip-rule:evenodd;fill:url(#SVGID_28_);}
	.st53{fill-rule:evenodd;clip-rule:evenodd;fill:url(#SVGID_29_);}
	.st54{fill-rule:evenodd;clip-rule:evenodd;fill:#282966;}
	.st55{fill-rule:evenodd;clip-rule:evenodd;fill:url(#SVGID_30_);}
	.st56{fill-rule:evenodd;clip-rule:evenodd;fill:url(#SVGID_31_);}
	.st57{fill-rule:evenodd;clip-rule:evenodd;fill:url(#SVGID_32_);}
	.st58{fill-rule:evenodd;clip-rule:evenodd;fill:url(#SVGID_33_);}
	.st59{fill-rule:evenodd;clip-rule:evenodd;fill:url(#SVGID_34_);}
	.st60{fill-rule:evenodd;clip-rule:evenodd;fill:url(#SVGID_35_);}
	.st61{fill-rule:evenodd;clip-rule:evenodd;fill:url(#SVGID_36_);}
	.st62{fill-rule:evenodd;clip-rule:evenodd;fill:#F58E80;}
</style>
<g>
	<g>
		<g>
			<path class="st0" d="M340.3,374.3l-1.2,2.1l-4.3-2.4l1.2-2.1L340.3,374.3L340.3,374.3z M305.7,100.6l2.8,1.6l1.2-2.1l-2.8-1.6
				L305.7,100.6L305.7,100.6z M310.7,103.4l1.2-2.1l4.3,2.4l-1.2,2.1L310.7,103.4L310.7,103.4z M317.1,107l1.2-2.1l4.3,2.4l-1.2,2.1
				L317.1,107L317.1,107z M323.5,110.5l1.2-2.1l4.3,2.4l-1.2,2.1L323.5,110.5L323.5,110.5z M329.9,114.1l1.2-2.1l4.3,2.4l-1.2,2.1
				L329.9,114.1L329.9,114.1z M336.3,117.7l1.2-2.1l4.3,2.4l-1.2,2.1L336.3,117.7L336.3,117.7z M342.7,121.2l1.2-2.1l4.3,2.4
				l-1.2,2.1L342.7,121.2L342.7,121.2z M349.2,124.8l1.2-2.1l4.3,2.4l-1.2,2.1L349.2,124.8L349.2,124.8z M355.6,128.4l1.2-2.1
				l4.3,2.4l-1.2,2.1L355.6,128.4L355.6,128.4z M362,132l1.2-2.1l4.3,2.4l-1.2,2.1L362,132L362,132z M368.4,135.5l1.2-2.1l4.3,2.4
				l-1.2,2.1L368.4,135.5L368.4,135.5z M374.8,139.1l1.2-2.1l4.3,2.4l-1.2,2.1L374.8,139.1L374.8,139.1z M381.3,142.7l1.2-2.1
				l4.3,2.4l-1.2,2.1L381.3,142.7L381.3,142.7z M387.7,146.2l1.2-2.1l4.3,2.4l-1.2,2.1L387.7,146.2L387.7,146.2z M394.1,149.8
				l1.2-2.1l4.3,2.4l-1.2,2.1L394.1,149.8L394.1,149.8z M400.4,153.3c1.2,0.9,2.2,2,3.1,3.2l2-1.4c-1-1.5-2.2-2.8-3.7-3.8
				L400.4,153.3L400.4,153.3z M404.5,158.5c0.6,1.4,1.1,2.8,1.3,4.3l0,0l2.4-0.3c-0.3-1.8-0.8-3.4-1.5-5L404.5,158.5L404.5,158.5z
				 M406,165.1c-0.1,1.5-0.4,3.3-0.6,4.7l2.4,0.4c0.2-1.5,0.6-3.4,0.6-5L406,165.1L406,165.1z M405,172.2l2.4,0.4l-0.7,4.8l-2.4-0.4
				L405,172.2L405,172.2z M403.9,179.5l2.4,0.4l-0.7,4.8l-2.4-0.4L403.9,179.5L403.9,179.5z M402.8,186.7l2.4,0.4l-0.7,4.8l-2.4-0.4
				L402.8,186.7L402.8,186.7z M401.8,194l2.4,0.4l-0.7,4.8l-2.4-0.4L401.8,194L401.8,194z M400.7,201.3l2.4,0.4l-0.7,4.8l-2.4-0.4
				L400.7,201.3L400.7,201.3z M399.7,208.5l2.4,0.4l-0.7,4.8l-2.4-0.4L399.7,208.5L399.7,208.5z M398.6,215.8l2.4,0.4l-0.7,4.8
				l-2.4-0.4L398.6,215.8L398.6,215.8z M397.5,223.1l2.4,0.4l-0.7,4.8l-2.4-0.4L397.5,223.1L397.5,223.1z M396.5,230.3l2.4,0.4
				l-0.7,4.8l-2.4-0.4L396.5,230.3L396.5,230.3z M395.4,237.6l2.4,0.4l-0.7,4.8l-2.4-0.4L395.4,237.6L395.4,237.6z M394.3,244.9
				l2.4,0.4l-0.7,4.8l-2.4-0.4L394.3,244.9L394.3,244.9z M393.3,252.1l2.4,0.4l-0.7,4.8l-2.4-0.4L393.3,252.1L393.3,252.1z
				 M392.2,259.4l2.4,0.4l-0.7,4.8l-2.4-0.4L392.2,259.4L392.2,259.4z M391.1,266.7l2.4,0.4l-0.7,4.8l-2.4-0.4L391.1,266.7
				L391.1,266.7z M390.1,273.9l2.4,0.4l-0.7,4.8l-2.4-0.4L390.1,273.9L390.1,273.9z M389,281.2l2.4,0.4l-0.7,4.8l-2.4-0.4L389,281.2
				L389,281.2z M387.9,288.5l2.4,0.4l-0.7,4.8l-2.4-0.4L387.9,288.5L387.9,288.5z M386.9,295.7l2.4,0.4l-0.7,4.8l-2.4-0.4
				L386.9,295.7L386.9,295.7z M385.8,303l2.4,0.4l-0.7,4.8l-2.4-0.4L385.8,303L385.8,303z M384.7,310.3l2.4,0.4l-0.7,4.8l-2.4-0.4
				L384.7,310.3L384.7,310.3z M383.7,317.5l2.4,0.4l-0.7,4.8l-2.4-0.4L383.7,317.5L383.7,317.5z M382.6,324.8l2.4,0.4l-0.7,4.8
				l-2.4-0.4L382.6,324.8L382.6,324.8z M381.6,332.1l2.4,0.4l-0.7,4.8l-2.4-0.4L381.6,332.1L381.6,332.1z M380.5,339.3l2.4,0.4
				l-0.7,4.8l-2.4-0.4L380.5,339.3L380.5,339.3z M379.4,346.6l2.4,0.4l-0.7,4.8l-2.4-0.4L379.4,346.6L379.4,346.6z M378.4,353.9
				l2.4,0.4l-0.7,4.8l-2.4-0.4L378.4,353.9L378.4,353.9z M377.3,361.1l2.4,0.4l-0.7,4.8l-2.4-0.4L377.3,361.1L377.3,361.1z
				 M376.2,368.4l2.4,0.4l-0.7,4.8l-2.4-0.4L376.2,368.4L376.2,368.4z M375.2,375.7l2.4,0.4l-0.7,4.8l-2.4-0.4L375.2,375.7
				L375.2,375.7z M374.1,382.9l2.4,0.4l-0.2,1.1c-0.2,1.4-0.6,2.8-1.4,4l-2.1-1.3c0.6-0.9,0.9-2,1-3.1L374.1,382.9L374.1,382.9z
				 M371.6,388.6c-1.1,0.8-2.4,1-3.7,0.8l-0.5,2.4c2,0.4,4,0,5.6-1.2L371.6,388.6L371.6,388.6z M366,388.6l-1.2,2.1l-4.3-2.4
				l1.2-2.1L366,388.6L366,388.6z M359.5,385.1l-1.2,2.1l-4.3-2.4l1.2-2.1L359.5,385.1L359.5,385.1z M353.1,381.5l-1.2,2.1l-4.3-2.4
				l1.2-2.1L353.1,381.5L353.1,381.5z M346.7,377.9l-1.2,2.1l-4.3-2.4l1.2-2.1L346.7,377.9z"/>
			<g>
				<g>
					<path class="st1" d="M279.6,70.1c2.2,1.2,3.5,2.7,5,4.7c0-0.4,0,1,0-1.1c0-2-1.2-5.3,0.4-7c0.6-0.7,3.7-1.8,4.4-2
						c1.4-0.4,3.1-0.1,4.8,0.8c2.7,1.5,5.1,4.3,6.8,7.7c1.8,3.4,2.8,9.1,2.8,11.2c0,2.1,0,0.7,0,1.1c1.5-0.4,2.8-0.4,5.1,0.8
						c2.3,1.3,5.2,4.4,7,7.9c1.8,3.5,2.9,7.6,2.9,11.3c0,3-0.7,5.3-1.8,6.9c-1.2,1.6-3.4,2.6-5,3.1c-4.6,1.6-13.3-7.6-18-10.3
						c-4.9-2.8-9.8-5.5-14.7-8.3c-2.7-1.5-5-4.4-6.7-7.8C271,85.9,270,82,270,78.3c0-2.2-1.6-5.4,0.5-7
						C273.7,68.9,277.1,68.7,279.6,70.1z"/>
					<linearGradient id="SVGID_1_" gradientUnits="userSpaceOnUse" x1="278.9825" y1="56.8922" x2="296.6656" y2="106.5762">
						<stop  offset="0" style="stop-color:#E894BF"/>
						<stop  offset="1" style="stop-color:#7A6DB2"/>
					</linearGradient>
					<path class="st2" d="M277.1,71.3c2.2,1.2,3.5,2.7,5,4.7c0-0.4,0,1,0-1.1c0-2,1.1-6.5,2.9-7.9c1.7-1.5,4.2-1.7,6.8-0.2
						c2.7,1.5,5.1,4.3,6.8,7.7c1.8,3.4,2.8,9.1,2.8,11.2c0,2.1,0,0.7,0,1.1c1.5-0.4,2.8-0.4,5.1,0.8c2.3,1.3,5.2,4.4,7,7.9
						c1.8,3.5,2.9,7.5,2.9,11.3c0,3.8-1.1,6.7-2.9,8.1c-1.8,1.5-4.3,1.6-7,0.1c-5-2.8-9.9-5.6-14.9-8.4c-4.9-2.8-9.8-5.5-14.7-8.3
						c-2.7-1.5-5-4.4-6.7-7.8c-1.7-3.4-2.7-7.4-2.7-11.1c0-3.7,1.1-6.4,2.9-7.9C272,70,274.8,70,277.1,71.3z"/>
				</g>
				<g>
					<polygon class="st0" points="282.2,89.6 277.6,87 284.8,99.4 292,95.3 287.5,92.6 287.5,80.9 282.2,77.9 					"/>
					<polygon class="st0" points="298,94.7 302.6,97.3 295.4,84.9 288.2,89 292.7,91.6 292.7,103.3 298,106.4 					"/>
				</g>
			</g>
			<path class="st0" d="M161.9,104.4l1-1.9l3.7,2.1l-1,1.9L161.9,104.4L161.9,104.4z M167.4,279l-2.8-1.6l-1,1.9l2.8,1.6L167.4,279
				L167.4,279z M162.7,276.4l-1,1.9l-3.7-2.1l1-1.9L162.7,276.4L162.7,276.4z M157.1,273.3l-1,1.9l-3.7-2.1l1-1.9L157.1,273.3
				L157.1,273.3z M151.5,270.2l-1,1.9l-3.7-2.1l1-1.9L151.5,270.2L151.5,270.2z M145.9,267.1l-1,1.9l-3.7-2.1l1-1.9L145.9,267.1
				L145.9,267.1z M140.3,264l-1,1.9l-3.7-2.1l1-1.9L140.3,264L140.3,264z M134.7,260.8l-1,1.9l-1.9-1.1c-0.7-0.4-1.3-0.9-1.9-1.4
				l1.5-1.5c0.4,0.4,0.9,0.8,1.4,1.1L134.7,260.8L134.7,260.8z M130.2,257.2c-0.7-1.1-1.2-2.3-1.4-3.6l-2.1,0.4
				c0.3,1.5,0.9,3,1.7,4.3L130.2,257.2L130.2,257.2z M128.7,251.8c0.1-1.4,0.4-2.8,0.6-4.1l-2.1-0.3c-0.2,1.3-0.5,2.9-0.6,4.3
				L128.7,251.8L128.7,251.8z M129.5,245.5l-2.1-0.3l0.6-4.2l2.1,0.3L129.5,245.5L129.5,245.5z M130.5,239.2l-2.1-0.3l0.6-4.2
				l2.1,0.3L130.5,239.2L130.5,239.2z M131.4,232.9l-2.1-0.3l0.6-4.2l2.1,0.3L131.4,232.9L131.4,232.9z M132.3,226.5l-2.1-0.3
				l0.6-4.2l2.1,0.3L132.3,226.5L132.3,226.5z M133.2,220.2l-2.1-0.3l0.6-4.2l2.1,0.3L133.2,220.2L133.2,220.2z M134.2,213.9
				l-2.1-0.3l0.6-4.2l2.1,0.3L134.2,213.9L134.2,213.9z M135.1,207.5l-2.1-0.3l0.6-4.2l2.1,0.3L135.1,207.5L135.1,207.5z M136,201.2
				l-2.1-0.3l0.6-4.2l2.1,0.3L136,201.2L136,201.2z M137,194.8l-2.1-0.3l0.6-4.2l2.1,0.3L137,194.8L137,194.8z M137.9,188.5
				l-2.1-0.3l0.6-4.2l2.1,0.3L137.9,188.5L137.9,188.5z M138.8,182.2l-2.1-0.3l0.6-4.2l2.1,0.3L138.8,182.2L138.8,182.2z
				 M139.7,175.8l-2.1-0.3l0.6-4.2l2.1,0.3L139.7,175.8L139.7,175.8z M140.7,169.5l-2.1-0.3l0.6-4.2l2.1,0.3L140.7,169.5
				L140.7,169.5z M141.6,163.2l-2.1-0.3l0.6-4.2l2.1,0.3L141.6,163.2L141.6,163.2z M142.5,156.8l-2.1-0.3l0.6-4.2l2.1,0.3
				L142.5,156.8L142.5,156.8z M143.4,150.5l-2.1-0.3l0.6-4.2l2.1,0.3L143.4,150.5L143.4,150.5z M144.4,144.2l-2.1-0.3l0.6-4.2
				l2.1,0.3L144.4,144.2L144.4,144.2z M145.3,137.8l-2.1-0.3l0.6-4.2l2.1,0.3L145.3,137.8L145.3,137.8z M146.2,131.5l-2.1-0.3
				l0.6-4.2l2.1,0.3L146.2,131.5L146.2,131.5z M147.2,125.1l-2.1-0.3l0.6-4.2l2.1,0.3L147.2,125.1L147.2,125.1z M148.1,118.8
				l-2.1-0.3l0.6-4.2l2.1,0.3L148.1,118.8L148.1,118.8z M149,112.5l-2.1-0.3l0.6-4.2l2.1,0.3L149,112.5L149,112.5z M149.9,106.1
				l-2.1-0.3c0.2-1.3,0.3-3.1,0.9-4.4l2,0.8C150.2,103.3,150.1,105.2,149.9,106.1L149.9,106.1z M151.6,100.9
				c0.8-0.7,1.9-0.9,2.9-0.5l0.7-2c-1.8-0.6-3.7-0.3-5.1,0.9L151.6,100.9L151.6,100.9z M156.3,101.2l1-1.9l3.7,2.1l-1,1.9
				L156.3,101.2z"/>
		</g>
		<path class="st1" d="M327.9,399.2l-129.3-71.5c-3.2-1.4-7.8-2.8-10.9-0.9l-8,4.9c-1.6,1-6.9,4.2-3.3,6.1
			c10.4,5.6,120.4,67,130.9,72.7c2,1.1,4.9,1.5,8,1.2c3-0.3,6.2-1.1,8.6-2.6l3.2-2c2.2-1.4,3.5-2.9,3.6-4.4
			C330.8,401.4,329.9,400.1,327.9,399.2z"/>
		<g>
			<g>
				<g>
					<linearGradient id="SVGID_2_" gradientUnits="userSpaceOnUse" x1="289.8763" y1="175.2335" x2="239.78" y2="363.48">
						<stop  offset="0" style="stop-color:#D2E6F7"/>
						<stop  offset="1" style="stop-color:#EBEEF8"/>
					</linearGradient>
					<path class="st3" d="M231,78.4c-1.9-1.1-4-1.5-6.1-0.7l-4.6,1.8c-1.7,8.6,94.8,323.8,96.9,326l4.1-1.5c2.7-1.1,4.1-3.8,4.5-6.6
						L360.2,162c0,0,0,0,0,0c0.6-4-0.6-8.1-2.8-11.4c-1.2-1.8-2.7-3.4-4.6-4.4L231,78.4z"/>
					<linearGradient id="SVGID_3_" gradientUnits="userSpaceOnUse" x1="323.4247" y1="273.0619" x2="150.1942" y2="176.7816">
						<stop  offset="0" style="stop-color:#6569B0"/>
						<stop  offset="1" style="stop-color:#55ACE0"/>
					</linearGradient>
					<path class="st4" d="M348.3,147.9L226.5,80.1c-5-2.8-9.7-0.1-10.6,5.9l-34.5,235.4c-0.9,6,2.4,13.1,7.4,15.8L310.6,405
						c5,2.8,9.7,0.1,10.6-5.9l34.5-235.4C356.6,157.7,353.3,150.6,348.3,147.9z"/>
				</g>
				<g>
					<path class="st5" d="M348.3,147.9L226.5,80.1c-5-2.8-9.7-0.1-10.6,5.9l-1.8,12.1l139.8,77.8l1.8-12.1
						C356.6,157.7,353.3,150.6,348.3,147.9z"/>
					<g>
						<path class="st6" d="M225.4,96.8c-1.6-1.3-2.5-4-2.1-6c0.4-2,2-2.6,3.6-1.3c1.6,1.3,2.5,4,2.1,6
							C228.6,97.5,227,98.1,225.4,96.8z"/>
						<path class="st6" d="M235.4,102.9c-1.6-1.3-2.5-4-2.1-6c0.4-2,2-2.6,3.6-1.3c1.6,1.3,2.5,4,2.1,6
							C238.6,103.6,237,104.2,235.4,102.9z"/>
						<path class="st6" d="M245.4,108.9c-1.6-1.3-2.5-4-2.1-6c0.4-2,2-2.6,3.6-1.3c1.6,1.3,2.5,4,2.1,6
							C248.5,109.6,246.9,110.2,245.4,108.9z"/>
					</g>
				</g>
			</g>
			<g>
				<path class="st7" d="M341,205c-0.5-0.3-1.1,0-1.2,0.6c-0.1,0.7,0.3,1.5,0.8,1.8c0.6,0.3,1.1,0,1.2-0.7
					C341.9,206.1,341.5,205.3,341,205L341,205z M202.4,237l0.9,0.5l10-68l-0.9-0.5L202.4,237L202.4,237z M213.3,165.9
					c-0.5-0.3-1.1,0-1.2,0.7c-0.1,0.7,0.3,1.4,0.8,1.7c0.6,0.3,1.1,0,1.2-0.6C214.2,167,213.9,166.2,213.3,165.9L213.3,165.9z
					 M217.3,248.8l0.9,0.5l10-68l-0.9-0.5L217.3,248.8L217.3,248.8z M228.2,177.7c-0.5-0.3-1.1,0-1.2,0.7c-0.1,0.7,0.3,1.4,0.8,1.7
					c0.6,0.3,1.1,0,1.2-0.6C229.2,178.8,228.8,178,228.2,177.7L228.2,177.7z M235.1,241.1l1,0.5l10-68l-1-0.5L235.1,241.1
					L235.1,241.1z M246.1,170c-0.6-0.3-1.1,0-1.2,0.7c-0.1,0.7,0.3,1.4,0.8,1.8c0.5,0.3,1.1,0,1.2-0.7
					C247,171.1,246.6,170.3,246.1,170L246.1,170z M252.9,233.4l0.9,0.5l10-68l-0.9-0.5L252.9,233.4L252.9,233.4z M263.9,162.3
					c-0.6-0.3-1.1,0-1.2,0.7c-0.1,0.6,0.3,1.4,0.8,1.7c0.6,0.3,1.1,0,1.2-0.6C264.8,163.4,264.4,162.6,263.9,162.3L263.9,162.3z
					 M268.8,238.7l0.9,0.5l10-68l-0.9-0.5L268.8,238.7L268.8,238.7z M279.8,167.6c-0.5-0.3-1.1,0-1.2,0.7c-0.1,0.7,0.3,1.4,0.8,1.7
					c0.6,0.3,1.1,0,1.2-0.6C280.7,168.7,280.3,167.9,279.8,167.6L279.8,167.6z M283.3,253.8l1,0.5l10-68l-1-0.5L283.3,253.8
					L283.3,253.8z M294.2,182.7c-0.5-0.3-1.1,0-1.2,0.7c-0.1,0.6,0.3,1.4,0.8,1.7c0.6,0.3,1.1,0,1.2-0.6
					C295.1,183.8,294.8,183,294.2,182.7L294.2,182.7z M297.3,272l0.9,0.5l10-68l-0.9-0.5L297.3,272L297.3,272z M308.2,201
					c-0.6-0.3-1.1,0-1.2,0.7c-0.1,0.7,0.3,1.4,0.8,1.8c0.5,0.3,1.1,0,1.2-0.6C309.1,202,308.8,201.3,308.2,201L308.2,201z
					 M312.3,283.7l0.9,0.5l10-68l-0.9-0.5L312.3,283.7L312.3,283.7z M323.2,212.7c-0.5-0.3-1.1,0-1.2,0.6c-0.1,0.7,0.3,1.5,0.8,1.8
					c0.6,0.3,1.1,0,1.2-0.7C324.1,213.7,323.7,213,323.2,212.7L323.2,212.7z M330.1,276.1l1,0.5l10-68l-1-0.5L330.1,276.1z"/>
				<path class="st7" d="M346.9,211.7c-0.2-0.3-0.4-0.5-0.6-0.7c-0.3-0.2-0.6-0.2-0.9,0c-2.3,1.8-4.4,3.3-6.4,4.7
					c-2,1.3-3.8,2.5-5.5,3.4c-7.9,4.3-13.7,4.6-19.3,1.5c-5.5-3.2-10.9-9.9-17.8-19.4c-7.8-10.6-14.7-17.8-21.6-21.6
					c-1-0.6-2-1.1-3.1-1.5c-8-3.3-16.1-2.1-25.8,3.3c-1,0.5-2,1.1-3,1.7c-7.5,4.3-14.5,8.4-22.1,4.2c-3.9-2.2-8-6.6-12.4-14.4
					c-0.2-0.3-0.4-0.5-0.6-0.7c-0.3-0.2-0.7-0.2-0.9,0c-0.4,0.4-0.5,1.2-0.1,1.9c4.9,8.7,9.4,13.6,13.7,16
					c8.2,4.5,15.6,0.2,23.6-4.4c1-0.6,2-1.1,3-1.7c9.3-5.2,17-6.3,24.4-3.3c0.9,0.4,1.8,0.8,2.8,1.3c6.5,3.6,13.1,10.5,20.7,20.7
					c7.2,9.8,12.8,16.8,18.8,20.2c0.1,0.1,0.2,0.1,0.3,0.2c6,3.3,12.2,3,20.6-1.6c1.7-1,3.6-2.1,5.6-3.5c2-1.4,4.2-2.9,6.5-4.7
					C347.3,213.2,347.3,212.4,346.9,211.7z"/>
				<path class="st8" d="M345.6,206.7c-0.2-0.3-0.4-0.5-0.6-0.7c-0.3-0.2-0.6-0.2-0.9,0c-2.3,1.8-4.4,3.4-6.4,4.7
					c-2,1.4-3.8,2.5-5.5,3.5c-7.9,4.4-13.7,4.8-19.3,1.8c-5.5-3.1-10.9-9.8-17.8-19.1c-7.8-10.5-14.7-17.5-21.6-21.3
					c-1-0.6-2-1-3.1-1.4c-8-3.2-16.1-1.9-25.8,3.7c-1,0.6-2,1.2-3,1.7c-7.5,4.4-14.5,8.6-22.1,4.5c-3.9-2.1-8-6.5-12.4-14.2
					c-0.2-0.3-0.4-0.5-0.6-0.6c-0.3-0.2-0.7-0.2-0.9,0c-0.4,0.4-0.5,1.2-0.1,1.9c4.9,8.6,9.4,13.4,13.7,15.8
					c8.2,4.4,15.6,0,23.6-4.8c1-0.6,2-1.1,3-1.7c9.3-5.3,17-6.6,24.4-3.6c0.9,0.4,1.8,0.8,2.8,1.3c6.5,3.5,13.1,10.3,20.7,20.4
					c7.2,9.7,12.8,16.6,18.8,20c0.1,0.1,0.2,0.1,0.3,0.2c6,3.2,12.2,2.9,20.6-1.9c1.7-1,3.6-2.2,5.6-3.5c2-1.4,4.2-3,6.5-4.8
					C346,208.2,346,207.4,345.6,206.7z"/>
				<path class="st9" d="M344.1,206.1c-3.8,3-7.7,5.8-11.9,8.2c-7.9,4.4-13.7,4.8-19.3,1.8c-5.5-3.1-10.9-9.8-17.8-19.1
					c-6.2-8.3-14.8-18.8-24.7-22.7c-10.6-4.2-19.6-0.1-28.8,5.4c-7.5,4.4-14.5,8.6-22.1,4.5c-3.9-2.1-8-6.5-12.4-14.2
					c-0.2-0.3-0.4-0.5-0.6-0.6c1.2,3.2,6.8,12.7,12.2,15.6c8.2,4.4,15.2,0.5,23.1-4.2c8.9-5.1,18.1-9.6,28.4-5.5
					c9.3,3.7,18.3,14.6,24.1,22.4c7.2,9.7,12.4,16.3,18.4,19.7c5,2.8,9.2,2.7,13.6,1C331,216.5,341.7,209.7,344.1,206.1z"/>
			</g>
		</g>
		<g>
			<g>
				<linearGradient id="SVGID_4_" gradientUnits="userSpaceOnUse" x1="228.3243" y1="255.6378" x2="253.1289" y2="204.395">
					<stop  offset="0" style="stop-color:#7D63AB"/>
					<stop  offset="1" style="stop-color:#E591BD"/>
				</linearGradient>
				<path class="st10" d="M273.2,223.2l-71.6-39.7l-10,68.5l72.3,40.1c5.1,2.8,9.9,0.1,10.8-6l6.1-46.7
					C281.7,233.2,278.3,226,273.2,223.2z"/>
				<g>
					<g>
						<path class="st11" d="M271.9,237.7l-7,47.2l0.8,0.1l2.3-0.9c2.5-1,3.8-3.6,4.2-6.1l5.6-42.6c0,0,0,0,0,0
							c0.5-3.7-0.6-7.5-2.6-10.6c-1.1-1.7-2.5-3.2-4.3-4.1L179.7,170c-1.7-1-3.8-1.4-5.7-0.6l-2,0.8c-1,0.4-1.3,0.7-1.3,0.7
							C171.6,179.8,273.2,228.6,271.9,237.7z"/>
						<path class="st12" d="M268.6,221.5l-91.2-50.6c-2-1.1-4-1.3-5.7-0.6c-2.1,0.8-3.7,3-4.2,6.1l-5.6,42.6
							c-0.8,5.6,2.3,12.2,6.9,14.8l91.2,50.6c4.6,2.6,9,0.1,9.9-5.5l5.6-42.6C276.3,230.7,273.2,224.1,268.6,221.5z"/>
					</g>
					<g>
						<path class="st13" d="M270.3,239.3l-52-28.6c-0.5-0.3-1-0.3-1.4-0.2c-0.5,0.2-0.9,0.7-1,1.5l-0.3,2.1
							c-0.2,1.3,0.5,2.9,1.6,3.5l52,28.6c1.1,0.6,2.2,0,2.4-1.3l0.3-2.1C272.2,241.5,271.4,239.9,270.3,239.3z"/>
						<path class="st13" d="M268.4,252.1l-52-28.6c-0.5-0.3-1-0.3-1.4-0.2c-0.5,0.2-0.9,0.7-1,1.5l-0.3,2.1
							c-0.2,1.3,0.5,2.9,1.6,3.5l52,28.6c1.1,0.6,2.2,0,2.4-1.3l0.3-2.1C270.3,254.3,269.5,252.8,268.4,252.1z"/>
						<path class="st13" d="M235.2,247.4l-20.7-11c-0.5-0.3-1-0.3-1.4-0.2c-0.5,0.2-0.9,0.7-1,1.5l-0.3,2.1
							c-0.2,1.3,0.5,2.9,1.6,3.5l20.7,11c1.1,0.6,2.2,0,2.4-1.3l0.3-2.1C237.1,249.6,236.4,248,235.2,247.4z"/>
					</g>
					<g>
						<path class="st14" d="M169,197.5c-1.6,14.4,6.4,32,17.8,39.2c11.5,7.3,22.5-2.1,23.7-12.9c1.2-10.8-0.8-15.3-4.1-22.5
							c-2,1.1-4,2.2-6,3.3c2.1,4.6,3.4,7.5,2.7,14.5c-0.8,7-7.8,13-15.2,8.3c-7.4-4.7-12.5-16-11.5-25.2
							C174,200.7,171.5,199.1,169,197.5z"/>
						<path class="st15" d="M177.1,182.9c-4.3,2.3-7.3,7.4-8.1,14.6c2.5,1.6,5,3.1,7.4,4.7c0.5-4.6,2.5-7.9,5.2-9.4
							C180.1,189.5,178.6,186.2,177.1,182.9z"/>
						<path class="st16" d="M192.7,184.6c-5.7-3.6-11.2-4-15.5-1.7c1.5,3.3,3,6.6,4.5,9.9c2.8-1.5,6.3-1.3,10,1.1
							c3.7,2.3,6.8,6.3,8.9,10.9c2-1.1,4-2.2,6-3.3C203.3,194.4,198.4,188.2,192.7,184.6z"/>
					</g>
				</g>
			</g>
			<g>
				<linearGradient id="SVGID_5_" gradientUnits="userSpaceOnUse" x1="303.2922" y1="287.6575" x2="321.4527" y2="260.543">
					<stop  offset="0" style="stop-color:#7D63AB"/>
					<stop  offset="1" style="stop-color:#E591BD"/>
				</linearGradient>
				<path class="st17" d="M304.2,302.6c-10.5-8.4-16.8-25.8-14-38.9c2.8-13.1,13.5-16.9,24-8.6c10.5,8.4,16.8,25.8,14,38.9
					C325.4,307.2,314.7,311,304.2,302.6z"/>
				<g>
					<path class="st18" d="M292.4,254.4c1.9-2,6.7-3.1,9.4-3.3c3.1-0.2,6.6,1.1,10.1,4c9.1,7.5,14.6,23.1,12.2,34.8
						c-0.7,3.5-2,6.3-3.8,8.2c-1.7,1.8-7,4-9.5,4.2C296,304.4,286.8,260.2,292.4,254.4z"/>
					<g>
						<linearGradient id="SVGID_6_" gradientUnits="userSpaceOnUse" x1="311.0385" y1="261.9089" x2="299.6955" y2="286.6202">
							<stop  offset="0" style="stop-color:#E894BF"/>
							<stop  offset="1" style="stop-color:#7A6DB2"/>
						</linearGradient>
						<path class="st19" d="M299.7,298.5c-9.1-7.5-14.6-23.1-12.2-34.8c2.4-11.7,11.7-15.2,20.8-7.7c9.1,7.5,14.6,23.1,12.2,34.8
							C318.1,302.6,308.8,306,299.7,298.5z"/>
						<polygon class="st0" points="313.1,269.8 315.6,271.6 297.6,288.8 290.9,271.1 294.2,273 298.6,279.3 						"/>
					</g>
				</g>
			</g>
			<g>
				<linearGradient id="SVGID_7_" gradientUnits="userSpaceOnUse" x1="262.1506" y1="356.4619" x2="289.591" y2="308.9687">
					<stop  offset="0" style="stop-color:#7D63AB"/>
					<stop  offset="1" style="stop-color:#E591BD"/>
				</linearGradient>
				<path class="st20" d="M335.3,337.8l-108.2-59.9c-2-1.1-3.9-1.2-5.5-0.6c-2.1,0.8-3.6,2.9-4.1,5.9l-7.5,53.2
					c-0.8,5.4,2.2,11.8,6.7,14.3l99.5,55.1c1.1-0.4,6.4-1.3,6.7-2.9L335.3,337.8z"/>
				<g>
					<path class="st18" d="M342.4,353.6l-8.4,55l0.8,0.1l2.1-0.8c0.1,0,0.2-0.1,0.3-0.1l0,0c2.3-0.9,3.5-3.3,3.9-5.7l7.2-50.7
						c0,0,0,0,0,0c0.5-3.4-0.5-7-2.4-9.8c-1-1.5-2.3-2.9-4-3.8l-109.3-60.5c-1.6-0.9-3.5-1.3-5.3-0.6l-1.9,0.7
						c-0.2,0.1-0.4,0.1-0.5,0.2c-0.8,0.3-1.1,0.6-1.1,0.6C224.8,286.3,343.7,345.2,342.4,353.6z"/>
					<linearGradient id="SVGID_8_" gradientUnits="userSpaceOnUse" x1="285.881" y1="364.7323" x2="263.0409" y2="283.6296">
						<stop  offset="0" style="stop-color:#4786C6"/>
						<stop  offset="0.9951" style="stop-color:#3DC2D3"/>
					</linearGradient>
					<path class="st21" d="M339.4,338.6l-109.3-60.5c-1.9-1-3.7-1.2-5.3-0.6c-2,0.8-3.4,2.8-3.9,5.7l-7.2,50.7
						c-0.8,5.2,2.1,11.3,6.4,13.7l109.3,60.5c4.3,2.4,8.4,0.1,9.1-5.1l7.2-50.7C346.5,347.1,343.6,341,339.4,338.6z"/>
					<path class="st18" d="M220.1,316.4c1.2-7.2,4-9.6,7.6-8.6c0.6,0.2,1.1,0.4,1.7,0.7c3.5,2,7.1,7.2,7.6,15.9
						c0.3,5.5,1.4,10.5,6,13.1c12.1,6.5,7.7-31.8,19.2-25.3c9.9,5.6,4,26,7.8,38.9c1.3,4.5,3.7,6.6,5.4,7.5c7,3.7,7.7-8,8.6-13
						c4.2-22.8,6.9-24.1,11.1-21.7c4.4,2.6,6.4,4.3,5.6,28.2c-0.3,9.7,0,18.5,6.9,22.6c7.7,4.4,8.3-4.6,11.7-8.9
						c2-2.6,4.6-3.1,7-1.8c2.6,1.5,4.9,5.2,5.9,10.9c1.7,9.6,0.9,22.8,0.4,27.4l-115.3-65.3C218.4,330.1,219.1,322.6,220.1,316.4z"
						/>
				</g>
			</g>
			<g>
				<linearGradient id="SVGID_9_" gradientUnits="userSpaceOnUse" x1="189.5039" y1="258.4019" x2="199.6891" y2="310.0898">
					<stop  offset="0" style="stop-color:#E477AF"/>
					<stop  offset="1" style="stop-color:#645EAA"/>
				</linearGradient>
				<path class="st22" d="M207.5,275.9l-17.9-9.8l-7.8,53l18.1,10c5.1,2.8,9.9,0.1,10.8-6l4.3-31
					C215.9,285.9,212.5,278.7,207.5,275.9z"/>
				<g>
					<g>
						<path class="st18" d="M206.3,290.2l-5.4,33l0.8,0.1l2.3-0.9c2.5-1,3.8-3.6,4.2-6.1l4-28.4c0,0,0,0,0,0
							c0.5-3.7-0.6-7.5-2.6-10.6c-1.1-1.7-2.5-3.2-4.3-4.1l-35-19.2c-1.7-1-3.8-1.4-5.7-0.6l-2,0.8c-1,0.4-1.3,0.7-1.3,0.7
							C162.3,263.7,207.6,281.1,206.3,290.2z"/>
						<path class="st0" d="M203,274l-35-19.2c-2-1.1-4-1.3-5.7-0.6c-2.1,0.8-3.7,3-4.2,6.1l-4,28.4c-0.8,5.6,2.3,12.2,6.9,14.8
							l35,19.2c4.6,2.6,9,0.1,9.9-5.5l4-28.4C210.7,283.2,207.6,276.6,203,274z"/>
					</g>
					<linearGradient id="SVGID_10_" gradientUnits="userSpaceOnUse" x1="178.2357" y1="300.2731" x2="184.2491" y2="279.716">
						<stop  offset="0" style="stop-color:#6569B0"/>
						<stop  offset="1" style="stop-color:#55ACE0"/>
					</linearGradient>
					<path class="st23" d="M196.9,284.4c-0.4,2.4-2.2,3.5-4.2,2.4c-2-1.1-3.3-4-3-6.4c0.4-2.4,2.2-3.5,4.3-2.3
						C195.9,279.2,197.2,282,196.9,284.4L196.9,284.4z M185.9,305.9c0.4-2.4,2.2-3.5,4.3-2.3c2,1.1,3.3,3.9,3,6.4s-2.2,3.5-4.3,2.4
						C186.8,311.2,185.5,308.3,185.9,305.9L185.9,305.9z M173.4,285.2c-0.4,2.4-2.3,3.4-4.3,2.3c-2-1.1-3.3-3.9-3-6.3
						c0.4-2.4,2.3-3.5,4.2-2.4C172.4,279.9,173.7,282.8,173.4,285.2L173.4,285.2z M194.3,275c-3.4-1.9-6.7-0.1-7.3,4l0,0.3
						l-11.9,1.9c-0.8-2.3-2.4-4.3-4.4-5.4c-3.4-1.9-6.6-0.1-7.2,4c-0.6,4.1,1.6,8.9,5.1,10.8c2,1.1,3.8,1,5.2-0.1l9.6,13.8l-0.1,0.2
						c-0.6,4.1,1.7,9,5.1,10.9c3.4,1.9,6.6,0.1,7.2-4c0.6-4.1-1.7-9-5.1-10.8c-2.4-1.3-4.7-0.8-6.1,1l-9.1-13.2
						c0.2-0.5,0.4-1.1,0.5-1.7c0.1-0.7,0.1-1.3,0.1-2l11.3-1.9c0.7,3,2.5,5.8,4.9,7.1c3.4,1.9,6.6,0.1,7.2-4
						C200,281.7,197.7,276.8,194.3,275z"/>
				</g>
			</g>
			<g>
				<linearGradient id="SVGID_11_" gradientUnits="userSpaceOnUse" x1="332.8005" y1="182.9114" x2="348.1174" y2="138.7845">
					<stop  offset="0" style="stop-color:#7D63AB"/>
					<stop  offset="1" style="stop-color:#E591BD"/>
				</linearGradient>
				<path class="st24" d="M365.1,151.5l-39.4-20.4l-4.1,2l-5.8,41.9c-0.9,5.8,2.4,12.7,7.2,15.4l26.6,14.6l4.5-1.7L365.1,151.5z"/>
				<g>
					<path class="st18" d="M389.1,146.1l-10.2,67.6l0.9,0.1l2.4-0.9c2.6-1,4-3.7,4.4-6.4l8.8-62.8c0,0,0,0,0,0
						c0.5-3.9-0.6-7.9-2.7-11.1c-1.1-1.7-2.6-3.3-4.5-4.3l-46.5-25.5c-1.8-1-3.9-1.4-5.9-0.7l-2.1,0.8c-1.1,0.4-1.4,0.7-1.4,0.8
						C333.1,113,390.5,136.6,389.1,146.1z"/>
					<path class="st0" d="M385.6,129.2l-46.5-25.5c-2.1-1.2-4.2-1.3-5.9-0.7c-2.2,0.9-3.9,3.1-4.4,6.4l-8.8,62.8
						c-0.9,5.8,2.4,12.7,7.2,15.4l46.5,25.5c4.8,2.7,9.4,0.1,10.3-5.7l8.7-62.8C393.7,138.8,390.5,131.9,385.6,129.2z"/>
					<linearGradient id="SVGID_12_" gradientUnits="userSpaceOnUse" x1="363.3788" y1="128.7836" x2="351.0339" y2="176.1608">
						<stop  offset="0" style="stop-color:#6569B0"/>
						<stop  offset="1" style="stop-color:#55ACE0"/>
					</linearGradient>
					<path class="st25" d="M385.6,129.2l-46.5-25.5c-2.1-1.2-4.2-1.3-5.9-0.7c-2.2,0.9-3.9,3.1-4.4,6.4l-7,50l64,35.1l7-49.9
						C393.7,138.8,390.5,131.9,385.6,129.2z"/>
					<g>
						<path class="st26" d="M327,167.9c0.2-1.2,1-1.7,2-1.1l21,11.4c0.9,0.5,1.6,1.9,1.4,3.1l-0.3,2.3c-0.2,1.2-1,1.7-2,1.1
							l-21-11.4c-0.9-0.5-1.6-1.9-1.4-3.1L327,167.9z"/>
						<path class="st26" d="M325.6,178c0.1-1,0.9-1.5,1.7-1c11.9,6.5,31.5,17,43.4,23.5c0.8,0.5,1.4,1.7,1.2,2.7l-0.3,2
							c-0.1,1-0.9,1.5-1.7,1c-11.9-6.5-31.5-17-43.4-23.5c-0.8-0.5-1.4-1.7-1.2-2.7L325.6,178z"/>
					</g>
					<path class="st27" d="M378.4,142.6l-5.4,40.5l10.4,5.9l5.4-40.5L378.4,142.6L378.4,142.6z M348.8,112.7l-7.3,54.3l10.4,5.9
						l7.3-54.3L348.8,112.7L348.8,112.7z M363.2,130.7l10.4,5.9l-6,45l-10.4-5.9L363.2,130.7L363.2,130.7z M331.4,117.6l10.4,5.9
						l-5.4,40.5l-10.4-5.9L331.4,117.6z"/>
					<g>
						<path class="st28" d="M329.1,133.5c-0.3-0.3-0.2-0.7,0.2-1c0.4-0.3,0.9-0.3,1.2,0l9.3,9.4l4.9,1.9l11.4-3l7.7-7.9
							c0.3-0.3,0.9-0.4,1.2-0.2c0.1,0,0.1,0.1,0.2,0.2l13.6,16.1l9.3,1.7c0.5,0,0.8,0.2,0.8,0.6c0,0.4-0.5,0.8-0.9,0.8l-9.7-1.7
							c-0.3,0-0.5,0-0.7-0.2l-13.2-15.7l-7.2,7.3l0,0c-0.1,0.1-0.3,0.2-0.5,0.3l-12,3.2c-0.2,0.1-0.4,0-0.6,0l-5.2-2
							c-0.1,0-0.2-0.1-0.3-0.2L329.1,133.5z"/>
						<path class="st0" d="M329.1,133.7c-0.3-0.3-0.2-0.9,0.2-1.2c0.4-0.3,0.9-0.4,1.2,0l9.1,11.1l4.8,2.3l11.4-3.4l7.9-9.2
							c0.3-0.4,0.9-0.5,1.2-0.2c0.1,0.1,0.1,0.1,0.2,0.2l12.4,18.5l10.6-1.1c0.5,0,0.8,0.3,0.8,0.8c0,0.5-0.5,0.9-0.9,0.9l-11.1,1.2
							c-0.3,0-0.5-0.1-0.7-0.3l-12.1-18.1l-7.3,8.5l0,0c-0.1,0.2-0.3,0.3-0.5,0.3l-12.1,3.6c-0.2,0.1-0.4,0.1-0.6,0l-5.2-2.4
							c-0.1,0-0.2-0.1-0.3-0.2L329.1,133.7z"/>
					</g>
				</g>
			</g>
			<g>
				<linearGradient id="SVGID_13_" gradientUnits="userSpaceOnUse" x1="222.1497" y1="160.4775" x2="216.6936" y2="109.6513">
					<stop  offset="0" style="stop-color:#7D63AB"/>
					<stop  offset="1" style="stop-color:#E591BD"/>
				</linearGradient>
				<path class="st29" d="M211.5,111.1l19.7,9c4.7,2.7,6.1,11.5,5.3,17.4l-4,29.5c-0.8,5.9-5.2,8.4-9.9,5.7l-17.8-10.8l0.7-4.9
					L211.5,111.1z"/>
				<g>
					<path class="st18" d="M162,89.4c0.3-2-0.3-3.2,0.7-4.3c0.6-0.7,2.6-1.6,3.4-1.9c1.6-0.6,3.5-0.4,5.4,0.7l56.3,32.9
						c4.5,2.6,7.6,9.4,6.9,15l-3.9,28.4c-0.2,1.8-0.9,4-2.4,5.3c-1.1,0.9-2.8,1.9-4.1,2c-1.3,0.2-1.6-1-3.1-1.8L165,132.8
						c-4.5-2.6-7.6-9.4-6.9-15L162,89.4z"/>
					<path class="st0" d="M160.5,90.3c0.7-5.7,5-8.1,9.6-5.5l56.3,32.9c4.5,2.6,7.6,9.4,6.9,15l-3.9,28.4c-0.7,5.7-5,8.1-9.6,5.5
						l-56.3-32.9c-4.5-2.6-7.6-9.4-6.9-15L160.5,90.3z"/>
					<linearGradient id="SVGID_14_" gradientUnits="userSpaceOnUse" x1="196.2609" y1="115.8768" x2="198.7287" y2="96.0164">
						<stop  offset="0" style="stop-color:#6569B0"/>
						<stop  offset="1" style="stop-color:#55ACE0"/>
					</linearGradient>
					<path class="st30" d="M160.5,90.3c0.7-5.7,5-8.1,9.6-5.5l56.3,32.9c4.5,2.6,7.6,9.4,6.9,15l-0.4,2.7c-0.5-0.4-1-0.7-1.5-1
						l-71.1-41.6L160.5,90.3z"/>
					<g>
						<path class="st31" d="M170.4,107.7c5.7,1.3,10.1,8.1,9.8,15.2c-0.3,7.1-5.2,11.8-10.9,10.5c-5.7-1.3-10.1-8.1-9.8-15.2
							C159.8,111.1,164.7,106.4,170.4,107.7z"/>
						<linearGradient id="SVGID_15_" gradientUnits="userSpaceOnUse" x1="168.6339" y1="125.8822" x2="171.4167" y2="113.8645">
							<stop  offset="0" style="stop-color:#6569B0"/>
							<stop  offset="1" style="stop-color:#55ACE0"/>
						</linearGradient>
						<path class="st32" d="M170.2,113.7c3.1,0.7,5.5,4.4,5.3,8.2c-0.2,3.8-2.8,6.4-5.9,5.7c-3.1-0.7-5.5-4.4-5.3-8.2
							C164.4,115.5,167.1,112.9,170.2,113.7L170.2,113.7z M170,116.9c-1.6-0.4-3,1-3.1,3c-0.1,2,1.2,4,2.8,4.4c1.6,0.4,3-1,3.1-3
							C172.9,119.2,171.7,117.3,170,116.9z"/>
						<path class="st31" d="M183.7,121.4c0.2-1.5,1.3-2.2,2.5-1.4l36.7,20.8c1.2,0.7,2,2.5,1.8,4l-0.4,3c-0.2,1.5-1.3,2.2-2.5,1.4
							l-36.7-20.8c-1.2-0.7-2-2.5-1.8-4L183.7,121.4z"/>
						<path class="st31" d="M182.3,132.4c0.1-0.9,0.8-1.3,1.5-0.8l21.7,12.3c0.7,0.4,1.2,1.5,1.1,2.4l-0.2,1.8
							c-0.1,0.9-0.8,1.3-1.5,0.8l-21.7-12.3c-0.7-0.4-1.2-1.5-1.1-2.4L182.3,132.4z"/>
					</g>
					<g>
						<path class="st0" d="M166.6,87.8c1.2,0.3,2.2,1.8,2.1,3.3c-0.1,1.5-1.1,2.6-2.4,2.3c-1.2-0.3-2.2-1.8-2.1-3.3
							C164.3,88.6,165.4,87.5,166.6,87.8z"/>
						<path class="st0" d="M172.3,91.1c1.2,0.3,2.2,1.8,2.1,3.3c-0.1,1.5-1.1,2.6-2.4,2.3c-1.2-0.3-2.2-1.8-2.1-3.3
							C170,91.8,171.1,90.8,172.3,91.1z"/>
						<path class="st0" d="M178.5,94.7c1.2,0.3,2.2,1.8,2.1,3.3c-0.1,1.5-1.1,2.6-2.4,2.3c-1.2-0.3-2.2-1.8-2.1-3.3
							C176.1,95.4,177.2,94.4,178.5,94.7z"/>
					</g>
				</g>
			</g>
		</g>
	</g>
	<g>
		<g>
			<path class="st1" d="M78.9,366.7l40.7-23.2c4.4-2,10.8-3.6,15.3-1.3c4.1,2.1,10.9,6.5,13.9,8.2c2.3,1.3,10.2,6,5.3,8.7
				c-14.5,7.9-28.8,16.8-43.6,24.8c-2.8,1.5-6.9,2.1-11.1,1.7c-4.3-0.4-8.6-1.6-12.1-3.6c-2.4-1.4-4.9-2.8-7.2-4.2
				c-3.2-1.9-4.9-4.1-5.1-6.1C74.8,369.8,76.1,368,78.9,366.7z"/>
			<g>
				<g>
					<g>
						<path class="st33" d="M175.8,219.5c-0.3-0.1-0.7-0.1-1-0.2c0.4,0,0.6-0.1,0.8-0.1c1.5-0.8,2.2-1.2,3.9-2.5
							c-1.2-2.4-4.1,0.1-4.6,0.1c-0.2,0-1.7-0.3-3.2-0.3c-2.1-0.1-3.4,0.3-4.9,1.9c-0.7,0.5-1.4,1-2.2,1.6c0.2,2,0.4,3.6,1.6,5.4
							c0.4-0.2,0.8-0.3,1.1-0.3c1.5-0.2,2.9,0.2,6.2,1.3c3.3,1.1,3.9,1.1,9.1-2.6c3.8-2.7,5.8-4.2,5.2-6.2
							C186.4,212.9,180.5,218.9,175.8,219.5z"/>
						<g>
							<linearGradient id="SVGID_16_" gradientUnits="userSpaceOnUse" x1="176.4343" y1="219.3621" x2="177.1328" y2="226.7546">
								<stop  offset="0" style="stop-color:#F58A7A"/>
								<stop  offset="1" style="stop-color:#F8A69A"/>
							</linearGradient>
							<path class="st34" d="M175.4,224.4c-3.2-0.5-5.4-3.2-8.1-1.6c-0.7,0.4-1.3,0.8-1.8,1.2c0.2,0.5,0.5,1,0.8,1.5
								c0.4-0.2,0.8-0.3,1.1-0.3c1.5-0.2,2.9,0.2,6.2,1.3c3.3,1.1,3.9,1.1,9.1-2.6c2.5-1.8,4.3-3.1,5-4.4c0.3-0.6-0.6-1.3-1.5-0.7
								C182.1,221.7,180,223.7,175.4,224.4z"/>
							<linearGradient id="SVGID_17_" gradientUnits="userSpaceOnUse" x1="177.0152" y1="218.8469" x2="177.5914" y2="224.9456">
								<stop  offset="0" style="stop-color:#F58A7A"/>
								<stop  offset="1" style="stop-color:#F8A69A"/>
							</linearGradient>
							<path class="st35" d="M186.8,217.6c-1.4,1.1-8.8,4.5-10.5,4.1c-0.5-0.1-0.4-1-0.4-2.1c-0.4,0.7,0.1,2.4-0.6,2
								c-4-2-5.7-2.4-8-0.9c1.6-0.4,3.1-0.2,4.5,0.3c1.4,0.5,2.7,1.3,4.1,1.7C179.7,221.6,182.1,221.2,186.8,217.6z"/>
						</g>
					</g>
					<g>
						<linearGradient id="SVGID_18_" gradientUnits="userSpaceOnUse" x1="138.8685" y1="205.0567" x2="148.6052" y2="231.2561">
							<stop  offset="0" style="stop-color:#6569B0"/>
							<stop  offset="1" style="stop-color:#55ACE0"/>
						</linearGradient>
						<path class="st36" d="M133.9,238.1c-0.8-0.8-1.6-1.6-2.1-2.1c-4-3.7-10.6-15.8-14.4-33.9c1.3-1.1,5.3-2.1,6.1-2.3
							c3.1-0.6,5.8,1,6.7,2.1c1.7,2,3.4,5.6,4.4,11.3c0.7,3.9,3.6,9,5.5,13.8c0.1,0.2,0.2,0.4,0.3,0.6c3.3-1.7,6.8-3.2,8.6-3.9
							c3.9-1.6,8.3-3,13.1-4.4c0.6-0.2,1.1,0.2,1.7,0c0.3-0.1,1.7-0.6,2-0.8c0,2.9,0.8,5.1,2.3,6.9c-0.3,0.1-1.8,0.8-2.1,0.9
							c-0.5,0.2-1,0.9-1.4,1.3c-3.6,3.7-14,9.3-23.6,12.2C137.7,241.1,135.3,240.6,133.9,238.1z"/>
						<path class="st37" d="M133.9,238.1c-0.8-0.8-1.6-1.6-2.1-2.1c-4-3.7-10.6-15.8-14.4-33.9c8-6.5,15.7,4.2,17,11.5
							c1.7,9.4,3.4,17.3,3.5,27C136.2,240.5,134.8,239.7,133.9,238.1z"/>
					</g>
				</g>
				<g>
					<path class="st38" d="M96.9,354.9c-0.2,0.8-0.1,1.5-0.5,2.5c-0.4,1.1-0.9,2.2-1.3,4.1c-0.7,2.8,0.3,6.6-0.6,10.6
						c-0.5,1.6-0.4,2.9,0.6,4.3c1,1.4,3,3.6,5.6,3.5c0.6,0,1.8-0.3,2.7-1.3c1-1.1,1.8-2.7,1.6-4.7c-0.1-0.8-0.5-3.2-0.4-5.5
						c0.1-2,0.4-3,0.4-5.2c0-2.3-0.2-5.4-0.3-6.9L96.9,354.9z"/>
					<path class="st38" d="M119.5,343.3c-0.7,2-1.2,2.9-1.3,5.7c0.5,1.5,1.5,2.1,2.7,3.1l0.8,0.2c2,1.1,2.8,5,4.7,6.7
						c1.3,1.2,4,1.9,6.6,2.4c2.8,0.5,5.5-0.3,4.8-2.5c-1.8-5.5-9.7-11.7-9.9-17.8L119.5,343.3z"/>
					<linearGradient id="SVGID_19_" gradientUnits="userSpaceOnUse" x1="130.1151" y1="273.068" x2="114.1688" y2="324.5849">
						<stop  offset="0" style="stop-color:#245EA4"/>
						<stop  offset="1" style="stop-color:#203D74"/>
					</linearGradient>
					<path class="st39" d="M131.3,304.1c-0.2,10.5-2.5,30.2-2.1,40.6c-2.7,2.7-8.1,1.9-9.8-0.9c-1.1-9.5-2.4-23.1-2.5-28.3
						c-0.1-4.4,0.3-8.4,1.4-12.3c-1.6-11.5-8.2-27.2-6.6-38.1c0.7-4.8,3.8-9.9,4.7-13.8c7.8,9.7,13.8,5,17.1,4.2
						c0,3.3,0.2,2.9,0.1,6.4c-0.4,11.9-0.9,24.5-1.6,36.9C132,300.6,131.8,302.6,131.3,304.1z"/>
					<path class="st40" d="M117.5,325.4c-0.4-4.1-0.6-7.8-0.7-10c-0.1-4.4,0.3-8.4,1.4-12.3c-1.6-11.5-8.2-27.2-6.6-38.1
						c0.7-4.8,3.8-9.9,4.7-13.8c7.8,9.7,13.8,5,17.1,4.2c0,0.4,0,0.7,0,1l-10.3,7.6l2.5-0.6c-0.1,13.7-1.8,26.2-2,39.6
						c-2.7,7.7-4.2,14.2-6,22.1L117.5,325.4z"/>
					<linearGradient id="SVGID_20_" gradientUnits="userSpaceOnUse" x1="120.8849" y1="276.2005" x2="91.313" y2="335.7829">
						<stop  offset="0" style="stop-color:#245EA4"/>
						<stop  offset="1" style="stop-color:#203D74"/>
					</linearGradient>
					<path class="st41" d="M113.8,311.8c-1.9,10.5-7.4,36.1-8.7,46.5c-3.4,1.9-7.7,0.9-8.9-1.9c0-9.5,0-26.7,0.7-32
						c0.6-4.4,2.1-11.1,3.9-15c-0.7-24.6-3.4-31.2-0.1-42c1.5-4.8,5.3-9.4,6.8-13.3c2.1,3.2,5.4,7.8,12.3,7.3
						c0.7-0.1,6.5-4.2,8.4-4.7c-2.4,14.6-9.4,33.8-12.8,49.7C115.1,308.3,114.6,310.3,113.8,311.8z"/>
				</g>
				<linearGradient id="SVGID_21_" gradientUnits="userSpaceOnUse" x1="112.0878" y1="211.8914" x2="121.3387" y2="259.3024">
					<stop  offset="0" style="stop-color:#6569B0"/>
					<stop  offset="1" style="stop-color:#55ACE0"/>
				</linearGradient>
				<path class="st42" d="M124.7,199.6c0.8,0.1,1.5,0.3,2.2,0.7c5.2,2.9,7,11.3,7.8,18.8c0.7,6.4,0.2,11.8,0,17.7
					c-0.2,4.7,0.4,9,0.2,13.5c-0.1,1.3-0.6,2.7-0.7,4.1c0,1-0.4,2-0.3,2.8c-2.6,9.9-27.1,10.7-30.7,4c0.2-1,0.5-2,0.6-3
					c-2.3-2.1-1-7.2-1.3-10.8c-0.3-2.7-0.7-5.4-1.5-7.4c-3.3-8.2-8-14.5-8.9-20.8c-0.6-4.3,4.9-9.7,12.2-14.1
					C111.3,200.8,120.9,198.5,124.7,199.6z"/>
				<g>
					<g>
						<g>
							<path class="st43" d="M134.7,219.3c-2.6,2.6-18.6,18-36.4,14l0.2-1.2c18.7,4.2,35.6-14,35.7-14.1l0.5,0.4
								c0,0.2,0,0.4,0.1,0.6C134.7,219.1,134.7,219.2,134.7,219.3z"/>
							<path class="st43" d="M135,228.8c-4.4,4.1-18,15.5-33.3,13.3c-0.1-0.5-0.2-0.9-0.4-1.3c16.3,2.6,30.8-11,33.7-13.8
								C135,227.6,135,228.2,135,228.8z"/>
						</g>
						<path class="st43" d="M100.9,239.7l3.2-6.6l4.2,7.1l3.6-8.7l5,6.7l2.6-9.3l5.3,5.7l2.4-10.6l3.9,6l3.3-12.5
							c0.1,0.5,0.1,1,0.2,1.5c0,0.2,0,0.4,0.1,0.5l-3.2,12.2l-3.9-5.9l-2.3,10.3l-5.3-5.8l-2.6,9.5l-5.1-6.9l-3.7,8.9l-4.3-7.2
							l-2.9,6c-0.1-0.3-0.2-0.5-0.3-0.8C101,239.9,100.9,239.8,100.9,239.7z"/>
						<g>
							<path class="st43" d="M104.3,238.6c0.3,0,0.6,0.3,0.6,0.7c0,0.4-0.3,0.6-0.6,0.6c-0.3,0-0.6-0.3-0.6-0.7
								C103.7,238.8,104,238.5,104.3,238.6z"/>
							<path class="st43" d="M108.1,234.7c0.3,0,0.6,0.3,0.6,0.7c0,0.4-0.3,0.6-0.6,0.6c-0.3,0-0.6-0.3-0.6-0.7
								C107.5,235,107.8,234.7,108.1,234.7z"/>
							<path class="st43" d="M112.5,237.6c0.3,0,0.6,0.3,0.6,0.7c0,0.4-0.3,0.6-0.6,0.6c-0.3,0-0.6-0.3-0.6-0.7
								C111.9,237.8,112.2,237.5,112.5,237.6z"/>
							<path class="st43" d="M116.2,232.6c0.3,0,0.6,0.3,0.6,0.7c0,0.4-0.3,0.6-0.6,0.6c-0.3,0-0.6-0.3-0.6-0.7
								C115.6,232.9,115.9,232.6,116.2,232.6z"/>
							<path class="st43" d="M120.9,234.5c0.3,0,0.6,0.3,0.6,0.7c0,0.4-0.3,0.6-0.6,0.6c-0.3,0-0.6-0.3-0.6-0.7
								C120.3,234.7,120.5,234.5,120.9,234.5z"/>
							<path class="st43" d="M123.7,229c0.3,0,0.6,0.3,0.6,0.7c0,0.4-0.3,0.6-0.6,0.6c-0.3,0-0.6-0.3-0.6-0.7
								C123,229.3,123.3,229,123.7,229z"/>
							<path class="st43" d="M128.4,230.2c0.3,0,0.6,0.3,0.6,0.7c0,0.4-0.3,0.6-0.6,0.6c-0.3,0-0.6-0.3-0.6-0.7
								C127.7,230.4,128,230.2,128.4,230.2z"/>
							<path class="st43" d="M130.9,224.3c0.3,0,0.6,0.3,0.6,0.7c0,0.4-0.3,0.6-0.6,0.6c-0.3,0-0.6-0.3-0.6-0.7
								C130.2,224.5,130.5,224.3,130.9,224.3z"/>
							<path class="st43" d="M134.9,224.9c0.1,0,0.1,0,0.2,0c0,0.4,0,0.8,0,1.3c-0.1,0-0.1,0-0.2,0c-0.3,0-0.6-0.3-0.6-0.7
								C134.2,225.2,134.5,224.9,134.9,224.9z"/>
							<path class="st43" d="M100.2,234.9c0.3,0,0.6,0.3,0.6,0.7c0,0.4-0.3,0.6-0.6,0.6c-0.3,0-0.6-0.3-0.6-0.7
								C99.6,235.1,99.8,234.8,100.2,234.9z"/>
						</g>
					</g>
					<path class="st37" d="M104,222.5c0.9,5.1-0.2,13.6-2.7,18.2c-1.2-3.1-2.3-5.4-3.9-8.3C97.5,232,102.9,216.2,104,222.5z"/>
				</g>
				<g>
					<linearGradient id="SVGID_22_" gradientUnits="userSpaceOnUse" x1="106.0984" y1="270.7755" x2="108.1767" y2="267.1575">
						<stop  offset="0" style="stop-color:#F58A7A"/>
						<stop  offset="1" style="stop-color:#F8A69A"/>
					</linearGradient>
					<path class="st44" d="M102.4,260.7c1.1,0.6,3.2,1.1,4,1.5c0.4,0.2,3.5,1.9,5.3,2.9c1.9,1.1,2.5,2.8,3.7,4.6
						c0.9,1.5,1.3,2.6,1.4,3.4c0.2,0.8-1.8,2.5-2.7,2.4c-2-0.3-4.2-2.6-4.7-2.9c-4.6-2-6.7-2.1-8.5-3.8c-0.7-0.7-1.3-3-2.9-5
						l2.6-2.6L102.4,260.7z"/>
					<linearGradient id="SVGID_23_" gradientUnits="userSpaceOnUse" x1="90.5574" y1="221.5419" x2="96.0323" y2="261.596">
						<stop  offset="0" style="stop-color:#6569B0"/>
						<stop  offset="1" style="stop-color:#55ACE0"/>
					</linearGradient>
					<path class="st45" d="M91.7,216.1c-4.1,6.6-7,18.5-10.7,26.6c-0.3,0.6-0.4,1.2-0.5,1.7c-0.7,2,0.4,3.7,1.8,5.5
						c3.4,4.4,6.1,8.3,13.1,13.5c0.5,0.4,1.1,0.4,1.8,0.5c0.4,0.3,1.1,0.9,1.5,1.2c-0.6-0.7,2.5-4.5,4-4.4c-0.4-0.5-0.8-0.9-1.3-1.5
						c-0.1-0.7-0.1-1.1-0.4-1.7c-1.2-2.4-5.3-8.2-9.3-12.3c1.6-2.1,3-4.6,4.1-6.3c2-3.1,3.8-6.3,5.4-9.4c0.6-1.2,1-1.8,1.6-3.1
						C107.5,217.1,96.7,208.1,91.7,216.1z"/>
				</g>
				<g>
					<g>
						<path class="st33" d="M121.1,204.4c0.1-0.4,0.2-0.8,0.3-1.2c0.2-1.2-0.1-3.6,0.3-6.3l-10.5-4.4c-0.2,5.9-1.1,7.1-2.2,11.9
							c0.1,4.7,11.8,6.8,12.1,1.3C121,205.2,121.1,204.8,121.1,204.4z"/>
						<linearGradient id="SVGID_24_" gradientUnits="userSpaceOnUse" x1="116.8767" y1="198.0737" x2="114.1535" y2="201.1284">
							<stop  offset="0" style="stop-color:#F58A7A"/>
							<stop  offset="1" style="stop-color:#F8A69A"/>
						</linearGradient>
						<path class="st46" d="M121.1,204.4c0.1-0.4,0.2-0.8,0.3-1.2c0.2-1.2-0.1-3.6,0.3-6.3l-10.5-4.4c0,1.3-0.1,2.4-0.2,3.4
							c-0.4,3.9,3.4,10.7,10.1,9.8C121,205.2,121.1,204.8,121.1,204.4z"/>
						<path class="st33" d="M121.7,204.1c-1.3-0.9-4.8-3-6-3.8c-2.5-1.9-2.2-4.2-2.9-7.9c-2.4-1.7-3.2-3-3.4-4.5
							c-0.5-3.6,1.5-7.5,4.3-9.6c2.4-1.8,5.2-2.4,8.3-1.7c6,1.3,8.5,5.9,8.8,11.1c0,0.4,0,0.9-0.2,1.3c-0.3,1-0.4,1.2-0.6,1.9
							c-0.3,1.5,0.7,2.1,0.3,4c-0.6,2.6-2.7,7.7-3.6,8.6C126.1,204.1,123.1,204.3,121.7,204.1z"/>
						<linearGradient id="SVGID_25_" gradientUnits="userSpaceOnUse" x1="126.0461" y1="189.0926" x2="122.6681" y2="197.4298">
							<stop  offset="0" style="stop-color:#FAB79F"/>
							<stop  offset="1" style="stop-color:#F8A69A"/>
						</linearGradient>
						<path class="st47" d="M130.5,185.4c0.1,0.7,0.2,1.5,0.3,2.3c0,0.4,0,0.9-0.2,1.3c-0.3,1-0.4,1.2-0.6,1.9
							c-0.3,1.5,0.7,2.1,0.3,4c-0.3,1.3-0.9,3.1-1.6,4.8c-3.9,2.9-7.3-0.7-7.8-1.3c-2.4-3.1-2.6-7.8-0.8-12.2
							C123,187.1,127.6,186.9,130.5,185.4z"/>
						<path class="st48" d="M107.8,186.1c0.2,2,1.7,7.1,2.9,9c1.2,2,0.7-0.4,1.3-1.8c0.5-1,2.1-1.2,2.6-2.2c0.2,0.9,0.6,1.8,1.1,2.1
							c0.4,0.2,1.1,0.5,1.2-0.6c0.1-3.7,1.9-4,1.3-6.2c-0.4-1.7-0.3-2.4,0.1-3c1.2,0.2,2,1.4,3.4,2c1,0.4,5.3,0.9,8.4-0.8
							c3-1.6,3.3-5.3,0.8-7.6c-1.4-1.3-3-1.6-5.1-3.1c-4.2-2.8-9.4-1.8-12.2,1.3C108,176.4,107.4,181.7,107.8,186.1z"/>
						<path class="st33" d="M113.6,189.2c-2.3-1-2.6,1.7-2.3,3.4c0.1,1.2,1.1,1.2,1.3,2.1c0.3,1.1,1.1,1.7,1.8,1.7
							c1.4,0.1,0.8-2.1,0.7-3C115.3,192.1,115,189.9,113.6,189.2z"/>
					</g>
					<linearGradient id="SVGID_26_" gradientUnits="userSpaceOnUse" x1="127.7255" y1="182.7714" x2="125.2356" y2="180.3841">
						<stop  offset="0" style="stop-color:#8B4892"/>
						<stop  offset="1" style="stop-color:#562F65"/>
					</linearGradient>
					<path class="st49" d="M119.8,181.7c-0.2,1.5,1.8,3.4,4.6,3.5c2.6,0.1,6.1-0.5,7.4-3.6c0.5-1.1-0.1-3.1-1.4-3.9
						c-0.9-0.6-2-0.5-3.1,0c-1.9,0.8-3.5,3-4.9,3.5C121.1,181.7,119.8,181.5,119.8,181.7z"/>
				</g>
			</g>
		</g>
		<g>
			<g>
				<linearGradient id="SVGID_27_" gradientUnits="userSpaceOnUse" x1="392.7449" y1="245.2411" x2="380.4701" y2="268.8398">
					<stop  offset="0" style="stop-color:#5A2E69"/>
					<stop  offset="1" style="stop-color:#24093D"/>
				</linearGradient>
				<path class="st50" d="M371.4,218.8c-3.4-0.5-6.1,1.8-7.5,5c-1.6,3.7-1.5,8.4-0.8,10.9c2.2,8.1-1.7,11.6-3.1,15.4
					c-0.6,1.7-0.9,3.8-0.8,6.2c0.1,2.9,1.8,4.4,3.2,7c0.4,2.7,1,5.1,2,7.2c3.8,7.7,16.8,11.4,29.2,10.8c9.9-0.5,19.5-4,23.9-8
					c4.8-4.4,5.4-15.7-2.6-16.8c-1.9-0.3-4-0.7-5.6-2.6c-1.1-1.3,0-4.8,0.2-9.5c0.3-4.5-0.8-9.3-7.3-10.8c-2.5-0.6-5-0.9-7.1-2.2
					c-4.6-3-2.9-8.6-7.9-11.9c-3-2-7.8-2.4-13.1-1C373.2,218.6,372.3,218.7,371.4,218.8z"/>
				<path class="st51" d="M368.5,223.1c-0.3,2.2,0.5,4.1,1.8,6c3.1,4.3,4.7,4,6.3,9.5c2.7-1.8,4.6-2.1,5.4-0.3
					c1.3,2.9,0.5,4.6,0.8,7.6c0.5,4.9,6.3-1.8,10.9,1.9c4.5,3.7,1.4,6.2,3.1,11.4c0.6,1.9,1.2,4.5,3,5.4c5.6,2.7,7.8,9.4-2.2,12.7
					c-6.2,2.1-15.3,1.6-22.8-1c-10-3.4-16.1-18.1-13.6-25.1c1.1-2.9,3.9-5.1,3.9-7.3C365.1,236.1,363.6,231.1,368.5,223.1z"/>
			</g>
			<g>
				<g>
					<linearGradient id="SVGID_28_" gradientUnits="userSpaceOnUse" x1="326.197" y1="234.6673" x2="327.0305" y2="234.0338">
						<stop  offset="0" style="stop-color:#F58A7A"/>
						<stop  offset="1" style="stop-color:#F8A69A"/>
					</linearGradient>
					<path class="st52" d="M323.2,230c-1.5,0.5-0.7,2.3-0.1,2.8c0.9,0.9,2.6,1.4,2.5,2.4c-0.2,1,5.5,3,5.5,2.9
						c-0.8-2.8-2.3-4.4-2.6-4.6C325.4,231.3,325.8,232.6,323.2,230z"/>
					<path class="st33" d="M327.2,241.7c3.3,4.4,5.9,12.8,9.2,16.8c1,1.2,2.6,3.3,4.4,3c9.3-1.6,0.8-5.2,1.8-7.8
						c-1.6-5.5-8.3-8.6-11-14.6c-0.2-0.4-0.3-0.9-0.5-1.2c-1.1-2.3-2.2-3-6.6-3.8c-1.3-0.2-1.7-0.7-2.5-1.3l-2.9-2.9
						c-1-0.8-1.8-1-2.2-0.8c-0.4,0.2-1.6,2.5-1.7,3.7v0c-0.2,0.5,0.3,1.3,1.5,2.2l3.6,5l0.3,0C324.7,240.5,326.3,240.9,327.2,241.7z
						"/>
				</g>
				<linearGradient id="SVGID_29_" gradientUnits="userSpaceOnUse" x1="331.187" y1="253.1068" x2="360.926" y2="246.375">
					<stop  offset="0" style="stop-color:#7D63AB"/>
					<stop  offset="1" style="stop-color:#E591BD"/>
				</linearGradient>
				<path class="st53" d="M342.2,263.4c6.5-0.6,15.7-1.7,20.7-4.2c3.3-1.7,9.1-8.9,5.8-12.9c-0.7-1.9-6.9,2.1-10,3.2
					c-5.5,2.1-9.2,3.1-15,4.6c-1.6-4.4-5.7-7.8-9-11.9c-0.5-0.7-1.1-1.1-1.8-1.5c-0.4-0.5-0.7-1-1-1.6c-0.6-0.2-4.1,1.2-5,3
					c0.3,0.3,0.8,1.1,1,1.5c0.3,0.5,0.3,1.2,0.5,1.8c0.9,2.1,5.4,11.2,8.4,14.7c1.1,1.4,2.8,3.7,4.7,3.4
					C341.9,263.4,342.1,263.4,342.2,263.4z"/>
				<path class="st1" d="M342.2,263.4c6.5-0.6,15.7-1.7,20.7-4.2c2.8-1.4,7.6-7,6.7-11.1c-1.2-1.1-1.9-1.8-3-1.7
					c-1.3,0.1-2.8,1.4-5.8,3c-4.5,2.3-8.7,2.5-12.2,6.6c-2.6,3-6.9,5.7-10.5,5.6c1,1.1,2.2,2.3,3.6,2
					C341.9,263.4,342.1,263.4,342.2,263.4z"/>
			</g>
			<path class="st1" d="M348.2,416.3l40.7-23.2c4.4-2,10.8-3.6,15.3-1.3c4.1,2.1,10.9,6.5,13.9,8.2c2.3,1.3,10.2,6,5.3,8.7
				c-14.5,7.9-28.9,16.8-43.6,24.8c-2.8,1.5-6.9,2.1-11.1,1.7c-4.3-0.4-8.6-1.6-12.1-3.6c-2.4-1.4-4.9-2.8-7.2-4.2
				c-3.2-1.9-4.9-4.1-5.1-6.1C344.2,419.4,345.5,417.6,348.2,416.3z"/>
			<g>
				<g>
					<g>
						<path class="st33" d="M391.8,383.1c-0.2,1,0.4,2.4,0.5,2.5c2.4,3.4-0.5,3.1-0.3,8c0,0.4-2,8.2-2,8.2s-4.7,1.1-5.1,1.1
							c-0.4-0.1-3.2-1.2-3.2-1.2c0.2-0.4,0.6-1.4,0.8-1.8c1.4-2.6,2.1-5.8,2.6-9.1c0.3-2.1,1-5.4,0.6-7.7L391.8,383.1z"/>
						<path class="st54" d="M381.6,401.7c-0.6,1.3-1,2.1-1.3,3.1c-0.2,0.5-0.1,1,0.1,1.3c1.1,1.5,6.8-1,8.8-2.6
							c1.3-1,1.3-2.3,1.7-3.9c0.5-2.3,0.6-2.6,1.2-5l0.4,6.5l0.5,0.3c0.2-2.7,0.6-6.2,1.1-8.4c0.2-0.9,0.5-1.9,0.6-2.4
							c0.3-2.9-1.1-4.5-2.4-5.3c0.4,1.8-1.2,4.7-1.9,8.4C389.4,398.2,385.5,401.8,381.6,401.7z"/>
					</g>
					<linearGradient id="SVGID_30_" gradientUnits="userSpaceOnUse" x1="366.5029" y1="310.4937" x2="394.2206" y2="364.5585">
						<stop  offset="0" style="stop-color:#3E4896"/>
						<stop  offset="1" style="stop-color:#2D3486"/>
					</linearGradient>
					<path class="st55" d="M360.8,293c0.4,2-1.6,9-1.1,11.6c0.5,8.8,2,16.2,8,33.8c0,0.2,5.4,11,5.8,12.1
						c3.7,11.5,8.3,23.9,12.2,35.5c1.4,1.1,5.8,0.8,6.4-2c-1.2-11.6,0.1-23-1.9-30.9c-1.5-6-3.5-8.8-6.7-13.3
						c-1-11.4-1.7-34.2-4.3-42.9L360.8,293z"/>
					<path class="st40" d="M360.8,293c0.4,2,1.8,5.7,2.3,8.4c1.7,4,5.1,9.6,7.5,14.2c0.7,5.6,0.5,13.1,4,23.6l3.2,24.2
						c2.6,7.6,5.4,15.3,7.9,22.6c1.4,1.1,5.8,0.8,6.4-2c-1.2-11.6,0.1-23-1.9-30.9c-1.5-6-3.5-8.8-6.7-13.3
						c-1-11.4-1.7-34.2-4.3-42.9L360.8,293z"/>
				</g>
				<g>
					<g>
						<path class="st33" d="M387.2,394.9c-0.1,1.1,0.4,2.1,0.5,3.2c0.2,1.6,0.4,3.4,0.4,5.7c-0.1,2.8-0.3,6.2-1.3,10.2
							c-0.3,1.4-1,2-1.4,4l-8.4,1.4c0.8-3.2,2-9.6,2.8-15l1.6-10.1L387.2,394.9z"/>
						<path class="st54" d="M387.6,397.5c0.5,1.7,1,2.6,1.1,4.9c0.1,2.3-1,5.9-0.9,8.7l0.1,4.5c0.1,2.6-0.6,4.5-3.6,6.6
							c-2.7,2-5.3,2.8-6.8,2.1c-1.1-0.5-1.9-2.4-0.3-7.3c1.3-4.1,1.7-8.1,2.5-12.5c-0.3,4.4-0.4,5.8-1.4,10.1
							c-0.3,1.2-0.5,3.2,0.9,3.4c5.9,0.8,6.2-0.7,6.6-2.5C387.2,410.7,388.2,402.1,387.6,397.5z"/>
					</g>
					<linearGradient id="SVGID_31_" gradientUnits="userSpaceOnUse" x1="360.5355" y1="321.2327" x2="403.0822" y2="369.0571">
						<stop  offset="0" style="stop-color:#3E4896"/>
						<stop  offset="1" style="stop-color:#2D3486"/>
					</linearGradient>
					<path class="st56" d="M389.7,299.9c6.5,8.2,6.7,12.7,5.3,22.5c-0.9,6.6-2.9,14.5-3.3,26c0.6,5.9,1.6,12.6,0.8,21.8
						c-0.6,6.8-2.5,18.4-3.9,26.7c-1.4,2.5-7.8,1.4-8.8,0.1c0.3-11.8,0.1-19.9-0.4-29.4c-0.5-9.3-1.7-17.9-2.3-27
						c-0.6-7.6-2.9-17.9-3.2-26c-1.2-3.9-12.8-16.6-10.4-16.4L389.7,299.9z"/>
				</g>
			</g>
			<g>
				<linearGradient id="SVGID_32_" gradientUnits="userSpaceOnUse" x1="372.1576" y1="293.1705" x2="378.1995" y2="257.3624">
					<stop  offset="0" style="stop-color:#7D63AB"/>
					<stop  offset="1" style="stop-color:#E591BD"/>
				</linearGradient>
				<path class="st57" d="M389,281.5c-2.9,6.8,2,10.5,0.3,15.2l0.6,3.2c-5.3,3.8-24.4,4.1-29.2-3.5l-0.1-3.8c-0.8-1.8-0.3-6.4,0-7.6
					c0.8-3.8,0.4-5.9,0.8-10.3c0.1-1.1,0.3-1.8,0.4-3c-4.3-3.2-4-9.3-1.5-13c1.6-2.3,2.5-4,3.3-5.8c0.2-1.4,0.5-2.6,0.7-3.3
					c0.2-0.7,0.5-1.3,0.9-1.8c1.2-1.7,3.2-1.9,7.2-1c7.9,1.8,16.1,5.9,19.8,9.8c2.7,2.8,2.5,6,1,12.7
					C392.1,273.6,390.4,278.1,389,281.5z"/>
				<path class="st1" d="M389,281.5c-2.9,6.8,1.9,10.6,0.1,15.3l0.6,3.1c-5.3,4.2-24.4,4-29.2-3.6l0.1-3.3c0-0.1,9.4,8.3,20,3.6
					c2.3-1,4.4-6.1,1.4-15.8c-0.3-0.9-3.7-1-8.5-4.5c3.6,1.5,10.3,3.6,10.6-5.5c0.1-4,0.7-7.1,2.8-9.9c1-1.4,6.9,5.8,6,9.2
					C391.8,274.5,390.1,278.9,389,281.5z"/>
			</g>
			<g>
				<linearGradient id="SVGID_33_" gradientUnits="userSpaceOnUse" x1="388.495" y1="305.4521" x2="387.14" y2="302.9987">
					<stop  offset="0" style="stop-color:#F58A7A"/>
					<stop  offset="1" style="stop-color:#F8A69A"/>
				</linearGradient>
				<path class="st58" d="M391.5,296.5c-1,0.6-2.7,1.2-3.5,1.6c-0.4,0.2-3,1.9-4.5,2.9c-1.6,1.1-2,2.6-3,4.3c-0.7,1.4-1,2.4-1.1,3.1
					c-0.1,0.7,1.7,2.1,2.5,1.9c1.8-0.4,3.6-2.6,4-2.8c4-2.1,5.9-2.3,7.3-3.9c0.6-0.7,1-2.7,2.2-4.6l-2.4-2.2L391.5,296.5z"/>
				<linearGradient id="SVGID_34_" gradientUnits="userSpaceOnUse" x1="401.0862" y1="288.7604" x2="393.9188" y2="258.525">
					<stop  offset="0" style="stop-color:#7D63AB"/>
					<stop  offset="1" style="stop-color:#E591BD"/>
				</linearGradient>
				<path class="st59" d="M392,256c5.9,3.7,12.4,13.9,18.2,23c1.2,1.5,0.9,3.4,0.2,4.5c-0.2,0.6-0.6,1.3-1.1,2.1
					c-2.8,4.1-5.5,7.7-11.4,12.7c-0.4,0.4-1.1,0.5-1.7,0.7c-0.4,0.3-0.9,0.9-1.3,1.2c0.5-0.6-2.5-3.8-3.8-3.6c0.3-0.4,0.7-0.9,1-1.4
					c0-0.6,0-1,0.2-1.5c1.9-4.4,4.4-8.8,7.4-12.1c-5.3-5.7-8.3-7.1-13.3-13.2C380.6,261.1,388.1,253.5,392,256z"/>
			</g>
			<g>
				<path class="st33" d="M379.8,241c-0.6,3.5-0.3,6.8,0.8,10.2c-2.9,2.7-8,1.5-9.1-0.9c0.3-1.6,0.5-3,0.7-4.6L379.8,241z"/>
				<linearGradient id="SVGID_35_" gradientUnits="userSpaceOnUse" x1="375.8857" y1="245.8696" x2="376.4662" y2="248.7729">
					<stop  offset="0" style="stop-color:#F58A7A"/>
					<stop  offset="1" style="stop-color:#F8A69A"/>
				</linearGradient>
				<path class="st60" d="M379.8,241c-0.3,1.7-0.4,3.3-0.3,4.9c-0.8,3.4-7.2,5.7-7.9,3c0.2-1,0.4-2.1,0.5-3.2L379.8,241z"/>
				<path class="st33" d="M367.9,226.2c-1.4,2.3-2.2,4.5-1.9,7.8c0.1,0.8,0,1.3-0.3,1.9c-1.3,3-1.2,3.9-0.6,6.4
					c0.6,2.3,0.6,3.6,1.4,4.4c0.8,0.8,2.1,1,3.1,1.1c2.1,0.1,5.8-1.3,7.9-2.4c1.6-0.9,1.5-1.5,2.2-3c2.2-1.9,0.8-3.4,0-3.5
					c-2.1-0.4-2.5,2.1-3.8,2.6C376.4,237,368.1,229.7,367.9,226.2z"/>
				<linearGradient id="SVGID_36_" gradientUnits="userSpaceOnUse" x1="365.5542" y1="234.5501" x2="370.0284" y2="241.7961">
					<stop  offset="0" style="stop-color:#FAB79F"/>
					<stop  offset="1" style="stop-color:#F8A69A"/>
				</linearGradient>
				<path class="st61" d="M367,228c-0.8,1.7-1.2,3.6-0.9,6c0.1,0.8,0,1.3-0.3,1.9c-1.3,3-1.2,3.9-0.6,6.4c0.3,1.1,0.4,1.9,0.6,2.5
					c0.5,0.8,1.5,1.1,2.5,0.7c0.9-0.4,1.8-1.5,2-3.2c0.2-1.2,2.7-2.1,3.2-3.3c0.4-1.1-0.7-2.2-1.5-2.8C369.6,234,368,231.1,367,228z
					"/>
				<path class="st62" d="M367.9,226.2c1.2,5.3,8.2,9.4,8.2,15.2C374.2,235.4,367.5,231.2,367.9,226.2z"/>
			</g>
		</g>
	</g>
</g>
</svg>
