<?xml version="1.0" encoding="utf-8"?>
<!-- Generator: Adobe Illustrator 24.2.3, SVG Export Plug-In . SVG Version: 6.00 Build 0)  -->
<svg version="1.1" id="Layer_1" xmlns="http://www.w3.org/2000/svg" xmlns:xlink="http://www.w3.org/1999/xlink" x="0px" y="0px"
	 viewBox="0 0 500 500" style="enable-background:new 0 0 500 500;" xml:space="preserve">
<style type="text/css">
	.st0{opacity:0.4;fill:#577CA0;}
	.st1{fill:#3D5476;}
	.st2{fill:#F36E54;}
	.st3{fill:#E8573E;}
	.st4{fill:#FFFFFF;}
	.st5{fill:#BDD1DB;}
	.st6{fill:#577CA0;}
	.st7{fill:#212A38;}
	.st8{fill:#FBBFA7;}
	.st9{fill:#BF3C27;}
	.st10{fill:#D8E4EA;}
</style>
<g>
	<polygon class="st0" points="177.6,337.1 93.4,386.1 177.9,435 262.4,386.1 	"/>
	<g>
		<path class="st1" d="M151,255.1c0.2,0.1,0.3,0.2,0.5,0.3C151.4,255.3,151.2,255.2,151,255.1z M149.3,254.1
			c-5.3-3.4-9.9-8.1-14.2-12.7C139.4,245.9,144,250.7,149.3,254.1z M131.6,237.6c-1.5-1.6-3-3.1-4.4-4.5
			C128.6,234.5,130.1,236.1,131.6,237.6z M125.9,232c-1-0.9-1.9-1.7-2.9-2.4C124,230.3,124.9,231.1,125.9,232z M120.8,228.2
			c0,0,0.1,0.1,0.1,0.1C120.9,228.2,120.9,228.2,120.8,228.2z M244,302.8c-10.4-6.2-17.6-16.2-24.4-26.3
			C226.4,286.6,233.7,296.6,244,302.8z M217,272.6c-0.2-0.2-0.3-0.5-0.5-0.7C216.7,272.1,216.8,272.3,217,272.6z M151.1,226.7
			c0.2,0.1,0.3,0.2,0.5,0.3C151.5,226.9,151.3,226.8,151.1,226.7z M152.4,227.4c0.3,0.1,0.5,0.3,0.8,0.4
			C152.9,227.7,152.6,227.5,152.4,227.4z M150,226c-3.8-2.5-7.3-6-10.5-9.9C142.7,220,146.2,223.6,150,226z M214.1,268.3
			c-5.3-7.8-10.7-14.9-17.4-19.5C203.5,253.4,208.9,260.5,214.1,268.3z M191.8,246c0.2,0.1,0.5,0.2,0.7,0.3
			C192.3,246.2,192,246.1,191.8,246z M194.2,247.2c0.1,0.1,0.2,0.1,0.3,0.2C194.4,247.3,194.3,247.2,194.2,247.2z M133.5,208.5
			c-1.2-1.6-2.4-3.1-3.6-4.6C131.1,205.4,132.3,206.9,133.5,208.5z M127.3,200.6c-0.2-0.2-0.4-0.5-0.6-0.7
			C126.8,200.1,127,200.3,127.3,200.6z M244.1,271.4c-8.9-5.4-15.5-15.7-21.5-26.9C228.6,255.6,235.3,266,244.1,271.4z M218.4,236.3
			c-0.5-1-1.1-2.1-1.6-3.1C217.4,234.2,217.9,235.2,218.4,236.3z M191.9,201c-21.3-8.2-20.3,32.9-36.8,27.5
			c-0.2-0.1-0.5-0.2-0.7-0.2c0.2,0.1,0.5,0.2,0.7,0.2C171.7,233.9,170.6,192.8,191.9,201c0.3,0.1,0.5,0.2,0.8,0.3
			C192.5,201.2,192.2,201.1,191.9,201z M215.9,231.3c-6-11.9-12-22.9-19.9-28.2C203.9,208.5,209.9,219.5,215.9,231.3z M193.8,201.9
			c0.3,0.2,0.6,0.3,0.9,0.5C194.4,202.2,194.1,202,193.8,201.9z M100.7,114.3c0-5.8,4.1-8.2,9.2-5.2l158.8,91.7
			c5,2.9,9.1,10,9.1,15.8l-0.1,45.2c-6.1,9.8-14.6,19.3-31.7,10.6c17.1,8.7,25.6-0.8,31.7-10.6l-0.1,41.2l-0.1,31
			c0,5.8-4.1,8.2-9.2,5.2l-158.8-91.7c-5-2.9-9.1-10-9.1-15.8l0-4.2l0.1-27.6c4.7-7.7,11.8-9.9,20.5-5.1c0,0,0.1,0.1,0.1,0.1
			c0,0-0.1-0.1-0.1-0.1c-8.7-4.9-15.8-2.6-20.5,5.1L100.7,114.3z M243,177.8c0-1.8,1.3-2.6,2.9-1.6c1.6,0.9,2.9,3.2,2.9,5
			c0,1.8-1.3,2.6-2.9,1.6C244.3,181.9,243,179.7,243,177.8z M251.8,182.9c0-1.8,1.3-2.6,2.9-1.6c1.6,0.9,2.9,3.2,2.9,5
			c0,1.8-1.3,2.6-2.9,1.6C253.1,187,251.8,184.8,251.8,182.9z M260.6,188c0-1.8,1.3-2.6,2.9-1.6c1.6,0.9,2.9,3.1,2.8,5
			c0,1.8-1.3,2.6-2.9,1.7C261.9,192.1,260.6,189.9,260.6,188z M105.8,90.5c-5.3-3.1-9.6-0.6-9.6,5.5l-0.4,138.1
			c0,6.1,4.3,13.6,9.6,16.6l167.1,96.5c5.3,3.1,9.6,0.6,9.6-5.5l0.4-138.1c0-6.1-4.3-13.6-9.6-16.6L105.8,90.5z"/>
		<path class="st2" d="M246,272.4c-0.2-0.1-0.4-0.2-0.5-0.3l-0.1,31.4c0.2,0.1,0.4,0.2,0.5,0.3c17.1,9.1,25.6,4.4,31.7-0.9l0.1-41.2
			C271.6,271.5,263,281.1,246,272.4z M192.7,201.3c-0.3-0.1-0.5-0.2-0.8-0.3c-21.3-8.2-20.3,32.9-36.8,27.5
			c-0.2-0.1-0.5-0.2-0.7-0.2c-0.4-0.2-0.9-0.3-1.3-0.5c-0.3-0.1-0.5-0.2-0.8-0.4c-0.2-0.1-0.5-0.2-0.7-0.4c-0.2-0.1-0.3-0.2-0.5-0.3
			c-0.4-0.2-0.8-0.5-1.2-0.7c-3.8-2.5-7.3-6-10.5-9.9c-1.5-1.8-2.9-3.6-4.3-5.4c-0.2-0.2-0.3-0.4-0.5-0.6c-0.4-0.5-0.8-1.1-1.2-1.6
			c-1.2-1.6-2.4-3.1-3.6-4.6c-0.9-1.2-1.8-2.3-2.7-3.3c-0.2-0.2-0.4-0.5-0.6-0.7c-0.9-1-1.8-1.9-2.7-2.7c-0.7-0.6-1.4-1.2-2.1-1.6
			c-0.3-0.2-0.5-0.4-0.8-0.5c0,0-0.1-0.1-0.1-0.1c-8.7-4.9-15.8-2.6-20.5,5.1l-0.1,27.6c4.2-3.8,10.5-4.3,18.1-0.6l0.1-33.1
			c0.4,0.2,0.8,0.4,1.2,0.6l-0.1,33.2c0.4,0.2,0.7,0.4,1.1,0.6c0,0,0.1,0.1,0.1,0.1c0.7,0.4,1.4,0.8,2,1.3c1,0.7,1.9,1.5,2.9,2.4
			c0.4,0.4,0.8,0.8,1.3,1.2c1.4,1.4,2.9,2.9,4.4,4.5c1,1.1,2,2.2,3.1,3.3c0.2,0.2,0.3,0.3,0.5,0.5c4.3,4.5,9,9.3,14.2,12.7
			c0.6,0.4,1.1,0.7,1.7,1.1c0.2,0.1,0.3,0.2,0.5,0.3c1.1,0.6,2.3,1.2,3.5,1.7c16.5,6.8,15.4-20.7,36.8-11.1c0.2,0.1,0.5,0.2,0.7,0.3
			L192.7,201.3c0.2,0.1,0.5,0.2,0.8,0.4C193.3,201.6,193,201.4,192.7,201.3z M193.8,201.9l-0.1,45c0.2,0.1,0.3,0.2,0.5,0.3
			c0.1,0.1,0.2,0.1,0.3,0.2c0.8,0.4,1.5,0.9,2.2,1.4c6.7,4.6,12.1,11.8,17.4,19.5c0.8,1.2,1.6,2.4,2.4,3.6c0.2,0.2,0.3,0.5,0.5,0.7
			c0.4,0.6,0.9,1.3,1.3,1.9c0.4,0.6,0.9,1.3,1.3,1.9c6.8,10.1,14.1,20.2,24.5,26.4c0,0,0.1-31.4,0-31.5
			c-8.9-5.4-15.5-15.7-21.5-26.9c-1.4-2.7-2.8-5.4-4.2-8.2c-0.5-1-1.1-2.1-1.6-3.1c-0.3-0.6-0.6-1.2-0.9-1.8
			c-6-11.9-12-22.9-19.9-28.2c-0.4-0.3-0.9-0.6-1.3-0.8C194.4,202.2,194.1,202,193.8,201.9z"/>
		<path class="st3" d="M194.5,247.4c-0.1-0.1-0.2-0.1-0.3-0.2c-0.2-0.1-0.3-0.2-0.5-0.3l-0.1,49.2l-1.2-0.7l0.1-49.1
			c-0.2-0.1-0.5-0.2-0.7-0.3c-21.3-9.6-20.2,17.9-36.8,11.1c-1.2-0.5-2.4-1.1-3.5-1.7c-0.2-0.1-0.3-0.2-0.5-0.3
			c-0.6-0.3-1.2-0.7-1.7-1.1c-5.3-3.4-9.9-8.1-14.2-12.7c-0.2-0.2-0.3-0.3-0.5-0.5c-1-1.1-2.1-2.2-3.1-3.3c-1.5-1.6-3-3.1-4.4-4.5
			c-0.4-0.4-0.8-0.8-1.3-1.2c-1-0.9-1.9-1.7-2.9-2.4c-0.7-0.5-1.4-1-2-1.3c0,0-0.1-0.1-0.1-0.1c-0.4-0.2-0.8-0.4-1.1-0.6l-0.1,25.8
			l-1.2-0.7l0.1-25.7c-7.7-3.7-13.9-3.2-18.1,0.6l0,4.2c0,5.8,4.1,12.9,9.1,15.8l158.8,91.7c5,2.9,9.1,0.5,9.2-5.2l0.1-31
			c-6.1,5.3-14.6,10-31.7,0.9c-0.2-0.1-0.4-0.2-0.5-0.3l-0.1,22.4l-1.2-0.7l0.1-22.4c-10.5-6.2-17.8-16.3-24.5-26.4
			c-0.4-0.6-0.9-1.3-1.3-1.9c-0.4-0.6-0.9-1.3-1.3-1.9c-0.2-0.2-0.3-0.5-0.5-0.7c-0.8-1.2-1.6-2.4-2.4-3.6
			c-5.3-7.8-10.7-14.9-17.4-19.5C196,248.3,195.3,247.8,194.5,247.4z"/>
		<path class="st4" d="M251.4,252.6c0-1.1,0.8-1.5,1.7-1l10,5.8c0.9,0.5,1.7,1.9,1.7,3c0,1.1-0.8,1.5-1.7,1l-10-5.8
			C252.2,255,251.4,253.6,251.4,252.6z M240.9,246.5c0-2.5,1.8-3.5,4-2.3c2.2,1.3,4,4.4,4,6.9c0,2.5-1.8,3.6-4,2.3
			C242.7,252.1,240.9,249,240.9,246.5z M125.8,171.3c0-1.1,0.8-1.5,1.7-1l10,5.8c0.9,0.5,1.7,1.8,1.7,2.9c0,1.1-0.8,1.5-1.7,1
			l-10-5.8C126.5,173.7,125.8,172.4,125.8,171.3z M115.3,165.2c0-2.5,1.8-3.6,4-2.3c2.2,1.3,4,4.4,4,6.9c0,2.5-1.8,3.5-4,2.3
			C117,170.8,115.3,167.7,115.3,165.2z M199.8,183.7c0-1.1,0.8-1.5,1.7-1l10,5.8c0.9,0.5,1.7,1.9,1.7,3c0,1.1-0.8,1.5-1.7,1l-10-5.8
			C200.6,186.1,199.8,184.7,199.8,183.7z M189.3,177.6c0-2.5,1.8-3.5,4-2.3c2.2,1.3,4,4.3,4,6.9c0,2.5-1.8,3.6-4,2.3
			C191.1,183.2,189.3,180.1,189.3,177.6z M109.8,109.1c-5-2.9-9.1-0.6-9.2,5.2l-0.2,85.7c4.7-7.7,11.8-9.9,20.5-5.1
			c0,0,0.1,0.1,0.1,0.1c0.3,0.2,0.5,0.3,0.8,0.5c0.7,0.5,1.4,1,2.1,1.6c0.9,0.8,1.8,1.7,2.7,2.7c0.2,0.2,0.4,0.5,0.6,0.7
			c0.9,1,1.8,2.1,2.7,3.3c1.2,1.5,2.3,3,3.6,4.6c0.4,0.5,0.8,1,1.2,1.6c0.2,0.2,0.3,0.4,0.5,0.6c1.4,1.8,2.8,3.7,4.3,5.4
			c3.2,3.9,6.7,7.4,10.5,9.9c0.4,0.2,0.8,0.5,1.2,0.7c0.2,0.1,0.3,0.2,0.5,0.3c0.2,0.1,0.5,0.3,0.7,0.4c0.3,0.1,0.5,0.3,0.8,0.4
			c0.4,0.2,0.8,0.4,1.3,0.5c0.2,0.1,0.5,0.2,0.7,0.2c16.5,5.4,15.4-35.7,36.8-27.5c0.3,0.1,0.5,0.2,0.8,0.3c0.3,0.1,0.5,0.2,0.8,0.4
			c0.1,0,0.2,0.1,0.3,0.1c0.3,0.2,0.6,0.3,0.9,0.5c0.5,0.3,0.9,0.5,1.3,0.8c7.8,5.3,13.8,16.3,19.9,28.2c0.3,0.6,0.6,1.2,0.9,1.8
			c0.5,1,1.1,2.1,1.6,3.1c1.4,2.7,2.8,5.5,4.2,8.2c6,11.2,12.6,21.5,21.6,27c0.4,0.2,0.8,0.5,1.2,0.7c0.2,0.1,0.4,0.2,0.5,0.3
			c17.1,8.7,25.6-0.8,31.7-10.6l0.1-45.2c0-5.8-4.1-12.9-9.1-15.8L109.8,109.1z"/>
		<path class="st4" d="M263.5,186.4c-1.6-0.9-2.9-0.2-2.9,1.6c0,1.8,1.3,4,2.9,5c1.6,0.9,2.9,0.2,2.9-1.7
			C266.4,189.5,265.1,187.3,263.5,186.4z"/>
		<path class="st3" d="M254.7,181.3c-1.6-0.9-2.9-0.2-2.9,1.6c0,1.8,1.3,4,2.9,5c1.6,0.9,2.9,0.2,2.9-1.6
			C257.6,184.4,256.3,182.2,254.7,181.3z"/>
		<path class="st5" d="M245.9,176.2c-1.6-0.9-2.9-0.2-2.9,1.6c0,1.8,1.3,4.1,2.9,5c1.6,0.9,2.9,0.2,2.9-1.6
			C248.8,179.3,247.5,177.1,245.9,176.2z"/>
		<path class="st2" d="M119.3,162.9c-2.2-1.3-4-0.2-4,2.3c0,2.5,1.8,5.6,4,6.9c2.2,1.3,4,0.3,4-2.3
			C123.2,167.3,121.5,164.2,119.3,162.9z"/>
		<path class="st2" d="M193.3,175.3c-2.2-1.3-4-0.3-4,2.3c0,2.5,1.8,5.6,4,6.9c2.2,1.3,4,0.2,4-2.3
			C197.3,179.7,195.5,176.6,193.3,175.3z"/>
		<path class="st2" d="M244.9,244.2c-2.2-1.3-4-0.2-4,2.3c0,2.5,1.8,5.6,4,6.9c2.2,1.3,4,0.3,4-2.3
			C248.9,248.6,247.1,245.5,244.9,244.2z"/>
		<path class="st4" d="M119.8,194.4c-0.4-0.2-0.8-0.4-1.2-0.6l-0.1,33.1l-0.1,25.7l1.2,0.7l0.1-25.8L119.8,194.4z"/>
		<path class="st4" d="M193.8,201.8c-0.1-0.1-0.2-0.1-0.3-0.1c-0.3-0.1-0.6-0.3-0.9-0.4l-0.1,45l-0.1,49.1l1.2,0.7l0.1-49.2
			C193.7,246.9,193.8,201.9,193.8,201.8z"/>
		<path class="st4" d="M245.4,272.1c-0.4-0.2-0.8-0.4-1.2-0.7c0,0-0.1,31.5-0.1,31.5l-0.1,22.4l1.2,0.7l0.1-22.4
			C245.3,303.5,245.4,272.1,245.4,272.1z"/>
		<path class="st6" d="M137.5,176.1l-10-5.8c-1-0.5-1.7-0.1-1.7,1c0,1.1,0.8,2.4,1.7,3l10,5.8c0.9,0.5,1.7,0.1,1.7-1
			C139.2,177.9,138.5,176.6,137.5,176.1z"/>
		<path class="st6" d="M211.5,188.5l-10-5.8c-0.9-0.5-1.7-0.1-1.7,1c0,1.1,0.8,2.4,1.7,2.9l10,5.8c0.9,0.5,1.7,0.1,1.7-1
			C213.2,190.3,212.5,189,211.5,188.5z"/>
		<path class="st6" d="M263.2,257.3l-10-5.8c-0.9-0.5-1.7-0.1-1.7,1c0,1.1,0.8,2.4,1.7,2.9l10,5.8c0.9,0.5,1.7,0.1,1.7-1
			C264.9,259.2,264.1,257.9,263.2,257.3z"/>
		<path class="st7" d="M289.6,198.9c0-0.2,0-0.3,0-0.5c0-0.2,0-0.3,0-0.5c0-0.2,0-0.3-0.1-0.5c0-0.2,0-0.3-0.1-0.5
			c0-0.2-0.1-0.3-0.1-0.5c0-0.2-0.1-0.3-0.1-0.5c0-0.2-0.1-0.3-0.1-0.5c0-0.2-0.1-0.3-0.1-0.5c0-0.1-0.1-0.3-0.1-0.4
			c-0.1-0.3-0.1-0.4-0.2-0.6c-0.1-0.2-0.1-0.3-0.2-0.5c-0.1-0.2-0.1-0.3-0.2-0.5c-0.1-0.2-0.1-0.3-0.2-0.5c0-0.1-0.1-0.2-0.2-0.4
			c-0.1-0.3-0.2-0.4-0.3-0.6c-0.1-0.2-0.2-0.3-0.2-0.5c-0.1-0.2-0.2-0.4-0.3-0.6c-0.1-0.2-0.2-0.4-0.3-0.6c-0.1-0.1-0.1-0.2-0.1-0.2
			c-0.2-0.4-0.5-0.8-0.7-1.1c-0.2-0.3-0.4-0.6-0.6-0.9c-0.1-0.2-0.3-0.4-0.4-0.6c-0.1-0.2-0.2-0.3-0.4-0.5c-0.1-0.1-0.2-0.3-0.4-0.4
			c-0.1-0.1-0.2-0.3-0.4-0.4c-0.2-0.2-0.3-0.3-0.4-0.4c-0.1-0.1-0.3-0.3-0.4-0.4c-0.1-0.1-0.3-0.3-0.4-0.4c-0.1-0.1-0.3-0.3-0.4-0.4
			c-0.1-0.1-0.1-0.1-0.2-0.2c-0.1-0.1-0.2-0.1-0.2-0.2c-0.1-0.1-0.3-0.2-0.4-0.3c-0.1-0.1-0.3-0.2-0.4-0.3c-0.1-0.1-0.3-0.2-0.4-0.3
			c-0.1-0.1-0.3-0.2-0.4-0.2c-0.1-0.1-167.2-96.5-167.2-96.5c-0.1-0.1-0.2-0.1-0.3-0.2c-0.1-0.1-0.3-0.1-0.4-0.2
			c-0.1-0.1-0.3-0.1-0.4-0.2c-0.1-0.1-0.3-0.1-0.4-0.2c-0.1-0.1-0.3-0.1-0.4-0.1c-0.2-0.1-0.3-0.1-0.4-0.1c-0.1,0-0.3-0.1-0.4-0.1
			c-0.1,0-0.3-0.1-0.4-0.1c-0.1,0-0.3-0.1-0.4-0.1c-0.1,0-0.2,0-0.3,0c-0.3,0-0.4,0-0.6,0c-0.2,0-0.3,0-0.5,0c-0.2,0-0.4,0-0.6,0.1
			c-0.3,0.1-0.5,0.1-0.7,0.2c-0.3,0.1-0.5,0.2-0.8,0.4l-7.2,4.2c0.4-0.3,0.9-0.4,1.4-0.5c0.5-0.1,1.1-0.1,1.6-0.1
			c0.6,0.1,1.2,0.2,1.8,0.4c0.7,0.2,1.3,0.5,2,0.9L272.8,187c0.7,0.4,1.3,0.8,1.9,1.3c0.7,0.5,1.2,1.1,1.8,1.7
			c0.6,0.6,1.1,1.3,1.6,2c0.5,0.7,1,1.4,1.4,2.1c0.5,0.8,0.9,1.6,1.2,2.3c0.4,0.8,0.6,1.6,0.9,2.4c0.2,0.8,0.4,1.6,0.6,2.4
			c0.1,0.8,0.2,1.6,0.2,2.3L282,341.7c0,0.7-0.1,1.4-0.2,2.1c-0.1,0.7-0.3,1.2-0.6,1.8c-0.2,0.5-0.5,0.8-0.7,1.2
			c-0.1,0.1-0.2,0.2-0.3,0.3c-0.3,0.3-0.7,0.6-1.1,0.9l7.2-4.2c0.4-0.2,0.7-0.5,1.1-0.9c0.1-0.1,0.2-0.2,0.3-0.3
			c0.1-0.1,0.2-0.3,0.3-0.4c0.1-0.2,0.3-0.4,0.4-0.7c0.1-0.2,0.2-0.4,0.2-0.5c0.1-0.2,0.1-0.3,0.2-0.5c0-0.2,0.1-0.3,0.1-0.5
			c0-0.1,0-0.1,0-0.2c0-0.1,0-0.2,0.1-0.3c0-0.2,0-0.3,0.1-0.5c0-0.2,0-0.3,0-0.5c0-0.1,0-0.3,0-0.5c0-0.2,0-0.3,0-0.5
			c0,0,0.4-138.2,0.4-138.2C289.6,199.2,289.6,199.1,289.6,198.9z"/>
	</g>
	<g>
		<path class="st1" d="M246.4,214.5l0.2-78.6c0-6.7,4.8-9.5,10.7-6.1L382.2,202c5.9,3.4,10.6,11.6,10.6,18.4l-0.2,78.6
			c0,6.7-4.8,9.5-10.7,6.1L257,232.8C251.1,229.4,246.4,221.2,246.4,214.5z M352.4,175.3c0-2.1,1.5-3,3.4-1.9
			c1.8,1.1,3.3,3.6,3.3,5.8c0,2.1-1.5,2.9-3.4,1.9C353.9,180,352.3,177.4,352.4,175.3z M362.6,181.2c0-2.1,1.5-3,3.4-1.9
			c1.8,1.1,3.3,3.6,3.3,5.8c0,2.1-1.5,2.9-3.4,1.9C364.1,185.9,362.6,183.3,362.6,181.2z M372.9,187.1c0-2.1,1.5-3,3.4-1.9
			c1.8,1.1,3.3,3.6,3.3,5.8c0,2.1-1.5,2.9-3.4,1.9C374.4,191.8,372.8,189.2,372.9,187.1z M252.5,108.2c-6.2-3.6-11.2-0.7-11.2,6.4
			L241,217.3c0,7.1,5,15.7,11.1,19.3l134.6,77.7c6.2,3.6,11.2,0.7,11.2-6.4l0.3-102.7c0-7.1-5-15.7-11.1-19.3L252.5,108.2z"/>
		<path class="st7" d="M262.4,217.3c0-3.4,2.5-4.9,5.5-3.1l103.4,59.7c3,1.7,5.5,6,5.4,9.4c0,3.5-2.5,4.9-5.5,3.1l-103.4-59.7
			C264.8,225,262.3,220.8,262.4,217.3z M262.4,195.4c0-3.4,2.5-4.9,5.5-3.1l24.2,14c3,1.7,5.5,6,5.4,9.4c0,3.4-2.5,4.9-5.5,3.1
			l-24.2-14C264.8,203.1,262.4,198.8,262.4,195.4z M262.5,173.4c0-3.5,2.5-4.9,5.5-3.1l38.6,22.3c3,1.7,5.5,6,5.4,9.4
			c0,3.4-2.5,4.9-5.5,3.1l-38.6-22.3C264.9,181.1,262.5,176.9,262.5,173.4z M262.5,151.4c0-3.4,2.5-4.9,5.5-3.1l73.7,42.6
			c3,1.7,5.5,6,5.4,9.4c0,3.5-2.5,4.9-5.5,3.1L268,160.9C265,159.1,262.5,154.9,262.5,151.4z M257.3,129.8
			c-5.9-3.4-10.6-0.7-10.7,6.1l-0.2,78.6c0,6.7,4.7,15,10.6,18.3L381.9,305c5.9,3.4,10.7,0.7,10.7-6.1l0.2-78.6
			c0-6.7-4.7-15-10.6-18.4L257.3,129.8z"/>
		<path class="st4" d="M376.2,185.2c-1.8-1.1-3.4-0.2-3.4,1.9c0,2.1,1.5,4.7,3.3,5.8c1.8,1.1,3.4,0.2,3.4-1.9
			C379.6,188.8,378.1,186.3,376.2,185.2z"/>
		<path class="st3" d="M366,179.3c-1.8-1.1-3.4-0.2-3.4,1.9c0,2.1,1.5,4.7,3.3,5.8c1.8,1.1,3.4,0.2,3.4-1.9
			C369.3,182.9,367.8,180.3,366,179.3z"/>
		<path class="st5" d="M355.7,173.4c-1.8-1.1-3.4-0.2-3.4,1.9c0,2.1,1.5,4.7,3.3,5.8c1.8,1.1,3.4,0.2,3.4-1.9
			C359.1,177,357.6,174.4,355.7,173.4z"/>
		<path class="st5" d="M341.7,190.9L268,148.3c-3-1.7-5.5-0.3-5.5,3.1c0,3.5,2.4,7.7,5.4,9.4l73.7,42.6c3,1.7,5.5,0.3,5.5-3.1
			C347.2,196.8,344.7,192.6,341.7,190.9z"/>
		<path class="st4" d="M292.1,206.2l-24.2-14c-3-1.7-5.5-0.3-5.5,3.1c0,3.4,2.4,7.7,5.4,9.4l24.2,14c3,1.7,5.5,0.3,5.5-3.1
			C297.6,212.2,295.1,208,292.1,206.2z"/>
		<path class="st3" d="M371.2,273.9l-103.4-59.7c-3-1.7-5.5-0.3-5.5,3.1c0,3.5,2.4,7.7,5.4,9.4l103.4,59.7c3,1.7,5.5,0.3,5.5-3.1
			C376.7,279.9,374.2,275.6,371.2,273.9z"/>
		<path class="st2" d="M306.5,192.5L268,170.3c-3-1.7-5.5-0.3-5.5,3.1c0,3.4,2.4,7.7,5.4,9.4l38.6,22.3c3,1.7,5.5,0.3,5.5-3.1
			C312,198.5,309.5,194.3,306.5,192.5z"/>
		<path class="st7" d="M406.5,199.3c0-0.2,0-0.4,0-0.5c0-0.2,0-0.4-0.1-0.5c0-0.2-0.1-0.4-0.1-0.6c0-0.2-0.1-0.4-0.1-0.6
			c0-0.2-0.1-0.4-0.1-0.6c0-0.2-0.1-0.4-0.1-0.6c0-0.2-0.1-0.4-0.2-0.6c0-0.2-0.1-0.3-0.1-0.5c-0.1-0.3-0.2-0.5-0.2-0.7
			c-0.1-0.2-0.1-0.4-0.2-0.6c-0.1-0.2-0.1-0.4-0.2-0.5c-0.1-0.2-0.1-0.4-0.2-0.5c-0.1-0.1-0.1-0.3-0.2-0.4c-0.1-0.3-0.2-0.5-0.3-0.7
			c-0.1-0.2-0.2-0.4-0.3-0.6c-0.1-0.2-0.2-0.4-0.3-0.7c-0.1-0.2-0.3-0.5-0.4-0.7c-0.4-0.7-0.7-1.2-1-1.6c-0.2-0.3-0.5-0.7-0.7-1
			c-0.2-0.2-0.3-0.4-0.5-0.7c-0.1-0.2-0.3-0.4-0.4-0.5c-0.1-0.2-0.3-0.3-0.4-0.5c-0.1-0.2-0.3-0.3-0.4-0.5c-0.2-0.2-0.3-0.4-0.5-0.5
			c-0.2-0.2-0.3-0.3-0.5-0.5c-0.2-0.2-0.3-0.3-0.5-0.5c-0.2-0.1-0.3-0.3-0.5-0.4c-0.1-0.1-0.2-0.1-0.2-0.2c-0.1-0.1-0.2-0.2-0.2-0.2
			c-0.2-0.1-0.3-0.3-0.5-0.4c-0.2-0.1-0.3-0.2-0.5-0.3c-0.2-0.1-0.3-0.2-0.5-0.3c-0.2-0.1-0.3-0.2-0.5-0.3
			c-0.1-0.1-134.7-77.8-134.7-77.8c-0.1-0.1-0.2-0.1-0.4-0.2c-0.2-0.1-0.3-0.2-0.5-0.2c-0.2-0.1-0.3-0.1-0.5-0.2
			c-0.1-0.1-0.3-0.1-0.4-0.2c-0.2-0.1-0.3-0.1-0.5-0.2c-0.2-0.1-0.3-0.1-0.4-0.1c-0.2,0-0.3-0.1-0.5-0.1c-0.2,0-0.3-0.1-0.5-0.1
			c-0.2,0-0.3-0.1-0.5-0.1c-0.1,0-0.2,0-0.3,0c-0.3,0-0.5,0-0.7,0c-0.2,0-0.4,0-0.6,0c-0.2,0-0.4,0.1-0.6,0.1
			c-0.3,0.1-0.5,0.1-0.8,0.2c-0.3,0.1-0.6,0.3-0.9,0.4l-8.3,4.8c0.5-0.3,1.1-0.5,1.6-0.6c0.6-0.1,1.2-0.2,1.9-0.1
			c0.7,0.1,1.4,0.2,2.1,0.5c0.8,0.3,1.5,0.6,2.3,1l134.6,77.7c0.8,0.4,1.5,1,2.2,1.5c0.8,0.6,1.4,1.3,2.1,2c0.7,0.7,1.3,1.5,1.9,2.3
			c0.6,0.8,1.1,1.6,1.6,2.5c0.6,1,1,1.8,1.4,2.7c0.4,0.9,0.7,1.9,1,2.8c0.3,1,0.5,1.9,0.7,2.8c0.1,0.9,0.2,1.8,0.2,2.7l-0.3,102.7
			c0,0.9-0.1,1.7-0.2,2.4c-0.2,0.8-0.4,1.4-0.6,2c-0.2,0.5-0.5,0.9-0.9,1.3c-0.1,0.1-0.2,0.3-0.3,0.4c-0.4,0.4-0.8,0.7-1.2,1
			l8.3-4.8c0.5-0.3,0.9-0.6,1.2-1c0.1-0.1,0.2-0.3,0.3-0.4c0.1-0.2,0.3-0.3,0.4-0.5c0.2-0.2,0.3-0.5,0.4-0.8
			c0.1-0.2,0.2-0.4,0.3-0.6c0.1-0.2,0.1-0.4,0.2-0.6c0.1-0.2,0.1-0.4,0.1-0.6c0-0.1,0-0.2,0-0.2c0-0.1,0-0.2,0.1-0.3
			c0-0.2,0.1-0.4,0.1-0.5c0-0.2,0-0.4,0.1-0.5c0-0.2,0-0.3,0-0.5c0-0.2,0-0.4,0-0.5c0,0,0.3-102.7,0.3-102.7c0-0.2,0-0.3,0-0.5
			C406.6,199.6,406.6,199.5,406.5,199.3z"/>
	</g>
	<g>
		<path class="st8" d="M183.7,182.5c-0.2,0.3-0.4,0.5-0.6,0.8C183.3,183,183.5,182.7,183.7,182.5z"/>
		<path class="st8" d="M184.7,181c-0.2,0.4-0.5,0.8-0.8,1.2C184.2,181.8,184.5,181.4,184.7,181z"/>
		<path class="st8" d="M246.8,203.2c-4.5,2.1-6.3,3.5-7.6,9c-2.3,9.7-7.1,12.6-18.7,18.4c-0.1,5.1-3.2,9.7-8,11.5
			c0.4,0.3,1,0.8,1.4,0.9c11.1,4.3,24.7-11.7,30.7-21.5c3.5-5.5,2.8-8.9,9.9-13.1C257.4,206.6,254.9,199.7,246.8,203.2z"/>
		<path class="st9" d="M180,155.5c-8.4,1.2-13.8,8.3-12.3,18.3c0.4,2.8,1.5,5.4,3,7.8c1.2,1.9,1.6,3.3,1.9,4.8
			c0.1,0.5,0.2,1,0.2,1.5c0.6,0.1,1.3,0.1,1.8,0.1c4.1-0.1,7.1-2.4,8.9-4.5c0.2-0.2,0.4-0.5,0.6-0.7c0.1-0.1,0.1-0.2,0.2-0.2
			c0.3-0.3,0.5-0.7,0.7-1.1c-0.8-0.9-1.3-2.4-1.3-4.1c-0.1-2.9,1.2-5.4,2.9-5.4c0.5,0,1.2,0.1,1.8,0.9c0.3,0.4,0.5,0.8,0.7,1.5
			c3-1,6.4-6.1,7.8-9.1C194,158,187.1,154.5,180,155.5z"/>
		<path class="st8" d="M180.1,201.9c-5.6,1.4-11.4-1.5-11.8-6.9c2.3-1.2,4.5-4.8,4.4-7.1c0.6,0.1,1.3,0.1,1.8,0.1
			c4.1-0.1,7.1-2.4,8.9-4.5c0.2-0.2,0.4-0.5,0.6-0.7c0.1-0.1,0.1-0.2,0.2-0.2c0.3-0.3,0.5-0.7,0.7-1.1c-0.8-0.9-1.3-2.4-1.3-4.1
			c-0.1-2.9,1.2-5.4,2.9-5.4c0.5,0,1.2,0.1,1.8,0.9c0.3,0.4,0.5,0.9,0.7,1.6c3-1,6.4-6.1,7.8-9.1c0.5,1.3,0.9,2.6,1.1,4.1
			c1.5,10.1-1,21.3-9.3,22.5c-2.7,0.7-2.2,4.4-0.2,5.5c-0.8,0.6-1.7,1.2-2.5,1.7C184,200.4,181.8,201.5,180.1,201.9z"/>
		<path class="st7" d="M153.5,212.2c0-11.3,5.6-13.9,14.8-17.2c0.4,5.4,6.2,8.3,11.8,6.9c1.7-0.4,3.9-1.5,5.8-2.7
			c0.8-0.5,1.6-1.1,2.5-1.7c6,1.3,10.4,5.6,15.7,11.6c2.2,2.5,4.3,5.2,6.3,7.9c4,5.4,7.3,10,10.1,13.6c-0.1,5.1-3.2,9.7-8,11.5
			c-2.6-1.8-9.8-5.9-12.9-8.5c0,13.4,0.9,28.5,2.3,45.8c-17.5,6.5-42.5,0.6-44-7.8C161.1,239.8,152.8,223.8,153.5,212.2z"/>
		<path class="st7" d="M180.2,402.6c5.9,0.5,10.9-2.7,13.2-6c0.1-2.1,0.3-4.3,0.4-6.6c3.9-0.7,10.9-3.7,13.8-1.7
			c5.8,3.8-4.6,12.2-9.2,13.2c-3.5,0.8-6.2-0.7-10,2.2c-5.2,4-15.6,2-13.9-3.8C176.1,401.6,178.1,402.5,180.2,402.6z"/>
		<path class="st7" d="M164.6,382.2c1.9-2.9,3.2-7,3.7-11c0.1-0.8,0.2-1.6,0.3-2.4c2.8-1.5,5.4-1.9,7.4-0.9c0.2,0.1,0.3,0.2,0.5,0.3
			c-0.3,2.6-0.5,5.3-0.8,7.9c-0.4,0.4-0.9,0.7-1.3,1c-2.7,1.9-5.6,1.5-7.8,5.3c-3.1,5.2-14.6,5.1-14.1-2
			C155.8,384.3,160.6,384.1,164.6,382.2z"/>
		<path class="st10" d="M159.4,298.8c0.4-6.5-4.1-16.6-1.5-27.3c1.5,8.5,26.5,14.3,44,7.8c0.1,1.7,0.4,3.4,0.4,5.1
			c2.1,52.5-5.9,60.4-8.4,104c0,0.5-0.1,1-0.1,1.5c-0.1,2.3-0.3,4.5-0.4,6.6c-2.3,3.4-7.3,6.5-13.2,6c-2.1-0.1-4.1-0.9-5.7-2.7
			c0-7.7,0.6-15.6,1.3-23.7c0.2-2.6,0.5-5.2,0.8-7.9c2-20.3,4.4-41.1,1.7-59.2c-0.7,6.1-3.9,25.7-5,31.2c-2,10.5-3.4,19.3-4.6,28.5
			c-0.1,0.8-0.2,1.6-0.3,2.4c-0.5,4-1.9,8.1-3.7,11c-4,1.8-8.8,2.1-12-1.8c-0.2-0.2-0.4-0.5-0.5-0.8
			C152.1,352.8,157.4,329.8,159.4,298.8z"/>
	</g>
</g>
</svg>
