<?xml version="1.0" encoding="utf-8"?>
<!-- Generator: Adobe Illustrator 24.2.3, SVG Export Plug-In . SVG Version: 6.00 Build 0)  -->
<svg version="1.1" id="Layer_1" xmlns="http://www.w3.org/2000/svg" xmlns:xlink="http://www.w3.org/1999/xlink" x="0px" y="0px"
	 viewBox="0 0 500 500" style="enable-background:new 0 0 500 500;" xml:space="preserve">
<style type="text/css">
	.st0{display:none;fill-rule:evenodd;clip-rule:evenodd;fill:#0154A3;}
	.st1{fill:#E2E9FB;}
	.st2{fill:#343C6B;}
	.st3{fill:#B8C9F5;}
	.st4{fill:#819BEA;}
	.st5{fill:#9BA1A7;}
	.st6{fill:#FCBAC0;}
	.st7{fill:#C6D0E9;}
	.st8{fill:#445393;}
	.st9{fill:#ED8B8B;}
	.st10{fill:#81A0EA;}
</style>
<path class="st0" d="M274.5,272.3c-0.6-0.5-1.3-0.9-2-1.3c-2.4-1.4-4.5-1.9-6.4-1.4v-3.3l-5.2-3v3.6l4.8,2.7
	c-0.4,0.1-0.8,0.3-1.2,0.5c-0.2,0.1-0.3,0.2-0.5,0.3l-3-1.8v3.7l0.1,0c-1.3,1.4-1.9,3.5-1.9,6.2c0,2.7,0.6,5.5,1.8,8.3v1.8l1.3,0.7
	c0.1,0.1,0.1,0.3,0.2,0.4c0.9,1.6,1.9,3,3,4.2l-4.4-2.5v3.6l5.9,3.4l-1.6,6c-0.2,0-0.3,0-0.5,0c-0.1,0-0.2,0-0.2,0l-3.6-2.1v3.7
	l2.2,1.3l-0.1,0.3c-0.5,0.2-0.8,0.4-1.2,0.7l-0.9-0.5v1.4c-0.1,0.1-0.2,0.2-0.2,0.3l-0.1,0.2c0,0.1-0.1,0.1-0.1,0.1
	c-0.1,0.2-0.2,0.5-0.3,0.8h-0.1l-0.2,0c0.1,0,0.1,0,0.3,0.1c0.2,0,0.3,0,0.5,0.1c-0.2-0.1-0.5-0.1-0.8-0.1c-0.5,0.1-1,0.3-1.4,0.4
	c-0.8,0.2-1.3,0.4-1.3,0.4h0c-0.1,0-0.1,0-0.2,0c-0.3,0.1-0.5,0.1-0.8,0.2v-1.2l-5.2-3v3.7l1.8,1c-2.4,0.3-4.8,0.4-7.2,0.3
	c0.1-0.5,0.4-0.9,0.8-1.4c0.1-0.1,0.2-0.2,0.3-0.3l2-1.6c0-1.6-0.3-3.2-0.9-4.6h0c-0.3-0.8-0.7-1.5-1.2-2.3c0-0.1,0.1-0.2,0.1-0.3
	v-0.1c0,0,0-0.1,0-0.1c0,0,0-0.1,0-0.1v-0.1c0-0.1,0-0.2,0-0.2c0-0.3-0.1-0.6-0.2-0.8c-0.4-0.7-1.3-0.9-2.9-0.6
	c-1.2,0.3-2.2,0.7-3,1.3l-1.6-1v2.7c-0.4,0.7-0.7,1.4-0.8,2.3l-0.1-0.1v3.7l0.7,0.4c0,0,0,0,0,0.1c0.3,0.5,0.8,0.9,1.4,1.3l-0.3,0.3
	l-2,0.3c-0.3,0-0.6,0-1,0.1c-0.3,0.1-0.6,0.2-0.9,0.4c-0.3,0.2-0.6,0.4-0.8,0.6l-31.3-17.9v-76.4l109.2,63.3v75.5l-56.8-32.5
	c1.7-0.8,3.3-1.7,4.8-2.7v0.6l6.2,3.6v-3.6l-3.2-1.9c0.4,0.1,0.7,0.1,1.1,0.1c0.6-0.1,0.9-0.2,1-0.5l0.7-2.6
	c0.2-0.1,0.4-0.3,0.5-0.6c0.1-0.2,0.2-0.5,0.3-0.8c0.1,0,0.2-0.1,0.2-0.1c0.3-0.3,0.5-0.7,0.7-1c1-1.6,1.5-3.3,1.5-5.1
	c-0.1,0-0.1,0-0.2,0c-0.2-0.1-0.3-0.1-0.5-0.1c0,0-0.1,0-0.1,0c0,0-0.1,0-0.1,0.1v-1.3l0.6-2.1c0.1-0.3-0.2-0.6-0.7-0.9l1.9-7.2
	c0.7,0.4,1.4,0.7,2,0.9v2.6l4.2,2.5v-3.6l-1.6-1c1.1,0,2.1-0.3,3-0.8c0.1,0,0.1-0.1,0.2-0.1l0.1,0v-0.1c0.2-0.1,0.4-0.3,0.6-0.5
	c0.4-0.1,0.9-0.3,1.3-0.5c0.1-0.1,0.2-0.1,0.4-0.2v2.6l5.3,3.1v-3.6l-4.5-2.6c1.5-1.4,2.2-3.6,2.2-6.5c0-1.8-0.3-3.6-0.8-5.4
	l0.6,0.3v-3.6l-1.4-0.8v1.9c-0.3-0.8-0.7-1.7-1.2-2.6c-0.2-0.3-0.4-0.7-0.5-1c-0.7-1.2-1.4-2.3-2.2-3.3v-2.8l-3.8-2.3V272.3z"/>
<g>
	<g>
		<path class="st1" d="M273.6,371.6c0,13.4-21.8,24.3-48.7,24.3c-26.9,0-48.7-10.9-48.7-24.3c0-13.4,21.8-24.3,48.7-24.3
			C251.8,347.4,273.6,358.2,273.6,371.6z"/>
		<g>
			<path class="st2" d="M201.3,361.9c1.3-4.4,4.8-7.2,7.6-6.3c2.9,0.9,3.2,4.9,2.7,9.5c-0.1,0.9-0.6,1.6-1,2.3
				c-0.8,1.5-1.2,3.1-1.2,4.8c0,1.3-0.2,2.7-0.6,4c-0.9,3-3.9,4.9-6.1,6c-1.8,0.9-4,0.1-4.9-1.7c-1.2-2.6-1.8-6.5-0.1-9.6
				C198.5,369.6,201.1,362.7,201.3,361.9z"/>
			<path class="st2" d="M231,355c0.7,0.5,1.7,1.7,2.4,2.5c1.7,1.8,4,2.8,6.4,3.7c3.3,1.2,6,1.4,7.9,0.9c1.8-0.5,2.6-2.7,1.5-4.2
				c-1.1-1.5-3-3.5-5.6-5.8c-1.5-1.3-2.9-2.5-4-3.5c-1.6-1.3-2.6-3.3-2.8-5.3c-0.1-1.1-0.2-2.2-0.4-2.2c-4.1-1.5-9.8-0.7-10.9,1.3
				c0,0-1.1,6-1.1,7.5c0,0.9,0.3,2.5,2,3.2C227.6,353.4,229.4,353.9,231,355z"/>
			<g>
				<path class="st3" d="M196.7,200.6v14.6c0,2.2,3.7,142.7,3.7,142.7c0,3.6,13.6,3.9,13.6-0.7l7.2-102.3l2.8,86.8
					c0,4.4,15.1,3.3,14.9-0.3L241,225c0-2.1-0.2-4.1-0.6-6.1L196.7,200.6z"/>
				<path class="st4" d="M221.1,255.4l2.9-1.8c1.6-1,3.7,0.2,3.6,2.1l-3.9,77.7L221.1,255.4z"/>
				<path class="st2" d="M268.9,201.7c0,0,0.9,1.7,0.4,6.2c-0.3,3.2-2.1,5.6-2.1,5.6l-3.3-2.4l2.1-8.6L268.9,201.7z"/>
				<path class="st5" d="M271.7,203c0,0,0.7,1.3,0.3,5c-0.3,2.5-1.7,4.4-1.7,4.4l-2.6-1.9l1.7-6.9L271.7,203z"/>
				<path class="st6" d="M288.8,209.6c-0.8,0.7-7.3,3-9.3,2.9c-4-0.2-11.2-0.8-12.2-1c-0.8-0.1-1.6-0.3-2.5-0.4l2-8.7
					c1,0.3,2,0.7,3.1,1c0.7,0.3,1.2,0.3,1.7,0.4c0.1,0,1-2,1-2c0.4-0.8,1.1-1.5,1.9-1.9c0,0,2.2-1.1,3.8-1.8
					c1.8-0.8,3.3-1.7,3.9-0.9c0.7,0.8-0.8,2-1.5,2.5l-3.2,2.4c3.8-1.8,7.8-4,8.3-1.4C285.6,200.7,293.7,205.2,288.8,209.6z"/>
				<path class="st7" d="M270.4,212.4c-0.1,0-2.2,0.2-5.1,0.1l1.8-10.3c2.6,0.5,4.6,0.9,4.6,0.9C269.5,204,269.4,210.7,270.4,212.4z
					"/>
				<path class="st2" d="M268.9,201.7c-2.8,1.2-2.9,9.7-1.7,11.8c0,0-27.6,0-32.2-3.9c-3.2-2.7-7.8-29.7-9.7-41.1
					c-0.2-0.9-0.1-2,0.5-2.9c0.6-0.9,1.5-1.5,2.5-1.8c0,0,12.2-1.6,12.6,0.3c0.9,4.8,5.5,27.5,6.3,32.4c0.1,0.5,0.5,0.7,0.9,0.9
					C250.2,198.2,268.9,201.7,268.9,201.7z"/>
				<path class="st7" d="M189.5,176.3l5.6,18.5l1.1,33.9c1.9,12.5,43.7,8.8,43.7-7.5v-57c0-9.7-7-14-14.1-13.3
					c-1.5,0.2-3.1,0.5-4.6,1.2c-0.6,0.2-4.9-2.2-5.5-1.9L204,157c-0.8,0.5-1.6,0.9-2.3,1.4C194.1,163,189.5,167.3,189.5,176.3z"/>
				<path class="st6" d="M208.2,140.4v16.1c0.1,0.7,0.5,1.4,1.3,1.9c2.2,1.4,6.2,1.7,9,0.6c1.7-0.6,2.6-1.5,2.6-2.5v-12.9l-6.1-7.9
					h-0.7L208.2,140.4z"/>
				<path class="st6" d="M204.7,270.1c-0.7,0.3-1.7-0.7-2-1.7c-0.3-0.9-1.6-3.3-1.6-3.3s-1.8,4.9-4.2,3.9c-6.1-2.5-6.1-5.7-5.7-8
					c0.5-2.4,2-3.9,2.3-6.2l-0.7-7.9h8.3l-0.1,4.7c-0.1,1.9,0.4,3.8,1.4,5.5l0.9,1.5c0.4,0.8,0.7,1.6,0.9,2.5l1.3,6.3
					C205.8,268.8,205.6,269.8,204.7,270.1z"/>
				<path class="st8" d="M244.6,228.9c0,5.3-8.5,11.6-9.6,10.9c-1.2-0.8,1-33.5-1.7-55c-1.4-10.8-3.6-20.8-7.4-27
					c-1.9-3-4.9-5.4-4.6-5.4c1.7-0.3,1.3-1.1,2.6-1.4c0.2,0,1.7,0,1.9,0c7.2,0,15.3,3.5,15.3,13.2l1.1,23.9L244.6,228.9z"/>
				<path class="st8" d="M196,239.9l-0.8-45l-7.8-17.6c0-9,6.8-14.3,14.4-18.9c0.7-0.5,1.5-0.9,2.3-1.4l4.3-2.5
					c0,0.1-0.4,2.5-0.4,2.5c-0.6,4.3,8,21.1,10.7,32.5c3.5,15,5.3,54.2,4.5,54.9C221.6,245.7,197,247,196,239.9z"/>
				<path class="st7" d="M190.1,181.9l-1,31.6c0,1.1,0,2.2,0.1,3.3l3.7,35.5c0.6,2.1,8.3,1.5,8.6-0.9l1-34.9c0-1.3,0-2.6,0.2-3.9
					c0.6-5.5,2.6-23.6,3-28.6L190.1,181.9z"/>
				<path class="st8" d="M206.9,184.2c-0.4,5.1-2.5,24.2-3,28.6c-0.1,1.2-0.2,2.4-0.2,3.7l-0.8,31.2c0.1,3.2-11.5,3.7-11.8,0.8
					l-3.2-31.6c-0.1-1.1-0.1-2.3-0.1-3.4l-0.6-36.1L206.9,184.2z"/>
				<path class="st9" d="M208.2,140.4v0.8c0,6.1,5,11.3,11.1,10.9c0.6,0,1-0.1,1.4-0.2c0.1,0,0.2-0.1,0.3-0.1v-8.2l-6.1-7.9
					l-0.3-0.3l-0.4,0.3L208.2,140.4z"/>
				<path class="st6" d="M226.7,125c3.1,5,5.3,14.5,2.7,19.7c-1.6,3.2-4,4.9-7.3,5.1c-1.3,0.1-7.4-0.7-11.7-3.6
					c-2.8-1.9-5.1-4.2-6.6-6.5c-5.2-8.1-3.1-16.2,3.4-20.4C219,111.6,222.5,118.2,226.7,125z"/>
				<path class="st2" d="M195.5,130.8c0.4,6,4.8,12.9,12.7,16.2v-3.2c-1-0.9-2-2-2.5-3.5c-0.3-0.9,1.1-1.4,2.5-0.8
					c0.1,0,0.1,0,0.2,0.1c0.6,0.3,1.5,0.2,2.5,0.1c1.5-0.3,2.4-1.9,1.7-3.3c-4.2-9.9,7.4-12.2,10.3-15.5c1.3,1.2,3.7,4.2,3.7,4.2
					c-0.3-1.5-1.2-3.1-1.9-4.8c-1.8-4.5-6.5-7.3-11.3-6.6c-0.8,0.1-1.6,0.2-2.4,0.4C199.4,116.7,195.1,124.9,195.5,130.8z"/>
				<path class="st6" d="M210.9,138.8c2.2,2,3,4.8,1.7,6.2c-1.3,1.5-4.2,1-6.4-1c-2.2-2-3-4.8-1.7-6.2
					C205.7,136.3,208.6,136.8,210.9,138.8z"/>
			</g>
		</g>
	</g>
	<g>
		<path class="st10" d="M389.2,105.3l-119.9,70c-5.5,3.2-8.9,9.1-8.9,15.4v88.9v5.8c0,6.9,7.4,11.2,13.4,7.7l119.9-70.3
			c5.5-3.2,8.9-9.1,8.9-15.4v-11V113C402.6,106.1,395.2,101.9,389.2,105.3z"/>
		<path class="st1" d="M393.7,108.2l-119.9,70c-5.5,3.2-8.9,9.1-8.9,15.4v88.9v5.8c0,6.9,7.4,11.2,13.4,7.7l119.9-70.3
			c5.5-3.2,8.9-9.1,8.9-15.4v-11v-83.3C407.1,109,399.7,104.7,393.7,108.2z"/>
	</g>
	<g>
		<path class="st10" d="M412.3,180.8l-73.8,43.1c-3.4,2-5.5,5.6-5.5,9.5V288v3.6c0,4.2,4.6,6.9,8.2,4.7l73.8-43.3
			c3.4-2,5.5-5.6,5.5-9.5v-6.8v-51.3C420.6,181.4,416,178.7,412.3,180.8z"/>
		<path class="st1" d="M416.8,183.6L343,226.7c-3.4,2-5.5,5.6-5.5,9.5v54.7v3.6c0,4.2,4.6,6.9,8.2,4.7l73.8-43.3
			c3.4-2,5.5-5.6,5.5-9.5v-6.8v-51.3C425,184.1,420.4,181.5,416.8,183.6z"/>
	</g>
	<g>
		<path class="st10" d="M94.7,159.9l73.8,43.1c3.4,2,5.5,5.6,5.5,9.5v54.7v3.6c0,4.2-4.6,6.9-8.2,4.7l-73.8-43.3
			c-3.4-2-5.5-5.6-5.5-9.5v-6.8v-51.3C86.5,160.4,91.1,157.8,94.7,159.9z"/>
		<path class="st1" d="M90,162.7l73.8,43.1c3.4,2,5.5,5.6,5.5,9.5v54.7v3.6c0,4.2-4.6,6.9-8.2,4.7l-73.8-43.3
			c-3.4-2-5.5-5.6-5.5-9.5v-6.8v-51.3C81.7,163.2,86.3,160.6,90,162.7z"/>
	</g>
	<g>
		<path class="st10" d="M107.2,264.9l47.8,27.9c2.2,1.3,3.6,3.6,3.6,6.2v35.5v2.3c0,2.7-3,4.4-5.3,3.1l-47.9-28.1
			c-2.2-1.3-3.5-3.6-3.5-6.1v-4.4v-33.3C101.8,265.2,104.8,263.5,107.2,264.9z"/>
		<path class="st1" d="M102.9,267.2l47.8,27.9c2.2,1.3,3.6,3.6,3.6,6.2v35.5v2.3c0,2.7-3,4.5-5.3,3.1l-47.9-28.1
			c-2.2-1.3-3.5-3.6-3.5-6.1v-4.4v-33.3C97.6,267.6,100.5,265.9,102.9,267.2z"/>
	</g>
	<path class="st3" d="M392.5,244L318.8,287c-3.4,2-5.5,5.6-5.5,9.5v54.7v3.6c0,4.2,4.6,6.9,8.2,4.7l73.8-43.3c3.4-2,5.5-5.6,5.5-9.5
		V300v-51.3C400.8,244.5,396.2,241.9,392.5,244z"/>
	<path class="st3" d="M80.4,133.6l48.4,28.3c2.2,1.3,3.6,3.7,3.6,6.2v35.9v2.3c0,2.8-3,4.5-5.4,3.1L78.6,181
		c-2.2-1.3-3.6-3.7-3.6-6.2v-4.4v-33.6C75,133.9,78,132.2,80.4,133.6z"/>
	<path class="st3" d="M328.3,116.6l-48.4,28.3c-2.2,1.3-3.6,3.7-3.6,6.2V187v2.3c0,2.8,3,4.5,5.4,3.1l48.4-28.4
		c2.2-1.3,3.6-3.7,3.6-6.2v-4.4v-33.6C333.7,117,330.7,115.3,328.3,116.6z"/>
</g>
</svg>
