<?xml version="1.0" encoding="utf-8"?>
<!-- Generator: Adobe Illustrator 24.2.3, SVG Export Plug-In . SVG Version: 6.00 Build 0)  -->
<svg version="1.1" id="Layer_1" xmlns="http://www.w3.org/2000/svg" xmlns:xlink="http://www.w3.org/1999/xlink" x="0px" y="0px"
	 viewBox="0 0 500 500" style="enable-background:new 0 0 500 500;" xml:space="preserve">
<style type="text/css">
	.st0{display:none;fill-rule:evenodd;clip-rule:evenodd;fill:#0154A3;}
	.st1{fill-rule:evenodd;clip-rule:evenodd;fill:#202249;}
	.st2{fill-rule:evenodd;clip-rule:evenodd;fill:url(#SVGID_1_);}
	.st3{opacity:0.3;fill-rule:evenodd;clip-rule:evenodd;fill:#1E2353;}
	.st4{fill-rule:evenodd;clip-rule:evenodd;fill:url(#SVGID_2_);}
	.st5{opacity:0.35;fill-rule:evenodd;clip-rule:evenodd;fill:#59CAAF;}
	.st6{fill-rule:evenodd;clip-rule:evenodd;fill:url(#SVGID_3_);}
	.st7{fill-rule:evenodd;clip-rule:evenodd;fill:url(#SVGID_4_);}
	.st8{fill-rule:evenodd;clip-rule:evenodd;fill:#4A9FF8;}
	.st9{fill-rule:evenodd;clip-rule:evenodd;fill:#5858F0;}
	.st10{opacity:0.5;fill-rule:evenodd;clip-rule:evenodd;fill:url(#SVGID_5_);}
	.st11{opacity:0.5;fill-rule:evenodd;clip-rule:evenodd;fill:url(#SVGID_6_);}
	.st12{opacity:0.5;fill-rule:evenodd;clip-rule:evenodd;fill:url(#SVGID_7_);}
	.st13{fill-rule:evenodd;clip-rule:evenodd;fill:#D0E7FF;}
	.st14{fill-rule:evenodd;clip-rule:evenodd;fill:url(#SVGID_8_);}
	.st15{opacity:0.5;fill-rule:evenodd;clip-rule:evenodd;fill:#FFFCF1;}
	.st16{opacity:0.5;fill-rule:evenodd;clip-rule:evenodd;fill:url(#SVGID_9_);}
	.st17{fill-rule:evenodd;clip-rule:evenodd;fill:url(#SVGID_10_);}
	.st18{fill-rule:evenodd;clip-rule:evenodd;fill:#FFFCF1;}
	.st19{fill-rule:evenodd;clip-rule:evenodd;fill:#FFFFFF;}
	.st20{fill-rule:evenodd;clip-rule:evenodd;fill:url(#SVGID_11_);}
	.st21{fill-rule:evenodd;clip-rule:evenodd;fill:url(#SVGID_12_);}
	.st22{fill-rule:evenodd;clip-rule:evenodd;fill:#FFDB59;}
	.st23{opacity:0.2;fill-rule:evenodd;clip-rule:evenodd;fill:url(#SVGID_13_);}
	.st24{fill-rule:evenodd;clip-rule:evenodd;fill:url(#SVGID_14_);}
	.st25{opacity:0.2;fill-rule:evenodd;clip-rule:evenodd;fill:url(#SVGID_15_);}
	.st26{fill-rule:evenodd;clip-rule:evenodd;fill:url(#SVGID_16_);}
	.st27{fill-rule:evenodd;clip-rule:evenodd;fill:url(#SVGID_17_);}
	.st28{fill-rule:evenodd;clip-rule:evenodd;fill:url(#SVGID_18_);}
	.st29{opacity:0.35;fill-rule:evenodd;clip-rule:evenodd;fill:#3469C0;}
	.st30{fill-rule:evenodd;clip-rule:evenodd;fill:url(#SVGID_19_);}
	.st31{fill-rule:evenodd;clip-rule:evenodd;fill:url(#SVGID_20_);}
	.st32{fill-rule:evenodd;clip-rule:evenodd;fill:#FFA698;}
	.st33{fill-rule:evenodd;clip-rule:evenodd;fill:#FF9080;}
	.st34{opacity:0.5;fill-rule:evenodd;clip-rule:evenodd;fill:url(#SVGID_21_);}
	.st35{fill-rule:evenodd;clip-rule:evenodd;fill:url(#SVGID_22_);}
	.st36{opacity:0.2;fill-rule:evenodd;clip-rule:evenodd;fill:url(#SVGID_23_);}
	.st37{fill-rule:evenodd;clip-rule:evenodd;fill:url(#SVGID_24_);}
	.st38{opacity:0.35;}
	.st39{opacity:0.2;fill-rule:evenodd;clip-rule:evenodd;fill:#59CAAF;}
	.st40{fill-rule:evenodd;clip-rule:evenodd;fill:url(#SVGID_25_);}
	.st41{fill-rule:evenodd;clip-rule:evenodd;fill:#6D6AFD;}
	.st42{fill-rule:evenodd;clip-rule:evenodd;fill:url(#SVGID_26_);}
	.st43{fill-rule:evenodd;clip-rule:evenodd;fill:url(#SVGID_27_);}
	.st44{fill-rule:evenodd;clip-rule:evenodd;fill:url(#SVGID_28_);}
	.st45{fill-rule:evenodd;clip-rule:evenodd;fill:url(#SVGID_29_);}
	.st46{fill-rule:evenodd;clip-rule:evenodd;fill:#FFA495;}
	.st47{fill-rule:evenodd;clip-rule:evenodd;fill:#193161;}
	.st48{fill-rule:evenodd;clip-rule:evenodd;fill:url(#SVGID_30_);}
	.st49{fill-rule:evenodd;clip-rule:evenodd;fill:url(#SVGID_31_);}
	.st50{fill-rule:evenodd;clip-rule:evenodd;fill:url(#SVGID_32_);}
	.st51{fill-rule:evenodd;clip-rule:evenodd;fill:url(#SVGID_33_);}
	.st52{fill-rule:evenodd;clip-rule:evenodd;fill:url(#SVGID_34_);}
	.st53{fill-rule:evenodd;clip-rule:evenodd;fill:#FF8978;}
	.st54{fill-rule:evenodd;clip-rule:evenodd;fill:url(#SVGID_35_);}
	.st55{fill-rule:evenodd;clip-rule:evenodd;fill:url(#SVGID_36_);}
	.st56{opacity:0.35;fill-rule:evenodd;clip-rule:evenodd;fill:#6266D7;}
	.st57{fill-rule:evenodd;clip-rule:evenodd;fill:url(#SVGID_37_);}
	.st58{fill-rule:evenodd;clip-rule:evenodd;fill:url(#SVGID_38_);}
	.st59{fill-rule:evenodd;clip-rule:evenodd;fill:#FFB49C;}
	.st60{fill-rule:evenodd;clip-rule:evenodd;fill:#FF9D8E;}
	.st61{fill-rule:evenodd;clip-rule:evenodd;fill:#562E65;}
	.st62{fill-rule:evenodd;clip-rule:evenodd;fill:url(#SVGID_39_);}
	.st63{fill-rule:evenodd;clip-rule:evenodd;fill:url(#SVGID_40_);}
	.st64{fill-rule:evenodd;clip-rule:evenodd;fill:url(#SVGID_41_);}
</style>
<path class="st0" d="M274.5,272.3c-0.6-0.5-1.3-0.9-2-1.3c-2.4-1.4-4.5-1.9-6.4-1.4v-3.3l-5.2-3v3.6l4.8,2.7
	c-0.4,0.1-0.8,0.3-1.2,0.5c-0.2,0.1-0.3,0.2-0.5,0.3l-3-1.8v3.7l0.1,0c-1.3,1.4-1.9,3.5-1.9,6.2c0,2.7,0.6,5.5,1.8,8.3v1.8l1.3,0.7
	c0.1,0.1,0.1,0.3,0.2,0.4c0.9,1.6,1.9,3,3,4.2l-4.4-2.5v3.6l5.9,3.4l-1.6,6c-0.2,0-0.3,0-0.5,0c-0.1,0-0.2,0-0.2,0l-3.6-2.1v3.7
	l2.2,1.3l-0.1,0.3c-0.5,0.2-0.8,0.4-1.2,0.7l-0.9-0.5v1.4c-0.1,0.1-0.2,0.2-0.2,0.3l-0.1,0.2c0,0.1-0.1,0.1-0.1,0.1
	c-0.1,0.2-0.2,0.5-0.3,0.8h-0.1l-0.2,0c0.1,0,0.1,0,0.3,0.1c0.2,0,0.3,0,0.5,0.1c-0.2-0.1-0.5-0.1-0.8-0.1c-0.5,0.1-1,0.3-1.4,0.4
	c-0.8,0.2-1.3,0.4-1.3,0.4h0c-0.1,0-0.1,0-0.2,0c-0.3,0.1-0.5,0.1-0.8,0.2v-1.2l-5.2-3v3.7l1.8,1c-2.4,0.3-4.8,0.4-7.2,0.3
	c0.1-0.5,0.4-0.9,0.8-1.4c0.1-0.1,0.2-0.2,0.3-0.3l2-1.6c0-1.6-0.3-3.2-0.9-4.6h0c-0.3-0.8-0.7-1.5-1.2-2.3c0-0.1,0.1-0.2,0.1-0.3
	v-0.1c0,0,0-0.1,0-0.1c0,0,0-0.1,0-0.1v-0.1c0-0.1,0-0.2,0-0.2c0-0.3-0.1-0.6-0.2-0.8c-0.4-0.7-1.3-0.9-2.9-0.6
	c-1.2,0.3-2.2,0.7-3,1.3l-1.6-1v2.7c-0.4,0.7-0.7,1.4-0.8,2.3l-0.1-0.1v3.7l0.7,0.4c0,0,0,0,0,0.1c0.3,0.5,0.8,0.9,1.4,1.3l-0.3,0.3
	l-2,0.3c-0.3,0-0.6,0-1,0.1c-0.3,0.1-0.6,0.2-0.9,0.4c-0.3,0.2-0.6,0.4-0.8,0.6l-31.3-17.9v-76.4l109.2,63.3v75.5l-56.8-32.5
	c1.7-0.8,3.3-1.7,4.8-2.7v0.6l6.2,3.6v-3.6l-3.2-1.9c0.4,0.1,0.7,0.1,1.1,0.1c0.6-0.1,0.9-0.2,1-0.5l0.7-2.6
	c0.2-0.1,0.4-0.3,0.5-0.6c0.1-0.2,0.2-0.5,0.3-0.8c0.1,0,0.2-0.1,0.2-0.1c0.3-0.3,0.5-0.7,0.7-1c1-1.6,1.5-3.3,1.5-5.1
	c-0.1,0-0.1,0-0.2,0c-0.2-0.1-0.3-0.1-0.5-0.1c0,0-0.1,0-0.1,0c0,0-0.1,0-0.1,0.1v-1.3l0.6-2.1c0.1-0.3-0.2-0.6-0.7-0.9l1.9-7.2
	c0.7,0.4,1.4,0.7,2,0.9v2.6l4.2,2.5v-3.6l-1.6-1c1.1,0,2.1-0.3,3-0.8c0.1,0,0.1-0.1,0.2-0.1l0.1,0v-0.1c0.2-0.1,0.4-0.3,0.6-0.5
	c0.4-0.1,0.9-0.3,1.3-0.5c0.1-0.1,0.2-0.1,0.4-0.2v2.6l5.3,3.1v-3.6l-4.5-2.6c1.5-1.4,2.2-3.6,2.2-6.5c0-1.8-0.3-3.6-0.8-5.4
	l0.6,0.3v-3.6l-1.4-0.8v1.9c-0.3-0.8-0.7-1.7-1.2-2.6c-0.2-0.3-0.4-0.7-0.5-1c-0.7-1.2-1.4-2.3-2.2-3.3v-2.8l-3.8-2.3V272.3z"/>
<g>
	<g>
		<path class="st1" d="M291.8,160.2c0.2,0.1,0.5,0.2,0.8,0.4c1,2.5,1.4,3.2,1.2,3.5c-0.2,0.2-0.1,0.1-0.2,0.6
			c-0.1,0.7,2.3,3.7,2.7,4.6c0.3,0.8,0.4,1.6,0.1,2.5c-0.5,1.5-1.4,3.1-2.6,4.3c-1,1.1-2,1.8-2.9,1.5c-1.1-0.3-0.9-1.3-0.8-2.3
			c0.1-0.4,0.7-1.1,0.7-1.5c-0.3-2-1.8-3.7-2.8-5.5c-0.9-0.9-2.5-1.8-3.3-2.8c-1.2-1.4-1.5-2.9,0.1-3.8c0.5-0.3,1.7-1.7,2.4-1.6
			C288.3,160.3,290.3,159.3,291.8,160.2z"/>
		<linearGradient id="SVGID_1_" gradientUnits="userSpaceOnUse" x1="268.9016" y1="130.7154" x2="268.8964" y2="162.4643">
			<stop  offset="0" style="stop-color:#324179"/>
			<stop  offset="1" style="stop-color:#0C124D"/>
		</linearGradient>
		<path class="st2" d="M250.3,154.5c-0.8,2.3-0.2,4.3,1.6,5.2c0,0,0,0,0,0c0.1,0,0.1,0.1,0.2,0.1c0.2,0.1,0.4,0.1,0.6,0.2
			c2.2,0.6,5.5,1.2,7.5,1.6c8,1.5,19.9,2.5,25.5,4.6c2.2-1.6,2.8-4.6,1.4-6.4c-6.1-2.9-14.3-6.7-17.8-8c-0.8-0.3-1.8-0.4-2.9-0.5
			c5.1-4.6,10.6-9.7,12.7-13.9c1.5-3,1.7-7.2,2.8-9.9c-8.4,2.5-10-2.6-11.5-4.4c-1.3,1.9-1.3,1.6-2.6,3.7
			c-4.5,7-11.2,16.9-15.7,24.3C251.3,152.2,250.6,153.4,250.3,154.5z"/>
		<path class="st3" d="M277.7,155.4c-3.4-1.5-6.5-2.9-8.3-3.6c-0.8-0.3-1.8-0.4-2.9-0.5c5.1-4.6,10.6-9.7,12.7-13.9
			c1.5-3,1.7-7.2,2.8-9.9c-2.4,0.7-4.2,0.8-5.6,0.5l0.2,1.6c-6.5,6.4-18.2,21.4-19.3,31.2c4,0.9,14.8,2.3,16.5,2.5
			C274.1,160.5,276,158.2,277.7,155.4L277.7,155.4z M271.8,125c-0.5-0.7-1-1.4-1.4-1.9c-0.8,1.2-1.1,1.5-1.6,2.1L271.8,125z"/>
		<path class="st1" d="M276.6,192.7c1.2,1.6-2,9.8-2.8,11.6c-0.7,1.5-0.5,2.5,1.1,2.5c1.3,0,3.3-1.8,4.5-3c2.3-2.2,2.4-4.5,3.1-5.4
			l0.8-0.3c0.6-0.3,2.3-2.5,2.4-3.4c-0.2-0.6-0.5-1.5-0.9-2.3c-1.3-2.3-1.5-1.3-3.2-2.7C279.8,191,281.2,191.6,276.6,192.7z"/>
		<linearGradient id="SVGID_2_" gradientUnits="userSpaceOnUse" x1="274.1875" y1="132.7417" x2="274.166" y2="186.8235">
			<stop  offset="0" style="stop-color:#324179"/>
			<stop  offset="1" style="stop-color:#0C124D"/>
		</linearGradient>
		<path class="st4" d="M261.6,164.6c3.4,6.7,12,21.7,15,28.4c2.7,0.6,5.4-1,5.6-3.1c-1.9-6.4-5.1-17-6.7-20.3c-1-2.2-3-5.2-4.7-7.5
			c5.1-7.1,13.2-18.3,15.5-24.9c3.2-8.9-0.5-14.1-5.4-16.9c-1.7-1-3.6,0.6-4.5-0.5c-2.1,4.1-4,9.6-5.2,14.6
			c-1.7,6.9-9.8,21.7-10.4,26.6c-0.1,1,0.1,2,0.5,2.8C261.4,164.1,261.5,164.3,261.6,164.6z"/>
	</g>
	<path class="st5" d="M398.2,429.9L163.6,298c-3-1.3-7.3-2.6-10.2-0.8l-7.4,4.5c-1.5,0.9-6.4,3.9-3.1,5.7
		c9.7,5.2,226.3,127.8,236.1,133.1c1.9,1,4.6,1.4,7.4,1.1c2.8-0.2,5.8-1,8-2.4l3-1.8c2.1-1.3,3.3-2.7,3.4-4.1
		C400.9,432,400,430.8,398.2,429.9z"/>
	<g>
		<linearGradient id="SVGID_3_" gradientUnits="userSpaceOnUse" x1="299.6292" y1="186.2802" x2="265.579" y2="392.9457">
			<stop  offset="0" style="stop-color:#D1E8FF"/>
			<stop  offset="1" style="stop-color:#EAEFFF"/>
		</linearGradient>
		<path class="st6" d="M190.5,83c-1.6-0.9-3.5-1.3-5.3-0.6l-4,1.6c-1.4,7.5,204.4,349.7,206.3,351.6l3.5-1.3
			c2.3-0.9,3.5-3.3,3.9-5.7l29.9-204.2l0,0c0.5-3.4-0.5-7-2.4-9.9c-1-1.5-2.4-3-4-3.9L190.5,83z"/>
		<linearGradient id="SVGID_4_" gradientUnits="userSpaceOnUse" x1="319.3934" y1="147.1689" x2="239.9341" y2="401.7107">
			<stop  offset="0" style="stop-color:#6D6AFE"/>
			<stop  offset="1" style="stop-color:#3FB0F7"/>
		</linearGradient>
		<path class="st7" d="M414.5,212.1L186.6,84.5c-4.3-2.4-8.4-0.1-9.2,5.1l-29.9,204.2c-0.8,5.2,2.1,11.4,6.4,13.7l227.9,127.6
			c4.3,2.4,8.4,0.1,9.2-5.1L421,225.8C421.7,220.6,418.8,214.5,414.5,212.1z"/>
		<g>
			<path class="st8" d="M414.5,212.1L186.6,84.5c-4.3-2.4-8.4-0.1-9.2,5.1l-1,6.9l243.5,136.3l1-7
				C421.7,220.6,418.8,214.5,414.5,212.1z"/>
			<g>
				<path class="st9" d="M185.2,89.6c1.7,0.4,3.1,2.5,3,4.6c-0.1,2.1-1.6,3.6-3.3,3.2c-1.7-0.4-3.1-2.5-3-4.6
					C182,90.6,183.4,89.2,185.2,89.6z"/>
				<path class="st9" d="M193,94.1c1.7,0.4,3.1,2.5,3,4.6c-0.1,2.1-1.6,3.6-3.3,3.2c-1.7-0.4-3.1-2.5-3-4.6
					C189.8,95.1,191.3,93.7,193,94.1z"/>
				<path class="st9" d="M201.6,99.1c1.7,0.4,3.1,2.5,3,4.6c-0.1,2.1-1.6,3.6-3.3,3.2c-1.7-0.4-3.1-2.5-3-4.6
					C198.4,100.1,199.8,98.7,201.6,99.1z"/>
			</g>
		</g>
	</g>
	<linearGradient id="SVGID_5_" gradientUnits="userSpaceOnUse" x1="355.951" y1="313.4712" x2="376.0045" y2="271.2957">
		<stop  offset="0" style="stop-color:#965CF2"/>
		<stop  offset="1" style="stop-color:#FF8ADC"/>
	</linearGradient>
	<path class="st10" d="M386.8,282.9l-40.9-22.5c-2.4-1.3-4.7-1.5-6.6-0.7c-2.5,1-4.4,3.5-4.9,7.2l-4.6,33.3
		c-1,6.5,2.6,14.3,8.1,17.3l40.9,22.5c5.4,3,10.6,0.1,11.5-6.4l4.6-33.3C395.8,293.6,392.2,285.9,386.8,282.9z"/>
	<linearGradient id="SVGID_6_" gradientUnits="userSpaceOnUse" x1="353.3546" y1="238.8733" x2="390.5045" y2="184.6055">
		<stop  offset="0" style="stop-color:#965CF2"/>
		<stop  offset="1" style="stop-color:#FF8ADC"/>
	</linearGradient>
	<path class="st11" d="M326.9,165.8l89.8,43.8l-2.4,2.4l-8.6,60.2c-0.9,6.2-5.6,8.9-10.5,6.1l-84-48l-7.3-16.3L326.9,165.8z"/>
	<g>
		<linearGradient id="SVGID_7_" gradientUnits="userSpaceOnUse" x1="178.544" y1="294.1938" x2="201.8361" y2="243.393">
			<stop  offset="0" style="stop-color:#965CF2"/>
			<stop  offset="1" style="stop-color:#FF8ADC"/>
		</linearGradient>
		<path class="st12" d="M214.1,258.7l-55.5-30.8l-1.9,2.8l-9.1,62.1l57.5,31.9c6.1,3.4,11.9,0.1,13-7.2l5.1-39.4
			C224.3,270.8,220.2,262.1,214.1,258.7z"/>
		<g>
			<g>
				<path class="st13" d="M211.7,272.3l-6.6,43.6l1.1,0.1l2.9-1.1c3.1-1.2,4.8-4.5,5.3-7.7l4.9-37.8c0,0,0,0,0,0
					c0.7-4.6-0.7-9.5-3.3-13.4c-1.4-2.1-3.2-4-5.4-5.2L95.4,187c-2.2-1.2-4.8-1.7-7.2-0.8l-2.5,1c-1.3,0.5-1.7,0.9-1.7,0.9
					C85.2,199.3,213.3,260.9,211.7,272.3z"/>
				<linearGradient id="SVGID_8_" gradientUnits="userSpaceOnUse" x1="150.1593" y1="238.8647" x2="140.9326" y2="265.3145">
					<stop  offset="0" style="stop-color:#1C8EF4"/>
					<stop  offset="1" style="stop-color:#00CFDD"/>
				</linearGradient>
				<path class="st14" d="M207.5,251.9l-115-63.8c-2.6-1.4-5.1-1.6-7.2-0.8c-2.7,1-4.7,3.8-5.3,7.7l-4.9,37.8
					c-1,7,2.8,15.4,8.7,18.6l115.1,63.8c5.8,3.2,11.4,0.1,12.4-6.9l4.9-37.8C217.2,263.5,213.3,255.2,207.5,251.9z"/>
			</g>
			<g>
				<path class="st15" d="M206.1,263.7L126.7,220c-0.6-0.3-1.2-0.4-1.7-0.2c-0.6,0.2-1.1,0.9-1.3,1.8l-0.4,2.7
					c-0.2,1.7,0.7,3.7,2.1,4.4l79.4,43.7c1.4,0.8,2.7,0,3-1.6l0.4-2.7C208.5,266.5,207.5,264.5,206.1,263.7L206.1,263.7z M161.9,274
					c1.4,0.8,2.3,2.8,2.1,4.4l-0.4,2.7c-0.2,1.7-1.6,2.4-3,1.6l-39.9-21.5c-1.4-0.8-2.3-2.8-2.1-4.4l0.4-2.7
					c0.1-0.9,0.6-1.6,1.3-1.8c0.5-0.2,1.1-0.1,1.7,0.2L161.9,274L161.9,274z M203.8,279.9c1.4,0.8,2.3,2.8,2.1,4.4l-0.4,2.7
					c-0.2,1.7-1.6,2.4-3,1.6L123,245c-1.4-0.8-2.3-2.8-2.1-4.4l0.4-2.7c0.1-0.9,0.6-1.6,1.3-1.8c0.5-0.2,1.1-0.1,1.7,0.2
					L203.8,279.9z"/>
				<path class="st15" d="M101.4,219.2c-3.8-2.1-7.7,0.7-7.7,6.2c0,2.8,1.2,5.7,3.1,7.5c0.5,0.5,1,0.9,1.5,1.1
					c3.7,2.1,7.7-0.7,7.7-6.1c0-2.8-1.2-5.7-3.1-7.5C102.5,219.9,102,219.5,101.4,219.2L101.4,219.2z M97.8,236.6
					c-0.7-0.4-1.4-0.9-2-1.5c-2.5-2.4-4.1-6.3-4.2-10.1c0-7.3,5.3-11.1,10.3-8.3c0.7,0.4,1.4,0.9,2.1,1.6c2.5,2.4,4.1,6.3,4.1,10.1
					C108.2,235.6,102.9,239.4,97.8,236.6L97.8,236.6z M115,230.4c0.9,0.5,1.4,1.8,1.2,2.9l-0.9,4.3c-0.2,1.1-1.1,1.6-2,1.1l-0.4-0.2
					c-0.7-0.4-1.4-0.2-1.8,0.5c-0.3,0.4-0.5,0.8-0.8,1.2c-0.5,0.6-0.5,1.6-0.2,2.4l0.2,0.6c0.5,1.1,0.2,2.4-0.6,2.8l-3.1,1.7
					c-0.4,0.2-0.8,0.2-1.3,0c-0.4-0.2-0.8-0.6-1-1.2l-0.2-0.6c-0.2-0.5-0.6-1-1-1.2c-0.2-0.1-0.5-0.2-0.7-0.2c-0.4,0-0.9,0-1.3-0.1
					c-0.7-0.1-1.3,0.4-1.5,1.3l-0.1,0.6c-0.2,1.1-1.1,1.6-2,1.1l-3.4-1.9c-0.9-0.5-1.4-1.8-1.2-2.9l0.1-0.6c0.2-0.8-0.1-1.8-0.7-2.5
					c-0.4-0.4-0.7-0.8-1.1-1.3c-0.2-0.3-0.4-0.5-0.7-0.6c-0.4-0.2-0.9-0.3-1.2,0l-0.4,0.2c-0.4,0.2-0.8,0.2-1.3,0
					c-0.4-0.2-0.8-0.6-1-1.2l-1.8-4.4c-0.5-1.1-0.2-2.4,0.6-2.8l0.4-0.2c0.6-0.3,0.9-1.2,0.8-2.1c-0.1-0.6-0.1-1.2-0.2-1.8
					c-0.1-0.9-0.5-1.8-1.2-2.1l-0.4-0.2c-0.9-0.5-1.4-1.8-1.2-2.9l0.9-4.3c0.2-1.1,1.1-1.6,2-1.1l0.4,0.2c0.7,0.4,1.4,0.2,1.8-0.5
					c0.3-0.4,0.5-0.8,0.8-1.2c0.5-0.6,0.5-1.5,0.2-2.4l-0.2-0.6c-0.4-1.1-0.2-2.4,0.6-2.8l3.1-1.7c0.4-0.2,0.8-0.2,1.3,0
					c0.4,0.2,0.8,0.6,1,1.2l0.2,0.6c0.2,0.5,0.6,1,1,1.2c0.2,0.1,0.5,0.2,0.7,0.2c0.4,0,0.9,0,1.3,0c0.7,0.1,1.3-0.4,1.5-1.3
					l0.1-0.6c0.2-1.1,1.1-1.6,2-1.1l3.4,1.9c0.9,0.5,1.4,1.8,1.2,2.9l-0.1,0.6c-0.2,0.8,0.1,1.8,0.7,2.4c0.4,0.4,0.7,0.8,1.1,1.3
					c0.2,0.3,0.4,0.5,0.7,0.6c0.4,0.2,0.9,0.3,1.2,0l0.4-0.2c0.4-0.2,0.8-0.2,1.3,0c0.4,0.2,0.8,0.6,1,1.2l1.8,4.4
					c0.4,1.1,0.2,2.4-0.6,2.8l-0.4,0.2c-0.6,0.3-0.9,1.2-0.8,2.1c0.1,0.6,0.1,1.2,0.2,1.8c0.1,0.9,0.5,1.8,1.2,2.1L115,230.4z"/>
			</g>
		</g>
	</g>
	<g>
		<linearGradient id="SVGID_9_" gradientUnits="userSpaceOnUse" x1="181.5124" y1="165.3877" x2="200.3765" y2="102.2967">
			<stop  offset="0" style="stop-color:#965CF2"/>
			<stop  offset="1" style="stop-color:#FF8ADC"/>
		</linearGradient>
		<path class="st16" d="M201.1,114.6l-24.8-12l-9.8,61.3l-1.3,8.6l25.8,13.9c4.5,2.5,8.8,0.1,9.6-5.3l7.2-52.3
			C208.6,123.5,205.6,117.1,201.1,114.6z"/>
		<g>
			<path class="st13" d="M198.1,129.2l-7.7,50l0.8,0.1l2.2-0.9c2.4-1,3.7-3.5,4-5.9l6.4-45.5c0,0,0,0,0,0c0.5-3.6-0.6-7.3-2.5-10.3
				c-1.1-1.6-2.4-3.1-4.2-4l-47.5-25.8c-1.7-1-3.7-1.3-5.5-0.6l-1.9,0.8c-1,0.4-1.3,0.7-1.3,0.7C141.9,96.3,199.4,120.4,198.1,129.2
				z"/>
			<linearGradient id="SVGID_10_" gradientUnits="userSpaceOnUse" x1="176.0977" y1="101.8697" x2="154.5953" y2="172.4967">
				<stop  offset="0" style="stop-color:#6D6AFE"/>
				<stop  offset="1" style="stop-color:#3FB0F7"/>
			</linearGradient>
			<path class="st17" d="M194.9,113.5l-47.5-25.8c-2-1.1-3.9-1.2-5.5-0.6c-2.1,0.8-3.6,2.9-4,5.9l-6.4,45.5
				c-0.8,5.4,2.2,11.8,6.7,14.3l47.5,25.8c4.5,2.5,8.8,0.1,9.6-5.3l6.4-45.5C202.4,122.4,199.4,116,194.9,113.5z"/>
			<path class="st18" d="M186.1,166.5l-47.7-25.6c-1.1-0.6-2.2,0-2.4,1.4c-0.2,1.3,0.5,2.9,1.6,3.5l47.7,25.6c1.1,0.6,2.2,0,2.4-1.4
				C188,168.7,187.2,167.1,186.1,166.5L186.1,166.5z M188.3,152.6c1.1,0.6,1.8,2.2,1.6,3.5c-0.2,1.4-1.3,2-2.4,1.4l-47.7-25.6
				c-1.1-0.6-1.8-2.1-1.6-3.5c0.2-1.4,1.3-2,2.4-1.4L188.3,152.6L188.3,152.6z M193.2,121.2l-47.7-25.6c-1.1-0.6-2.2,0-2.4,1.3
				l-0.5,3.4c-0.2,1.3,0.5,2.9,1.6,3.5l47.7,25.6c1.1,0.6,2.2,0,2.4-1.3l0.5-3.4C195,123.4,194.3,121.8,193.2,121.2L193.2,121.2z
				 M190.4,138.9c1.1,0.6,1.8,2.1,1.6,3.5c-0.2,1.4-1.3,2-2.4,1.4l-47.7-25.6c-1.1-0.6-1.8-2.1-1.6-3.4c0.2-1.4,1.3-2,2.4-1.4
				L190.4,138.9z"/>
		</g>
	</g>
	<g>
		<path class="st13" d="M384.7,298.4l-5.6,34.8l0.9,0.1l2.4-0.9c2.6-1,4-3.8,4.4-6.4l4.2-30c0,0,0,0,0,0c0.6-3.9-0.6-7.9-2.8-11.2
			c-1.2-1.7-2.7-3.4-4.5-4.4l-36.9-20.2c-1.8-1-4-1.4-6-0.7l-2.1,0.8c-1.1,0.4-1.4,0.7-1.4,0.8C338.2,270.4,386.1,288.8,384.7,298.4
			z"/>
		<path class="st19" d="M381.2,281.4l-36.9-20.2c-2.1-1.2-4.2-1.4-6-0.7c-2.2,0.9-3.9,3.1-4.4,6.4l-4.2,30
			c-0.9,5.9,2.4,12.9,7.3,15.6l36.9,20.2c4.9,2.7,9.5,0.1,10.4-5.8l4.2-30C389.3,291,386,284.1,381.2,281.4z"/>
		<linearGradient id="SVGID_11_" gradientUnits="userSpaceOnUse" x1="357.5974" y1="299.8091" x2="363.9058" y2="287.5567">
			<stop  offset="0" style="stop-color:#965CF2"/>
			<stop  offset="1" style="stop-color:#FF8ADC"/>
		</linearGradient>
		<path class="st20" d="M365.1,283.4c0.3,0.6,0.4,1.1,0.3,1.7c-0.1,0.4-0.3,1.2-0.7,2.2l-7.9,21.8c-0.3,0.7-0.5,1.3-0.7,1.7
			c-0.2,0.4-0.4,0.7-0.7,0.8c-0.3,0.1-0.6,0-1.1-0.3c-1.2-0.7-1.7-1.8-1.6-3c0-0.3,0.2-1.1,0.6-2.3l7.8-21.8
			c0.4-1.2,0.8-1.9,1.1-2.3c0.3-0.4,0.8-0.3,1.4,0.1C364.4,282.4,364.8,282.9,365.1,283.4L365.1,283.4z M367.2,289.1l-0.7,6.1
			l11.6,13.5l-13-1.6l-0.7,6.1l18.7,1.5l0.6-5.2L367.2,289.1L367.2,289.1z M334.5,284.5l16.5,20.3l0.7-6.1l-11.5-13.5l12.9,1.8
			l0.7-6.1l-18.7-1.5L334.5,284.5z"/>
	</g>
	<g>
		<g>
			<path class="st19" d="M239.9,284.8c0.7-4.5,4.1-6.5,7.7-4.5l53.4,30.1c3.6,2.1,6,7.4,5.3,12l-7.1,48.4c-0.7,4.5-4.1,6.5-7.7,4.5
				l-53.4-30.1c-3.6-2.1-6-7.4-5.3-12L239.9,284.8z"/>
			<g>
				<g>
					<linearGradient id="SVGID_12_" gradientUnits="userSpaceOnUse" x1="281.67" y1="318.2773" x2="266.4923" y2="341.8899">
						<stop  offset="0" style="stop-color:#FF66BC"/>
						<stop  offset="0.56" style="stop-color:#FF8ADC"/>
						<stop  offset="1" style="stop-color:#FFBBA8"/>
					</linearGradient>
					<polygon class="st21" points="246.4,334.1 265.1,308.3 268.7,335.7 277.8,325.8 283.1,355.1 					"/>
					<path class="st22" d="M277.1,309.4c2,0.4,3.5,2.7,3.4,5.2c-0.1,2.5-1.9,4.1-3.9,3.7c-2-0.4-3.5-2.7-3.4-5.2
						C273.4,310.7,275.1,309,277.1,309.4z"/>
				</g>
				<linearGradient id="SVGID_13_" gradientUnits="userSpaceOnUse" x1="285.7464" y1="326.7255" x2="246.1714" y2="328.425">
					<stop  offset="0" style="stop-color:#FF66BC"/>
					<stop  offset="0.56" style="stop-color:#FF8ADC"/>
					<stop  offset="1" style="stop-color:#FFBBA8"/>
				</linearGradient>
				<path class="st23" d="M244.3,291.7c0.6-3.8,3.4-5.4,6.4-3.7l44.4,25c3,1.7,5,6.2,4.4,9.9l-5.9,40.2c-0.6,3.8-3.4,5.4-6.4,3.7
					l-44.4-25c-3-1.7-5-6.2-4.4-9.9L244.3,291.7z"/>
			</g>
		</g>
		<g>
			<path class="st19" d="M312,326.7c0.7-4.5,4.1-6.5,7.7-4.5l53.4,30.1c3.6,2.1,6,7.4,5.3,12l-7.1,48.4c-0.7,4.5-4.1,6.5-7.7,4.5
				L310.2,387c-3.6-2.1-6-7.4-5.3-12L312,326.7z"/>
			<g>
				<g>
					<linearGradient id="SVGID_14_" gradientUnits="userSpaceOnUse" x1="340.0114" y1="377.8036" x2="347.3137" y2="357.7359">
						<stop  offset="0" style="stop-color:#965CF2"/>
						<stop  offset="1" style="stop-color:#FF8ADC"/>
					</linearGradient>
					<polygon class="st24" points="318.5,376 337.2,350.2 340.8,377.5 349.9,367.7 355.2,396.9 					"/>
					<path class="st22" d="M349.2,351.3c2,0.4,3.5,2.7,3.4,5.2c-0.1,2.5-1.9,4.1-3.9,3.7c-2-0.4-3.5-2.7-3.4-5.2
						C345.5,352.6,347.2,350.9,349.2,351.3z"/>
				</g>
				<linearGradient id="SVGID_15_" gradientUnits="userSpaceOnUse" x1="341.9095" y1="386.1569" x2="339.242" y2="336.1452">
					<stop  offset="0" style="stop-color:#965CF2"/>
					<stop  offset="1" style="stop-color:#FF8ADC"/>
				</linearGradient>
				<path class="st25" d="M316.4,333.6c0.6-3.8,3.4-5.4,6.4-3.7l44.4,25c3,1.7,5,6.2,4.4,9.9l-5.9,40.2c-0.6,3.8-3.4,5.4-6.4,3.7
					l-44.4-25c-3-1.7-5-6.2-4.4-9.9L316.4,333.6z"/>
			</g>
		</g>
	</g>
	<g>
		<linearGradient id="SVGID_16_" gradientUnits="userSpaceOnUse" x1="243.2947" y1="82.1246" x2="243.3454" y2="117.9848">
			<stop  offset="0" style="stop-color:#5A2D68"/>
			<stop  offset="1" style="stop-color:#22043D"/>
		</linearGradient>
		<path class="st26" d="M231.2,83.6c-4.8,2.8-2.5,9.2,1.8,16.1c6.1,9.7-8.7,20.6,11.5,26.1c-2.1-5.9,6.6-8.1,10.9-16.1
			c5-9.3,2.2-18.6-4.2-26.6C246.1,76.6,236.7,76.7,231.2,83.6z"/>
		<g>
			<linearGradient id="SVGID_17_" gradientUnits="userSpaceOnUse" x1="244.2982" y1="143.3672" x2="242.7604" y2="142.8208">
				<stop  offset="0" style="stop-color:#FF8A78"/>
				<stop  offset="1" style="stop-color:#FFA799"/>
			</linearGradient>
			<path class="st27" d="M240.7,144.7l1.2,4.4c0.4,0.9,0.6,1.2,1.9,0.6c0.7-0.4,0.5-1.9,0.3-3c-0.2-1.2-0.1-2.3,0.1-2.8
				c0.2-0.5,0.5-0.9,0.8-1.2c0.8-0.6,1.7-1.1,1.2-3.1c-0.3-1.1-0.2-1.9-0.3-3l-2.8-0.2c0.1,2.5-1,4.2-2.2,6.3
				C240.3,143.8,240.4,143.6,240.7,144.7z"/>
			<g>
				<linearGradient id="SVGID_18_" gradientUnits="userSpaceOnUse" x1="245.0404" y1="131.1604" x2="244.8257" y2="100.3687">
					<stop  offset="0" style="stop-color:#965CF2"/>
					<stop  offset="1" style="stop-color:#FF8ADC"/>
				</linearGradient>
				<path class="st28" d="M250.7,116.9l0-0.1c0-0.2,0-0.4-0.1-0.6c-0.7-4.8-2.2-12.8-3.3-17c-2-7.3-8.2-4.8-8.2-0.4
					c0.1,4.1,3.9,13.1,4.8,17c-0.3,2.8-1.5,16.9-1.1,19.4c0.1,0.5,0.3,0.8,0.3,1.3c0,0.4-0.1,0.5-0.2,1c1.1,0.1,2.2,0.3,3.3,0.6
					c0-0.3,0.1-0.8,0.2-1.1c0.2-0.5,0.7-0.8,0.9-1.3c1.1-2.2,2.9-13.8,3.4-17.6C250.6,117.7,250.7,117.3,250.7,116.9z"/>
				<path class="st29" d="M249.8,121.4c0.4-1,0.9-4.2,0.9-5.6c0-2.9-1.1-5.3-1.4-7.2l-10.2-10.1c0.1,1.9,2.3,6.9,3.2,10.7
					C243.7,115,246.8,120,249.8,121.4z"/>
			</g>
		</g>
		<linearGradient id="SVGID_19_" gradientUnits="userSpaceOnUse" x1="264.6345" y1="124.1114" x2="257.2864" y2="100.7416">
			<stop  offset="0" style="stop-color:#965CF2"/>
			<stop  offset="1" style="stop-color:#FF8ADC"/>
		</linearGradient>
		<path class="st30" d="M281.3,122.1c-1.4,4.7-8.2,8.5-14.9,7c-1.6-1.8-2.1-1.2-3.6-2.7c-1.3-1.3-3-3.1-5.3-5.5
			c-1.3-2-6.4-2.8-8.6-3.7c-2.5-1-4.8-3.1-5.8-7.1c-0.5-1.9-2.7-7.9-3.5-9.9c-2.3-5.7,2.7-7.9,6-5.8c2.2,0.9,6.9,2,9.3,2.5
			c1.4,0.3,2.3,0.4,4.1,0.6c2.8,0.3,5.8,2.3,8,4C272.8,106.2,280.7,115.6,281.3,122.1z"/>
		<g>
			<linearGradient id="SVGID_20_" gradientUnits="userSpaceOnUse" x1="246.505" y1="97.5542" x2="248.3642" y2="99.8144">
				<stop  offset="0" style="stop-color:#FF8A78"/>
				<stop  offset="1" style="stop-color:#FFA799"/>
			</linearGradient>
			<path class="st31" d="M247.5,92.2c0.6,2.5,2.1,4.9,4,6.8c-0.7,2.5-5.6,4.4-7.1,2.7c-0.1-0.3-0.3-1.1-0.5-1.4
				c-0.3-0.7-0.5-1.4-0.7-1.9L247.5,92.2z"/>
			<g>
				<path class="st32" d="M233.4,88.8c0.2,1.9,0.9,3.6,2.5,5.2c0.4,0.4,0.6,0.8,0.7,1.2c0.6,2.3,1.1,2.8,2.6,3.8
					c1.4,1,2,1.7,2.8,1.8c0.8,0.1,1.6-0.4,2.2-0.8c1.3-0.9,2.7-3.4,3.4-5c0.5-1.2,0.2-1.5-0.1-2.7c0.4-2.1-1.1-2.3-1.6-2
					c-1.4,0.8-0.5,2.3-0.9,3.2C240.1,94.6,235,90.2,233.4,88.8z"/>
				<path class="st33" d="M233.4,88.8c2.7,4.6,8.8,5.7,11.6,4.8C240.1,94.6,235,90.2,233.4,88.8z"/>
			</g>
		</g>
		<path class="st29" d="M265.2,127.9c0,0-0.1,0-0.1,0c-0.7-0.5-1.3-0.6-2.3-1.5c-1.3-1.3-3-3.1-5.3-5.5c-0.7-1-2.3-1.7-4-2.3
			c0.3-4.7,0.2-15.5,1.7-16.9c2.1-1.9,5.1-3.2,7.5-0.7C267.3,105.8,262.7,123.3,265.2,127.9z"/>
		<g>
			<polygon class="st8" points="258.7,134.2 255.8,123.2 257.8,121.4 276.3,131.7 274.6,133.7 266.5,139 			"/>
			<path class="st13" d="M255.8,123.2l-1.3-4.3c7.7,4.3,15.4,8.5,23.1,12.8l-3,2L255.8,123.2z"/>
		</g>
	</g>
	<g>
		<linearGradient id="SVGID_21_" gradientUnits="userSpaceOnUse" x1="272.853" y1="263.961" x2="237.0517" y2="123.1218">
			<stop  offset="0" style="stop-color:#965CF2"/>
			<stop  offset="1" style="stop-color:#FF8ADC"/>
		</linearGradient>
		<path class="st34" d="M218,149.3c1.2-8.8,7.9-12.6,15-8.5l73,42.6c7.1,4.2,11.8,14.7,10.6,23.5l-11.1,84.1
			c-1.2,8.8-7.9,12.6-15,8.5l-73-42.6c-7.1-4.2-11.8-14.7-10.6-23.5L218,149.3z"/>
		<g>
			<path class="st13" d="M220.6,148.8c0.1-1,0.3-5.2,1.5-6.1c1.5-1.2,4.4-2.9,5.2-3.1c2.2-0.6,4.7-0.2,7.2,1.3l68.2,39.5
				c6.6,3.9,11,13.7,9.9,21.9l-10.3,78.2c-0.4,2.9-1.4,5.2-2.8,6.8c-1,1.1-3.2,2.6-5.1,3.6c-2,1-4.7-1.8-5.9-2.5l-68.2-39.5
				c-6.6-3.9-11-13.7-9.9-21.9L220.6,148.8z"/>
			<path class="st19" d="M218.2,150.5c1.1-8.2,7.3-11.7,13.9-7.9l67.8,39.6c6.6,3.9,11,13.7,9.9,21.9l-10.3,78.2
				c-1.1,8.2-7.3,11.7-13.9,7.9l-67.8-39.6c-6.6-3.9-11-13.7-9.9-21.9L218.2,150.5z"/>
			<g>
				<linearGradient id="SVGID_22_" gradientUnits="userSpaceOnUse" x1="275.2449" y1="162.9482" x2="262.4735" y2="181.1055">
					<stop  offset="0" style="stop-color:#6D6AFE"/>
					<stop  offset="1" style="stop-color:#3FB0F7"/>
				</linearGradient>
				<path class="st35" d="M218.2,150.5c1.1-8.2,7.3-11.7,13.9-7.9l67.8,39.6c6.6,3.9,11,13.7,9.9,21.9l-1.1,7.8l-91.6-53.5
					L218.2,150.5z"/>
				<g>
					<path class="st19" d="M229.1,150.8c1.5,0.4,2.6,2.1,2.5,4c-0.1,1.9-1.4,3.1-2.9,2.7c-1.5-0.4-2.6-2.1-2.5-4
						C226.3,151.6,227.6,150.4,229.1,150.8z"/>
					<path class="st19" d="M237.1,155.7c1.5,0.4,2.6,2.1,2.5,4c-0.1,1.9-1.4,3.1-2.9,2.7c-1.5-0.4-2.6-2.1-2.5-4
						C234.3,156.6,235.6,155.4,237.1,155.7z"/>
					<path class="st19" d="M245,160.7c1.5,0.4,2.6,2.1,2.5,4c-0.1,1.9-1.4,3.1-2.9,2.7c-1.5-0.4-2.6-2.1-2.5-4
						C242.3,161.6,243.5,160.4,245,160.7z"/>
				</g>
			</g>
			<g>
				<g>
					<g>
						<linearGradient id="SVGID_23_" gradientUnits="userSpaceOnUse" x1="234.2522" y1="186.0283" x2="231.2682" y2="190.2501">
							<stop  offset="0" style="stop-color:#6D6AFE"/>
							<stop  offset="1" style="stop-color:#3FB0F7"/>
						</linearGradient>
						<path class="st36" d="M232.6,173.9c6.9,1.6,12.2,9.9,11.8,18.5c-0.4,8.6-6.3,14.2-13.3,12.6c-6.9-1.6-12.2-9.9-11.8-18.5
							C219.7,177.9,225.7,172.2,232.6,173.9z"/>
						<linearGradient id="SVGID_24_" gradientUnits="userSpaceOnUse" x1="236.6839" y1="185.7572" x2="227.5391" y2="192.6913">
							<stop  offset="0" style="stop-color:#6D6AFE"/>
							<stop  offset="1" style="stop-color:#3FB0F7"/>
						</linearGradient>
						<path class="st37" d="M232.2,181c3.7,0.9,6.6,5.4,6.4,10c-0.2,4.6-3.4,7.7-7.1,6.8c-3.7-0.9-6.6-5.4-6.4-10
							C225.3,183.2,228.5,180.1,232.2,181z"/>
					</g>
					<g class="st38">
						<path class="st39" d="M248.6,190.5c0.2-1.8,1.6-2.6,3.1-1.7l44.3,25.5c1.5,0.9,2.4,3.1,2.2,4.9l-0.5,3.6
							c-0.2,1.8-1.6,2.6-3.1,1.7L250.3,199c-1.5-0.9-2.4-3.1-2.2-4.9L248.6,190.5z"/>
						<path class="st39" d="M246.8,203.8c0.1-1.1,1-1.5,1.8-1l26.2,15.1c0.9,0.5,1.4,1.8,1.3,2.9l-0.3,2.1c-0.1,1.1-1,1.5-1.8,1
							l-26.2-15.1c-0.9-0.5-1.4-1.8-1.3-2.9L246.8,203.8z"/>
					</g>
				</g>
				<g class="st38">
					<path class="st39" d="M217.2,207.2c0.2-1.3,1.2-1.9,2.2-1.2l76.5,43.9c1.1,0.6,1.8,2.2,1.6,3.6l-0.2,1.7
						c-0.2,1.3-1.2,1.9-2.2,1.2l-76.5-43.9c-1.1-0.6-1.8-2.2-1.6-3.6L217.2,207.2z"/>
					<path class="st39" d="M215.6,220.1c0.2-1.3,1.2-1.9,2.2-1.2l76.5,43.9c1.1,0.6,1.8,2.2,1.6,3.6l-0.2,1.7
						c-0.2,1.3-1.2,1.9-2.2,1.2L217,225.4c-1.1-0.6-1.8-2.2-1.6-3.6L215.6,220.1z"/>
					<path class="st39" d="M213.9,232.3c0.2-1.3,1.2-1.9,2.2-1.2l76.5,43.9c1.1,0.6,1.8,2.2,1.6,3.6l-0.2,1.7
						c-0.2,1.3-1.2,1.9-2.2,1.2l-76.5-43.9c-1.1-0.6-1.8-2.2-1.6-3.6L213.9,232.3z"/>
				</g>
			</g>
		</g>
	</g>
	<g>
		<g>
			<path class="st13" d="M312.8,141.7c0.2-1.7-0.9-3-0.2-4.1c0.8-1.2,3.5-2.1,4.7-2.5c1.7-0.6,3.6-0.4,5.6,0.7l81.4,46.5
				c4.8,2.7,7.9,9.8,7.1,15.8l-9.1,63.9c-0.4,2.9-1.7,5.1-3.5,6.2c-1.1,0.7-4.1,1.9-5.4,1.8c-1-0.1-0.2-1.4-1.2-2l-81.4-46.5
				c-4.8-2.7-7.9-9.8-7.1-15.8L312.8,141.7z"/>
			<linearGradient id="SVGID_25_" gradientUnits="userSpaceOnUse" x1="361.1044" y1="182.8183" x2="347.6057" y2="227.8138">
				<stop  offset="0" style="stop-color:#6D6AFE"/>
				<stop  offset="1" style="stop-color:#3FB0F7"/>
			</linearGradient>
			<path class="st40" d="M310.4,142.6c0.9-6,5.4-8.6,10.2-5.9l81.4,46.5c4.8,2.7,7.9,9.8,7.1,15.8l-9.1,63.9
				c-0.9,6-5.4,8.6-10.2,5.9l-81.4-46.5c-4.8-2.7-7.9-9.8-7.1-15.8L310.4,142.6z"/>
		</g>
		<g>
			<path class="st41" d="M304.1,209.4c0.1-0.5,0.5-0.7,0.9-0.5l90.3,51.8c0.4,0.2,0.7,0.9,0.6,1.4l-0.2,1.6
				c-0.1,0.5-0.5,0.7-0.9,0.5l-90.3-51.8c-0.4-0.2-0.7-0.9-0.6-1.4L304.1,209.4z"/>
			<path class="st5" d="M304.1,209.5c0.1-0.5,0.5-0.7,0.8-0.5l36.4,20.9c0.4,0.2,0.7,0.8,0.6,1.3l-0.2,1.5c-0.1,0.5-0.5,0.7-0.8,0.5
				l-36.4-20.9c-0.4-0.2-0.7-0.8-0.6-1.3L304.1,209.5z"/>
		</g>
		<g>
			<linearGradient id="SVGID_26_" gradientUnits="userSpaceOnUse" x1="350.8009" y1="204.7758" x2="356.9949" y2="185.7289">
				<stop  offset="0" style="stop-color:#965CF2"/>
				<stop  offset="1" style="stop-color:#FF8ADC"/>
			</linearGradient>
			<path class="st42" d="M339.8,178.8c0.2-1.4,1.3-2.1,2.4-1.4l25.1,14.3c1.1,0.6,1.9,2.3,1.7,3.8l-3.4,23.8
				c-0.2,1.4-1.3,2.1-2.4,1.4l-25.1-14.3c-1.1-0.6-1.9-2.3-1.7-3.8L339.8,178.8z"/>
			<linearGradient id="SVGID_27_" gradientUnits="userSpaceOnUse" x1="349.8192" y1="203.8772" x2="355.4646" y2="194.2621">
				<stop  offset="0" style="stop-color:#6D6AFE"/>
				<stop  offset="1" style="stop-color:#3FB0F7"/>
			</linearGradient>
			<path class="st43" d="M354.1,189.1c-4.3-2.5-8.5-0.1-9.3,5.4c-0.8,5.5,2.1,11.9,6.4,14.4c4.3,2.5,8.5,0.1,9.3-5.4
				C361.3,198,358.4,191.6,354.1,189.1z"/>
			<polygon class="st19" points="350.1,191.8 348.7,201.7 357.1,201.9 			"/>
		</g>
	</g>
	<g>
		<linearGradient id="SVGID_28_" gradientUnits="userSpaceOnUse" x1="250.073" y1="148.108" x2="248.7859" y2="147.5129">
			<stop  offset="0" style="stop-color:#FF8A78"/>
			<stop  offset="1" style="stop-color:#FFA799"/>
		</linearGradient>
		<path class="st44" d="M252.6,141.3c-0.7,1.2-0.3,3.8-0.6,5c-0.2,1-0.7,2.8-1.1,3.6c-0.1,0.3-4.9,4.5-5.1,4.3
			c-0.6-0.5-1-3.8-0.2-4.8c0.8-1,1.5-1.9,1.6-2.7c0.1-0.8,0.1-3.4,0.4-3.8c0.8-0.9,1.6-1.2,1.9-2.3L252.6,141.3z"/>
		<linearGradient id="SVGID_29_" gradientUnits="userSpaceOnUse" x1="257.8504" y1="135.371" x2="255.1169" y2="105.9685">
			<stop  offset="0" style="stop-color:#965CF2"/>
			<stop  offset="1" style="stop-color:#FF8ADC"/>
		</linearGradient>
		<path class="st45" d="M261.8,125.3c0.1-0.3,0.1-0.5,0.2-0.8c1.2-5.1,2.5-13.8,2.3-18.8c-0.1-3.8-2-7.1-6.5-5.9
			c-1.4,0.4-3,1.4-3.2,3.3c-0.2,2.2,0.1,5.8,0.3,9.5c0.2,3,0.2,8.3,0.3,10.5c0,0.1,0,0.1-0.1,0.2c-1.4,2.9-4.8,12.3-5.5,15.3
			c-0.1,0.5,0,1.1,0,1.4c0,0.3-0.1,0.7-0.4,1.1c1,0.9,1.9,1.3,3.1,1.6c0.1-0.3,0.5-0.8,0.6-1.1c0.2-0.3,1.1-0.6,1.5-1
			c1.9-2.2,6.8-12.5,7.4-15.2C261.8,125.3,261.8,125.3,261.8,125.3z"/>
	</g>
	<g>
		<path class="st5" d="M189.7,387.1l41-23.3c4.5-2,10.9-3.7,15.4-1.3c4.1,2.2,11,6.6,14,8.3c2.3,1.3,10.3,6.1,5.3,8.8
			c-14.6,7.9-29,16.9-43.9,24.9c-2.8,1.5-6.9,2.1-11.2,1.7c-4.3-0.4-8.7-1.6-12.1-3.6c-2.5-1.4-4.9-2.8-7.3-4.2
			c-3.2-1.9-4.9-4.1-5.1-6.1C185.6,390.2,186.9,388.4,189.7,387.1z"/>
		<g>
			<g>
				<g>
					<path class="st19" d="M204.8,385.9c0.8,0,3.5-2.6,6.1-1.3c3.1,1.5,8.9,0.2,11.9,0.9c0.5,0.1,1.6-0.3,1.8,0.1
						c0.6,1.1,1.3,2.8-0.3,3.9c-1.1,0.8-3.6,1.9-5.2,2.5c-1.7,0.6-4.6,1.6-6.6,1.9c-2.2,0.3-3.2,0.5-4,1.1c-1.2,0.6-2.4,0.8-3,0.7
						c-1.4-0.2-3.1-1.1-3.9-2.7c-0.2-0.5-0.3-2.8,0-4.3c0.2-1.2,0.9-2.5,1.4-3.7L204.8,385.9z"/>
					<path class="st46" d="M211.1,380.4c-1,2.3-0.7,6-3,7.2c-1.5,0.8-4,0.8-5-1.5c-0.6-1.3,0.2-3.6,0-6.6L211.1,380.4z"/>
					<path class="st47" d="M211.7,384c1.8,0.5,6.6,0.2,9.7,0.4c1.3,0.1,2.5,0.1,3.1,1.3c0.6,1.1,0.3,2.1-1,3
						c-1.1,0.8-3.1,1.7-4.7,2.3c-1.7,0.6-4.6,1.6-6.6,1.9c-2.2,0.3-3.2,0.5-4,1.1c-1.2,0.6-2.4,0.8-3,0.7c-1.4-0.2-3.1-1.2-3.9-2.9
						c-0.2-0.5-0.3-2.6,0-4.1c0.1-0.3,0.1-0.6,0.2-0.9c0.2-2.3,1-3.3,1.7-2.9c1,0.5,1.4,1.5,1.7,2.3c0.3,0.7,0.8,1.1,1.3,1.3
						c1.2,0.4,2.3-0.3,3-1.3c0.4-0.7,0.6-1.5,0.8-2.4c0-0.1,0-0.2,0-0.2c0.2-2,1.2-1.9,1.1-1.4C211.1,382.7,211.2,383.6,211.7,384z"
						/>
					<path class="st19" d="M223.9,385.4c0,0.8,1.2,0.9,0.8,2.2c0.6-0.6-0.2-2.2-0.6-2.4C224,385.1,223.9,385.1,223.9,385.4z"/>
				</g>
				<g>
					<path class="st19" d="M224.9,377.8c0.7-0.3,2.4-3.6,5.3-3.3c1.1,0.1,3-0.2,4.9-0.7c3-0.8,7.2-3.5,7.9-3.1
						c1.5,1,1.7,2.7,0.6,4.3c-0.8,1.2-2.3,2.7-3.6,3.8c-1.4,1.2-3.4,2.9-5.1,3.9c-1.6,0.9-2.2,0.8-3.4,2.4c-0.9,1-1.9,1.5-2.6,1.6
						c-1.7,0.3-4.2-0.8-5.1-1.9c-0.6-1.8-1.6-3.6-0.9-6.3L224.9,377.8z"/>
					<path class="st46" d="M228.8,370c0,2.5,1.6,5.8-0.1,7.8c-1.1,1.3-3.4,2.2-5.2,0.4c-1-1-1.2-3.4-2.4-6.1L228.8,370z"/>
					<path class="st47" d="M234.2,373.1c0.2,0,0.3-0.1,0.5-0.1c3-0.8,7-2.9,7.7-2.5c1.5,1,1.8,2.1,0.8,3.7c-0.8,1.2-2.3,2.7-3.6,3.8
						c-1.4,1.2-3.4,2.9-5.1,3.9c-1.6,0.9-2.2,0.8-3.4,2.4c-0.9,1-1.9,1.5-2.6,1.6c-1.7,0.3-4.3-0.8-5.2-1.9c-0.4-1.4-1-2.7-1-4.4
						c-0.2-2.3-0.1-3.4,0.9-3.4c1.8,0.1,2.6,1,3.3,1.5c1.6,1,2.7-0.3,3-1.9c0-0.7,0-1.4-0.1-2.1c0-0.1-0.1-0.1-0.1-0.2
						c-0.5-2,0.5-2.2,0.5-1.7c0,1,0.7,1.6,1.5,1.7C232.2,373.6,233.4,373.1,234.2,373.1z"/>
					<path class="st19" d="M242.2,370.7c0.3,0.7,1.4,0.3,1.7,1.7c0.3-0.8-1.2-1.9-1.6-1.9C242.2,370.4,242.1,370.4,242.2,370.7z"/>
				</g>
				<g>
					<linearGradient id="SVGID_30_" gradientUnits="userSpaceOnUse" x1="224.345" y1="311.9207" x2="214.8261" y2="357.4609">
						<stop  offset="0" style="stop-color:#40457F"/>
						<stop  offset="1" style="stop-color:#1E2353"/>
					</linearGradient>
					<path class="st48" d="M227.1,301.6c0.7,7.3,4.3,30.8,3.3,37.2c-1.5,9.7-1.1,21.3-1.1,31.6c-0.3,4.3-6.2,6.6-7.9,3.8
						c-1.4-9.2-3.4-17.2-4.2-22.3c-0.9-5.7-0.6-12.6,0.8-16.4c-0.6-4.1-3.4-14.7-5.7-22c-0.8-2.6-5.6-11.2-0.7-19.7L227.1,301.6z"/>
					<linearGradient id="SVGID_31_" gradientUnits="userSpaceOnUse" x1="226.4411" y1="370.1731" x2="222.8666" y2="375.3015">
						<stop  offset="0" style="stop-color:#3773B9"/>
						<stop  offset="1" style="stop-color:#003C76"/>
					</linearGradient>
					<path class="st49" d="M229.4,367.7c0,0.8,0,1.9,0,2.7c-0.3,4.3-6.3,6.7-8,3.9c-0.1-0.7-0.3-1.3-0.4-2
						C223.4,374.8,227.9,371.5,229.4,367.7z"/>
					<path class="st3" d="M230.6,334.5c-1.9,9.7-7.4,22.6-10.4,32.4c-1.6-8.4-5.4-22.6-2.1-31.3c-0.3-2.3-1.4-6.8-2.7-11.5
						c2.6-4.9,0.1-8.8,1.3-15.7c6.8-1.2-3.5-9.6,11-0.7C229.1,318,230.3,324.5,230.6,334.5z"/>
				</g>
				<g>
					<linearGradient id="SVGID_32_" gradientUnits="userSpaceOnUse" x1="232.8304" y1="317.0624" x2="200.3693" y2="361.3355">
						<stop  offset="0" style="stop-color:#40457F"/>
						<stop  offset="1" style="stop-color:#1E2353"/>
					</linearGradient>
					<path class="st50" d="M226.6,343.7c-4,8.9-11.2,26.5-15.1,37.5c-2,2.9-9.2,2.6-9.1-0.1c1.6-9.2,3.4-23.3,6.7-31.4
						c1-2.5,4.7-8.4,6.1-10.2c1-4.1,2.3-15,3.4-20.9c-0.9-4.9-4.9-13.1,2.7-20.2c3.1,2.2,12.5,3.5,16.8,1.1
						C238.8,318.8,234,326.9,226.6,343.7z"/>
					<linearGradient id="SVGID_33_" gradientUnits="userSpaceOnUse" x1="208.1352" y1="380.6289" x2="202.7327" y2="382.01">
						<stop  offset="0" style="stop-color:#3773B9"/>
						<stop  offset="1" style="stop-color:#003C76"/>
					</linearGradient>
					<path class="st51" d="M212.3,379.2c-0.2,0.5-0.5,1.4-0.7,1.9c-2.1,3-9.4,2.7-9.4-0.1c0.1-0.5,0.2-0.9,0.2-1.4
						C204.2,381.4,209.5,381.4,212.3,379.2z"/>
				</g>
			</g>
			<g>
				<g>
					<linearGradient id="SVGID_34_" gradientUnits="userSpaceOnUse" x1="241.9536" y1="210.193" x2="248.7879" y2="200.425">
						<stop  offset="0" style="stop-color:#FF8A78"/>
						<stop  offset="1" style="stop-color:#FFA799"/>
					</linearGradient>
					<path class="st52" d="M250.8,194.4c-0.3,0.6-0.6,1.2-0.8,1.8l-1.2,2.4c-0.3-1.2-1.2-1.6-1.9-1c-0.2,0.2-0.4,0.4-0.6,0.8
						c-0.1-0.3-1-1.1-2.3,0.7c-0.8-0.1-1.2,0.2-1.5,0.9c-0.2,0.4-0.4,0.8-0.5,1.3c-0.2,0.6-0.4,1.2-0.4,1.7c0,1.2,0.1,2.4,0,3.8
						c0,1.5-1.7,3.4-2.7,4.5l5.6,1.8c0.9-1.1,1.3-1.9,2.2-2.7c0.9-0.9,2-1,2.8-1.7c0.5-0.4,0.7-0.9,1.5-2c0.7-0.9,1-1.9,1.7-3
						c0.6-1.1,0.6-0.8,0.6-2c0-0.9,0.3-1.8,0.4-2.4c-1.2-0.6-2.1,0.8-2.1,2.2c-0.7,0.4-1.1,1.3-1.2,1.7c-0.9-1.2-0.4-1.7,0-3.2
						c0.6-1.1,1-2,1.3-3.1c0.2-0.5,0.4-1,0.6-1.5c0.3-0.9-0.1-1.5-0.3-1.6C251.9,193.5,251.3,193.6,250.8,194.4z"/>
					<path class="st53" d="M253.2,199.1c-0.8,0.1-1.4,1.2-1.4,2.4c-0.6,0.3-1,1.2-1.2,1.6c0.3-0.4,1.2-1.4,1.5-1.5
						C252.1,200.5,252.5,199.6,253.2,199.1L253.2,199.1z M248.9,198.4l-0.1,0.2c-0.1-0.3-0.2-0.5-0.3-0.7c0,0.8-0.5,1.4-0.8,1.8
						C248.4,199.3,248.7,198.9,248.9,198.4L248.9,198.4z M246.3,198.3c0-0.1-0.1-0.2-0.3-0.3c-0.1,0.7-0.3,1-0.6,1.6
						C245.9,199.2,246.1,198.8,246.3,198.3L246.3,198.3z M244,199L244,199c-0.2,0-0.3,0-0.4,0c-0.1,0.8-0.3,1.3-0.7,1.8
						C243.6,200.3,243.9,199.9,244,199z"/>
				</g>
				<linearGradient id="SVGID_35_" gradientUnits="userSpaceOnUse" x1="227.7148" y1="234.612" x2="235.6156" y2="249.4368">
					<stop  offset="0" style="stop-color:#A77EF7"/>
					<stop  offset="1" style="stop-color:#5E65D6"/>
				</linearGradient>
				<path class="st54" d="M229.7,226.8c2.8-4.9,5-11.1,9-16.1c0.3-0.4,1.1-0.7,1.4-1.2c0.4-0.6,0.8-1.3,1.2-1.9c1.8,0,4.1,1,5.7,2.6
					c-0.2,0.7-0.4,1.3-0.7,2c-0.2,0.8,0.2,2.4,0,3.1c-1.9,6.8-4,12.6-6.9,18.8c-3.9,5-21.3,37.4-30.4,25.7c-0.8-4.2,0.3-7.7,2.4-11
					c1.2-1.9,2.9-3.5,4.1-4.7C218.4,241.1,225.4,231.2,229.7,226.8z"/>
			</g>
			<linearGradient id="SVGID_36_" gradientUnits="userSpaceOnUse" x1="226.1754" y1="258.628" x2="221.4848" y2="299.7375">
				<stop  offset="0" style="stop-color:#A77EF7"/>
				<stop  offset="1" style="stop-color:#5E65D6"/>
			</linearGradient>
			<path class="st55" d="M210.3,275.4c0.6,5.7-1.1,11.4,0.7,16.6c0.1,0.5,0.1,2.7,0.2,3.2c1.2,6.8,15.5,13.7,27.5,7.1
				c0.1-0.8,0-1.7,0.1-3.3c-0.2-1.5,0.4-3,0.4-3.9c0-3.7-1.2-5.6-0.6-9.7c1.1-8.4,5.8-16.4,3.2-23c-0.5-1.4-1.5-2.1-2.6-3
				c-2.8-2.3-17.5-9.7-21.9-10.2C204.3,247.6,209.6,269.1,210.3,275.4z"/>
			<path class="st56" d="M239.8,279.4c1.7-6.1,3.8-11.9,1.9-16.9c-0.5-1.4-1.5-2.1-2.6-3c-2.8-2.3-2.5,3.8-6.9,3.3
				C231.4,271,235.4,278.5,239.8,279.4z"/>
			<g>
				<path class="st32" d="M230.8,246.7c-0.2,2-0.1,5,0.3,7c-4.2-0.1-10-1.2-10.7-4.4c0-0.4,0.1-0.8,0.1-1.1
					c-0.1-0.1-0.1-0.1-0.2-0.1c-1.5-1-4-1.7-5.6-3.6c-2.6-2.9-3.9-6.8-1.9-10.8c3.7-7.2,12.5-7.3,17.5-1.5c1,1.1,0.3,2.3,0.8,3.4
					c0.1,0.2,0.5,0.3,1,0.7c0.6,0.5,2.5,5,2.4,7.4c0,0.9-2.2,2.3-3.2,2.8C231.3,246.6,231.1,246.7,230.8,246.7z"/>
				<linearGradient id="SVGID_37_" gradientUnits="userSpaceOnUse" x1="226.4192" y1="246.6572" x2="224.9592" y2="250.328">
					<stop  offset="0" style="stop-color:#FF8A78"/>
					<stop  offset="1" style="stop-color:#FFA799"/>
				</linearGradient>
				<path class="st57" d="M230.8,246.7c-0.2,2-0.1,5,0.3,7c-4.2-0.1-10-1.2-10.7-4.4c0-0.4,0.1-0.8,0.1-1.1
					c-0.1-0.1-0.1-0.1-0.2-0.1c-3.2-3,1.1-6.4,6.5-3.5C227.7,246.1,229.1,246.8,230.8,246.7z"/>
				<linearGradient id="SVGID_38_" gradientUnits="userSpaceOnUse" x1="231.3685" y1="236.3808" x2="229.2147" y2="240.5162">
					<stop  offset="0" style="stop-color:#FFB89E"/>
					<stop  offset="1" style="stop-color:#FFA799"/>
				</linearGradient>
				<path class="st58" d="M234.5,243.8c0,0.4-1.7,1-2.5,1.1c0.5-4.5-3.8-5.1-3.1-9.5c0.4-2.6-2.3-3.6-1.3-5.5c1,0.6,1.8,1.4,2.6,2.3
					c1,1.1,0.3,2.3,0.8,3.4c0.1,0.2,0.5,0.3,1,0.7C232.7,236.9,234.6,241.4,234.5,243.8z"/>
				<g>
					<path class="st59" d="M228.7,242c-0.1-1-0.5-1.2-0.8-0.9c-0.4,0.3-0.7,1.2-0.6,2.2c0.2,1.7,1.7,3.1,2.8,1.8
						c-1.2,0.6-1.7-0.9-1.8-1.9C228.3,242.4,228.5,241.8,228.7,242z"/>
					<path class="st60" d="M228.4,242.6c0.6,0.5,0.9,0.8,0.9,1c0,0.2-0.2,0.5-0.7,0.3C228.3,243.5,228.3,243,228.4,242.6z"/>
				</g>
				<path class="st5" d="M220.4,249.3c-1.2,0.4-2.4,1.7-2.2,2.5c1.2,5,10.5,6.2,16.2,5c0.1,0-2.2-3-3.3-3.3
					C227.6,253.8,221.5,252.3,220.4,249.3z"/>
				<g>
					<path class="st61" d="M220,249c-1.5-1.6-4.1-2.4-5.8-4.3c-1.6-1.9-3.4-4.8-2.3-7.7c-1.9-6.1,4.7-10.9,10.2-12
						c4-0.8,6.4,3.5,4.6,6.4c1.5,1.7,1.4,3.9,1.3,4.4c-0.3,1.7-0.3,2,0.3,3.3c0.4,1,1.5,3.5-0.4,1.9c-1.3-1-2.2,1.2-1.7,2.8
						c0.2,0.7,0.4,1.6,0.3,3C226,250,220.8,249.9,220,249z"/>
					<linearGradient id="SVGID_39_" gradientUnits="userSpaceOnUse" x1="226.8049" y1="226.3226" x2="217.2931" y2="231.7704">
						<stop  offset="0" style="stop-color:#8A4791"/>
						<stop  offset="1" style="stop-color:#562E65"/>
					</linearGradient>
					<path class="st62" d="M213.7,234.2c-1.3-5.9,6.4-8.9,9.5-8.9c3.1-0.1,5.5,5,1.8,6.7C222.5,233.1,217.6,230.8,213.7,234.2z"/>
				</g>
			</g>
			<g>
				<linearGradient id="SVGID_40_" gradientUnits="userSpaceOnUse" x1="275.0162" y1="250.8739" x2="281.3902" y2="242.4535">
					<stop  offset="0" style="stop-color:#FF8A78"/>
					<stop  offset="1" style="stop-color:#FFA799"/>
				</linearGradient>
				<path class="st63" d="M275.1,242.5c-0.2,0.5-0.2,0.7-0.2,1.2c-0.3,0.7-0.5,1.3-0.6,1.8c-0.2,1-0.1,1.7-0.1,3
					c0,0.7,0.1,1.1,0.3,1.8c-0.7,1.5-1.9,2.4-3,3.6l3.5,2.7c1.5-1,2.7-2,3.9-2.9c1-0.4,1.4-0.6,1.7-1c0.8-0.9,3.2-3.4,3.4-4.4
					c0.2-1.1-0.1-3.7-0.4-5.1c-0.6-3.6-2-7.4-2.2-5.7c-0.3,0.4-0.1,3.6-0.3,4.1c-0.8,1-1.2,1.4-2.3,2.5c-0.7,0.4-1.1,0.8-1.4,0.8
					c-0.4,0.1-0.6-0.2-0.6-0.5c0-0.4,0.2-1,0.4-1.9c0-1.5-0.4-2.4-1.2-2.3c-0.4,0-0.7,0.3-0.8,0.7
					C275.1,241.4,275.2,241.9,275.1,242.5z"/>
				<linearGradient id="SVGID_41_" gradientUnits="userSpaceOnUse" x1="255.1668" y1="253.999" x2="257.0972" y2="293.1632">
					<stop  offset="0" style="stop-color:#A77EF7"/>
					<stop  offset="1" style="stop-color:#5E65D6"/>
				</linearGradient>
				<path class="st64" d="M239.4,257.6c4.9,0.8,14.3,6.1,20.8,9c3.6-5.2,8.4-11.3,11.3-13.4c0.3-0.2,1.2-0.7,1.5-1
					c0.4-0.5,0.8-1.1,1.2-1.6c1.8,0.3,4.5,2.5,4.5,3.6c-0.3,0.5-0.6,1.1-0.9,1.7c-0.2,0.4-0.1,1.3-0.3,1.7c-1,3.6-6.5,12-9,15.7
					c-1.5,2.2-2,3.4-3,4.1c-1.6,1-3.8,0.5-7.9-0.6c-3.5-0.9-14.8-2.9-19.9-5.7c-3.7-1.9-6.5-5.4-5-9.4
					C233.5,259.1,236.3,257.1,239.4,257.6z"/>
			</g>
		</g>
	</g>
</g>
</svg>
