<?xml version="1.0" encoding="utf-8"?>
<!-- Generator: Adobe Illustrator 24.2.3, SVG Export Plug-In . SVG Version: 6.00 Build 0)  -->
<svg version="1.1" id="Layer_1" xmlns="http://www.w3.org/2000/svg" xmlns:xlink="http://www.w3.org/1999/xlink" x="0px" y="0px"
	 viewBox="0 0 500 500" style="enable-background:new 0 0 500 500;" xml:space="preserve">
<style type="text/css">
	.st0{opacity:0.4;fill:#577CA0;}
	.st1{fill:#212A38;}
	.st2{fill:#3D5476;}
	.st3{fill:#E8573E;}
	.st4{fill:#FBBFA7;}
	.st5{fill:#577CA0;}
	.st6{fill:#FFFFFF;}
	.st7{fill:#92BACE;}
	.st8{fill:#BDD1DB;}
	.st9{fill:#F36E54;}
	.st10{fill:#BF3C27;}
</style>
<polygon class="st0" points="122.1,359.9 225.5,419.8 281.6,387.3 341.3,421.9 418,377.5 425,373.4 341,325 304.9,346 225.2,299.9 
	"/>
<g>
	<path class="st1" d="M137.6,260.3l0,1.4l0,8c-1.7-0.5-3.3-1.1-4.8-1.9C134.1,265.4,135.7,262.9,137.6,260.3z"/>
	<path class="st1" d="M196.1,226.3c2,0.4,3.6,1.2,4.8,2.2c-1.5,2.6-3.2,5-4.8,7.4l0-7.3L196.1,226.3z"/>
	<path class="st2" d="M166.1,93.5l0.2,66.2c-19.4,8.7-31.2,7.4-37.1,1.4l-10.3,52.2l-3.9-15c-0.1,0-0.2,0.1-0.3,0.1
		c-0.3,0.1-0.6,0.3-0.8,0.4c-0.3,0.2-0.7,0.4-1,0.7c-0.9,0.7-1.6,1.6-2.3,2.5C108.9,139.4,143.3,106.8,166.1,93.5z"/>
	<path class="st3" d="M166.1,93.5l0.3-0.2c22.9-13.2,57.7-20.7,56.3,44c-0.6-0.2-1.4-0.2-2.3,0.1c-0.3,0.1-0.7,0.3-1,0.5
		c-0.4,0.2-0.8,0.5-1.1,0.8l-3.8,19.5l-7.7-29.3c-2.3,2.9-5.3,5.3-8.4,7.3c-0.2,0.1-0.4,0.3-0.6,0.4c-0.2,0.1-0.4,0.3-0.7,0.4
		c-6.5,3.6-13.6,4.9-17.7,2.8c-0.3-0.1-0.5-0.3-0.8-0.5c2.6,5.4,6.7,7.4,11.7,7.1c-2.8,1.9-5.5,3.6-8.1,5.1
		c-0.7,0.4-1.3,0.8-1.9,1.1c-0.2,0.1-0.4,0.2-0.6,0.4c-0.1,0.1-0.3,0.2-0.4,0.3c-3.6,2.1-7.1,3.9-10.3,5.4c-0.8,0.4-1.7,0.8-2.5,1.1
		L166.1,93.5z"/>
	<path class="st4" d="M196.1,223.3l0,3l0,2.3l0,7.3c-8.4,12.2-18.3,22.1-29.2,28.4l-0.3,0.2l0-9.9l0.3-0.2
		c10.5-6.1,19.8-16.1,27.5-28.4C195,225.1,195.6,224.2,196.1,223.3z"/>
	<path class="st5" d="M137.6,257.1c0.6,0.3,1.2,0.5,1.8,0.8c7.7,3.3,16.8,2.6,27.2-3.3l0,9.9c-10.8,6.2-20.6,7.6-29,5.2l0-8l0-1.4
		L137.6,257.1z"/>
	<path class="st4" d="M182.1,179.9c0-3.3,2.7-7.6,5.9-9.5c3.3-1.9,6-0.7,6,2.6c0,3.3-2.7,7.6-5.9,9.5
		C184.8,184.4,182.1,183.3,182.1,179.9z M179.4,172.2c-1.8,1-3.2,0.2-3.2-1.8c0-2,1.4-4.5,3.2-5.5l17.2-9.9c1.8-1,3.2-0.2,3.2,1.8
		c0,2-1.4,4.5-3.2,5.5L179.4,172.2z M190.2,146.2c-2.8,1.9-5.5,3.6-8.1,5.1c-0.7,0.4-1.3,0.8-1.9,1.1c-0.2,0.1-0.4,0.2-0.6,0.4
		c-0.1,0.1-0.3,0.2-0.4,0.3c-3.6,2.1-7.1,3.9-10.3,5.4c-0.8,0.4-1.7,0.8-2.5,1.1l0.2,75.2l0.1,19.8l0.3-0.2
		c10.5-6.1,19.8-16.1,27.5-28.4c0.6-0.9,1.1-1.8,1.7-2.7c6.2-10.5,11.3-22.6,15-35.3c0.4-0.1,0.7-0.3,1.1-0.5
		c2.4-1.4,4.3-4.3,4.8-7.5l6.2-36.8c0.4-2.6,1-5.5-0.5-5.9c-0.6-0.2-1.4-0.2-2.3,0.1c-0.3,0.1-0.7,0.3-1,0.5
		c-0.4,0.2-0.8,0.5-1.1,0.8l-3.8,19.5l-7.7-29.3c-2.3,2.9-5.3,5.3-8.4,7.3c-0.2,0.1-0.4,0.3-0.6,0.4c-0.2,0.1-0.4,0.3-0.7,0.4
		c-6.5,3.6-13.6,4.9-17.7,2.8c-0.3-0.1-0.5-0.3-0.8-0.5C181.2,144.5,185.2,146.5,190.2,146.2z"/>
	<path class="st6" d="M128.8,201.6l4.3,0.3l-0.1,0.6c-0.2,0.9-0.2,1.9-0.2,2.8c0,0.9,0.1,1.7,0.2,2.5l0.1,0.4l-4.2,5.3
		c0.7,2,1.8,3.6,3.3,4.6l4.2-5.3l0.3,0.1c1.2,0.5,2.5,0.6,4,0.4l0.4-0.1l0,5.6c1.1-0.4,2.2-0.9,3.3-1.5c1.1-0.6,2.2-1.4,3.3-2.3
		l0-5.6l0.4-0.4c1.5-1.4,2.8-3.1,4-4.9l0.3-0.5l4.2,0.4c1.5-2.7,2.6-5.6,3.3-8.4l-4.3-0.4l0.1-0.6c0.2-1,0.2-1.9,0.2-2.8
		c0-0.9-0.1-1.7-0.2-2.5l-0.1-0.5l4.2-5.3c-0.7-2-1.8-3.6-3.3-4.6l-4.2,5.3l-0.3-0.2c-1.2-0.5-2.5-0.6-4-0.3l-0.4,0.1l0-5.6
		c-1.1,0.4-2.2,0.9-3.3,1.5c-1.1,0.6-2.2,1.4-3.3,2.3l0,5.6l-0.4,0.4c-1.5,1.4-2.8,3.1-4,4.9l-0.3,0.6l-4.3-0.4
		C130.6,196,129.5,198.8,128.8,201.6z M137.7,202.5c0-4.2,3-9.4,6.6-11.5c3.7-2.1,6.7-0.4,6.7,3.8c0,4.2-3,9.4-6.6,11.5
		C140.7,208.4,137.7,206.7,137.7,202.5z"/>
	<path class="st7" d="M137.7,202.5c0,4.2,3,5.9,6.7,3.8c3.7-2.1,6.7-7.3,6.6-11.5c0-4.2-3-5.9-6.7-3.8
		C140.7,193.1,137.7,198.2,137.7,202.5z M140.9,200.6c0-2.2,1.6-4.9,3.5-6.1c1.9-1.1,3.5-0.2,3.5,2c0,2.2-1.6,5-3.5,6.1
		C142.4,203.8,140.9,202.9,140.9,200.6z"/>
	<path class="st5" d="M201,228.4l0,6.3l0,16.7l0,5l9.1-5.3c20.9-12.1,38.1-2.3,38.2,21.8l0.1,27.2l-81.6,47.1l-0.1-46.8l-0.1-36
		l0.3-0.2c11-6.3,20.8-16.3,29.2-28.4C197.8,233.5,199.4,231,201,228.4z"/>
	<path class="st2" d="M109.5,346.3c0,5.3,3.8,7.4,8.4,4.8c4.6-2.7,8.3-9.1,8.3-14.4c0-5.3-3.8-7.4-8.4-4.8
		C113.3,334.5,109.5,341,109.5,346.3z M145.5,302.3c-1.8,3.1-1.8,6.5,0,7.5c0.9,0.5,2.1,0.3,3.3-0.3c1.2-0.7,2.4-1.9,3.3-3.4
		c1.8-3.1,1.8-6.4,0-7.5c-0.9-0.5-2.1-0.3-3.3,0.3C147.6,299.5,146.4,300.7,145.5,302.3z M115,326.7c0.9-0.8,1.9-1.4,2.9-2
		c1-0.6,1.9-1,2.9-1.3l0.6-0.2l3-7.9c2.6-0.5,5-0.3,7.1,0.6l-3,7.9l0.4,0.3c1.3,0.9,2.3,2.3,2.9,4.1l0.2,0.5l6.1-3.5
		c0.6,2.8,0.6,6,0,9.4l-6.1,3.5l-0.2,0.7c-0.6,2.5-1.6,5-2.9,7.4l-0.4,0.7l3.1,4.3c-2.1,3.3-4.5,6.3-7.1,8.8l-3.1-4.4l-0.6,0.5
		c-0.9,0.8-1.9,1.4-2.9,2c-1,0.6-1.9,1-2.9,1.3l-0.6,0.2l-3,7.9c-2.6,0.5-5,0.3-7.1-0.6l3-7.9l-0.4-0.3c-1.3-0.9-2.3-2.3-2.9-4.1
		l-0.2-0.5l-6.1,3.5c-0.6-2.8-0.6-6,0-9.4l6.1-3.5l0.2-0.7c0.6-2.5,1.6-5,2.9-7.4l0.4-0.7l-3.1-4.3c2.1-3.3,4.5-6.3,7.1-8.8l3.1,4.4
		L115,326.7z M148.8,294.2c0.7-0.4,1.4-0.7,2-0.9l1.2-3.8c1.1-0.3,2.2-0.3,3.1-0.1l-1.2,3.8c0.3,0.1,0.6,0.2,0.9,0.4
		c0.3,0.2,0.5,0.4,0.8,0.6l2.7-3c0.7,0.7,1.2,1.7,1.5,2.7l-2.7,3c0.2,0.8,0.3,1.7,0.2,2.6l2.9-0.8c-0.1,1.4-0.4,2.8-0.8,4.3
		l-2.9,0.8c-0.4,1.1-0.8,2.1-1.4,3.2l1.7,1.8c-0.8,1.4-1.8,2.8-2.8,3.9l-1.7-1.8c-0.8,0.9-1.6,1.6-2.5,2.2l-0.2,3.6
		c-0.3,0.2-0.5,0.3-0.8,0.5c-0.9,0.5-1.8,0.9-2.7,1.2l0.2-3.5c-0.8,0.2-1.7,0.3-2.4,0.1l-2.1,3.6c-0.5-0.1-0.9-0.3-1.3-0.5
		c-0.4-0.2-0.8-0.5-1.1-0.9l2.1-3.6c-0.5-0.6-0.9-1.3-1.1-2.1l-2.9,2c-0.3-1.1-0.4-2.4-0.3-3.8l2.9-2c0.1-1.1,0.3-2.1,0.7-3.3
		l-2.4-0.6c0.5-1.4,1.2-2.9,2-4.4l2.4,0.5c0.6-1,1.3-2,2.1-2.8l-0.8-2.9c1.1-1.1,2.2-2.1,3.3-2.9l0.8,2.8
		C148.5,294.4,148.6,294.3,148.8,294.2z M132.8,273.3l0,17.5l0,5l-9.1,5.3c-20.9,12.1-38,41.7-38,65.7l0.1,27.2l81-46.8l-0.1-46.8
		l-0.1-36c-10.8,6.2-20.6,7.6-29,5.2c-1.7-0.5-3.3-1.1-4.8-1.9L132.8,273.3z"/>
	<path class="st3" d="M179.4,164.9l17.2-9.9c1.8-1,3.2-0.2,3.2,1.8c0,2-1.4,4.5-3.2,5.5l-17.2,9.9c-1.8,1-3.2,0.2-3.2-1.8
		C176.2,168.4,177.6,165.9,179.4,164.9z"/>
	<path class="st3" d="M188,170.4c3.3-1.9,6-0.7,6,2.6c0,3.3-2.7,7.6-5.9,9.5c-3.3,1.9-6,0.7-6-2.6
		C182.1,176.6,184.7,172.3,188,170.4z"/>
	<path class="st6" d="M144.4,194.6c1.9-1.1,3.5-0.2,3.5,2c0,2.2-1.6,5-3.5,6.1c-2,1.1-3.5,0.2-3.5-2
		C140.9,198.4,142.4,195.7,144.4,194.6z"/>
	<path class="st5" d="M109.5,346.3c0-5.3,3.7-11.8,8.3-14.4c4.6-2.7,8.4-0.5,8.4,4.8c0,5.3-3.7,11.7-8.3,14.4
		C113.3,353.7,109.6,351.6,109.5,346.3z M104.2,331.7l3.1,4.3l-0.4,0.7c-1.3,2.4-2.3,4.9-2.9,7.4l-0.2,0.7l-6.1,3.5
		c-0.5,3.4-0.5,6.6,0,9.4l6.1-3.5l0.2,0.5c0.6,1.8,1.6,3.1,2.9,4.1l0.4,0.3l-3,7.9c2.1,0.9,4.5,1.1,7.1,0.6l3-7.9l0.6-0.2
		c0.9-0.3,1.9-0.8,2.9-1.3c1-0.6,1.9-1.2,2.9-2l0.6-0.5l3.1,4.4c2.6-2.5,5-5.5,7.1-8.8l-3.1-4.3l0.4-0.7c1.3-2.4,2.3-4.9,2.9-7.4
		l0.2-0.7l6.1-3.5c0.5-3.4,0.5-6.6,0-9.4l-6.1,3.5l-0.2-0.5c-0.6-1.8-1.6-3.1-2.9-4.1l-0.4-0.3l3-7.9c-2.1-0.9-4.5-1.1-7.1-0.6
		l-3,7.9l-0.6,0.2c-0.9,0.3-1.9,0.8-2.9,1.3c-1,0.6-1.9,1.2-2.9,2l-0.6,0.5l-3.1-4.4C108.7,325.3,106.3,328.4,104.2,331.7z"/>
	<path class="st3" d="M145.5,309.8c-1.8-1-1.8-4.4,0-7.5c0.9-1.6,2.1-2.7,3.3-3.4c1.2-0.7,2.4-0.8,3.3-0.3c1.8,1,1.8,4.4,0,7.5
		c-0.9,1.6-2.1,2.7-3.3,3.4C147.6,310.1,146.4,310.3,145.5,309.8z M144.2,294.5l0.8,2.9c-0.7,0.8-1.4,1.8-2.1,2.8l-2.4-0.5
		c-0.8,1.4-1.5,2.9-2,4.4l2.4,0.6c-0.3,1.1-0.6,2.2-0.7,3.3l-2.9,2c-0.1,1.4,0,2.7,0.3,3.8l2.9-2c0.2,0.8,0.6,1.6,1.1,2.1l-2.1,3.6
		c0.4,0.3,0.7,0.6,1.1,0.9c0.4,0.2,0.9,0.4,1.3,0.5l2.1-3.6c0.7,0.2,1.6,0.1,2.4-0.1l-0.2,3.5c0.9-0.3,1.8-0.7,2.7-1.2
		c0.3-0.1,0.5-0.3,0.8-0.5l0.2-3.6c0.9-0.6,1.7-1.4,2.5-2.2l1.7,1.8c1-1.2,1.9-2.5,2.8-3.9l-1.7-1.8c0.6-1.1,1-2.1,1.4-3.2l2.9-0.8
		c0.4-1.5,0.7-3,0.8-4.3l-2.9,0.8c0-0.9,0-1.8-0.2-2.6l2.7-3c-0.3-1.1-0.8-2-1.5-2.7l-2.7,3c-0.2-0.2-0.5-0.5-0.8-0.6
		c-0.3-0.1-0.6-0.3-0.9-0.4l1.2-3.8c-1-0.2-2-0.2-3.1,0.1l-1.2,3.8c-0.7,0.2-1.3,0.5-2,0.9c-0.1,0.1-0.3,0.2-0.4,0.2l-0.8-2.8
		C146.4,292.4,145.3,293.4,144.2,294.5z"/>
	<path class="st2" d="M232.1,246.6c-0.2,0-0.4-0.1-0.6-0.2c-0.6-0.1-1.2-0.2-1.7-0.2c-0.4,0-0.7-0.1-1.1-0.1c-0.8,0-1.5,0-2.2,0
		c-0.4,0-0.9,0-1.3,0c-0.7,0.1-1.5,0.2-2.2,0.3c-0.4,0.1-0.9,0.1-1.3,0.2c-0.8,0.2-1.6,0.4-2.4,0.7c-0.4,0.1-0.8,0.2-1.2,0.3
		c-0.9,0.3-1.8,0.7-2.7,1c-0.4,0.2-0.8,0.3-1.2,0.5c-1.3,0.6-2.7,1.3-4,2.1l-9.1,5.3l0-5l0-7.4c0.4-0.2,0.7-0.4,1.1-0.6
		c0.3-0.2,0.7-0.3,1-0.5c0.1,0,0.2-0.1,0.2-0.1c0.1,0,0.2-0.1,0.3-0.1c0.5-0.2,1-0.4,1.5-0.6c0.5-0.2,1-0.4,1.5-0.6
		c0.1,0,0.2-0.1,0.3-0.1c0.1,0,0.2-0.1,0.2-0.1c0.3-0.1,0.7-0.2,1-0.3c0.5-0.2,1-0.3,1.6-0.4c0.3-0.1,0.5-0.1,0.8-0.2
		c0.1,0,0.2,0,0.3-0.1c0.1,0,0.3-0.1,0.4-0.1c0.6-0.1,1.1-0.2,1.7-0.3c0.4,0,0.7-0.1,1.1-0.1c0.1,0,0.2,0,0.3,0c0.1,0,0.2,0,0.3,0
		c0.6,0,1.2-0.1,1.8-0.1c0.3,0,0.5,0,0.8,0c0.2,0,0.4,0,0.6,0c0.2,0,0.4,0,0.6,0c0.8,0.1,1.5,0.2,2.2,0.3c0.3,0.1,0.5,0.1,0.7,0.2
		c0.7,0.2,1.4,0.3,2,0.6c0.1,0,0.1,0.1,0.2,0.1c1,0.4,2,0.8,2.9,1.4l10.8,6.3c-1.4-0.8-2.9-1.4-4.4-1.8
		C232.6,246.8,232.4,246.7,232.1,246.6z"/>
	<path class="st1" d="M75,358.9c0-0.6,0-1.2,0.1-1.8c0-0.3,0-0.6,0.1-0.9c0-0.1,0-0.2,0-0.4c0-0.2,0-0.4,0-0.6
		c0.1-0.6,0.1-1.2,0.2-1.8c0.1-0.6,0.2-1.3,0.3-1.9c0.1-0.8,0.2-1.3,0.3-1.9c0.1-0.7,0.3-1.3,0.4-2c0.1-0.3,0.1-0.5,0.2-0.8
		c0-0.1,0.1-0.3,0.1-0.4c0.1-0.3,0.1-0.5,0.2-0.8c0.2-0.7,0.3-1.3,0.5-2c0.1-0.5,0.3-1,0.5-1.6c0-0.1,0-0.2,0.1-0.2
		c0-0.1,0-0.1,0.1-0.2c0.2-0.7,0.4-1.3,0.6-2c0.2-0.7,0.4-1.3,0.7-1.9c0-0.1,0.1-0.3,0.2-0.4c0-0.1,0.1-0.2,0.1-0.3
		c0.1-0.4,0.3-0.8,0.4-1.2c0.2-0.6,0.5-1.2,0.7-1.9c0.2-0.5,0.4-0.9,0.6-1.4c0-0.1,0.1-0.1,0.1-0.2c0-0.1,0.1-0.2,0.1-0.2
		c0.3-0.6,0.6-1.2,0.8-1.9c0.3-0.7,0.6-1.3,1-2c0.1-0.1,0.1-0.2,0.2-0.3c0.1-0.1,0.1-0.3,0.2-0.4c0.3-0.5,0.5-1.1,0.8-1.6
		c0.3-0.7,0.7-1.3,1.1-1.9c0.2-0.3,0.4-0.7,0.6-1c0.1-0.1,0.1-0.3,0.2-0.4c0.3-0.6,0.7-1.1,1-1.6c0.5-0.8,1-1.7,1.6-2.5
		c0.1-0.1,0.2-0.3,0.3-0.4c0.7-1.1,1.5-2.1,2.2-3.1c0.1-0.1,0.1-0.2,0.2-0.3c0.6-0.8,1.1-1.5,1.7-2.3c0.4-0.6,0.9-1.1,1.3-1.6
		c0,0,0.1-0.1,0.1-0.1c0.5-0.7,1-1.2,1.5-1.8c0.5-0.6,1-1.1,1.5-1.6c0.1-0.1,0.1-0.1,0.2-0.2c0.1-0.1,0.2-0.2,0.2-0.2
		c0.4-0.4,0.8-0.8,1.1-1.2c0.5-0.5,1.1-1.1,1.6-1.6c0.1-0.1,0.3-0.3,0.4-0.4c0.1-0.1,0.2-0.2,0.4-0.3c0.3-0.3,0.6-0.5,0.9-0.8
		c0.6-0.5,1.1-1,1.7-1.5c0.2-0.2,0.5-0.4,0.7-0.6c0.1-0.1,0.2-0.2,0.4-0.3c0.2-0.2,0.4-0.3,0.6-0.5c0.5-0.4,1.1-0.9,1.7-1.3
		c0.4-0.3,0.8-0.6,1.2-0.8c0.1-0.1,0.2-0.1,0.2-0.2c0.1-0.1,0.2-0.1,0.2-0.2c0.5-0.4,1.1-0.7,1.6-1.1c0.5-0.3,1.1-0.7,1.6-1
		c0.1-0.1,0.2-0.1,0.4-0.2l9.1-5.3l0-5l0-17.5l0-5.5c0.2-0.3,0.4-0.7,0.6-1c0.2-0.3,0.4-0.6,0.5-0.9c0.6-1,1.2-2,1.9-3.1
		c0.2-0.3,0.3-0.6,0.5-0.9c0.4-0.6,0.8-1.2,1.2-1.7l0-3.2l-0.8-0.5c-0.9-0.5-1.8-1.2-2.7-1.9c-0.2-0.2-0.5-0.4-0.7-0.6
		c-0.7-0.6-1.5-1.2-2.2-1.9c-0.1-0.1-0.3-0.3-0.4-0.4c-0.8-0.8-1.6-1.7-2.3-2.7c-0.2-0.2-0.4-0.5-0.6-0.7c-0.6-0.8-1.2-1.6-1.7-2.5
		c-0.1-0.2-0.2-0.3-0.3-0.5c-0.1-0.1-0.1-0.2-0.2-0.3c-0.2-0.3-0.4-0.7-0.6-1l-7.2-4.2c-0.4-0.2-0.8-0.6-1.1-1
		c-0.2-0.2-0.2-0.4-0.3-0.5c-0.1-0.1-0.1-0.2-0.2-0.4c0-0.1-0.1-0.2-0.1-0.3c0-0.1-0.1-0.2-0.1-0.3c0-0.1,0-0.1,0-0.2l-6.9-28.5
		c0,0,0-0.1,0-0.1c0-0.1,0-0.3-0.1-0.4c0-0.1,0-0.3,0-0.4c0-0.1,0-0.2,0-0.4c0-0.1,0-0.2,0-0.3c0-0.1,0-0.2,0-0.3c0-0.1,0-0.2,0-0.3
		c0-0.1,0-0.2,0-0.3c0-0.1,0-0.2,0-0.3c0-0.1,0-0.2,0-0.3c0-0.1,0-0.2,0-0.3c0-0.1,0-0.2,0-0.2c0-0.1,0-0.2,0.1-0.2
		c0-0.1,0-0.2,0.1-0.2c0-0.1,0-0.1,0.1-0.2c0-0.1,0-0.1,0.1-0.2c0-0.1,0-0.1,0.1-0.2c0-0.1,0-0.1,0.1-0.2c0-0.1,0-0.1,0.1-0.2
		c0-0.1,0.1-0.1,0.1-0.2c0-0.1,0.1-0.1,0.1-0.2c0-0.1,0.1-0.1,0.1-0.2c0-0.1,0.1-0.2,0.1-0.2c0.1-0.1,0.1-0.2,0.2-0.4
		c0.1-0.2,0.2-0.3,0.3-0.5c0-1.2-0.1-2.4-0.1-3.5c0-0.4,0-0.8,0-1.1c0-1,0-1.9,0-2.8c0-0.6,0-1.1,0-1.7c0-0.4,0-0.8,0.1-1.2
		c0-0.7,0.1-1.5,0.1-2.2c0-0.5,0-1,0.1-1.5c0-0.5,0.1-1,0.1-1.6c0.1-0.7,0.1-1.4,0.2-2.1c0-0.4,0.1-0.7,0.1-1.1
		c0.1-0.7,0.2-1.4,0.2-2.2c0.1-0.5,0.1-1,0.2-1.5c0-0.2,0-0.4,0.1-0.6c0.2-1.4,0.4-2.7,0.6-4.1c0.2-1.3,0.4-2.6,0.7-3.8
		c0-0.2,0.1-0.4,0.1-0.6c0.1-0.4,0.2-0.9,0.3-1.3c0.1-0.6,0.2-1.2,0.3-1.7c0.1-0.5,0.2-1,0.3-1.4c0.1-0.4,0.2-0.8,0.3-1.2
		c0.1-0.3,0.1-0.5,0.2-0.8c0.3-1.1,0.6-2.2,0.8-3.2c0.3-1.2,0.6-2.2,0.9-3.2c0.1-0.3,0.2-0.6,0.3-0.9c0.1-0.3,0.2-0.7,0.3-1
		c0.1-0.4,0.2-0.7,0.3-1.1c0.3-0.9,0.6-1.7,0.9-2.6c0.4-1,0.7-1.9,1-2.7c0.1-0.4,0.3-0.7,0.4-1.1c0.1-0.2,0.2-0.5,0.3-0.7
		c0.1-0.2,0.2-0.4,0.3-0.7c0.3-0.8,0.7-1.6,1-2.4c0.1-0.1,0.1-0.3,0.2-0.4c0.1-0.2,0.2-0.4,0.3-0.6c0.2-0.4,0.4-0.9,0.6-1.3
		c0.3-0.6,0.6-1.2,0.8-1.7c0.1-0.2,0.2-0.4,0.3-0.6c0-0.1,0.1-0.2,0.1-0.2c0.5-1,1-1.9,1.5-2.9c0-0.1,0.1-0.1,0.1-0.2
		c0.8-1.5,1.6-2.9,2.5-4.3c0.1-0.1,0.1-0.2,0.2-0.4c0.2-0.3,0.4-0.6,0.5-0.8c0.6-0.9,1.1-1.8,1.7-2.7c0.1-0.2,0.3-0.5,0.4-0.7
		c0.1-0.2,0.3-0.4,0.4-0.5c0.8-1.3,1.7-2.5,2.6-3.7c0.1-0.1,0.1-0.2,0.2-0.3c0.2-0.3,0.4-0.5,0.6-0.7c0.5-0.6,1-1.3,1.5-1.9
		c0.1-0.1,0.1-0.2,0.2-0.2c0.2-0.3,0.5-0.6,0.7-0.9c0.4-0.4,0.7-0.9,1.1-1.3c0.1-0.2,0.3-0.3,0.4-0.5c0.3-0.3,0.5-0.6,0.8-0.9
		c0.2-0.3,0.5-0.6,0.7-0.9c0.2-0.3,0.4-0.5,0.7-0.7c0.3-0.3,0.6-0.7,0.9-1c0.2-0.2,0.3-0.4,0.5-0.6c0.3-0.3,0.6-0.6,0.9-0.9
		c0.3-0.3,0.6-0.6,0.9-1c0.1-0.1,0.2-0.3,0.4-0.4c0.3-0.3,0.6-0.6,0.9-0.9c0.4-0.4,0.8-0.8,1.2-1.2c0.1-0.1,0.2-0.2,0.3-0.3
		c0.3-0.3,0.5-0.5,0.8-0.7c0.5-0.4,0.9-0.8,1.4-1.3c0.1-0.1,0.3-0.2,0.4-0.4c0.2-0.2,0.5-0.4,0.7-0.6c0.5-0.5,1-0.9,1.5-1.3
		c0.2-0.1,0.3-0.3,0.5-0.4c0.2-0.2,0.4-0.3,0.6-0.5c0.6-0.5,1.1-0.9,1.7-1.4c0.2-0.2,0.4-0.3,0.6-0.5c0.1-0.1,0.2-0.2,0.4-0.3
		c0.7-0.5,1.4-1.1,2-1.6c0.2-0.1,0.3-0.3,0.5-0.4c0,0,0.1-0.1,0.1-0.1c0.9-0.7,1.8-1.3,2.7-1.9c0,0,0.1-0.1,0.1-0.1
		c0.2-0.1,0.3-0.2,0.5-0.3c0.7-0.5,1.4-1,2.1-1.4c0.1-0.1,0.3-0.2,0.4-0.3c0.1-0.1,0.3-0.2,0.4-0.3c0.7-0.5,1.5-0.9,2.2-1.3
		c0.1-0.1,0.3-0.2,0.4-0.3c0.1-0.1,0.3-0.1,0.4-0.2c0.7-0.4,1.5-0.8,2.2-1.2c0.9-0.5,1.8-1,2.7-1.4c0,0,0.1,0,0.1-0.1
		c0.2-0.1,0.5-0.2,0.7-0.3c0.6-0.3,1.2-0.6,1.8-0.9c0.1,0,0.2-0.1,0.3-0.1c0.3-0.1,0.6-0.2,0.8-0.4c0.5-0.2,1-0.4,1.5-0.6
		c0.1,0,0.2-0.1,0.4-0.2c0.3-0.1,0.6-0.2,0.9-0.3c0.4-0.2,0.9-0.3,1.3-0.5c0.1,0,0.2-0.1,0.4-0.1c0.3-0.1,0.6-0.2,1-0.3
		c0.4-0.1,0.8-0.3,1.2-0.4c0.1,0,0.2-0.1,0.3-0.1c0.4-0.1,0.7-0.2,1.1-0.3c0.4-0.1,0.7-0.2,1.1-0.3c0.1,0,0.2-0.1,0.3-0.1
		c0.4-0.1,0.9-0.2,1.3-0.3c0.3-0.1,0.6-0.1,0.9-0.2c0.1,0,0.1,0,0.2,0c0.6-0.1,1.2-0.2,1.8-0.3c0.2,0,0.4-0.1,0.5-0.1
		c0.8-0.1,1.6-0.2,2.4-0.3c0.3,0,0.6,0,0.9,0c0.5,0,1-0.1,1.5-0.1c0.5,0,0.9,0,1.3,0.1c0.4,0,0.8,0,1.2,0.1c1,0.1,1.9,0.2,2.8,0.4
		c1,0.2,2,0.5,2.9,0.8c0.1,0,0.2,0.1,0.4,0.1c0.3,0.1,0.6,0.3,0.9,0.4c0.2,0.1,0.4,0.2,0.7,0.3c0.7,0.3,1.4,0.7,2.1,1l10.8,6.3
		c-0.1-0.1-0.3-0.1-0.4-0.2c-0.4-0.2-0.8-0.4-1.2-0.6c-0.2-0.1-0.3-0.2-0.5-0.2c-0.1-0.1-0.2-0.1-0.4-0.1c-0.5-0.2-1-0.4-1.4-0.5
		c-0.1,0-0.1,0-0.2-0.1c-0.9-0.3-1.7-0.5-2.6-0.7c-0.1,0-0.2-0.1-0.3-0.1c-1.8-0.3-3.5-0.5-5.2-0.5c-0.2,0-0.4,0-0.6,0
		c-0.6,0-1.2,0-1.8,0.1c-0.1,0-0.1,0-0.2,0c-0.3,0-0.5,0.1-0.8,0.1c-0.5,0-1,0.1-1.5,0.2c-0.1,0-0.1,0-0.2,0c-0.2,0-0.4,0.1-0.5,0.1
		c-0.1,0-0.2,0-0.3,0.1c-0.5,0.1-1,0.2-1.5,0.2c-0.1,0-0.1,0-0.2,0c-0.3,0.1-0.6,0.1-0.9,0.2c-0.5,0.1-1,0.2-1.5,0.3
		c-0.1,0-0.1,0-0.2,0c-0.2,0.1-0.5,0.1-0.7,0.2c-0.6,0.1-1.1,0.3-1.7,0.5c-0.1,0-0.1,0-0.2,0.1c-0.2,0.1-0.3,0.1-0.5,0.2
		c-0.6,0.2-1.2,0.4-1.8,0.6c-0.1,0-0.2,0.1-0.3,0.1c-0.1,0-0.3,0.1-0.4,0.2c-0.6,0.2-1.3,0.5-1.9,0.7c-0.1,0-0.2,0.1-0.3,0.1
		c-0.1,0-0.2,0.1-0.3,0.1c-0.6,0.3-1.3,0.5-1.9,0.8c-0.1,0.1-0.3,0.1-0.4,0.2c-0.1,0-0.1,0.1-0.2,0.1c-0.6,0.3-1.2,0.6-1.8,0.9
		c-0.2,0.1-0.4,0.2-0.6,0.3c-0.1,0-0.1,0.1-0.2,0.1c-0.8,0.4-1.7,0.8-2.5,1.3c-0.8,0.4-1.6,0.9-2.3,1.3c-0.3,0.2-0.5,0.3-0.8,0.5
		c-0.7,0.4-1.4,0.9-2.2,1.3c-0.3,0.2-0.6,0.4-0.8,0.5c-0.7,0.5-1.4,0.9-2.1,1.4c-0.2,0.1-0.4,0.3-0.6,0.4c-2.9,2-5.9,4.3-9,6.9
		c-0.1,0-0.1,0.1-0.2,0.1c-0.5,0.4-1,0.9-1.5,1.3c-0.4,0.3-0.7,0.6-1.1,1c-0.5,0.4-0.9,0.8-1.3,1.3c-0.4,0.4-0.8,0.7-1.2,1.1
		c-0.4,0.4-0.8,0.8-1.2,1.2c-0.4,0.4-0.8,0.8-1.2,1.3c-1.5,1.5-2.9,3.1-4.4,4.8c-0.1,0.1-0.2,0.2-0.2,0.3c-0.6,0.7-1.2,1.4-1.7,2.1
		c-0.2,0.2-0.3,0.4-0.5,0.6c-0.6,0.7-1.2,1.5-1.8,2.3c-0.2,0.2-0.4,0.5-0.6,0.7c-0.2,0.2-0.3,0.4-0.5,0.7c-0.1,0.1-0.2,0.2-0.2,0.3
		c-1.2,1.6-2.3,3.2-3.4,4.9c-0.7,1.1-1.4,2.2-2.1,3.3c-0.1,0.2-0.2,0.4-0.4,0.6c-0.8,1.4-1.7,2.8-2.5,4.3c-0.3,0.5-0.5,0.9-0.7,1.4
		c-3.5,6.8-6.6,14.4-8.9,22.8c-0.4,1.3-0.7,2.7-1,4c-0.1,0.4-0.2,0.8-0.3,1.2c-0.1,0.6-0.3,1.2-0.4,1.8c-0.2,0.9-0.4,1.8-0.6,2.7
		c-0.1,0.5-0.2,1-0.3,1.4c-0.2,1-0.4,2-0.5,3.1c-0.1,0.6-0.2,1.3-0.3,1.9c-0.5,3.7-0.9,7.5-1.2,11.5c0,0.4-0.1,0.8-0.1,1.2
		c-0.1,1.1-0.1,2.2-0.1,3.3c0,0.6,0,1.2,0,1.8c0,2.5-0.1,4.9,0,7.5c-0.4,0.6-0.7,1.1-0.9,1.7c-0.5,1.1-0.7,2.3-0.7,3.4
		c0,0.6,0.1,1.1,0.2,1.7l6.4,26.5c0,0,0.5,2,0.5,2c0.5,2.7,3,4,5.6,2.5c0.3-0.2,0.5-0.3,0.8-0.5c0.3,0.6,0.6,1.2,0.9,1.8
		c0,0.1,0.1,0.1,0.1,0.2c0.3,0.7,0.7,1.3,1,1.9c0.1,0.2,0.3,0.5,0.4,0.7c0,0.1,0.1,0.2,0.1,0.2c0.4,0.6,0.8,1.3,1.2,1.9
		c0.6,0.9,1.2,1.7,1.8,2.5c0.2,0.2,0.4,0.5,0.5,0.7c0,0,0.1,0.1,0.1,0.1c0.7,0.8,1.3,1.6,2,2.3c0.1,0.1,0.1,0.1,0.2,0.2
		c1,1,2,1.9,3,2.7c0.1,0.1,0.2,0.1,0.2,0.2c0,0,0.1,0.1,0.1,0.1c0.7,0.5,1.4,1,2.1,1.4c0.1,0.1,0.2,0.1,0.3,0.2l1,0.6l0,3.2
		c-0.6,0.9-1.2,1.7-1.8,2.6c-1.1,1.7-2.1,3.4-3,4.9l0,5.5l0,17.5l0,5l-9.2,5.3c-1.4,0.8-2.7,1.7-4,2.6c-1,0.7-1.9,1.4-2.8,2.1
		c-0.3,0.3-0.7,0.5-1,0.8c-0.1,0.1-0.2,0.2-0.3,0.3c-1.1,0.9-2.2,1.9-3.3,2.9c-1.1,1-2.1,2.1-3.2,3.2c-0.1,0.1-0.2,0.2-0.2,0.2
		c-1,1.1-2,2.2-3,3.4c-0.1,0.1-0.2,0.3-0.3,0.4c-0.6,0.7-1.1,1.4-1.6,2.1c-0.5,0.7-1.1,1.4-1.6,2.1c-0.8,1.2-1.7,2.4-2.5,3.6
		c-1,1.5-1.9,3-2.8,4.5c-0.5,0.8-0.9,1.6-1.3,2.4c-0.4,0.7-0.8,1.5-1.2,2.2c-0.1,0.1-0.1,0.3-0.2,0.4c-0.7,1.3-1.3,2.7-1.9,4.1
		c-0.5,1.1-0.9,2.2-1.4,3.4c-0.2,0.5-0.4,1.1-0.7,1.6c0,0.1-0.1,0.2-0.1,0.3c-0.1,0.3-0.2,0.5-0.3,0.8c-0.7,1.9-1.3,3.9-1.8,5.9
		c-0.2,0.8-0.5,1.7-0.7,2.5c0,0.1-0.1,0.3-0.1,0.4c-0.3,1.5-0.6,3-0.9,4.4c-0.3,1.6-0.4,3.1-0.6,4.6c0,0.1,0,0.2,0,0.4
		c-0.1,1.5-0.2,2.9-0.2,4.4l0.1,27.2l-10.8-6.3L75,360.6C75,360,75,359.5,75,358.9z"/>
</g>
<g>
	<g>
		<polygon class="st3" points="328,251 316.3,244.2 296.2,282.9 307.9,289.7 		"/>
	</g>
	<g>
		<polygon class="st4" points="359,255.7 347.4,248.9 316.3,244.2 328,251 		"/>
	</g>
	<g>
		<polygon class="st3" points="277.6,263.6 265.9,256.8 235.9,299.2 247.6,306 		"/>
	</g>
	<g>
		<polygon class="st1" points="218.4,348.9 206.7,342.1 206.8,360.7 218.5,367.5 		"/>
	</g>
	<g>
		<polygon class="st2" points="218.4,348.9 218.5,367.5 359.1,286.3 359.1,283.9 328.1,290.6 307.9,308.9 277.8,314.7 247.7,341.7 
					"/>
	</g>
	<g>
		<polygon class="st8" points="218.3,318.3 218.4,348.9 247.7,341.7 277.8,314.7 307.9,308.9 328.1,290.6 359.1,283.9 359.1,269 
			328,270.9 307.9,301.7 277.7,292.8 247.6,317 		"/>
	</g>
	<g>
		<polygon class="st7" points="218.3,318.3 206.6,311.5 206.7,342.1 218.4,348.9 		"/>
	</g>
	<g>
		<polygon class="st9" points="218.2,283.3 218.3,318.3 247.6,317 277.7,292.8 307.9,301.7 328,270.9 359.1,269 359,255.7 328,251 
			307.9,289.7 277.6,263.6 247.6,306 		"/>
	</g>
	<g>
		<polygon class="st3" points="218.2,283.3 206.5,276.5 206.6,311.5 218.3,318.3 		"/>
	</g>
</g>
<g>
	<path class="st10" d="M346.4,362.2c4.1,2,13.7,1.2,18.7-1.7c0.3,1.1,0.6,2.2,0.7,3c-8.1,0-13.5,5.9-25,4.3
		C340.8,365.1,343.4,363.7,346.4,362.2z"/>
	<path class="st4" d="M346.4,362.2c3.5-1.7,7.5-3.6,8.1-7.6c1.6-10.8-1.1-21.4-3.2-33.7c3.2,1.2,6.9,1.8,10.8,1.9
		c0.1,1.2,0.2,2.4,0.4,3.4c1.6,7.4,1.5,17.9,1.5,27.3c0,2.7,0.5,5,1,6.9C360.1,363.4,350.5,364.3,346.4,362.2z"/>
	<path class="st10" d="M376.4,378.1c-0.7,5.6-3.2,9.3-9.2,9.3c-3-0.5-1.8-4.3-0.3-9.9C369.9,379.8,374,379.6,376.4,378.1z"/>
	<path class="st4" d="M367,377.5c1-3.7,2.1-8.1,2.2-13c0.2-10.2-1.7-26.4-4-41.7c0.9,0,1.8-0.1,2.7-0.2c1.8-0.2,3.5-0.5,5.2-0.8
		c0.9-0.2,1.7-0.4,2.5-0.6c4.9,19.4-0.5,32,0.1,38.7c0.7,6.9,1.3,13.3,0.7,18.2C374,379.6,369.9,379.8,367,377.5z"/>
	<path class="st5" d="M351.8,256.7c0.1-0.9,0.2-1.7,0.3-2.5c0-0.6,0-1.2,0-1.8c-0.2-8.8-5.7-11.6-1.5-17.4
		c3.7-5.4-1.8-13.4,5.2-14.7c1.4,0.7,2.3,0.2,3.4,1.7c2.1,2.8,1.9,7.4,2.1,9.7c2.5-1.1,4.4-3,5.8-5.3c0.9-1.4,1.5-2.9,2-4.5
		c7.8,2.1,12.3,6.1,19,14.8c0.7,1,1.9,2.6,3.1,4.7c-3.2,1.3-6,3.3-7.6,5.3c-1.1-1.7-2.2-3.1-3-4.1c-0.3,0.5-0.5,1-0.7,1.6
		c-5.9,12.8-4.7,17.9-3,23.8c-0.1,0-0.1,0-0.2,0c-0.9,0.3-1.9,0.5-2.8,0.7c-2.8,0.5-5.6,0.8-8.2,0.7c-0.7,0-1.4-0.1-2.1-0.1
		c-4.9-0.5-9.1-2-11.6-4.1c-0.7-0.6-1.2-1.1-1.6-1.7c0.3-1.6,0.7-3.2,1.1-4.9C351.7,257.7,351.7,257.2,351.8,256.7z"/>
	<path class="st8" d="M391.3,241.1c1,1.7,2.1,3.7,3,5.9c-3.3,1.2-6,3-7.6,5c-1-2-2-3.8-3-5.5C385.2,244.4,388.1,242.4,391.3,241.1z"
		/>
	<path class="st5" d="M365.2,322.8c0.9,0,1.8-0.1,2.7-0.2C367,322.7,366.1,322.8,365.2,322.8z"/>
	<path class="st5" d="M367.8,322.6c1.8-0.2,3.5-0.5,5.2-0.8C371.4,322.2,369.6,322.5,367.8,322.6z"/>
	<path class="st4" d="M351.8,256.7c-0.1,0.5-0.2,1.1-0.3,1.6c-0.4,1.7-0.8,3.3-1.2,4.8c-0.6,1.2-1.3,3-1.9,4.7
		c-0.4,1.3-0.9,2.8-1.3,4.3c-0.4,1.5-0.7,3.2-1.1,4.9c-0.9-4.8-1.7-6.9,0.4-13.1c0.8-2.6,3.5-6.9,5.6-11.5c0,0.6,0,1.2,0,1.8
		C352,255,351.9,255.8,351.8,256.7z"/>
	<path class="st1" d="M367.8,322.6c-0.9,0.1-1.8,0.1-2.7,0.2c-1,0-2,0-3.1,0c-3.9-0.1-7.6-0.8-10.8-1.9c-4-1.5-7-3.8-8.4-7
		c0-14.2,1.2-27.1,3.1-36.9c0.3-1.7,0.7-3.4,1.1-4.9c0.4-1.6,0.8-3,1.3-4.3c0.6-1.7,1.2-3.5,1.9-4.7c0.5,0.6,0.9,1.1,1.5,1.6
		c2.7,2.2,6.8,3.7,11.7,4.2c0.7,0.1,1.4,0.1,2.1,0.1c2.6,0.1,5.4-0.1,8.2-0.7c0.9-0.2,1.9-0.4,2.8-0.7c0.1,0,0.1,0,0.2,0
		c0.2,0.8,0.5,1.6,0.7,2.4c-0.2,2-2.4,6.1-4.3,6.4c0.3,3,1.5,5.2,2.6,6.1c1.5-0.3,2.7-0.9,3.6-1.6c0.1-0.1,0.2-0.1,0.3-0.2
		c2.2,9,3.8,22.5,3.8,37.2c-1.9,1.1-5.7,2.5-8.1,3.2c-0.8,0.2-1.7,0.5-2.5,0.6C371.4,322.2,369.6,322.5,367.8,322.6z"/>
	<path class="st5" d="M352,264.8c2.6,2.2,6.7,3.6,11.6,4.1C358.7,268.5,354.6,267,352,264.8z"/>
	<path class="st5" d="M350.4,263.2c0.4,0.6,0.9,1.1,1.5,1.6C351.3,264.3,350.8,263.7,350.4,263.2z"/>
	<path class="st10" d="M370.2,211.4c0.1-0.1,0.1-0.1,0.2-0.2c0.4-0.5,0.8-1.1,1.1-1.8c0.7-2,0.2-3.9-1.1-4.3
		c-0.2-0.1-0.5-0.1-0.7-0.1c-0.3,0-0.7,0.2-1,0.4c-0.8-3.4-2.3-4.7-3.9-5c-3.6-0.7-8.4,3.1-10.4,0c1.4-3.9,3.9-6.7,7.6-7.3
		c8.6-1.7,13.6,5,13.6,11.2c5,2.9,3,13.7-5.3,10.7C370.4,213.9,370.3,212.6,370.2,211.4z"/>
	<path class="st4" d="M361.4,231.6c-0.2-2.2,0-6.8-2.1-9.7c-1.1-1.5-2-1-3.4-1.7c-1-0.5-1.9-2-2.5-6.4c-0.6-4.8-0.3-9.6,1-13.4
		c2,3.1,6.7-0.7,10.4,0c1.7,0.3,3.1,1.6,3.9,4.9c0.4-0.2,0.7-0.3,1-0.4c0.2,0,0.5,0,0.7,0.1c1.2,0.4,1.7,2.4,1.1,4.3
		c-0.3,0.7-0.6,1.4-1.1,1.8c-0.1,0.1-0.1,0.1-0.2,0.2c0.1,1.1,0.1,2.5,0.1,3.7c-0.1,2.2-0.4,4.5-1.1,6.6c-0.5,1.6-1.2,3.2-2,4.5
		C365.8,228.6,363.8,230.4,361.4,231.6z"/>
	<path class="st4" d="M378.2,269.6c9.8-5.6,11.7-10.9,8.5-17.6c1.7-2,4.3-3.7,7.6-5c1.4,3.4,2.5,7.2,2.3,10.8
		c-0.3,6-5.1,11.7-14.6,17.1c0,2.3-0.6,4.4-2.2,5.9c-0.1,0.1-0.2,0.1-0.3,0.2c-0.9,0.8-2,1.3-3.6,1.6c-1.1-1-2.3-3.1-2.6-6.1
		c1.2-1.2,3-2.8,3.3-4c-1.8,0.8-4.6,0.5-5.3-0.3C370.7,271.2,374.5,271.3,378.2,269.6z"/>
</g>
</svg>
