<?xml version="1.0" encoding="utf-8"?>
<!-- Generator: Adobe Illustrator 24.2.3, SVG Export Plug-In . SVG Version: 6.00 Build 0)  -->
<svg version="1.1" id="Layer_1" xmlns="http://www.w3.org/2000/svg" xmlns:xlink="http://www.w3.org/1999/xlink" x="0px" y="0px"
	 viewBox="0 0 500 500" style="enable-background:new 0 0 500 500;" xml:space="preserve">
<style type="text/css">
	.st0{opacity:0.4;fill:#577CA0;}
	.st1{fill:#3D5476;}
	.st2{fill:#212A38;}
	.st3{fill:#577CA0;}
	.st4{fill:#92BACE;}
	.st5{fill:#E8573E;}
	.st6{fill:#F36E54;}
	.st7{fill:#FBBFA7;}
</style>
<g>
	<polygon class="st0" points="405,319.2 268.6,398.4 55,274.7 199.4,199.9 	"/>
	<g>
		<g>
			<path class="st1" d="M272.7,124.6c-54.1-31.2-83.5-12.2-84.7,45c0,6.3-4.8,12.1-7.7,15.9l-9.5,11.1c-2.9,3.7-5.9,7.2-4.1,12.5
				c2,5.7,4.6,6.8,9.9,11c7.8,6.2,9.9,9.7,9.5,19.8l0,26.4c-0.1,6.2,4.1,14.1,9.6,17.7l17.1,11.1c5.5,3.6,21,18.3,20.7,33.9l0,12.2
				l84.6,48.8l0.1-31l0-1.3c0.2-37.8,14.5-31.9,28.1-55.8c28.2-49.6-6.1-135.1-67.2-173.4C276.9,127.1,274.8,125.8,272.7,124.6z"/>
		</g>
		<path class="st2" d="M370.1,251.5c0-0.2,0-0.4,0-0.6c0-0.5,0-1,0-1.5c0-1.3-0.1-2.5-0.2-3.8c-0.1-1.3-0.2-2.5-0.3-3.8
			c-0.1-0.7-0.2-1.4-0.2-2.1c0-0.2,0-0.4-0.1-0.6c0-0.4-0.1-0.8-0.1-1.1c-0.2-1.3-0.3-2.6-0.5-3.8c-0.2-1.3-0.4-2.6-0.7-3.9
			c-0.2-0.9-0.4-1.8-0.5-2.7c0-0.2-0.1-0.3-0.1-0.5c-0.1-0.3-0.1-0.5-0.2-0.8c-0.3-1.3-0.6-2.6-0.9-3.9c-0.3-1.3-0.7-2.6-1-3.9
			c-0.3-1-0.6-2.1-0.9-3.1c0-0.1-0.1-0.2-0.1-0.4c0-0.2-0.1-0.3-0.1-0.5c-0.4-1.3-0.8-2.5-1.2-3.8c-0.4-1.2-0.8-2.5-1.3-3.7
			c-0.4-1.2-0.9-2.5-1.4-3.7c0-0.1-0.1-0.2-0.1-0.3c-0.5-1.2-0.9-2.2-1.3-3.2c-0.5-1.2-1-2.3-1.5-3.5c-0.5-1.2-1.1-2.4-1.6-3.6
			c-0.2-0.5-0.5-1-0.7-1.5c-0.1-0.2-0.2-0.5-0.3-0.7c-0.3-0.6-0.6-1.2-0.9-1.8c-0.7-1.3-1.4-2.7-2.1-4c-0.7-1.4-1.6-2.8-2.3-4.1
			c-0.4-0.7-0.8-1.5-1.2-2.2c-0.3-0.4-0.5-0.9-0.7-1.3c-1.3-2.2-2.7-4.4-4.2-6.6c-0.4-0.6-0.8-1.1-1.2-1.7c-0.6-0.9-1.2-1.8-1.8-2.6
			c-0.8-1.2-1.6-2.4-2.5-3.5c-1.1-1.5-2.3-3-3.4-4.5c-0.3-0.3-0.5-0.7-0.8-1c-0.2-0.2-0.4-0.4-0.5-0.7c-0.6-0.7-1.2-1.5-1.8-2.2
			c-1-1.2-2-2.4-3-3.6c-1.1-1.2-2.1-2.4-3.2-3.5c-0.1-0.2-0.3-0.3-0.4-0.5c-0.1-0.1-0.3-0.3-0.4-0.4c-0.8-0.9-1.7-1.8-2.6-2.7
			c-1.2-1.2-2.3-2.3-3.5-3.5c-1-1-2.1-2-3.2-2.9c-0.1-0.1-0.2-0.2-0.3-0.3c-0.1-0.1-0.2-0.2-0.3-0.3c-1.3-1.2-2.6-2.3-3.9-3.4
			c-1.3-1.1-2.7-2.2-4-3.3c-0.5-0.4-1.1-0.8-1.6-1.2c-0.3-0.2-0.5-0.4-0.8-0.6c-0.6-0.4-1.1-0.9-1.7-1.3c-1.4-1-2.7-2-4.1-2.9
			c-1.4-0.9-2.8-1.9-4.2-2.8c-0.2-0.2-0.5-0.3-0.7-0.5c-1.7-1.1-3.4-2.1-5.1-3.1c-0.4-0.3-0.9-0.5-1.3-0.8c-1.4-0.8-2.8-1.6-4.2-2.3
			c-1.7-0.9-3.5-1.8-5.2-2.7c-0.1-0.1-0.3-0.1-0.4-0.2c-0.2-0.1-0.4-0.2-0.6-0.3c-1.2-0.6-2.5-1.2-3.7-1.7c-1.5-0.7-3-1.3-4.4-1.9
			c-0.2-0.1-0.4-0.1-0.6-0.2c-0.2-0.1-0.4-0.2-0.7-0.3c-1-0.4-2-0.8-2.9-1.1c-1.3-0.5-2.6-0.9-3.9-1.3c-0.4-0.1-0.7-0.2-1.1-0.3
			c-0.3-0.1-0.6-0.2-0.8-0.2c-0.6-0.2-1.3-0.4-1.9-0.5c-1.2-0.3-2.5-0.6-3.7-0.8c-0.6-0.1-1.1-0.2-1.7-0.3c-0.3,0-0.5-0.1-0.8-0.1
			c-0.4-0.1-0.7-0.1-1.1-0.2c-1.2-0.2-2.4-0.3-3.5-0.4c-0.7,0-1.4,0-2.1-0.1c-0.3,0-0.5,0-0.8,0c-0.3,0-0.5,0-0.8,0
			c-1.3,0-2.5,0.1-3.7,0.2c-0.5,0-1,0.1-1.5,0.2c-0.4,0.1-0.8,0.1-1.2,0.2c-0.4,0.1-0.9,0.1-1.3,0.2c-1.3,0.3-2.6,0.6-3.9,1
			c-0.2,0.1-0.5,0.1-0.7,0.2c-2.1,0.7-3.9,1.5-5.6,2.5l-13.8,8c1.8-1,3.6-1.9,5.6-2.5c0.2-0.1,0.5-0.1,0.7-0.2
			c1.6-0.5,3.4-0.9,5.1-1.2c0.4-0.1,0.8-0.1,1.2-0.2c1.9-0.2,3.9-0.4,6-0.4c0.3,0,0.5,0,0.8,0c2.2,0.1,4.4,0.3,6.7,0.6
			c0.3,0,0.5,0.1,0.8,0.1c2.3,0.4,4.8,0.9,7.3,1.6c0.3,0.1,0.5,0.1,0.8,0.2c2.6,0.7,5.2,1.6,7.9,2.7c0.2,0.1,0.4,0.2,0.7,0.3
			c2.8,1.1,5.7,2.4,8.7,3.8c0.2,0.1,0.4,0.2,0.6,0.3c3.2,1.5,6.4,3.3,9.7,5.2c2.1,1.2,4.2,2.5,6.4,3.9c3.7,2.3,7.3,4.8,10.7,7.5
			c0.3,0.2,0.5,0.4,0.8,0.6c3.4,2.6,6.7,5.4,10,8.3c0.1,0.1,0.2,0.2,0.3,0.3c3.2,2.9,6.3,6,9.3,9.1c0.1,0.1,0.3,0.3,0.4,0.4
			c3,3.2,5.8,6.4,8.5,9.8c0.2,0.2,0.3,0.4,0.5,0.6c2.4,3,4.6,6,6.7,9.1c0.6,0.9,1.2,1.7,1.8,2.6c2.1,3.2,4.2,6.4,6.1,9.6
			c0.4,0.7,0.8,1.4,1.2,2.2c1.9,3.3,3.7,6.6,5.3,10c0.1,0.2,0.2,0.5,0.3,0.7c1.8,3.8,3.5,7.7,5.1,11.6c1.6,4.2,3,8.2,4.2,12.2
			c0,0.1,0.1,0.2,0.1,0.3c1.2,3.9,2.2,7.9,3,11.8c0,0.2,0.1,0.3,0.1,0.5c0.8,3.9,1.4,7.7,1.9,11.5c0,0.2,0,0.4,0.1,0.6
			c0.4,3.8,0.7,7.5,0.7,11.2c0,0.2,0,0.4,0,0.6c0,3.7-0.1,7.3-0.5,10.8c0,0.2-0.1,0.5-0.1,0.7c-0.4,3.6-0.9,7.2-1.7,10.6
			c-0.8,3.6-1.9,7-3.1,10.3c-0.1,0.2-0.2,0.5-0.3,0.7c-1.2,3.2-2.7,6.3-4.3,9.2c-0.7,1.3-1.4,2.4-2.2,3.5c-0.6,0.9-1.1,1.6-1.7,2.4
			c-0.3,0.5-0.7,1-1,1.4c-0.6,0.8-1.2,1.6-1.9,2.3c-0.3,0.3-0.5,0.7-0.8,1c-0.9,1-1.7,1.9-2.6,2.8c-0.2,0.2-0.4,0.4-0.5,0.5
			c-0.7,0.7-1.4,1.4-2.1,2.1c-0.8,0.7-1.5,1.5-2.2,2.2c-0.3,0.3-0.6,0.6-0.9,0.9c-0.5,0.5-1,1-1.5,1.5c-0.3,0.3-0.6,0.7-0.9,1
			c-0.4,0.5-0.9,1-1.3,1.5c-0.3,0.4-0.6,0.7-0.9,1.1c-0.4,0.5-0.8,1-1.1,1.6c-0.2,0.2-0.3,0.4-0.5,0.7c-0.1,0.2-0.2,0.4-0.3,0.6
			c-0.3,0.6-0.7,1.2-1,1.8c-0.1,0.3-0.3,0.5-0.5,0.8c-0.1,0.2-0.2,0.5-0.3,0.7c-0.2,0.4-0.3,0.7-0.5,1.1c-0.1,0.3-0.3,0.6-0.4,0.9
			c-0.2,0.5-0.3,1-0.5,1.5c-0.1,0.2-0.2,0.5-0.2,0.7c0,0.1-0.1,0.2-0.1,0.3c-0.2,0.8-0.5,1.7-0.7,2.6c0,0.2-0.1,0.4-0.1,0.6
			c-0.1,0.3-0.1,0.5-0.2,0.8c-0.1,0.5-0.2,0.9-0.3,1.3c-0.2,0.9-0.3,1.9-0.4,2.9c-0.2,1.3-0.3,2.4-0.4,3.7c0,0.5-0.1,1-0.1,1.5
			c0,0.4-0.1,0.9-0.1,1.3c0,0.4-0.1,0.8-0.1,1.3c-0.1,1.5-0.1,3-0.1,4.7l0,1.2l-0.1,31.1l13.8-8l0.1-31.1l0-1.2
			c0-2.1,0.1-4.1,0.2-5.9c0-0.5,0.1-0.9,0.1-1.3c0.1-1.8,0.3-3.5,0.5-5c0.2-1.7,0.5-3.1,0.7-4.4c0.1-0.3,0.1-0.5,0.2-0.8
			c0.3-1.3,0.6-2.5,0.9-3.6c0.1-0.3,0.2-0.5,0.2-0.7c0.3-0.9,0.6-1.7,0.9-2.4c0.2-0.4,0.3-0.8,0.5-1.1c0.2-0.5,0.5-1,0.8-1.5
			c0.3-0.6,0.7-1.2,1-1.8c0.3-0.4,0.5-0.8,0.8-1.2c0.4-0.5,0.7-1.1,1.1-1.6c0.3-0.4,0.6-0.7,0.9-1.1c0.4-0.5,0.8-1,1.3-1.5
			c0.3-0.3,0.6-0.7,0.9-1c0.5-0.5,1-1,1.5-1.5c0.3-0.3,0.6-0.6,0.9-0.9c0.7-0.7,1.4-1.4,2.2-2.1c0.8-0.8,1.6-1.6,2.5-2.5
			c1-1,1.8-2,2.7-3c0.3-0.3,0.5-0.7,0.8-1c0.6-0.7,1.2-1.5,1.9-2.3c0.3-0.4,0.7-0.9,1-1.4c0.6-0.8,1.1-1.6,1.7-2.4
			c0.1-0.2,0.3-0.4,0.4-0.6c0.6-0.9,1.2-1.9,1.8-3c0.8-1.4,1.5-2.8,2.2-4.2c0.8-1.6,1.5-3.3,2.1-5c0.1-0.2,0.2-0.5,0.3-0.7
			c0-0.1,0.1-0.2,0.1-0.3c0.7-1.7,1.2-3.5,1.8-5.3c0.4-1.5,0.8-3,1.2-4.6c0.4-1.6,0.7-3.1,0.9-4.6c0.2-1.3,0.4-2.7,0.6-4.1
			c0.1-0.7,0.1-1.4,0.2-2c0-0.3,0.1-0.5,0.1-0.8c0-0.5,0.1-0.9,0.1-1.4c0.1-1.3,0.2-2.6,0.2-3.9c0.1-1.3,0.1-2.6,0.1-3.9
			C370.1,252.7,370.1,252.1,370.1,251.5z"/>
		<g>
			<path class="st2" d="M291.6,162.8c-0.1-1.5-0.2-2.9-0.2-4.4l-10.9,5.4l11.1-0.2L291.6,162.8z"/>
			<path class="st2" d="M339.1,214.7l-0.5,0.2c-3.2,1.1-6.8,1.2-10.6,0.2l-0.6-0.1l-1,14.6l17.2-8.5L339.1,214.7z"/>
			<path class="st1" d="M336.8,185.9c0.1-1,0.1-2.1,0-3.1c-0.3-0.2-0.5-0.4-0.8-0.7c-0.6-0.6-1-1-1.5-1.5c-0.6-0.6-1-1.1-1.4-1.6
				c-0.5-0.7-1-1.2-1.4-1.8c-0.4-0.6-0.8-1.2-1.2-1.8c-0.4-0.6-0.7-1.1-1-1.7c-0.2-0.4-0.5-0.8-0.7-1.3c-0.1-0.3-0.3-0.5-0.4-0.8
				c-0.1-0.1-0.1-0.3-0.2-0.4c-0.3-0.5-0.5-1.1-0.7-1.6c-0.4-0.8-0.6-1.5-0.8-2.2c-0.3-0.7-0.5-1.4-0.7-2.1
				c-0.2-0.8-0.4-1.5-0.6-2.1c-0.2-0.8-0.3-1.4-0.4-2c-0.1-0.8-0.2-1.5-0.3-2.1c0-0.3,0-0.6-0.1-0.9c-0.8-0.6-1.5-1.3-2.3-1.8
				c-4.4-3-8.6-3.5-11.7-1.9c-0.5,0.2-0.9,0.6-1.4,0.9c-0.8,0.7-1.2,1.1-1.6,1.6c-0.3,0.4-0.5,0.7-0.7,1.1c-0.2,0.4-0.4,0.8-0.6,1.3
				c0,0.1-0.1,0.2-0.1,0.2c-0.2,0.4-0.3,0.9-0.5,1.3c-0.2,0.7-0.3,1.2-0.4,1.7c-0.1,0.7-0.2,1.3-0.2,2c0,0.6-0.1,1.3-0.1,1.9
				c0,0.8,0,1.4,0.1,2.1c0.1,0.7,0.1,1.3,0.3,2c0.1,0.8,0.3,1.5,0.4,2.1c0.2,0.8,0.4,1.4,0.5,2.1c0.2,0.8,0.4,1.4,0.7,2.1
				c0.3,0.8,0.5,1.4,0.8,2.1c0.3,0.7,0.6,1.3,0.8,1.8c0.1,0.1,0.1,0.2,0.2,0.4c0.1,0.3,0.3,0.5,0.4,0.8c0.2,0.4,0.4,0.8,0.7,1.2
				c0.3,0.6,0.7,1.2,1,1.7c0.4,0.6,0.8,1.2,1.2,1.8c0.4,0.6,0.9,1.1,1.3,1.7c0.5,0.6,0.9,1.1,1.4,1.6c0.6,0.6,1,1.1,1.5,1.5
				c0.6,0.6,1.1,1,1.6,1.4c0.6,0.5,1.1,0.9,1.7,1.2c0.5,0.4,1,0.7,1.6,1c0.6,0.3,1.1,0.6,1.6,0.8c0.6,0.2,1,0.4,1.5,0.5
				c0.6,0.2,1,0.3,1.5,0.3c0.6,0.1,1,0.1,1.4,0.1c0.7,0,1.1,0,1.5-0.1c0.5-0.1,0.9-0.1,1.3-0.3c0.5-0.1,0.9-0.3,1.3-0.5
				C334.3,194.6,336.4,191.1,336.8,185.9z"/>
			<polygon class="st3" points="315,129.9 315.6,121 317.9,119.9 312.3,111.8 292.8,121.4 302.9,135.8 			"/>
			<path class="st1" d="M302.9,135.8l0.5-0.2c0.6-0.2,1.3-0.4,1.9-0.5c0.5-0.1,1-0.2,1.5-0.2c0.5-0.1,1-0.1,1.6-0.2
				c0.9,0,1.7,0,2.6,0.1c0.1,0,0.2,0,0.2,0c0.9,0.1,1.8,0.3,2.7,0.5l0.6,0.1l0.4-5.7L302.9,135.8z"/>
			<path class="st1" d="M359.3,216.8l-0.2,0.5c-0.7,1.6-1.5,3-2.4,4.4c-0.5,0.7-0.9,1.4-1.4,2c-1,1.2-2,2.3-3.1,3.3
				c-0.8,0.7-1.7,1.4-2.6,1.9l19.5-9.6c0.9-0.6,1.8-1.2,2.6-1.9c0.1-0.1,0.3-0.2,0.4-0.4c0.8-0.7,1.5-1.5,2.2-2.3
				c0.1-0.2,0.3-0.3,0.4-0.5c0.2-0.3,0.4-0.5,0.6-0.8c0.3-0.4,0.6-0.9,0.8-1.3c0.2-0.4,0.5-0.7,0.7-1.1c0.1-0.1,0.2-0.3,0.3-0.4
				c0.4-0.8,0.8-1.5,1.2-2.4c0.1-0.2,0.1-0.3,0.2-0.5l0.2-0.5L359.3,216.8z"/>
			<polygon class="st3" points="368.7,192.7 349.3,202.3 359.3,216.8 378.8,207.2 			"/>
			<path class="st2" d="M306.6,175.5c0.1,0.3,0.2,0.5,0.3,0.8c0.1,0.2,0.1,0.4,0.2,0.6c-0.2-0.6-0.4-1.3-0.6-2
				C306.5,175.2,306.6,175.3,306.6,175.5z"/>
			<path class="st2" d="M308,179.2c0.1,0.2,0.2,0.5,0.3,0.7c0.1,0.3,0.3,0.6,0.5,1C308.5,180.3,308.2,179.7,308,179.2z"/>
			<path class="st2" d="M305.9,172.9c0.1,0.3,0.1,0.6,0.2,0.9c0.1,0.3,0.2,0.6,0.2,0.9C306.2,174.2,306.1,173.5,305.9,172.9z"/>
			<path class="st2" d="M315.1,190.2c0.1,0.1,0.2,0.2,0.3,0.3c0.2,0.2,0.5,0.5,0.7,0.7c0.1,0.1,0.2,0.2,0.3,0.3
				C316,191.1,315.5,190.7,315.1,190.2z"/>
			<path class="st2" d="M307.2,177.1c0.1,0.3,0.2,0.5,0.3,0.8c0.1,0.3,0.2,0.6,0.4,0.9C307.6,178.3,307.4,177.7,307.2,177.1z"/>
			<path class="st2" d="M305.7,161.1c0,0.1-0.1,0.2-0.1,0.3c-0.1,0.3-0.1,0.5-0.2,0.8c0,0.1-0.1,0.3-0.1,0.4
				C305.5,162.1,305.6,161.6,305.7,161.1z"/>
			<path class="st2" d="M307.7,157c-0.3,0.4-0.5,0.7-0.7,1.1C307.2,157.7,307.4,157.3,307.7,157z"/>
			<path class="st2" d="M306.2,159.6c0,0.1-0.1,0.1-0.1,0.2c-0.1,0.3-0.2,0.5-0.3,0.8c0,0.1,0,0.2-0.1,0.3
				C305.9,160.5,306.1,160,306.2,159.6z"/>
			<path class="st2" d="M306.9,158.2c-0.1,0.2-0.3,0.5-0.4,0.8c-0.1,0.1-0.1,0.2-0.1,0.4C306.5,158.9,306.7,158.5,306.9,158.2z"/>
			<path class="st2" d="M305.2,168.7c0,0.3,0,0.5,0.1,0.8c0,0.3,0.1,0.6,0.1,0.9c0,0.1,0,0.2,0.1,0.3
				C305.4,170,305.3,169.3,305.2,168.7z"/>
			<path class="st2" d="M305.6,171.2c0.1,0.3,0.1,0.6,0.2,0.9c0,0.2,0.1,0.5,0.1,0.7c-0.1-0.6-0.3-1.3-0.4-1.9
				C305.5,170.9,305.5,171,305.6,171.2z"/>
			<path class="st2" d="M305.4,162.8c-0.1,0.4-0.1,0.7-0.1,1c0,0.3-0.1,0.5-0.1,0.8C305.2,164,305.3,163.4,305.4,162.8z"/>
			<path class="st2" d="M305.1,165.3c0,0.3,0,0.5,0,0.8c0,0.1,0,0.2,0,0.4c0-0.6,0-1.3,0.1-1.9C305.2,164.9,305.1,165.1,305.1,165.3
				z"/>
			<path class="st2" d="M305.1,166.7c0,0.1,0,0.2,0,0.3c0,0.3,0,0.5,0,0.8c0,0.3,0,0.6,0.1,0.8C305.2,168,305.1,167.3,305.1,166.7z"
				/>
			<path class="st2" d="M328.7,196.9c0.1,0,0.2,0,0.2-0.1c0.3-0.1,0.6-0.1,0.9-0.2C329.5,196.7,329.1,196.8,328.7,196.9z"/>
			<path class="st2" d="M312.3,186.8c0.2,0.3,0.4,0.5,0.6,0.8c0.2,0.3,0.4,0.5,0.6,0.8C313.1,187.9,312.7,187.4,312.3,186.8z"/>
			<path class="st2" d="M326,196.8c0.4,0.1,0.7,0.1,0.9,0.1c0.1,0,0.2,0,0.3,0C326.8,196.9,326.4,196.9,326,196.8z"/>
			<path class="st2" d="M316.6,191.7c0.1,0.1,0.2,0.1,0.2,0.2c0.2,0.2,0.5,0.4,0.7,0.6c0.2,0.1,0.3,0.3,0.5,0.4
				C317.5,192.5,317,192.1,316.6,191.7z"/>
			<path class="st2" d="M327.5,196.9c0.1,0,0.2,0,0.3,0c0.3,0,0.6,0,0.9-0.1C328.3,196.9,327.9,196.9,327.5,196.9z"/>
			<path class="st2" d="M313.7,188.6c0.1,0.2,0.3,0.3,0.4,0.5c0.2,0.2,0.4,0.5,0.6,0.7c0.1,0.1,0.1,0.1,0.2,0.2
				C314.5,189.6,314.1,189.1,313.7,188.6z"/>
			<path class="st2" d="M324.5,196.5c0.4,0.1,0.7,0.2,0.9,0.2c0.1,0,0.3,0,0.4,0.1C325.4,196.7,324.9,196.6,324.5,196.5z"/>
			<path class="st2" d="M311.7,186c0.2,0.3,0.4,0.5,0.6,0.8c-0.4-0.6-0.8-1.2-1.2-1.8C311.3,185.3,311.5,185.7,311.7,186z"/>
			<path class="st2" d="M318.2,193.1c0.2,0.2,0.4,0.3,0.7,0.5c0.2,0.2,0.4,0.3,0.7,0.5C319.1,193.8,318.6,193.4,318.2,193.1z"/>
			<path class="st2" d="M321.3,195.2c0.3,0.2,0.5,0.3,0.8,0.4c0.2,0.1,0.4,0.2,0.6,0.3C322.3,195.7,321.8,195.4,321.3,195.2z"/>
			<path class="st2" d="M320.1,194.5c0.2,0.1,0.4,0.3,0.6,0.4c0.1,0.1,0.3,0.2,0.4,0.2c-0.5-0.3-1-0.6-1.6-1
				C319.8,194.3,320,194.4,320.1,194.5z"/>
			<path class="st2" d="M310,183.3c0.4,0.7,0.7,1.2,1,1.7C310.7,184.4,310.3,183.8,310,183.3z"/>
			<path class="st2" d="M309,181.3c0.1,0.2,0.2,0.4,0.4,0.7C309.2,181.7,309,181.5,309,181.3z"/>
			<path class="st2" d="M322.9,195.9c0.1,0.1,0.3,0.1,0.4,0.2c0.2,0.1,0.4,0.2,0.7,0.2c0.1,0,0.2,0.1,0.3,0.1
				C323.9,196.3,323.4,196.1,322.9,195.9z"/>
			<path class="st2" d="M308.5,134.7C308.5,134.7,308.4,134.7,308.5,134.7C308.4,134.7,308.5,134.7,308.5,134.7z"/>
			<path class="st2" d="M311,134.9c0.1,0,0.2,0,0.2,0C311.1,134.9,311.1,134.9,311,134.9z"/>
			<path class="st2" d="M306.2,135c0.2,0,0.4,0,0.6-0.1c-0.5,0.1-1,0.1-1.5,0.2C305.6,135.1,305.9,135,306.2,135z"/>
			<path class="st4" d="M349.6,228.9c0.9-0.6,1.8-1.2,2.6-1.9c0.1-0.1,0.3-0.2,0.4-0.4c0.2-0.1,0.3-0.3,0.5-0.5
				c0.4-0.4,0.9-0.9,1.3-1.3c0.1-0.2,0.3-0.3,0.5-0.5c0.1-0.2,0.3-0.3,0.5-0.6c0.5-0.6,1-1.3,1.4-2c0.2-0.4,0.5-0.7,0.7-1.1
				c0.1-0.2,0.2-0.3,0.3-0.5c0.5-0.9,1-1.8,1.4-2.8l0.2-0.5l-10.1-14.4l0.2-0.6c0.3-1,0.5-2,0.7-3c0-0.1,0-0.2,0-0.3
				c0.2-1.1,0.3-2.2,0.4-3.3c0.1-1.1,0.1-2.3,0.1-3.5c0-0.1,0-0.2,0-0.3c0-1.2-0.1-2.4-0.2-3.6l-0.1-0.8l11.1-0.2l-0.1-0.8
				c-0.2-1.3-0.5-2.7-0.8-4c-0.1-0.5-0.2-0.9-0.3-1.4c0-0.1-0.1-0.3-0.1-0.4c-0.4-1.8-0.9-3.6-1.5-5.5c-0.6-1.8-1.2-3.7-1.9-5.5
				c0-0.1-0.1-0.3-0.1-0.4c-0.7-1.8-1.4-3.7-2.2-5.5l-0.4-0.8l-11.1,0.2l-0.4-0.8c-0.6-1.1-1.2-2.2-1.9-3.3
				c-0.2-0.3-0.4-0.6-0.6-0.9c-0.2-0.3-0.4-0.7-0.6-1c-0.4-0.7-0.9-1.3-1.3-2c-0.1-0.1-0.1-0.2-0.2-0.3c-0.1-0.1-0.1-0.2-0.2-0.2
				c-0.7-1-1.4-1.9-2.1-2.8c-0.1-0.1-0.1-0.2-0.2-0.3c-0.8-1-1.7-2.1-2.6-3l-0.6-0.6l1-14.6l-0.6-0.5c-1.3-1.2-2.6-2.3-3.9-3.4
				c-0.1-0.1-0.2-0.1-0.3-0.2c-1.3-1.1-2.6-2-4-2.9c-0.1-0.1-0.2-0.1-0.3-0.2c-1.2-0.8-2.5-1.6-3.7-2.3c-0.1,0-0.2-0.1-0.3-0.1
				c-1.4-0.7-2.7-1.4-4.1-2l-0.6-0.2l-0.6,8.9l-0.4,5.7l-0.6-0.1c-0.9-0.2-1.8-0.4-2.7-0.5c-0.1,0-0.2,0-0.2,0
				c-0.9-0.1-1.7-0.2-2.6-0.1c-0.5,0-1.1,0.1-1.6,0.2c-0.2,0-0.4,0-0.6,0.1c-0.3,0-0.6,0.1-0.9,0.2c-0.6,0.1-1.3,0.3-1.9,0.5
				l-0.5,0.2l-10.1-14.4l-0.4,0.3c-4,2.5-7.3,6.5-9.5,11.6l-0.2,0.5l10.1,14.4l-0.2,0.6c-0.6,2-0.9,4.2-1.1,6.6c-0.1,1-0.1,2-0.1,3
				c0,1.4,0,2.9,0.2,4.4l0.1,0.8l-11.1,0.2l0.1,0.8c1.3,7.4,3.7,15.3,7.1,22.7l0.4,0.8l11.1-0.2l0.4,0.8c2.7,5.1,6,9.8,9.6,13.8
				l0.6,0.6l-1,14.6l0.6,0.5c2.7,2.5,5.4,4.7,8.2,6.6c2.8,1.9,5.5,3.4,8.3,4.6l0.6,0.2l1-14.6l0.6,0.1c3.8,1,7.4,1,10.6-0.2l0.5-0.2
				l4.4,6.4l5.6,8.1l19.5-9.6l0.4-0.3L349.6,228.9z M331.2,196.1c-0.4,0.2-0.8,0.4-1.3,0.5c-0.3,0.1-0.6,0.1-0.9,0.2
				c-0.1,0-0.2,0-0.3,0.1c-0.3,0-0.6,0.1-0.9,0.1c-0.1,0-0.2,0-0.3,0c-0.1,0-0.2,0-0.3,0c-0.1,0-0.2,0-0.3,0c-0.3,0-0.5,0-1.1-0.1
				c-0.1,0-0.3,0-0.4-0.1c-0.2,0-0.5-0.1-1.1-0.3c-0.1,0-0.2-0.1-0.3-0.1c-0.2-0.1-0.4-0.1-0.7-0.2c-0.1-0.1-0.3-0.1-0.6-0.3
				c-0.2-0.1-0.4-0.2-0.6-0.3c-0.2-0.1-0.4-0.2-0.9-0.5c-0.1-0.1-0.3-0.1-0.4-0.2c-0.2-0.1-0.4-0.3-0.6-0.4
				c-0.2-0.1-0.3-0.2-0.7-0.4c-0.2-0.2-0.4-0.3-0.7-0.5c-0.2-0.2-0.4-0.3-0.8-0.7c-0.2-0.1-0.3-0.3-0.5-0.4
				c-0.2-0.2-0.5-0.4-0.7-0.6c-0.1-0.1-0.2-0.1-0.4-0.4c-0.1-0.1-0.2-0.2-0.3-0.3c-0.2-0.2-0.5-0.5-0.7-0.7
				c-0.1-0.1-0.2-0.2-0.5-0.5c-0.1-0.1-0.1-0.1-0.2-0.2c-0.2-0.2-0.4-0.5-0.6-0.7c-0.1-0.2-0.3-0.3-0.6-0.8
				c-0.2-0.2-0.4-0.5-0.6-0.8c-0.2-0.3-0.4-0.5-0.6-0.8c-0.2-0.3-0.4-0.5-0.6-0.8c-0.2-0.3-0.4-0.7-0.7-1c-0.3-0.5-0.6-1-1-1.7
				c-0.2-0.4-0.4-0.8-0.7-1.2c-0.1-0.2-0.2-0.4-0.4-0.8c-0.1-0.1-0.1-0.2-0.2-0.4c-0.2-0.3-0.3-0.6-0.5-1c-0.1-0.2-0.2-0.5-0.4-1
				c-0.1-0.3-0.2-0.6-0.4-0.9c-0.1-0.3-0.2-0.5-0.4-1c-0.1-0.2-0.1-0.4-0.2-0.6c-0.1-0.3-0.2-0.5-0.3-0.8c-0.1-0.2-0.1-0.3-0.2-0.8
				c-0.1-0.3-0.2-0.6-0.2-0.9c-0.1-0.3-0.1-0.6-0.3-1.1c-0.1-0.2-0.1-0.5-0.1-0.7c-0.1-0.3-0.1-0.6-0.2-0.9c0-0.1,0-0.2-0.1-0.5
				c0-0.1,0-0.2-0.1-0.3c0-0.3-0.1-0.6-0.1-0.9c0-0.3-0.1-0.5-0.1-0.8c0-0.3,0-0.6-0.1-0.8c0-0.3,0-0.5,0-0.8c0-0.1,0-0.2,0-0.4
				c0-0.1,0-0.2,0-0.4c0-0.3,0-0.5,0-0.8c0-0.2,0-0.5,0-0.8c0-0.3,0-0.5,0.1-0.8c0-0.3,0.1-0.5,0.2-1.1c0-0.1,0-0.3,0.1-0.4
				c0.1-0.3,0.1-0.5,0.2-0.8c0-0.1,0.1-0.2,0.1-0.5c0-0.1,0-0.2,0.1-0.3c0.1-0.3,0.2-0.6,0.3-0.8c0-0.1,0.1-0.1,0.1-0.2
				c0-0.1,0.1-0.2,0.1-0.2c0-0.1,0.1-0.2,0.1-0.4c0.1-0.3,0.3-0.5,0.5-0.9c0.2-0.4,0.4-0.7,0.7-1.1c0.4-0.6,0.9-1,1.6-1.6
				c0.4-0.3,0.9-0.7,1.4-0.9c3.1-1.6,7.3-1.1,11.7,1.9c0.8,0.5,1.6,1.1,2.3,1.8c6.7,5.8,11.6,15.8,12.1,24.6c0.1,1.1,0.1,2.1,0,3.1
				C336.4,191.1,334.3,194.6,331.2,196.1z"/>
			<path class="st1" d="M370.1,182.5l-8.6,4.2l-11.1,0.2l0.1,0.8c0.1,1.2,0.2,2.4,0.2,3.6c0,0.1,0,0.2,0,0.3c0,1.2,0,2.3-0.1,3.5
				c-0.1,1.1-0.2,2.2-0.4,3.3c0,0.1,0,0.2,0,0.3c-0.2,1-0.4,2.1-0.7,3l-0.2,0.6l19.5-9.6l0.2-0.6c0.1-0.2,0.1-0.5,0.2-0.8
				c0.1-0.5,0.2-1,0.3-1.4c0.1-0.3,0.1-0.5,0.1-0.8c0-0.1,0-0.2,0-0.3c0-0.1,0-0.2,0.1-0.3c0.1-0.5,0.1-0.9,0.2-1.4
				c0.1-0.5,0.1-1,0.1-1.4c0-0.5,0.1-1,0.1-1.4C370.1,183.7,370.1,183.2,370.1,182.5z"/>
			<g>
				<polygon class="st1" points="333.3,132.9 332.2,147.5 351.7,137.9 352.8,123.3 				"/>
				<path class="st1" d="M335.3,151.1c-0.8-1-1.6-2-2.5-2.9C333.7,149.1,334.5,150,335.3,151.1z"/>
				<path class="st1" d="M335.6,151.4c-0.1-0.1-0.1-0.2-0.2-0.3c0.7,0.9,1.5,2,2.3,3C337,153.2,336.3,152.3,335.6,151.4z"/>
			</g>
			<path class="st3" d="M361.9,152.3c-0.4-0.8-0.9-1.7-1.4-2.5c-0.2-0.3-0.3-0.5-0.5-0.8c-0.2-0.3-0.4-0.6-0.6-0.9
				c-0.2-0.3-0.3-0.6-0.5-0.9c-0.4-0.6-0.8-1.2-1.2-1.7c-0.1-0.1-0.2-0.3-0.3-0.4c-0.1-0.1-0.1-0.2-0.2-0.3
				c-0.2-0.3-0.4-0.6-0.6-0.8c-0.3-0.5-0.7-1-1.1-1.4c-0.2-0.3-0.4-0.5-0.6-0.8c-0.1-0.1-0.1-0.2-0.2-0.3c-0.1-0.1-0.2-0.2-0.3-0.3
				c-0.4-0.5-0.8-0.9-1.2-1.4c-0.4-0.4-0.8-0.9-1.1-1.3l-0.6-0.6l-19.5,9.6l0.6,0.6c1.7,1.9,3.3,3.9,4.8,6.1
				c0.1,0.1,0.1,0.2,0.2,0.2c0.1,0.1,0.1,0.2,0.2,0.3c0.4,0.6,0.9,1.3,1.3,2c1.1,1.7,2.1,3.4,3.1,5.2l0.4,0.8l19.5-9.6L361.9,152.3z
				"/>
			<path class="st3" d="M352.2,122.8c-0.3-0.3-0.6-0.5-0.8-0.8c-0.6-0.5-1.2-1.1-1.8-1.6c-0.4-0.4-0.8-0.7-1.3-1
				c-0.1-0.1-0.2-0.1-0.3-0.2c-0.1-0.1-0.2-0.1-0.2-0.2c-0.6-0.5-1.1-0.9-1.7-1.3c-0.6-0.4-1.1-0.8-1.7-1.2
				c-0.1-0.1-0.3-0.2-0.4-0.3c-0.4-0.3-0.9-0.6-1.3-0.8c-0.6-0.3-1.1-0.7-1.7-1c-0.4-0.2-0.7-0.4-1.1-0.6c-0.1,0-0.2-0.1-0.3-0.1
				c-0.1-0.1-0.2-0.1-0.3-0.2c-0.6-0.3-1.1-0.6-1.7-0.9c-0.6-0.3-1.1-0.5-1.7-0.8c-0.1-0.1-0.2-0.1-0.4-0.2l-0.6-0.2l-17.2,8.5
				l-2.3,1.1l0.6,0.2c1.4,0.6,2.7,1.2,4.1,2c1.4,0.7,2.7,1.5,4,2.4c0.1,0.1,0.2,0.1,0.3,0.2c1.3,0.9,2.7,1.9,4,2.9
				c1.4,1.1,2.8,2.3,4.2,3.6l0.6,0.5l19.5-9.6L352.2,122.8z"/>
			<polygon class="st1" points="362.3,153.1 342.8,162.7 353.9,162.5 373.4,152.9 			"/>
			<path class="st3" d="M380.8,176.4c-0.2-0.9-0.3-1.6-0.5-2.4c-0.2-0.8-0.3-1.5-0.5-2.3c-0.1-0.2-0.1-0.5-0.2-0.7
				c0-0.1-0.1-0.3-0.1-0.4c-0.1-0.4-0.2-0.8-0.3-1.1c-0.2-0.8-0.4-1.5-0.6-2.3c-0.2-0.7-0.4-1.3-0.6-2c-0.3-0.9-0.5-1.6-0.8-2.4
				c-0.2-0.7-0.5-1.4-0.7-2.1c-0.1-0.4-0.3-0.7-0.4-1.1c0-0.1-0.1-0.3-0.1-0.4c-0.1-0.2-0.2-0.5-0.3-0.7c-0.3-0.8-0.6-1.5-0.9-2.3
				c-0.3-0.8-0.7-1.7-1.1-2.5c0,0-0.4-0.8-0.4-0.8l-19.5,9.6l0.4,0.8c0.8,1.8,1.5,3.6,2.2,5.5c0,0.1,0.1,0.3,0.1,0.4
				c0.7,1.8,1.3,3.6,1.9,5.5c0,0.1,0.1,0.2,0.1,0.3c0.4,1.3,0.8,2.7,1.1,4c0.3,1,0.5,2,0.7,3c0.3,1.3,0.6,2.7,0.8,4l0.1,0.8l8.6-4.2
				l10.9-5.4L380.8,176.4z"/>
		</g>
		<g>
			<path class="st5" d="M218.9,204.8c-0.1-1.1-0.1-2.2-0.1-3.3l-8.3,4.1l8.4-0.1L218.9,204.8z"/>
			<path class="st5" d="M255,244.3l-0.4,0.1c-2.4,0.9-5.1,0.9-8.1,0.1l-0.4-0.1l-0.8,11.1l13.1-6.4L255,244.3z"/>
			<path class="st5" d="M253.3,222.4c0.1-0.8,0-1.6,0-2.4c-0.2-0.2-0.4-0.3-0.6-0.5c-0.5-0.4-0.8-0.8-1.1-1.1
				c-0.4-0.5-0.8-0.9-1.1-1.2c-0.4-0.5-0.7-0.9-1.1-1.4c-0.3-0.5-0.6-0.9-0.9-1.4c-0.3-0.4-0.5-0.9-0.8-1.3c-0.2-0.3-0.3-0.6-0.5-1
				c-0.1-0.2-0.2-0.4-0.3-0.6c0-0.1-0.1-0.2-0.1-0.3c-0.2-0.4-0.4-0.8-0.6-1.2c-0.3-0.6-0.5-1.1-0.6-1.6c-0.2-0.6-0.4-1.1-0.5-1.6
				c-0.2-0.6-0.3-1.1-0.4-1.6c-0.1-0.6-0.2-1.1-0.3-1.6c-0.1-0.6-0.2-1.1-0.2-1.6c0-0.3,0-0.5,0-0.7c-0.6-0.5-1.2-1-1.8-1.4
				c-3.4-2.3-6.5-2.6-8.9-1.4c-0.4,0.2-0.7,0.4-1,0.7c-0.6,0.5-0.9,0.8-1.2,1.2c-0.2,0.3-0.4,0.6-0.6,0.9c-0.2,0.3-0.3,0.6-0.5,1
				c-0.2,0.5-0.3,0.8-0.4,1.2c-0.1,0.5-0.2,0.9-0.3,1.3c-0.1,0.6-0.1,1-0.2,1.5c0,0.5,0,1,0,1.4c0,0.6,0,1.1,0.1,1.6
				c0,0.5,0.1,1,0.2,1.5c0.1,0.6,0.2,1.1,0.3,1.6c0.1,0.6,0.3,1.1,0.4,1.6c0.2,0.6,0.3,1.1,0.5,1.6c0.2,0.6,0.4,1.1,0.6,1.6
				c0.2,0.6,0.4,1,0.6,1.4c0,0.1,0.1,0.2,0.1,0.3c0.1,0.2,0.2,0.4,0.3,0.6c0.2,0.3,0.3,0.6,0.5,1c0.3,0.4,0.5,0.9,0.8,1.3
				c0.3,0.5,0.6,0.9,0.9,1.4c0.3,0.4,0.6,0.9,1,1.3c0.4,0.5,0.7,0.8,1,1.2c0.4,0.5,0.8,0.8,1.1,1.1c0.5,0.4,0.8,0.7,1.2,1
				c0.5,0.4,0.9,0.7,1.3,0.9c0.4,0.3,0.8,0.5,1.2,0.7c0.5,0.3,0.8,0.4,1.2,0.6c0.4,0.2,0.8,0.3,1.1,0.4c0.4,0.1,0.8,0.2,1.1,0.3
				c0.4,0.1,0.8,0.1,1.1,0.1c0.5,0,0.8,0,1.1,0c0.3,0,0.7-0.1,1-0.2c0.4-0.1,0.7-0.2,1-0.4C251.4,229,253,226.3,253.3,222.4z"/>
			<polygon class="st6" points="236.7,179.8 237.1,173.1 238.9,172.2 234.6,166.1 219.8,173.4 227.5,184.3 			"/>
			<path class="st5" d="M227.5,184.3l0.4-0.1c0.5-0.2,1-0.3,1.5-0.4c0.4-0.1,0.8-0.1,1.2-0.2c0.4-0.1,0.8-0.1,1.2-0.1
				c0.7,0,1.3,0,2,0.1c0.9,0.1,1.6,0.2,2.3,0.4l0.4,0.1l0.3-4.4L227.5,184.3z"/>
			<path class="st5" d="M270.4,245.9l-0.2,0.4c-0.5,1.2-1.1,2.3-1.8,3.3c-0.3,0.5-0.7,1-1.1,1.5c-0.7,0.9-1.5,1.7-2.4,2.5
				c-0.6,0.5-1.3,1-2,1.5l14.8-7.3c0.7-0.4,1.3-0.9,2-1.5c0.1-0.1,0.2-0.2,0.3-0.3c0.6-0.5,1.2-1.1,1.7-1.8c0.1-0.1,0.2-0.3,0.3-0.4
				c0.2-0.2,0.3-0.4,0.5-0.6c0.2-0.3,0.4-0.7,0.6-1c0.2-0.3,0.4-0.5,0.5-0.8c0.1-0.1,0.1-0.2,0.2-0.3c0.3-0.6,0.6-1.2,0.9-1.8
				c0.1-0.1,0.1-0.2,0.2-0.4l0.2-0.4L270.4,245.9z"/>
			<polygon class="st6" points="277.5,227.6 262.7,234.9 270.4,245.9 285.2,238.6 			"/>
			<path class="st2" d="M230.3,214.5c0.1,0.2,0.1,0.4,0.2,0.6c0.1,0.2,0.1,0.3,0.2,0.5c-0.2-0.5-0.3-1-0.5-1.5
				C230.2,214.2,230.3,214.4,230.3,214.5z"/>
			<path class="st2" d="M231.4,217.3c0.1,0.2,0.1,0.3,0.2,0.5c0.1,0.2,0.2,0.5,0.3,0.7C231.7,218.1,231.5,217.7,231.4,217.3z"/>
			<path class="st2" d="M229.8,212.6c0.1,0.2,0.1,0.4,0.2,0.7c0.1,0.2,0.1,0.4,0.2,0.7C230,213.5,229.9,213,229.8,212.6z"/>
			<path class="st2" d="M236.8,225.7c0.1,0.1,0.2,0.2,0.2,0.3c0.2,0.2,0.3,0.4,0.5,0.5c0.1,0.1,0.2,0.1,0.2,0.2
				C237.4,226.4,237.1,226,236.8,225.7z"/>
			<path class="st2" d="M230.7,215.7c0.1,0.2,0.2,0.4,0.2,0.6c0.1,0.2,0.2,0.5,0.3,0.7C231.1,216.7,230.9,216.2,230.7,215.7z"/>
			<path class="st2" d="M229.6,203.6c0,0.1,0,0.2-0.1,0.2c0,0.2-0.1,0.4-0.1,0.6c0,0.1,0,0.2-0.1,0.3
				C229.5,204.3,229.6,203.9,229.6,203.6z"/>
			<path class="st2" d="M231.1,200.4c-0.2,0.3-0.4,0.5-0.5,0.8C230.7,201,230.9,200.7,231.1,200.4z"/>
			<path class="st2" d="M230,202.4c-0.1,0.4-0.2,0.6-0.3,0.8C229.8,203.1,229.9,202.7,230,202.4z"/>
			<path class="st2" d="M230.5,201.4c-0.1,0.2-0.2,0.4-0.3,0.6c0,0.1-0.1,0.2-0.1,0.3C230.2,201.9,230.4,201.6,230.5,201.4z"/>
			<path class="st2" d="M229.3,209.3c0,0.2,0,0.4,0.1,0.6c0,0.2,0.1,0.4,0.1,0.7c0,0.1,0,0.2,0,0.2
				C229.4,210.3,229.3,209.8,229.3,209.3z"/>
			<path class="st2" d="M229.5,211.2c0,0.2,0.1,0.5,0.1,0.7c0,0.2,0.1,0.3,0.1,0.5c-0.1-0.5-0.2-1-0.3-1.5
				C229.5,211,229.5,211.1,229.5,211.2z"/>
			<path class="st2" d="M229.4,204.9c-0.1,0.3-0.1,0.5-0.1,0.7c0,0.2,0,0.4-0.1,0.6C229.3,205.7,229.3,205.3,229.4,204.9z"/>
			<path class="st2" d="M229.2,206.8c0,0.2,0,0.4,0,0.6c0,0.1,0,0.2,0,0.3c0-0.5,0-1,0-1.4C229.2,206.4,229.2,206.6,229.2,206.8z"/>
			<path class="st2" d="M229.2,207.8c0,0.4,0,0.6,0,0.8c0,0.2,0,0.4,0,0.6C229.2,208.8,229.2,208.3,229.2,207.8z"/>
			<path class="st2" d="M247.1,230.7c0.4-0.1,0.7-0.1,0.9-0.2C247.7,230.6,247.4,230.7,247.1,230.7z"/>
			<path class="st2" d="M234.6,223.1c0.2,0.2,0.3,0.4,0.5,0.6c0.1,0.2,0.3,0.4,0.5,0.6C235.3,224,234.9,223.5,234.6,223.1z"/>
			<path class="st2" d="M245,230.7c0.3,0,0.5,0.1,0.7,0.1C245.7,230.8,245.3,230.8,245,230.7z"/>
			<path class="st2" d="M237.9,226.8c0.1,0.1,0.1,0.1,0.2,0.2c0.2,0.2,0.3,0.3,0.5,0.5c0.1,0.1,0.3,0.2,0.4,0.3
				C238.6,227.5,238.2,227.1,237.9,226.8z"/>
			<path class="st2" d="M246.2,230.8c0.4,0,0.7,0,0.9,0C246.8,230.8,246.5,230.8,246.2,230.8z"/>
			<path class="st2" d="M235.7,224.5c0.1,0.1,0.2,0.3,0.3,0.4c0.2,0.2,0.3,0.4,0.5,0.6C236.3,225.2,236,224.8,235.7,224.5z"/>
			<path class="st2" d="M243.9,230.5c0.3,0.1,0.5,0.1,0.7,0.2c0.1,0,0.2,0,0.3,0.1C244.6,230.6,244.2,230.6,243.9,230.5z"/>
			<path class="st2" d="M234.2,222.5c0.1,0.2,0.3,0.4,0.4,0.6c-0.3-0.4-0.6-0.9-0.9-1.4C233.8,222,234,222.2,234.2,222.5z"/>
			<path class="st2" d="M239.1,227.9c0.2,0.1,0.3,0.3,0.5,0.4c0.2,0.1,0.3,0.2,0.5,0.4C239.8,228.4,239.4,228.1,239.1,227.9z"/>
			<path class="st2" d="M241.5,229.5c0.3,0.1,0.4,0.2,0.6,0.3c0.2,0.1,0.3,0.2,0.5,0.2C242.3,229.8,241.9,229.7,241.5,229.5z"/>
			<path class="st2" d="M240.6,228.9c0.2,0.1,0.3,0.2,0.5,0.3c0.1,0.1,0.2,0.1,0.3,0.2c-0.4-0.2-0.8-0.5-1.2-0.7
				C240.3,228.8,240.5,228.9,240.6,228.9z"/>
			<path class="st2" d="M232.9,220.4c0.3,0.5,0.5,0.9,0.8,1.3C233.4,221.3,233.1,220.8,232.9,220.4z"/>
			<path class="st2" d="M232.1,218.9c0.1,0.2,0.2,0.3,0.3,0.5C232.3,219.2,232.2,219,232.1,218.9z"/>
			<path class="st2" d="M242.7,230c0.1,0,0.2,0.1,0.3,0.1c0.2,0.1,0.3,0.1,0.5,0.2c0.1,0,0.2,0,0.2,0.1
				C243.4,230.3,243.1,230.2,242.7,230z"/>
			<path class="st2" d="M231.7,183.5C231.7,183.5,231.7,183.5,231.7,183.5C231.7,183.5,231.7,183.5,231.7,183.5z"/>
			<path class="st2" d="M233.6,183.6c0.1,0,0.1,0,0.2,0C233.8,183.6,233.7,183.6,233.6,183.6z"/>
			<path class="st2" d="M230,183.7c0.2,0,0.3,0,0.5,0c-0.4,0-0.8,0.1-1.2,0.2C229.5,183.8,229.8,183.7,230,183.7z"/>
			<path class="st7" d="M263,255.1c0.7-0.4,1.3-0.9,2-1.5c0.1-0.1,0.2-0.2,0.3-0.3c0.1-0.1,0.2-0.3,0.4-0.4c0.3-0.3,0.7-0.7,1-1
				c0.1-0.1,0.2-0.2,0.3-0.4c0.1-0.1,0.2-0.3,0.3-0.4c0.4-0.5,0.7-1,1.1-1.5c0.2-0.3,0.4-0.5,0.5-0.8c0.1-0.1,0.1-0.3,0.2-0.4
				c0.4-0.7,0.8-1.4,1.1-2.1l0.2-0.4l-7.7-11l0.1-0.5c0.2-0.7,0.4-1.5,0.5-2.5c0.1-0.8,0.2-1.6,0.3-2.5c0.1-0.9,0.1-1.7,0.1-2.8
				c0-0.9-0.1-1.8-0.1-2.8l0-0.6l8.4-0.1l-0.1-0.6c-0.2-1-0.4-2-0.6-3c-0.1-0.4-0.1-0.7-0.2-1.1c0-0.1-0.1-0.2-0.1-0.3
				c-0.3-1.4-0.7-2.7-1.2-4.2c-0.4-1.4-0.9-2.8-1.4-4.2c0-0.1-0.1-0.2-0.1-0.3c-0.5-1.4-1.1-2.8-1.7-4.1l-0.3-0.6l-8.4,0.1l-0.3-0.6
				c-0.5-0.9-0.9-1.7-1.4-2.5c-0.1-0.2-0.3-0.5-0.4-0.7c-0.2-0.3-0.3-0.5-0.5-0.7c-0.3-0.5-0.6-1-1-1.5c-0.1-0.1-0.1-0.2-0.3-0.4
				c-0.5-0.7-1-1.4-1.6-2.1c-0.1-0.1-0.1-0.1-0.2-0.2c-0.6-0.8-1.3-1.6-1.9-2.3l-0.4-0.5l0.8-11.1l-0.4-0.4c-1-0.9-2-1.8-3-2.6
				c-0.1-0.1-0.1-0.1-0.2-0.2c-1-0.8-2-1.5-3-2.2c-0.1,0-0.1-0.1-0.2-0.1c-0.9-0.6-1.9-1.2-3-1.8c-1-0.6-2.1-1.1-3.1-1.5l-0.4-0.2
				l-0.5,6.7l-0.3,4.4l-0.4-0.1c-0.7-0.2-1.4-0.3-2.3-0.4c-0.7-0.1-1.3-0.1-2-0.1c-0.4,0-0.8,0.1-1.2,0.1c-0.2,0-0.3,0-0.5,0
				c-0.2,0-0.5,0.1-0.7,0.1c-0.5,0.1-1,0.2-1.5,0.4l-0.4,0.1l-7.6-11l-0.3,0.2c-3.1,1.9-5.6,4.9-7.2,8.8l-0.2,0.4l7.6,11l-0.1,0.5
				c-0.4,1.5-0.7,3.2-0.8,5c-0.1,0.7-0.1,1.5-0.1,2.3c0,1.1,0,2.2,0.1,3.3l0,0.6l-8.4,0.1l0.1,0.6c1,5.6,2.8,11.6,5.4,17.3l0.3,0.6
				l8.4-0.1l0.3,0.6c2.1,3.9,4.5,7.4,7.3,10.5l0.4,0.5l-0.8,11.1l0.4,0.4c2,1.9,4.1,3.6,6.2,5c2.1,1.4,4.2,2.6,6.3,3.5l0.4,0.2
				l0.8-11.1l0.4,0.1c2.9,0.8,5.6,0.7,8.1-0.1l0.4-0.1l3.4,4.8l4.3,6.1l14.8-7.3l0.3-0.2L263,255.1z M249,230.2
				c-0.3,0.2-0.6,0.3-1,0.4c-0.2,0.1-0.5,0.1-0.9,0.2c-0.2,0-0.5,0-1.3,0c-0.2,0-0.4,0-0.8-0.1c-0.1,0-0.2,0-0.3-0.1
				c-0.2,0-0.4-0.1-0.8-0.2c-0.1,0-0.2,0-0.2-0.1c-0.2-0.1-0.3-0.1-0.5-0.2c-0.1,0-0.2-0.1-0.5-0.2c-0.2-0.1-0.3-0.1-0.5-0.2
				c-0.2-0.1-0.3-0.2-0.7-0.3c-0.1-0.1-0.2-0.1-0.3-0.2c-0.2-0.1-0.3-0.2-0.5-0.3c-0.1-0.1-0.3-0.2-0.5-0.3
				c-0.2-0.1-0.3-0.2-0.5-0.4c-0.2-0.1-0.3-0.3-0.6-0.5c-0.1-0.1-0.3-0.2-0.4-0.3c-0.2-0.1-0.3-0.3-0.5-0.5
				c-0.1-0.1-0.1-0.1-0.3-0.3c-0.1-0.1-0.2-0.1-0.2-0.2c-0.2-0.2-0.4-0.3-0.5-0.5c-0.1-0.1-0.2-0.2-0.5-0.6
				c-0.2-0.2-0.3-0.4-0.5-0.6c-0.1-0.1-0.2-0.3-0.5-0.6c-0.2-0.2-0.3-0.4-0.5-0.6c-0.2-0.2-0.3-0.4-0.5-0.6
				c-0.1-0.2-0.3-0.4-0.4-0.6c-0.2-0.3-0.3-0.5-0.5-0.8c-0.2-0.4-0.5-0.8-0.8-1.3c-0.2-0.3-0.3-0.6-0.5-1c-0.1-0.2-0.2-0.3-0.3-0.6
				c0-0.1-0.1-0.2-0.1-0.3c-0.1-0.2-0.2-0.5-0.3-0.7c-0.1-0.2-0.1-0.3-0.3-0.8c-0.1-0.2-0.2-0.5-0.3-0.7c-0.1-0.2-0.2-0.4-0.3-0.8
				c-0.1-0.2-0.1-0.3-0.2-0.5c-0.1-0.2-0.1-0.4-0.2-0.6c0-0.1-0.1-0.3-0.2-0.6c-0.1-0.2-0.1-0.4-0.2-0.7c-0.1-0.2-0.1-0.4-0.2-0.8
				c0-0.2-0.1-0.3-0.1-0.5c0-0.2-0.1-0.5-0.1-0.7c0-0.1,0-0.2-0.1-0.4c0-0.1,0-0.2,0-0.2c0-0.2-0.1-0.4-0.1-0.7c0-0.2,0-0.4-0.1-0.6
				c0-0.2,0-0.4,0-0.6c0-0.2,0-0.4,0-0.9c0-0.1,0-0.2,0-0.3c0-0.2,0-0.4,0-0.6c0-0.2,0-0.4,0-0.6c0-0.2,0-0.4,0.1-0.6
				c0-0.2,0-0.4,0.1-0.9c0-0.1,0-0.2,0.1-0.3c0-0.2,0.1-0.4,0.1-0.6c0-0.1,0-0.2,0.2-0.6c0.1-0.2,0.1-0.4,0.4-1
				c0-0.1,0.1-0.2,0.1-0.3c0.1-0.2,0.2-0.4,0.3-0.7c0.2-0.3,0.3-0.6,0.6-0.9c0.3-0.4,0.7-0.8,1.2-1.2c0.3-0.3,0.7-0.5,1-0.7
				c2.4-1.2,5.5-0.8,8.9,1.4c0.6,0.4,1.2,0.9,1.8,1.4c5.1,4.4,8.9,12,9.2,18.7c0,0.8,0.1,1.6,0,2.4C253,226.3,251.4,229,249,230.2z"
				/>
			<path class="st5" d="M278.6,219.8l-6.6,3.2l-8.4,0.1l0,0.6c0.1,0.9,0.1,1.9,0.1,2.8c0,1.1,0,2-0.1,2.8c-0.1,0.9-0.2,1.7-0.3,2.5
				c-0.2,1-0.3,1.8-0.5,2.5l-0.1,0.5l14.8-7.3l0.1-0.5c0.1-0.2,0.1-0.4,0.1-0.6c0.1-0.4,0.2-0.7,0.2-1.1c0-0.2,0.1-0.4,0.1-0.6
				c0.1-0.3,0.1-0.4,0.1-0.5c0.1-0.4,0.1-0.7,0.1-1.1c0-0.4,0.1-0.7,0.1-1.1c0-0.4,0-0.8,0.1-1.1
				C278.6,220.7,278.6,220.3,278.6,219.8z"/>
			<g>
				<polygon class="st5" points="250.6,182.1 249.8,193.2 264.6,185.9 265.4,174.8 				"/>
				<path class="st5" d="M252.1,195.9c-0.6-0.8-1.2-1.5-1.9-2.2C250.9,194.4,251.5,195.1,252.1,195.9z"/>
				<path class="st5" d="M252.3,196.2c-0.1-0.1-0.1-0.1-0.2-0.2c0.6,0.7,1.2,1.5,1.7,2.3C253.4,197.6,252.9,196.9,252.3,196.2z"/>
			</g>
			<path class="st6" d="M272.3,196.9c-0.3-0.6-0.7-1.3-1-1.9c-0.1-0.2-0.3-0.4-0.4-0.6c-0.1-0.2-0.3-0.5-0.4-0.7
				c-0.1-0.2-0.3-0.4-0.4-0.6c-0.3-0.4-0.6-0.9-0.9-1.3c-0.1-0.1-0.1-0.2-0.2-0.3c-0.1-0.1-0.1-0.2-0.2-0.2
				c-0.1-0.2-0.3-0.4-0.4-0.6c-0.3-0.4-0.5-0.7-0.8-1.1c-0.2-0.2-0.3-0.4-0.5-0.6c-0.1-0.1-0.1-0.1-0.2-0.2
				c-0.1-0.1-0.1-0.2-0.2-0.3c-0.3-0.4-0.6-0.7-0.9-1.1c-0.3-0.3-0.6-0.7-0.9-1l-0.4-0.5l-14.8,7.3l0.4,0.5c1.3,1.4,2.5,3,3.7,4.6
				c0.2,0.3,0.2,0.3,0.3,0.4c0.3,0.5,0.7,1,1,1.5c0.8,1.3,1.6,2.6,2.3,3.9l0.3,0.6l14.8-7.3L272.3,196.9z"/>
			<path class="st6" d="M265,174.4c-0.2-0.2-0.4-0.4-0.6-0.6c-0.5-0.4-0.9-0.8-1.4-1.2c-0.3-0.3-0.6-0.5-1-0.8
				c-0.1-0.1-0.1-0.1-0.2-0.2c-0.1,0-0.1-0.1-0.2-0.1c-0.4-0.3-0.9-0.7-1.3-1c-0.4-0.3-0.9-0.6-1.3-0.9c-0.1-0.1-0.2-0.1-0.3-0.2
				c-0.3-0.2-0.6-0.4-1-0.6c-0.4-0.3-0.8-0.5-1.3-0.8c-0.3-0.2-0.5-0.3-0.8-0.5c-0.1,0-0.1-0.1-0.2-0.1c-0.1,0-0.2-0.1-0.2-0.1
				c-0.4-0.2-0.8-0.4-1.3-0.6c-0.4-0.2-0.9-0.4-1.3-0.6c-0.1,0-0.2-0.1-0.3-0.1l-0.4-0.2l-13,6.4l-1.8,0.9l0.4,0.2
				c1,0.4,2.1,0.9,3.1,1.5c1,0.6,2,1.2,3,1.8c0.1,0,0.1,0.1,0.2,0.1c1,0.7,2,1.4,3,2.2c1.1,0.9,2.1,1.8,3.2,2.8l0.4,0.4l14.8-7.3
				L265,174.4z"/>
			<polygon class="st5" points="272.6,197.5 257.8,204.8 266.3,204.6 281.1,197.3 			"/>
			<path class="st6" d="M286.7,215.2c-0.1-0.7-0.2-1.3-0.3-1.8c-0.1-0.6-0.2-1.2-0.4-1.8c0-0.2-0.1-0.4-0.1-0.5
				c0-0.1-0.1-0.2-0.1-0.3c-0.1-0.3-0.1-0.6-0.2-0.9c-0.1-0.6-0.3-1.1-0.5-1.7c-0.1-0.5-0.3-1-0.5-1.5c-0.2-0.7-0.4-1.3-0.6-1.8
				c-0.2-0.5-0.4-1.1-0.6-1.6c-0.1-0.3-0.2-0.5-0.3-0.8c0-0.1-0.1-0.2-0.1-0.3c-0.1-0.2-0.1-0.3-0.2-0.5c-0.2-0.6-0.5-1.2-0.7-1.7
				c-0.3-0.6-0.5-1.3-0.8-1.9c0,0-0.3-0.6-0.3-0.6l-14.8,7.3l0.3,0.6c0.6,1.4,1.2,2.8,1.7,4.1c0,0.1,0.1,0.2,0.1,0.3
				c0.5,1.4,1,2.8,1.4,4.2c0,0.1,0,0.2,0.1,0.3c0.3,1,0.6,2,0.8,3c0.2,0.8,0.4,1.5,0.6,2.3c0.2,1,0.5,2,0.6,3l0.1,0.6l6.6-3.2
				l8.3-4.1L286.7,215.2z"/>
		</g>
	</g>
</g>
</svg>
