<?xml version="1.0" encoding="utf-8"?>
<!-- Generator: Adobe Illustrator 24.2.3, SVG Export Plug-In . SVG Version: 6.00 Build 0)  -->
<svg version="1.1" id="Layer_1" xmlns="http://www.w3.org/2000/svg" xmlns:xlink="http://www.w3.org/1999/xlink" x="0px" y="0px"
	 viewBox="0 0 500 500" style="enable-background:new 0 0 500 500;" xml:space="preserve">
<style type="text/css">
	.st0{fill-rule:evenodd;clip-rule:evenodd;fill:#FFFFFF;}
	.st1{opacity:0.35;fill-rule:evenodd;clip-rule:evenodd;fill:#59CAAF;enable-background:new    ;}
	.st2{fill-rule:evenodd;clip-rule:evenodd;fill:#303A7D;}
	.st3{fill-rule:evenodd;clip-rule:evenodd;fill:url(#SVGID_1_);}
	.st4{fill-rule:evenodd;clip-rule:evenodd;fill:#3E4992;}
	.st5{opacity:0.5;fill-rule:evenodd;clip-rule:evenodd;fill:url(#SVGID_2_);enable-background:new    ;}
	.st6{fill-rule:evenodd;clip-rule:evenodd;fill:url(#SVGID_3_);}
	.st7{opacity:0.5;fill-rule:evenodd;clip-rule:evenodd;fill:#00FFFF;enable-background:new    ;}
	.st8{opacity:0.5;fill-rule:evenodd;clip-rule:evenodd;fill:#FFFFFF;enable-background:new    ;}
	.st9{opacity:0.3;fill-rule:evenodd;clip-rule:evenodd;fill:#FFFFFF;enable-background:new    ;}
	.st10{opacity:0.2;fill-rule:evenodd;clip-rule:evenodd;fill:#FFFFFF;enable-background:new    ;}
	.st11{opacity:0.5;fill-rule:evenodd;clip-rule:evenodd;fill:url(#SVGID_4_);enable-background:new    ;}
	.st12{fill-rule:evenodd;clip-rule:evenodd;fill:#273087;}
	.st13{opacity:0.5;fill-rule:evenodd;clip-rule:evenodd;fill:url(#SVGID_5_);enable-background:new    ;}
	.st14{opacity:0.5;fill-rule:evenodd;clip-rule:evenodd;fill:url(#SVGID_6_);enable-background:new    ;}
	.st15{fill-rule:evenodd;clip-rule:evenodd;fill:#6D6AFD;}
	.st16{fill-rule:evenodd;clip-rule:evenodd;fill:url(#SVGID_7_);}
	.st17{opacity:0.5;fill-rule:evenodd;clip-rule:evenodd;fill:url(#SVGID_8_);enable-background:new    ;}
	.st18{fill-rule:evenodd;clip-rule:evenodd;fill:url(#SVGID_9_);}
	.st19{fill-rule:evenodd;clip-rule:evenodd;fill:#F2F4FF;}
	.st20{fill-rule:evenodd;clip-rule:evenodd;fill:#C5DBF1;}
	.st21{fill-rule:evenodd;clip-rule:evenodd;fill:#DCE8F8;}
	.st22{fill-rule:evenodd;clip-rule:evenodd;fill:url(#SVGID_10_);}
	.st23{opacity:0.5;fill-rule:evenodd;clip-rule:evenodd;fill:url(#SVGID_11_);enable-background:new    ;}
	.st24{fill-rule:evenodd;clip-rule:evenodd;fill:url(#SVGID_12_);}
	.st25{opacity:0.5;fill-rule:evenodd;clip-rule:evenodd;fill:#3856D8;enable-background:new    ;}
	.st26{fill-rule:evenodd;clip-rule:evenodd;fill:#00FFFF;}
	.st27{opacity:0.5;fill-rule:evenodd;clip-rule:evenodd;fill:url(#SVGID_13_);enable-background:new    ;}
	.st28{fill-rule:evenodd;clip-rule:evenodd;fill:#FFA698;}
	.st29{fill-rule:evenodd;clip-rule:evenodd;fill:#1F202B;}
	.st30{fill-rule:evenodd;clip-rule:evenodd;fill:#161A40;}
	.st31{fill-rule:evenodd;clip-rule:evenodd;fill:#161F69;}
	.st32{fill-rule:evenodd;clip-rule:evenodd;fill:url(#SVGID_14_);}
	.st33{opacity:0.3;fill-rule:evenodd;clip-rule:evenodd;fill:#1E2353;enable-background:new    ;}
	.st34{fill-rule:evenodd;clip-rule:evenodd;fill:url(#SVGID_15_);}
	.st35{fill-rule:evenodd;clip-rule:evenodd;fill:url(#SVGID_16_);}
	.st36{fill-rule:evenodd;clip-rule:evenodd;fill:url(#SVGID_17_);}
	.st37{fill-rule:evenodd;clip-rule:evenodd;fill:url(#SVGID_18_);}
	.st38{fill-rule:evenodd;clip-rule:evenodd;fill:url(#SVGID_19_);}
	.st39{opacity:0.5;fill-rule:evenodd;clip-rule:evenodd;fill:#FF8FD5;enable-background:new    ;}
	.st40{fill-rule:evenodd;clip-rule:evenodd;fill:url(#SVGID_20_);}
	.st41{fill-rule:evenodd;clip-rule:evenodd;fill:url(#SVGID_21_);}
	.st42{fill-rule:evenodd;clip-rule:evenodd;fill:url(#SVGID_22_);}
	.st43{fill-rule:evenodd;clip-rule:evenodd;fill:#1994F0;}
	.st44{fill-rule:evenodd;clip-rule:evenodd;fill:url(#SVGID_23_);}
	.st45{fill-rule:evenodd;clip-rule:evenodd;fill:#00EDFF;}
	.st46{fill-rule:evenodd;clip-rule:evenodd;fill:#0D7AE9;}
	.st47{fill-rule:evenodd;clip-rule:evenodd;fill:#494CEC;}
	.st48{fill-rule:evenodd;clip-rule:evenodd;fill:url(#SVGID_24_);}
	.st49{fill-rule:evenodd;clip-rule:evenodd;fill:#AAB4FF;}
	.st50{fill-rule:evenodd;clip-rule:evenodd;fill:url(#SVGID_25_);}
	.st51{fill-rule:evenodd;clip-rule:evenodd;fill:#FDBEBE;}
	.st52{fill-rule:evenodd;clip-rule:evenodd;fill:url(#SVGID_26_);}
</style>
<g>
	<g id="Layer_4">
		<path class="st0" d="M405.2,273.9c-1.5-0.2-2.9-0.6-4.1-1.3l-1.2,2.1c1.6,0.9,3.3,1.4,5.1,1.6L405.2,273.9z M313.5,125.4l1.2-2.1
			l4.3,2.4l-1.2,2.1L313.5,125.4z M319.9,128.9l1.2-2.1l4.3,2.4l-1.2,2.1L319.9,128.9L319.9,128.9z M326.3,132.5l1.2-2.1l4.3,2.4
			l-1.2,2.1L326.3,132.5z M332.7,136l1.2-2.1l4.3,2.4l-1.2,2.1L332.7,136L332.7,136z M339.1,139.6l1.2-2.1l4.3,2.4l-1.2,2.1
			L339.1,139.6z M345.5,143.1l1.2-2.1l4.3,2.4l-1.2,2.1L345.5,143.1z M351.9,146.7l1.2-2.1l4.3,2.4l-1.2,2.1L351.9,146.7
			L351.9,146.7z M358.3,150.2l1.2-2.1l4.3,2.4l-1.2,2.1L358.3,150.2z M364.7,153.7l1.2-2.1l4.3,2.4l-1.2,2.1L364.7,153.7z
			 M371.1,157.3l1.2-2.1l4.3,2.4l-1.2,2.1L371.1,157.3z M377.5,160.9l1.2-2.1l4.3,2.4l-1.2,2.1L377.5,160.9L377.5,160.9z
			 M383.9,164.4l1.2-2.1l4.3,2.4l-1.2,2.1L383.9,164.4L383.9,164.4z M390.3,167.9l1.2-2.1l4.3,2.4l-1.2,2.1L390.3,167.9L390.3,167.9
			z M396.7,171.5l1.2-2.1l4.3,2.4l-1.2,2.1L396.7,171.5L396.7,171.5z M403.1,175l1.2-2.1l4.3,2.4l-1.2,2.1L403.1,175L403.1,175z
			 M409.4,178.6l1.2-2.1c1.4,0.8,3,1.6,4.3,2.5l-1.4,2C412.3,180,410.7,179.3,409.4,178.6L409.4,178.6z M415.4,182.3
			c1.1,1,2.1,2.2,3,3.4l2-1.4c-1-1.4-2.1-2.7-3.4-3.9L415.4,182.3L415.4,182.3z M419.6,187.7c0.7,1.4,1.4,2.8,1.8,4.3l2.3-0.7
			c-0.5-1.6-1.2-3.2-2-4.7L419.6,187.7L419.6,187.7z M422.1,194.2c0.3,1.5,0.5,3,0.5,4.6h2.4c0-1.7-0.2-3.4-0.5-5.1L422.1,194.2
			L422.1,194.2z M422.4,201.1c-0.2,1.6-0.4,3.2-0.6,4.8l2.4,0.3c0.2-1.6,0.5-3.2,0.6-4.8L422.4,201.1L422.4,201.1z M421.4,208.3
			l2.4,0.3l-0.6,4.8l-2.4-0.3L421.4,208.3L421.4,208.3z M420.5,215.6l2.4,0.3l-0.6,4.8l-2.4-0.3L420.5,215.6z M419.5,222.8l2.4,0.3
			l-0.6,4.8l-2.4-0.3L419.5,222.8z M418.6,230.1l2.4,0.3l-0.6,4.8l-2.4-0.3L418.6,230.1z M417.6,237.3l2.4,0.3l-0.6,4.8l-2.4-0.3
			L417.6,237.3L417.6,237.3z M416.7,244.6l2.4,0.3l-0.6,4.8l-2.4-0.3L416.7,244.6L416.7,244.6z M415.7,251.8l2.4,0.3l-0.6,4.8
			l-2.4-0.3L415.7,251.8z M414.8,259.1l2.4,0.3l-0.6,4.8l-2.4-0.3L414.8,259.1z M413.8,266.2c-0.3,1.5-0.8,2.8-1.6,4.1l2,1.3
			c0.9-1.5,1.6-3.2,2-4.9L413.8,266.2L413.8,266.2z M410.8,272l-0.2,0.2c-1,0.9-2.1,1.4-3.4,1.7l0.4,2.4c1.8-0.3,3.4-1.1,4.7-2.3
			l0.2-0.2L410.8,272z"/>
		<path class="st0" d="M122.1,133.1l1.2-2.1l4.2,2.4l-1.2,2.1L122.1,133.1z M108.1,224l-1.2,2.1l-4.3-2.4l1.2-2.1L108.1,224z
			 M101.7,220.5l-1.2,2.1l-4.3-2.4l1.2-2.1C97.4,218.1,101.7,220.5,101.7,220.5z M95.3,216.9l-1.2,2.1l-4.3-2.4l1.2-2.1L95.3,216.9
			L95.3,216.9z M88.9,213.4l-1.2,2.1c-1.5-0.8-3-1.7-4.3-2.8l1.6-1.9C86.2,211.8,87.5,212.7,88.9,213.4z M83.3,209.3
			c-1-1.1-1.9-2.4-2.7-3.7l-2.1,1.2c0.8,1.5,1.9,2.9,3,4.1L83.3,209.3z M79.5,203.5c-0.6-1.4-1.1-2.9-1.5-4.4l-2.4,0.6
			c0.4,1.7,0.9,3.3,1.6,4.8L79.5,203.5L79.5,203.5z M77.6,196.9c-0.2-1.5-0.2-3-0.1-4.6l-2.4-0.3c-0.2,1.7-0.2,3.4,0.1,5.1
			L77.6,196.9L77.6,196.9z M77.9,189.9l-2.4-0.3l0.6-4.8l2.4,0.3C78.5,185,77.9,189.9,77.9,189.9z M78.9,182.6l-2.5-0.3l0.6-4.8
			l2.4,0.3L78.9,182.6L78.9,182.6z M79.9,175.4l-2.4-0.3l0.6-4.8l2.4,0.3L79.9,175.4L79.9,175.4z M80.8,168.1l-2.4-0.3L79,163
			l2.4,0.3L80.8,168.1L80.8,168.1z M81.8,160.9l-2.4-0.3l0.6-4.8l2.4,0.3L81.8,160.9z M82.8,153.6l-2.6-0.3l0.6-4.8l2.4,0.3
			l-0.6,4.8L82.8,153.6z M83.8,146.4l-2.4-0.3l0.6-4.8l2.4,0.3L83.8,146.4z M84.7,139.1l-2.6-0.3l0.6-4.8l2.4,0.3l-0.6,4.8
			L84.7,139.1z M85.7,131.9l-2.6-0.3c0.2-1.6,0.4-3.3,0.7-4.9l2.4,0.4c-0.3,1.5-0.4,3.2-0.6,4.8L85.7,131.9z M86.9,124.9L86.9,124.9
			c0.5-1.4,1.2-2.7,2.2-3.7l-2-1.6c-1.2,1.3-2.2,2.9-2.7,4.6l2.3,0.8L86.9,124.9z M90.7,119.9c0.3-0.2,0.7-0.4,1-0.5
			c1-0.4,2-0.5,3-0.5l0.1-2.4c-1.4-0.1-2.7,0.2-4,0.6c-0.5,0.2-0.9,0.4-1.4,0.7L90.7,119.9L90.7,119.9z M96.8,119.3
			c0.8,0.2,1.6,0.6,2.4,1l1.7,1l1.2-2.1l-1.7-1c-0.9-0.5-1.9-0.9-2.9-1.2l-0.9,2.4L96.8,119.3z M103.1,122.4l1-2.1l4.3,2.4l-1.3,2.1
			l-4.3-2.4L103.1,122.4z M109.5,126l1.2-2.1l4.3,2.4l-1.4,2.1l-4.3-2.4L109.5,126z M115.9,129.5l1.2-2.1l4.3,2.4l-1.2,2.1
			L115.9,129.5z"/>
		<path class="st0" d="M253.2,93.5l1.2-2.1l4.3,2.4l-1.2,2.1L253.2,93.5z M214.7,106.4l0.6-4.4l-2.4-0.3l-0.6,4.4L214.7,106.4z
			 M215.6,99.6l-2.4-0.3l0.6-4.8l2.4,0.3L215.6,99.6z M216.6,92.3l-2.4-0.3c0.2-1.6,0.4-3.3,0.6-4.9l2.4,0.4
			C216.9,89.1,216.8,90.8,216.6,92.3L216.6,92.3z M217.8,85.3L217.8,85.3c0.5-1.4,1.2-2.7,2.2-3.7l-1.8-1.7
			c-1.2,1.3-2.2,2.9-2.7,4.6L217.8,85.3L217.8,85.3z M221.6,80.3c0.3-0.2,0.7-0.4,1-0.5c1-0.4,2-0.5,3-0.5l0.1-2.4
			c-1.4-0.1-2.7,0.2-4,0.6c-0.5,0.2-0.9,0.4-1.4,0.7L221.6,80.3L221.6,80.3z M227.7,79.7c0.8,0.2,1.6,0.6,2.4,1l1.7,1l1.2-2.1
			l-1.7-1c-0.9-0.5-1.9-0.9-2.9-1.2L227.7,79.7L227.7,79.7z M234,82.9l1.2-2.1l4.3,2.4l-1.2,2.2L234,82.9L234,82.9z M240.4,86.4
			l1.2-2.1l4.3,2.4l-1.2,2.1L240.4,86.4L240.4,86.4z M246.8,90l1.2-2.1l4.3,2.4l-1.1,2.1L246.8,90z"/>
		<path class="st1" d="M368.9,416.7L140.8,288.5c-3.5-1.6-8.6-3.1-11.9-1l-8.7,5.3c-1.7,1.1-7.5,4.6-3.7,6.7
			c11.3,6.1,218.4,123.3,229.9,129.5c2.7,1.2,5.7,1.7,8.7,1.3c3.3-0.2,6.5-1.2,9.4-2.8l3.5-2.1c2.5-1.5,3.8-3.2,3.9-4.8
			S371.1,417.7,368.9,416.7z"/>
		<path class="st2" d="M160.3,70.5c-1.6-1-3.5-1.2-5.3-0.6l-4,1.6c-1.4,7.5,205.7,351.8,207.5,353.7l3.6-1.4
			c2.3-0.9,3.6-3.4,3.9-5.7l30.1-205.4l0,0c0.4-3.5-0.5-7-2.4-9.9c-1-1.6-2.4-2.9-4-3.9L160.3,70.5z"/>
		
			<linearGradient id="SVGID_1_" gradientUnits="userSpaceOnUse" x1="302.7035" y1="117.8786" x2="372.3634" y2="290.7086" gradientTransform="matrix(1 0 0 -1 -70.92 422.89)">
			<stop  offset="0" style="stop-color:#965CF2"/>
			<stop  offset="1" style="stop-color:#FF8ADC"/>
		</linearGradient>
		<path class="st3" d="M385.7,200.4L156.4,72.1c-4.3-2.4-8.5-0.1-9.2,5.1l-30.1,205.4c-0.8,5.2,2.1,11.4,6.4,13.8l229.3,128.4
			c4.3,2.4,8.5,0.1,9.3-5.1l30.1-205.4C392.9,209,390,202.8,385.7,200.4z"/>
		<path class="st4" d="M385.7,200.4L156.4,72.1c-4.3-2.4-8.5-0.1-9.2,5.1l-1,6.9l244.9,137.1l1-7C392.9,209,390,202.8,385.7,200.4z"
			/>
		<path class="st2" d="M154.9,77.2c1.7,0.4,3.1,2.5,3,4.6s-1.6,3.6-3.3,3.2s-3.1-2.5-3-4.6S153.2,76.8,154.9,77.2z"/>
		<path class="st2" d="M162.9,81.7c1.7,0.4,3.1,2.5,3,4.6s-1.6,3.6-3.3,3.2s-3.1-2.5-3-4.6S161.1,81.3,162.9,81.7z"/>
		<path class="st2" d="M171.4,86.7c1.7,0.4,3.1,2.5,3,4.6s-1.6,3.6-3.3,3.2s-3.1-2.5-3-4.6S169.7,86.3,171.4,86.7z"/>
		
			<linearGradient id="SVGID_2_" gradientUnits="userSpaceOnUse" x1="383.6073" y1="169.6512" x2="411.8373" y2="224.8311" gradientTransform="matrix(1 0 0 -1 -70.92 422.89)">
			<stop  offset="0" style="stop-color:#965CF2"/>
			<stop  offset="1" style="stop-color:#FF8ADC"/>
		</linearGradient>
		<path class="st5" d="M390,229l-119.5-66.3c-2.3-1.4-5.1-1.7-7.6-0.9c-2.9,1.1-5,4-5.6,8.2l-7.5,57.5c-1.1,7.5,3,16.4,9.3,19.9
			l118.7,65.8l4-1.6l1-7.3L390,229z"/>
		<path class="st2" d="M397.9,248.9l-8.9,60.4l1.1,0.1l2.9-1.1c3.2-1.3,4.9-4.6,5.3-7.8l7.1-54.5l0,0c0.5-4.8-0.6-9.6-3.3-13.6
			c-1.4-2.2-3.3-4-5.5-5.3L280,162.4c-2.2-1.3-4.8-1.6-7.3-0.8l-2.6,1c-1.3,0.5-1.7,0.9-1.7,1C269.7,174.9,399.6,237.3,397.9,248.9z
			"/>
		
			<linearGradient id="SVGID_3_" gradientUnits="userSpaceOnUse" x1="408.9104" y1="205.1424" x2="392.5604" y2="167.5924" gradientTransform="matrix(1 0 0 -1 -70.92 422.89)">
			<stop  offset="0" style="stop-color:#1C8EF4"/>
			<stop  offset="1" style="stop-color:#00CFDD"/>
		</linearGradient>
		<path class="st6" d="M393.7,228.3l-116.6-64.7c-2.2-1.4-4.8-1.7-7.3-0.8c-2.7,1.1-4.8,3.8-5.4,7.8l-7.1,54.5
			c-1,7.1,2.9,15.6,8.8,18.9l116.7,64.7c5.9,3.3,11.6,0.1,12.6-7l7.1-54.5C403.6,240,399.6,231.6,393.7,228.3z"/>
		<path class="st7" d="M395.9,251l-66.5-36.6c-0.5-0.3-1.2-0.4-1.7-0.2c-0.7,0.3-1.2,1.1-1.3,1.9l-0.4,2.7c-0.2,1.8,0.6,3.5,2.1,4.5
			l66.5,36.6c1.4,0.8,2.8,0,3-1.7l0.4-2.7C398.2,253.7,397.4,252,395.9,251z"/>
		<path class="st7" d="M393.5,267.5L327,230.9c-0.5-0.3-1.2-0.4-1.7-0.2c-0.7,0.3-1.2,1.1-1.3,1.9l-0.5,2.7
			c-0.2,1.8,0.6,3.5,2.1,4.5l66.5,36.5c1.4,0.8,2.8,0,3-1.7l0.4-2.7C395.8,270.2,395,268.4,393.5,267.5z"/>
		<path class="st7" d="M351.1,261.4l-26.4-14.1c-0.5-0.3-1.2-0.4-1.7-0.2c-0.7,0.3-1.2,1.1-1.3,1.9l-0.5,2.7
			c-0.2,1.8,0.6,3.5,2.1,4.5l26.4,14.1c1.4,0.8,2.8,0,3-1.7l0.4-2.7C353.4,264.2,352.6,262.4,351.1,261.4z"/>
		<path class="st8" d="M266.3,197.6c-2,18.4,8.2,40.9,22.8,50.2s28.7-2.7,30.3-16.5c1.5-13.9-1-19.6-5.3-28.8
			c-2.5,1.4-5.1,2.8-7.6,4.2c2.7,5.9,4.4,9.6,3.4,18.5s-10,16.6-19.5,10.6s-16-20.4-14.7-32.2C272.7,201.6,269.5,199.6,266.3,197.6z
			"/>
		<path class="st9" d="M276.7,178.9c-5.5,3-9.4,9.4-10.4,18.6c3.2,2,6.4,4,9.5,6c0.7-5.9,3.2-10.1,6.7-12
			C280.5,187.4,278.6,183.2,276.7,178.9z"/>
		<path class="st10" d="M296.6,181c-7.3-4.6-14.4-5.1-19.9-2.1c1.9,4.2,3.8,8.5,5.8,12.7c3.5-1.9,8.1-1.6,12.8,1.4
			c4.7,3,8.7,8.1,11.4,13.9c2.5-1.4,5.1-2.8,7.7-4.2C310.1,193.6,303.9,185.7,296.6,181z"/>
		
			<linearGradient id="SVGID_4_" gradientUnits="userSpaceOnUse" x1="244.4577" y1="236.3797" x2="269.2277" y2="293.2597" gradientTransform="matrix(1 0 0 -1 -70.92 422.89)">
			<stop  offset="0" style="stop-color:#965CF2"/>
			<stop  offset="1" style="stop-color:#FF8ADC"/>
		</linearGradient>
		<path class="st11" d="M224.5,149.5l-79-43.7c-0.8-0.4-1.6-0.8-2.5-0.9l-11.3,77.3c0.8,0.8,1.7,1.5,2.6,2l79,43.7
			c4.8,2.7,9.4,0.1,10.3-5.7l8.1-57.2C232.6,159.1,229.4,152.2,224.5,149.5z"/>
		<path class="st12" d="M222,159.4l-9,58.9l0.8,0.1l2.3-0.9c2.5-1,3.8-3.5,4.1-6l7.7-54.3l0,0c0.4-3.7-0.5-7.4-2.6-10.5
			c-1.1-1.7-2.5-3.1-4.3-4.1l-90.5-50.1c-1.7-1-3.7-1.3-5.6-0.6l-2,0.8c-1,0.4-1.3,0.7-1.3,0.7C122.6,102,223.3,150.5,222,159.4z"/>
		<path class="st0" d="M218.8,143.4l-90.5-50.1c-1.7-1.1-3.8-1.3-5.6-0.6c-2.1,0.8-3.7,3-4.1,6.1l-7.7,54.3
			c-0.8,5.5,2.2,12.1,6.8,14.6l90.5,50.1c4.6,2.5,9,0.1,9.8-5.4l7.7-54.3C226.4,152.5,223.3,146,218.8,143.4z"/>
		
			<linearGradient id="SVGID_5_" gradientUnits="userSpaceOnUse" x1="228.6968" y1="256.3447" x2="255.3768" y2="274.3747" gradientTransform="matrix(1 0 0 -1 -70.92 422.89)">
			<stop  offset="0" style="stop-color:#6D6AFE"/>
			<stop  offset="1" style="stop-color:#3FB0F7"/>
		</linearGradient>
		<path class="st13" d="M214.3,176.7l-92.8-51.5c-0.4-0.3-0.9-0.3-1.3-0.1c-0.6,0.3-1,0.8-1,1.4l-0.3,2.1c-0.2,1.4,0.5,2.7,1.6,3.5
			l92.8,51.5c0.7,0.5,1.6,0.2,2.1-0.5c0.2-0.3,0.2-0.5,0.2-0.8l0.3-2.1C216,178.8,215.4,177.4,214.3,176.7L214.3,176.7z
			 M166.8,177.7c1.2,0.8,1.8,2.1,1.6,3.5l-0.3,2.1c0,0.8-0.7,1.5-1.5,1.5c-0.3,0-0.6-0.1-0.8-0.2l-49.1-27c-1.2-0.8-1.8-2.1-1.6-3.5
			l0.3-2.1c0-0.6,0.4-1.2,1-1.4c0.5-0.2,0.9-0.1,1.3,0.1L166.8,177.7L166.8,177.7z M212.4,189.4c1.2,0.8,1.8,2.1,1.6,3.5l-0.4,2.1
			c0,0.8-0.7,1.5-1.5,1.5c-0.3,0-0.6-0.1-0.8-0.2l-92.8-51.5c-1.2-0.8-1.8-2.1-1.6-3.5l0.3-2.1c0-0.6,0.4-1.2,1-1.4
			c0.4-0.2,0.9-0.1,1.3,0.1L212.4,189.4z"/>
		
			<linearGradient id="SVGID_6_" gradientUnits="userSpaceOnUse" x1="238.6944" y1="286.19" x2="244.7744" y2="293.59" gradientTransform="matrix(1 0 0 -1 -70.92 422.89)">
			<stop  offset="0" style="stop-color:#6D6AFE"/>
			<stop  offset="1" style="stop-color:#3FB0F7"/>
		</linearGradient>
		<path class="st14" d="M170.1,130.9c-1.7-0.9-3.3,0-3.6,2c-0.2,2.1,0.7,4.2,2.5,5.3c1.7,0.9,3.3,0,3.6-2
			C172.8,134.1,171.9,132,170.1,130.9L170.1,130.9z M174.2,137.1c-0.4,3.1-2.9,4.4-5.4,3c-2.7-1.8-4.2-4.9-3.8-8.1
			c0.5-3.1,2.9-4.4,5.4-3C173.1,130.7,174.6,133.9,174.2,137.1z M178.1,137.4l1.7,0.9c0,0.6-0.1,1.1-0.1,1.7
			c-0.1,0.5-0.2,1.1-0.3,1.6l-1.7-0.9c-0.4,1.3-1.1,2.5-2.1,3.4l1,2.1c-0.7,0.6-1.5,1-2.3,1.3l-1-2.1c-1.2,0.3-2.6,0.3-3.8-0.2
			l-0.3,2c-0.5-0.2-1-0.4-1.4-0.6c-0.5-0.3-0.9-0.6-1.4-0.9l0.3-2c-1.3-1-2.4-2.3-3.2-3.7l-1.4,0.8c-0.6-1.1-1.2-2.2-1.6-3.4
			l1.4-0.8c-0.6-1.6-0.8-3.3-0.8-5l-1.7-0.9c0-0.6,0.1-1.1,0.1-1.7c0.1-0.5,0.2-1.1,0.3-1.6l1.7,0.9c0.4-1.3,1.1-2.5,2.1-3.4l-1-2.1
			c0.7-0.6,1.5-1,2.3-1.3l1,2.1c1.2-0.3,2.5-0.3,3.8,0.2l0.3-2c0.5,0.2,0.9,0.4,1.4,0.6c0.5,0.3,0.9,0.6,1.4,0.9l-0.3,2
			c1.3,1,2.4,2.3,3.3,3.7l1.4-0.8c0.6,1.1,1.2,2.2,1.6,3.4l-1.4,0.8C177.8,134.1,178.1,135.7,178.1,137.4L178.1,137.4z"/>
		<path class="st15" d="M267.6,77.5c2.6,1.4,4.8,3.5,6.3,6c0-0.5,0,1.2,0-1.4s-1.5-6.8,0.6-8.9c0.8-0.8,4.7-2.4,5.7-2.7
			c2.1-0.5,4.3-0.1,6.1,1c3.4,1.8,6.5,5.4,8.7,9.8c2.1,4.5,3.3,9.3,3.6,14.2c0,2.6,0,0.9,0,1.3c1.9-0.6,3.6-0.6,6.5,1
			c2.9,1.6,6.6,5.6,8.9,10c2.3,4.5,3.6,9.4,3.7,14.4c0.2,3.1-0.7,6.2-2.3,8.9c-1.5,2.1-4.3,3.4-6.4,4.1c-5.8,2.1-17-9.6-22.9-12.9
			l-18.7-10.4c-3.4-1.9-6.4-5.5-8.6-9.8c-2.2-4.4-3.4-9.2-3.4-14.1c0-2.8-2-6.9,0.6-8.9C260.1,76,264.4,75.8,267.6,77.5z"/>
		
			<linearGradient id="SVGID_7_" gradientUnits="userSpaceOnUse" x1="353.7462" y1="315.1925" x2="363.7762" y2="336.9725" gradientTransform="matrix(1 0 0 -1 -70.92 422.89)">
			<stop  offset="0" style="stop-color:#6D6AFE"/>
			<stop  offset="1" style="stop-color:#3FB0F7"/>
		</linearGradient>
		<path class="st16" d="M264.3,79c2.6,1.4,4.8,3.5,6.3,6c0-0.5,0,1.2,0-1.4s1.4-8.3,3.6-10.2c2.2-1.9,5.3-2.2,8.7-0.3
			s6.5,5.4,8.7,9.8c2.1,4.5,3.3,9.3,3.6,14.2c0,2.6,0,0.9,0,1.3c1.9-0.6,3.6-0.6,6.5,1c2.9,1.6,6.6,5.5,8.9,10
			c2.3,4.5,3.6,9.4,3.7,14.5c0,4.9-1.4,8.5-3.7,10.4c-2.3,1.9-5.4,2.1-8.9,0.2l-19-10.6l-18.8-10.5c-3.4-1.9-6.4-5.5-8.6-9.8
			c-2.2-4.4-3.4-9.2-3.4-14.1c0-4.7,1.4-8.2,3.6-10.1S261.5,77.4,264.3,79z"/>
		<polygon class="st0" points="270.9,102.3 265.1,99 274.2,114.8 283.5,109.4 277.6,106.1 277.6,91.2 270.9,87.4 		"/>
		<polygon class="st0" points="291.1,108.6 296.9,111.9 287.7,96.1 278.5,101.5 284.4,104.8 284.3,119.7 291.1,123.5 		"/>
		
			<linearGradient id="SVGID_8_" gradientUnits="userSpaceOnUse" x1="210.3849" y1="159.8085" x2="228.9549" y2="219.7585" gradientTransform="matrix(1 0 0 -1 -70.92 422.89)">
			<stop  offset="0" style="stop-color:#965CF2"/>
			<stop  offset="1" style="stop-color:#FF8ADC"/>
		</linearGradient>
		<path class="st17" d="M159.7,289.8l-40.3-23.4l10.7-71.4l45.7,26.5l0,0c0.3,0.2,0.4,0.6,0.3,1l-13.4,63.6
			c-0.2,0.9-0.4,1.7-0.8,2.5c-0.2,0.5-0.6,0.9-1.1,1.2C160.5,290,160.1,290,159.7,289.8z"/>
		
			<linearGradient id="SVGID_9_" gradientUnits="userSpaceOnUse" x1="215.9919" y1="178.128" x2="186.7819" y2="213.028" gradientTransform="matrix(1 0 0 -1 -70.92 422.89)">
			<stop  offset="0" style="stop-color:#FA5DB1"/>
			<stop  offset="1" style="stop-color:#FEBFBF"/>
		</linearGradient>
		<path class="st18" d="M156.5,278.6l-51.4-29.9l11.9-56.6l0,0l0,0l0,0l0,0l0,0l0,0l0,0l0,0l0,0l0,0l0,0l0,0l0,0l0,0l0,0l0,0l0,0
			l0,0l0,0l0,0l0,0l0,0l0,0l0,0l0,0l0,0l0,0l0,0l0,0l0,0l0,0l0,0l0,0l0,0l0,0l0,0l0,0l0,0l0,0l0,0l0,0l0,0l0,0l0,0l0,0l0,0l0,0l0,0
			l0,0l0,0l0,0l0,0l0,0l0,0l0,0l0,0l0,0l0,0l0,0l0,0l0,0l0,0l0,0l0,0l0,0l0,0l0,0l0,0l0,0h0.1l0,0l0,0l0,0l0,0
			c0.2-0.1,0.5-0.1,0.8,0l51.4,29.9C168.3,219.7,161.5,262,156.5,278.6z"/>
		<path class="st1" d="M117.1,192.1c21.6,24.7,47.3,40,44.8,61.5l-5.4,25l-51.4-29.9L117.1,192.1z"/>
		<polygon class="st19" points="155.8,215.4 154.7,272.9 100.8,241.8 100.9,184.8 		"/>
		<polygon class="st20" points="154.8,215.9 155.9,215.3 155.8,272.2 154.7,272.9 		"/>
		<polygon class="st21" points="100.9,184.8 102.1,184.2 155.9,215.3 154.8,215.9 		"/>
		<path class="st20" d="M152.8,260.6v3.6l-49.9-28.8v-3.6L152.8,260.6z M152.9,219.3v3.6L103,194.1v-3.6L152.9,219.3z M152.9,225.2
			L103,196.4v3.6l49.9,28.8L152.9,225.2L152.9,225.2z M152.9,231.1L103,202.3v3.6l49.9,28.8L152.9,231.1L152.9,231.1z M152.9,237
			L103,208.2v3.6l49.9,28.8V237z M152.9,242.9l-50-28.8v3.6l49.9,28.8L152.9,242.9L152.9,242.9z M152.9,248.8L103,220v3.6l49.9,28.8
			V248.8z M152.9,254.7l-50-28.8v3.6l49.9,28.9L152.9,254.7z"/>
		
			<linearGradient id="SVGID_10_" gradientUnits="userSpaceOnUse" x1="220.6118" y1="158.8224" x2="162.5518" y2="202.5124" gradientTransform="matrix(1 0 0 -1 -70.92 422.89)">
			<stop  offset="0" style="stop-color:#FA5DB1"/>
			<stop  offset="1" style="stop-color:#FEBFBF"/>
		</linearGradient>
		<path class="st22" d="M142.6,237.5l12.3,43.1l0,0c0.2,0.5,0.4,1,0.8,1.4l-51.4-29.9c-0.4-0.3-0.7-0.8-0.8-1.4l-12.2-43.1l0,0
			l-2.3-8.1c0-0.5,0.1-1,0.4-1.5c2.1,1.9,13.5,8.9,15.6,10.2c3.5,2.8,3.6,6.2,9,11.8c0.7,0.9,1.6,1.6,2.6,2.1L142.6,237.5z"/>
		<path class="st1" d="M143.3,235.8l0.3-0.2c0.4-0.2,0.8-0.1,0.9,0.3l12.1,42.8l11.9-56.6c0.1-0.5,0.4-1,0.9-1.3
			c0.1,0,0.2-0.1,0.3-0.1c0.5-0.1,0.8,0.3,0.6,0.9l-12,57c-0.1,0.8-0.4,1.5-0.7,2.2c-0.2,0.5-0.6,0.8-1,1.1c-0.3,0.2-0.7,0.2-0.9,0
			c-0.4-0.4-0.6-0.8-0.7-1.3l-12.3-43.1C142.5,236.8,142.8,236.2,143.3,235.8z"/>
		<path class="st1" d="M118.2,220.5l25.9,15.1c-0.7-0.3-1.7,1.2-1.5,1.9l-26.2-15.2c-0.8-0.4-1.5-0.9-2.2-1.4
			c-3.7-2.9-5.5-7-7.9-10.2c-0.6-0.8-1.3-1.5-2.1-2.1l-0.9-0.5l-14.4-8.5c0-0.5,0.1-1,0.4-1.4c0.3-0.3,0.7-0.6,1.1-0.5l14.5,8.5
			l0.9,0.5c0.8,0.6,1.5,1.3,2.1,2.1c2.6,3.5,4.4,7.3,8.6,10.6C117,219.8,117.6,220.2,118.2,220.5z"/>
		
			<linearGradient id="SVGID_11_" gradientUnits="userSpaceOnUse" x1="309.3405" y1="94.5997" x2="339.8705" y2="158.9998" gradientTransform="matrix(1 0 0 -1 -70.92 422.89)">
			<stop  offset="0" style="stop-color:#965CF2"/>
			<stop  offset="1" style="stop-color:#FF8ADC"/>
		</linearGradient>
		<path class="st23" d="M315.7,294.3l-121.3-67.5c-4.9-2.7-9.7-0.1-10.5,5.9l-10.6,73.1c-0.9,6,2.4,13,7.4,15.8L301.8,389
			c5,2.7,9.7,0.1,10.5-5.9l10.7-73.1C323.9,304.1,320.6,297,315.7,294.3z"/>
		<path class="st2" d="M196.6,223.2c-1.7-1.1-3.8-1.3-5.8-0.6l-4.3,1.7c-1.6,8.1,111.8,152.7,113.8,154.7l3.8-1.5
			c2.5-1,3.9-3.6,4.2-6.2l10.1-69.3l0,0c0.4-3.8-0.5-7.6-2.6-10.8c-1.1-1.7-2.6-3.2-4.3-4.2L196.6,223.2z"/>
		
			<linearGradient id="SVGID_12_" gradientUnits="userSpaceOnUse" x1="321.2868" y1="134.8665" x2="307.0268" y2="107.5065" gradientTransform="matrix(1 0 0 -1 -70.92 422.89)">
			<stop  offset="0" style="stop-color:#6D6AFE"/>
			<stop  offset="1" style="stop-color:#3FB0F7"/>
		</linearGradient>
		<path class="st24" d="M307.2,288.8l-114.9-63.9c-4.7-2.6-9.1-0.1-10,5.6l-10.1,69.3c-0.8,5.7,2.3,12.4,7,15l114.9,63.9
			c4.7,2.6,9.2,0.1,10-5.5l10.1-69.3C315.1,298.1,311.9,291.3,307.2,288.8z"/>
		<path class="st25" d="M306.5,300.3c-0.3-0.2-0.8-0.1-1,0.2c-0.1,0.1-0.1,0.2-0.1,0.4c-0.1,0.6,0.2,1.3,0.8,1.6
			c0.5,0.3,1,0,1.1-0.6C307.3,301.3,307,300.7,306.5,300.3z M180.3,306.3l5.8-39.4l-0.9-0.5l-5.8,39.4L180.3,306.3L180.3,306.3z
			 M186.1,263.5c-0.5-0.3-1,0-1.1,0.6c-0.1,0.6,0.2,1.3,0.8,1.6c0.3,0.2,0.8,0.1,1-0.2c0.1-0.1,0.1-0.3,0.1-0.4
			C186.9,264.5,186.6,263.8,186.1,263.5z M194.8,314.4l5.3-36.4l-0.9-0.5l-5.3,36.4L194.8,314.4L194.8,314.4z M200.2,274.6
			c-0.5-0.3-1,0-1.1,0.6c-0.1,0.7,0.2,1.3,0.8,1.6c0.3,0.2,0.8,0.1,1-0.2c0.1-0.1,0.1-0.3,0.1-0.4
			C201,275.6,200.7,274.9,200.2,274.6z M209.4,322.5l7.6-51.7l-0.9-0.5l-7.6,51.7L209.4,322.5L209.4,322.5z M217,267.3
			c-0.3-0.2-0.8-0.1-1,0.2c-0.1,0.1-0.1,0.2-0.1,0.4c-0.1,0.7,0.2,1.3,0.8,1.6c0.3,0.2,0.8,0.1,1-0.2c0.1-0.1,0.1-0.3,0.1-0.4
			C217.8,268.3,217.5,267.7,217,267.3z M224.1,330.6l9.6-67.1l-0.9-0.5l-9.6,67.1L224.1,330.6L224.1,330.6z M233.8,260.1
			c-0.5-0.3-1,0-1.1,0.6c-0.1,0.6,0.2,1.3,0.8,1.6c0.3,0.2,0.8,0.1,1-0.2c0.1-0.1,0.1-0.3,0.1-0.4
			C234.6,261.1,234.3,260.4,233.8,260.1z M238.6,338.7l10.1-70.2l-0.9-0.5l-10.1,70.2L238.6,338.7z M248.8,265.1
			c-0.3-0.2-0.8-0.1-1,0.2c-0.1,0.1-0.1,0.3-0.1,0.4c-0.1,0.7,0.2,1.3,0.8,1.6c0.5,0.3,1,0,1.1-0.6
			C249.6,266.1,249.3,265.4,248.8,265.1z M253.2,346.8l9.2-64.1l-0.9-0.5l-9.2,64.1L253.2,346.8L253.2,346.8z M262.4,279.3
			c-0.5-0.3-1,0-1.1,0.6c-0.1,0.6,0.2,1.3,0.8,1.6c0.3,0.2,0.8,0.1,1-0.2c0.1-0.1,0.1-0.2,0.1-0.4
			C263.3,280.3,263,279.7,262.4,279.3z M267.5,354.8l8-54.8l-0.9-0.5l-8,54.8L267.5,354.8z M275.6,296.6c-0.3-0.2-0.8-0.1-1,0.2
			c-0.1,0.1-0.1,0.3-0.1,0.4c-0.1,0.7,0.2,1.3,0.8,1.7c0.3,0.2,0.8,0.1,1-0.2c0.1-0.1,0.1-0.3,0.1-0.4
			C276.5,297.6,276.2,296.9,275.6,296.6L275.6,296.6z M282.1,362.9l7.6-51.9l-0.9-0.5l-7.6,51.9L282.1,362.9L282.1,362.9z
			 M289.7,307.6c-0.3-0.2-0.8-0.1-1,0.2c-0.1,0.1-0.1,0.3-0.1,0.4c-0.1,0.7,0.2,1.3,0.8,1.7c0.3,0.2,0.8,0.1,1-0.2
			c0.1-0.1,0.1-0.3,0.1-0.4C290.6,308.6,290.3,308,289.7,307.6z M296.7,371.1l9.8-67.3l-0.9-0.5l-9.8,67.3L296.7,371.1z"/>
		<path class="st25" d="M310.3,318.1c-0.1-0.3-0.3-0.5-0.6-0.6c-0.3-0.2-0.6-0.2-0.8,0c-2.2,1.7-4.2,3.1-6,4.4s-3.6,2.3-5.2,3.2
			c-7.5,4.1-12.9,4.4-18.2,1.4c-5.3-3-10.3-9.4-16.8-18.3c-7.3-10-13.8-16.7-20.4-20.4c-0.9-0.5-1.9-1-2.9-1.4
			c-7.5-3.1-15.2-2-24.4,3.1c-1,0.5-1.9,1.1-2.8,1.6c-7.1,4.1-13.7,7.9-20.8,4c-3.7-2.1-7.6-6.2-11.7-13.5c-0.1-0.3-0.3-0.5-0.6-0.6
			c-0.3-0.2-0.6-0.2-0.9,0c-0.4,0.5-0.5,1.2-0.1,1.8c4.6,8.2,8.9,12.8,13,15.1c7.7,4.3,14.7,0.2,22.3-4.2l2.8-1.6
			c8.8-4.9,16-6,23.1-3.1c0.9,0.4,1.8,0.8,2.6,1.3c6.2,3.4,12.4,9.9,19.5,19.5c6.8,9.2,12.1,15.8,17.7,19.1l0.3,0.2
			c5.6,3.1,11.5,2.9,19.5-1.5c1.6-0.9,3.4-2,5.3-3.3c1.9-1.3,3.9-2.8,6.1-4.5C310.7,319.4,310.7,318.6,310.3,318.1z"/>
		<path class="st26" d="M309.1,313.4c-0.1-0.3-0.3-0.5-0.6-0.6c-0.3-0.2-0.6-0.2-0.8,0c-2.2,1.7-4.2,3.2-6,4.5s-3.6,2.4-5.2,3.3
			c-7.5,4.2-12.9,4.6-18.2,1.7c-5.3-2.9-10.3-9.2-16.8-18c-7.4-9.9-13.8-16.6-20.4-20.1c-0.9-0.5-1.9-1-2.9-1.4
			c-7.5-3-15.2-1.8-24.4,3.5c-0.9,0.5-1.9,1.1-2.8,1.6c-7.1,4.2-13.7,8.1-20.8,4.3c-3.7-2-7.6-6.1-11.7-13.4
			c-0.1-0.3-0.3-0.5-0.6-0.6c-0.3-0.2-0.6-0.2-0.9,0c-0.4,0.5-0.5,1.2-0.1,1.8c4.6,8.1,8.9,12.7,13,14.9c7.7,4.1,14.8,0,22.3-4.5
			c0.9-0.5,1.9-1.1,2.8-1.6c8.7-5,16-6.2,23-3.4c0.9,0.4,1.8,0.8,2.6,1.2c6.2,3.3,12.4,9.7,19.5,19.3c6.8,9.1,12.1,15.7,17.7,18.9
			l0.3,0.2c5.6,3,11.5,2.7,19.5-1.8c1.6-0.9,3.4-2,5.3-3.4c1.9-1.3,3.9-2.8,6.1-4.5C309.4,314.7,309.5,313.9,309.1,313.4z"/>
		
			<linearGradient id="SVGID_13_" gradientUnits="userSpaceOnUse" x1="400.9309" y1="61.8586" x2="421.2709" y2="75.3987" gradientTransform="matrix(1 0 0 -1 -70.92 422.89)">
			<stop  offset="0" style="stop-color:#FA5DB1"/>
			<stop  offset="1" style="stop-color:#FEBFBF"/>
		</linearGradient>
		<path class="st27" d="M357.4,352.7l-7.8-4.7c-1.3-0.9-2.3-2.4-2.5-4l-1.7-10.3c-0.2-1.7-1.2-3.1-2.6-4.1c-1.1-0.7-2.4-0.6-2.9,0.7
			l-3.1,7.5c-0.5,1.2-1.7,1.5-2.9,0.7l-7.8-4.8c-2.8-1.7-4.3,1.9-2.2,5.3l5.8,9.3c0.9,1.3,1.2,3,0.8,4.5l-3.1,7.4
			c-0.9,2,0.6,5.1,2.4,6.2c0.5,0.3,1.1,0.5,1.7,0.3l6.7-1.7c0.6-0.1,1.2,0,1.8,0.4c0.7,0.4,1.2,1,1.6,1.7l5.8,9.3
			c0.4,0.7,1,1.2,1.6,1.7c1.8,1.1,3.6-0.1,3.1-2.9l-1.7-10.3c-0.3-1.7,0.3-3,1.4-3.3l6.7-1.7C361,359.4,360.2,354.4,357.4,352.7z"/>
		<path class="st1" d="M249.4,387.8l-43.8-25c-4.8-2.2-11.6-3.9-16.5-1.4c-4.4,2.3-11.7,7-15,8.9c-2.4,1.4-11,6.5-5.7,9.4
			c15.6,8.5,31,18,46.9,26.6c3,1.6,7.4,2.2,12,1.8c4.6-0.3,9-1.7,13-3.9l7.8-4.5c3.4-2,5.3-4.4,5.4-6.5S252.3,389.2,249.4,387.8z"/>
		<path class="st28" d="M195.2,351.3c-0.2,2.7-0.8,5.4-1.9,7.9c-0.5,0.6-1.2,0.9-1.5,1.6c-1.6,3.5-2,6.9-0.9,24.8l4.2,0.1l0.5-6.3
			c0.5-2.6,2-6.3,2.5-8.6c1.3-5.1,1.4-7.6,2.2-11.3L195.2,351.3z"/>
		<path class="st29" d="M186.4,372.9c-0.5,0-1-0.1-1.4-0.2c-0.2-0.2-0.6-1.4-0.3-1.6C185.2,370.6,186.3,372.5,186.4,372.9z"/>
		<path class="st30" d="M188.8,365.7c0.5,1.6-0.2,3.1-0.7,4.8c-1.8,5.8-2.8,6.1-2,8.8c0.5,1.7,1.4,3.3,2.6,4.6
			c1.1,1.3,1.5,2.2,3,3.2c2.2,1.5,4.2,2.2,3.7-0.8c-0.1-1-0.4-1.9-0.7-2.8c-1.6-3.6-3.4-5.2-2.4-9.8c0.7-3.4,1.9-5.6,0.4-7.8
			L188.8,365.7z"/>
		<path class="st31" d="M189.1,362.1c-0.7,3.3-2.2,6.4-4.4,8.9c0.4-0.1,1.3,0.8,1.7,1.8c3.6-4.2,5.4-6.2,6.5-4.4
			c-0.3,2.1-0.6,4.3-1.1,6.4c-0.3,1.1-0.2,2.2,0.1,3.3c1.4,3.4,4,8.4,3,10.1c0.6-1,0.8-2.1,0.7-3.3c0-2.4-0.4-5.6-0.5-7.5
			c-0.1-2.7,0.9-5,1.1-8.6c0-1,0-2,0-3c-0.1-2.6-0.4-6-2.2-6.9c-1.1-0.3-2.2-0.1-3.2,0.3C189.9,359.8,189.2,360.9,189.1,362.1z"/>
		
			<linearGradient id="SVGID_14_" gradientUnits="userSpaceOnUse" x1="292.1793" y1="139.4858" x2="262.5193" y2="85.0058" gradientTransform="matrix(1 0 0 -1 -70.92 422.89)">
			<stop  offset="0" style="stop-color:#3E4795"/>
			<stop  offset="1" style="stop-color:#273088"/>
		</linearGradient>
		<path class="st32" d="M213.9,316.5l12.8-37.2l0.4-10.2c0.1-1.6-0.8-2.9-1.3-4.1c-6.8,2-10.5,4.1-17.8,3.9
			c-2.2,3.2-5.2,9.3-5.3,13.9c-0.2,8.9,0.5,14.9-2.2,29.8c-8.1,27.3-3.9,26.3-7,44.5c-0.3,1.9,5.7,3.5,7.7,2.3L213.9,316.5z"/>
		<path class="st33" d="M213.9,316.5l12.8-37.2l0.4-10.2c0.1-1.6-0.8-2.9-1.3-4.1c-1.4,0.4-2.6,0.8-3.8,1.2l-7.5,12.1
			c-2.9,5.9-3.6,13.5-5.7,15.3c2.4,5.8,1.4,17.4,0.5,23.8c-2.4-0.8-4.7-1.2-7.1-2c1.6,1.4,4.7,2.7,6.4,4.5
			c-3.1,11-4.6,22.3-5.6,33.6L213.9,316.5z"/>
		<path class="st28" d="M218.9,366.2c-0.1,2.9-2.8,5.6-3.1,7.5c-0.7,4.3,2.4,2,5.8,7.5c1.4,0,4.5,5,8.6,5.3c0.9,0.1,2.7-2.3,0.8-3.9
			c-0.8-0.5-1.6-0.1-2.3-0.7c-1.4-1.3-3.1-11.8-2.8-14.8L218.9,366.2z"/>
		<path class="st31" d="M217.4,370.4c3.4,0.4,6.5,8.7,9.1,12.2c1.3,1.7,3.9,0,2.9-0.5c1.4-0.1,2.7-0.1,4.1,0
			c2.1,0.3,1.4,2.5-0.1,3.5c-3.2,2.2-6.1,3.5-9,2c-0.6-0.3-1.2-0.7-1.8-1.2c-0.4-0.3-0.8-0.6-1.2-1c-0.9-1.1-1.3-2.9-2.2-4.5
			c-0.3-0.5-0.5-0.6-0.7-0.5c-0.4,0.5,0,7.9,0.2,9.4c-0.1,0.4-1.5,0.8-1.8,0.4l-2.7-13.2c-0.3-1.1-0.2-2.3,0.4-3.4
			C215.5,372.3,217,371.1,217.4,370.4z"/>
		<path class="st30" d="M226.2,388.2c-0.6-0.1-1.2-0.3-1.7-0.6c-0.6-0.3-1.2-0.7-1.8-1.2c-0.4-0.3-0.8-0.6-1.2-1
			c-1-1.2-1.5-3.5-2.6-5c0.4-0.2,1.4-0.2,2.4,1.4c1.5,2.7,2.5,4.7,4.5,6.1C225.8,388.1,226,388.1,226.2,388.2z"/>
		
			<linearGradient id="SVGID_15_" gradientUnits="userSpaceOnUse" x1="304.0936" y1="131.8546" x2="282.2935" y2="77.3946" gradientTransform="matrix(1 0 0 -1 -70.92 422.89)">
			<stop  offset="0" style="stop-color:#3E4795"/>
			<stop  offset="1" style="stop-color:#273088"/>
		</linearGradient>
		<path class="st34" d="M236.3,308.6c1.6-7.5,2-15.2,1.2-22.8c-0.2-4.1,0.2-6.2-1.2-10.2c-0.5-1.4-1.2-2.8-2-4.1
			c-6.4,2-11.3,4-18.6,3.7c-2,3.7-2.9,7.9-2.5,12.2c1.2,8.9,4.2,16.2,5.2,31.5c-2.5,17.8-0.7,29.9-0.3,47.1c0,1.9,6.2,3.5,8.1,2.3
			C230.1,348,232.4,328.4,236.3,308.6z"/>
		
			<linearGradient id="SVGID_16_" gradientUnits="userSpaceOnUse" x1="265.999" y1="171.0916" x2="277.999" y2="178.8815" gradientTransform="matrix(1 0 0 -1 -70.92 422.89)">
			<stop  offset="0" style="stop-color:#965CF2"/>
			<stop  offset="1" style="stop-color:#FF8ADC"/>
		</linearGradient>
		<path class="st35" d="M202.4,246.9l12.9,3c2.6,1.1,0.6,6.6-1.9,7.3l-18-2.3c-4.6-1-5.6-4-4.6-6.3l0.1-0.1
			c0.3-1.4,9.5-14.6,10.8-16.4c1.2-1.8,2.8-3.3,4.6-4.5c1.6-0.9,3.5-0.8,5,0.1c1.7,0.9,2.5,3,1.8,4.8
			C211.5,235.4,206.5,241.6,202.4,246.9z"/>
		
			<linearGradient id="SVGID_17_" gradientUnits="userSpaceOnUse" x1="290.6404" y1="178.8136" x2="296.5004" y2="142.8136" gradientTransform="matrix(1 0 0 -1 -70.92 422.89)">
			<stop  offset="0" style="stop-color:#FF66BC"/>
			<stop  offset="0.56" style="stop-color:#FF8ADC"/>
			<stop  offset="1" style="stop-color:#FFBBA8"/>
		</linearGradient>
		<path class="st36" d="M209.5,225.8c-7.6-0.9-7.6,11.6-4.9,17.5c6.8,15.2,2.4,17.6,3,24.6l-0.1,2.8c6.5,9.7,25.3,8.9,27.6,1.9
			c-0.1-0.4-0.2-2.3-0.4-2.7c0.4-6.1-2.5-11-1.9-15.1c1-7,4.8-9.5,2.7-15.5c-1.5-2.1-5.6-5.4-9.8-7.7
			C219.7,228.2,213.1,226.2,209.5,225.8z"/>
		
			<linearGradient id="SVGID_18_" gradientUnits="userSpaceOnUse" x1="341.6711" y1="216.7007" x2="339.011" y2="220.6007" gradientTransform="matrix(1 0 0 -1 -70.92 422.89)">
			<stop  offset="0" style="stop-color:#FF8A78"/>
			<stop  offset="1" style="stop-color:#FFA799"/>
		</linearGradient>
		<path class="st37" d="M260.8,208.2c2.1-3,4.4-7.9,6.9-9.4c1.3-1.6,3.1-4,4.3-5.5c0.9-1.1,2.2,0.7,1.5,1.7
			c-0.7,1.1-2.6,3.8-2.6,3.8l-0.1,0.1c1.1,0.8,1.8,2,2.1,3.3c0.4,1.5-1.9,4.5-3.2,6.6c-1.2,1.9-3.6,1.9-4.3,3.3
			C263.2,212.1,261.9,210,260.8,208.2z"/>
		
			<linearGradient id="SVGID_19_" gradientUnits="userSpaceOnUse" x1="306.2889" y1="180.751" x2="333.1589" y2="209.611" gradientTransform="matrix(1 0 0 -1 -70.92 422.89)">
			<stop  offset="0" style="stop-color:#FF66BC"/>
			<stop  offset="0.56" style="stop-color:#FF8ADC"/>
			<stop  offset="1" style="stop-color:#FFBBA8"/>
		</linearGradient>
		<path class="st38" d="M229.1,234.9c1.7-1.3,5-1.5,7.4-2.5c4-1.6,8.7-4.1,12.7-5.2c0.5-2.1,6-11.5,9.3-16.4
			c0.4-0.5,1.1-0.9,1.4-1.3c0.3-0.4,0.7-0.9,0.9-1.2c1.4,0.1,3.8,1.8,5.2,3.3c-0.3,0.5-0.5,1.1-0.8,1.7c-0.2,0.6-0.1,1.7-0.2,2.1
			c-2,5.1-3.9,10.2-6.3,14.1c-0.4,1.2-1,2.4-1.6,3.5c-0.9,1.2-4.3,3.5-5.7,4.4c-3,1.8-9.9,6.5-15.3,8.7c-4,1.6-5.7,0.7-7.1-0.8
			C225.6,241.9,225.7,237.4,229.1,234.9z"/>
		<path class="st39" d="M209.5,225.8c-7.6-0.9-7.6,11.6-4.9,17.5c6.8,15.2,2.4,17.6,3,24.6l-0.1,2.8c6.5,9.7,25.3,8.9,27.6,1.9
			c-0.1-0.4-0.2-2-0.3-2.6c-6.9,6.5-16.8,4.8-22.6,1.3c-0.5-1.6-0.4-3.2,0.1-4.8c4.7-5.1,16.4-3.3,19.2-17.2c0.8-4-1.9-7.6-4.4-10.8
			c-1.3-1.5-2.2-2.3-3.8-4.7c-2.7,0.6-7.8-0.3-8.4-1.4c-0.2-0.4,0.9-3.8,0.7-4.2C210.7,226.2,212.2,226.1,209.5,225.8z"/>
		
			<linearGradient id="SVGID_20_" gradientUnits="userSpaceOnUse" x1="290.9193" y1="200.6398" x2="293.2693" y2="193.6798" gradientTransform="matrix(1 0 0 -1 -70.92 422.89)">
			<stop  offset="0" style="stop-color:#FF8A78"/>
			<stop  offset="1" style="stop-color:#FFA799"/>
		</linearGradient>
		<path class="st40" d="M211.9,229.2c-0.6,2.5,8.5,5.2,11.6,3.8l0.1-0.6c0.8-3.7,1.6-6.8,2.1-9.4c1.4,0.6,5,0.8,5.3,0.3
			c-9.6-7.6-20.7-13.3-22.1-9.4c0.9,2.8,3.4,4.8,4.6,6.6c0.4,0.8,0.6,1.6,0.6,2.5l0,0C213.6,225.1,212.9,227.2,211.9,229.2z"/>
		<path class="st28" d="M230.9,223.3c-0.8,0.5-6.7-1.4-7.1-1.4c-4.5,0.2-9.4-0.1-10.3-1.5c-1.2-1.8-3.7-3.8-4.6-6.6
			c-1.5-4.5-1.2-9.5,2.9-13c7.1-6.1,18.2-1.6,19.8,5.3c0.6,2.8-0.2,3.1,0,5c0.2,3.5,0.6,2.2,0.3,7.7
			C231.7,220.9,231.5,223,230.9,223.3z"/>
		<path class="st1" d="M213.2,225.9c0.3,2.3,6.6,3.9,10.4,2.9c0.4-0.1,0.7-0.2,0.8-0.4c1.1,1,1.9,2.3,2.3,3.6
			c-3.3,3.2-13.9,1.3-15.1-2.4C211,228.2,211.7,226.5,213.2,225.9C213.1,225.9,213.2,225.9,213.2,225.9z"/>
		
			<linearGradient id="SVGID_21_" gradientUnits="userSpaceOnUse" x1="291.3391" y1="218.3603" x2="276.4991" y2="172.4403" gradientTransform="matrix(1 0 0 -1 -70.92 422.89)">
			<stop  offset="0" style="stop-color:#5A2D68"/>
			<stop  offset="1" style="stop-color:#22043D"/>
		</linearGradient>
		<path class="st41" d="M195.7,218.4c-6.1,5.1-9.5,14.2-6.7,19.4c2.5,4.7,8.6,7.4,6.7,10.4c-1.6,2.5-5.2,4.9-0.9,8.9
			c2.2,2,7.7,7.5,18.8,4.7c10.9-2.8,22.2-12.1,13.1-22.4c-9.6-10.8-4-13.2,1.5-21.7c2.9-4.5,5.5-13.4,3-16.6
			c-4.3-5.7-7.1-1.6-11.3-3.6c-7.9-3.8-14.3-1.1-18,4.9C198.7,207.7,200.5,214.4,195.7,218.4z"/>
		
			<linearGradient id="SVGID_22_" gradientUnits="userSpaceOnUse" x1="177.9238" y1="110.6782" x2="174.3538" y2="103.3582" gradientTransform="matrix(1 0 0 -1 -70.92 422.89)">
			<stop  offset="0" style="stop-color:#3964AF"/>
			<stop  offset="1" style="stop-color:#00BCCE"/>
		</linearGradient>
		<path class="st42" d="M122.9,326.4c0.2-2.8-0.6-5.6-2.2-8c-2.9-4.3-7.6-7.5-12.3-9.6c-9.6-4.5-22.2-7.3-24.8,5.7
			c0.1-0.2,0.2-0.4,0.3-0.5c1.4-2.1,3.7-3.6,6.2-4c1.3-0.3,2.7-0.4,4.1-0.4h0.4c4.2,0.2,8.2,1.2,12,3c4.6,2.1,9.3,5.5,12.1,9.8
			c0.4,0.6,0.8,1.3,1.2,2c0.9,1.7,1.4,3.6,1.3,5.6l0,0L122.9,326.4z"/>
		<path class="st43" d="M90.7,331.9l-0.4-0.3c-0.6-0.4-1.3-0.9-1.9-1.3l-0.4-0.4c-0.7-0.6-1.4-1.1-2.1-1.7l-0.6-0.5l-0.7-0.6
			l-0.6-0.6c-0.2-0.2-0.4-0.4-0.6-0.7l-0.5-0.5c-0.3-0.4-0.7-0.8-1-1.2l-0.4-0.5c-0.4-0.5-0.8-1.1-1.2-1.7
			c-3.7-5.5-4.4-10.6-2.5-14.5l-1.7,3.5c-1.9,3.9-1.2,9,2.5,14.5c0.4,0.6,0.8,1.1,1.2,1.7c0.1,0.2,0.3,0.3,0.4,0.5
			c0.3,0.4,0.7,0.8,1,1.2l0.3,0.3l0.2,0.2l0.6,0.7l0.6,0.6l0.7,0.6l0.4,0.4l0.2,0.1c0.7,0.6,1.4,1.2,2.1,1.7l0.2,0.1l0.3,0.2
			c0.6,0.5,1.2,0.9,1.8,1.3l0.2,0.2l0.2,0.1l0,0L90.7,331.9z"/>
		
			<linearGradient id="SVGID_23_" gradientUnits="userSpaceOnUse" x1="177.8629" y1="111.0288" x2="170.6829" y2="94.1888" gradientTransform="matrix(1 0 0 -1 -70.92 422.89)">
			<stop  offset="0" style="stop-color:#1C8EF4"/>
			<stop  offset="1" style="stop-color:#00CFDD"/>
		</linearGradient>
		<path class="st44" d="M127.4,318.3c-7.3-10.9-23.9-18.9-36.9-18s-17.6,10.6-10.3,21.5c2.8,4,6.4,7.4,10.5,10.1l4-3.3
			c-3-1.9-5.6-4.3-7.6-7.2c-5.2-7.7-1.9-14.5,7.3-15.1s20.9,5,26.1,12.7c1.6,2.2,2.5,4.8,2.5,7.6l8,2.5
			C131.1,325.7,129.9,322.1,127.4,318.3z"/>
		<path class="st45" d="M127,318.3c2,2.8,3,6.1,2.9,9.5c-0.9-0.2-4.2-0.8-7-1.4l8,2.5c0.2-3.2-0.9-6.8-3.5-10.5
			c-6.5-9.6-20.1-17-32.2-17.9C107.2,301.5,120.6,308.8,127,318.3z"/>
		<path class="st46" d="M94.4,306.1c1.1-0.1,2.2-0.1,3.3,0c-1.2-0.1-2.5,0-3.6,0c-9.7,0-16.3,11.4-0.8,22.6c0,0-2.6,3.1-2.5,3.1
			l4-3.3c-3-1.9-5.6-4.3-7.6-7.2C81.9,313.6,85.2,306.8,94.4,306.1z"/>
		<path class="st47" d="M122.9,326.4l-1.7,3.5c-0.1,0.9-0.3,1.8-0.7,2.7l1.7-3.5C122.6,328.2,122.9,327.3,122.9,326.4z"/>
		<path class="st47" d="M128.4,335c-2.3,2.7-5.9,4-9.3,4.5l-0.6,0.1c-5.9,0.8-12.3-0.5-17.7-2.5c-3.6-1.3-7-3.1-10.2-5.2l-1.7,3.5
			c3.2,2.1,6.5,3.9,10.1,5.2l0.2,0.1c5.4,2,11.7,3.2,17.5,2.5c3.6-0.5,7.4-1.8,9.9-4.6c0.5-0.6,1-1.2,1.3-1.9l0.1-0.2l1.7-3.5
			C129.4,333.6,129,334.3,128.4,335z"/>
		
			<linearGradient id="SVGID_24_" gradientUnits="userSpaceOnUse" x1="186.2928" y1="85.6152" x2="175.7928" y2="101.3952" gradientTransform="matrix(1 0 0 -1 -70.92 422.89)">
			<stop  offset="0" style="stop-color:#6D6AFE"/>
			<stop  offset="1" style="stop-color:#3FB0F7"/>
		</linearGradient>
		<path class="st48" d="M130.9,328.9l-8-2.5c-0.3,4.1-3.8,7.1-9.7,7.6s-12.9-1.8-18.5-5.5l-4,3.3c8,5.3,17.9,8.5,26.4,7.9
			S130.5,334.8,130.9,328.9z"/>
		<path class="st49" d="M130.9,328.9c0,0-0.4,9.4-14,10.5c-12.6,1-26.2-7.5-26.2-7.5c8,5.3,17.9,8.5,26.4,7.9
			S130.5,334.8,130.9,328.9z"/>
		<path class="st1" d="M371.3,115.3l-0.6,0.1c-8.9,1.7-18.6,9.4-22,17.8l2.5,3.6c0.8-1.9,1.9-3.7,3.1-5.4l0.7-0.9
			c4.4-5.2,10.3-9,16.9-10.8l0.4-0.1c4.5-1.1,10.5-1.2,13.4,2.9l-2.5-3.6C380.8,115.4,375.4,114.7,371.3,115.3z"/>
		<path class="st1" d="M390.7,114.6l0.2,0.4l0.2,0.3c0.1,0.1,0.1,0.3,0.2,0.4s0.1,0.2,0.2,0.4c0.1,0.1,0.1,0.3,0.2,0.4
			c0,0.1,0.1,0.3,0.1,0.4l0.1,0.4c0,0.1,0.1,0.3,0.1,0.4c0,0.1,0.1,0.3,0.1,0.5c0,0.2,0,0.3,0.1,0.4s0,0.3,0.1,0.5s0,0.3,0,0.4v0.6
			c0,0.1,0,0.3,0,0.4s0,0.5,0,0.7s0,0.2,0,0.3c0,0.4,0,0.8-0.1,1.2c0,0.1,0,0.2,0,0.3c0,0.3-0.1,0.6-0.2,0.9l-0.1,0.4
			c0,0.2-0.1,0.4-0.1,0.6c-0.1,0.2-0.1,0.3-0.1,0.5c-0.1,0.2-0.1,0.4-0.2,0.6c-0.1,0.2-0.1,0.4-0.2,0.5L391,127l-0.2,0.5
			c-0.1,0.2-0.2,0.4-0.3,0.6c-0.1,0.2-0.2,0.5-0.3,0.7c-0.1,0.3-0.4,0.8-0.6,1.2c-0.2,0.4-0.4,0.8-0.7,1.2l2.5,3.6
			c0.5-0.8,0.9-1.6,1.2-2.4c0.1-0.1,0.1-0.3,0.2-0.4c0.1-0.1,0.1-0.2,0.1-0.4l0.3-0.6l0.2-0.5l0.2-0.6c0.1-0.2,0.1-0.4,0.2-0.5
			c0.1-0.2,0.1-0.4,0.2-0.6c0-0.2,0.1-0.3,0.1-0.5c0-0.2,0.1-0.4,0.1-0.5l0.1-0.2v-0.2c0.1-0.3,0.1-0.6,0.2-0.9c0-0.1,0-0.2,0-0.3
			c0-0.4,0.1-0.8,0.1-1.2V125c0-0.1,0-0.2,0-0.3c0-0.2,0-0.5,0-0.7s0-0.3,0-0.4V123c0-0.1,0-0.1,0-0.2v-0.2c0-0.2,0-0.3-0.1-0.5
			s0-0.3-0.1-0.4s-0.1-0.3-0.1-0.5c0-0.2,0-0.1,0-0.2l-0.1-0.2c0-0.1-0.1-0.3-0.1-0.4l-0.1-0.4c0-0.1-0.1-0.3-0.2-0.4l-0.1-0.2
			c0-0.1,0-0.1-0.1-0.1s-0.1-0.3-0.2-0.4l-0.2-0.3c-0.1-0.1-0.2-0.3-0.2-0.4l-0.1-0.2l-0.1-0.2l-2.5-3.6
			C390.5,114.3,390.6,114.4,390.7,114.6z"/>
		
			<linearGradient id="SVGID_25_" gradientUnits="userSpaceOnUse" x1="432.3434" y1="306.3072" x2="441.7134" y2="288.8172" gradientTransform="matrix(1 0 0 -1 -70.92 422.89)">
			<stop  offset="0" style="stop-color:#FA5DB1"/>
			<stop  offset="1" style="stop-color:#FEBFBF"/>
		</linearGradient>
		<path class="st50" d="M376.3,109.1c-13.3,1.1-28.5,11.8-34.1,23.8c-0.4,0.9-0.7,1.7-1,2.6l7.7-2.2c0.1-0.3,0.3-0.6,0.4-0.9
			c4-8.5,14.8-16,24.1-16.8s13.8,5.4,9.8,13.9c-0.2,0.3-0.3,0.7-0.5,1l6.3,0.8c0.5-0.8,0.9-1.6,1.2-2.4
			C395.8,116.8,389.6,108,376.3,109.1z"/>
		<path class="st51" d="M382.8,118.5c-3.2-4.7-12.1-4.1-18.3-1.1c-7.6,3.6-13.5,9.6-16.3,15.3c0,0-6.9,2.3-7.1,2.8l7.7-2.2
			c0.1-0.3,0.3-0.6,0.4-0.9c4-8.5,14.8-16,24.1-16.8C377.7,115.1,381,116.3,382.8,118.5z"/>
		<path class="st1" d="M388.6,130.5c0,0-5.7-0.4-5.9-0.1l6.3,0.8c0.5-0.8,0.9-1.6,1.2-2.4c2.9-6.3,2.6-11.7-0.2-15.3
			C394.4,120.6,389,129.7,388.6,130.5z"/>
		<path class="st1" d="M351.3,136.8l-2.5-3.6c-2.7,6.3-1.5,8.9,2.8,13c-0.2-0.3-0.4-0.6-0.5-0.9c0,0,0-0.1,0-0.1
			C349.8,142.6,350.3,139.5,351.3,136.8z"/>
		<path class="st1" d="M391.5,134.8l-2.5-3.6c-5.8,10-36.3,28.1-47,16.4l2.5,3.6c2.5,3.6,7.4,5.6,14,5c0.8-0.1,1.5-0.2,2.3-0.3
			c0.3,0,0.5-0.1,0.8-0.2c0.6-0.1,1.2-0.2,1.7-0.4c2.2-0.5,4.3-1.2,6.4-2.1l0.3-0.1c7.9-3.4,14.7-8.8,19.7-15.7
			c0.1-0.2,0.3-0.4,0.5-0.6C390.7,136.1,391.1,135.5,391.5,134.8z"/>
		
			<linearGradient id="SVGID_26_" gradientUnits="userSpaceOnUse" x1="430.4796" y1="269.9301" x2="436.7996" y2="292.6001" gradientTransform="matrix(1 0 0 -1 -70.92 422.89)">
			<stop  offset="0" style="stop-color:#965CF2"/>
			<stop  offset="1" style="stop-color:#FF8ADC"/>
		</linearGradient>
		<path class="st52" d="M382.7,130.4c-4.3,8.1-14.6,15-23.6,15.8c-9,0.8-13.4-5-10.2-13l-7.7,2.2c-3.6,10.7,2.6,18.2,14.9,17.1
			c12.3-1,26.5-10.4,32.9-21.4L382.7,130.4z"/>
		<path class="st1" d="M356.2,152.1c-19.9,1.4-15.1-16.6-15.1-16.6c-3.6,10.7,2.6,18.2,14.9,17.1c12.3-1,26.5-10.4,32.9-21.4
			C389,131.2,376.3,150.5,356.2,152.1z"/>
	</g>
</g>
</svg>
