<?xml version="1.0" encoding="utf-8"?>
<!-- Generator: Adobe Illustrator 24.2.3, SVG Export Plug-In . SVG Version: 6.00 Build 0)  -->
<svg version="1.1" id="Layer_1" xmlns="http://www.w3.org/2000/svg" xmlns:xlink="http://www.w3.org/1999/xlink" x="0px" y="0px"
	 viewBox="0 0 500 500" style="enable-background:new 0 0 500 500;" xml:space="preserve">
<style type="text/css">
	.st0{fill:#E2E9FB;}
	.st1{fill:#B8C9F5;}
	.st2{fill:#81A0EA;}
	.st3{fill:#343C6B;}
	.st4{fill:#445393;}
	.st5{fill:#819BEA;}
	.st6{fill:#3754E0;}
	.st7{fill:#FCBAC0;}
	.st8{fill:#5278FF;}
	.st9{fill:#F8AFAC;}
	.st10{fill:#FEC7C4;}
	.st11{fill:#535873;}
	.st12{fill:#FBB2B8;}
	.st13{fill:#FF4A59;}
</style>
<g>
	<g id="Layer_6">
		<path class="st0" d="M203.2,360.6l0.1-0.1c-0.5-2,0.8-4.4,4-6.2l19.4-11.2c3.3-1.9,5.4-5.4,5.4-9.3v-9.3l36.1-21v6.5
			c0,2.9,2.4,5.3,5.3,5.3c0.9,0,1.9-0.2,2.7-0.7l8.6-4.9c5-2.9,12.4-3.4,16.6-1.2l22.6,11.9c1.9,1,2.8,2.4,2.7,3.9c0,0,0,5.4,0,5.4
			c0,1.8-1.5,3.8-4.2,5.3l-77.3,44.6c-4.9,2.9-12.4,3.4-16.6,1.2l-22.6-11.8C202.5,366.6,203.2,363.7,203.2,360.6z"/>
		<polygon class="st1" points="232.2,319.9 232.2,288.7 268.3,271.1 268.3,303.5 232.2,324.4 		"/>
		<path class="st2" d="M232.2,320.1v-31.2l6-2.9v44.2c0,3.8-2,7.4-5.4,9.3l-4.2,2.4c2.3-2,3.5-4.9,3.5-7.9L232.2,320.1L232.2,320.1z
			"/>
		<path class="st1" d="M203.4,360.3c-0.2-0.7-0.1-1.5,0.2-2.2c0.5,1.2,1.4,2.1,2.5,2.8l22.7,11.9c4.2,2.2,11.6,1.7,16.6-1.2
			l77.3-44.6c2.1-1.2,3.5-2.7,4-4.1c0.1,0.4,0.2,0.8,0.2,1.2c0,0,0,5.4,0,5.4c0,1.8-1.5,3.8-4.2,5.3l-77.3,44.6
			c-4.9,2.9-12.4,3.4-16.6,1.2l-22.6-11.9c-3.6-2.2-2.8-5.1-2.8-8.3L203.4,360.3z"/>
		<path class="st3" d="M361.8,89.6l-6,134.2c0,9.1-4.8,17.6-12.7,22.2L153.8,362.4c-8.6,5-25.3-0.4-25.3-14.1V212
			c0-9.2,4.9-17.6,12.8-22.2l195.3-113C347.8,71.2,361.8,79.7,361.8,89.6z"/>
		<path class="st4" d="M361.9,210.9v15.9c0,9.1-4.8,17.6-12.7,22.2L153.8,362.4c-6.1,3.6-14,1.5-17.5-4.7c-1.1-2-1.7-4.2-1.7-6.4
			V343L361.9,210.9z"/>
		<path class="st0" d="M134.5,214.9c0-9.2,4.9-17.6,12.8-22.2l195.3-113c6.1-3.6,14-1.5,17.5,4.7c1.1,2,1.7,4.2,1.7,6.4v120.1
			L134.5,343V214.9z"/>
		<polygon class="st5" points="347.7,92.1 347.7,205.7 148.7,321.3 148.7,207.2 		"/>
		<polygon class="st0" points="163.6,255.8 163.6,302.2 197.8,282.3 197.8,236 		"/>
		<polygon class="st0" points="302,134.1 255.3,161.1 255.3,207.5 302,180.3 		"/>
		<polygon class="st6" points="248.2,164 163.6,212.9 163.6,216.1 248.2,167.1 		"/>
		<polygon class="st0" points="248.2,175.3 163.6,224.1 163.6,227.3 248.2,178.4 		"/>
		<polygon class="st4" points="248.2,186.6 163.6,235.4 163.6,238.6 248.2,189.6 		"/>
		<polygon class="st0" points="334.9,115.8 334.9,118.9 309.6,133.5 309.6,130.4 		"/>
		<polygon class="st6" points="334.9,139 334.9,142.1 309.6,156.7 309.6,153.5 		"/>
		<ellipse class="st0" cx="334.3" cy="366.9" rx="37.2" ry="18.5"/>
		<path class="st7" d="M274.2,181.3c0.2-0.4,0.4-0.7,0.4-0.7c-0.4-1.1-3.5-4-3.1-4.6c1.5-1.9,7.8,5.3,7.8,5.3s-0.7-1.9-0.9-2.6
			c-0.3-0.6-0.2-1.3,0.3-1.8c0.8-0.5,1.6,0.4,1.8,0.9l2.3,4.2c0.3,0.6,0.5,1.2,0.7,1.8l0.2,1.3c0.3,1.4,1.5,3.9,1.8,4.9l-1.5,5.7
			c-1.5-2.2-3.1-4.2-4.9-6.1c-1-0.8-2-1.6-2.9-2.6c0,0-2.1-2.2-2.3-3.4C273.7,182.9,273.8,182,274.2,181.3z"/>
		<path class="st4" d="M335.6,353.8c0,0,0,2.4,2.9,4.5c0.4,0.3,1,0.7,1.6,1.1c1.9,1.3,3.7,2.7,5.3,4.3c0.8,0.8,1.8,1.3,2.9,1.3
			c1.8,0.1,3.4-0.5,3.1-3.2c0-0.2,0-0.5-0.1-0.8c0-0.1,0-0.3-0.1-0.4c0-0.1-0.2-5.2-0.2-5.3c-0.2,0.9-1.5-2.6-2.2-2.7
			c-1.2-0.1-1,2.7-1.8,2c-1.4-1.4-2.9-0.7-6.8-2.7l-0.7-0.1c-3-0.4-3.5,0.7-3.8,1.6C335.7,353.5,335.6,353.7,335.6,353.8z"/>
		<path class="st4" d="M312.8,366.1c0,0,2.7-0.3,3.7-0.3c2.2-0.1,6.9-1.4,8.4-0.4c1.7,1.2,5.4,2.1,5.5-1l2.1,0.7
			c0,0.7,0.2,4.5,0.2,4.8c0.1,1.2-0.2,2.3-0.8,3.3c-1.4,2.2-5.8,0.9-8.3,0.4l-7.5-1c-2.3-0.4-4.2-2-5-4.1
			C310.9,367.3,311.7,366.3,312.8,366.1z"/>
		<path class="st3" d="M352.6,258.4l0.9,3.3c0.2,0.8,0.4,1.6,0.4,2.5c0.4,3.9,0.4,7.8,0.1,11.7l-0.6,8.5l-1.9,70.1
			c0.2,2.8-9.2,3.1-9.2-0.3l-1.9-72.7l-2.6,1l-5.1,82.1c0,2.9-9.4,3.2-9.5-0.3c0,0-2.8-83.4-3.1-96.5c-0.2-9.2,16.5-6.7,16.5-7.2
			l-8.7-6.8L352.6,258.4z"/>
		<path class="st6" d="M329.1,244.4c0,0,30.8,5.5,35.1-1.3c1.9-3-9.5-33.9-9.5-33.9l-2.7-3.4l-7.7,2.2c-1,0.3-2.5-1.3-2.5-1.3
			c1.3,4.1,7.9,24.3,9.5,29c0.2,0.7-22.5,2.3-22.5,2.3C330.5,238.6,330.8,243.7,329.1,244.4z"/>
		<path class="st8" d="M352.7,244.9l0.9,15.7c-0.4,8-32.4,9.4-35,4.1c-0.5-1,0-13.2,0.4-21.2c0.2-4.7-0.2-9.3-1.3-13.9
			c0-0.2-0.1-0.4-0.2-0.7c-0.7-3-2.7-5.5-5.4-6.9c-3.9-2-12.2-5.5-14.8-6.7c-1.6-0.7-3-1.9-4.1-3.3l-13-17.1
			c-1.4-1.7,4.8-7.1,6.5-5.8L302,205l8.8,2.9c1.9,0.7,4,0.8,6,0.4c2.6-0.4,5.3-0.5,8-0.3c1.3-0.4,2.6-0.9,3.8-1.6c1-0.6,1.8-1,1.8-1
			l0.2-0.1l5.4-2.9l0.4-0.2c0.7,0.1,1.4,0.3,2,0.7c0.7,0.4,1.4,0.7,2.2,0.9c1.2-0.4,2.4-0.7,3.6-0.8c0.5,0,0.9,0,1.4,0
			c5.1,0.3,10.2,3.7,10,10.6l-2.6,27.4C352.7,242.3,352.6,243.6,352.7,244.9z"/>
		<path class="st7" d="M342.7,206.9c0,2.5-4.1,4.6-9.2,4.6c-4.3,0-7.9-1.5-8.9-3.4c1.3-0.4,2.6-0.9,3.8-1.6c1-0.6,1.8-1,1.8-1
			l0.2-0.1l5.4-2.9c0.8,0.1,1.6,0.3,2.4,0.5c0.8,0.2,1.5,0.5,2.2,0.9C341.9,204.6,342.7,205.7,342.7,206.9z"/>
		<path class="st7" d="M323.2,195.6c1.5,7.6,6.6,8.3,11.3,6c5.3-2.5,8.5-8.8,8.8-13.3c0.5-6.9-3.9-11.4-9.6-11.8
			C320.7,175.6,322.7,193,323.2,195.6z"/>
		<path class="st7" d="M340.1,192l-0.5,15.1c0,0.7-0.7,1.4-1.9,1.7c-2.1,0.7-5,0.4-6.5-0.7c-0.5-0.3-0.8-0.8-0.9-1.4l0.5-15.1
			L340.1,192z"/>
		<path class="st3" d="M334.1,186.2c-1.5,2.1-3.9,3.2-6.5,3.2c-0.8,0-1.5-1.9-2.4-3c-0.6-0.7-1.6-0.7-2-1c-1.7-1.5-2-7,1.8-9.1
			c3-1.7,6.6-2.3,10-1.7c0.4,0.1-2,1.2-1.7,1.5C336.4,178.3,336.7,182.8,334.1,186.2z"/>
		<path class="st3" d="M335.7,197.5l-1.1-4.5c-0.6-2.4-2.4-4.4-4.8-5.2l-4.5-1.5c0.3,3.8,1.9,6.9,5.4,10.6c1.4,1.6,3.2,2.7,5.2,3.3
			v-0.7C335.9,198.8,335.8,198.1,335.7,197.5z"/>
		<path class="st3" d="M335.1,174.5c-5.5-0.5-10,4-10,10.6c0,0.4,0,0.8,0.1,1.2l4.5,1.5c2.4,0.8,4.2,2.7,4.8,5.2l1.1,4.5
			c0.2,0.7,0.2,1.3,0.2,2v0.7c3.4,0.7,7.2-1.7,8.5-6.4C345,191.3,351.1,176,335.1,174.5z"/>
		<path class="st7" d="M327,194c-1.3,1.6-1.5,3.5-0.4,4.3s2.8,0.2,4.1-1.3c1.3-1.6,1.5-3.5,0.4-4.3C330,191.9,328.2,192.5,327,194z"
			/>
		<ellipse class="st0" cx="240.3" cy="406.5" rx="37.2" ry="18.5"/>
		<path class="st9" d="M233.9,324.3l2.1,34.4c0.1,1.9,0.4,3.8,0.9,5.6l8.2,31.3c-1-0.7-2.1-1.1-3.3-1.3c-0.4,0-0.7,0-1,0h-0.6
			c-1,0-1.8,0.6-2.1,1.6c0,0.1-0.1,0.3-0.1,0.4c0,0.1,0,2.3,2.8,4.4c0.4,0.3,0.9,0.7,1.5,1c1.6,1,3.1,2.2,4.5,3.5
			c0.7,0.8,1.7,1.2,2.8,1.3c1.6,0.1,3-1.2,3-2.8c0-0.1,0-0.3,0-0.4c0-0.2,0-0.5-0.1-0.8c0-0.1,0-0.3-0.1-0.4c-0.1-0.1,0-0.3,0-0.4
			c-0.1-0.7-0.2-1.5-0.4-2.3c-0.3-1.7-0.5-3.4-0.5-5.1c-0.4-7.4-1.6-26.1-4.7-36.5l4.4-37.4L233.9,324.3z"/>
		<path class="st10" d="M222.2,408l5.6-0.5c1.5,0,2.9-0.7,3.9-1.8c0.4-0.5,0.6-1.2,0.5-1.9c-3.1-13.4-18.4-84.4-10.8-100.6
			c8.5-18,27.1-3.7,27.1-3.7s5.6,13.2,2.8,20.9c-2.5,6.9-13.2,9.8-13.2,9.8l-1.9,31.2c1.8,11.2,3.5,45.5,4.1,48.8
			c0.3,1.5,0,3.1-0.7,4.5c-1.4,2.1-4.5,1.3-7,0.9l-7.2-1.4c-2.2-0.4-4.1-1.9-4.9-4C220.4,409.2,221.1,408.2,222.2,408z"/>
		<path class="st11" d="M238.1,395.9c0,0.1-0.1,0.3-0.1,0.4c0.1,1.1,0.6,2.2,1.3,3c-0.1-1.4-0.2-3-0.3-4.6
			C238.6,394.9,238.3,395.4,238.1,395.9z"/>
		<path class="st3" d="M238,396.3c0,0,0,2.3,2.8,4.4c0.4,0.3,0.9,0.7,1.5,1c1.6,1,3.1,2.2,4.5,3.5c0.7,0.8,1.7,1.2,2.8,1.3
			c1.7,0.1,3.3-0.5,3-3.1c0-0.2,0-0.5-0.1-0.8c0-0.1,0-0.3-0.1-0.4s0-0.3,0-0.4c-0.2,0.9-1.2,1.1-1.9,1.1c-1.1,0-2.1-0.4-2.9-1
			c-1.4-1.3-11.3-7-5.2-7.3l-0.7-0.1c-2.9-0.3-3.4,0.6-3.7,1.5C238.1,396,238,396.1,238,396.3z"/>
		<path class="st1" d="M251.3,320.6c1.1-3.1,0.9-7,0.2-10.6c-0.7-3.5-1.7-7-3-10.4c0,0-17.8-14-27.1,3.7c-1,2.1-1.6,4.3-1.9,6.6
			c-4,26.1,12.3,93.7,12.3,93.7c0.4,0.5,1,0.9,1.6,1c0.1,0.1,0.3,0.1,0.5,0.1c2.1,0.4,5.1,0,6.2-1.4c0,0-2.7-35.1-3.8-41.8l0-0.9
			c0.2,1.2,0.4,2.4,0.8,3.6l7.4,29.2c0.6,0.5,1.3,0.9,2.2,1.1l0.5,0.1c1.7,0.3,3.8,0.2,4.8-1.1c0,0,0.3-25.7-4.9-35.6L251.3,320.6z"
			/>
		<polygon class="st5" points="236.8,349.1 238.2,323.8 243.9,321.3 		"/>
		<path class="st3" d="M222.2,408l3.6-0.3c-1.4,0.4-1.9,1.7-0.5,2.7c1.6,1.1,14.9,3,14.9-0.1c0.1,0.6,0.1,1.1,0.1,1.3
			c0.1,1.1-0.2,2.2-0.8,3.2c-1.4,2.2-4.5,1.3-7,0.9l-7.2-1.4c-2.2-0.4-4.1-1.9-4.9-4C220.4,409.2,221.1,408.2,222.2,408z"/>
		<path class="st3" d="M226,289.7c0,0,28.2,5.7,32.3-0.4c1.8-2.7-8.3-32.8-8.3-32.8l-2-1.8l-7.2,1.9c-0.9,0.2-2.3-1.2-2.3-1.2
			c1.1,3.8,6.7,22.5,8.1,26.9c0.2,0.7-20.7,1.6-20.7,1.6C227.4,284.3,227.5,289.1,226,289.7z"/>
		<path class="st12" d="M238,255.6c-1.5,1.7-3.5,2.7-5.8,2.9c-1,0-1.9-0.1-2.9-0.4c-1.7-0.5-4.6-1.4-6.1-1.9c0.5-0.3,1-0.6,1.5-0.9
			l1.8-1l6.4-3.7l4,1.4c1.2,0.4,1.8,1.6,1.5,2.8C238.4,255.1,238.2,255.4,238,255.6z"/>
		<path class="st10" d="M220.3,243.7c1.9,7.8,7.1,8.3,11.9,5.8c5.4-2.8,8.5-9.4,8.7-14.1c0.2-7.2-4.4-11.7-10.4-11.9
			C217,223.1,219.6,241,220.3,243.7z"/>
		<path class="st12" d="M237.7,239.4V255c0,0.7-0.7,1.4-1.9,1.9c-2.1,0.8-5.1,0.6-6.7-0.4c-0.5-0.3-0.9-0.8-1-1.4v-15.6L237.7,239.4
			z"/>
		<path class="st12" d="M195,284.2l-3,4.9c-1.8-1.2-2.8-2-2.8-2c-1.5-0.3-2.9-0.8-4.3-1.5c-2-1-2.7-3.5-1.7-5.4
			c0.2-0.3,0.3-0.6,0.6-0.8l0.3-0.3c0,0-2.1-1.9-2.6-2.3c-0.5-0.4-0.8-1-0.6-1.4c0.4-0.8,1.3-0.4,1.9,0c1.3,0.9,5.2,3.5,5.2,3.5
			c0.5,0.4,1,0.8,1.3,1.3l0.7,1c0.8,1.1,1.9,1.9,3.2,2.4C193.2,283.4,193.8,283.7,195,284.2z"/>
		<path class="st3" d="M249.3,280.9l1-8.3l1.4-11.3c0.1-8-5.4-11.2-10.9-10.4c-1.1,0.1-2.1,0.4-3.1,0.8c-0.4,0.2-3.7-1.6-4.1-1.4
			l-0.5,0.3l-5.1,3l-1.4,0.8l-1.8,1c-0.5,0.3-1,0.6-1.5,0.9l-0.3,0.2c-2.2,1.2-4.2,2.8-6,4.6c-1.6,1.7-2.6,3.9-2.8,6.2
			c0,0-2.4,19.9-2.8,22.2c-0.1,0.9-18.9-6.3-18.9-6.3c-1.2,0.4-2.7,3.3-2.4,4.6c0,0,21.1,15.4,28,10.3c0.6-0.4,1.3-2,2-4.1
			c0.3,6.1-1.1,11-0.9,12.1c0,0.1,0,0.1,0.1,0.1c7.4,5.5,29.2,4.1,31.7-2c0.3-0.8-1.5-6.6-2-9C247.9,290.4,248.8,285.7,249.3,280.9z
			"/>
		<path class="st13" d="M220.1,226c3.5-4.8,17.1-7.8,26.5-0.6c0.4,0.4,0.9,0.8,1.4,1.1c2.6,1.5,4.6,3.7,5.8,6.5
			c1.1,2.5,1.6,5.2,1.3,7.8c-0.1,1.2,0.3,2.4,1.1,3.2c0.7,0.8,1.3,1.7,1.7,2.6c1.9,4.2,1.1,8.9-1.6,11.2c-0.7,0.6-1.6,1.1-2.5,1.3
			c0.5,3.2-0.5,6.4-2.5,8.1c-0.3,0.3-0.7,0.6-1.1,0.8c-3,1.6-6.6,0.4-9-2.8l-0.3,0.2c-4.9,2.7-11.2-0.3-14.1-6.7
			c-1.8-3.8-1.9-8.2-0.2-12.1c0.3-0.5,0.6-1.1,0.9-1.6c-1.7-1.7-3-3.7-3.9-5.8c-0.4-0.9-1-1.7-1.9-2.2c-0.2-0.1-0.3-0.2-0.5-0.3
			C218,234.6,217.4,229.6,220.1,226z"/>
		<path class="st10" d="M224.1,241.9c-1.2,1.6-1.4,3.6-0.3,4.5c1.1,0.8,3,0.1,4.2-1.5c1.2-1.7,1.4-3.7,0.3-4.5
			C227.2,239.6,225.3,240.2,224.1,241.9z"/>
	</g>
</g>
</svg>
