<?xml version="1.0" encoding="utf-8"?>
<!-- Generator: Adobe Illustrator 24.2.3, SVG Export Plug-In . SVG Version: 6.00 Build 0)  -->
<svg version="1.1" id="Layer_1" xmlns="http://www.w3.org/2000/svg" xmlns:xlink="http://www.w3.org/1999/xlink" x="0px" y="0px"
	 viewBox="0 0 500 500" style="enable-background:new 0 0 500 500;" xml:space="preserve">
<style type="text/css">
	.st0{fill-rule:evenodd;clip-rule:evenodd;fill:url(#SVGID_1_);}
	.st1{fill-rule:evenodd;clip-rule:evenodd;fill:#22043D;}
	.st2{fill-rule:evenodd;clip-rule:evenodd;fill:url(#SVGID_2_);}
	.st3{fill-rule:evenodd;clip-rule:evenodd;fill:#FFA698;}
	.st4{fill-rule:evenodd;clip-rule:evenodd;fill:url(#SVGID_3_);}
	.st5{opacity:0.35;fill-rule:evenodd;clip-rule:evenodd;fill:#59CAAF;enable-background:new    ;}
	.st6{fill-rule:evenodd;clip-rule:evenodd;fill:#161F69;}
	.st7{fill-rule:evenodd;clip-rule:evenodd;fill:url(#SVGID_4_);}
	.st8{opacity:0.3;fill-rule:evenodd;clip-rule:evenodd;fill:#1E2353;enable-background:new    ;}
	.st9{fill-rule:evenodd;clip-rule:evenodd;fill:url(#SVGID_5_);}
	.st10{fill-rule:evenodd;clip-rule:evenodd;fill:url(#SVGID_6_);}
	.st11{fill-rule:evenodd;clip-rule:evenodd;fill:url(#SVGID_7_);}
	.st12{fill-rule:evenodd;clip-rule:evenodd;fill:url(#SVGID_8_);}
	.st13{fill-rule:evenodd;clip-rule:evenodd;fill:url(#SVGID_9_);}
	.st14{fill-rule:evenodd;clip-rule:evenodd;fill:url(#SVGID_10_);}
	.st15{fill-rule:evenodd;clip-rule:evenodd;fill:#FF8F7F;}
	.st16{fill-rule:evenodd;clip-rule:evenodd;fill:#273087;}
	.st17{fill-rule:evenodd;clip-rule:evenodd;fill:url(#SVGID_11_);}
	.st18{opacity:0.5;fill-rule:evenodd;clip-rule:evenodd;fill:url(#SVGID_12_);enable-background:new    ;}
	.st19{fill-rule:evenodd;clip-rule:evenodd;fill:#D0E7FF;}
	.st20{fill-rule:evenodd;clip-rule:evenodd;fill:url(#SVGID_13_);}
	.st21{fill-rule:evenodd;clip-rule:evenodd;fill:url(#SVGID_14_);}
	.st22{opacity:0.5;fill-rule:evenodd;clip-rule:evenodd;fill:url(#SVGID_15_);enable-background:new    ;}
	.st23{fill-rule:evenodd;clip-rule:evenodd;fill:#FFFFFF;}
	.st24{fill-rule:evenodd;clip-rule:evenodd;fill:url(#SVGID_16_);}
	.st25{opacity:0.5;fill-rule:evenodd;clip-rule:evenodd;fill:url(#SVGID_17_);enable-background:new    ;}
	.st26{fill-rule:evenodd;clip-rule:evenodd;fill:url(#SVGID_18_);}
	.st27{opacity:0.5;fill-rule:evenodd;clip-rule:evenodd;fill:url(#SVGID_19_);enable-background:new    ;}
	.st28{fill-rule:evenodd;clip-rule:evenodd;fill:url(#SVGID_20_);}
	.st29{opacity:0.5;fill-rule:evenodd;clip-rule:evenodd;fill:url(#SVGID_21_);enable-background:new    ;}
	.st30{fill-rule:evenodd;clip-rule:evenodd;fill:url(#SVGID_22_);}
	.st31{opacity:0.5;fill-rule:evenodd;clip-rule:evenodd;fill:url(#SVGID_23_);enable-background:new    ;}
	.st32{fill-rule:evenodd;clip-rule:evenodd;fill:url(#SVGID_24_);}
	.st33{opacity:0.5;fill-rule:evenodd;clip-rule:evenodd;fill:#F2F4FF;enable-background:new    ;}
	.st34{opacity:0.5;fill-rule:evenodd;clip-rule:evenodd;fill:url(#SVGID_25_);enable-background:new    ;}
	.st35{fill-rule:evenodd;clip-rule:evenodd;fill:url(#SVGID_26_);}
	.st36{opacity:0.5;fill-rule:evenodd;clip-rule:evenodd;fill:#6D6AFD;enable-background:new    ;}
	.st37{opacity:0.5;fill-rule:evenodd;clip-rule:evenodd;fill:#44A7F7;enable-background:new    ;}
	.st38{opacity:0.35;fill-rule:evenodd;clip-rule:evenodd;fill:#0960AC;enable-background:new    ;}
	.st39{fill-rule:evenodd;clip-rule:evenodd;fill:#FF9483;}
	.st40{fill-rule:evenodd;clip-rule:evenodd;fill:url(#SVGID_27_);}
	.st41{fill-rule:evenodd;clip-rule:evenodd;fill:url(#SVGID_28_);}
	.st42{fill-rule:evenodd;clip-rule:evenodd;fill:#FFA495;}
	.st43{fill-rule:evenodd;clip-rule:evenodd;fill:url(#SVGID_29_);}
	.st44{fill-rule:evenodd;clip-rule:evenodd;fill:#4C57B7;}
	.st45{opacity:0.3;fill-rule:evenodd;clip-rule:evenodd;fill:#060921;enable-background:new    ;}
	.st46{fill-rule:evenodd;clip-rule:evenodd;fill:url(#SVGID_30_);}
	.st47{fill-rule:evenodd;clip-rule:evenodd;fill:url(#SVGID_31_);}
	.st48{fill-rule:evenodd;clip-rule:evenodd;fill:#E7A376;}
	.st49{fill-rule:evenodd;clip-rule:evenodd;fill:url(#SVGID_32_);}
	.st50{fill-rule:evenodd;clip-rule:evenodd;fill:url(#SVGID_33_);}
	.st51{fill-rule:evenodd;clip-rule:evenodd;fill:#FFB49C;}
	.st52{fill-rule:evenodd;clip-rule:evenodd;fill:#562E65;}
	.st53{fill-rule:evenodd;clip-rule:evenodd;fill:url(#SVGID_34_);}
	.st54{fill-rule:evenodd;clip-rule:evenodd;fill:#0AB7E4;}
	.st55{fill-rule:evenodd;clip-rule:evenodd;fill:url(#SVGID_35_);}
</style>
<g>
	<g id="Layer_3">
		
			<linearGradient id="SVGID_1_" gradientUnits="userSpaceOnUse" x1="177.8767" y1="250.4977" x2="187.6267" y2="231.7577" gradientTransform="matrix(1 0 0 -1 -78.85 454.23)">
			<stop  offset="0" style="stop-color:#5A2D68"/>
			<stop  offset="1" style="stop-color:#22043D"/>
		</linearGradient>
		<path class="st0" d="M122.2,188.8c3-0.5,5.4,1.6,6.6,4.4c1.2,3.1,1.5,6.4,0.7,9.6c-2,7.1,1.5,10.3,2.8,13.6
			c0.6,1.8,0.8,3.6,0.7,5.5c-0.1,2.6-1.6,3.9-2.8,6.2c-0.2,2.2-0.9,4.3-1.8,6.3c-3.4,6.8-14.8,10.1-25.7,9.6
			c-8.8-0.4-17.2-3.5-21.1-7.1c-4.2-3.9-4.8-13.8,2.3-14.9c1.9-0.1,3.7-0.9,5-2.3c1-1.2,0-4.3-0.2-8.4s0.7-8.2,6.5-9.6
			c2.2-0.5,4.4-0.8,6.2-2c4-2.6,2.6-7.6,6.9-10.5c2.6-1.8,6.9-2.1,11.6-0.8L122.2,188.8z"/>
		<path class="st1" d="M124.8,192.6c0.2,1.9-0.4,3.8-1.6,5.3c-2.7,3.8-4.1,3.5-5.6,8.3c-2.4-1.6-4.1-1.9-4.8-0.3
			c-1.1,2.6-0.4,4.1-0.7,6.7c-0.4,4.3-5.6-1.6-9.6,1.7s-1.2,5.5-2.8,10.1c-0.6,1.7-1,4-2.6,4.7c-5,2.4-6.9,8.3,2,11.2
			c5.5,1.8,13.5,1.4,20.1-0.9c8.8-3,14.2-16,12-22.1c-0.9-2.6-3.4-4.4-3.4-6.4C127.8,204,129.1,199.6,124.8,192.6z"/>
		
			<linearGradient id="SVGID_2_" gradientUnits="userSpaceOnUse" x1="241.2118" y1="225.8555" x2="240.7518" y2="227.5355" gradientTransform="matrix(1 0 0 -1 -78.85 454.23)">
			<stop  offset="0" style="stop-color:#FF8A78"/>
			<stop  offset="1" style="stop-color:#FFA799"/>
		</linearGradient>
		<path class="st2" d="M166.8,226.2c0.8,1.2-0.7,2-1.4,2c-1.1,0.1-2.6-0.4-3,0.3s-5.5-0.9-5.4-0.9c1.3-1,2.7-1.6,4.3-1.8
			C164.6,226,163.6,226.7,166.8,226.2z"/>
		<path class="st3" d="M157.7,232.3c-4.6,1.3-11,5.9-15.4,6.9c-1.4,0.3-3.6,0.9-4.7-0.3c-5.7-6.1,2.2-4.1,2.9-6.4
			c4-3,10.4-1.6,15.5-4.4c0.3-0.2,0.7-0.4,1-0.6c2-1,3.2-0.9,6.7,0.8c0.8,0.4,1.6,0.5,2.5,0.4l3.5-0.5c1.1,0,1.8,0.2,2,0.6
			c0.1,1.2-0.2,2.4-0.8,3.5l0,0c-0.1,0.4-0.9,0.7-2.2,0.7l-5.2,1.6l-0.2-0.1C160.1,232.8,158.8,232.2,157.7,232.3z"/>
		
			<linearGradient id="SVGID_3_" gradientUnits="userSpaceOnUse" x1="226.7812" y1="217.2076" x2="210.3712" y2="236.8476" gradientTransform="matrix(1 0 0 -1 -78.85 454.23)">
			<stop  offset="0" style="stop-color:#965CF2"/>
			<stop  offset="1" style="stop-color:#FF8ADC"/>
		</linearGradient>
		<path class="st4" d="M135.6,239.4c-4.2-3.9-10.1-9.6-12.2-14.1c-1.4-2.9-1.6-11.1,2.8-12.1c1.5-0.9,3.8,5.1,5.3,7.6
			c2.4,3.9,5.1,7.6,8,11.2c3.4-2.2,8.2-2.4,12.6-3.6c0.7-0.2,1.4-0.2,2-0.1c0.5-0.1,1.1-0.3,1.6-0.5c0.5,0.1,2.2,3,1.9,4.7
			c-0.4,0.1-1.1,0.3-1.5,0.5c-0.5,0.2-0.8,0.7-1.4,1c-1.8,1-9.8,4.9-13.7,5.8c-1.5,0.4-4,1.1-5.1-0.1L135.6,239.4z"/>
		<path class="st5" d="M135.6,239.4c-4.2-3.9-10.1-9.6-12.2-14.1c-1.2-2.5-1.6-9,1.3-11.3c1.5-0.2,2.3-0.2,3,0.4
			c0.9,0.7,1.2,2.5,2.5,5.2c1.9,4,4.8,6.4,5,11.1c0.2,3.5,1.8,7.6,4.4,9.5c-1.3,0.3-2.8,0.4-3.6-0.5L135.6,239.4z"/>
		<path class="st5" d="M142.7,362.9l-35.9-20.4c-3.9-1.8-9.5-3.2-13.5-1.1c-3.6,1.9-9.6,5.8-12.3,7.3c-2,1.1-9,5.3-4.6,7.7
			c12.8,7,25.4,14.8,38.4,21.8c2.4,1.3,6,1.8,9.8,1.5c3.7-0.3,7.4-1.4,10.6-3.2l6.4-3.7c2.8-1.6,4.3-3.6,4.5-5.4
			C146.2,365.6,145.1,364,142.7,362.9z"/>
		<path class="st3" d="M104.3,333.6c0.1,0.8-0.1,1.5-0.4,2.2c-2.1,3,0.4,2.8,0.3,7.1c0,0.4,1.8,7.2,1.8,7.2s4.2,1,4.5,1s2.8-1,2.8-1
			c-0.2-0.4-0.5-1.3-0.7-1.6c-1.2-2.5-1.9-5.2-2.3-8c-0.3-1.9-0.9-4.8-0.5-6.8L104.3,333.6z"/>
		<path class="st6" d="M113.3,350c0.5,0.9,0.8,1.8,1.2,2.8c0.2,0.4,0.1,0.8-0.1,1.1c-0.9,1.4-6-0.9-7.7-2.3c-1.1-0.9-1.2-2-1.5-3.4
			c-0.4-2-0.5-2.3-1.1-4.4l-0.4,5.8l-0.5,0.3c-0.2-2.5-0.5-5-1-7.4c-0.2-0.8-0.4-1.7-0.5-2.1c-0.3-1.9,0.5-3.7,2.1-4.7
			c-0.4,1.6,1,4.1,1.7,7.4C106.4,346.9,109.8,350,113.3,350z"/>
		
			<linearGradient id="SVGID_4_" gradientUnits="userSpaceOnUse" x1="205.3991" y1="184.6255" x2="180.9691" y2="136.9755" gradientTransform="matrix(1 0 0 -1 -78.85 454.23)">
			<stop  offset="0" style="stop-color:#3E4795"/>
			<stop  offset="1" style="stop-color:#273088"/>
		</linearGradient>
		<path class="st7" d="M131.6,254.1c-0.4,1.8,1.4,7.9,1,10.3c-0.4,7.7-1.8,14.3-7,29.8c0,0.2-4.8,9.6-5.1,10.6
			c-3.4,10.1-7.4,21.1-10.8,31.3c-1.3,1-5.1,0.7-5.6-1.7c1.1-10.2-0.1-20.3,1.7-27.2c1.3-5.3,3.1-7.7,5.9-11.7
			c0.9-10,1.5-30.1,3.8-37.8L131.6,254.1z"/>
		<path class="st8" d="M131.6,254.1c-0.4,1.8-1.6,5.1-2,7.4c-1.5,3.6-4.5,8.5-6.6,12.5c-0.6,5-0.4,11.6-3.6,20.8l-2.8,21.3
			c-2.3,6.7-4.7,13.5-6.9,19.9c-1.3,1-5.1,0.7-5.6-1.7c1.1-10.2-0.1-20.3,1.7-27.2c1.3-5.3,3.1-7.7,5.9-11.7
			c0.9-10,1.5-30.1,3.8-37.8L131.6,254.1z"/>
		<path class="st3" d="M108.3,344c-0.1,1-0.2,1.9-0.4,2.8c-0.2,1.7-0.3,3.3-0.3,5c0.1,3,0.4,6,1.1,9c0.3,1.3,0.8,1.8,1.2,3.5
			l7.4,1.2c-0.7-2.8-1.7-8.5-2.5-13.2l-1.4-8.9L108.3,344z"/>
		<path class="st6" d="M108,346.3c-0.6,1.4-0.9,2.8-1,4.3c-0.1,2,0.9,5.2,0.8,7.7l-0.1,4c-0.1,2.3,0.5,3.9,3.1,5.8
			c2.4,1.7,4.7,2.5,6,1.8c0.9-0.5,1.7-2.1,0.3-6.4c-1.2-3.6-1.5-7.1-2.2-11c0.1,3,0.5,5.9,1.3,8.8c0.3,1,0.4,2.8-0.8,3
			c-5.2,0.7-5.4-0.6-5.8-2.2C108.3,357.9,107.4,350.3,108,346.3z"/>
		
			<linearGradient id="SVGID_5_" gradientUnits="userSpaceOnUse" x1="210.6742" y1="175.1424" x2="173.1742" y2="133.0024" gradientTransform="matrix(1 0 0 -1 -78.85 454.23)">
			<stop  offset="0" style="stop-color:#3E4795"/>
			<stop  offset="1" style="stop-color:#273088"/>
		</linearGradient>
		<path class="st9" d="M106.1,260.3c-5.7,7.2-5.9,11.2-4.6,19.8c0.8,5.8,2.5,12.8,3,22.9c-0.5,5.2-1.4,11.1-0.7,19.2
			c0.5,6,2.2,16.3,3.5,23.5c1.2,2.2,6.8,1.3,7.8,0.1c-0.3-10.4-0.1-17.5,0.4-25.9c0.5-8.2,1.4-15.8,2.1-23.8
			c0.5-6.7,2.5-15.7,2.8-22.9c1.1-3.4,11.2-14.6,9.1-14.5L106.1,260.3z"/>
		
			<linearGradient id="SVGID_6_" gradientUnits="userSpaceOnUse" x1="200.4059" y1="199.8826" x2="195.0759" y2="231.4426" gradientTransform="matrix(1 0 0 -1 -78.85 454.23)">
			<stop  offset="0" style="stop-color:#965CF2"/>
			<stop  offset="1" style="stop-color:#FF8ADC"/>
		</linearGradient>
		<path class="st10" d="M106.8,244.1c2.6,6-1.8,9.3-0.2,13.4l-0.5,2.8c4.7,3.4,21.5,3.6,25.7-3.1l0.1-3.3c0.7-1.6,0.2-5.6,0-6.7
			c-0.7-3.4-0.4-5.2-0.7-9.1c-0.1-1-0.3-1.6-0.4-2.6c3.8-2.8,3.5-8.2,1.3-11.5c-1.1-1.6-2.1-3.3-2.9-5.1c-0.2-1-0.4-2-0.6-2.9
			c-0.2-0.6-0.4-1.1-0.8-1.6c-1.1-1.5-2.8-1.7-6.3-0.9c-7,1.6-14.2,5.2-17.4,8.7c-2.3,2.5-2.3,5.3-0.9,11.2
			C104,237,105.2,240.6,106.8,244.1z"/>
		<path class="st5" d="M106.7,244.1c2.6,6-1.7,9.4-0.1,13.5l-0.5,2.7c4.7,3.7,21.5,3.5,25.8-3.2l-0.1-2.9c0-0.1-8.3,7.3-17.7,3.2
			c-2-0.9-3.9-5.4-1.3-13.9c0.3-0.8,3.3-0.9,7.5-4c-3.1,1.3-9,3.1-9.3-4.8c-0.1-3.6-0.7-6.3-2.5-8.7c-0.9-1.2-6.1,5.1-5.3,8.1
			C104.2,237.4,105.3,240.8,106.7,244.1z"/>
		
			<linearGradient id="SVGID_7_" gradientUnits="userSpaceOnUse" x1="186.0198" y1="189.0751" x2="187.1898" y2="191.1851" gradientTransform="matrix(1 0 0 -1 -78.85 454.23)">
			<stop  offset="0" style="stop-color:#FF8A78"/>
			<stop  offset="1" style="stop-color:#FFA799"/>
		</linearGradient>
		<path class="st11" d="M104.5,257.3c0.9,0.5,2.4,1,3,1.4c0.3,0.2,2.7,1.6,4,2.5s1.8,2.3,2.6,3.8c0.5,0.9,0.8,1.8,0.9,2.7
			c0.1,0.6-1.5,1.9-2.2,1.7c-1.6-0.4-3.2-2.3-3.6-2.5c-3.5-1.8-5.2-2-6.4-3.4c-0.5-0.6-0.9-2.4-2-4l2.1-1.9L104.5,257.3z"/>
		
			<linearGradient id="SVGID_8_" gradientUnits="userSpaceOnUse" x1="174.9073" y1="203.778" x2="181.2273" y2="230.428" gradientTransform="matrix(1 0 0 -1 -78.85 454.23)">
			<stop  offset="0" style="stop-color:#965CF2"/>
			<stop  offset="1" style="stop-color:#FF8ADC"/>
		</linearGradient>
		<path class="st12" d="M104.1,221.6c-5.2,3.3-10.9,12.3-16.1,20.3c-0.8,1.2-0.9,2.7-0.2,4c0.3,0.6,0.6,1.3,1,1.8
			c2.7,4.2,6.1,8,10,11.2c0.5,0.3,1,0.5,1.5,0.6c0.3,0.3,0.8,0.8,1.1,1c-0.4-0.6,2.2-3.4,3.3-3.2c-0.3-0.4-0.6-0.8-0.9-1.2
			c0-0.4-0.1-0.9-0.2-1.3c-1.6-3.9-3.8-7.5-6.6-10.7c4.7-5.1,7.4-6.3,11.7-11.6C114.2,226.1,107.5,219.4,104.1,221.6z"/>
		<path class="st3" d="M114.9,208.4c0.5,3,0.3,6.1-0.7,9c2.5,2.3,7,1.4,8-0.8c-0.2-1.4-0.5-2.6-0.6-4L114.9,208.4z"/>
		
			<linearGradient id="SVGID_9_" gradientUnits="userSpaceOnUse" x1="197.1325" y1="241.5745" x2="196.6225" y2="239.0145" gradientTransform="matrix(1 0 0 -1 -78.85 454.23)">
			<stop  offset="0" style="stop-color:#FF8A78"/>
			<stop  offset="1" style="stop-color:#FFA799"/>
		</linearGradient>
		<path class="st13" d="M114.9,208.4c0.3,1.4,0.3,2.9,0.2,4.4c0.7,3,6.3,5,6.9,2.6c-0.2-0.9-0.3-1.8-0.4-2.8L114.9,208.4z"/>
		<path class="st3" d="M125.3,195.3c1.4,2,1.9,4.4,1.6,6.9c-0.1,0.6,0,1.1,0.2,1.6c1.2,2.7,1.1,3.5,0.5,5.6
			c-0.6,2.1-0.5,3.1-1.2,3.9c-0.7,0.7-1.7,1-2.7,1c-1.9,0.1-5.1-1.1-7-2.1c-1.4-0.8-1.3-1.3-1.9-2.6c-2-1.7-0.7-3,0-3.1
			c1.9-0.4,2.2,1.8,3.3,2.3C117.9,204.9,125.2,198.4,125.3,195.3z"/>
		
			<linearGradient id="SVGID_10_" gradientUnits="userSpaceOnUse" x1="206.2608" y1="251.5421" x2="202.3108" y2="245.1521" gradientTransform="matrix(1 0 0 -1 -78.85 454.23)">
			<stop  offset="0" style="stop-color:#FFB89E"/>
			<stop  offset="1" style="stop-color:#FFA799"/>
		</linearGradient>
		<path class="st14" d="M126.2,196.9c0.8,1.7,1,3.5,0.8,5.3c-0.1,0.6,0,1.1,0.2,1.6c1.2,2.7,1.1,3.5,0.5,5.6
			c-0.3,0.9-0.4,1.6-0.5,2.2c-0.5,0.7-1.4,1-2.2,0.6c-1-0.6-1.7-1.6-1.8-2.8c-0.1-1.1-2.4-1.8-2.9-3c-0.4-0.9,0.7-2,1.3-2.5
			C123.8,202.1,125.3,199.6,126.2,196.9z"/>
		<path class="st15" d="M125.3,195.3c-1.1,4.7-7.2,8.3-7.3,13.4C119.7,203.4,125.7,199.8,125.3,195.3z"/>
		<path class="st5" d="M297.4,394.5l-111.1-61.9c-3.5-1.6-8.6-3.1-12-1l-8.8,5.3c-1.8,1.1-7.5,4.6-3.7,6.7
			c11.4,6.2,101.3,57,112.9,63.3c2.7,1.2,5.8,1.7,8.8,1.3c3.3-0.2,6.6-1.2,9.5-2.8l3.5-2.1c2.5-1.5,3.8-3.2,4-4.8
			S299.6,395.5,297.4,394.5z"/>
		<path class="st16" d="M219.8,56.1c-2-1.2-4.5-1.5-6.7-0.8l-7,2.7c1.2-0.5,123.5,71.6,122.6,77.9l-42.8,266l7-2.7
			c2.9-1.2,4.5-4.2,4.9-7.2l37.9-258.7l0,0c0.5-4.4-0.6-8.9-3.1-12.5c-1.3-2-3-3.7-5.1-4.9L219.8,56.1z"/>
		
			<linearGradient id="SVGID_11_" gradientUnits="userSpaceOnUse" x1="303.8932" y1="140.4017" x2="364.2032" y2="382.0817" gradientTransform="matrix(1 0 0 -1 -78.85 454.23)">
			<stop  offset="0" style="stop-color:#965CF2"/>
			<stop  offset="1" style="stop-color:#FF8ADC"/>
		</linearGradient>
		<path class="st17" d="M320.5,118.5L212.8,58.8c-5.5-3-10.7-0.1-11.6,6.5L163.3,324c-1,6.6,2.7,14.4,8.1,17.4l107.8,59.7
			c5.5,3,10.7,0.1,11.6-6.5l37.9-258.8C329.6,129.3,326,121.5,320.5,118.5z"/>
		
			<linearGradient id="SVGID_12_" gradientUnits="userSpaceOnUse" x1="290.3356" y1="177.5388" x2="311.5456" y2="90.4988" gradientTransform="matrix(1 0 0 -1 -78.85 454.23)">
			<stop  offset="0" style="stop-color:#FD90DA"/>
			<stop  offset="1" style="stop-color:#8E6DFD"/>
		</linearGradient>
		<path class="st18" d="M279.9,324.6L179.6,269c-1.9-1.2-4.2-1.4-6.2-0.7c-2.3,0.9-4.1,3.3-4.6,6.7l-6.6,46.9
			c-0.9,6.1,2.5,13.4,7.6,16.2L270,393.7c5.1,2.8,9.9,0.1,10.8-6l6.7-46.9C288.4,334.7,285,327.4,279.9,324.6z"/>
		<path class="st16" d="M278.7,335.4l-8.2,51.9l0.9,0.1l2.5-1c2.7-1.1,4.2-3.9,4.6-6.7l6.6-46.8l0,0c0.5-4.1-0.6-8.2-2.9-11.6
			c-1.2-1.9-2.8-3.4-4.7-4.5L177.3,261c-1.9-1.2-4.2-1.4-6.2-0.7l-2.2,0.9c-1.1,0.4-1.4,0.8-1.4,0.8
			C168.5,271.7,280.1,325.4,278.7,335.4z"/>
		<path class="st19" d="M275.1,317.6L174.8,262c-1.9-1.2-4.2-1.4-6.2-0.7c-2.3,0.9-4.1,3.3-4.6,6.7l-6.6,46.9
			c-0.9,6.1,2.5,13.4,7.6,16.2l100.3,55.6c5.1,2.8,9.9,0.1,10.8-6l6.7-46.9C283.5,327.7,280.1,320.4,275.1,317.6z"/>
		
			<linearGradient id="SVGID_13_" gradientUnits="userSpaceOnUse" x1="294.5246" y1="124.6199" x2="302.6846" y2="147.7099" gradientTransform="matrix(1 0 0 -1 -78.85 454.23)">
			<stop  offset="0" style="stop-color:#1C8EF4"/>
			<stop  offset="1" style="stop-color:#00CFDD"/>
		</linearGradient>
		<path class="st20" d="M164.6,301.5c-0.2,1.5,0.5,3,1.8,3.9l102.9,57.1c0.8,0.5,1.8,0.3,2.3-0.5c0.2-0.3,0.3-0.6,0.3-0.9
			c1.7-10.1,2.9-20.5,4.4-30.6c0.2-1.5-0.5-3-1.8-3.9l-102.9-57.1c-0.4-0.3-1-0.3-1.5-0.2c-0.6,0.3-1.1,0.9-1.1,1.6L164.6,301.5z"/>
		
			<linearGradient id="SVGID_14_" gradientUnits="userSpaceOnUse" x1="295.2368" y1="105.3468" x2="297.5068" y2="109.9968" gradientTransform="matrix(1 0 0 -1 -78.85 454.23)">
			<stop  offset="0" style="stop-color:#1C8EF4"/>
			<stop  offset="1" style="stop-color:#00CFDD"/>
		</linearGradient>
		<path class="st21" d="M269.6,371.1l-102.9-57.1c-0.4-0.3-1-0.3-1.5-0.2c-0.6,0.3-1.1,0.9-1.1,1.6l-0.4,2.3c-0.2,1.5,0.5,3,1.8,3.9
			l102.9,57.1c0.8,0.5,1.8,0.3,2.3-0.5c0.2-0.3,0.3-0.6,0.3-0.9l0.4-2.3C271.6,373.5,270.9,372,269.6,371.1z"/>
		
			<linearGradient id="SVGID_15_" gradientUnits="userSpaceOnUse" x1="375.7161" y1="335.9124" x2="386.1461" y2="281.4323" gradientTransform="matrix(1 0 0 -1 -78.85 454.23)">
			<stop  offset="0" style="stop-color:#FD90DA"/>
			<stop  offset="1" style="stop-color:#8E6DFD"/>
		</linearGradient>
		<path class="st22" d="M326.1,133.3l-37.3-20.6c-2.1-1.3-4.6-1.6-6.9-0.8c-2.6,1-4.5,3.6-5.1,7.4l-4.7,33.1
			c-1,6.8,2.7,14.8,8.3,17.9l37.4,20.6c0.8,0.5,1.7,0.8,2.6,1l6.8-2l6.7-45.6C332.8,139.7,329.9,135.4,326.1,133.3z"/>
		<path class="st16" d="M332.1,152.6l-5.9,36.3l0.9,0.1l2.5-1c2.7-1.1,4.2-3.9,4.6-6.7l4.4-31.3l0,0c0.5-4.1-0.5-8.2-2.9-11.6
			c-1.2-1.9-2.8-3.4-4.7-4.6l-38.4-21.1c-1.9-1.2-4.2-1.4-6.2-0.7l-2.2,0.8c-1.1,0.4-1.5,0.8-1.5,0.8
			C283.8,123.5,333.6,142.7,332.1,152.6z"/>
		<path class="st23" d="M328.5,134.9l-38.4-21.1c-1.9-1.2-4.2-1.4-6.2-0.7c-2.3,0.9-4.1,3.3-4.6,6.7l-4.4,31.3
			c-0.9,6.1,2.5,13.4,7.6,16.2l38.4,21.1c5.1,2.8,9.9,0.1,10.8-6l4.4-31.3C337,144.9,333.6,137.7,328.5,134.9z"/>
		
			<linearGradient id="SVGID_16_" gradientUnits="userSpaceOnUse" x1="378.9742" y1="294.6286" x2="389.1242" y2="310.8387" gradientTransform="matrix(1 0 0 -1 -78.85 454.23)">
			<stop  offset="0" style="stop-color:#6D6AFE"/>
			<stop  offset="1" style="stop-color:#3FB0F7"/>
		</linearGradient>
		<path class="st24" d="M311.8,137c0.3,0.6,0.4,1.2,0.3,1.8c-0.2,0.8-0.4,1.6-0.7,2.3l-8.2,22.7c-0.3,0.8-0.5,1.3-0.7,1.8
			c-0.1,0.4-0.4,0.6-0.7,0.8c-0.3,0.1-0.7,0-1.2-0.3c-1.1-0.6-1.8-1.9-1.6-3.1c0.2-0.8,0.4-1.6,0.7-2.4l8.2-22.7
			c0.2-0.8,0.6-1.6,1.1-2.4c0.3-0.4,0.8-0.3,1.5,0.1C311,136,311.5,136.5,311.8,137L311.8,137z M313.9,142.9l-0.8,6.3l12.1,14
			l-13.6-1.7l-0.8,6.4l19.5,1.5l0.6-5.4L313.9,142.9z M279.8,138.1l17.2,21.1l0.8-6.4l-12-14.1l13.5,1.8l0.8-6.4l-19.5-1.6
			L279.8,138.1z"/>
		
			<linearGradient id="SVGID_17_" gradientUnits="userSpaceOnUse" x1="266.8537" y1="306.5838" x2="278.0437" y2="249.7838" gradientTransform="matrix(1 0 0 -1 -78.85 454.23)">
			<stop  offset="0" style="stop-color:#FD90DA"/>
			<stop  offset="1" style="stop-color:#8E6DFD"/>
		</linearGradient>
		<path class="st25" d="M207.7,166.9L188,156.1l-8.5,58.3l19.9,11c5.5,3.1,10.9,0.1,11.8-6.6l4.8-34.1
			C217,177.9,213.3,170,207.7,166.9z"/>
		<path class="st16" d="M206.4,182.6l-5.9,36.3l0.9,0.1l2.5-1c2.7-1.1,4.2-3.9,4.6-6.7l4.4-31.3l0,0c0.5-4.1-0.6-8.2-2.9-11.6
			c-1.2-1.9-2.8-3.4-4.7-4.6l-38.4-21.1c-1.9-1.2-4.2-1.4-6.2-0.7l-2.2,0.9c-1.1,0.4-1.5,0.8-1.4,0.8
			C158.1,153.4,207.9,172.6,206.4,182.6z"/>
		
			<linearGradient id="SVGID_18_" gradientUnits="userSpaceOnUse" x1="254.9906" y1="259.7648" x2="264.0506" y2="293.0148" gradientTransform="matrix(1 0 0 -1 -78.85 454.23)">
			<stop  offset="0" style="stop-color:#6D6AFE"/>
			<stop  offset="1" style="stop-color:#3FB0F7"/>
		</linearGradient>
		<path class="st26" d="M202.8,164.8l-38.4-21.1c-1.9-1.2-4.2-1.4-6.2-0.7c-2.3,0.9-4.1,3.3-4.6,6.7l-4.4,31.3
			c-0.9,6.1,2.5,13.4,7.6,16.2l38.4,21.1c5.1,2.8,9.9,0.1,10.8-6l4.4-31.3C211.3,174.9,207.9,167.7,202.8,164.8z"/>
		<path class="st23" d="M186.6,177.7l-0.9,6l2.7,1.5c1,0.6,2,1.1,3.1,1.6c0.6,0.3,1.2,0.3,1.8,0c0.5-0.4,0.9-1,0.9-1.7
			c0.1-0.8,0.1-1.5-0.2-2.3c-0.3-0.7-0.8-1.3-1.4-1.8c-0.4-0.3-1.6-1-3.6-2.1L186.6,177.7L186.6,177.7z M165.2,178.2l5.6,3.1
			l-1.5-11.3L165.2,178.2z M168.1,162.7l4.4,2.5l4.4,30.8l-4.5-2.5l-0.9-7l-8.3-4.6l-2.6,5l-4.4-2.5L168.1,162.7L168.1,162.7z
			 M192.4,198.5c0.5-0.5,0.9-1.2,0.9-1.9c0.1-0.7,0.1-1.5-0.1-2.2c-0.2-0.7-0.6-1.4-1.1-1.9c-1.1-1-2.3-1.8-3.6-2.5l-3.4-1.9
			l-1.1,7.1l3.9,2.1c0.9,0.6,1.9,1,2.9,1.4C191.3,198.9,191.9,198.8,192.4,198.5L192.4,198.5z M197.2,194.7c0.5,1.4,0.6,3,0.4,4.5
			c-0.1,1.1-0.5,2.2-1.2,3.1c-0.5,0.8-1.3,1.4-2.2,1.7c-1,0.3-2.1,0.2-3-0.3c-0.7-0.3-2.4-1.1-5-2.6l-7-3.9l3.9-26.2l8.3,4.6
			c1.3,0.7,2.5,1.4,3.6,2.3c0.8,0.6,1.5,1.4,2,2.3c0.6,1,1,2,1.2,3.1c0.3,1.1,0.4,2.3,0.2,3.4c-0.1,1.1-0.6,2.1-1.3,2.9
			c-0.6,0.7-1.5,1.1-2.5,1.1C195.8,191.8,196.6,193.2,197.2,194.7L197.2,194.7z"/>
		
			<linearGradient id="SVGID_19_" gradientUnits="userSpaceOnUse" x1="359.3811" y1="253.7343" x2="371.1511" y2="271.3143" gradientTransform="matrix(1 0 0 -1 -78.85 454.23)">
			<stop  offset="0" style="stop-color:#965CF2"/>
			<stop  offset="1" style="stop-color:#FF8ADC"/>
		</linearGradient>
		<path class="st27" d="M281.1,210.2c-6.8-5.4-10.9-16.7-9.1-25.2s8.8-11,15.6-5.5s10.9,16.7,9.1,25.2S287.9,215.6,281.1,210.2z"/>
		<path class="st16" d="M273.5,178.9c1.2-1.3,4.4-2,6.1-2.1c2.4,0,4.8,0.9,6.5,2.6c5.9,4.9,9.4,15,7.9,22.6c-0.3,2-1.2,3.8-2.5,5.3
			c-1.8,1.4-3.9,2.4-6.2,2.8C275.8,211.4,269.9,182.7,273.5,178.9z"/>
		
			<linearGradient id="SVGID_20_" gradientUnits="userSpaceOnUse" x1="356.3742" y1="252.851" x2="361.8342" y2="265.031" gradientTransform="matrix(1 0 0 -1 -78.85 454.23)">
			<stop  offset="0" style="stop-color:#1C8EF4"/>
			<stop  offset="1" style="stop-color:#00CFDD"/>
		</linearGradient>
		<path class="st28" d="M278.1,207.5c-5.9-4.9-9.4-15-7.9-22.6s7.6-9.8,13.5-5s9.4,15,7.9,22.6S284.1,212.4,278.1,207.5z"/>
		<polygon class="st23" points="286.9,188.9 288.5,190.1 276.9,201.2 272.5,189.8 274.6,191 277.5,195 		"/>
		
			<linearGradient id="SVGID_21_" gradientUnits="userSpaceOnUse" x1="271.6929" y1="196.1699" x2="282.243" y2="222.8499" gradientTransform="matrix(1 0 0 -1 -78.85 454.23)">
			<stop  offset="0" style="stop-color:#965CF2"/>
			<stop  offset="1" style="stop-color:#FF8ADC"/>
		</linearGradient>
		<path class="st29" d="M205.6,234.3l-13.1-7.4c-2.1-1.3-4.7-1.6-7-0.8c-2.6,1-4.6,3.7-5.2,7.6l-1.7,12.2c-1,6.9,2.8,15.1,8.5,18.3
			l13.1,7.4c5.7,3.2,11.2,0.1,12.2-6.8l1.8-12.2C215.1,245.7,211.3,237.5,205.6,234.3z"/>
		<path class="st16" d="M204.6,251.6l-3.1,15.9l0.9,0.1l2.5-1c2.7-1.1,4.2-3.9,4.6-6.7l1.5-10.8l0,0c0.5-4.1-0.6-8.2-2.9-11.6
			c-1.2-1.9-2.8-3.4-4.7-4.5l-11.6-6.6c-1.9-1.2-4.2-1.4-6.2-0.7l-2.2,0.9c-1.1,0.4-1.5,0.8-1.4,0.8
			C183,237,206.1,241.6,204.6,251.6z"/>
		
			<linearGradient id="SVGID_22_" gradientUnits="userSpaceOnUse" x1="268.9357" y1="195.316" x2="273.1257" y2="213.916" gradientTransform="matrix(1 0 0 -1 -78.85 454.23)">
			<stop  offset="0" style="stop-color:#1C8EF4"/>
			<stop  offset="1" style="stop-color:#00CFDD"/>
		</linearGradient>
		<path class="st30" d="M201,233.8l-11.6-6.6c-1.9-1.2-4.2-1.4-6.2-0.7c-2.3,0.9-4.1,3.3-4.6,6.7l-1.5,10.8
			c-0.9,6.1,2.5,13.4,7.6,16.2l11.6,6.6c5.1,2.8,9.9,0.1,10.8-6l1.5-10.8C209.5,243.9,206,236.6,201,233.8z"/>
		<path class="st23" d="M201.5,243.7c-0.2,1.5-1.4,2.2-2.7,1.5c-1.4-0.9-2.1-2.5-1.9-4.1c0-1,0.8-1.8,1.7-1.8c0.4,0,0.7,0.1,1,0.3
			C201,240.6,201.7,242.1,201.5,243.7L201.5,243.7z M194.5,257.4c0.2-1.5,1.4-2.2,2.7-1.5c1.3,0.9,2.1,2.4,1.9,4
			c-0.2,1.5-1.4,2.2-2.7,1.5C195.1,260.5,194.3,259,194.5,257.4L194.5,257.4z M186.6,244.2c0,1-0.8,1.8-1.7,1.8
			c-0.3,0-0.7-0.1-1-0.3c-1.3-0.9-2.1-2.4-1.9-4c0.2-1.5,1.4-2.2,2.7-1.5C186,241.1,186.8,242.7,186.6,244.2L186.6,244.2z
			 M199.9,237.7c-2.2-1.2-4.2-0.1-4.6,2.5v0.2l-7.5,1.2c-0.5-1.4-1.5-2.7-2.8-3.4c-2.2-1.2-4.2-0.1-4.6,2.6
			c-0.3,2.7,0.9,5.4,3.2,6.9c1,0.7,2.3,0.6,3.3-0.1l6.1,8.8l-0.1,0.1c-0.3,2.7,0.9,5.4,3.2,6.9c2.1,1.2,4.2,0.1,4.6-2.5
			c0.3-2.7-0.9-5.4-3.2-6.9c-1.3-0.9-3-0.6-3.9,0.6l-5.8-8.4c0.2-0.3,0.3-0.7,0.3-1.1c0.1-0.4,0.1-0.8,0-1.3l7.2-1.2
			c0.4,1.9,1.5,3.5,3.1,4.5c2.1,1.2,4.2,0.1,4.6-2.6C203.4,241.9,202.2,239.3,199.9,237.7L199.9,237.7z"/>
		
			<linearGradient id="SVGID_23_" gradientUnits="userSpaceOnUse" x1="319.5473" y1="288.6242" x2="351.1873" y2="184.8242" gradientTransform="matrix(1 0 0 -1 -78.85 454.23)">
			<stop  offset="0" style="stop-color:#FD90DA"/>
			<stop  offset="1" style="stop-color:#8E6DFD"/>
		</linearGradient>
		<path class="st31" d="M319.6,239.4l-84.7-46.9c-1.9-1.2-4.3-1.5-6.4-0.7c-2.4,0.9-4.2,3.4-4.7,7l-8.8,62.2
			c-0.9,6.3,2.6,13.9,7.8,16.8l79,43.8l6.9-2.1L319.6,239.4z"/>
		<path class="st16" d="M342.4,265.8l-10,65.3l0.9,0.1l2.5-1c2.8-1.1,4.2-3.9,4.6-6.7l8.5-60.2l0,0c0.5-4.1-0.6-8.2-2.9-11.7
			c-1.2-1.9-2.8-3.4-4.7-4.5L241,191.4c-1.9-1.2-4.2-1.4-6.2-0.7l-2.2,0.9c-1.1,0.4-1.5,0.8-1.4,0.8
			C232.1,202.1,343.9,255.8,342.4,265.8z"/>
		
			<linearGradient id="SVGID_24_" gradientUnits="userSpaceOnUse" x1="368.9074" y1="214.9991" x2="354.0474" y2="169.8492" gradientTransform="matrix(1 0 0 -1 -78.85 454.23)">
			<stop  offset="0" style="stop-color:#A77EF7"/>
			<stop  offset="1" style="stop-color:#5E65D6"/>
		</linearGradient>
		<path class="st32" d="M338.8,248l-100.3-55.6c-1.9-1.2-4.2-1.4-6.2-0.7c-2.3,0.9-4.1,3.3-4.6,6.7l-8.5,60.2
			c-0.9,6.1,2.5,13.4,7.6,16.2L327,330.5c5.1,2.8,9.9,0.1,10.8-6l8.5-60.2C347.2,258.1,343.8,250.8,338.8,248z"/>
		<path class="st33" d="M333.8,284.9l-102.9-57.1c-0.4-0.3-1-0.3-1.5-0.2c-0.6,0.3-1.1,0.9-1.1,1.6l-0.4,2.3c-0.2,1.5,0.5,3,1.8,3.9
			l102.9,57.1c0.8,0.5,1.8,0.3,2.3-0.5c0.2-0.3,0.3-0.6,0.3-0.9l0.4-2.3C335.8,287.2,335.1,285.7,333.8,284.9z"/>
		<path class="st33" d="M331.7,299l-102.9-57.1c-0.4-0.3-1-0.3-1.5-0.2c-0.6,0.3-1.1,0.9-1.1,1.6l-0.4,2.3c-0.2,1.5,0.5,3,1.8,3.9
			l102.9,57.1c0.8,0.5,1.8,0.3,2.3-0.5c0.2-0.3,0.3-0.6,0.3-0.9l0.4-2.3C333.7,301.4,333,299.9,331.7,299z"/>
		<path class="st33" d="M281.1,286l-54.4-30c-0.4-0.3-1-0.3-1.5-0.2c-0.6,0.3-1.1,0.9-1.1,1.6l-0.4,2.3c-0.2,1.5,0.5,3,1.8,3.9
			l54.4,30c1.2,0.7,2.4,0,2.6-1.4l0.4-2.3C283.2,288.4,282.4,286.9,281.1,286z"/>
		<path class="st33" d="M284.8,234.1c-1.9-1-3.6,0-3.9,2.2c-0.3,2.3,0.8,4.6,2.8,5.9c1.9,1,3.6,0,3.9-2.2
			C287.8,237.7,286.8,235.4,284.8,234.1L284.8,234.1z M289.3,241c-0.5,3.4-3.2,4.9-6,3.4c-3-2-4.6-5.4-4.2-9c0.5-3.4,3.2-4.9,6-3.4
			S289.8,237.6,289.3,241z M293.6,241.4l1.8,1c0,0.6-0.1,1.3-0.2,1.9c-0.1,0.6-0.2,1.2-0.4,1.8l-1.8-1c-0.4,1.5-1.2,2.8-2.3,3.8
			l1.1,2.3c-0.8,0.6-1.6,1.1-2.5,1.4l-1.1-2.3c-1.4,0.4-2.8,0.3-4.2-0.2l-0.3,2.2c-0.5-0.2-1.1-0.4-1.5-0.7c-0.5-0.3-1-0.6-1.5-1
			l0.3-2.2c-1.4-1.1-2.7-2.5-3.6-4.1l-1.5,0.9c-0.7-1.2-1.3-2.5-1.8-3.8l1.5-0.9c-0.6-1.8-0.9-3.7-0.9-5.6l-1.8-1
			c0-0.6,0.1-1.3,0.2-1.9c0.1-0.6,0.2-1.2,0.4-1.8l1.8,1c0.4-1.5,1.2-2.8,2.3-3.8l-1.1-2.3c0.7-0.6,1.6-1.1,2.5-1.4l1.1,2.3
			c1.4-0.4,2.8-0.3,4.2,0.2l0.3-2.2c0.5,0.2,1.1,0.4,1.5,0.7c0.5,0.3,1,0.6,1.5,1l-0.3,2.2c1.4,1.1,2.7,2.5,3.6,4.1l1.5-0.9
			c0.7,1.2,1.3,2.5,1.8,3.8l-1.5,0.9C293.3,237.6,293.7,239.5,293.6,241.4z"/>
		
			<linearGradient id="SVGID_25_" gradientUnits="userSpaceOnUse" x1="287.269" y1="403.5318" x2="313.089" y2="314.8218" gradientTransform="matrix(1 0 0 -1 -78.85 454.23)">
			<stop  offset="0" style="stop-color:#FD90DA"/>
			<stop  offset="1" style="stop-color:#8E6DFD"/>
		</linearGradient>
		<path class="st34" d="M266.4,107.7l-65.8-36.5l-11,72.5l66,36.6c5.3,2.9,10.3,0.1,11.2-6.2l7.4-49.6
			C275.1,118.1,271.7,110.6,266.4,107.7z"/>
		<path class="st16" d="M265.7,124.8l-7.8,48.9l0.9,0.1l2.5-1c2.7-1.1,4.2-3.9,4.6-6.7l6.3-43.9l0,0c0.5-4.1-0.5-8.2-2.9-11.6
			c-1.2-1.9-2.8-3.4-4.7-4.6L164.3,50.4c-1.9-1.2-4.2-1.4-6.2-0.7l-2.2,0.9c-1.1,0.4-1.5,0.8-1.4,0.8
			C155.5,61.1,267.1,114.8,265.7,124.8z"/>
		<path class="st23" d="M262,107L161.8,51.4c-1.9-1.2-4.2-1.4-6.2-0.7c-2.3,0.9-4.1,3.3-4.6,6.7l-6.3,43.9
			c-0.9,6.1,2.5,13.4,7.6,16.2l100.3,55.6c5.1,2.8,9.9,0.1,10.8-6l6.3-43.9C270.5,117.1,267.1,109.8,262,107z"/>
		
			<linearGradient id="SVGID_26_" gradientUnits="userSpaceOnUse" x1="242.1625" y1="360.6626" x2="251.8725" y2="370.8326" gradientTransform="matrix(1 0 0 -1 -78.85 454.23)">
			<stop  offset="0" style="stop-color:#6D6AFE"/>
			<stop  offset="1" style="stop-color:#3FB0F7"/>
		</linearGradient>
		<path class="st35" d="M168.5,73.8c-7.4-4.7-14.5-0.9-15.8,8.4c-1.3,9.3,3.7,20.6,11.1,25.3c7.5,4.7,14.6,0.9,15.9-8.4
			C180.9,89.8,176,78.4,168.5,73.8z"/>
		<polygon class="st23" points="161.6,77.9 159.3,94.8 173.7,95.9 		"/>
		<path class="st36" d="M258.9,132.4l-70.8-39.6c-0.4-0.3-0.9-0.3-1.4-0.2c-0.6,0.3-1,0.8-1,1.5l-0.4,2.1c-0.2,1.4,0.5,2.8,1.7,3.6
			l70.8,39.6c0.7,0.5,1.7,0.2,2.2-0.5c0.2-0.3,0.2-0.5,0.2-0.8l0.4-2.1C260.8,134.6,260.1,133.2,258.9,132.4z"/>
		<path class="st36" d="M257.2,145.5l-70.8-39.6c-0.4-0.3-0.9-0.3-1.4-0.1c-0.6,0.3-1,0.8-1,1.5l-0.4,2.1c-0.2,1.4,0.5,2.8,1.7,3.6
			l70.8,39.6c0.7,0.5,1.7,0.3,2.1-0.5c0.2-0.3,0.3-0.6,0.2-0.9l0.4-2.1C259.1,147.7,258.4,146.3,257.2,145.5z"/>
		<path class="st36" d="M255.2,158.5L184.4,119c-0.4-0.3-0.9-0.3-1.4-0.1c-0.6,0.3-1,0.8-1,1.5l-0.4,2.1c-0.2,1.4,0.5,2.8,1.7,3.6
			l70.8,39.6c0.7,0.5,1.7,0.3,2.2-0.5c0.2-0.3,0.2-0.6,0.2-0.9l0.4-2.1C257.1,160.7,256.4,159.3,255.2,158.5z"/>
		<path class="st37" d="M260.8,118.5L190,79c-0.4-0.3-0.9-0.3-1.4-0.2c-0.6,0.3-1,0.8-1,1.5l-0.4,2.1c-0.2,1.4,0.5,2.8,1.7,3.6
			l70.8,39.6c0.7,0.5,1.7,0.3,2.1-0.5c0.2-0.3,0.3-0.6,0.2-0.9l0.4-2.1C262.7,120.7,262,119.3,260.8,118.5z"/>
		<path class="st5" d="M420.5,428.6l-47.2-26.9c-5.1-2.4-12.5-4.2-17.7-1.5c-4.8,2.5-12.6,7.6-16.1,9.5c-2.6,1.5-11.8,7-6.1,10.1
			c16.8,9.1,33.4,19.4,50.5,28.7c3.2,1.8,8,2.4,12.9,2c4.9-0.4,9.7-1.8,14-4.2l8.4-4.9c3.7-2.1,5.7-4.7,5.9-7.1
			S423.7,430,420.5,428.6z"/>
		<path class="st38" d="M388.4,287.5c0.6-2.7,1.5-5.9,2.3-9.1c1.6-6.4,2.9-13.1,1.3-17.3c-0.7-1.8-1.9-2.6-3.3-3.7
			c-3.5-2.9-3,4.8-8.6,4.1c-0.9,1.2-0.6,3.9-0.3,6.4C381,277.1,385.4,290.4,388.4,287.5z"/>
		<path class="st3" d="M353.1,257.8c0.6-2,2.9-0.9,3.5-0.2c1.1,1.1,2.4,2.5,3.9,3c2.3,0.4,4.1,2.2,4.7,4.5c0.3,0.9-0.5,0.9-1.4,2.2
			c-2.9-2.3-6.2-2.4-6.4-2.8C354.8,260.6,356.5,261,353.1,257.8z"/>
		<path class="st3" d="M361.9,270.8l3,3.5l3.5-6.2c-0.5-0.7-1.4-0.8-1.9-1.6c-0.2-0.5-0.5-1.1-0.7-1.5c-1.6-2.9-2.7-3.3-8.4-4.1
			c-1.1-0.1-2.1-0.5-2.9-1.3l-3.9-3.5c-1.3-0.9-2.3-1.2-2.8-0.9s-1.9,3.3-1.9,4.9l0,0c-0.1,0.4,0.1,0.9,0.7,1.5
			c1.7,1.9,3.1,3.5,4.6,5.3c2.6,3.1,1.8,1.9,6.2,2.5C360,269.8,361,270.1,361.9,270.8z"/>
		<path class="st39" d="M348.8,260.2c0.1-0.7,1.1-4.1,1.5-4.2c0.7-0.2,1.6,1,2.5,1.8c1.3,1.3,3.6,4.1,5.4,4.5
			c4.3,0.9,6.2,2.4,8.2,8.3l-1.1-0.7c-2.3-7.1-6.4-1.7-10.6-4.4C352.1,264,348.6,260.8,348.8,260.2z"/>
		
			<linearGradient id="SVGID_27_" gradientUnits="userSpaceOnUse" x1="454.4977" y1="170.3912" x2="459.2377" y2="176.9412" gradientTransform="matrix(1 0 0 -1 -78.85 454.23)">
			<stop  offset="0" style="stop-color:#1C8EF4"/>
			<stop  offset="1" style="stop-color:#00CFDD"/>
		</linearGradient>
		<path class="st40" d="M372,269.1c-1.1-0.3-2.1-0.7-3.1-1.1c-0.7-0.5-1.7-1.4-2.1-1.6c-1.6,0.6-3.4,3-4.5,5.3
			c0.7,0.8,1.4,1.6,2.1,2.5c0.5,0.6,0.8,2.4,1.3,3.1c3.1,4.2,10.2,9.4,14,13.1c4.6,4.4,10.1,4.8,12.4,2.1c1.3-1.5,2-3.7,0.4-7
			c-1-2.1-3.8-4.2-6.2-6.2C381.8,275.2,374.6,270.1,372,269.1z"/>
		
			<linearGradient id="SVGID_28_" gradientUnits="userSpaceOnUse" x1="468.1621" y1="165.7773" x2="465.4021" y2="192.2173" gradientTransform="matrix(1 0 0 -1 -78.85 454.23)">
			<stop  offset="0" style="stop-color:#1C8EF4"/>
			<stop  offset="1" style="stop-color:#00CFDD"/>
		</linearGradient>
		<path class="st41" d="M394.8,294.9c-1.7,1.9-4.8,2.1-8-0.8c-0.2-0.1-0.4-0.3-0.6-0.4l-0.2-0.6c-0.4-0.5-0.6-1.2-0.7-1.8
			c-0.4-1-0.8-2.1-1.2-3.2c-1.4-4-4.4-13.3-5.2-20.3c-1.1-9.7,6.3-13.7,11.4-11.1c4.4,2.3,4.6,9.9,5.2,14.1
			C396.3,276.7,398.9,290.3,394.8,294.9z"/>
		<path class="st23" d="M399.4,426.7c-1,0-4.4-3.2-7.6-1.6c-3.9,1.9-11.2,0.2-14.9,1.1c-0.6,0.2-1.9-0.3-2.2,0.1
			c-0.8,1.4-1.6,3.5,0.4,4.9c2.1,1.3,4.3,2.3,6.5,3.1c2.7,1,5.5,1.8,8.3,2.3c2.7,0.4,4,0.6,5,1.4c1.2,0.6,2.5,1,3.8,0.9
			c2.1-0.3,3.9-1.5,4.9-3.4c0.3-1.8,0.3-3.6,0-5.4c-0.4-1.6-1-3.2-1.7-4.7L399.4,426.7z"/>
		<path class="st42" d="M391.5,419.9c1.2,2.9,0.8,7.5,3.7,9c1.9,1,5,1.1,6.3-1.9c0.7-1.7-0.2-4.5,0-8.2L391.5,419.9z"/>
		<path class="st16" d="M390.7,424.4c-2.2,0.6-8.3,0.2-12.2,0.5c-1.7,0.1-3.1,0.1-3.9,1.6s-0.3,2.6,1.3,3.7c1.8,1.2,3.8,2.2,5.9,2.9
			c2.7,1,5.5,1.8,8.3,2.3c2.7,0.4,4,0.6,5,1.4c1.2,0.6,2.5,1,3.8,0.9c2.1-0.4,3.9-1.7,4.9-3.6c0.3-1.7,0.3-3.5,0-5.1
			c-0.1-0.4-0.2-0.7-0.3-1.1c-0.3-2.9-1.3-4.1-2.2-3.6c-1,0.7-1.8,1.7-2.2,2.9c-0.3,0.8-0.9,1.3-1.7,1.6c-1.5,0.4-3-0.3-3.7-1.6
			c-0.5-0.9-0.8-1.9-1-2.9v-0.3c-0.3-2.5-1.5-2.3-1.3-1.8C391.5,423.1,391.3,423.9,390.7,424.4z"/>
		<path class="st23" d="M375.4,426.2c0,1-1.5,1.1-1,2.8c-0.7-0.7,0.3-2.8,0.7-3.1C375.3,425.8,375.4,425.7,375.4,426.2z"/>
		<path class="st23" d="M374.2,416.7c-0.9-0.4-3-4.5-6.6-4.1c-2.1,0.1-4.1-0.2-6.1-0.9c-3.7-1.1-9-4.4-9.8-3.9
			c-1.9,1.2-2.1,3.4-0.7,5.3c1.3,1.8,2.8,3.4,4.5,4.7c2,1.8,4.1,3.4,6.4,4.9c2,1.1,2.7,1,4.2,3c0.9,1,2,1.7,3.3,2.1
			c2.4,0.2,4.7-0.7,6.4-2.4c0.7-2.3,2-4.5,1.2-7.9L374.2,416.7z"/>
		<path class="st42" d="M369.3,406.9c0.1,3.2-2,7.2,0.1,9.8c1.4,1.7,4.2,2.8,6.5,0.5c1.3-1.3,1.4-4.3,3-7.6L369.3,406.9z"/>
		<path class="st16" d="M362.5,410.8l-0.6-0.2c-3.7-1.1-8.7-3.6-9.6-3.1c-1.9,1.2-2.3,2.6-0.9,4.6c1.3,1.8,2.8,3.4,4.5,4.7
			c2,1.8,4.1,3.4,6.4,4.9c2,1.1,2.7,1,4.2,3c0.9,1,2,1.7,3.3,2.1c2.4,0.2,4.8-0.7,6.5-2.4c0.7-1.8,1.1-3.6,1.3-5.5
			c0.3-2.8,0.1-4.2-1.1-4.2c-2.3,0.1-3.2,1.3-4.2,1.9c-2,1.3-3.4-0.4-3.7-2.4c0-0.9,0-1.8,0.2-2.7c0-0.1,0.1-0.2,0.1-0.3
			c0.7-2.5-0.6-2.7-0.6-2.1c0,1.1-0.8,2-1.9,2.1C365,411.2,363.8,411,362.5,410.8z"/>
		<path class="st23" d="M352.5,407.8c-0.4,0.9-1.8,0.3-2.1,2.1c-0.4-1,1.4-2.4,2-2.4C352.5,407.4,352.7,407.4,352.5,407.8z"/>
		
			<linearGradient id="SVGID_29_" gradientUnits="userSpaceOnUse" x1="453.7301" y1="119.995" x2="465.6401" y2="63.015" gradientTransform="matrix(1 0 0 -1 -78.85 454.23)">
			<stop  offset="0" style="stop-color:#3E4795"/>
			<stop  offset="1" style="stop-color:#273088"/>
		</linearGradient>
		<path class="st43" d="M371.4,321.4c-0.8,9.2-5.4,38.5-4.1,46.5c1.9,12.1,1.4,26.7,1.4,39.5c0.3,5.4,7.7,8.2,9.9,4.8
			c1.7-11.5,4.2-21.5,5.2-27.9c1.1-7.1,0.8-15.8-1.1-20.5c0.7-5.1,4.2-18.3,7.2-27.5c1-3.3,7-14,0.8-24.6L371.4,321.4z"/>
		<path class="st44" d="M368.5,404c0,1,0,2.4,0,3.3c0.3,5.4,7.8,8.3,10,4.9c0.1-0.9,0.3-1.7,0.4-2.5
			C376.1,412.9,370.4,408.8,368.5,404z"/>
		<path class="st45" d="M367.1,362.4c2.4,12.1,9.3,28.3,13,40.5c1.9-10.5,6.8-28.2,2.6-39.1c0.4-2.9,1.7-8.5,3.3-14.4
			c-3.2-6.1-0.1-11-1.7-19.7c-8.6-1.5,4.4-12-13.8-0.9C369,341.9,367.4,350,367.1,362.4z"/>
		
			<linearGradient id="SVGID_30_" gradientUnits="userSpaceOnUse" x1="443.1157" y1="113.5619" x2="483.7257" y2="58.1718" gradientTransform="matrix(1 0 0 -1 -78.85 454.23)">
			<stop  offset="0" style="stop-color:#3E4795"/>
			<stop  offset="1" style="stop-color:#273088"/>
		</linearGradient>
		<path class="st46" d="M372,373.9c5,11.2,14.1,33.1,18.9,46.9c2.5,3.6,11.5,3.3,11.4-0.1c-2-11.5-4.3-29.2-8.4-39.3
			c-2.2-4.4-4.7-8.7-7.6-12.7c-1.3-5.1-2.9-18.8-4.2-26.2c1.1-6.1,6.1-16.4-3.4-25.3c-3.8,2.7-15.7,4.4-21,1.4
			C356.8,342.9,362.8,353,372,373.9z"/>
		<path class="st44" d="M389.9,418.4c0.2,0.6,0.6,1.8,0.9,2.4c2.6,3.8,11.8,3.4,11.8-0.1c-0.1-0.6-0.2-1.1-0.3-1.7
			C400.1,421.2,393.4,421.2,389.9,418.4z"/>
		
			<linearGradient id="SVGID_31_" gradientUnits="userSpaceOnUse" x1="454.9399" y1="132.925" x2="453.1899" y2="170.455" gradientTransform="matrix(1 0 0 -1 -78.85 454.23)">
			<stop  offset="0" style="stop-color:#1C8EF4"/>
			<stop  offset="1" style="stop-color:#00CFDD"/>
		</linearGradient>
		<path class="st47" d="M393,288.5c-0.8,7.2,1.4,14.3-0.8,20.8c-0.1,0.7-0.2,3.3-0.3,4.1c-1.5,8.5-19.4,17.1-34.4,9
			c-0.1-1,0-2.2-0.1-4.1c0.3-1.8-0.5-3.8-0.5-4.9c0-4.6,1.5-7,0.8-12.1c-1.4-10.5-7.2-20.5-4-28.8c0.7-1.8,1.9-2.6,3.3-3.7
			c3.5-2.9,21.9-12.2,27.4-12.9C400.5,253.7,393.9,280.7,393,288.5z"/>
		<path class="st48" d="M361.7,255.7c1,0.5,6.2-0.2,6,0.2c-0.1,2.3-0.8,3.7-1,6.9c5.7-0.8,13.2-1.6,13.5-6l-0.1-1c0,0,0-0.1,0-0.1
			l0,0c-0.2-1.3,0-2.6,0.5-3.7c1.2-1.9,3.7-4.1,4.6-7.1c1.4-4.7,0.9-10-3.5-13.5c-8-6.4-18.3-1.9-21,7.5c-0.5,1.8,0.9,2.8,0.9,4.4
			c0,0.3-0.4,0.6-0.7,1.3C360.4,245.5,360.4,255.1,361.7,255.7z"/>
		
			<linearGradient id="SVGID_32_" gradientUnits="userSpaceOnUse" x1="447.525" y1="215.9582" x2="455.425" y2="203.4982" gradientTransform="matrix(1 0 0 -1 -78.85 454.23)">
			<stop  offset="0" style="stop-color:#FF8A78"/>
			<stop  offset="1" style="stop-color:#FFA799"/>
		</linearGradient>
		<path class="st49" d="M361.7,255.7c1,0.5,6.1-0.2,6,0.3c-0.1,2.3-0.8,3.7-1,6.9c3.3,0.8,12.2-0.4,13.6-5.4c0-1.1,0-5,0.3-5.5
			c1.2-1.9,3.7-4.1,4.6-7.1c1.4-4.7,0.9-10-3.5-13.5c-8-6.4-18.3-1.9-21,7.5c-0.5,1.8,0.9,2.8,0.9,4.4c0,0.3-0.4,0.6-0.7,1.3
			C360.4,245.5,360.5,255.1,361.7,255.7z"/>
		
			<linearGradient id="SVGID_33_" gradientUnits="userSpaceOnUse" x1="449.2851" y1="217.1501" x2="453.6651" y2="204.1201" gradientTransform="matrix(1 0 0 -1 -78.85 454.23)">
			<stop  offset="0" style="stop-color:#FFB89E"/>
			<stop  offset="1" style="stop-color:#FFA799"/>
		</linearGradient>
		<path class="st50" d="M361.9,255.7c0.5,0.3,2.8,0.1,4.5-0.5c0.7-0.3,1.4-0.8,2-1.4c0.7-0.3,2.2-2.4-0.1-5.9s11.7,5.3,12.5,4.1
			c1.2-1.9,3.7-4.1,4.6-7.1c1.4-4.7,0.9-10-3.5-13.5c-8-6.4-18.3-1.9-21,7.5c-0.5,1.8,0.9,2.8,0.9,4.4c0,0.3-0.4,0.6-0.7,1.3
			C360.4,245.5,360.6,255.1,361.9,255.7z"/>
		<path class="st3" d="M367.6,248c2.9-2.7,5.7,5.9,1,5.8C370.5,251.9,369.1,248.8,367.6,248z"/>
		<path class="st51" d="M367.6,249.2c-0.4-1.2-0.1-1.6,0.5-1.5c0.9,0.4,1.6,1.2,1.8,2.2c0.7,2-0.3,4.5-2.2,3.5
			c1.7,0.1,1.5-1.9,1-3.1C368.4,249.5,367.9,248.9,367.6,249.2z"/>
		<path class="st3" d="M368.4,249.8c-0.5,0.9-0.6,1.4-0.5,1.7s0.4,0.4,1-0.1C368.9,250.8,368.7,250.3,368.4,249.8z"/>
		<path class="st52" d="M364.8,236.7l-0.1-0.1c-2.5-1.1-3.6-4.1-2.4-6.5c0.2-0.4,0.5-0.9,0.8-1.2c3.2-2.8,11.7-2.5,17.2,0.3
			s6.9,9.9,5.2,15.5c-1.1,3.7-3.8,5.6-5.1,8.4c-0.8,1-2.1,1.5-3.4,1.2c-3.8-0.8-4.7-4.8-7-6.6c-1.3-1-2.6-1.2-3,1.4
			c-0.1,1.2-0.1,2.4-0.2,3.4c-0.1,1.7,0.3,2-1.1,2.6c-1.4,0.6-3,0.9-4.5,0.9c-0.4-0.1-0.3-2.3-0.3-3.8c0.1,0,0.2,0.5,0.2,0.5
			l0.5-0.1c0-0.6-0.1-1.3-0.2-1.9c-0.1-0.5-0.3-1-0.6-1.4c-0.1-0.4-0.2-0.8-0.1-1.3c0.8,0.5,1.4,1.4,1.6,2.3
			c0.2,0.7,0.3,1.4,0.4,2.1c0.7,0,1.4-0.3,2-0.6c0.8-0.9,1-2.1,1.2-3.9c0.1-3.2-0.1-3.7-1.7-6.1c-0.5-0.7-0.5-2,0.7-5
			C364.7,236.9,364.8,236.8,364.8,236.7z"/>
		
			<linearGradient id="SVGID_34_" gradientUnits="userSpaceOnUse" x1="440.6779" y1="226.4052" x2="450.188" y2="220.6152" gradientTransform="matrix(1 0 0 -1 -78.85 454.23)">
			<stop  offset="0" style="stop-color:#8A4791"/>
			<stop  offset="1" style="stop-color:#562E65"/>
		</linearGradient>
		<path class="st53" d="M362.6,234.9c1.2,1.5,6.3-2,13.5-0.6c-1.5-4.8-2.4-5.8-4.6-7.1c-2.8-1.8-7.5-1.1-9,1.4
			C361.4,230.5,361.4,233,362.6,234.9z"/>
		<path class="st54" d="M380.4,256.1c1.5,0.5,3.1,2,2.8,3c-1.5,6.3-13.3,7.5-20.5,6c-0.1,0,2.8-3.8,4.2-4.3
			C371.4,261.3,379,259.8,380.4,256.1z"/>
		<path class="st38" d="M357.2,306.9c-0.5-12.7-2.9-26.7-3.2-31.1c-0.1-1.9,0.6-3.2,1.4-4.8s10.1-1.5,12.5,5.8
			C369,295.9,362,308.3,357.2,306.9z"/>
		<path class="st3" d="M322.6,294.9l4.1,2.2l1.1-7c-0.7-0.5-1.6-0.3-2.3-0.9c-0.4-0.4-0.8-0.8-1.2-1.2c-2.5-2.1-3.7-2.1-9.3-0.8
			c-1,0.3-2.1,0.3-3.1-0.2l-4.8-1.8c-1.5-0.4-2.6-0.3-3,0.2s-0.6,3.8,0,5.2l0,0c0,0.4,0.5,0.8,1.2,1.2c2.2,1.1,4.1,2.1,6.2,3.3
			c3.5,2,2.4,1.1,6.7,0.1C320.4,294.6,321.5,294.5,322.6,294.9z"/>
		<path class="st39" d="M306.5,289.7c-0.1-0.7-0.2-3.4,0.1-3.6c0.6-0.4,1.9,0.5,3.1,1c1.2,0.6,2.5,0.7,3.7,0.3
			c2.1,1.5,8-0.6,13.3,5.8l-1.6,0.6c-1.8-0.5-6.4,0.6-11.3-0.3C310.9,292.9,306.6,290.3,306.5,289.7z"/>
		<path class="st3" d="M309.2,291.4c-0.3-2,2.1-2.1,3-1.8c1.5,0.5,3.3,1.1,4.9,0.9c2.2-0.7,4.7,0,6.2,1.8c0.7,0.7,0,1-0.2,2.6
			c-3.6-0.7-6.6,0.8-7,0.5C312,293.1,313.7,292.7,309.2,291.4z"/>
		
			<linearGradient id="SVGID_35_" gradientUnits="userSpaceOnUse" x1="420.7285" y1="157.6656" x2="431.3685" y2="181.6557" gradientTransform="matrix(1 0 0 -1 -78.85 454.23)">
			<stop  offset="0" style="stop-color:#1C8EF4"/>
			<stop  offset="1" style="stop-color:#00CFDD"/>
		</linearGradient>
		<path class="st55" d="M347.7,293.7c-5.2-1.8-12.3-4-16.3-4c-1.1,0.1-2.2,0.1-3.3,0c-0.8-0.3-2.1-0.7-2.5-0.8
			c-1.3,1.1-2.1,4.1-2.3,6.6c0.9,0.5,1.9,1,2.8,1.6c0.7,0.4,1.6,2,2.3,2.4c4.4,2.8,12.9,5.1,17.8,7.2c2.2,0.9,4,1.8,6.7,1.8
			c1.5-0.4,2.9-1.1,4.1-2l0.7-0.4l0.3-0.6c0.4-0.5,0.7-1.1,0.9-1.8c0.5-1,1-2.1,1.4-3.1c1.7-3.9,5.4-13,6.8-19.9
			c1.9-9.6-5.2-14.1-10.5-11.9c-4.6,1.9-5.4,9.5-6.3,13.6C349.3,286,348.4,290.3,347.7,293.7z"/>
	</g>
</g>
</svg>
