<?xml version="1.0" encoding="utf-8"?>
<!-- Generator: Adobe Illustrator 24.2.3, SVG Export Plug-In . SVG Version: 6.00 Build 0)  -->
<svg version="1.1" id="Layer_9" xmlns="http://www.w3.org/2000/svg" xmlns:xlink="http://www.w3.org/1999/xlink" x="0px" y="0px"
	 viewBox="0 0 500 500" style="enable-background:new 0 0 500 500;" xml:space="preserve">
<style type="text/css">
	.st0{opacity:0.4;fill:#577CA0;enable-background:new    ;}
	.st1{fill:#212A38;}
	.st2{fill:#D8E4EA;}
	.st3{fill:#FFBFA6;}
	.st4{fill:#FFFFFF;}
	.st5{fill:#E8563D;}
	.st6{fill:#BF391F;}
	.st7{fill:#577CA0;}
</style>
<g>
	<polygon class="st0" points="194.4,218 267.5,255.9 159.3,318.6 90,278.3 	"/>
	<path class="st1" d="M277.9,145.5c-0.5-0.3-1-0.4-1.5-0.5h-0.2c-0.5-0.1-1.1-0.1-1.6-0.1h-0.3c-0.6,0.1-1.2,0.2-1.8,0.4
		c-0.4,0.1-0.8,0.3-1.2,0.5c-0.4,0.2-0.7,0.3-1.1,0.5l-12,7l-78.3,45.5l-12,7c-0.9,0.6-1.8,1.2-2.6,2c-0.3,0.3-0.6,0.5-0.9,0.9
		s-0.7,0.7-1.1,1.1c-0.4,0.4-0.9,1-1.2,1.5c-0.1,0.1-0.2,0.2-0.3,0.4c-0.5,0.7-1,1.4-1.4,2.2l-0.2,0.4c-0.4,0.7-0.8,1.5-1.1,2.3
		l-0.2,0.4c-0.3,0.8-0.6,1.6-0.9,2.4c0,0.1-0.1,0.3-0.1,0.4c-0.2,0.7-0.4,1.4-0.5,2.2c0,0.1-0.1,0.3-0.1,0.4
		c-0.1,0.9-0.2,1.7-0.2,2.6l0.5,87.8c0,3.5,1.3,5.9,3.3,7.1l-7-4c-2-1.1-3.3-3.6-3.3-7.1l-0.5-87.8c0-0.8,0.1-1.6,0.2-2.4
		c0,0,0-0.1,0-0.1c0-0.1,0.1-0.3,0.1-0.4c0.1-0.5,0.2-0.9,0.3-1.4c0.1-0.3,0.2-0.5,0.2-0.8s0.1-0.3,0.1-0.4l0.1-0.4
		c0.2-0.5,0.3-1,0.5-1.5c0.1-0.2,0.2-0.4,0.2-0.5l0.2-0.4c0.1-0.2,0.1-0.3,0.2-0.5c0.2-0.5,0.4-0.9,0.7-1.4c0.1-0.1,0.2-0.3,0.2-0.4
		l0.2-0.4c0.1-0.2,0.2-0.4,0.3-0.6c0.3-0.5,0.6-1,1-1.4l0.1-0.1l0.3-0.4c0.3-0.4,0.5-0.7,0.9-1.1c0.1-0.1,0.3-0.3,0.4-0.4
		c0.4-0.4,0.7-0.8,1.1-1.1c0.2-0.2,0.4-0.4,0.6-0.6s0.2-0.1,0.3-0.2c0.8-0.7,1.7-1.4,2.6-2l12-7l78.4-45.5l12-7l0.2-0.1
		c0.3-0.2,0.6-0.3,0.9-0.4c0.4-0.2,0.8-0.4,1.2-0.5l0.1-0.1c0.4-0.1,0.9-0.2,1.4-0.3c0.1,0,0.2,0,0.3,0h0.3c0.2,0,0.3,0,0.5,0
		c0.3,0,0.6,0,1,0.1h0.1l0.2,0.1c0.2,0,0.4,0.1,0.6,0.1c0.3,0.1,0.6,0.2,0.9,0.4l0.1,0.1L277.9,145.5z"/>
	<path class="st2" d="M281.1,152.6c0-6.9-4.9-9.8-10.9-6.3l-12,7l-78.3,45.5l-12,7c-6,3.4-10.8,12-10.8,18.9l0.5,87.8
		c0,6.9,4.9,9.7,10.8,6.4l12.1-7l78.4-45.5l12.1-7c5.9-3.5,10.6-11.9,10.6-18.8L281.1,152.6z"/>
	<path class="st1" d="M200.6,209.6c2.1,1.2,3.4,3.8,3.4,7.5c0,7.4-5.1,16.3-11.6,20v-13.3v13.3c-3.2,1.9-6.1,2-8.2,0.9
		s-3.4-3.8-3.4-7.5c0-7.4,5.1-16.3,11.6-20C195.6,208.6,198.5,208.4,200.6,209.6z M169.1,217.1l0.1,40.2l46.5-26.8l-0.1-40.2
		L169.1,217.1z"/>
	<path class="st1" d="M209.8,275.7l-34.3,19.8v-3.3l34.3-19.8V275.7z M209.8,264.1l-34.3,19.8v-14.9l34.3-19.8V264.1z M169.3,265.7
		l0.1,40.2l46.5-26.9l-0.1-40.2L169.3,265.7z"/>
	<path class="st1" d="M236.3,258.2l7.3-6.6l7.3-1.4l4.9-4.5l7.6-1.6v0.6l-34.3,19.8v-4.5L236.3,258.2z M236.3,249.5l7.3-10.3
		l7.4-0.4l4.9-4.5l7.6,0.7v5.5v3.6l-7.6,1.6l-4.9,4.5l-7.3,1.4l-7.3,6.6l-7.1,1.8v-5.3v-7.1L236.3,249.5z M223,234.6l0.1,40.2
		l46.5-26.9l-0.2-40.2L223,234.6z"/>
	<path class="st1" d="M263.4,190.3l-34.3,19.8V201l34.3-19.8V190.3z M263.3,172.9L229,192.7v-3.3l34.3-19.8V172.9z M222.9,186.1
		l0.1,40.2l46.5-26.9l-0.1-40.2L222.9,186.1z"/>
	<polygon class="st3" points="229,189.4 263.3,169.6 263.3,172.9 229,192.7 	"/>
	<polygon class="st4" points="229,201 263.3,181.2 263.4,190.3 229.1,210.1 	"/>
	<polygon class="st4" points="175.5,292.2 209.8,272.4 209.8,275.7 175.5,295.5 	"/>
	<polygon class="st5" points="175.4,268.9 209.7,249.1 209.7,264.1 175.5,283.9 	"/>
	<path class="st3" d="M192.4,210.4v13.3l-11.6,6.7C180.8,223.1,186,214.2,192.4,210.4z"/>
	<path class="st2" d="M192.4,210.4c3.2-1.8,6.1-2,8.2-0.9l-8.2,14.2L192.4,210.4z"/>
	<path class="st4" d="M180.9,230.5c0,3.7,1.3,6.2,3.4,7.5l8.2-14.2L180.9,230.5z"/>
	<path class="st6" d="M200.6,209.6c2.1,1.2,3.4,3.8,3.4,7.5c0,7.4-5.1,16.3-11.6,20v-13.3L200.6,209.6z"/>
	<path class="st7" d="M192.5,223.8v13.3c-3.2,1.9-6.1,2-8.2,0.9L192.5,223.8z"/>
	<polygon class="st4" points="229.2,247.5 236.3,249.5 243.6,239.2 251,238.8 255.9,234.3 263.5,235 263.5,240.5 255.9,240.9 
		251,248.4 243.7,246.3 236.3,252.2 229.2,254.6 	"/>
	<polygon class="st6" points="229.2,259.9 236.3,258.2 243.7,251.6 251,250.2 255.9,245.7 263.5,244.1 263.5,244.7 229.2,264.5 	"/>
	<polygon class="st3" points="229.2,254.6 236.3,252.2 243.7,246.3 251,248.4 255.9,240.9 263.5,240.5 263.5,244.1 255.9,245.7 
		251,250.2 243.7,251.6 236.3,258.2 229.2,259.9 	"/>
	<path class="st3" d="M320.6,229.9l-1.3,0.4c0.1,7.5,0.3,16.3,0.3,25.5c0,2.3,0,4.5,0,6.9c0.2,0,0.3-0.1,0.5-0.2
		C326.1,259.1,320.4,240.8,320.6,229.9z"/>
	<polygon class="st5" points="325.5,281.3 311.8,267.4 319.2,253.4 333,267.3 	"/>
	<path class="st3" d="M299,202.9l-0.4,0.1c0.1,0.1,0.1,0.2,0.2,0.3C298.9,203.2,299,203.1,299,202.9z"/>
	<path class="st1" d="M300.7,196.2c-0.4-0.3-0.7-0.7-1-1.1c-1.1-1.4-1.3-3.1-0.6-3.6c0.6-0.3,1.2-0.2,1.7,0.2c0.2-1.6,1-2.8,3.3-2.8
		c5.9,0.1,7.4-1.2,9.5-1.9c-0.9-3.9-3.5-7-8.4-7.6c-4.4-0.5-12.4,2.5-6.3,16.1c0.4,0.8,0.6,1.7,0.7,2.6
		C300.3,197.8,300.6,197,300.7,196.2z"/>
	<path class="st1" d="M321.6,229.7c-0.6-15.2-1.1-26.3-12-27.7l-0.2,0.2c0.8,1.5,1.5,3,1.9,4.6c3.5,11.1,4.1,31,4.1,50.8
		c1.6,0,3.1-0.6,4.2-1.8c0-9.2-0.1-18-0.3-25.5l1.3-0.4L321.6,229.7z"/>
	<path class="st1" d="M316.5,310.1c-2.6,1.3-7.2,1.6-9.4,0.5c-0.2,1.4-0.3,2.9-0.3,4.3c7.2,0,10.4,4.7,19.4,2.6
		C326.9,313.3,319.5,315.3,316.5,310.1z"/>
	<path class="st1" d="M294.3,318.1c-0.4,4.5,3.4,4.2,4.9,6.7c2.5,4.3,1.6,6.3,8,6.5c6.9,0-0.6-6.8-1.7-8.8c-0.8-1.2-1.2-2.5-1.4-3.9
		C300.7,319.5,296.4,319.1,294.3,318.1z"/>
	<path class="st1" d="M301.6,208.8c-0.6-2-1.5-3.8-2.8-5.5c-0.1-0.1-0.1-0.2-0.2-0.3c-4.7,1.4-8.9,4-12.4,7.5
		c-3.6,3.6-6.5,7.9-8.6,12.6c2.3,1.2,4.5,2.6,6.5,4.3c0.9,0.7,1.7,1.4,2.4,1.9c1.9-2.1,4.3-3.9,6.9-5.1c0.1,6.1-0.3,10.7-0.5,17
		l0.9,0.6c1.5-2.6,4.3-3.7,7.3-2.1c-2.5,7.6-5.7,8.6-8.3,7.2c0,3.1,0.1,6.6,0.3,10.8c0,0.1,0,0.2,0,0.3c3.1,1.2,6.4,1.7,9.7,1.6
		C304.2,238.7,305.2,219.7,301.6,208.8z"/>
	<path class="st3" d="M293.9,241.7l-0.9-0.6c-3.2-2.1-9.7-6.9-9.7-10.8c0.1-1,0.4-2.1,1-2.9c-2-1.7-4.2-3.1-6.5-4.3
		c-1,2.1-1.4,4.4-1.4,6.7c0.4,4.7,4.7,10.6,16.6,16.9c2.6,1.4,5.8,0.4,8.3-7.2C298.2,238,295.4,239.1,293.9,241.7z"/>
	<path class="st3" d="M313.9,192.5c0.2-1.9,0.1-3.7-0.3-5.6c-2.2,0.7-3.7,2-9.5,1.9c-2.3,0-3.1,1.2-3.3,2.8
		c-0.5-0.4-1.2-0.5-1.7-0.2c-0.7,0.5-0.5,2.2,0.6,3.6c0.3,0.4,0.6,0.8,1,1.1c-0.1,0.9-0.3,1.6-1,1.9c0.3,1.7,0,3.4-0.7,5
		c-0.1,0.1-0.1,0.3-0.2,0.4c1.2,1.7,2.2,3.5,2.8,5.5c3.9,0.9,8.1,0.4,9.7-2.1c-0.5-1.6-1.1-3.1-1.9-4.6l0.2-0.2
		C312.3,199.9,313.5,196.3,313.9,192.5z"/>
	<path class="st7" d="M315.4,252.5c-0.1-18.1-0.9-35.6-4.1-45.8c-1.6,2.5-5.9,3-9.7,2.1c3.3,9.9,2.8,26.6,1.7,45.2
		C307.8,254.6,312,254.2,315.4,252.5z"/>
	<path class="st4" d="M315.4,252.5c-3.4,1.7-7.6,2.1-12.1,1.5c-0.1,1.8-0.2,3.7-0.3,5.5c-3.3,0.1-6.6-0.5-9.7-1.6
		c0.4,9.1,3.6,27.8,1,60.2c2,1,6.4,1.4,9.8,0.6c0-1.3,0-2.5,0.1-3.8c0.5-10,2.9-34.8,4.3-47.6c0.5,10.9-0.5,31.7-1.4,43.2
		c2.1,1,6.7,0.8,9.4-0.5c1.9-15.8,3-31.6,3.1-47.5c0-2.3,0-4.6,0-6.9c-1.1,1.2-2.6,1.9-4.2,1.8C315.4,255.9,315.4,254.2,315.4,252.5
		z"/>
	<polygon class="st3" points="347.6,242.3 363.2,254.9 352.4,256.7 336.8,244.1 	"/>
	<path class="st7" d="M332.7,243l19.2,15.4l15.4-2.6l-19.2-15.4L332.7,243z M336.8,244.1l10.8-1.8l15.6,12.6l-10.8,1.8L336.8,244.1z
		"/>
	<path class="st1" d="M374.8,353.5c0,0.1,0.1,0.2,0.1,0.2c1.5,3-0.4,8.3-6,3.7c-6.6-5.4-11.9-2.9-13-8.7c1.9-4.4,8,2,11.1-0.8
		C367.6,350.7,370.9,353.1,374.8,353.5z"/>
	<path class="st1" d="M366.3,344.6c-2.4-1.3-1.8-3.8,0.9-4.1c0.1,1.5,0.2,3,0.2,4.6C367,344.9,366.7,344.7,366.3,344.6z"/>
	<path class="st3" d="M346.1,251.2c-1.4,0.9-2.3,2.4-2.5,4.1c-5.1-1.1-4.4-2.8-4.1-4.5c0.3-1.4-1.9-1.4-1.5-2.8
		C341.4,247,343.9,248.8,346.1,251.2z"/>
	<path class="st3" d="M372.8,307.7c3.1-0.6,6.1-1.9,8.8-3.7c0.6,6.4,3.5,9.7,3.5,15.1c0,6.8-3.1,12.3-2.8,22.1
		c0.1,1.7,0.5,3.4,1.2,5c0.3,0.9,0.6,1.7,0.9,2.4c-4.4-0.3-7.6-1.8-7.9-5.1c-0.1-0.7,0-1.3,0.1-2
		C377.5,328.3,374.8,317.7,372.8,307.7z"/>
	<path class="st1" d="M373.6,342.2c0.9,0.4,1.8,0.9,2.7,1.3c0.4,3.4,3.6,4.9,7.9,5.1c0.4,1.4,0.3,2.6-0.9,3.3
		c-3.1,1.5-5.8-0.7-9.6-3.4C373.5,346.7,373.5,344.6,373.6,342.2z"/>
	<path class="st3" d="M367.2,340.5c-0.5-6.6-1.7-13.1-3.6-19.4c-1.4-5-2.6-9.4-3.6-13.6c3.3,0.8,6.7,1.1,10,0.6
		c0.5,4.6,1.6,9.7,2.8,15.9c1.2,5.7,0.9,12.4,0.8,18.2c0,2.3,0,4.5,0.2,6.4c0.1,1.7,0.5,3.3,1.1,4.8c-3.8-0.4-7.2-2.8-7.7-5.6
		c0.1-0.1,0.3-0.2,0.4-0.4c0-0.9,0-1.6-0.1-2.4C367.4,343.5,367.3,341.9,367.2,340.5z"/>
	<path class="st1" d="M367.7,208.5c2.8-2.9,8.8-2.6,12.2-0.3l0.2-0.1c2.5-0.9,5.4,0.7,6.6,3.7c2,5.3-2,12.1,3.4,13.3
		c-5.6,1.7-8.4,0.1-10-2.4c-0.7,0.9-1.5,1.8-2.3,2.5c-0.6,0.4-1.1,0.8-1.8,1.2c-2.3,0.1-4.5-1.2-5.4-3.3c1-0.5,1.6-1.6,1.7-2.7
		c0.2-1.7-0.7-3.2-1.9-3.3c-0.5,0-0.9,0.1-1.3,0.4c-0.9-1.6-2.7-2.1-3.9-2.9C365.3,212.3,366.2,210.2,367.7,208.5z"/>
	<path class="st3" d="M369.1,231.7c0.9-0.6,1.5-1.5,1.7-3.9c-0.2,0-0.5,0-0.7,0c-4.9,0-6.9-6.9-5-13.2c1.3,0.7,3,1.3,3.9,2.9
		c0.4-0.3,0.8-0.4,1.3-0.4c1.2,0.1,2.1,1.6,1.9,3.3c-0.1,1.1-0.7,2.1-1.7,2.7c0.9,2.1,3.1,3.5,5.4,3.3c0.6-0.3,1.2-0.7,1.8-1.2
		c0,0.4,0,0.7,0.1,1.1c0.3,2,1.6,2.7,3.1,3.3C381.5,234.1,374.8,235.9,369.1,231.7z"/>
	<path class="st1" d="M383.3,264.4c0.7,2.6,1.6,5,2.2,7.6c2,8.5,1.2,19.8-1.6,29.6c-0.7,0.9-1.5,1.7-2.4,2.4
		c-2.6,1.8-5.6,3.1-8.8,3.7c-0.9,0.2-1.9,0.4-2.8,0.5c-3.3,0.4-6.7,0.2-10-0.6c-2.2-9.1-3.1-17.2-0.9-29.7c0.2-1.6,0.5-3.6,0.9-6
		C370,275.3,379.8,270,383.3,264.4z"/>
	<path class="st2" d="M346.1,251.2l0.4,0.5c12.5,8.2,9.7-3.3,13.9-12.3c0.2-0.7,0.5-1.3,0.9-1.9c2.3-3.9,6.2-4.9,7.7-5.8
		c5.7,4.3,12.5,2.4,11.8-2.1c2,0.8,4.3,1.3,5,4.1c1.2,4.7-4.3,15.5-3.8,23.2c0.2,2.6,0.6,5.1,1.3,7.5c-3.5,5.6-13.3,10.9-23.3,7.5
		c0.5-3.1,1.1-6.7,1.6-10.8c0.1-1.1,0.2-2.3,0.3-3.4c0-0.1,0-0.2,0-0.3c-3.4,3.9-9.8,3.4-18-2l-0.3-0.1
		C343.8,253.7,344.7,252.2,346.1,251.2z"/>
</g>
</svg>
