<?xml version="1.0" encoding="utf-8"?>
<!-- Generator: Adobe Illustrator 24.2.3, SVG Export Plug-In . SVG Version: 6.00 Build 0)  -->
<svg version="1.1" id="Layer_1" xmlns="http://www.w3.org/2000/svg" xmlns:xlink="http://www.w3.org/1999/xlink" x="0px" y="0px"
	 viewBox="0 0 500 500" style="enable-background:new 0 0 500 500;" xml:space="preserve">
<style type="text/css">
	.st0{opacity:0.35;fill-rule:evenodd;clip-rule:evenodd;fill:#59CAAF;enable-background:new    ;}
	.st1{fill-rule:evenodd;clip-rule:evenodd;fill:url(#SVGID_1_);}
	.st2{fill-rule:evenodd;clip-rule:evenodd;fill:url(#SVGID_2_);}
	.st3{fill-rule:evenodd;clip-rule:evenodd;fill:#4A9FF8;}
	.st4{fill-rule:evenodd;clip-rule:evenodd;fill:#D0E7FF;}
	.st5{fill-rule:evenodd;clip-rule:evenodd;fill:#FFFFFF;}
	.st6{fill-rule:evenodd;clip-rule:evenodd;fill:url(#SVGID_3_);}
	.st7{opacity:0.2;fill-rule:evenodd;clip-rule:evenodd;fill:#6D6AFD;enable-background:new    ;}
	.st8{fill-rule:evenodd;clip-rule:evenodd;fill:url(#SVGID_4_);}
	.st9{fill-rule:evenodd;clip-rule:evenodd;fill:#4165F3;}
	.st10{fill-rule:evenodd;clip-rule:evenodd;fill:#22D2FB;}
	.st11{fill-rule:evenodd;clip-rule:evenodd;fill:url(#SVGID_5_);}
	.st12{fill-rule:evenodd;clip-rule:evenodd;fill:#12A3EB;}
	.st13{fill-rule:evenodd;clip-rule:evenodd;fill:#1C8DF3;}
	.st14{opacity:0.5;fill-rule:evenodd;clip-rule:evenodd;fill:url(#SVGID_6_);enable-background:new    ;}
	.st15{fill-rule:evenodd;clip-rule:evenodd;fill:url(#SVGID_7_);}
	.st16{fill-rule:evenodd;clip-rule:evenodd;fill:#FFFCF1;}
	.st17{fill-rule:evenodd;clip-rule:evenodd;fill:#FFA495;}
	.st18{fill-rule:evenodd;clip-rule:evenodd;fill:#193161;}
	.st19{fill-rule:evenodd;clip-rule:evenodd;fill:url(#SVGID_8_);}
	.st20{opacity:0.35;fill-rule:evenodd;clip-rule:evenodd;fill:#6266D7;enable-background:new    ;}
	.st21{fill-rule:evenodd;clip-rule:evenodd;fill:url(#SVGID_9_);}
	.st22{fill-rule:evenodd;clip-rule:evenodd;fill:url(#SVGID_10_);}
	.st23{opacity:0.3;fill-rule:evenodd;clip-rule:evenodd;fill:#1E2353;enable-background:new    ;}
	.st24{fill-rule:evenodd;clip-rule:evenodd;fill:url(#SVGID_11_);}
	.st25{fill-rule:evenodd;clip-rule:evenodd;fill:url(#SVGID_12_);}
	.st26{fill-rule:evenodd;clip-rule:evenodd;fill:url(#SVGID_13_);}
	.st27{fill-rule:evenodd;clip-rule:evenodd;fill:#FFA698;}
	.st28{fill-rule:evenodd;clip-rule:evenodd;fill:url(#SVGID_14_);}
	.st29{fill-rule:evenodd;clip-rule:evenodd;fill:url(#SVGID_15_);}
	.st30{fill-rule:evenodd;clip-rule:evenodd;fill:#FFB49C;}
	.st31{fill-rule:evenodd;clip-rule:evenodd;fill:#FF9D8E;}
	.st32{fill-rule:evenodd;clip-rule:evenodd;fill:#562E65;}
	.st33{fill-rule:evenodd;clip-rule:evenodd;fill:url(#SVGID_16_);}
	.st34{fill-rule:evenodd;clip-rule:evenodd;fill:url(#SVGID_17_);}
	.st35{fill-rule:evenodd;clip-rule:evenodd;fill:url(#SVGID_18_);}
	.st36{opacity:0.5;fill-rule:evenodd;clip-rule:evenodd;fill:url(#SVGID_19_);enable-background:new    ;}
	.st37{fill-rule:evenodd;clip-rule:evenodd;fill:#FF9281;}
	.st38{fill-rule:evenodd;clip-rule:evenodd;fill:url(#SVGID_20_);}
	.st39{fill-rule:evenodd;clip-rule:evenodd;fill:#1F202B;}
	.st40{fill-rule:evenodd;clip-rule:evenodd;fill:#161A40;}
	.st41{fill-rule:evenodd;clip-rule:evenodd;fill:#161F69;}
	.st42{fill-rule:evenodd;clip-rule:evenodd;fill:url(#SVGID_21_);}
	.st43{fill-rule:evenodd;clip-rule:evenodd;fill:url(#SVGID_22_);}
	.st44{fill-rule:evenodd;clip-rule:evenodd;fill:url(#SVGID_23_);}
	.st45{fill-rule:evenodd;clip-rule:evenodd;fill:url(#SVGID_24_);}
	.st46{opacity:0.35;fill-rule:evenodd;clip-rule:evenodd;fill:#4165F3;enable-background:new    ;}
	.st47{fill-rule:evenodd;clip-rule:evenodd;fill:url(#SVGID_25_);}
	.st48{fill-rule:evenodd;clip-rule:evenodd;fill:#06C0E1;}
	.st49{fill-rule:evenodd;clip-rule:evenodd;fill:url(#SVGID_26_);}
	.st50{fill-rule:evenodd;clip-rule:evenodd;fill:url(#SVGID_27_);}
	.st51{fill-rule:evenodd;clip-rule:evenodd;fill:url(#SVGID_28_);}
	.st52{fill-rule:evenodd;clip-rule:evenodd;fill:url(#SVGID_29_);}
	.st53{fill-rule:evenodd;clip-rule:evenodd;fill:#FDBEBE;}
	.st54{fill-rule:evenodd;clip-rule:evenodd;fill:url(#SVGID_30_);}
	.st55{fill-rule:evenodd;clip-rule:evenodd;fill:url(#SVGID_31_);}
	.st56{fill-rule:evenodd;clip-rule:evenodd;fill:#1994F0;}
	.st57{fill-rule:evenodd;clip-rule:evenodd;fill:url(#SVGID_32_);}
	.st58{fill-rule:evenodd;clip-rule:evenodd;fill:#00EDFF;}
	.st59{fill-rule:evenodd;clip-rule:evenodd;fill:#0D7AE9;}
	.st60{fill-rule:evenodd;clip-rule:evenodd;fill:#494CEC;}
	.st61{fill-rule:evenodd;clip-rule:evenodd;fill:url(#SVGID_33_);}
	.st62{fill-rule:evenodd;clip-rule:evenodd;fill:#AAB4FF;}
</style>
<g>
	<g id="Layer_8">
		<path class="st0" d="M320.7,406.9l-126.3-69.8c-3.1-1.4-7.7-2.8-10.7-0.9l-7.8,4.7c-1.6,1-6.7,4.1-3.3,6
			c10.1,5.5,117.6,65.4,127.9,71c2.4,1.1,5.1,1.5,7.8,1.2c3-0.2,5.8-1,8.4-2.5l3.1-1.9c2.2-1.4,3.4-2.8,3.5-4.3
			C323.5,409,322.6,407.8,320.7,406.9z"/>
		
			<linearGradient id="SVGID_1_" gradientUnits="userSpaceOnUse" x1="365.9554" y1="262.9524" x2="317.026" y2="79.0894" gradientTransform="matrix(1 0 0 -1 -86.05 448.37)">
			<stop  offset="0" style="stop-color:#D1E8FF"/>
			<stop  offset="1" style="stop-color:#EAEFFF"/>
		</linearGradient>
		<path class="st1" d="M222.4,90.8c-1.8-1.1-4-1.4-6-0.7l-4.4,1.8c-1.6,8.4,92.6,316.3,94.6,318.4l4-1.5c2.6-1,4-3.8,4.4-6.4
			l33.7-229.9l0,0c0.5-3.9-0.5-7.9-2.7-11.1c-1.1-1.8-2.7-3.3-4.5-4.3L222.4,90.8z"/>
		
			<linearGradient id="SVGID_2_" gradientUnits="userSpaceOnUse" x1="373.8595" y1="331.0589" x2="310.7845" y2="37.2022" gradientTransform="matrix(1 0 0 -1 -86.05 448.37)">
			<stop  offset="0" style="stop-color:#6D6AFE"/>
			<stop  offset="1" style="stop-color:#3FB0F7"/>
		</linearGradient>
		<path class="st2" d="M337,158.7l-119-66.2c-4.9-2.7-9.5-0.1-10.3,5.7l-33.7,230c-0.9,5.9,2.4,12.8,7.2,15.5l119,66.2
			c4.9,2.7,9.5,0.1,10.3-5.7l33.7-230C345.1,168.3,341.8,161.4,337,158.7z"/>
		<path class="st3" d="M337,158.7l-119-66.2c-4.9-2.7-9.5-0.1-10.3,5.7l-1.7,11.8l136.6,76l1.7-11.8
			C345.1,168.3,341.8,161.4,337,158.7z"/>
		<path class="st4" d="M281.2,53.5c0.3-1.9-0.3-3.1,0.7-4.2c1-0.8,2.1-1.5,3.3-1.9c1.8-0.6,3.7-0.3,5.3,0.7l24.3,14.5
			c4.4,2.6,7.4,9.1,6.7,14.7l-3.8,27.8c-0.1,1.9-1,3.8-2.3,5.2c-1.1,1-2.5,1.7-4,2c-1.3,0.2-1.6-1-3-1.8l-24.3-14.5
			c-4.4-2.6-7.4-9.1-6.7-14.7L281.2,53.5z"/>
		<path class="st5" d="M279.7,54.4c0.7-5.5,4.9-7.9,9.3-5.4l24.3,14.5c4.4,2.6,7.4,9.1,6.7,14.7l-3.8,27.8c-0.7,5.5-4.9,7.9-9.3,5.4
			l-24.3-14.5c-4.4-2.6-7.4-9.1-6.7-14.7L279.7,54.4z"/>
		
			<linearGradient id="SVGID_3_" gradientUnits="userSpaceOnUse" x1="385.6003" y1="379.7069" x2="387.1009" y2="393.4724" gradientTransform="matrix(1 0 0 -1 -86.05 448.37)">
			<stop  offset="0" style="stop-color:#6D6AFE"/>
			<stop  offset="1" style="stop-color:#3FB0F7"/>
		</linearGradient>
		<path class="st6" d="M279.7,54.4c0.7-5.5,4.9-7.9,9.3-5.4l24.3,14.5c4.4,2.6,7.4,9.1,6.7,14.7l-0.4,2.6c-0.5-0.4-1-0.7-1.5-1
			l-38.8-23L279.7,54.4z"/>
		<path class="st7" d="M295.7,70.3c6.8,1.5,11.9,9.6,11.6,17.9s-6.1,13.9-12.9,12.4c-6.7-1.5-11.9-9.6-11.6-18
			C283.2,74.1,289,68.7,295.7,70.3z"/>
		
			<linearGradient id="SVGID_4_" gradientUnits="userSpaceOnUse" x1="379.6465" y1="356.728" x2="382.9178" y2="370.8836" gradientTransform="matrix(1 0 0 -1 -86.05 448.37)">
			<stop  offset="0" style="stop-color:#6D6AFE"/>
			<stop  offset="1" style="stop-color:#3FB0F7"/>
		</linearGradient>
		<path class="st8" d="M295.4,77.2c3.6,0.8,6.4,5.2,6.2,9.7c-0.2,4.5-3.3,7.5-6.9,6.7c-3.6-0.8-6.4-5.2-6.2-9.7
			C288.6,79.4,291.7,76.4,295.4,77.2z M295.2,81.1c-1.9-0.4-3.6,1.1-3.7,3.5c-0.1,2.4,1.4,4.7,3.3,5.1c1.9,0.5,3.6-1.2,3.7-3.5
			C298.6,83.8,297.2,81.5,295.2,81.1z"/>
		<path class="st5" d="M285.7,51.9c1.4,0.5,2.2,1.8,2.1,3.3c-0.1,1.5-1.1,2.5-2.3,2.2c-1.3-0.5-2.2-1.8-2.1-3.2
			C283.4,52.7,284.5,51.7,285.7,51.9z"/>
		<path class="st5" d="M291.2,55.1c1.4,0.5,2.2,1.8,2.1,3.3c-0.1,1.5-1.1,2.5-2.3,2.2c-1.4-0.5-2.2-1.8-2.1-3.2
			C289,55.8,290,54.8,291.2,55.1z"/>
		<path class="st5" d="M297.2,58.6c1.4,0.5,2.2,1.8,2.1,3.2c-0.1,1.5-1.1,2.5-2.3,2.2c-1.4-0.5-2.2-1.8-2.1-3.2
			C295,59.4,296,58.4,297.2,58.6z"/>
		<path class="st3" d="M184.8,297.8l40.6,22.2l0.2-1.2L185,296.6l4.9-33.7l40.6,22.2l0.2-1.2l-40.6-22.2l4.9-33.7l40.6,22.3l0.2-1.2
			l-40.6-22.2l4.9-33.7l40.6,22.2l0.2-1.2l-40.6-22.2l4.9-33.7l40.6,22.3l0.2-1.2l-40.6-22.2l5-33.7l40.6,22.2l-5,33.7l-0.1,1.2
			l-5,33.7l-0.2,1.2l-4.9,33.7l-0.2,1.2l-5,33.7l-0.2,1.2l-5,33.7l-0.2,1.2l-5,33.7l0,0l-40.4-22.3L184.8,297.8L184.8,297.8z
			 M292.7,168.2l-40.6-22.2l-5,33.7l40.6,22.2l-0.2,1.2L247,180.9l0,0l-5,33.7l40.6,22.2l-0.2,1.2l-40.6-22.2l-4.9,33.7l40.6,22.2
			l-0.2,1.2l-40.6-22.3l0,0l-4.9,33.7l40.6,22.2l-0.2,1.2l-40.6-22.2l0,0l-4.9,33.7l40.6,22.2l-0.2,1.2l-40.6-22.2l0,0l-5,33.7
			l40.6,22.3l0,0l5-33.7l0.2-1.2l5-33.7l0.2-1.2l4.9-33.7l0.2-1.2l4.9-33.7l0.2-1.2l4.9-33.7l0.2-1.2L292.7,168.2L292.7,168.2z
			 M334.4,191l-5,33.7l-0.2,1.2l-5,33.7l-0.2,1.2l-4.9,33.7l-0.2,1.2l-4.9,33.7l-0.2,1.2l-4.9,33.7l-0.2,1.2l-5,33.7l0,0l-40.6-22.2
			l5-33.7l0,0l40.6,22.2l0.2-1.2l-40.6-22.3l5-33.7l0,0l40.6,22.2l0.2-1.2l-40.6-22.2l4.9-33.7l0,0l40.6,22.3l0.2-1.2l-40.6-22.2
			l4.9-33.7l40.6,22.2l0.2-1.2l-40.6-22.2l5-33.7l0,0l40.6,22.2l0.2-1.2l-40.6-22.2l5-33.7l0,0L334.4,191L334.4,191z M209.6,121.3
			l-30.9,211l126.1,69.1l30.9-211L209.6,121.3z"/>
		<path class="st9" d="M251,346.7l-4.4-2.5c-0.8-0.5-1.2-1.4-1.3-2.3l-0.2-6c0-0.9-0.5-1.8-1.3-2.3c-0.6-0.4-1.4-0.2-1.8,0.4
			c0,0.1-0.1,0.1-0.1,0.2l-2.5,4.5c-0.3,0.7-1.1,0.9-1.7,0.6c0,0-0.1,0-0.1-0.1l-4.4-2.5c-1.6-0.9-2.8,1.3-1.8,3.1l2.9,5.2
			c0.5,0.8,0.5,1.8,0.1,2.6l-2.5,4.5c-0.6,1.3-0.2,2.8,1,3.5c0.3,0.2,0.7,0.2,1,0.1l4.3-1.3c0.4-0.1,0.7,0,1.1,0.1
			c0.4,0.2,0.7,0.5,0.9,0.9l2.9,5.2c0.2,0.4,0.5,0.7,0.9,0.9c1,0.6,2.2-0.2,2.1-1.8l-0.3-6c-0.1-0.8,0.3-1.6,1.1-1.9l4.3-1.2
			C252.7,350.4,252.6,347.6,251,346.7z"/>
		<path class="st4" d="M254.6,274.4c-2.5-1.4-5.1,0.5-5.1,4.1c0,1.9,0.7,3.7,2,5c0.3,0.3,0.6,0.5,1,0.8c2.5,1.4,5.1-0.5,5.1-4.1
			c0-1.9-0.7-3.7-2-5C255.2,274.9,254.9,274.6,254.6,274.4L254.6,274.4z M252.2,285.9c-0.5-0.3-1-0.6-1.4-1
			c-1.7-1.8-2.7-4.2-2.8-6.7c0-4.8,3.5-7.3,6.8-5.5c0.5,0.3,1,0.6,1.4,1c1.7,1.8,2.7,4.2,2.7,6.7C259,285.2,255.5,287.7,252.2,285.9
			L252.2,285.9z M263.5,281.8c0.6,0.4,0.9,1.2,0.8,1.9l-0.6,2.8c0,0.5-0.5,0.9-0.9,0.8c-0.1,0-0.3,0-0.4-0.1l-0.3-0.2
			c-0.4-0.2-0.9-0.1-1.1,0.3c0,0,0,0,0,0.1c-0.2,0.3-0.3,0.5-0.5,0.8c-0.3,0.5-0.4,1.1-0.1,1.6l0.2,0.4c0.3,0.6,0.2,1.4-0.4,1.8
			l-2,1.1c-0.3,0.1-0.6,0.1-0.8,0c-0.3-0.2-0.5-0.5-0.7-0.8l-0.2-0.4c-0.1-0.3-0.4-0.6-0.7-0.8c-0.1-0.1-0.3-0.1-0.5-0.1h-0.9
			c-0.5,0-0.9,0.3-1,0.8l-0.1,0.4c0,0.5-0.5,0.9-0.9,0.8c-0.1,0-0.3,0-0.4-0.1l-2.3-1.3c-0.6-0.4-0.9-1.2-0.8-1.9l0.1-0.4
			c0.1-0.6-0.1-1.2-0.5-1.6c-0.3-0.3-0.5-0.6-0.7-0.8c-0.1-0.2-0.3-0.3-0.4-0.4c-0.3-0.1-0.6-0.1-0.8,0l-0.3,0.1
			c-0.3,0.1-0.6,0.1-0.8,0c-0.3-0.2-0.5-0.5-0.7-0.8l-1.2-2.9c-0.3-0.6-0.2-1.4,0.4-1.8l0.3-0.1c0.4-0.3,0.6-0.9,0.5-1.4
			c-0.1-0.4-0.1-0.8-0.1-1.2c0-0.6-0.3-1.1-0.8-1.4l-0.3-0.2c-0.6-0.4-0.9-1.2-0.8-1.9l0.6-2.8c0-0.5,0.4-0.9,0.9-0.8
			c0.1,0,0.3,0,0.4,0.1l0.3,0.2c0.4,0.2,0.9,0.1,1.1-0.3c0,0,0,0,0-0.1c0.2-0.3,0.3-0.5,0.6-0.8c0.3-0.5,0.4-1.1,0.1-1.6l-0.2-0.4
			c-0.3-0.6-0.2-1.4,0.4-1.9l2.1-1.1c0.3-0.1,0.6-0.1,0.8,0c0.3,0.2,0.5,0.5,0.7,0.8l0.2,0.4c0.1,0.3,0.4,0.6,0.7,0.8
			c0.2,0.1,0.3,0.1,0.5,0.1c0.3,0,0.6,0,0.9,0c0.5,0,0.9-0.3,1-0.8l0.1-0.4c0.2-0.7,0.8-1.1,1.3-0.7l2.3,1.3
			c0.6,0.4,0.9,1.2,0.8,1.9l-0.1,0.4c-0.1,0.6,0.1,1.2,0.4,1.6c0.2,0.3,0.5,0.6,0.7,0.9c0.1,0.2,0.3,0.3,0.4,0.4
			c0.3,0.1,0.6,0.1,0.8,0l0.3-0.2c0.3-0.1,0.6-0.1,0.8,0c0.3,0.2,0.5,0.5,0.7,0.8l1.2,2.9c0.3,0.6,0.2,1.4-0.4,1.9l-0.3,0.2
			c-0.4,0.3-0.6,0.9-0.5,1.4c0.1,0.4,0.1,0.8,0.1,1.2c0,0.6,0.3,1.1,0.8,1.4L263.5,281.8z"/>
		<path class="st10" d="M210.8,332.6c-1.5,7-7.3,10.1-12.9,7c-5.6-3.1-9-11.3-7.5-18.3c1.5-7,7.3-10.1,12.9-7
			C208.9,317.4,212.3,325.6,210.8,332.6L210.8,332.6z M201.7,329.7c0.6-0.3,1-0.9,1.1-1.6c0.2-1.3-0.1-2.6-1-3.5l1.3-6.3
			c0.1-0.4-0.1-0.9-0.5-1.1c-0.3-0.2-0.7,0-0.8,0.4l-1.3,6.3c-1-0.1-2,0.6-2.1,1.7c0,0,0,0.1,0,0.1c-0.3,1.5,0.3,3.1,1.6,3.9
			c0.2,0.1,0.5,0.2,0.8,0.3l2.5,9.3c0,0.2,0.2,0.3,0.3,0.4c0.1,0.1,0.2,0.1,0.3,0.1c0.3,0,0.4-0.4,0.3-0.8L201.7,329.7L201.7,329.7z
			 M203.7,312c-6.6-3.7-13.5,0-15.2,8.2c-1.8,8.2,2.2,17.9,8.8,21.6c6.6,3.7,13.5,0,15.2-8.2S210.4,315.7,203.7,312L203.7,312z"/>
		
			<linearGradient id="SVGID_5_" gradientUnits="userSpaceOnUse" x1="300.4785" y1="211.6299" x2="296.767" y2="181.8081" gradientTransform="matrix(1 0 0 -1 -86.05 448.37)">
			<stop  offset="0" style="stop-color:#FD90DA"/>
			<stop  offset="1" style="stop-color:#8E6DFD"/>
		</linearGradient>
		<path class="st11" d="M226.8,246.2l-25.5-14c-0.6-0.4-1.4-0.2-1.8,0.4c-0.1,0.2-0.2,0.5-0.2,0.8l-3.3,28c-0.1,1.2,0.5,2.4,1.5,3
			l25.5,14c0.6,0.4,1.4,0.2,1.8-0.4c0.1-0.2,0.2-0.5,0.2-0.7l3.3-28C228.4,248,227.8,246.8,226.8,246.2z"/>
		<path class="st5" d="M223.6,248.9c0.6,0.3,0.9,1.1,0.5,1.7l-12.4,16c-0.2,0.2-0.5,0.3-0.8,0.1c-0.3-0.2-0.5-0.4-0.6-0.7l-7.5-19.7
			c-0.3-0.8,0.2-1.5,0.8-1.1l3.6,1.9c0.3,0.2,0.5,0.4,0.6,0.7l3.1,8.2c0.1,0.3,0.3,0.6,0.6,0.7c0.2,0.2,0.6,0.1,0.8-0.1l7.2-9.3
			c0.2-0.2,0.5-0.3,0.8-0.1L223.6,248.9z"/>
		<path class="st10" d="M284.2,207l-35.6-19.3c-0.3-0.2-0.8-0.1-1,0.2c-0.1,0.1-0.1,0.2-0.1,0.4l-0.5,3.1c-0.1,0.6,0.2,1.3,0.8,1.6
			l35.6,19.3c0.5,0.3,1,0,1.1-0.6l0.5-3.1C285,208,284.7,207.4,284.2,207z"/>
		<path class="st10" d="M282.1,218.4L263.1,208c-0.3-0.2-0.8-0.1-1,0.2c-0.1,0.1-0.1,0.2-0.1,0.4l-0.1,0.9c-0.1,0.6,0.2,1.3,0.8,1.6
			l18.9,10.4c0.5,0.3,1,0,1.1-0.6l0.1-0.9C282.9,219.3,282.6,218.7,282.1,218.4z"/>
		<path class="st10" d="M257,165.5c-0.9,7.8,3.5,17.4,9.7,21.4s12.2-1.1,12.9-7c0.7-5.9-0.5-8.4-2.2-12.2l-3.3,1.8
			c1.4,2.4,1.9,5.2,1.5,7.9c-0.4,3.8-4.3,7.1-8.3,4.5c-4-2.5-6.8-8.7-6.2-13.7L257,165.5z"/>
		<path class="st12" d="M261.4,157.6c-2.3,1.3-4,4-4.4,7.9l4,2.6c0.3-2.5,1.3-4.3,2.9-5.1C263,161.2,262.2,159.4,261.4,157.6z"/>
		<path class="st13" d="M269.9,158.5c-3.1-2-6.1-2.2-8.4-0.9c0.8,1.8,1.6,3.6,2.5,5.4c1.5-0.8,3.4-0.7,5.4,0.6
			c2.1,1.5,3.8,3.5,4.8,5.9l3.3-1.8C275.8,164,273.2,160.8,269.9,158.5z"/>
		<path class="st10" d="M269.6,311L234,291.7c-0.3-0.2-0.8-0.1-1,0.2c-0.1,0.1-0.1,0.2-0.1,0.4l-0.5,3.1c-0.1,0.6,0.2,1.3,0.8,1.6
			l35.6,19.3c0.5,0.3,1,0,1.1-0.6l0.5-3.1C270.4,312,270.1,311.4,269.6,311z"/>
		<path class="st10" d="M251.6,312.9l-18.9-10.4c-0.3-0.2-0.8-0.1-1,0.2c-0.1,0.1-0.1,0.2-0.1,0.4l-0.1,0.9
			c-0.1,0.6,0.2,1.3,0.8,1.6l18.9,10.4c0.3,0.2,0.8,0.1,1-0.2c0.1-0.1,0.1-0.2,0.1-0.4l0.1-0.9C252.4,313.9,252.1,313.3,251.6,312.9
			z"/>
		
			<linearGradient id="SVGID_6_" gradientUnits="userSpaceOnUse" x1="295.0203" y1="249.6764" x2="314.8682" y2="316.0728" gradientTransform="matrix(1 0 0 -1 -86.05 448.37)">
			<stop  offset="0" style="stop-color:#965CF2"/>
			<stop  offset="1" style="stop-color:#FF8ADC"/>
		</linearGradient>
		<path class="st14" d="M229.6,145.3l-26.1-12.6l-10.3,64.5l-1.3,9.1l27.2,14.7c4.7,2.6,9.2,0.1,10.1-5.6l7.6-55
			C237.5,154.6,234.4,147.9,229.6,145.3z"/>
		<path class="st4" d="M226.5,160.6l-8.1,52.6l0.9,0.1l2.3-0.9c2.6-1,3.9-3.7,4.3-6.2l6.7-47.9l0,0c0.4-3.8-0.5-7.7-2.7-10.8
			c-1.1-1.7-2.6-3.2-4.4-4.2l-50-27.2c-1.7-1.1-3.9-1.3-5.8-0.7l-2.1,0.8c-1,0.4-1.4,0.7-1.3,0.8C167.2,126,227.8,151.4,226.5,160.6
			z"/>
		
			<linearGradient id="SVGID_7_" gradientUnits="userSpaceOnUse" x1="289.3372" y1="316.5171" x2="266.7083" y2="242.1976" gradientTransform="matrix(1 0 0 -1 -86.05 448.37)">
			<stop  offset="0" style="stop-color:#6D6AFE"/>
			<stop  offset="1" style="stop-color:#3FB0F7"/>
		</linearGradient>
		<path class="st15" d="M223.1,144.2l-50-27.2c-1.7-1.1-3.9-1.3-5.8-0.7c-2.2,0.9-3.8,3-4.3,6.2l-6.7,47.9c-0.8,5.7,2.3,12.4,7,15.1
			l50,27.2c4.7,2.6,9.2,0.1,10.1-5.6l6.7-47.9C230.9,153.5,227.8,146.7,223.1,144.2z"/>
		<path class="st16" d="M213.8,199.9l-50.2-26.9c-1.2-0.6-2.3,0-2.5,1.5c-0.2,1.4,0.5,2.9,1.7,3.7L213,205c1.2,0.6,2.3,0,2.5-1.4
			C215.7,202.1,215.1,200.6,213.8,199.9L213.8,199.9z M216.1,185.3c1.2,0.8,1.9,2.2,1.7,3.7c-0.2,1.4-1.4,2.1-2.5,1.4l-50.2-26.9
			c-1.2-0.8-1.9-2.2-1.7-3.7c0.2-1.4,1.3-2.1,2.5-1.5L216.1,185.3L216.1,185.3z M221.2,152.2L171,125.2c-0.8-0.5-1.8-0.2-2.2,0.6
			c-0.2,0.3-0.2,0.5-0.2,0.8l-0.6,3.6c-0.2,1.4,0.5,2.9,1.7,3.7l50.2,27c0.8,0.5,1.8,0.2,2.3-0.6c0.2-0.2,0.2-0.5,0.2-0.8l0.6-3.6
			C223.2,154.4,222.5,152.9,221.2,152.2z M218.3,170.8c1.2,0.8,1.9,2.2,1.7,3.6c-0.2,1.5-1.4,2.1-2.5,1.4l-50.2-26.9
			c-1.2-0.8-1.9-2.2-1.7-3.6c0.2-1.5,1.3-2.1,2.5-1.5L218.3,170.8z"/>
		<path class="st0" d="M124.1,363.8l37.3-21.2c4.1-1.9,9.9-3.3,14-1.2c3.8,2,10,6,12.7,7.5c2.1,1.2,9.3,5.5,4.8,8
			c-13.3,7.2-26.4,15.3-39.9,22.6c-2.6,1.4-6.3,1.9-10.2,1.6c-3.9-0.3-7.6-1.4-11-3.3l-6.6-3.8c-2.9-1.7-4.5-3.7-4.6-5.6
			S121.6,364.9,124.1,363.8z"/>
		<path class="st5" d="M139.2,362.4c0.8,0,3.7-2.7,6.4-1.3c3.2,1.6,9.4,0.2,12.5,0.9c0.6,0.1,1.6-0.3,1.9,0.1c0.7,1.2,1.3,3-0.3,4.1
			c-1.7,1.1-3.6,1.9-5.5,2.6c-2.3,0.8-4.6,1.5-7,2c-2.3,0.4-3.3,0.5-4.2,1.2c-1,0.5-2.1,0.8-3.2,0.8c-1.7-0.2-3.3-1.3-4.1-2.8
			c-0.3-1.5-0.3-3,0-4.5c0.4-1.4,0.8-2.7,1.4-3.9L139.2,362.4z"/>
		<path class="st17" d="M145.8,356.6c-1,2.5-0.7,6.3-3.1,7.6c-1.7,1.1-3.9,0.6-5-1.1c-0.1-0.2-0.2-0.4-0.3-0.5
			c-0.6-1.4,0.2-3.8,0-6.9L145.8,356.6z"/>
		<path class="st18" d="M146.5,360.4c1.9,0.5,7,0.2,10.2,0.4c1.4,0.1,2.6,0.1,3.3,1.4c0.7,1.3,0.3,2.2-1.1,3.1c-1.6,1-3.2,1.8-5,2.4
			c-2.3,0.9-4.6,1.5-7,2c-2.3,0.4-3.3,0.5-4.2,1.2c-1,0.5-2.1,0.8-3.2,0.8c-1.8-0.3-3.3-1.4-4.1-3c-0.3-1.4-0.3-2.9,0-4.3
			c0.1-0.3,0.1-0.6,0.2-0.9c0.3-2.4,1.1-3.4,1.8-3c0.9,0.6,1.5,1.5,1.8,2.5c0.3,0.6,0.8,1.1,1.5,1.3c1.2,0.3,2.5-0.3,3.1-1.4
			c0.4-0.8,0.7-1.6,0.9-2.5v-0.3c0.2-2.1,1.3-1.9,1.1-1.5C145.8,359.3,146,360,146.5,360.4z"/>
		<path class="st5" d="M159.4,361.9c0,0.8,1.2,0.9,0.9,2.4c0.6-0.6-0.2-2.3-0.6-2.6C159.5,361.6,159.4,361.5,159.4,361.9z"/>
		<path class="st5" d="M160.4,353.9c0.8-0.3,2.5-3.8,5.5-3.5c1.7,0,3.5-0.2,5.1-0.7c3.1-0.9,7.5-3.7,8.3-3.2c1.6,1,1.8,2.8,0.6,4.5
			c-1.1,1.5-2.4,2.8-3.8,4c-1.7,1.5-3.5,2.9-5.4,4.1c-1.7,1-2.3,0.9-3.5,2.5c-0.7,0.8-1.7,1.4-2.7,1.7c-2,0.2-4-0.5-5.4-2
			c-0.6-1.9-1.6-3.8-1-6.7L160.4,353.9z"/>
		<path class="st17" d="M164.5,345.7c-0.1,2.7,1.6,6.1-0.1,8.2c-1.2,1.6-3.4,2-5.1,0.8c-0.2-0.1-0.3-0.2-0.4-0.4
			c-1.1-1.1-1.2-3.6-2.5-6.4L164.5,345.7z"/>
		<path class="st18" d="M170.2,348.9l0.5-0.2c3.1-0.9,7.3-3.1,8.1-2.6c1.6,1,1.9,2.2,0.8,3.8c-1.1,1.5-2.4,2.8-3.8,4
			c-1.7,1.5-3.5,2.9-5.4,4.1c-1.7,1-2.3,0.9-3.5,2.5c-0.7,0.8-1.7,1.4-2.7,1.7c-2,0.2-4-0.5-5.4-2c-0.6-1.5-1-3-1.1-4.6
			c-0.3-2.4-0.1-3.6,0.9-3.6c1.9,0.1,2.7,1.1,3.5,1.6c1.7,1.1,2.9-0.3,3.1-2c0-0.8,0-1.5-0.2-2.2l-0.1-0.2c-0.6-2.1,0.5-2.3,0.5-1.8
			c0,0.9,0.7,1.7,1.6,1.8C168.1,349.3,169.2,349.2,170.2,348.9z"/>
		<path class="st5" d="M178.7,346.5c0.3,0.8,1.5,0.3,1.8,1.7c0.3-0.8-1.2-2-1.7-2C178.6,346.1,178.5,346.1,178.7,346.5z"/>
		
			<linearGradient id="SVGID_8_" gradientUnits="userSpaceOnUse" x1="228.3583" y1="223.2336" x2="224.1066" y2="185.9688" gradientTransform="matrix(1 0 0 -1 -86.05 448.37)">
			<stop  offset="0" style="stop-color:#A77EF7"/>
			<stop  offset="1" style="stop-color:#5E65D6"/>
		</linearGradient>
		<path class="st19" d="M128.8,252.7c6.3,7.3,6.4,7.8,18.6,15l2.3-4.6c-4.1-8.4-5.3-9.5-10.7-16c4.7-3.3,8.9-7.3,12.5-11.8
			c8-10.6,3.5-18-3.3-16.5c-6,1.3-15.4,16.8-20.5,25.6C125.7,248,125.1,248.4,128.8,252.7z"/>
		<path class="st20" d="M141.1,245.5c3.9-3,7.4-6.4,10.5-10.3c8-10.6,3.3-17.8-3.6-16.3C144.4,220,138,227.6,141.1,245.5z"/>
		
			<linearGradient id="SVGID_9_" gradientUnits="userSpaceOnUse" x1="245.8841" y1="163.7892" x2="235.8701" y2="115.8702" gradientTransform="matrix(1 0 0 -1 -86.05 448.37)">
			<stop  offset="0" style="stop-color:#40457F"/>
			<stop  offset="1" style="stop-color:#1E2353"/>
		</linearGradient>
		<path class="st21" d="M162.7,273.8c0.7,7.7,4.6,32.4,3.5,39.1c-1.6,10.2-1.2,22.5-1.1,33.3c-0.3,4.5-6.5,6.9-8.3,4
			c-1.5-9.6-3.5-18.1-4.4-23.5c-0.9-6-0.6-13.3,0.9-17.2c-0.6-4.3-3.6-15.4-6-23.1c-0.9-2.8-5.9-11.8-0.7-20.7L162.7,273.8z"/>
		
			<linearGradient id="SVGID_10_" gradientUnits="userSpaceOnUse" x1="248.0894" y1="102.4939" x2="244.328" y2="97.0918" gradientTransform="matrix(1 0 0 -1 -86.05 448.37)">
			<stop  offset="0" style="stop-color:#3773B9"/>
			<stop  offset="1" style="stop-color:#003C76"/>
		</linearGradient>
		<path class="st22" d="M165.2,343.2c0,0.8,0,2,0,2.8c-0.3,4.5-6.6,7-8.4,4.1c-0.1-0.7-0.3-1.4-0.4-2.1
			C158.8,350.7,163.6,347.2,165.2,343.2z"/>
		<path class="st23" d="M166.4,308.3c-2,10.2-7.8,23.8-10.9,34.1c-1.6-8.8-5.7-23.8-2.2-32.9c-0.4-2.5-1.5-7.1-2.8-12.1
			c2.7-5.2,0.1-9.3,1.4-16.5c7.2-1.3-3.7-10.1,11.6-0.8C164.8,291,166.1,297.9,166.4,308.3z"/>
		
			<linearGradient id="SVGID_11_" gradientUnits="userSpaceOnUse" x1="254.8136" y1="158.3849" x2="220.6501" y2="111.7864" gradientTransform="matrix(1 0 0 -1 -86.05 448.37)">
			<stop  offset="0" style="stop-color:#40457F"/>
			<stop  offset="1" style="stop-color:#1E2353"/>
		</linearGradient>
		<path class="st24" d="M162.2,318c-4.2,9.4-11.8,27.9-15.9,39.4c-2.1,3.1-9.6,2.8-9.6-0.1c1.7-9.7,3.6-24.5,7.1-33
			c1.8-3.7,4-7.3,6.4-10.7c1.1-4.3,2.5-15.8,3.5-22c-1-5.2-5.1-13.8,2.9-21.3c3.2,2.3,13.2,3.7,17.7,1.2
			C175,291.9,170,300.3,162.2,318z"/>
		
			<linearGradient id="SVGID_12_" gradientUnits="userSpaceOnUse" x1="228.8158" y1="91.499" x2="223.1336" y2="90.0484" gradientTransform="matrix(1 0 0 -1 -86.05 448.37)">
			<stop  offset="0" style="stop-color:#3773B9"/>
			<stop  offset="1" style="stop-color:#003C76"/>
		</linearGradient>
		<path class="st25" d="M147.2,355.4l-0.7,2c-2.2,3.2-9.9,2.8-9.9-0.1c0.1-0.5,0.2-1,0.3-1.5C138.6,357.7,144.2,357.7,147.2,355.4z"
			/>
		
			<linearGradient id="SVGID_13_" gradientUnits="userSpaceOnUse" x1="247.4008" y1="219.9406" x2="242.4589" y2="176.5934" gradientTransform="matrix(1 0 0 -1 -86.05 448.37)">
			<stop  offset="0" style="stop-color:#A77EF7"/>
			<stop  offset="1" style="stop-color:#5E65D6"/>
		</linearGradient>
		<path class="st26" d="M144.6,246.1c0.7,6-1.1,12,0.7,17.5c0.1,0.6,0.1,2.8,0.2,3.4c1.2,7.2,16.4,14.4,29,7.5
			c0.1-0.9,0-1.8,0.1-3.5c-0.2-1.5,0.4-3.2,0.4-4.1c0-3.9-1.2-5.9-0.6-10.2c1.2-8.8,6.1-17.3,3.4-24.2c-0.6-1.3-1.6-2.4-2.8-3.1
			c-3-2.4-18.4-10.3-23.1-10.8C138.3,216.8,143.9,239.5,144.6,246.1z"/>
		<path class="st27" d="M166.2,215.9c-0.2,2.5-0.1,5,0.3,7.4c-4.4-0.1-10.6-1.3-11.2-4.6c0-0.4,0.1-0.8,0.1-1.2l-0.2-0.1
			c-1.6-1.1-4.2-1.8-5.9-3.8c-2.7-3.1-4.1-7.2-2-11.4c3.9-7.6,13.2-7.7,18.4-1.6c1,1.2,0.3,2.4,0.9,3.6c0.1,0.2,0.5,0.3,1,0.7
			c0.7,0.6,2.6,5.3,2.6,7.8c0,1-2.3,2.4-3.3,3C166.6,215.8,166.4,215.9,166.2,215.9z"/>
		
			<linearGradient id="SVGID_14_" gradientUnits="userSpaceOnUse" x1="247.6109" y1="232.5702" x2="246.0803" y2="228.6986" gradientTransform="matrix(1 0 0 -1 -86.05 448.37)">
			<stop  offset="0" style="stop-color:#FF8A78"/>
			<stop  offset="1" style="stop-color:#FFA799"/>
		</linearGradient>
		<path class="st28" d="M166.2,215.9c-0.2,2.5-0.1,5,0.3,7.4c-4.4-0.1-10.6-1.3-11.2-4.6c0-0.4,0.1-0.8,0.1-1.2l-0.2-0.1
			c-3.4-3.1,1.1-6.7,6.8-3.6C162.9,215.2,164.5,216,166.2,215.9z"/>
		
			<linearGradient id="SVGID_15_" gradientUnits="userSpaceOnUse" x1="252.8252" y1="243.3838" x2="250.5543" y2="239.0321" gradientTransform="matrix(1 0 0 -1 -86.05 448.37)">
			<stop  offset="0" style="stop-color:#FFB89E"/>
			<stop  offset="1" style="stop-color:#FFA799"/>
		</linearGradient>
		<path class="st29" d="M170.1,212.8c0,0.4-1.8,1.1-2.6,1.2c0.5-4.7-4-5.4-3.3-10c0.4-2.8-2.4-3.7-1.3-5.8c1,0.7,2,1.5,2.8,2.5
			c1,1.2,0.3,2.4,0.9,3.6c0.1,0.2,0.5,0.3,1,0.7C168.2,205.6,170.2,210.3,170.1,212.8z"/>
		<path class="st30" d="M164,210.9c-0.1-1-0.5-1.3-0.9-1c-0.5,0.6-0.8,1.5-0.6,2.3c0.2,1.7,1.8,3.3,2.9,1.9c-1.2,0.6-1.8-0.9-1.8-2
			C163.5,211.3,163.7,210.7,164,210.9z"/>
		<path class="st31" d="M163.6,211.5c0.7,0.5,0.9,0.8,0.9,1.1s-0.2,0.5-0.7,0.3C163.6,212.5,163.5,212,163.6,211.5z"/>
		<path class="st0" d="M155.2,218.6c-1.3,0.4-2.5,1.8-2.3,2.6c1.3,5.3,11,6.5,17.1,5.2c0.1,0-2.3-3.1-3.4-3.5
			C162.8,223.3,156.4,221.7,155.2,218.6z"/>
		<path class="st32" d="M154.8,218.3c-1.6-1.7-4.3-2.5-6.1-4.6c-1.8-2-3.6-5-2.5-8.1c-2-6.4,4.9-11.5,10.8-12.6
			c2.5-0.5,4.9,1,5.4,3.5c0.2,1.1,0.1,2.2-0.5,3.2c1.1,1.3,1.6,3,1.4,4.7c-0.4,1.1-0.3,2.4,0.3,3.4c0.5,1.1,1.6,3.7-0.5,2
			c-1.3-1.1-2.3,1.3-1.8,2.9c0.3,1,0.4,2.1,0.3,3.2C161.2,219.3,155.7,219.2,154.8,218.3z"/>
		
			<linearGradient id="SVGID_16_" gradientUnits="userSpaceOnUse" x1="248.0173" y1="253.9807" x2="238.0033" y2="248.2484" gradientTransform="matrix(1 0 0 -1 -86.05 448.37)">
			<stop  offset="0" style="stop-color:#8A4791"/>
			<stop  offset="1" style="stop-color:#562E65"/>
		</linearGradient>
		<path class="st33" d="M148.1,202.7c-1.4-6.2,6.8-9.3,10-9.4s5.8,5.2,1.9,7C157.4,201.5,152.3,199.2,148.1,202.7z"/>
		
			<linearGradient id="SVGID_17_" gradientUnits="userSpaceOnUse" x1="306.1526" y1="240.3204" x2="308.2134" y2="237.4593" gradientTransform="matrix(1 0 0 -1 -86.05 448.37)">
			<stop  offset="0" style="stop-color:#FFB89E"/>
			<stop  offset="1" style="stop-color:#FFA799"/>
		</linearGradient>
		<path class="st34" d="M218.5,214.3c0.5-0.2,1.6,0.4,3.4,0c1.6-0.5,3-1.5,4-2.9c1-3.2,2.6-11.6,0.7-11.1c-0.4,1.5-1.3,2.8-2.5,3.7
			c-1.4,0.9-3.1,1.5-4.8,1.6h0.1c2.6-0.4,4.4-1.4,3.4-3c-1,0.5-2,0.8-3.1,0.9c-3.2,0.2-4.6,3.1-5.3,5c-0.7,1.3-1.6,2.6-2.7,3.7
			l2.5,5.2C215.6,216.2,217,215.2,218.5,214.3z"/>
		<path class="st20" d="M175.6,251c1.7-6.2,3.8-12.1,1.8-17.1c-0.6-1.3-1.5-2.4-2.7-3.1c-1.4-1.2-3.5-1.1-4.8,0.3
			c-0.1,0.1-0.2,0.3-0.3,0.4C164.6,237.9,168.5,247.4,175.6,251z"/>
		
			<linearGradient id="SVGID_18_" gradientUnits="userSpaceOnUse" x1="278.5915" y1="220.9523" x2="282.393" y2="208.2572" gradientTransform="matrix(1 0 0 -1 -86.05 448.37)">
			<stop  offset="0" style="stop-color:#A77EF7"/>
			<stop  offset="1" style="stop-color:#5E65D6"/>
		</linearGradient>
		<path class="st35" d="M172.1,229.3c0.8-0.4,18.7-2.8,21.9-3c1.8-2,10-10.3,14.5-12.5c0.9-0.3,1.7-0.7,2.5-1.2
			c0.6-0.5,1.3-1.2,1.6-1.5c1.4,0.4,3.1,2.3,4.1,4.2c-0.5,0.7-1.1,1.4-1.6,2.2c-0.4,0.6-0.5,2.1-0.9,2.7c-2.4,3.7-7.9,8.5-11,11.8
			c-1.2,1.6-2.7,2.8-4.4,3.7c-1.3,0.6-3.1,1.4-4.7,2c-3.3,1.3-11.4,4.6-17.2,5.6C166.3,245,165.1,232.6,172.1,229.3z"/>
		
			<linearGradient id="SVGID_19_" gradientUnits="userSpaceOnUse" x1="404.3148" y1="179.9571" x2="386.7479" y2="245.7332" gradientTransform="matrix(1 0 0 -1 -86.05 448.37)">
			<stop  offset="0" style="stop-color:#965CF2"/>
			<stop  offset="1" style="stop-color:#FF8ADC"/>
		</linearGradient>
		<path class="st36" d="M290,216.7c0.7-5.5,4.9-7.9,9.3-5.4l39.2,22.9l-6.2,49.5l-4.6,3l-35.7-20.8c-4.4-2.6-7.4-9.1-6.7-14.7
			L290,216.7z"/>
		<path class="st0" d="M269.7,434.7l38.8-22.1c4.2-1.9,10.3-3.5,14.6-1.2c3.9,2,10.4,6.2,13.2,7.8c2.2,1.2,9.7,5.8,5,8.3
			c-13.8,7.5-27.5,16-41.5,23.6c-2.7,1.5-6.5,2-10.6,1.6c-4-0.3-7.9-1.5-11.5-3.4l-6.9-4c-3-1.8-4.7-3.9-4.8-5.8
			S267.1,435.9,269.7,434.7z"/>
		<path class="st27" d="M318.5,277.8c-0.7-0.6-0.9-1.6-0.5-2.5c0.5-0.9,2.6-2.1,2.7-2.3s0.6-2.7,2.2-2c-0.2,1-0.4,2-0.8,2.9
			C321.5,274.7,319.4,278,318.5,277.8z"/>
		<path class="st27" d="M322.1,273.8c-1.7,1.2-4,0.8-4.4,2.7c-0.2,0.9-0.3,1.7-0.3,2.6c0.9,0.9,2.1,1.5,3.4,1.8
			c0.1-0.2,0.2-0.5,0.4-0.7c0.6-0.8,1.4-1.3,3.4-2.2s2.3-1.3,2.8-5.4c0.4-3,0.5-4.7-0.7-5.3C323.6,265.9,323.9,271.4,322.1,273.8z"
			/>
		<path class="st37" d="M320,279.3c-0.1,0.5-0.2,1-0.3,1.4c0.4,0.1,0.7,0.3,1.1,0.3c0.1-0.2,0.2-0.5,0.4-0.7
			c0.6-0.8,1.4-1.3,3.4-2.2s2.3-1.3,2.8-5.4c0.2-2,0.4-3.4,0.1-4.3c-0.2-0.4-0.9-0.3-1,0.3c-0.3,2.9-0.2,5-1.3,7
			C324.6,276.5,320.4,277.3,320,279.3z"/>
		<path class="st37" d="M322.2,273.9c0.2,0.6,0.9,0.7,0.4,0.8c-2.6,0.8-3.4,1.6-3.6,3.6c0.9-1.7,2.5-2.9,4.4-3.4l1.4,0.3
			C323.8,274.7,323.1,274.4,322.2,273.9z"/>
		
			<linearGradient id="SVGID_20_" gradientUnits="userSpaceOnUse" x1="399.9102" y1="154.0609" x2="410.4744" y2="159.9733" gradientTransform="matrix(1 0 0 -1 -86.05 448.37)">
			<stop  offset="0" style="stop-color:#1C8EF4"/>
			<stop  offset="1" style="stop-color:#00CFDD"/>
		</linearGradient>
		<path class="st38" d="M298,305.3c1-1.3,3.5-2.1,5.1-3.3c2.7-2,5.8-4.8,8.6-6.4c0-2.1,4.2-14.2,5.2-16.5c1.1-0.2,3.2,0.6,4.6,1.5
			c-0.9,4.7-0.8,10.8-2.1,15c-0.1,1-0.3,2-0.6,3c-1,1.6-2.1,3.1-3.4,4.4c-1.9,2-6.2,6.8-9.9,9.5c-2.7,1.9-4.2,1.6-5.5,0.8
			C296.7,311.3,296,307.9,298,305.3z"/>
		<path class="st27" d="M290.8,404.6c-0.1,2.1-0.6,4.2-1.5,6.1c-0.4,0.4-0.9,0.7-1.2,1.2c-1.3,2.7-1.6,5.3-0.7,19.3l3.3,0.1l0.4-4.9
			c0.4-2,1.5-4.9,2-6.7c1-3.9,1.1-5.9,1.7-8.8L290.8,404.6z"/>
		<path class="st39" d="M284,421.4c-0.4,0-0.7-0.1-1.1-0.2c-0.2-0.2-0.5-1.1-0.3-1.3C283,419.6,283.8,421.1,284,421.4z"/>
		<path class="st40" d="M285.7,415.8c0.4,1.3-0.2,2.5-0.6,3.7c-1.4,4.5-2.2,4.8-1.6,6.8c0.4,1.3,1.1,2.6,2,3.6
			c0.6,0.9,1.4,1.8,2.3,2.5c1.7,1.2,3.2,1.7,2.9-0.6c-0.1-0.8-0.3-1.5-0.6-2.2c-1.2-2.8-2.6-4.1-1.9-7.6c0.6-2.6,1.5-4.3,0.3-6.1
			L285.7,415.8z"/>
		<path class="st41" d="M286,413c-0.5,2.6-1.7,5-3.5,6.9c0.3-0.1,1,0.6,1.4,1.4c2.8-3.3,4.2-4.8,5.1-3.4c-0.2,1.7-0.5,3.3-0.9,5
			c-0.2,0.9-0.2,1.7,0.1,2.6c1.1,2.7,3.2,6.6,2.4,7.8c0.4-0.8,0.6-1.7,0.6-2.5c0-1.8-0.3-4.3-0.4-5.9c0-2.1,0.7-3.9,0.9-6.7
			c0-0.8,0-1.6,0-2.4c-0.1-2-0.3-4.6-1.7-5.4c-0.8-0.2-1.7-0.1-2.5,0.3C286.6,411.2,286.1,412,286,413z"/>
		
			<linearGradient id="SVGID_21_" gradientUnits="userSpaceOnUse" x1="397.132" y1="96.6086" x2="374.0529" y2="54.2118" gradientTransform="matrix(1 0 0 -1 -86.05 448.37)">
			<stop  offset="0" style="stop-color:#3E4795"/>
			<stop  offset="1" style="stop-color:#273088"/>
		</linearGradient>
		<path class="st42" d="M305.3,377.5l10-28.9l0.3-7.9c-0.1-1.1-0.4-2.2-1-3.2c-5.3,1.6-8.2,3.2-13.9,3c-1.7,2.5-4,7.2-4.1,10.8
			c-0.2,6.9,0.4,11.6-1.8,23.2c-6.3,21.2-3,20.5-5.4,34.6c-0.2,1.5,4.4,2.7,6,1.8L305.3,377.5z"/>
		<path class="st23" d="M305.3,377.5l10-28.9l0.3-7.9c-0.1-1.1-0.4-2.2-1-3.2c-1.1,0.3-2,0.6-2.9,0.9l-5.9,9.4
			c-2.3,4.6-2.8,10.5-4.5,11.9c1.9,4.5,1.1,13.5,0.4,18.5c-1.9-0.6-3.6-0.9-5.5-1.6c1.3,1.1,3.6,2.1,5,3.5
			c-2.2,8.6-3.7,17.3-4.3,26.2L305.3,377.5z"/>
		<path class="st27" d="M309.2,416.2c-0.1,2.2-2.2,4.4-2.4,5.8c-0.6,3.3,1.8,1.6,4.5,5.8c1.1,0,3.5,3.9,6.7,4.1
			c0.9-0.3,1.4-1.3,1.1-2.2c-0.1-0.3-0.3-0.6-0.5-0.8c-0.7-0.4-1.2-0.1-1.8-0.6c-1.1-1-2.4-9.1-2.2-11.5L309.2,416.2z"/>
		<path class="st41" d="M308,419.5c2.6,0.3,5.1,6.7,7.1,9.5c1,1.4,3.1,0,2.2-0.4c1.1-0.1,2.1-0.1,3.2,0c1.7,0.3,1.1,1.9,0,2.7
			c-2.5,1.7-4.7,2.7-7,1.6c-0.5-0.3-0.9-0.6-1.4-0.9c-0.3-0.2-0.6-0.5-0.9-0.8c-0.7-0.9-1-2.3-1.7-3.5c-0.2-0.4-0.4-0.5-0.5-0.4
			c-0.3,0.4,0,6.2,0.1,7.3c-0.1,0.3-1.2,0.6-1.4,0.3l-2.1-10.3c-0.2-0.9-0.1-1.8,0.3-2.6C306.5,421.1,307.2,420.3,308,419.5z"/>
		<path class="st40" d="M314.9,433.3c-0.5-0.1-0.9-0.2-1.3-0.4c-0.5-0.3-0.9-0.6-1.4-0.9c-0.3-0.2-0.6-0.5-0.9-0.8
			c-0.8-1-1.2-2.7-2.1-3.9c0.3-0.2,1.1-0.2,1.8,1.1c1.2,2.1,2,3.7,3.5,4.7C314.6,433.1,314.7,433.2,314.9,433.3z"/>
		
			<linearGradient id="SVGID_22_" gradientUnits="userSpaceOnUse" x1="406.3643" y1="90.6977" x2="389.4076" y2="48.3209" gradientTransform="matrix(1 0 0 -1 -86.05 448.37)">
			<stop  offset="0" style="stop-color:#3E4795"/>
			<stop  offset="1" style="stop-color:#273088"/>
		</linearGradient>
		<path class="st43" d="M322.7,371.4c1.2-5.8,1.6-11.8,0.9-17.7c-0.2-3.2,0.2-4.8-0.9-7.9c-0.4-1.1-0.9-2.2-1.5-3.2
			c-5,1.5-8.8,3.1-14.4,2.9c-1.6,2.9-2.3,6.2-2,9.5c0.9,6.9,3.3,12.6,4.1,24.5c-2,13.9-0.5,23.2-0.2,36.7c0,1.5,4.9,2.7,6.3,1.8
			C317.9,402,319.7,386.8,322.7,371.4z"/>
		
			<linearGradient id="SVGID_23_" gradientUnits="userSpaceOnUse" x1="395.8636" y1="140.1419" x2="395.2433" y2="106.5286" gradientTransform="matrix(1 0 0 -1 -86.05 448.37)">
			<stop  offset="0" style="stop-color:#1C8EF4"/>
			<stop  offset="1" style="stop-color:#00CFDD"/>
		</linearGradient>
		<path class="st44" d="M301.9,306.9c-5.9-0.7-5.9,9-3.9,13.6c5.3,11.9,1.9,13.7,2.4,19.1l-0.1,2.2c5.1,7.5,19.7,6.9,21.5,1.5
			c-0.1-0.3-0.2-1.8-0.3-2.1c0.4-4.8-1.9-8.5-1.5-11.8c0.7-5.5,3.7-7.4,2.1-12c-2.2-2.4-4.7-4.5-7.6-6
			C310.5,309.2,306.3,307.7,301.9,306.9z"/>
		<path class="st27" d="M347.6,288.7c-1.8,1-4,0.4-4.7,2.2c-0.3,0.8-0.5,1.7-0.6,2.6c0.8,1,1.9,1.7,3.1,2.2c0.1-0.2,0.2-0.4,0.4-0.6
			c0.7-0.7,1.5-1.1,3.6-1.8s2.4-1,3.3-5.1c0.7-3,1-4.6-0.1-5.4C350,280.9,349.6,286.4,347.6,288.7z"/>
		<path class="st37" d="M349.5,291.4c-1.8,1-4.1,0.6-4.7,2.4c-0.2,0.5-0.3,0.9-0.4,1.4c0.3,0.2,0.7,0.3,1.1,0.5
			c0.1-0.2,0.2-0.4,0.4-0.6c0.7-0.7,1.5-1.1,3.6-1.8s2.4-1,3.3-5.1c0.5-2,0.8-3.4,0.6-4.3c-0.1-0.5-0.9-0.4-1,0.2
			C351.6,287.2,351.5,289.2,349.5,291.4z"/>
		<path class="st37" d="M352.2,283.2c-0.4,1.7-1.2,3.3-2.2,4.7c-0.4,0.6-0.5,1.1-1.1,1.5c-0.3,0.1-0.7-0.3-1.2-0.7
			c0.1,0.6,0.4,1-0.1,1.1c-3.3,0.6-3.7,1.4-4.1,4.7l0,0c1.2-2.4,2.5-2.4,4.4-3.4l1.2-1C350.6,288.2,351.7,285.8,352.2,283.2z"/>
		
			<linearGradient id="SVGID_24_" gradientUnits="userSpaceOnUse" x1="399.4659" y1="136.1597" x2="431.2285" y2="143.6527" gradientTransform="matrix(1 0 0 -1 -86.05 448.37)">
			<stop  offset="0" style="stop-color:#1C8EF4"/>
			<stop  offset="1" style="stop-color:#00CFDD"/>
		</linearGradient>
		<path class="st45" d="M317.2,313.8c1.3-1,3.9-1.2,5.8-2c3.1-1.3,6.8-3.2,9.9-4.1c0.5-2,7.5-12.8,9-14.8c1.1,0.1,3,1.4,4.1,2.6
			c-2.1,4.3-3.5,10.3-5.7,14c-0.3,0.9-0.8,1.9-1.3,2.7c-1.3,1.3-2.8,2.5-4.4,3.4c-2.3,1.4-7.7,5.1-11.9,6.8
			c-3.1,1.2-3.2-1.3-4.3-2.4C316.9,317,314.5,315.8,317.2,313.8z"/>
		<path class="st46" d="M301.9,306.9c-5.9-0.7-5.9,9-3.9,13.6c5.3,11.9,1.9,13.7,2.4,19.1l-0.1,2.2c5.1,7.5,19.7,6.9,21.5,1.5
			c-0.1-0.3-0.2-1.5-0.3-2c-5.3,5.1-13,3.8-17.6,1c-0.4-1.2-0.3-2.5,0.1-3.7c3.7-4,12.7-2.5,14.9-13.4c0.7-3.2,0.1-6.5-1.9-9.2
			c-1-1.2-3.3-1.1-4.6-2.9c-2.1,0.5-6.1-0.2-6.5-1.1c-0.2-0.3,0.7-3,0.5-3.3C302.8,307.2,304,307.1,301.9,306.9z"/>
		
			<linearGradient id="SVGID_25_" gradientUnits="userSpaceOnUse" x1="394.9635" y1="145.1539" x2="397.8346" y2="140.5421" gradientTransform="matrix(1 0 0 -1 -86.05 448.37)">
			<stop  offset="0" style="stop-color:#FF8A78"/>
			<stop  offset="1" style="stop-color:#FFA799"/>
		</linearGradient>
		<path class="st47" d="M304.1,310.1c0,2,7.3,2.4,9.4,0.8l-0.1-0.5c-0.3-3-0.7-5.3-0.1-7.5c1.2,0.2,3.9-0.3,4.1-0.7
			c-8.6-4.1-18-6.4-18.4-3.2c1.2,2,3.4,3,4.7,4.2c0.4,0.5,0.8,1.1,0.9,1.8l0,0C304.7,306.7,304.5,308.4,304.1,310.1z"/>
		<path class="st27" d="M317.5,302.2c-0.5,0.6-5.3,0.1-5.7,0.2c-3.4,1-7.2,1.6-8.1,0.7c-1.3-1.2-3.5-2.2-4.7-4.2
			c-1.9-3.1-2.6-7-0.2-10.3c4.3-5.9,13.5-4.5,15.9,0.5c1,2,0.4,2.4,0.9,3.8c0.8,2.6,0.9,1.5,1.6,5.8
			C317.6,300.3,317.8,301.9,317.5,302.2z"/>
		<path class="st48" d="M304.8,307c0.2,1.8,5.1,3,8.1,2.3c0.3-0.1,0.5-0.1,0.6-0.3c0.8,0.8,1.4,1.8,1.8,2.8
			c-2.6,2.5-10.8,1-11.8-1.9C303.1,308.8,303.6,307.5,304.8,307C304.7,307,304.7,307,304.8,307z"/>
		
			<linearGradient id="SVGID_26_" gradientUnits="userSpaceOnUse" x1="392.2924" y1="159.4696" x2="385.8699" y2="119.7638" gradientTransform="matrix(1 0 0 -1 -86.05 448.37)">
			<stop  offset="0" style="stop-color:#5A2D68"/>
			<stop  offset="1" style="stop-color:#22043D"/>
		</linearGradient>
		<path class="st49" d="M288.6,304.9c-4.1,4.9-5.6,12.4-2.9,15.9c2.5,3.1,7.5,4.1,6.4,6.7c-0.9,2.1-3.4,4.7,0.4,6.9
			c2,1.2,6.8,4.3,15.1,0.2c8.1-4,15.7-13.2,7.5-19.3c-8.7-6.4-4.6-9.3-1.4-16.7c1.7-3.9,2.7-11.1,0.4-13.2c-4-3.5-5.7,0.1-9.1-0.7
			c-6.5-1.5-11.2,1.7-13.3,6.9C289.7,296.2,291.8,301,288.6,304.9z"/>
		<path class="st4" d="M295,218.9c0.3-1.9-0.3-3.1,0.7-4.2c1-0.8,2.1-1.5,3.3-1.9c1.8-0.6,3.7-0.3,5.3,0.7l55,32.1
			c4.4,2.6,7.4,9.1,6.7,14.7l-3.8,27.8c-0.1,1.9-0.9,3.8-2.3,5.2c-1.1,1-2.5,1.7-4,2c-1.3,0.2-1.6-1-3-1.8l-55-32.2
			c-4.4-2.6-7.4-9.1-6.7-14.7L295,218.9z"/>
		<path class="st5" d="M293.6,219.7c0.7-5.5,4.9-7.9,9.3-5.4l55,32.1c4.4,2.6,7.4,9.1,6.7,14.7l-3.8,27.8c-0.7,5.5-4.9,7.9-9.3,5.4
			l-55-32.1c-4.4-2.6-7.4-9.1-6.7-14.7L293.6,219.7z"/>
		
			<linearGradient id="SVGID_27_" gradientUnits="userSpaceOnUse" x1="414.5695" y1="203.6761" x2="416.9805" y2="223.0738" gradientTransform="matrix(1 0 0 -1 -86.05 448.37)">
			<stop  offset="0" style="stop-color:#6D6AFE"/>
			<stop  offset="1" style="stop-color:#3FB0F7"/>
		</linearGradient>
		<path class="st50" d="M293.6,219.7c0.7-5.5,4.9-7.9,9.3-5.4l55,32.1c4.4,2.6,7.4,9.1,6.7,14.7l-0.4,2.6c-0.5-0.4-1-0.7-1.5-1
			l-69.5-40.6L293.6,219.7z"/>
		<path class="st7" d="M303.3,236.7c5.6,1.3,9.9,7.9,9.6,14.9c-0.3,6.9-5.1,11.5-10.7,10.2s-9.9-7.9-9.6-14.9
			S297.7,235.4,303.3,236.7z"/>
		
			<linearGradient id="SVGID_28_" gradientUnits="userSpaceOnUse" x1="387.5429" y1="193.912" x2="390.2639" y2="205.6466" gradientTransform="matrix(1 0 0 -1 -86.05 448.37)">
			<stop  offset="0" style="stop-color:#6D6AFE"/>
			<stop  offset="1" style="stop-color:#3FB0F7"/>
		</linearGradient>
		<path class="st51" d="M303,242.5c3,0.7,5.3,4.3,5.2,8c-0.2,3.7-2.7,6.2-5.8,5.5c-3-0.7-5.3-4.3-5.2-8
			C297.4,244.3,300,241.8,303,242.5L303,242.5z M302.8,245.7c-1.6-0.4-3,0.9-3.1,2.9c-0.1,2,1.1,3.9,2.7,4.3c1.6,0.4,3-1,3.1-2.9
			C305.7,248,304.5,246.1,302.8,245.7L302.8,245.7z"/>
		<path class="st7" d="M316.2,250.1c0.2-1.5,1.3-2.1,2.5-1.4l35.9,20.3c1.3,0.9,1.9,2.4,1.8,4l-0.4,2.9c-0.2,1.5-1.3,2.1-2.5,1.4
			L317.6,257c-1.3-0.9-1.9-2.4-1.8-4L316.2,250.1z"/>
		<path class="st7" d="M314.8,260.8c0.1-0.9,0.8-1.2,1.5-0.8l21.2,12c0.7,0.5,1.2,1.4,1.1,2.3l-0.2,1.7c-0.1,0.9-0.8,1.2-1.5,0.8
			l-21.2-12c-0.7-0.5-1.2-1.4-1.1-2.3L314.8,260.8z"/>
		<path class="st5" d="M299.6,217.3c1.4,0.5,2.2,1.8,2.1,3.2c-0.1,1.5-1.1,2.5-2.3,2.2c-1.4-0.5-2.2-1.8-2.1-3.2
			C297.3,218,298.3,217,299.6,217.3z"/>
		<path class="st5" d="M305.1,220.5c1.4,0.5,2.2,1.8,2.1,3.2c-0.1,1.5-1.1,2.5-2.3,2.2c-1.4-0.5-2.2-1.8-2.1-3.2
			C302.9,221.2,303.9,220.2,305.1,220.5z"/>
		<path class="st5" d="M311.1,224c1.4,0.5,2.2,1.8,2.1,3.2c-0.1,1.5-1.1,2.5-2.3,2.2c-1.4-0.5-2.2-1.8-2.1-3.2
			C308.9,224.7,309.9,223.7,311.1,224z"/>
		<path class="st0" d="M398.9,180.9l-0.6,0.1c-9.9,1.9-20.8,10.5-24.6,19.9l2.8,4c0.9-2.2,2.1-4.2,3.5-6c0.3-0.3,0.5-0.6,0.8-1
			c4.9-5.8,11.5-10.1,18.9-12.1l0.4-0.1c5-1.2,11.8-1.3,15,3.3l-2.8-4C409.4,181,403.4,180.2,398.9,180.9z"/>
		<path class="st0" d="M420.5,180l0.3,0.4l0.2,0.4l0.2,0.5c0.1,0.1,0.1,0.3,0.2,0.4l0.2,0.5c0.1,0.1,0.1,0.3,0.1,0.4l0.2,0.5
			c0,0.1,0.1,0.3,0.1,0.4c0,0.2,0.1,0.4,0.1,0.5c0,0.2,0,0.3,0.1,0.5c0,0.2,0,0.4,0.1,0.6c0.1,0.2,0,0.3,0,0.5s0,0.5,0,0.7
			s0,0.3,0,0.4c0,0.1,0,0.5,0,0.8c0,0.1,0,0.2,0,0.3c0,0.4-0.1,0.9-0.1,1.3c0,0.1,0,0.2-0.1,0.3c-0.1,0.3-0.1,0.7-0.2,1
			c0,0.2-0.1,0.3-0.1,0.5c0,0.2-0.1,0.4-0.2,0.6l-0.2,0.6c-0.1,0.2-0.1,0.4-0.2,0.6l-0.2,0.6c-0.1,0.2-0.2,0.4-0.2,0.6
			c-0.1,0.2-0.2,0.4-0.2,0.6c-0.1,0.2-0.2,0.4-0.3,0.7c-0.1,0.2-0.2,0.5-0.4,0.8c-0.2,0.4-0.4,0.9-0.7,1.3s-0.5,0.9-0.7,1.3l2.8,4
			c0.5-0.9,1-1.8,1.4-2.7c0.1-0.1,0.1-0.3,0.2-0.4s0.1-0.3,0.2-0.4c0.1-0.1,0.2-0.4,0.3-0.7c0.1-0.2,0.2-0.4,0.2-0.6
			c0.1-0.2,0.2-0.4,0.2-0.6c0.1-0.2,0.1-0.4,0.2-0.6c0.1-0.2,0.1-0.4,0.2-0.6c0.1-0.2,0.1-0.4,0.2-0.6c0.1-0.2,0.1-0.4,0.2-0.6
			l0.1-0.3c0-0.1,0-0.2,0-0.2c0.1-0.4,0.1-0.7,0.2-1l0.1-0.4c0.1-0.4,0.1-0.9,0.1-1.3c0,0,0,0,0-0.1v-0.3c0-0.3,0-0.5,0-0.8
			c0-0.3,0-0.3,0-0.4c0-0.1,0-0.5,0-0.7c0-0.1,0-0.1,0-0.2c0-0.1,0-0.2,0-0.3s0-0.4-0.1-0.6s0-0.3-0.1-0.5c0-0.2-0.1-0.4-0.1-0.5
			c0-0.2,0-0.2-0.1-0.2l-0.1-0.2c0-0.2-0.1-0.3-0.1-0.5l-0.2-0.4c-0.1-0.2-0.1-0.3-0.2-0.5c0-0.1-0.1-0.2-0.1-0.3l-0.1-0.2
			c-0.1-0.2-0.1-0.3-0.2-0.5c-0.1-0.2-0.1-0.3-0.2-0.4c-0.1-0.1-0.2-0.3-0.3-0.4l-0.2-0.3l-0.2-0.2l-2.8-4
			C420.3,179.7,420.4,179.9,420.5,180z"/>
		
			<linearGradient id="SVGID_29_" gradientUnits="userSpaceOnUse" x1="473.8245" y1="266.0618" x2="484.2987" y2="246.484" gradientTransform="matrix(1 0 0 -1 -86.05 448.37)">
			<stop  offset="0" style="stop-color:#FA5DB1"/>
			<stop  offset="1" style="stop-color:#FEBFBF"/>
		</linearGradient>
		<path class="st52" d="M404.5,174c-14.8,1.3-31.9,13.2-38.2,26.6c-0.5,1-0.8,1.9-1.2,2.9l8.6-2.5c0.1-0.3,0.3-0.7,0.4-1
			c4.4-9.5,16.5-17.9,27-18.8c10.5-0.9,15.4,6.1,11,15.6c-0.2,0.4-0.4,0.7-0.5,1.1l7,0.9c0.5-0.9,1-1.8,1.4-2.7
			C426.2,182.6,419.3,172.7,404.5,174z"/>
		<path class="st53" d="M411.7,184.4c-3.6-5.3-13.5-4.6-20.5-1.3c-8.6,4.1-15.1,10.7-18.2,17.1c0,0-7.8,2.6-8,3.2l8.6-2.5
			c0.1-0.3,0.3-0.7,0.4-1c4.4-9.5,16.5-17.9,27-18.8C406,180.7,409.7,182,411.7,184.4z"/>
		<path class="st0" d="M418.2,197.8c0,0-6.4-0.4-6.6-0.1l7,0.9c0.5-0.9,1-1.8,1.4-2.7c3.3-7,2.9-13.1-0.3-17.1
			C424.7,186.8,418.7,197,418.2,197.8z"/>
		<path class="st0" d="M376.5,205c0,0-2.5-3.7-2.8-4c-3.1,7.1-1.7,10,3.1,14.6c-0.2-0.3-0.4-0.7-0.6-1c0-0.1-0.1-0.1-0.1-0.2
			C374.7,211.4,375.3,207.9,376.5,205z"/>
		<path class="st0" d="M421.4,202.7l-2.8-4c-6.5,11.2-40.6,31.4-52.6,18.3l2.8,4c2.8,4,8.3,6.2,15.7,5.6c0.9-0.1,1.7-0.2,2.6-0.3
			c0.3,0,0.6-0.1,0.9-0.2c0.7-0.1,1.3-0.2,1.9-0.4c2.4-0.6,4.8-1.4,7.1-2.4l0.3-0.1c8.8-3.8,16.4-9.9,22.1-17.6
			c0.2-0.2,0.4-0.5,0.5-0.7C420.5,204.2,421,203.4,421.4,202.7z"/>
		
			<linearGradient id="SVGID_30_" gradientUnits="userSpaceOnUse" x1="471.7514" y1="225.3664" x2="478.8242" y2="250.7265" gradientTransform="matrix(1 0 0 -1 -86.05 448.37)">
			<stop  offset="0" style="stop-color:#965CF2"/>
			<stop  offset="1" style="stop-color:#FF8ADC"/>
		</linearGradient>
		<path class="st54" d="M411.6,197.8c-4.8,9-16.4,16.8-26.5,17.7c-10.1,0.9-15-5.6-11.4-14.5l-8.6,2.5c-4.1,11.9,2.9,20.3,16.7,19.2
			c13.8-1.2,29.7-11.6,36.8-23.9L411.6,197.8z"/>
		<path class="st0" d="M381.9,222c-22.3,1.6-16.8-18.6-16.8-18.6c-4.1,11.9,2.9,20.3,16.7,19.2c13.8-1.2,29.7-11.6,36.8-23.9
			C418.6,198.7,404.4,220.2,381.9,222z"/>
		
			<linearGradient id="SVGID_31_" gradientUnits="userSpaceOnUse" x1="196.7849" y1="304.0517" x2="192.7934" y2="295.8585" gradientTransform="matrix(1 0 0 -1 -86.05 448.37)">
			<stop  offset="0" style="stop-color:#3964AF"/>
			<stop  offset="1" style="stop-color:#00BCCE"/>
		</linearGradient>
		<path class="st55" d="M128.6,160.2c0.2-3.2-0.7-6.3-2.5-8.9c-3.2-4.8-8.5-8.4-13.7-10.8c-10.7-5-24.8-8.1-27.8,6.4
			c0.1-0.2,0.2-0.4,0.3-0.6c1.6-2.4,4.1-4,6.9-4.5c1.5-0.3,3-0.5,4.6-0.5h0.5c4.6,0.2,9.2,1.3,13.4,3.3c5.1,2.4,10.4,6.2,13.6,10.9
			c0.5,0.7,0.9,1.5,1.3,2.2c1,1.9,1.5,4.1,1.4,6.2l0,0L128.6,160.2z"/>
		<path class="st56" d="M92.5,166.3L92,166c-0.7-0.5-1.4-1-2.1-1.5l-0.5-0.4c-0.8-0.6-1.6-1.3-2.3-1.9l-0.7-0.6l-0.8-0.7l-0.7-0.7
			l-0.7-0.8l-0.5-0.6c-0.4-0.4-0.8-0.9-1.1-1.3l-0.5-0.6c-0.5-0.6-1-1.2-1.4-1.9c-4.1-6.1-4.9-11.9-2.8-16.2l-1.9,3.9
			c-2.1,4.4-1.4,10.1,2.8,16.2c0.4,0.6,0.9,1.3,1.4,1.9l0.4,0.5c0.4,0.5,0.8,0.9,1.2,1.3l0.3,0.3l0.2,0.2l0.7,0.7
			c0.2,0.2,0.5,0.5,0.7,0.7c0.2,0.2,0.5,0.5,0.8,0.7s0.3,0.3,0.5,0.5l0.2,0.2c0.8,0.7,1.5,1.3,2.3,1.9l0.2,0.2l0.3,0.2
			c0.7,0.5,1.4,1,2.1,1.5l0.2,0.2l0.2,0.2l0,0L92.5,166.3z"/>
		
			<linearGradient id="SVGID_32_" gradientUnits="userSpaceOnUse" x1="196.73" y1="304.4348" x2="188.6969" y2="285.5974" gradientTransform="matrix(1 0 0 -1 -86.05 448.37)">
			<stop  offset="0" style="stop-color:#1C8EF4"/>
			<stop  offset="1" style="stop-color:#00CFDD"/>
		</linearGradient>
		<path class="st57" d="M133.6,151.2C125.3,139,106.9,130,92.3,131s-19.7,11.8-11.5,24c3.2,4.5,7.1,8.3,11.7,11.3l4.5-3.7
			c-3.3-2.1-6.2-4.9-8.5-8.1c-5.8-8.6-2.2-16.2,8.1-16.9c10.3-0.8,23.4,5.6,29.2,14.2c2.1,3,2.9,5.9,2.8,8.5l8.9,2.7
			C137.7,159.4,136.4,155.4,133.6,151.2z"/>
		<path class="st58" d="M133.1,151.2c2.2,3.1,3.3,6.8,3.2,10.6c-1.1-0.2-4.7-0.9-7.8-1.5l8.9,2.7c0.2-3.5-1-7.6-3.9-11.8
			c-7.3-10.7-22.5-19-36-20.1C111,132.3,126,140.5,133.1,151.2z"/>
		<path class="st59" d="M96.6,137.5c1.2-0.1,2.4-0.1,3.6,0c-1.4-0.1-2.7,0-4.1,0c-10.8,0-18.2,12.8-0.9,25.3c0,0-2.9,3.5-2.8,3.5
			l4.5-3.7c-3.3-2.1-6.2-4.9-8.5-8.1C82.7,145.9,86.3,138.3,96.6,137.5z"/>
		<path class="st60" d="M128.6,160.2l-1.9,3.9c-0.1,1-0.3,2.1-0.8,3l1.9-3.9C128.2,162.2,128.5,161.2,128.6,160.2z"/>
		<path class="st60" d="M134.7,169.8c-2.6,3-6.6,4.5-10.4,5.1l-0.6,0.1c-6.6,0.9-13.7-0.6-19.8-2.9c-4-1.5-7.8-3.5-11.4-5.8
			l-1.9,3.9c3.5,2.4,7.3,4.3,11.3,5.8l0.3,0.1c6,2.2,13.1,3.6,19.5,2.8c4.1-0.5,8.3-2,11.1-5.2c0.6-0.7,1.1-1.4,1.5-2.2
			c0-0.1,0.1-0.2,0.1-0.3l1.9-3.9C135.9,168.3,135.3,169.1,134.7,169.8z"/>
		
			<linearGradient id="SVGID_33_" gradientUnits="userSpaceOnUse" x1="206.1742" y1="276.0197" x2="194.4296" y2="293.6767" gradientTransform="matrix(1 0 0 -1 -86.05 448.37)">
			<stop  offset="0" style="stop-color:#6D6AFE"/>
			<stop  offset="1" style="stop-color:#3FB0F7"/>
		</linearGradient>
		<path class="st61" d="M137.5,162.9l-8.9-2.8c-0.3,4.6-4.2,8-10.9,8.5c-6.7,0.5-14.4-2-20.7-6.1l-4.5,3.7c8.9,6,20.1,9.5,29.6,8.8
			S137.1,169.6,137.5,162.9z"/>
		<path class="st62" d="M137.5,162.9c0,0-0.4,10.5-15.7,11.8c-14.1,1.1-29.3-8.4-29.3-8.4c8.9,6,20.1,9.5,29.6,8.8
			S137.1,169.6,137.5,162.9z"/>
	</g>
</g>
</svg>
