<?xml version="1.0" encoding="utf-8"?>
<!-- Generator: Adobe Illustrator 24.2.3, SVG Export Plug-In . SVG Version: 6.00 Build 0)  -->
<svg version="1.1" id="Layer_1" xmlns="http://www.w3.org/2000/svg" xmlns:xlink="http://www.w3.org/1999/xlink" x="0px" y="0px"
	 viewBox="0 0 500 500" style="enable-background:new 0 0 500 500;" xml:space="preserve">
<style type="text/css">
	.st0{fill-rule:evenodd;clip-rule:evenodd;fill:#202249;}
	.st1{fill-rule:evenodd;clip-rule:evenodd;fill:url(#SVGID_1_);}
	.st2{opacity:0.3;fill-rule:evenodd;clip-rule:evenodd;fill:#1E2353;enable-background:new    ;}
	.st3{fill-rule:evenodd;clip-rule:evenodd;fill:url(#SVGID_2_);}
	.st4{opacity:0.35;fill-rule:evenodd;clip-rule:evenodd;fill:#59CAAF;enable-background:new    ;}
	.st5{fill-rule:evenodd;clip-rule:evenodd;fill:url(#SVGID_3_);}
	.st6{fill-rule:evenodd;clip-rule:evenodd;fill:url(#SVGID_4_);}
	.st7{fill-rule:evenodd;clip-rule:evenodd;fill:#4A9FF8;}
	.st8{fill-rule:evenodd;clip-rule:evenodd;fill:#5858F0;}
	.st9{opacity:0.5;fill-rule:evenodd;clip-rule:evenodd;fill:url(#SVGID_5_);enable-background:new    ;}
	.st10{opacity:0.5;fill-rule:evenodd;clip-rule:evenodd;fill:url(#SVGID_6_);enable-background:new    ;}
	.st11{opacity:0.5;fill-rule:evenodd;clip-rule:evenodd;fill:url(#SVGID_7_);enable-background:new    ;}
	.st12{fill-rule:evenodd;clip-rule:evenodd;fill:#D0E7FF;}
	.st13{fill-rule:evenodd;clip-rule:evenodd;fill:url(#SVGID_8_);}
	.st14{opacity:0.5;fill-rule:evenodd;clip-rule:evenodd;fill:#FFFCF1;enable-background:new    ;}
	.st15{opacity:0.5;fill-rule:evenodd;clip-rule:evenodd;fill:url(#SVGID_9_);enable-background:new    ;}
	.st16{fill-rule:evenodd;clip-rule:evenodd;fill:url(#SVGID_10_);}
	.st17{fill-rule:evenodd;clip-rule:evenodd;fill:#FFFCF1;}
	.st18{fill-rule:evenodd;clip-rule:evenodd;fill:#FFFFFF;}
	.st19{fill-rule:evenodd;clip-rule:evenodd;fill:url(#SVGID_11_);}
	.st20{fill-rule:evenodd;clip-rule:evenodd;fill:url(#SVGID_12_);}
	.st21{fill-rule:evenodd;clip-rule:evenodd;fill:#FFDB59;}
	.st22{opacity:0.2;fill-rule:evenodd;clip-rule:evenodd;fill:url(#SVGID_13_);enable-background:new    ;}
	.st23{fill-rule:evenodd;clip-rule:evenodd;fill:url(#SVGID_14_);}
	.st24{opacity:0.2;fill-rule:evenodd;clip-rule:evenodd;fill:url(#SVGID_15_);enable-background:new    ;}
	.st25{fill-rule:evenodd;clip-rule:evenodd;fill:url(#SVGID_16_);}
	.st26{fill-rule:evenodd;clip-rule:evenodd;fill:url(#SVGID_17_);}
	.st27{fill-rule:evenodd;clip-rule:evenodd;fill:url(#SVGID_18_);}
	.st28{opacity:0.35;fill-rule:evenodd;clip-rule:evenodd;fill:#3469C0;enable-background:new    ;}
	.st29{fill-rule:evenodd;clip-rule:evenodd;fill:url(#SVGID_19_);}
	.st30{fill-rule:evenodd;clip-rule:evenodd;fill:url(#SVGID_20_);}
	.st31{fill-rule:evenodd;clip-rule:evenodd;fill:#FFA698;}
	.st32{fill-rule:evenodd;clip-rule:evenodd;fill:#FF9080;}
	.st33{opacity:0.5;fill-rule:evenodd;clip-rule:evenodd;fill:url(#SVGID_21_);enable-background:new    ;}
	.st34{fill-rule:evenodd;clip-rule:evenodd;fill:url(#SVGID_22_);}
	.st35{opacity:0.2;fill-rule:evenodd;clip-rule:evenodd;fill:url(#SVGID_23_);enable-background:new    ;}
	.st36{fill-rule:evenodd;clip-rule:evenodd;fill:url(#SVGID_24_);}
	.st37{opacity:0.35;}
	.st38{opacity:0.2;fill-rule:evenodd;clip-rule:evenodd;fill:#59CAAF;enable-background:new    ;}
	.st39{fill-rule:evenodd;clip-rule:evenodd;fill:url(#SVGID_25_);}
	.st40{fill-rule:evenodd;clip-rule:evenodd;fill:#6D6AFD;}
	.st41{fill-rule:evenodd;clip-rule:evenodd;fill:url(#SVGID_26_);}
	.st42{fill-rule:evenodd;clip-rule:evenodd;fill:url(#SVGID_27_);}
	.st43{fill-rule:evenodd;clip-rule:evenodd;fill:url(#SVGID_28_);}
	.st44{fill-rule:evenodd;clip-rule:evenodd;fill:url(#SVGID_29_);}
	.st45{fill-rule:evenodd;clip-rule:evenodd;fill:#FFA495;}
	.st46{fill-rule:evenodd;clip-rule:evenodd;fill:#193161;}
	.st47{fill-rule:evenodd;clip-rule:evenodd;fill:url(#SVGID_30_);}
	.st48{fill-rule:evenodd;clip-rule:evenodd;fill:url(#SVGID_31_);}
	.st49{fill-rule:evenodd;clip-rule:evenodd;fill:url(#SVGID_32_);}
	.st50{fill-rule:evenodd;clip-rule:evenodd;fill:url(#SVGID_33_);}
	.st51{fill-rule:evenodd;clip-rule:evenodd;fill:url(#SVGID_34_);}
	.st52{fill-rule:evenodd;clip-rule:evenodd;fill:#FF8978;}
	.st53{fill-rule:evenodd;clip-rule:evenodd;fill:url(#SVGID_35_);}
	.st54{fill-rule:evenodd;clip-rule:evenodd;fill:url(#SVGID_36_);}
	.st55{opacity:0.35;fill-rule:evenodd;clip-rule:evenodd;fill:#6266D7;enable-background:new    ;}
	.st56{fill-rule:evenodd;clip-rule:evenodd;fill:url(#SVGID_37_);}
	.st57{fill-rule:evenodd;clip-rule:evenodd;fill:url(#SVGID_38_);}
	.st58{fill-rule:evenodd;clip-rule:evenodd;fill:#FFB49C;}
	.st59{fill-rule:evenodd;clip-rule:evenodd;fill:#FF9D8E;}
	.st60{fill-rule:evenodd;clip-rule:evenodd;fill:#562E65;}
	.st61{fill-rule:evenodd;clip-rule:evenodd;fill:url(#SVGID_39_);}
	.st62{fill-rule:evenodd;clip-rule:evenodd;fill:url(#SVGID_40_);}
	.st63{fill-rule:evenodd;clip-rule:evenodd;fill:url(#SVGID_41_);}
</style>
<g>
	<g id="Layer_2_1_">
		<path class="st0" d="M291.9,150.1c0.2,0.1,0.5,0.2,0.8,0.4c1,2.5,1.4,3.2,1.2,3.5s-0.1,0.1-0.2,0.6c-0.1,0.7,2.3,3.6,2.7,4.6
			c0.3,0.8,0.4,1.7,0.1,2.5c-0.6,1.6-1.4,3.1-2.6,4.3c-1,1.1-2,1.8-2.9,1.5c-1.1-0.3-0.9-1.3-0.8-2.3c0.1-0.4,0.7-1.1,0.7-1.5
			c-0.3-2-1.8-3.7-2.8-5.5c-1.2-0.9-2.3-1.8-3.3-2.8c-1.2-1.4-1.5-2.9,0.1-3.8c0.5-0.3,1.7-1.7,2.4-1.6
			C288.3,150.2,290.3,149.2,291.9,150.1z"/>
		
			<linearGradient id="SVGID_1_" gradientUnits="userSpaceOnUse" x1="332.6384" y1="302.6525" x2="332.6284" y2="270.9125" gradientTransform="matrix(1 0 0 -1 -63.71 423.33)">
			<stop  offset="0" style="stop-color:#324179"/>
			<stop  offset="1" style="stop-color:#0C124D"/>
		</linearGradient>
		<path class="st1" d="M250.3,144.4c-0.8,2.3-0.2,4.3,1.6,5.2l0,0l0.2,0.1c0.2,0.1,0.4,0.1,0.6,0.2c2.2,0.6,5.4,1.2,7.4,1.6
			c8,1.5,19.9,2.5,25.5,4.6c2.2-1.6,2.8-4.6,1.4-6.4c-6.1-2.9-14.3-6.7-17.8-8c-0.9-0.3-1.9-0.5-2.9-0.5c5.1-4.6,10.6-9.7,12.7-13.9
			c1.5-3,1.7-7.2,2.8-9.9c-8.4,2.5-10-2.6-11.5-4.4c-1.3,1.9-1.3,1.6-2.6,3.7c-4.5,7-11.2,16.9-15.7,24.3
			C251.3,142,250.7,143.2,250.3,144.4z"/>
		<path class="st2" d="M277.7,145.3c-3.4-1.6-6.5-2.9-8.3-3.6c-0.9-0.3-1.9-0.5-2.9-0.5c5.1-4.6,10.6-9.7,12.7-13.9
			c1.5-3,1.7-7.2,2.8-9.9c-1.8,0.6-3.7,0.8-5.6,0.5l0.2,1.6c-6.5,6.4-18.2,21.4-19.3,31.2c4,0.9,14.8,2.3,16.5,2.5
			C274.2,150.4,276.1,148.1,277.7,145.3L277.7,145.3z M271.8,115c-0.5-0.7-1-1.4-1.4-1.9c-0.8,1.2-1.1,1.5-1.6,2.1L271.8,115z"/>
		<path class="st0" d="M276.7,182.6c1.2,1.6-2,9.8-2.8,11.6c-0.7,1.5-0.5,2.5,1.1,2.5c1.3,0,3.3-1.8,4.5-3c2.3-2.2,2.5-4.5,3.1-5.4
			l0.8-0.3c1.1-0.9,1.9-2.1,2.4-3.4c-0.2-0.8-0.5-1.5-0.9-2.3c-1.3-2.3-1.5-1.3-3.2-2.7C279.9,181,281.2,181.5,276.7,182.6z"/>
		
			<linearGradient id="SVGID_2_" gradientUnits="userSpaceOnUse" x1="337.9235" y1="300.6325" x2="337.9035" y2="246.5525" gradientTransform="matrix(1 0 0 -1 -63.71 423.33)">
			<stop  offset="0" style="stop-color:#324179"/>
			<stop  offset="1" style="stop-color:#0C124D"/>
		</linearGradient>
		<path class="st3" d="M261.6,154.5c3.4,6.7,12,21.7,15,28.4c2.7,0.6,5.4-1,5.6-3.1c-2-6.4-5.1-17-6.7-20.3
			c-1.3-2.6-2.9-5.1-4.7-7.4c5.1-7.1,13.2-18.4,15.5-24.9c3.2-9-0.5-14.1-5.4-16.9c-1.7-1-3.6,0.6-4.5-0.5c-2.3,4.7-4,9.5-5.2,14.6
			c-1.7,6.9-9.8,21.7-10.4,26.6c-0.1,1,0.1,1.9,0.5,2.8C261.4,154,261.5,154.3,261.6,154.5z"/>
		<path class="st4" d="M398.2,419.9L163.6,288c-3-1.4-7.3-2.6-10.2-0.9l-7.4,4.5c-1.5,0.9-6.4,3.9-3.1,5.7
			c9.7,5.3,226.3,127.8,236.1,133.1c2.3,1.1,4.9,1.4,7.4,1.1c2.8-0.2,5.6-1,8-2.4l3-1.8c2.1-1.3,3.3-2.7,3.4-4.1
			S400.1,420.7,398.2,419.9z"/>
		
			<linearGradient id="SVGID_3_" gradientUnits="userSpaceOnUse" x1="363.3405" y1="247.0976" x2="329.2905" y2="40.4277" gradientTransform="matrix(1 0 0 -1 -63.71 423.33)">
			<stop  offset="0" style="stop-color:#D1E8FF"/>
			<stop  offset="1" style="stop-color:#EAEFFF"/>
		</linearGradient>
		<path class="st5" d="M190.5,72.9c-1.6-1-3.5-1.2-5.3-0.6l-4,1.6c-1.4,7.5,204.4,349.7,206.3,351.6l3.5-1.3
			c2.3-0.9,3.5-3.3,3.9-5.7l29.9-204.2l0,0c0.4-3.5-0.5-7-2.4-9.9c-1-1.6-2.4-2.9-4-3.9L190.5,72.9z"/>
		
			<linearGradient id="SVGID_4_" gradientUnits="userSpaceOnUse" x1="383.1342" y1="286.2018" x2="303.6741" y2="31.6618" gradientTransform="matrix(1 0 0 -1 -63.71 423.33)">
			<stop  offset="0" style="stop-color:#6D6AFE"/>
			<stop  offset="1" style="stop-color:#3FB0F7"/>
		</linearGradient>
		<path class="st6" d="M414.6,202L186.6,74.4c-4.3-2.4-8.4-0.1-9.2,5.1l-29.9,204.2c-0.8,5.2,2.1,11.4,6.4,13.8l227.9,127.6
			c4.3,2.4,8.4,0.1,9.2-5.1L421,215.8C421.8,210.6,418.9,204.4,414.6,202z"/>
		<path class="st7" d="M414.6,202L186.6,74.4c-4.3-2.4-8.4-0.1-9.2,5.1l-1,6.9L420,222.8l1-7C421.8,210.6,418.9,204.4,414.6,202z"/>
		<path class="st8" d="M185.2,79.5c1.7,0.4,3.1,2.4,3,4.6s-1.6,3.6-3.3,3.2s-3.1-2.4-3-4.6S183.5,79.1,185.2,79.5z"/>
		<path class="st8" d="M193.1,84c1.7,0.4,3.1,2.4,3,4.6s-1.6,3.6-3.3,3.2s-3-2.4-3-4.6S191.3,83.6,193.1,84z"/>
		<path class="st8" d="M201.6,89c1.7,0.4,3.1,2.4,3,4.6s-1.6,3.6-3.3,3.2s-3.1-2.5-3-4.6S199.9,88.6,201.6,89z"/>
		
			<linearGradient id="SVGID_5_" gradientUnits="userSpaceOnUse" x1="419.7144" y1="119.8918" x2="439.7644" y2="162.0618" gradientTransform="matrix(1 0 0 -1 -63.71 423.33)">
			<stop  offset="0" style="stop-color:#965CF2"/>
			<stop  offset="1" style="stop-color:#FF8ADC"/>
		</linearGradient>
		<path class="st9" d="M386.8,272.8l-41-22.5c-2-1.2-4.4-1.5-6.6-0.7c-2.5,1-4.4,3.5-4.9,7.2l-4.6,33.3c-1,6.5,2.6,14.3,8.1,17.3
			l41,22.5c5.4,3,10.6,0.1,11.5-6.4l4.6-33.3C395.9,283.6,392.3,275.8,386.8,272.8z"/>
		
			<linearGradient id="SVGID_6_" gradientUnits="userSpaceOnUse" x1="417.0994" y1="194.4974" x2="454.2494" y2="248.7574" gradientTransform="matrix(1 0 0 -1 -63.71 423.33)">
			<stop  offset="0" style="stop-color:#965CF2"/>
			<stop  offset="1" style="stop-color:#FF8ADC"/>
		</linearGradient>
		<path class="st10" d="M326.9,155.7l89.8,43.8l-2.4,2.4l-8.6,60.2c-0.9,6.2-5.6,8.9-10.5,6.1l-84-48l-7.4-16.3L326.9,155.7z"/>
		
			<linearGradient id="SVGID_7_" gradientUnits="userSpaceOnUse" x1="242.2912" y1="139.1783" x2="265.5811" y2="189.9783" gradientTransform="matrix(1 0 0 -1 -63.71 423.33)">
			<stop  offset="0" style="stop-color:#965CF2"/>
			<stop  offset="1" style="stop-color:#FF8ADC"/>
		</linearGradient>
		<path class="st11" d="M214.2,248.6l-55.5-30.8l-1.9,2.8l-9.1,62.1l57.5,31.9c6.1,3.4,11.9,0.1,13-7.2l5.1-39.4
			C224.3,260.7,220.2,252,214.2,248.6z"/>
		<path class="st12" d="M211.7,262.3l-6.6,43.6l1.1,0.1l2.9-1.1c3.1-1.2,4.8-4.5,5.3-7.7l4.9-37.8l0,0c0.5-4.7-0.6-9.4-3.3-13.4
			c-1.3-2.2-3.2-3.9-5.4-5.2L95.4,177c-2.1-1.3-4.8-1.6-7.2-0.8l-2.5,1c-1.3,0.5-1.7,0.9-1.7,1C85.2,189.2,213.4,250.8,211.7,262.3z
			"/>
		
			<linearGradient id="SVGID_8_" gradientUnits="userSpaceOnUse" x1="213.9232" y1="194.4951" x2="204.6933" y2="168.0451" gradientTransform="matrix(1 0 0 -1 -63.71 423.33)">
			<stop  offset="0" style="stop-color:#1C8EF4"/>
			<stop  offset="1" style="stop-color:#00CFDD"/>
		</linearGradient>
		<path class="st13" d="M207.5,241.9l-115-63.8c-2.1-1.3-4.8-1.6-7.2-0.8c-2.7,1.1-4.7,3.8-5.3,7.7l-4.9,37.8
			c-1,7,2.8,15.4,8.7,18.6l115.1,63.8c5.8,3.2,11.4,0.1,12.4-6.9l4.9-37.8C217.3,253.5,213.4,245.1,207.5,241.9z"/>
		<path class="st14" d="M206.2,253.6L126.8,210c-0.5-0.3-1.1-0.4-1.7-0.2c-0.7,0.3-1.2,1-1.3,1.8l-0.4,2.6c-0.2,1.8,0.6,3.5,2.1,4.4
			l79.4,43.7c1.4,0.8,2.7,0,3-1.6l0.4-2.6C208.5,256.4,207.7,254.6,206.2,253.6L206.2,253.6z M162,263.9c1.5,1,2.3,2.7,2.1,4.5
			l-0.4,2.6c-0.3,1.7-1.6,2.4-3,1.6l-39.9-21.5c-1.5-1-2.3-2.7-2.1-4.5l0.4-2.6c0-0.8,0.5-1.5,1.3-1.8c0.6-0.2,1.2-0.1,1.7,0.2
			L162,263.9L162,263.9z M203.8,269.9c1.5,1,2.3,2.7,2.1,4.5l-0.4,2.6c-0.3,1.7-1.6,2.4-3,1.6L123.1,235c-1.5-1-2.3-2.7-2.1-4.4
			l0.4-2.6c0-0.8,0.5-1.5,1.3-1.8c0.6-0.2,1.2-0.1,1.7,0.2L203.8,269.9z"/>
		<path class="st14" d="M101.5,209.2c-3.8-2.1-7.7,0.7-7.7,6.2c0,2.8,1.1,5.5,3.1,7.5c0.5,0.4,1,0.8,1.5,1.1
			c3.7,2.1,7.7-0.7,7.7-6.1c0-2.8-1.1-5.5-3.1-7.5C102.5,209.9,102,209.5,101.5,209.2L101.5,209.2z M97.9,226.6
			c-0.7-0.4-1.4-0.9-2-1.5c-2.6-2.7-4.1-6.3-4.2-10.1c0-7.3,5.3-11.1,10.3-8.3c0.8,0.4,1.5,0.9,2.1,1.6c2.6,2.7,4.1,6.3,4.1,10.1
			C108.2,225.6,102.9,229.3,97.9,226.6L97.9,226.6z M115,220.4c0.9,0.6,1.4,1.8,1.2,2.9l-0.9,4.3c-0.2,1.1-1.1,1.6-2,1.1l-0.4-0.3
			c-0.6-0.4-1.4-0.2-1.7,0.4c0,0,0,0,0,0.1c-0.2,0.4-0.5,0.8-0.8,1.2c-0.5,0.7-0.5,1.6-0.2,2.4l0.2,0.6c0.5,1,0.2,2.1-0.6,2.8
			l-3.1,1.7c-0.4,0.2-0.9,0.2-1.3,0c-0.5-0.3-0.8-0.7-1-1.2l-0.2-0.6c-0.2-0.5-0.5-0.9-1-1.2c-0.2-0.1-0.5-0.2-0.7-0.2
			c-0.4,0-0.9,0-1.3-0.1c-0.7,0-1.4,0.5-1.5,1.3l-0.1,0.6c-0.2,1.1-1.1,1.6-2,1.1l-3.4-1.9c-0.9-0.6-1.4-1.7-1.2-2.9l0.1-0.6
			c0.2-0.9-0.1-1.8-0.7-2.5c-0.4-0.4-0.7-0.8-1.1-1.3c-0.2-0.2-0.4-0.4-0.7-0.6c-0.4-0.2-0.9-0.2-1.3,0l-0.4,0.2
			c-0.4,0.2-0.9,0.2-1.3,0c-0.5-0.3-0.8-0.7-1-1.2l-1.8-4.4c-0.5-1-0.2-2.1,0.6-2.8l0.4-0.2c0.7-0.5,1-1.3,0.8-2.1
			c-0.1-0.6-0.1-1.2-0.2-1.8c0-0.9-0.5-1.7-1.2-2.1l-0.4-0.3c-1-0.6-1.5-1.8-1.2-3l0.9-4.3c0.2-1.1,1.1-1.6,2-1.1l0.4,0.3
			c0.6,0.4,1.4,0.2,1.7-0.4c0,0,0-0.1,0-0.1c0.2-0.4,0.5-0.8,0.8-1.2c0.5-0.7,0.5-1.6,0.2-2.4l-0.2-0.6c-0.5-1-0.2-2.1,0.6-2.8
			l3.1-1.7c0.4-0.2,0.9-0.2,1.3,0.1c0.5,0.3,0.8,0.7,1,1.2l0.2,0.6c0.2,0.5,0.5,0.9,1,1.2c0.2,0.1,0.5,0.2,0.8,0.2
			c0.4,0,0.9,0,1.3,0.1c0.8,0.1,1.4-0.5,1.5-1.3c0,0,0,0,0,0l0.1-0.6c0.1-0.7,0.7-1.3,1.5-1.3c0.2,0,0.4,0.1,0.5,0.2l3.4,2
			c0.9,0.6,1.4,1.8,1.2,2.9l-0.1,0.6c-0.2,0.9,0.1,1.8,0.7,2.4c0.4,0.4,0.7,0.8,1.1,1.3c0.2,0.2,0.4,0.4,0.7,0.6
			c0.4,0.2,0.9,0.2,1.2,0l0.4-0.2c0.4-0.2,0.9-0.2,1.3,0c0.5,0.3,0.8,0.7,1,1.2l1.8,4.4c0.5,1,0.2,2.1-0.6,2.8l-0.4,0.2
			c-0.7,0.5-1,1.3-0.8,2.1c0.1,0.6,0.1,1.2,0.2,1.8c0,0.9,0.5,1.7,1.2,2.1L115,220.4z"/>
		
			<linearGradient id="SVGID_9_" gradientUnits="userSpaceOnUse" x1="245.2727" y1="267.9763" x2="264.1327" y2="331.0663" gradientTransform="matrix(1 0 0 -1 -63.71 423.33)">
			<stop  offset="0" style="stop-color:#965CF2"/>
			<stop  offset="1" style="stop-color:#FF8ADC"/>
		</linearGradient>
		<path class="st15" d="M201.2,104.6l-24.8-12l-9.8,61.3l-1.2,8.6l25.8,13.9c4.5,2.5,8.8,0.1,9.6-5.3l7.2-52.2
			C208.7,113.5,205.7,107.1,201.2,104.6z"/>
		<path class="st12" d="M198.2,119.2l-7.7,50l0.8,0.1l2.2-0.9c2.4-0.9,3.7-3.5,4-5.9l6.4-45.5l0,0c0.4-3.6-0.5-7.3-2.5-10.3
			c-1-1.7-2.5-3-4.1-4l-47.5-25.8c-1.6-1-3.7-1.2-5.5-0.6l-2,0.8c-1,0.4-1.3,0.7-1.3,0.7C141.9,86.2,199.4,110.4,198.2,119.2z"/>
		
			<linearGradient id="SVGID_10_" gradientUnits="userSpaceOnUse" x1="239.837" y1="331.5009" x2="218.337" y2="260.8709" gradientTransform="matrix(1 0 0 -1 -63.71 423.33)">
			<stop  offset="0" style="stop-color:#6D6AFE"/>
			<stop  offset="1" style="stop-color:#3FB0F7"/>
		</linearGradient>
		<path class="st16" d="M195,103.5l-47.5-25.8c-1.6-1-3.7-1.3-5.5-0.6c-2.1,0.8-3.6,2.9-4.1,5.9l-6.4,45.5
			c-0.8,5.4,2.2,11.8,6.7,14.3l47.5,25.8c4.5,2.5,8.8,0.1,9.6-5.3l6.4-45.5C202.4,112.4,199.4,106,195,103.5z"/>
		<path class="st17" d="M186.2,156.5l-47.7-25.6c-1.1-0.6-2.1,0-2.4,1.4c-0.2,1.4,0.4,2.7,1.6,3.5l47.7,25.6c1.1,0.6,2.2,0,2.4-1.4
			C188,158.6,187.3,157.2,186.2,156.5z M188.3,142.6c1.2,0.7,1.8,2.1,1.6,3.5c-0.2,1.4-1.3,2-2.4,1.4l-47.7-25.6
			c-1.2-0.7-1.8-2.1-1.6-3.5c0.2-1.4,1.3-2,2.4-1.4L188.3,142.6z M193.2,111.2l-47.7-25.6c-0.7-0.4-1.7-0.2-2.1,0.5
			c-0.1,0.2-0.2,0.5-0.2,0.8l-0.5,3.4c-0.2,1.4,0.4,2.7,1.6,3.5l47.7,25.6c0.7,0.4,1.7,0.2,2.2-0.5c0.1-0.2,0.2-0.5,0.2-0.8l0.5-3.4
			C195,113.2,194.4,111.9,193.2,111.2L193.2,111.2z M190.5,128.8c1.2,0.7,1.8,2.1,1.6,3.5c-0.2,1.4-1.3,2-2.4,1.4L142,108.1
			c-1.2-0.7-1.8-2.1-1.6-3.4c0.2-1.4,1.3-2,2.4-1.4L190.5,128.8z"/>
		<path class="st12" d="M384.7,288.3l-5.6,34.8l0.9,0.1l2.4-0.9c2.6-1,4-3.8,4.4-6.4l4.2-30l0,0c0.5-3.9-0.5-7.9-2.8-11.2
			c-1.1-1.8-2.7-3.3-4.5-4.4l-36.9-20.2c-1.8-1.1-4-1.4-6-0.7l-2.1,0.8c-1.1,0.4-1.4,0.7-1.4,0.8
			C338.3,260.4,386.1,278.8,384.7,288.3z"/>
		<path class="st18" d="M381.2,271.3l-36.9-20.2c-1.8-1.1-4-1.4-6-0.7c-2.2,0.9-3.9,3.1-4.4,6.5l-4.2,30c-0.9,5.9,2.4,12.9,7.3,15.6
			l36.9,20.2c4.9,2.7,9.5,0.1,10.4-5.8l4.2-30C389.3,281,386.1,274,381.2,271.3z"/>
		
			<linearGradient id="SVGID_11_" gradientUnits="userSpaceOnUse" x1="421.3348" y1="133.5611" x2="427.6448" y2="145.8111" gradientTransform="matrix(1 0 0 -1 -63.71 423.33)">
			<stop  offset="0" style="stop-color:#965CF2"/>
			<stop  offset="1" style="stop-color:#FF8ADC"/>
		</linearGradient>
		<path class="st19" d="M365.1,273.4c0.3,0.5,0.4,1.1,0.3,1.7c-0.2,0.8-0.4,1.5-0.7,2.2l-7.9,21.8c-0.3,0.7-0.5,1.3-0.6,1.7
			c-0.1,0.3-0.4,0.6-0.7,0.8c-0.3,0.1-0.6,0-1.1-0.3c-1.1-0.6-1.7-1.8-1.5-3c0.2-0.8,0.4-1.5,0.6-2.3l7.8-21.8
			c0.2-0.8,0.6-1.6,1-2.3c0.3-0.4,0.8-0.3,1.4,0.1C364.3,272.4,364.8,272.8,365.1,273.4L365.1,273.4z M367.2,279.1l-0.7,6.1
			l11.6,13.5l-13-1.6l-0.7,6.1l18.7,1.5l0.6-5.2L367.2,279.1L367.2,279.1z M334.5,274.4l16.5,20.3l0.7-6.1l-11.5-13.5l12.9,1.8
			l0.7-6.1l-18.7-1.5L334.5,274.4z"/>
		<path class="st18" d="M240,274.8c0.7-4.5,4.1-6.5,7.7-4.5l53.4,30.1c3.6,2.1,6,7.4,5.3,12l-7.1,48.3c-0.7,4.5-4.1,6.5-7.7,4.5
			l-53.4-30.1c-3.6-2.1-6-7.4-5.3-12L240,274.8z"/>
		
			<linearGradient id="SVGID_12_" gradientUnits="userSpaceOnUse" x1="281.7039" y1="194.3412" x2="266.524" y2="170.7312" gradientTransform="matrix(1 0 0 -1 0 502.58)">
			<stop  offset="0" style="stop-color:#FF66BC"/>
			<stop  offset="0.56" style="stop-color:#FF8ADC"/>
			<stop  offset="1" style="stop-color:#FFBBA8"/>
		</linearGradient>
		<polygon class="st20" points="246.5,324.1 265.1,298.2 268.7,325.6 277.8,315.8 283.1,345 		"/>
		<path class="st21" d="M277.2,299.4c2,0.4,3.5,2.7,3.4,5.2s-1.9,4.1-3.9,3.8s-3.5-2.7-3.4-5.2S275.2,299,277.2,299.4z"/>
		
			<linearGradient id="SVGID_13_" gradientUnits="userSpaceOnUse" x1="349.4813" y1="106.6593" x2="309.9113" y2="104.9593" gradientTransform="matrix(1 0 0 -1 -63.71 423.33)">
			<stop  offset="0" style="stop-color:#FF66BC"/>
			<stop  offset="0.56" style="stop-color:#FF8ADC"/>
			<stop  offset="1" style="stop-color:#FFBBA8"/>
		</linearGradient>
		<path class="st22" d="M244.3,281.7c0.6-3.8,3.4-5.4,6.4-3.7l44.4,25c3,1.7,5,6.2,4.4,9.9l-5.9,40.2c-0.5,3.8-3.4,5.4-6.4,3.7
			l-44.4-25c-3-1.7-5-6.2-4.4-9.9L244.3,281.7z"/>
		<path class="st18" d="M312.1,316.6c0.7-4.5,4.1-6.5,7.7-4.5l53.4,30.1c3.6,2.1,6,7.4,5.3,12l-7.1,48.4c-0.7,4.5-4.1,6.5-7.7,4.5
			L310.3,377c-3.6-2.1-6-7.4-5.3-12L312.1,316.6z"/>
		
			<linearGradient id="SVGID_14_" gradientUnits="userSpaceOnUse" x1="340.0387" y1="134.8137" x2="347.3387" y2="154.8837" gradientTransform="matrix(1 0 0 -1 0 502.58)">
			<stop  offset="0" style="stop-color:#965CF2"/>
			<stop  offset="1" style="stop-color:#FF8ADC"/>
		</linearGradient>
		<polygon class="st23" points="318.6,365.9 337.2,340.1 340.8,367.5 349.9,357.6 355.2,386.9 		"/>
		<path class="st21" d="M349.3,341.3c2,0.4,3.5,2.7,3.4,5.2s-1.9,4.1-3.9,3.7s-3.5-2.7-3.4-5.2S347.3,340.9,349.3,341.3z"/>
		
			<linearGradient id="SVGID_15_" gradientUnits="userSpaceOnUse" x1="405.6458" y1="47.2121" x2="402.9759" y2="97.2222" gradientTransform="matrix(1 0 0 -1 -63.71 423.33)">
			<stop  offset="0" style="stop-color:#965CF2"/>
			<stop  offset="1" style="stop-color:#FF8ADC"/>
		</linearGradient>
		<path class="st24" d="M316.4,323.6c0.5-3.8,3.4-5.4,6.4-3.7l44.4,25c3,1.7,5,6.2,4.4,9.9l-5.9,40.2c-0.5,3.8-3.4,5.4-6.4,3.7
			l-44.4-25c-3-1.7-5-6.2-4.4-9.9L316.4,323.6z"/>
		
			<linearGradient id="SVGID_16_" gradientUnits="userSpaceOnUse" x1="307.0651" y1="351.2425" x2="307.1151" y2="315.3825" gradientTransform="matrix(1 0 0 -1 -63.71 423.33)">
			<stop  offset="0" style="stop-color:#5A2D68"/>
			<stop  offset="1" style="stop-color:#22043D"/>
		</linearGradient>
		<path class="st25" d="M231.3,73.6c-4.8,2.8-2.5,9.2,1.9,16c6.1,9.7-8.7,20.6,11.5,26.1c-2.1-5.9,6.6-8.1,10.9-16.1
			c4.9-9.3,2.2-18.5-4.2-26.5C246.2,66.5,236.7,66.6,231.3,73.6z"/>
		
			<linearGradient id="SVGID_17_" gradientUnits="userSpaceOnUse" x1="308.0421" y1="290.0027" x2="306.5021" y2="290.5527" gradientTransform="matrix(1 0 0 -1 -63.71 423.33)">
			<stop  offset="0" style="stop-color:#FF8A78"/>
			<stop  offset="1" style="stop-color:#FFA799"/>
		</linearGradient>
		<path class="st26" d="M240.7,134.7l1.2,4.4c0.4,0.9,0.6,1.2,1.9,0.6c0.7-0.4,0.5-1.9,0.3-3c-0.2-0.9-0.2-1.9,0.1-2.8
			c0.1-0.5,0.4-0.9,0.9-1.1c0.8-0.6,1.8-1.1,1.2-3.1c-0.2-1-0.3-2-0.3-3l-2.8-0.2c0.1,2.5-1.1,4.2-2.2,6.3
			C240.3,133.7,240.4,133.5,240.7,134.7z"/>
		
			<linearGradient id="SVGID_18_" gradientUnits="userSpaceOnUse" x1="308.7942" y1="302.2126" x2="308.5742" y2="333.0026" gradientTransform="matrix(1 0 0 -1 -63.71 423.33)">
			<stop  offset="0" style="stop-color:#965CF2"/>
			<stop  offset="1" style="stop-color:#FF8ADC"/>
		</linearGradient>
		<path class="st27" d="M250.7,106.9v-0.1c0-0.2,0-0.4-0.1-0.6c-0.7-4.8-2.2-12.8-3.3-17c-2-7.3-8.2-4.8-8.2-0.4
			c0.1,4.1,3.9,13.1,4.8,17c-0.3,2.8-1.5,16.9-1.1,19.4c0.1,0.4,0.2,0.9,0.3,1.3c0,0.3-0.1,0.7-0.2,1c1.1,0.1,2.2,0.3,3.3,0.6
			c0-0.4,0.1-0.7,0.2-1.1c0.2-0.5,0.7-0.8,0.9-1.3c1.1-2.2,2.9-13.8,3.4-17.6C250.7,107.6,250.7,107.2,250.7,106.9z"/>
		<path class="st28" d="M249.9,111.3c0.5-1.8,0.8-3.7,0.9-5.6c0-2.9-1.1-5.3-1.4-7.2l-10.2-10.1c0.1,1.9,2.3,6.9,3.2,10.7
			C243.8,105,246.8,110,249.9,111.3z"/>
		
			<linearGradient id="SVGID_19_" gradientUnits="userSpaceOnUse" x1="328.4029" y1="309.2722" x2="321.0529" y2="332.6422" gradientTransform="matrix(1 0 0 -1 -63.71 423.33)">
			<stop  offset="0" style="stop-color:#965CF2"/>
			<stop  offset="1" style="stop-color:#FF8ADC"/>
		</linearGradient>
		<path class="st29" d="M281.3,112c-1.4,4.7-8.1,8.5-14.9,7c-1.6-1.8-2.1-1.2-3.6-2.7s-3-3.1-5.3-5.4c-1.3-2-6.4-2.8-8.6-3.7
			c-2.5-1-4.8-3.1-5.8-7.1c-0.5-2-2.7-7.9-3.5-9.9c-2.3-5.7,2.7-7.9,6.1-5.8c3,1.1,6.1,1.9,9.3,2.5c1.4,0.3,2.7,0.5,4.1,0.6
			c2.8,0.3,5.8,2.3,8,4C272.9,96.2,280.8,105.5,281.3,112z"/>
		
			<linearGradient id="SVGID_20_" gradientUnits="userSpaceOnUse" x1="310.2368" y1="335.8182" x2="312.0968" y2="333.5482" gradientTransform="matrix(1 0 0 -1 -63.71 423.33)">
			<stop  offset="0" style="stop-color:#FF8A78"/>
			<stop  offset="1" style="stop-color:#FFA799"/>
		</linearGradient>
		<path class="st30" d="M247.5,82.1c0.7,2.6,2.1,4.9,4,6.8c-0.7,2.6-5.6,4.4-7.1,2.7c-0.1-0.5-0.3-0.9-0.4-1.3
			c-0.3-0.7-0.5-1.4-0.7-1.9L247.5,82.1z"/>
		<path class="st31" d="M233.4,78.7c0.2,2,1.1,3.9,2.5,5.3c0.3,0.3,0.6,0.7,0.7,1.2c0.2,1.6,1.2,3,2.6,3.8c1.4,1,2,1.7,2.8,1.8
			c0.8,0,1.6-0.3,2.3-0.8c1.3-0.9,2.7-3.4,3.4-5c0.5-1.2,0.2-1.5-0.1-2.7c0.4-2.1-1.1-2.3-1.6-2c-1.4,0.8-0.5,2.3-0.9,3.2
			C240.1,84.6,235,80.1,233.4,78.7z"/>
		<path class="st32" d="M233.4,78.7c2.7,4.6,8.8,5.7,11.6,4.8C240.1,84.6,235,80.1,233.4,78.7z"/>
		<path class="st28" d="M265.3,117.8c0,0-0.1,0-0.1,0c-0.8-0.4-1.6-0.9-2.3-1.5c-1.3-1.3-3-3.1-5.3-5.4c-0.7-1-2.3-1.8-4-2.3
			c0.3-4.7,0.2-15.5,1.7-16.9c2.1-1.9,5.1-3.2,7.5-0.7C267.3,95.7,262.7,113.3,265.3,117.8z"/>
		<polygon class="st7" points="258.7,124.2 255.8,113.1 257.8,111.3 276.3,121.7 274.6,123.6 266.6,129 		"/>
		<path class="st12" d="M255.8,113.2l-1.4-4.3l23.1,12.8l-3,2L255.8,113.2z"/>
		
			<linearGradient id="SVGID_21_" gradientUnits="userSpaceOnUse" x1="336.5953" y1="169.4133" x2="300.7953" y2="310.2533" gradientTransform="matrix(1 0 0 -1 -63.71 423.33)">
			<stop  offset="0" style="stop-color:#965CF2"/>
			<stop  offset="1" style="stop-color:#FF8ADC"/>
		</linearGradient>
		<path class="st33" d="M218,139.2c1.2-8.8,7.9-12.6,15-8.5l73,42.6c7.1,4.2,11.8,14.7,10.6,23.5L305.5,281
			c-1.2,8.8-7.9,12.6-15,8.5l-73-42.6c-7.1-4.1-11.8-14.7-10.6-23.5L218,139.2z"/>
		<path class="st12" d="M220.6,138.7c0.1-0.9,0.3-5.2,1.5-6.1c1.6-1.2,3.4-2.3,5.2-3.1c2.5-0.6,5.1-0.1,7.2,1.3l68.2,39.5
			c6.6,3.9,11,13.6,9.9,21.9l-10.3,78.2c-0.3,2.5-1.2,4.8-2.8,6.8c-1.5,1.4-3.3,2.7-5.1,3.6c-2,1-4.7-1.8-5.9-2.5l-68.2-39.5
			c-6.6-3.9-11-13.7-9.9-21.9L220.6,138.7z"/>
		<path class="st18" d="M218.2,140.4c1.1-8.2,7.3-11.7,13.9-7.9l67.8,39.6c6.6,3.9,11,13.6,9.9,21.9l-10.3,78.2
			c-1.1,8.2-7.3,11.7-13.9,7.9l-67.8-39.6c-6.6-3.9-11-13.6-9.9-21.9L218.2,140.4z"/>
		
			<linearGradient id="SVGID_22_" gradientUnits="userSpaceOnUse" x1="338.9791" y1="270.4245" x2="326.2091" y2="252.2645" gradientTransform="matrix(1 0 0 -1 -63.71 423.33)">
			<stop  offset="0" style="stop-color:#6D6AFE"/>
			<stop  offset="1" style="stop-color:#3FB0F7"/>
		</linearGradient>
		<path class="st34" d="M218.2,140.4c1.1-8.2,7.3-11.7,13.9-7.9l67.8,39.6c6.6,3.9,11,13.6,9.9,21.9l-1.1,7.8l-91.6-53.5
			L218.2,140.4z"/>
		<path class="st18" d="M229.1,140.7c1.7,0.6,2.7,2.2,2.6,4c-0.1,1.9-1.4,3.1-2.9,2.7c-1.7-0.6-2.7-2.2-2.5-4
			C226.3,141.6,227.6,140.4,229.1,140.7z"/>
		<path class="st18" d="M237.1,145.7c1.7,0.6,2.7,2.2,2.6,4c-0.1,1.9-1.4,3.1-2.9,2.7c-1.7-0.6-2.7-2.2-2.5-4
			C234.3,146.6,235.6,145.3,237.1,145.7z"/>
		<path class="st18" d="M245.1,150.7c1.7,0.6,2.7,2.2,2.6,4c-0.1,1.9-1.4,3.1-2.9,2.7c-1.7-0.6-2.7-2.2-2.5-4
			C242.3,151.5,243.6,150.3,245.1,150.7z"/>
		
			<linearGradient id="SVGID_23_" gradientUnits="userSpaceOnUse" x1="297.9802" y1="247.3508" x2="295.0002" y2="243.1308" gradientTransform="matrix(1 0 0 -1 -63.71 423.33)">
			<stop  offset="0" style="stop-color:#6D6AFE"/>
			<stop  offset="1" style="stop-color:#3FB0F7"/>
		</linearGradient>
		<path class="st35" d="M232.6,163.8c6.9,1.6,12.2,9.9,11.8,18.5s-6.3,14.2-13.3,12.6s-12.2-9.9-11.8-18.5S225.7,162.2,232.6,163.8z
			"/>
		
			<linearGradient id="SVGID_24_" gradientUnits="userSpaceOnUse" x1="300.4377" y1="247.5918" x2="291.2977" y2="240.6618" gradientTransform="matrix(1 0 0 -1 -63.71 423.33)">
			<stop  offset="0" style="stop-color:#6D6AFE"/>
			<stop  offset="1" style="stop-color:#3FB0F7"/>
		</linearGradient>
		<path class="st36" d="M232.3,171c3.7,0.9,6.6,5.4,6.4,10s-3.4,7.7-7.1,6.8s-6.6-5.4-6.4-10S228.5,170.1,232.3,171z"/>
		<g class="st37">
			<path class="st38" d="M248.6,180.5c0.3-1.8,1.6-2.6,3.1-1.7l44.3,25.5c1.6,1.1,2.4,3,2.2,4.9l-0.5,3.6c-0.3,1.8-1.6,2.6-3.1,1.7
				L250.3,189c-1.6-1.1-2.4-3-2.2-4.9L248.6,180.5z"/>
			<path class="st38" d="M246.8,193.8c0.1-1.1,1-1.5,1.8-1l26.2,15.1c0.9,0.7,1.4,1.8,1.3,2.9l-0.3,2.1c-0.1,1.1-1,1.5-1.8,1
				l-26.2-15.1c-0.9-0.7-1.4-1.8-1.3-2.9L246.8,193.8z"/>
		</g>
		<g class="st37">
			<path class="st38" d="M217.2,197.1c0.2-1.3,1.2-1.9,2.2-1.2l76.5,43.9c1.1,0.8,1.7,2.2,1.6,3.6l-0.2,1.7
				c-0.2,1.3-1.2,1.9-2.3,1.2l-76.5-43.9c-1.1-0.8-1.7-2.2-1.6-3.6L217.2,197.1z"/>
			<path class="st38" d="M215.6,210c0.2-1.3,1.2-1.9,2.2-1.2l76.5,43.9c1.1,0.8,1.7,2.2,1.6,3.6l-0.2,1.7c-0.2,1.3-1.2,1.9-2.3,1.2
				L217,215.3c-1.1-0.8-1.7-2.2-1.6-3.6L215.6,210z"/>
			<path class="st38" d="M214,222.3c0.2-1.3,1.2-1.9,2.3-1.2l76.5,44c1.1,0.8,1.7,2.2,1.6,3.6l-0.2,1.7c-0.2,1.3-1.2,1.9-2.2,1.2
				l-76.5-43.9c-1.1-0.8-1.7-2.2-1.6-3.6L214,222.3z"/>
		</g>
		<path class="st12" d="M312.8,131.6c0.2-1.7-0.9-3-0.1-4.1c0.7-1.1,3.5-2.1,4.7-2.5c1.9-0.6,4-0.3,5.6,0.7l81.4,46.5
			c4.8,2.7,7.9,9.7,7.1,15.7l-9.1,63.9c-0.4,2.9-1.7,5.1-3.5,6.2c-1.1,0.7-4.1,2-5.4,1.8c-1-0.1-0.2-1.4-1.2-2l-81.4-46.5
			c-4.8-2.7-7.9-9.8-7.1-15.8L312.8,131.6z"/>
		
			<linearGradient id="SVGID_25_" gradientUnits="userSpaceOnUse" x1="424.8445" y1="250.5517" x2="411.3445" y2="205.5617" gradientTransform="matrix(1 0 0 -1 -63.71 423.33)">
			<stop  offset="0" style="stop-color:#6D6AFE"/>
			<stop  offset="1" style="stop-color:#3FB0F7"/>
		</linearGradient>
		<path class="st39" d="M310.4,132.6c0.9-6,5.4-8.6,10.2-5.9l81.4,46.5c4.8,2.7,7.9,9.8,7.1,15.8l-9.1,63.9c-0.9,6-5.4,8.6-10.2,5.9
			l-81.4-46.5c-4.8-2.7-7.9-9.8-7.1-15.8L310.4,132.6z"/>
		<path class="st40" d="M304.1,199.4c0.1-0.5,0.5-0.7,0.9-0.5l90.3,51.8c0.4,0.3,0.7,0.8,0.6,1.4l-0.2,1.6c-0.1,0.5-0.5,0.7-0.9,0.5
			l-90.3-51.8c-0.4-0.3-0.7-0.9-0.6-1.4L304.1,199.4z"/>
		<path class="st4" d="M304.1,199.4c0.1-0.5,0.5-0.7,0.9-0.5l36.4,20.9c0.4,0.3,0.6,0.8,0.6,1.3l-0.2,1.5c-0.1,0.5-0.5,0.7-0.9,0.5
			l-36.4-20.9c-0.4-0.3-0.6-0.8-0.6-1.3L304.1,199.4z"/>
		
			<linearGradient id="SVGID_26_" gradientUnits="userSpaceOnUse" x1="414.5546" y1="228.5884" x2="420.7446" y2="247.6384" gradientTransform="matrix(1 0 0 -1 -63.71 423.33)">
			<stop  offset="0" style="stop-color:#965CF2"/>
			<stop  offset="1" style="stop-color:#FF8ADC"/>
		</linearGradient>
		<path class="st41" d="M339.8,168.7c0.2-1.4,1.3-2.1,2.4-1.4l25.1,14.3c1.2,0.8,1.9,2.3,1.7,3.8l-3.4,23.9c-0.2,1.4-1.3,2-2.4,1.4
			l-25.1-14.3c-1.2-0.8-1.9-2.3-1.7-3.8L339.8,168.7z"/>
		
			<linearGradient id="SVGID_27_" gradientUnits="userSpaceOnUse" x1="413.5598" y1="229.4938" x2="419.1998" y2="239.1138" gradientTransform="matrix(1 0 0 -1 -63.71 423.33)">
			<stop  offset="0" style="stop-color:#6D6AFE"/>
			<stop  offset="1" style="stop-color:#3FB0F7"/>
		</linearGradient>
		<path class="st42" d="M354.1,179.1c-4.3-2.5-8.5-0.1-9.3,5.4s2.1,11.9,6.4,14.4s8.5,0.1,9.3-5.4S358.4,181.6,354.1,179.1z"/>
		<polygon class="st18" points="350.1,181.7 348.7,191.6 357.1,191.8 		"/>
		
			<linearGradient id="SVGID_28_" gradientUnits="userSpaceOnUse" x1="313.8064" y1="285.2504" x2="312.5164" y2="285.8504" gradientTransform="matrix(1 0 0 -1 -63.71 423.33)">
			<stop  offset="0" style="stop-color:#FF8A78"/>
			<stop  offset="1" style="stop-color:#FFA799"/>
		</linearGradient>
		<path class="st43" d="M252.6,131.2c-0.7,1.2-0.3,3.8-0.6,5c-0.3,1.2-0.6,2.4-1.1,3.6c-0.1,0.3-4.9,4.5-5.1,4.3
			c-0.6-0.5-1-3.8-0.2-4.8c0.8-0.8,1.3-1.7,1.6-2.7c0.1-0.8,0.1-3.4,0.4-3.8c0.8-0.9,1.6-1.2,1.9-2.4L252.6,131.2z"/>
		
			<linearGradient id="SVGID_29_" gradientUnits="userSpaceOnUse" x1="321.5979" y1="298.003" x2="318.8579" y2="327.403" gradientTransform="matrix(1 0 0 -1 -63.71 423.33)">
			<stop  offset="0" style="stop-color:#965CF2"/>
			<stop  offset="1" style="stop-color:#FF8ADC"/>
		</linearGradient>
		<path class="st44" d="M261.8,115.2c0.1-0.3,0.1-0.5,0.2-0.8c1.2-5.1,2.5-13.8,2.3-18.8c-0.1-3.8-2-7.1-6.5-5.8
			c-1.6,0.3-2.9,1.6-3.2,3.3c-0.1,3.2,0,6.4,0.3,9.5c0.2,3,0.1,8.3,0.3,10.5l-0.1,0.2c-2.2,5-4,10.1-5.5,15.3c0,0.5,0,0.9,0,1.4
			c0,0.4-0.2,0.8-0.4,1.1c0.9,0.8,1.9,1.3,3.1,1.6c0.2-0.4,0.4-0.8,0.6-1.1c0.2-0.3,1.1-0.6,1.5-1c1.9-2.2,6.8-12.5,7.4-15.2
			C261.8,115.3,261.8,115.3,261.8,115.2z"/>
		<path class="st4" d="M189.7,377.1l41-23.3c4.5-2,10.9-3.7,15.4-1.3c4.1,2.1,11,6.6,14,8.3c2.3,1.3,10.3,6.1,5.3,8.8
			c-14.6,7.9-29,16.9-43.9,24.9c-2.8,1.5-6.9,2.1-11.2,1.7c-4.3-0.3-8.4-1.5-12.1-3.6l-7.3-4.2c-3.2-1.9-4.9-4.1-5.1-6.1
			S187,378.3,189.7,377.1z"/>
		<path class="st18" d="M204.8,375.8c0.8,0,3.5-2.6,6.1-1.3c3.1,1.5,8.9,0.2,11.9,0.9c0.5,0.1,1.6-0.3,1.8,0.1
			c0.6,1.1,1.3,2.8-0.3,3.9c-1.6,1-3.4,1.8-5.2,2.5c-2.2,0.8-4.4,1.4-6.6,1.9c-2.2,0.3-3.2,0.5-4,1.1c-0.9,0.5-2,0.8-3,0.7
			c-1.7-0.2-3.1-1.2-3.9-2.7c-0.3-1.4-0.3-2.9,0-4.3c0.3-1.3,0.8-2.5,1.4-3.8L204.8,375.8z"/>
		<path class="st45" d="M211.1,370.4c-1,2.3-0.7,6-3,7.2c-1.6,1-3.7,0.6-4.7-1c-0.1-0.2-0.2-0.3-0.3-0.5c-0.6-1.3,0.2-3.6,0-6.6
			L211.1,370.4z"/>
		<path class="st46" d="M211.7,374c1.8,0.5,6.6,0.2,9.7,0.4c1.3,0.1,2.5,0.1,3.1,1.3s0.3,2.1-1,3c-1.5,1-3.1,1.7-4.7,2.3
			c-2.2,0.8-4.4,1.4-6.6,1.9c-2.2,0.3-3.2,0.5-4,1.1c-0.9,0.5-2,0.8-3,0.7c-1.7-0.3-3.1-1.4-3.9-2.9c-0.3-1.4-0.3-2.8,0-4.1
			c0.1-0.3,0.1-0.6,0.2-0.9c0.2-2.3,1-3.3,1.7-2.9c0.8,0.6,1.4,1.4,1.7,2.3c0.2,0.6,0.7,1.1,1.4,1.3c1.2,0.3,2.4-0.2,3-1.3
			c0.4-0.7,0.7-1.5,0.8-2.4v-0.2c0.2-2,1.2-1.9,1.1-1.4C211.1,372.9,211.3,373.5,211.7,374z"/>
		<path class="st18" d="M224,375.4c0,0.8,1.2,0.9,0.8,2.2c0.6-0.6-0.2-2.2-0.6-2.4C224.1,375,224,375,224,375.4z"/>
		<path class="st18" d="M224.9,367.8c0.7-0.3,2.4-3.6,5.3-3.3c1.7,0,3.3-0.2,4.9-0.7c3-0.8,7.2-3.5,7.9-3.1c1.5,1,1.7,2.7,0.6,4.3
			c-1.1,1.4-2.3,2.7-3.6,3.8c-1.6,1.4-3.3,2.7-5.1,3.9c-1.6,0.9-2.2,0.8-3.4,2.4c-0.7,0.8-1.6,1.4-2.6,1.6c-1.9,0.2-3.8-0.5-5.1-1.9
			c-0.6-1.8-1.6-3.6-0.9-6.3L224.9,367.8z"/>
		<path class="st45" d="M228.8,360c0,2.5,1.6,5.8-0.1,7.8c-1.1,1.5-3.3,1.9-4.8,0.8c-0.2-0.1-0.3-0.2-0.4-0.4c-1-1-1.1-3.4-2.4-6.1
			L228.8,360z"/>
		<path class="st46" d="M234.3,363l0.5-0.1c3-0.9,7-2.9,7.7-2.5c1.6,1,1.8,2.1,0.8,3.6c-1.1,1.4-2.3,2.7-3.6,3.8
			c-1.6,1.4-3.3,2.8-5.1,3.9c-1.6,0.9-2.2,0.8-3.4,2.4c-0.7,0.8-1.6,1.4-2.6,1.6c-1.9,0.2-3.8-0.5-5.2-1.9c-0.6-1.4-0.9-2.9-1-4.4
			c-0.3-2.3-0.1-3.4,0.9-3.4c1.8,0.1,2.6,1,3.3,1.5c1.6,1,2.7-0.3,3-1.9c0-0.7,0-1.4-0.1-2.1c0-0.1,0-0.1-0.1-0.2
			c-0.5-2,0.4-2.2,0.5-1.7c0,0.9,0.6,1.6,1.5,1.7C232.3,363.3,233.3,363.2,234.3,363z"/>
		<path class="st18" d="M242.3,360.7c0.3,0.7,1.4,0.3,1.7,1.7c0.3-0.8-1.1-1.9-1.6-2C242.2,360.4,242.1,360.4,242.3,360.7z"/>
		
			<linearGradient id="SVGID_30_" gradientUnits="userSpaceOnUse" x1="288.0853" y1="121.4518" x2="278.5653" y2="75.9118" gradientTransform="matrix(1 0 0 -1 -63.71 423.33)">
			<stop  offset="0" style="stop-color:#40457F"/>
			<stop  offset="1" style="stop-color:#1E2353"/>
		</linearGradient>
		<path class="st47" d="M227.1,291.6c0.7,7.3,4.3,30.8,3.3,37.2c-1.5,9.7-1.1,21.4-1.1,31.6c-0.3,4.3-6.2,6.6-7.9,3.8
			c-1.4-9.2-3.4-17.2-4.1-22.3c-0.9-5.7-0.6-12.6,0.8-16.4c-0.6-4.1-3.4-14.7-5.7-22c-0.8-2.6-5.6-11.2-0.7-19.7L227.1,291.6z"/>
		
			<linearGradient id="SVGID_31_" gradientUnits="userSpaceOnUse" x1="290.1948" y1="63.1936" x2="286.6148" y2="58.0635" gradientTransform="matrix(1 0 0 -1 -63.71 423.33)">
			<stop  offset="0" style="stop-color:#3773B9"/>
			<stop  offset="1" style="stop-color:#003C76"/>
		</linearGradient>
		<path class="st48" d="M229.4,357.6c0,0.8,0,1.9,0,2.7c-0.3,4.3-6.3,6.6-8,3.9c-0.1-0.7-0.3-1.3-0.4-2
			C223.4,364.7,227.9,361.5,229.4,357.6z"/>
		<path class="st2" d="M230.6,324.4c-1.9,9.7-7.4,22.6-10.4,32.4c-1.6-8.4-5.4-22.6-2.1-31.3c-0.3-2.3-1.4-6.8-2.7-11.5
			c2.6-4.9,0.1-8.8,1.3-15.7c6.9-1.2-3.5-9.6,11-0.8C229.1,308,230.3,314.5,230.6,324.4z"/>
		
			<linearGradient id="SVGID_32_" gradientUnits="userSpaceOnUse" x1="296.5693" y1="116.3145" x2="264.1093" y2="72.0345" gradientTransform="matrix(1 0 0 -1 -63.71 423.33)">
			<stop  offset="0" style="stop-color:#40457F"/>
			<stop  offset="1" style="stop-color:#1E2353"/>
		</linearGradient>
		<path class="st49" d="M226.7,333.6c-4,8.9-11.2,26.5-15.1,37.5c-2,2.9-9.2,2.6-9.1-0.1c1.6-9.2,3.4-23.3,6.7-31.4
			c1.7-3.5,3.8-6.9,6.1-10.1c1-4,2.3-15,3.4-20.9c-0.9-4.9-4.9-13.1,2.7-20.2c3.1,2.2,12.5,3.5,16.8,1.1
			C238.8,308.8,234.1,316.9,226.7,333.6z"/>
		
			<linearGradient id="SVGID_33_" gradientUnits="userSpaceOnUse" x1="271.8711" y1="52.7463" x2="266.4711" y2="51.3663" gradientTransform="matrix(1 0 0 -1 -63.71 423.33)">
			<stop  offset="0" style="stop-color:#3773B9"/>
			<stop  offset="1" style="stop-color:#003C76"/>
		</linearGradient>
		<path class="st50" d="M212.3,369.2c-0.2,0.5-0.5,1.5-0.7,1.9c-2.1,3-9.4,2.7-9.4-0.1c0.1-0.5,0.2-0.9,0.2-1.4
			C204.2,371.4,209.5,371.4,212.3,369.2z"/>
		
			<linearGradient id="SVGID_34_" gradientUnits="userSpaceOnUse" x1="305.7063" y1="223.1725" x2="312.5463" y2="232.9325" gradientTransform="matrix(1 0 0 -1 -63.71 423.33)">
			<stop  offset="0" style="stop-color:#FF8A78"/>
			<stop  offset="1" style="stop-color:#FFA799"/>
		</linearGradient>
		<path class="st51" d="M250.9,184.4c-0.3,0.6-0.6,1.2-0.8,1.8l-1.2,2.4c-0.3-1.2-1.2-1.6-1.9-1c-0.3,0.2-0.5,0.5-0.6,0.8
			c-0.1-0.3-1-1.1-2.3,0.7c-0.6-0.1-1.3,0.2-1.5,0.9c-0.2,0.4-0.4,0.8-0.5,1.3c-0.2,0.5-0.3,1.1-0.4,1.7c0,1.2,0.1,2.4,0,3.8
			s-1.8,3.4-2.7,4.5l5.6,1.8c0.7-0.9,1.4-1.9,2.2-2.7c0.9-0.9,2-1,2.8-1.7c0.6-0.6,1.1-1.3,1.5-2c0.7-0.9,1-2,1.6-3
			c0.5-0.6,0.7-1.3,0.6-2c0.1-0.8,0.2-1.6,0.4-2.4c-1.1-0.6-2.1,0.9-2.1,2.2c-0.6,0.4-1,1-1.2,1.7c-0.9-1.2-0.4-1.7,0-3.2
			c0.6-1,1-2,1.3-3.1c0.2-0.5,0.4-1,0.6-1.5c0.2-0.6,0.1-1.2-0.3-1.6C251.9,183.5,251.3,183.5,250.9,184.4z"/>
		<path class="st52" d="M253.2,189c-0.8,0.1-1.4,1.3-1.4,2.4c-0.6,0.4-1,1-1.2,1.6c0.4-0.6,0.9-1,1.5-1.5
			C252.1,190.6,252.5,189.7,253.2,189z M248.9,188.3l-0.1,0.2c-0.1-0.3-0.2-0.5-0.3-0.7c-0.1,0.7-0.3,1.3-0.8,1.8
			C248.3,189.4,248.7,188.9,248.9,188.3z M246.3,188.3c-0.1-0.1-0.2-0.2-0.3-0.3c-0.1,0.6-0.3,1.1-0.6,1.6
			C245.8,189.3,246.1,188.8,246.3,188.3z M244.1,189L244.1,189c-0.1,0-0.2,0-0.4,0c-0.1,0.6-0.3,1.3-0.6,1.8
			C243.6,190.3,243.9,189.7,244.1,189L244.1,189z"/>
		
			<linearGradient id="SVGID_35_" gradientUnits="userSpaceOnUse" x1="291.4533" y1="198.7631" x2="299.3533" y2="183.9332" gradientTransform="matrix(1 0 0 -1 -63.71 423.33)">
			<stop  offset="0" style="stop-color:#A77EF7"/>
			<stop  offset="1" style="stop-color:#5E65D6"/>
		</linearGradient>
		<path class="st53" d="M229.7,216.8c2.8-4.9,5-11.1,9-16.1c0.3-0.4,1.1-0.7,1.4-1.2l1.2-1.9c2.1,0.1,4.2,1,5.7,2.6
			c-0.2,0.7-0.4,1.3-0.6,2s0.2,2.4,0,3.1c-1.8,6.5-4.1,12.8-6.9,18.9c-3.9,5-21.3,37.4-30.4,25.7c-0.8-4.2,0.3-7.7,2.4-11.1
			c1.2-1.7,2.6-3.3,4.1-4.7C218.4,231.1,225.4,221.2,229.7,216.8z"/>
		
			<linearGradient id="SVGID_36_" gradientUnits="userSpaceOnUse" x1="289.9006" y1="174.7438" x2="285.2106" y2="133.6338" gradientTransform="matrix(1 0 0 -1 -63.71 423.33)">
			<stop  offset="0" style="stop-color:#A77EF7"/>
			<stop  offset="1" style="stop-color:#5E65D6"/>
		</linearGradient>
		<path class="st54" d="M210.3,265.3c0.6,5.7-1.1,11.4,0.7,16.6c0.1,0.5,0.1,2.7,0.2,3.2c1.2,6.8,15.5,13.6,27.5,7.1
			c0.1-0.8,0-1.7,0.1-3.3c-0.2-1.5,0.4-3,0.4-3.9c0-3.7-1.2-5.6-0.6-9.7c1.1-8.4,5.8-16.4,3.2-23c-0.6-1.2-1.5-2.3-2.6-3
			c-2.8-2.3-17.5-9.7-21.9-10.3C204.4,237.6,209.7,259.1,210.3,265.3z"/>
		<path class="st55" d="M239.9,269.4c1.7-6.1,3.8-11.9,1.9-16.9c-0.6-1.2-1.5-2.3-2.6-3c-2.8-2.3-2.4,3.8-6.9,3.3
			C231.4,261,235.4,268.4,239.9,269.4z"/>
		<path class="st31" d="M230.8,236.7c-0.2,2.4,0,4.7,0.3,7.1c-4.2-0.1-10-1.2-10.7-4.4c0-0.4,0.1-0.8,0.1-1.1
			c-0.1,0-0.1-0.1-0.2-0.1c-1.5-1-4-1.7-5.6-3.6c-2.6-2.9-3.9-6.9-1.9-10.8c3.7-7.2,12.5-7.3,17.4-1.5c1,1.1,0.3,2.3,0.8,3.4
			c0.1,0.2,0.5,0.3,0.9,0.7c0.6,0.5,2.5,5,2.4,7.4c0,0.9-2.2,2.3-3.2,2.8C231.2,236.6,231,236.7,230.8,236.7z"/>
		
			<linearGradient id="SVGID_37_" gradientUnits="userSpaceOnUse" x1="290.1601" y1="186.7132" x2="288.7001" y2="183.0432" gradientTransform="matrix(1 0 0 -1 -63.71 423.33)">
			<stop  offset="0" style="stop-color:#FF8A78"/>
			<stop  offset="1" style="stop-color:#FFA799"/>
		</linearGradient>
		<path class="st56" d="M230.8,236.7c-0.2,2.4,0,4.7,0.3,7.1c-4.2-0.1-10-1.2-10.7-4.4c0-0.4,0.1-0.8,0.1-1.1
			c-0.1,0-0.1-0.1-0.2-0.1c-3.2-3,1.1-6.4,6.5-3.5C227.7,236.1,229.2,236.8,230.8,236.7z"/>
		
			<linearGradient id="SVGID_38_" gradientUnits="userSpaceOnUse" x1="295.1111" y1="196.993" x2="292.951" y2="192.853" gradientTransform="matrix(1 0 0 -1 -63.71 423.33)">
			<stop  offset="0" style="stop-color:#FFB89E"/>
			<stop  offset="1" style="stop-color:#FFA799"/>
		</linearGradient>
		<path class="st57" d="M234.5,233.7c0,0.4-1.7,1-2.5,1.1c0.5-4.5-3.8-5.1-3.1-9.5c0.4-2.6-2.3-3.6-1.3-5.5c1,0.6,1.9,1.4,2.6,2.3
			c1,1.1,0.3,2.3,0.8,3.4c0.1,0.2,0.5,0.3,0.9,0.7C232.8,226.9,234.7,231.4,234.5,233.7z"/>
		<path class="st58" d="M228.8,231.9c-0.1-1-0.5-1.2-0.8-0.9c-0.5,0.6-0.7,1.4-0.6,2.2c0.2,1.6,1.7,3.1,2.8,1.8
			c-1.1,0.6-1.7-0.9-1.8-1.9C228.3,232.4,228.5,231.8,228.8,231.9z"/>
		<path class="st59" d="M228.4,232.6c0.6,0.5,0.9,0.8,0.9,1s-0.2,0.4-0.7,0.3C228.4,233.4,228.3,233,228.4,232.6z"/>
		<path class="st4" d="M220.4,239.3c-1.2,0.4-2.4,1.7-2.2,2.5c1.2,5,10.5,6.2,16.3,4.9c0.1,0-2.2-2.9-3.3-3.3
			C227.6,243.8,221.6,242.3,220.4,239.3z"/>
		<path class="st60" d="M220,239c-1.5-1.6-4.1-2.4-5.8-4.3s-3.4-4.8-2.4-7.7c-1.9-6.1,4.7-10.9,10.3-12c2.3-0.5,4.6,1,5.1,3.4
			c0.2,1,0,2.1-0.5,3c1,1.2,1.5,2.8,1.3,4.4c-0.4,1.1-0.3,2.2,0.2,3.2c0.4,1,1.5,3.5-0.4,1.9c-1.3-1-2.2,1.2-1.7,2.8
			c0.3,1,0.4,2,0.3,3C226.1,240,220.9,239.9,220,239z"/>
		
			<linearGradient id="SVGID_39_" gradientUnits="userSpaceOnUse" x1="290.5428" y1="207.0511" x2="281.0328" y2="201.6011" gradientTransform="matrix(1 0 0 -1 -63.71 423.33)">
			<stop  offset="0" style="stop-color:#8A4791"/>
			<stop  offset="1" style="stop-color:#562E65"/>
		</linearGradient>
		<path class="st61" d="M213.7,224.2c-1.3-5.9,6.4-8.9,9.5-8.9s5.5,5,1.8,6.7C222.5,223,217.6,220.8,213.7,224.2z"/>
		
			<linearGradient id="SVGID_40_" gradientUnits="userSpaceOnUse" x1="338.7641" y1="182.4933" x2="345.1441" y2="190.9133" gradientTransform="matrix(1 0 0 -1 -63.71 423.33)">
			<stop  offset="0" style="stop-color:#FF8A78"/>
			<stop  offset="1" style="stop-color:#FFA799"/>
		</linearGradient>
		<path class="st62" d="M275.1,232.5c-0.1,0.4-0.2,0.8-0.3,1.2c-0.2,0.6-0.4,1.2-0.6,1.8c-0.1,1-0.2,2-0.1,3c0,0.6,0.1,1.2,0.3,1.8
			c-0.8,1.3-1.8,2.5-3,3.6l3.5,2.7c1.5-1,2.7-2,4-2.9c0.6-0.2,1.2-0.5,1.7-1c0.8-0.9,3.2-3.4,3.4-4.4c0.1-1.7-0.1-3.4-0.4-5.1
			c-0.6-3.6-2-7.4-2.3-5.7c-0.3,0.4-0.1,3.6-0.3,4.1c-0.8,1-1.2,1.4-2.3,2.5c-0.4,0.3-0.9,0.6-1.4,0.8c-0.4,0.1-0.6-0.1-0.6-0.5
			c0.1-0.6,0.2-1.3,0.4-1.9c0-1.5-0.4-2.4-1.2-2.3c-0.4,0-0.7,0.3-0.8,0.7C275.2,231.4,275.2,231.9,275.1,232.5z"/>
		
			<linearGradient id="SVGID_41_" gradientUnits="userSpaceOnUse" x1="318.9205" y1="179.3734" x2="320.8506" y2="140.2134" gradientTransform="matrix(1 0 0 -1 -63.71 423.33)">
			<stop  offset="0" style="stop-color:#A77EF7"/>
			<stop  offset="1" style="stop-color:#5E65D6"/>
		</linearGradient>
		<path class="st63" d="M239.4,247.6c4.9,0.8,14.3,6.1,20.8,9c3.6-5.2,8.4-11.4,11.3-13.4c0.5-0.3,1-0.6,1.5-1
			c0.4-0.5,0.8-1.1,1.2-1.6c1.8,0.3,4.5,2.5,4.5,3.6l-0.9,1.7c-0.1,0.6-0.2,1.1-0.3,1.7c-1,3.6-6.5,12-9,15.7c-1.5,2.1-2,3.4-3,4.1
			c-1.6,1-3.8,0.5-7.9-0.6c-3.5-0.9-14.8-2.9-19.9-5.7c-3.6-1.9-6.5-5.4-5-9.4C233.7,248.9,236.5,247.2,239.4,247.6z"/>
	</g>
</g>
</svg>
