<?xml version="1.0" encoding="utf-8"?>
<!-- Generator: Adobe Illustrator 24.2.3, SVG Export Plug-In . SVG Version: 6.00 Build 0)  -->
<svg version="1.1" id="Layer_1" xmlns="http://www.w3.org/2000/svg" xmlns:xlink="http://www.w3.org/1999/xlink" x="0px" y="0px"
	 viewBox="0 0 500 500" style="enable-background:new 0 0 500 500;" xml:space="preserve">
<style type="text/css">
	.st0{fill:#E2E9FB;}
	.st1{fill:#343C6B;}
	.st2{fill:#B8C9F5;}
	.st3{fill:#819BEA;}
	.st4{fill:#9BA1A7;}
	.st5{fill:#FCBAC0;}
	.st6{fill:#C6D0E9;}
	.st7{fill:#445393;}
	.st8{fill:#ED8B8B;}
	.st9{fill:#81A0EA;}
</style>
<g>
	<g id="Layer_7">
		<path class="st0" d="M273.7,371.6c0,13.4-21.8,24.3-48.8,24.3s-48.8-10.9-48.8-24.3s21.8-24.3,48.8-24.3S273.7,358.2,273.7,371.6z
			"/>
		<path class="st1" d="M201.3,361.9c1.4-4.4,4.8-7.2,7.6-6.3s3.2,4.9,2.7,9.5c-0.2,0.8-0.5,1.6-1,2.3c-0.8,1.5-1.2,3.1-1.2,4.8
			c0,1.4-0.2,2.7-0.6,4.1c-0.9,3-3.9,4.9-6.1,6c-1.8,0.9-4,0.1-4.9-1.7c0,0,0,0,0-0.1c-1.2-2.6-1.8-6.5-0.1-9.6
			C198.5,369.6,201.1,362.7,201.3,361.9z"/>
		<path class="st1" d="M231,355c0.9,0.8,1.7,1.6,2.4,2.5c1.8,1.7,4,3,6.5,3.7c3.3,1.2,6,1.4,7.9,0.9c1.5-0.4,2.3-1.9,2-3.3
			c-0.1-0.3-0.2-0.6-0.4-0.9c-1.7-2.1-3.5-4.1-5.6-5.8c-1.5-1.3-2.9-2.5-4-3.5c-1.6-1.3-2.6-3.3-2.8-5.3c0-0.8-0.1-1.5-0.4-2.2
			c-4-1.5-9.8-0.7-10.9,1.3c0,0-1.2,6-1.2,7.5c-0.1,1.4,0.7,2.7,2,3.2C228.1,353.4,229.6,354.1,231,355z"/>
		<path class="st2" d="M196.7,200.6v14.6c0,2.2,3.7,142.7,3.7,142.7c0,3.6,13.6,3.9,13.6-0.7l7.2-102.3l2.8,86.8
			c0,4.4,15.1,3.3,14.9-0.3L241,225c0-2.1-0.2-4.1-0.6-6.1L196.7,200.6z"/>
		<path class="st3" d="M221.1,255.4l2.9-1.8c1.1-0.7,2.6-0.3,3.3,0.8c0.2,0.4,0.4,0.9,0.3,1.3l-3.9,77.7L221.1,255.4z"/>
		<path class="st1" d="M268.9,201.7c0,0,0.9,1.7,0.4,6.2c-0.2,2-1,3.9-2.1,5.6l-3.3-2.4l2.1-8.6L268.9,201.7z"/>
		<path class="st4" d="M271.7,203c0,0,0.7,1.3,0.3,5c-0.2,1.6-0.8,3.1-1.7,4.4l-2.6-1.9l1.7-6.9L271.7,203z"/>
		<path class="st5" d="M288.8,209.6c-0.8,0.7-7.3,3-9.3,2.9c-4-0.2-11.2-0.8-12.2-1c-0.8-0.1-1.6-0.3-2.5-0.4l2-8.8
			c1,0.3,2,0.7,3.1,1c0.5,0.2,1.1,0.3,1.7,0.4c0.1,0,1-2,1-2c0.4-0.8,1.1-1.5,1.9-1.9c0,0,2.3-1.1,3.8-1.8c1.9-0.8,3.3-1.7,3.9-0.9
			c0.6,0.7-0.8,2-1.5,2.5l-3.2,2.4c3.8-1.8,7.8-4,8.3-1.5C285.6,200.7,293.7,205.2,288.8,209.6z"/>
		<path class="st6" d="M270.4,212.4c-0.1,0-2.2,0.2-5.1,0.1l1.8-10.3l4.6,0.9C269.5,204,269.4,210.7,270.4,212.4z"/>
		<path class="st1" d="M268.9,201.7c-2.8,1.2-2.9,9.7-1.7,11.8c0,0-27.6,0-32.2-3.9c-3.2-2.7-7.8-29.7-9.7-41.1c-0.2-1,0-2,0.5-2.9
			c0.6-0.9,1.5-1.5,2.5-1.8c0,0,12.2-1.6,12.6,0.3c0.9,4.8,5.5,27.5,6.3,32.4c0.1,0.5,0.5,0.8,0.9,0.9
			C250.2,198.2,268.9,201.7,268.9,201.7z"/>
		<path class="st6" d="M189.5,176.3l5.6,18.5l1.1,33.9c1.9,12.5,43.7,8.8,43.7-7.5v-56.9c0-9.7-7-14.1-14.1-13.3
			c-1.6,0.2-3.1,0.6-4.6,1.2c-0.6,0.2-5-2.2-5.5-1.9L204,157c-0.8,0.5-1.6,0.9-2.3,1.4C194.1,163,189.5,167.3,189.5,176.3z"/>
		<path class="st5" d="M208.2,140.4v16.1c0.1,0.8,0.6,1.5,1.3,1.9c2.2,1.4,6.2,1.7,9,0.6c1.7-0.6,2.6-1.5,2.6-2.5v-12.9l-6.1-7.9
			h-0.7L208.2,140.4z"/>
		<path class="st5" d="M204.7,270.1c-0.7,0.3-1.7-0.7-2-1.7c-0.5-1.1-1-2.2-1.6-3.3c0,0-1.8,4.9-4.2,3.9c-6.1-2.5-6.1-5.7-5.7-8
			c0.5-2.3,2-3.9,2.3-6.2l-0.7-7.9h8.3l-0.1,4.7c-0.1,1.9,0.4,3.8,1.4,5.5l0.9,1.5c0.4,0.8,0.7,1.6,0.9,2.5l1.3,6.3
			C205.7,268.8,205.6,269.8,204.7,270.1z"/>
		<path class="st7" d="M244.6,228.9c0,5.3-8.5,11.6-9.6,10.9c-1.1-0.8,1-33.5-1.7-55c-1.4-10.8-3.6-20.8-7.4-27
			c-1.9-3-4.9-5.4-4.6-5.5c1.7-0.3,1.3-1.1,2.6-1.4c0.2,0,1.7,0,1.9,0c7.3,0,15.3,3.5,15.3,13.3l1.1,23.9L244.6,228.9z"/>
		<path class="st7" d="M195.9,239.9l-0.8-45l-7.8-17.6c0-9,6.8-14.3,14.4-18.9c0.7-0.5,1.5-0.9,2.3-1.4l4.3-2.5
			c0,0.1-0.4,2.5-0.4,2.5c-0.6,4.3,8,21.1,10.7,32.5c3.5,15,5.4,54.3,4.5,54.9C221.6,245.7,197,247,195.9,239.9z"/>
		<path class="st6" d="M190.1,181.9l-1,31.6c0,1.1,0,2.2,0.1,3.3l3.7,35.5c0.6,2.1,8.3,1.5,8.6-0.9l1-34.9c0-1.3,0-2.6,0.2-3.9
			c0.6-5.5,2.6-23.6,3-28.6L190.1,181.9z"/>
		<path class="st7" d="M206.9,184.1c-0.4,5.1-2.5,24.2-3,28.6c-0.1,1.2-0.2,2.5-0.2,3.7l-0.8,31.2c0.1,3.2-11.6,3.7-11.8,0.9
			l-3.2-31.6c-0.1-1.1-0.1-2.3-0.1-3.4l-0.6-36.1L206.9,184.1z"/>
		<path class="st8" d="M208.2,140.4v0.8c0,6.1,5,11.3,11.1,10.9c0.5,0,0.9-0.1,1.4-0.2l0.4-0.1v-8.3l-6.1-7.9l-0.3-0.3l-0.4,0.3
			L208.2,140.4z"/>
		<path class="st5" d="M226.7,125c3.1,5,5.3,14.5,2.7,19.7c-1.6,3.2-4,4.9-7.3,5.1c-4.1-0.2-8.1-1.4-11.7-3.6
			c-2.6-1.7-4.8-3.9-6.6-6.5c-5.2-8.1-3.1-16.2,3.4-20.4C219,111.6,222.5,118.2,226.7,125z"/>
		<path class="st1" d="M195.5,130.8c0.4,6,4.8,12.9,12.7,16.2v-3.2c-1.1-0.9-2-2.1-2.5-3.5c-0.3-0.9,1.1-1.4,2.5-0.9
			c0.1,0,0.1,0,0.2,0.1c0.8,0.3,1.7,0.3,2.5,0.1c1.3-0.2,2.1-1.5,1.9-2.8c0-0.2-0.1-0.4-0.2-0.5c-4.2-10,7.4-12.3,10.3-15.5
			c1.3,1.2,3.7,4.2,3.7,4.2c-0.5-1.7-1.2-3.3-1.9-4.8c-1.8-4.5-6.4-7.2-11.3-6.7c-0.8,0.1-1.6,0.2-2.4,0.4
			C199.4,116.7,195.1,124.9,195.5,130.8z"/>
		<path class="st5" d="M210.8,138.8c2.2,2,3,4.8,1.7,6.2s-4.2,1-6.4-1c-2.3-2-3-4.8-1.7-6.3C205.7,136.3,208.6,136.8,210.8,138.8z"
			/>
		<path class="st9" d="M389.3,105.3l-119.9,70c-5.5,3.2-8.9,9.1-8.9,15.4v94.7c0,4.9,4,8.9,8.9,8.9c1.6,0,3.1-0.4,4.5-1.2
			l119.9-70.3c5.5-3.2,8.8-9.1,8.8-15.4V113c0-4.9-4-8.9-8.9-8.9C392.1,104.1,390.6,104.5,389.3,105.3z"/>
		<path class="st0" d="M393.7,108.2l-119.9,70c-5.5,3.2-8.9,9.1-8.9,15.4v94.7c0,4.9,4,8.9,8.9,8.9c1.6,0,3.1-0.4,4.5-1.2
			l119.9-70.3c5.5-3.2,8.9-9.1,8.9-15.4v-94.4c0-4.9-4-8.9-8.9-8.9C396.6,107,395.1,107.4,393.7,108.2z"/>
		<path class="st9" d="M412.3,180.8l-73.8,43.1c-3.4,2-5.5,5.6-5.5,9.5v58.2c0,3,2.4,5.5,5.5,5.5c1,0,1.9-0.3,2.8-0.7l73.8-43.3
			c3.4-2,5.4-5.6,5.5-9.5v-58c0-3-2.4-5.5-5.5-5.5C414.1,180.1,413.2,180.3,412.3,180.8z"/>
		<path class="st0" d="M416.8,183.6L343,226.7c-3.4,2-5.5,5.6-5.5,9.5v58.2c0,3,2.5,5.5,5.5,5.5c1,0,1.9-0.3,2.8-0.7l73.7-43.3
			c3.4-2,5.4-5.6,5.5-9.5v-58.1c0-3-2.5-5.5-5.5-5.4C418.5,182.9,417.6,183.1,416.8,183.6z"/>
		<path class="st9" d="M94.7,159.9l73.8,43.1c3.4,2,5.5,5.6,5.5,9.5v58.2c0,3-2.5,5.5-5.5,5.5c-1,0-1.9-0.3-2.8-0.7l-73.8-43.3
			c-3.4-2-5.4-5.6-5.4-9.5v-58c0-3,2.4-5.5,5.5-5.5C92.9,159.2,93.9,159.4,94.7,159.9z"/>
		<path class="st0" d="M89.9,162.7l73.8,43.1c3.4,2,5.5,5.6,5.5,9.5v58.2c0,3-2.4,5.5-5.5,5.5c-1,0-1.9-0.3-2.8-0.7l-73.8-43.3
			c-3.4-2-5.4-5.6-5.5-9.5v-58c0-3,2.4-5.5,5.4-5.5C88.1,161.9,89.1,162.2,89.9,162.7z"/>
		<path class="st9" d="M107.2,264.9l47.9,27.9c2.2,1.3,3.5,3.6,3.6,6.2v37.8c0,2-1.6,3.6-3.5,3.6c-0.6,0-1.2-0.2-1.8-0.5l-47.9-28.1
			c-2.2-1.3-3.5-3.6-3.5-6.2v-37.7c0-2,1.6-3.6,3.6-3.6C106,264.4,106.6,264.5,107.2,264.9z"/>
		<path class="st0" d="M102.9,267.2l47.9,27.9c2.2,1.3,3.6,3.6,3.6,6.2v37.8c0,2-1.6,3.6-3.6,3.6c-0.6,0-1.2-0.2-1.8-0.5l-47.9-28.1
			c-2.2-1.3-3.5-3.6-3.5-6.2v-37.7c0-2,1.6-3.5,3.6-3.5C101.7,266.8,102.3,266.9,102.9,267.2z"/>
		<path class="st2" d="M392.5,244L318.8,287c-3.4,2-5.5,5.6-5.5,9.5v58.2c0,3,2.5,5.5,5.5,5.5c1,0,1.9-0.3,2.8-0.7l73.8-43.3
			c3.4-2,5.4-5.6,5.5-9.5v-58c0-3-2.4-5.5-5.4-5.5C394.3,243.2,393.4,243.5,392.5,244z"/>
		<path class="st2" d="M80.4,133.5l48.4,28.3c2.2,1.3,3.6,3.7,3.6,6.2v38.3c0,2-1.6,3.6-3.6,3.6c-0.6,0-1.2-0.2-1.8-0.5L78.6,181
			c-2.2-1.3-3.6-3.7-3.6-6.2v-38.1c0-2,1.6-3.6,3.6-3.6C79.2,133.1,79.8,133.2,80.4,133.5z"/>
		<path class="st2" d="M328.3,116.6l-48.4,28.3c-2.2,1.3-3.6,3.7-3.6,6.2v38.2c0,2,1.6,3.6,3.6,3.6c0.6,0,1.3-0.2,1.8-0.5l48.4-28.4
			c2.2-1.3,3.6-3.7,3.6-6.2v-38.1c0-2-1.6-3.6-3.6-3.6C329.5,116.1,328.9,116.3,328.3,116.6z"/>
	</g>
</g>
</svg>
