<?xml version="1.0" encoding="utf-8"?>
<!-- Generator: Adobe Illustrator 24.2.3, SVG Export Plug-In . SVG Version: 6.00 Build 0)  -->
<svg version="1.1" id="Layer_1" xmlns="http://www.w3.org/2000/svg" xmlns:xlink="http://www.w3.org/1999/xlink" x="0px" y="0px"
	 viewBox="0 0 500 500" style="enable-background:new 0 0 500 500;" xml:space="preserve">
<style type="text/css">
	.st0{fill-rule:evenodd;clip-rule:evenodd;fill:#FFFFFF;}
	.st1{opacity:0.35;fill-rule:evenodd;clip-rule:evenodd;fill:#59CAAF;enable-background:new    ;}
	.st2{fill-rule:evenodd;clip-rule:evenodd;fill:url(#SVGID_1_);}
	.st3{fill-rule:evenodd;clip-rule:evenodd;fill:url(#SVGID_2_);}
	.st4{fill-rule:evenodd;clip-rule:evenodd;fill:#4A9FF8;}
	.st5{fill-rule:evenodd;clip-rule:evenodd;fill:#4C68E5;}
	.st6{opacity:0.5;fill-rule:evenodd;clip-rule:evenodd;fill:#3856D8;enable-background:new    ;}
	.st7{fill-rule:evenodd;clip-rule:evenodd;fill:#6BB6FF;}
	.st8{fill-rule:evenodd;clip-rule:evenodd;fill:#00FFFF;}
	.st9{opacity:0.5;fill-rule:evenodd;clip-rule:evenodd;fill:url(#SVGID_3_);enable-background:new    ;}
	.st10{fill-rule:evenodd;clip-rule:evenodd;fill:#E5EDFF;}
	.st11{fill-rule:evenodd;clip-rule:evenodd;fill:#D1E7FF;}
	.st12{opacity:0.5;fill-rule:evenodd;clip-rule:evenodd;fill:#FFFFFF;enable-background:new    ;}
	.st13{fill-rule:evenodd;clip-rule:evenodd;fill:#22D2FB;}
	.st14{fill-rule:evenodd;clip-rule:evenodd;fill:#12A3EB;}
	.st15{fill-rule:evenodd;clip-rule:evenodd;fill:#1C8DF3;}
	.st16{opacity:0.5;fill-rule:evenodd;clip-rule:evenodd;fill:url(#SVGID_4_);enable-background:new    ;}
	.st17{fill-rule:evenodd;clip-rule:evenodd;fill:#D0E7FF;}
	.st18{fill-rule:evenodd;clip-rule:evenodd;fill:url(#SVGID_5_);}
	.st19{opacity:0.5;fill-rule:evenodd;clip-rule:evenodd;fill:url(#SVGID_6_);enable-background:new    ;}
	.st20{fill-rule:evenodd;clip-rule:evenodd;fill:url(#SVGID_7_);}
	.st21{opacity:0.5;fill-rule:evenodd;clip-rule:evenodd;fill:url(#SVGID_8_);enable-background:new    ;}
	.st22{fill-rule:evenodd;clip-rule:evenodd;fill:url(#SVGID_9_);}
	.st23{opacity:0.5;fill-rule:evenodd;clip-rule:evenodd;fill:url(#SVGID_10_);enable-background:new    ;}
	.st24{fill-rule:evenodd;clip-rule:evenodd;fill:url(#SVGID_11_);}
	.st25{opacity:0.25;fill-rule:evenodd;clip-rule:evenodd;fill:#6D6AFD;enable-background:new    ;}
	.st26{fill-rule:evenodd;clip-rule:evenodd;fill:#4A9EF8;}
	.st27{opacity:0.5;fill-rule:evenodd;clip-rule:evenodd;fill:#4164F3;enable-background:new    ;}
	.st28{opacity:0.5;fill-rule:evenodd;clip-rule:evenodd;fill:url(#SVGID_12_);enable-background:new    ;}
	.st29{fill-rule:evenodd;clip-rule:evenodd;fill:url(#SVGID_13_);}
	.st30{opacity:0.2;fill-rule:evenodd;clip-rule:evenodd;fill:#6D6AFD;enable-background:new    ;}
	.st31{fill-rule:evenodd;clip-rule:evenodd;fill:url(#SVGID_14_);}
	.st32{fill-rule:evenodd;clip-rule:evenodd;fill:#FFA698;}
	.st33{fill-rule:evenodd;clip-rule:evenodd;fill:url(#SVGID_15_);}
	.st34{fill-rule:evenodd;clip-rule:evenodd;fill:url(#SVGID_16_);}
	.st35{fill-rule:evenodd;clip-rule:evenodd;fill:url(#SVGID_17_);}
	.st36{opacity:0.35;fill-rule:evenodd;clip-rule:evenodd;fill:#3469C0;enable-background:new    ;}
	.st37{fill-rule:evenodd;clip-rule:evenodd;fill:#193161;}
	.st38{fill-rule:evenodd;clip-rule:evenodd;fill:url(#SVGID_18_);}
	.st39{opacity:0.3;fill-rule:evenodd;clip-rule:evenodd;fill:#1E2353;enable-background:new    ;}
	.st40{fill-rule:evenodd;clip-rule:evenodd;fill:url(#SVGID_19_);}
	.st41{fill-rule:evenodd;clip-rule:evenodd;fill:url(#SVGID_20_);}
	.st42{fill-rule:evenodd;clip-rule:evenodd;fill:#70B4F5;}
	.st43{fill-rule:evenodd;clip-rule:evenodd;fill:url(#SVGID_21_);}
	.st44{fill-rule:evenodd;clip-rule:evenodd;fill:url(#SVGID_22_);}
	.st45{fill-rule:evenodd;clip-rule:evenodd;fill:url(#SVGID_23_);}
	.st46{fill-rule:evenodd;clip-rule:evenodd;fill:url(#SVGID_24_);}
	.st47{fill-rule:evenodd;clip-rule:evenodd;fill:#562E65;}
	.st48{fill-rule:evenodd;clip-rule:evenodd;fill:url(#SVGID_25_);}
	.st49{fill-rule:evenodd;clip-rule:evenodd;fill:url(#SVGID_26_);}
	.st50{fill-rule:evenodd;clip-rule:evenodd;fill:#22043D;}
	.st51{fill-rule:evenodd;clip-rule:evenodd;fill:url(#SVGID_27_);}
	.st52{fill-rule:evenodd;clip-rule:evenodd;fill:url(#SVGID_28_);}
	.st53{fill-rule:evenodd;clip-rule:evenodd;fill:#161F69;}
	.st54{fill-rule:evenodd;clip-rule:evenodd;fill:url(#SVGID_29_);}
	.st55{fill-rule:evenodd;clip-rule:evenodd;fill:url(#SVGID_30_);}
	.st56{fill-rule:evenodd;clip-rule:evenodd;fill:url(#SVGID_31_);}
	.st57{fill-rule:evenodd;clip-rule:evenodd;fill:url(#SVGID_32_);}
	.st58{fill-rule:evenodd;clip-rule:evenodd;fill:url(#SVGID_33_);}
	.st59{fill-rule:evenodd;clip-rule:evenodd;fill:url(#SVGID_34_);}
	.st60{fill-rule:evenodd;clip-rule:evenodd;fill:url(#SVGID_35_);}
	.st61{fill-rule:evenodd;clip-rule:evenodd;fill:#FF8F7F;}
</style>
<g>
	<g id="Layer_1_1_">
		<path class="st0" d="M340.3,368l-1.2,2.1l-4.3-2.4l1.1-2.2L340.3,368L340.3,368z M305.7,94.3l2.8,1.6l1.2-2.1l-2.8-1.6L305.7,94.3
			z M310.7,97.1l1.2-2.1l4.3,2.4l-1.2,2.1L310.7,97.1L310.7,97.1z M317.1,100.6l1.2-2.1l4.3,2.4l-1.2,2.1L317.1,100.6z M323.5,104.2
			l1.2-2.1l4.3,2.4l-1.2,2.2L323.5,104.2L323.5,104.2z M329.9,107.8l1.2-2.1l4.3,2.4l-1.2,2.1L329.9,107.8z M336.3,111.3l1.2-2.1
			l4.3,2.4l-1.2,2.1L336.3,111.3z M342.7,114.9l1.2-2.1l4.3,2.4l-1.2,2.1L342.7,114.9z M349.2,118.5l1.2-2.1l4.3,2.4l-1.2,2.1
			L349.2,118.5z M355.6,122l1.2-2.1l4.3,2.4l-1.2,2.1L355.6,122z M362,125.6l1.2-2.1l4.3,2.4l-1.2,2.1L362,125.6z M368.4,129.2
			l1.2-2.1l4.3,2.4l-1.2,2.2L368.4,129.2L368.4,129.2z M374.8,132.8l1.2-2.1l4.3,2.4l-1.2,2.1L374.8,132.8z M381.2,136.3l1.2-2.1
			l4.3,2.4l-1.2,2.1L381.2,136.3z M387.6,139.9l1.2-2.1l4.3,2.4l-1.1,2.1L387.6,139.9L387.6,139.9z M394.1,143.5l1.2-2.1l4.3,2.4
			l-1.2,2.1L394.1,143.5z M400.3,147c1.2,0.9,2.3,1.9,3.1,3.2l2-1.4c-1-1.5-2.2-2.8-3.7-3.8L400.3,147L400.3,147z M404.5,152.2
			c0.6,1.4,1.1,2.8,1.3,4.3l0,0l2.4-0.3c-0.3-1.7-0.8-3.4-1.5-5L404.5,152.2L404.5,152.2z M405.9,158.7c-0.1,1.6-0.3,3.2-0.6,4.7
			l2.4,0.4c0.3-1.7,0.5-3.3,0.6-5L405.9,158.7L405.9,158.7z M404.9,165.9l2.4,0.4l-0.7,4.8l-2.4-0.4L404.9,165.9L404.9,165.9z
			 M403.9,173.1l2.4,0.4l-0.7,4.9l-2.4-0.4L403.9,173.1L403.9,173.1z M402.8,180.4l2.4,0.4l-0.7,4.9l-2.4-0.4L402.8,180.4
			L402.8,180.4z M401.7,187.7l2.4,0.4l-0.7,4.8l-2.4-0.4L401.7,187.7L401.7,187.7z M400.7,194.9l2.4,0.4l-0.7,4.8l-2.4-0.4
			L400.7,194.9L400.7,194.9z M399.6,202.2l2.4,0.4l-0.7,4.9l-2.4-0.4L399.6,202.2L399.6,202.2z M398.5,209.5l2.4,0.4l-0.7,4.9
			l-2.4-0.4L398.5,209.5L398.5,209.5z M397.5,216.7l2.4,0.4l-0.7,4.8l-2.4-0.4L397.5,216.7L397.5,216.7z M396.4,224l2.4,0.4
			l-0.7,4.9l-2.4-0.4L396.4,224L396.4,224z M395.3,231.3l2.4,0.4l-0.7,4.9l-2.4-0.4L395.3,231.3L395.3,231.3z M394.3,238.5l2.4,0.4
			l-0.7,4.8l-2.4-0.4L394.3,238.5L394.3,238.5z M393.2,245.8l2.4,0.4l-0.7,4.8l-2.4-0.4L393.2,245.8z M392.2,253.1l2.4,0.4l-0.7,4.9
			l-2.4-0.4L392.2,253.1L392.2,253.1z M391.1,260.3l2.4,0.4l-0.7,4.9l-2.4-0.4L391.1,260.3L391.1,260.3z M390.1,267.6l2.4,0.4
			l-0.7,4.8l-2.4-0.4L390.1,267.6L390.1,267.6z M389,274.9l2.4,0.4l-0.7,4.9l-2.4-0.4L389,274.9L389,274.9z M388,282.1l2.4,0.4
			l-0.7,4.9l-2.4-0.4L388,282.1L388,282.1z M386.9,289.4l2.4,0.4l-0.7,4.8l-2.4-0.4L386.9,289.4L386.9,289.4z M385.8,296.7l2.4,0.4
			l-0.7,4.9l-2.4-0.4L385.8,296.7L385.8,296.7z M384.8,303.9l2.4,0.4l-0.7,4.9l-2.4-0.4L384.8,303.9L384.8,303.9z M383.7,311.2
			l2.4,0.4l-0.7,4.8l-2.4-0.4L383.7,311.2L383.7,311.2z M382.6,318.5l2.4,0.4l-0.7,4.9l-2.4-0.4L382.6,318.5L382.6,318.5z
			 M381.6,325.7l2.4,0.4l-0.7,4.8l-2.4-0.4L381.6,325.7z M380.5,333l2.4,0.4l-0.7,4.8l-2.4-0.4L380.5,333L380.5,333z M379.4,340.3
			l2.4,0.4l-0.7,4.9l-2.4-0.4L379.4,340.3L379.4,340.3z M378.4,347.5l2.4,0.4l-0.7,4.8l-2.4-0.4L378.4,347.5z M377.3,354.8l2.4,0.4
			L379,360l-2.4-0.4L377.3,354.8L377.3,354.8z M376.3,362.1l2.4,0.4l-0.7,4.9l-2.4-0.4L376.3,362.1L376.3,362.1z M375.2,369.3
			l2.4,0.4l-0.7,4.8l-2.4-0.4L375.2,369.3L375.2,369.3z M374.1,376.6l2.4,0.4l-0.2,1.1c-0.2,1.4-0.7,2.8-1.4,4l-2.1-1.3
			c0.5-0.9,0.9-2,1-3.1L374.1,376.6L374.1,376.6z M371.6,382.3c-1.1,0.8-2.4,1-3.7,0.8l-0.5,2.4c2,0.4,4,0,5.6-1.2L371.6,382.3
			L371.6,382.3z M366,382.3l-1.2,2.1l-4.3-2.4l1.2-2.1L366,382.3z M359.6,378.7l-1.2,2.1l-4.3-2.4l1.2-2.1L359.6,378.7z
			 M353.1,375.1l-1.2,2.2l-4.3-2.4l1.2-2.1L353.1,375.1L353.1,375.1z M346.7,371.6l-1.2,2.1l-4.3-2.4l1.2-2.1L346.7,371.6z"/>
		<path class="st0" d="M161.9,98l1-1.9l3.7,2.1l-1,1.9L161.9,98z M167.4,272.7l-2.8-1.6l-1,1.9l2.8,1.6L167.4,272.7z M162.7,270.1
			l-1,1.9l-3.8-2.1l1-1.9L162.7,270.1L162.7,270.1z M157.1,267l-1,1.9l-3.7-2.1l1-1.9L157.1,267z M151.5,263.9l-1,1.9l-3.8-2.1
			l1-1.9L151.5,263.9L151.5,263.9z M145.9,260.7l-1,1.9l-3.7-2.1l1-1.9L145.9,260.7L145.9,260.7z M140.3,257.6l-1,1.9l-3.7-2.1
			l1-1.9L140.3,257.6L140.3,257.6z M134.7,254.5l-1,1.9l-1.9-1.1c-0.7-0.4-1.3-0.9-1.9-1.4l1.5-1.5c0.4,0.4,0.9,0.8,1.4,1.1
			L134.7,254.5L134.7,254.5z M130.2,250.9c-0.7-1.1-1.2-2.3-1.4-3.6l-2.1,0.4c0.3,1.5,0.9,3,1.7,4.3L130.2,250.9L130.2,250.9z
			 M128.6,245.4c0.1-1.4,0.4-2.8,0.6-4.1l-2.1-0.3c-0.3,1.4-0.5,2.9-0.6,4.3L128.6,245.4z M129.5,239.2l-2.1-0.3l0.6-4.2l2.1,0.3
			L129.5,239.2z M130.4,232.9l-2.1-0.3l0.6-4.2l2.1,0.3L130.4,232.9z M131.4,226.5l-2.1-0.3l0.6-4.2l2.1,0.3L131.4,226.5z
			 M132.3,220.2l-2.1-0.3l0.6-4.2l2.1,0.3L132.3,220.2z M133.2,213.9l-2.1-0.3l0.6-4.2l2.1,0.3L133.2,213.9z M134.2,207.5l-2.1-0.3
			l0.6-4.2l2.1,0.3L134.2,207.5z M135.1,201.2l-2.1-0.3l0.6-4.2l2.1,0.3L135.1,201.2z M136,194.8l-2.1-0.3l0.6-4.2l2.1,0.3
			L136,194.8z M136.9,188.5l-2.1-0.3l0.6-4.2l2.1,0.3L136.9,188.5L136.9,188.5z M137.9,182.2l-2.1-0.3l0.6-4.2l2.1,0.3L137.9,182.2z
			 M138.8,175.8l-2.1-0.3l0.6-4.2l2.1,0.3L138.8,175.8z M139.7,169.5l-2.1-0.3l0.6-4.2l2.1,0.3L139.7,169.5z M140.7,163.2l-2.1-0.3
			l0.6-4.2l2.1,0.3L140.7,163.2z M141.6,156.8l-2.1-0.3l0.6-4.2l2.1,0.3L141.6,156.8z M142.5,150.5l-2.1-0.3l0.6-4.2l2.1,0.3
			L142.5,150.5z M143.4,144.1l-2.1-0.3l0.6-4.2l2.1,0.3L143.4,144.1L143.4,144.1z M144.4,137.8l-2.1-0.3l0.6-4.2l2.1,0.3
			L144.4,137.8L144.4,137.8z M145.3,131.5l-2.1-0.3l0.6-4.2l2.1,0.3L145.3,131.5z M146.2,125.1l-2.1-0.3l0.6-4.2l2.1,0.3
			L146.2,125.1z M147.2,118.8l-2.1-0.3l0.6-4.2l2.1,0.3L147.2,118.8z M148.1,112.5l-2.1-0.3l0.6-4.2l2.1,0.3L148.1,112.5z
			 M149,106.1l-2.1-0.3l0.6-4.2l2.1,0.3L149,106.1z M149.9,99.8l-2.1-0.3c0.1-1.5,0.4-3,0.9-4.4l2,0.8
			C150.3,97.1,150.1,98.5,149.9,99.8L149.9,99.8z M151.6,94.5c0.8-0.7,1.9-0.9,2.9-0.5l0.7-2c-1.7-0.7-3.7-0.3-5.1,0.9L151.6,94.5
			L151.6,94.5z M156.3,94.9l1-1.9l3.7,2.1l-1,1.9L156.3,94.9z"/>
		<path class="st1" d="M328,392.9l-129.3-71.5c-3.2-1.5-7.8-2.8-10.9-0.9l-8,4.9c-1.6,1-6.9,4.2-3.3,6.1
			c10.4,5.6,120.4,67,130.9,72.7c2.5,1.1,5.3,1.6,8,1.2c3-0.2,6-1.1,8.6-2.6l3.2-2c2.3-1.4,3.5-2.9,3.6-4.4S329.9,393.8,328,392.9z"
			/>
		
			<linearGradient id="SVGID_1_" gradientUnits="userSpaceOnUse" x1="365.9112" y1="253.682" x2="315.8212" y2="65.432" gradientTransform="matrix(1 0 0 -1 -76.03 422.58)">
			<stop  offset="0" style="stop-color:#D1E8FF"/>
			<stop  offset="1" style="stop-color:#EAEFFF"/>
		</linearGradient>
		<path class="st2" d="M231,72c-1.8-1.1-4.1-1.4-6.1-0.7l-4.6,1.8c-1.7,8.6,94.8,323.8,96.9,326l4.1-1.5c2.7-1.1,4.1-3.9,4.5-6.6
			l34.5-235.4l0,0c0.5-4-0.5-8-2.8-11.4c-1.1-1.8-2.7-3.4-4.6-4.4L231,72z"/>
		
			<linearGradient id="SVGID_2_" gradientUnits="userSpaceOnUse" x1="399.4591" y1="155.8714" x2="226.2291" y2="252.1513" gradientTransform="matrix(1 0 0 -1 -76.03 422.58)">
			<stop  offset="0" style="stop-color:#6D6AFE"/>
			<stop  offset="1" style="stop-color:#3FB0F7"/>
		</linearGradient>
		<path class="st3" d="M348.3,141.6L226.4,73.8c-5-2.8-9.7-0.1-10.6,5.9l-34.5,235.4c-0.9,6,2.4,13.1,7.4,15.8l121.9,67.7
			c5,2.8,9.7,0.1,10.6-5.9l34.5-235.4C356.6,151.4,353.3,144.3,348.3,141.6z"/>
		<path class="st4" d="M348.3,141.6L226.4,73.8c-5-2.8-9.7-0.1-10.6,5.9l-1.8,12L354,169.5l1.8-12.1
			C356.6,151.4,353.3,144.3,348.3,141.6z"/>
		<path class="st5" d="M225.4,90.5c-1.7-1.5-2.4-3.8-2.1-6c0.4-2,2-2.6,3.6-1.3c1.7,1.5,2.4,3.8,2.1,6
			C228.6,91.2,227,91.8,225.4,90.5z"/>
		<path class="st5" d="M235.4,96.5c-1.7-1.5-2.4-3.8-2.1-6c0.4-2,2-2.6,3.6-1.3c1.7,1.5,2.4,3.8,2.1,6
			C238.6,97.2,237,97.8,235.4,96.5z"/>
		<path class="st5" d="M245.4,102.6c-1.6-1.5-2.4-3.8-2.1-6c0.4-2,2-2.6,3.6-1.3c1.6,1.5,2.4,3.8,2.1,6
			C248.5,103.3,247,103.9,245.4,102.6z"/>
		<path class="st6" d="M341,198.6c-0.4-0.2-0.8-0.1-1,0.3c-0.1,0.1-0.1,0.3-0.1,0.4c-0.1,0.7,0.2,1.4,0.8,1.8
			c0.4,0.2,0.8,0.1,1.1-0.2c0.1-0.1,0.1-0.3,0.1-0.4C341.9,199.7,341.6,199,341,198.6z M202.4,230.6l0.9,0.5l10-68l-0.9-0.5
			L202.4,230.6L202.4,230.6z M213.3,159.5c-0.5-0.3-1.1,0-1.2,0.7c-0.1,0.7,0.2,1.4,0.8,1.7c0.3,0.2,0.8,0.1,1.1-0.2
			c0.1-0.1,0.1-0.3,0.1-0.4C214.2,160.6,213.9,159.9,213.3,159.5L213.3,159.5z M217.3,242.4l1,0.5l9.9-68l-0.9-0.5L217.3,242.4
			L217.3,242.4z M228.2,171.3c-0.5-0.3-1.1,0-1.2,0.7c-0.1,0.7,0.2,1.4,0.8,1.7c0.4,0.2,0.8,0.1,1-0.2c0.1-0.1,0.1-0.3,0.1-0.4
			C229.1,172.4,228.8,171.7,228.2,171.3L228.2,171.3z M235.1,234.7l0.9,0.5l10-68l-1-0.5L235.1,234.7L235.1,234.7z M246,163.7
			c-0.6-0.3-1.1,0-1.2,0.6c-0.1,0.7,0.2,1.4,0.8,1.8c0.4,0.2,0.8,0.1,1-0.2c0.1-0.1,0.1-0.3,0.1-0.4
			C246.9,164.7,246.6,164,246,163.7L246,163.7z M253,227.1l0.9,0.5l10-68l-0.9-0.5L253,227.1L253,227.1z M263.9,156
			c-0.5-0.3-1.1,0-1.2,0.7c-0.1,0.7,0.2,1.4,0.8,1.7c0.3,0.2,0.8,0.1,1-0.2c0.1-0.1,0.1-0.3,0.1-0.4
			C264.8,157.1,264.5,156.4,263.9,156L263.9,156z M268.9,232.4l1,0.5l10-68l-0.9-0.5L268.9,232.4L268.9,232.4z M279.8,161.3
			c-0.5-0.3-1.1,0-1.2,0.7c-0.1,0.7,0.2,1.4,0.8,1.8c0.4,0.2,0.8,0.1,1-0.2c0.1-0.1,0.1-0.3,0.1-0.4
			C280.7,162.4,280.4,161.7,279.8,161.3L279.8,161.3z M283.4,247.4l1,0.5l10-68l-1-0.5L283.4,247.4z M294.3,176.3
			c-0.5-0.3-1.1,0-1.2,0.7c-0.1,0.7,0.2,1.3,0.8,1.7c0.3,0.2,0.8,0.1,1-0.2c0.1-0.1,0.1-0.3,0.1-0.4
			C295.2,177.4,294.9,176.7,294.3,176.3L294.3,176.3z M297.4,265.7l1,0.5l10-68l-0.9-0.5L297.4,265.7L297.4,265.7z M308.2,194.6
			c-0.4-0.2-0.8-0.1-1.1,0.2c-0.1,0.1-0.1,0.3-0.1,0.4c-0.1,0.7,0.2,1.4,0.8,1.8c0.3,0.2,0.8,0.1,1-0.2c0.1-0.1,0.1-0.3,0.1-0.4
			C309.1,195.7,308.8,195,308.2,194.6z M312.2,277.4l0.9,0.5l10-68l-0.9-0.5L312.2,277.4L312.2,277.4z M323.2,206.3
			c-0.5-0.3-1.1,0-1.2,0.6c-0.1,0.7,0.2,1.4,0.8,1.8c0.4,0.2,0.8,0.1,1.1-0.2c0.1-0.1,0.1-0.3,0.1-0.4
			C324.1,207.4,323.7,206.7,323.2,206.3L323.2,206.3z M330,269.7l1,0.5l10-68l-1-0.5L330,269.7z"/>
		<path class="st6" d="M346.9,205.3c-0.1-0.3-0.4-0.5-0.6-0.7c-0.3-0.2-0.6-0.2-0.9,0c-2.3,1.8-4.4,3.3-6.4,4.6s-3.8,2.4-5.5,3.4
			c-7.9,4.3-13.7,4.6-19.3,1.5c-5.6-3.1-10.9-9.9-17.9-19.4c-7.8-10.6-14.7-17.8-21.6-21.6c-1-0.6-2-1.1-3.1-1.5
			c-8-3.3-16.1-2.1-25.8,3.3c-1,0.5-2,1.1-2.9,1.7c-7.5,4.3-14.5,8.4-22.1,4.2c-3.9-2.2-8-6.6-12.4-14.4c-0.1-0.3-0.4-0.5-0.6-0.6
			c-0.3-0.2-0.6-0.2-0.9,0c-0.5,0.5-0.5,1.3-0.1,1.9c4.9,8.7,9.4,13.6,13.7,16c8.1,4.5,15.6,0.2,23.6-4.4l2.9-1.7
			c9.3-5.2,17-6.3,24.4-3.3c1,0.4,1.9,0.8,2.8,1.3c6.5,3.6,13.1,10.5,20.7,20.7c7.2,9.8,12.8,16.8,18.8,20.2l0.4,0.2
			c6,3.3,12.2,3,20.6-1.6c1.8-1,3.6-2.1,5.6-3.5c2-1.4,4.2-2.9,6.5-4.7C347.3,206.7,347.3,205.9,346.9,205.3z"/>
		<path class="st7" d="M345.6,200.4c-0.1-0.3-0.4-0.5-0.6-0.7c-0.3-0.2-0.6-0.2-0.9,0c-2.3,1.8-4.4,3.4-6.4,4.8
			c-2,1.4-3.8,2.5-5.5,3.5c-7.9,4.4-13.7,4.8-19.3,1.8c-5.6-3.1-10.9-9.7-17.9-19.1c-7.8-10.5-14.7-17.5-21.6-21.3
			c-1-0.5-2-1-3.1-1.4c-8-3.2-16.1-1.9-25.8,3.7c-1,0.6-2,1.1-2.9,1.7c-7.5,4.4-14.5,8.6-22.1,4.5c-3.9-2.1-8-6.5-12.4-14.2
			c-0.1-0.3-0.4-0.5-0.6-0.6c-0.3-0.2-0.6-0.2-0.9,0c-0.5,0.5-0.5,1.3-0.1,1.9c4.9,8.6,9.4,13.5,13.7,15.8c8.1,4.4,15.6,0,23.6-4.8
			c1-0.6,2-1.1,3-1.7c9.3-5.4,17-6.6,24.4-3.6c1,0.4,1.9,0.8,2.8,1.3c6.5,3.5,13.1,10.3,20.7,20.4c7.2,9.7,12.8,16.6,18.8,20
			l0.4,0.2c6,3.2,12.2,2.9,20.6-1.9c1.8-1,3.6-2.2,5.6-3.5c2-1.4,4.2-3,6.5-4.8C346,201.7,346,200.9,345.6,200.4z"/>
		<path class="st8" d="M344.1,199.7c-3.8,3-7.7,5.8-11.9,8.2c-7.9,4.4-13.7,4.8-19.3,1.8c-5.6-3.1-10.9-9.8-17.9-19.1
			c-6.2-8.3-14.8-18.8-24.7-22.7c-10.6-4.2-19.6-0.1-28.8,5.4c-7.5,4.4-14.5,8.6-22.1,4.5c-3.9-2.1-8-6.5-12.4-14.2
			c-0.1-0.3-0.4-0.5-0.6-0.6c1.2,3.2,6.8,12.6,12.2,15.6c8.2,4.4,15.2,0.5,23.1-4.2c8.9-5.1,18.1-9.6,28.4-5.5
			c9.3,3.7,18.3,14.6,24.1,22.4c7.2,9.7,12.4,16.3,18.5,19.7c4.1,2.5,9.2,2.9,13.6,1C331,210.2,341.7,203.4,344.1,199.7z"/>
		
			<linearGradient id="SVGID_3_" gradientUnits="userSpaceOnUse" x1="304.36" y1="173.2702" x2="329.17" y2="224.5202" gradientTransform="matrix(1 0 0 -1 -76.03 422.58)">
			<stop  offset="0" style="stop-color:#965CF2"/>
			<stop  offset="1" style="stop-color:#FF8ADC"/>
		</linearGradient>
		<path class="st9" d="M273.2,216.8l-71.6-39.7l-10,68.5l72.3,40.1c5.1,2.8,9.9,0.1,10.8-6l6.1-46.7
			C281.7,226.9,278.3,219.6,273.2,216.8z"/>
		<path class="st10" d="M271.9,231.3l-6.9,47.2l0.8,0.1l2.3-0.9c2.5-1,3.8-3.6,4.2-6.1l5.6-42.6l0,0c0.4-3.7-0.5-7.5-2.6-10.6
			c-1.1-1.7-2.5-3.1-4.3-4.1l-91.2-50.6c-1.7-1-3.8-1.3-5.7-0.6l-2,0.8c-1,0.4-1.3,0.7-1.3,0.8C171.6,173.4,273.2,222.3,271.9,231.3
			z"/>
		<path class="st11" d="M268.6,215.2l-91.2-50.6c-1.7-1.1-3.8-1.3-5.7-0.6c-2.1,0.8-3.7,3-4.2,6.1l-5.6,42.6
			c-0.8,5.6,2.3,12.2,6.9,14.8l91.2,50.6c4.6,2.6,9,0.1,9.9-5.5l5.6-42.6C276.3,224.3,273.2,217.7,268.6,215.2z"/>
		<path class="st12" d="M270.3,232.9l-52-28.6c-0.4-0.2-0.9-0.3-1.4-0.1c-0.6,0.3-1,0.8-1,1.5l-0.4,2.1c-0.2,1.4,0.5,2.8,1.6,3.5
			l52,28.6c0.7,0.5,1.7,0.3,2.1-0.5c0.2-0.3,0.2-0.6,0.2-0.9l0.3-2.1C272.1,235.1,271.5,233.7,270.3,232.9z"/>
		<path class="st12" d="M268.4,245.8l-52-28.6c-0.4-0.3-0.9-0.3-1.4-0.1c-0.6,0.3-1,0.8-1,1.5l-0.4,2.1c-0.2,1.4,0.5,2.8,1.6,3.5
			l52,28.6c0.7,0.5,1.6,0.3,2.1-0.4c0.2-0.3,0.3-0.6,0.2-0.9l0.4-2.1C270.2,247.9,269.6,246.6,268.4,245.8z"/>
		<path class="st12" d="M235.3,241.1l-20.7-11c-0.4-0.3-0.9-0.3-1.4-0.2c-0.6,0.3-1,0.8-1,1.5l-0.3,2.1c-0.2,1.4,0.5,2.8,1.6,3.5
			l20.7,11c0.7,0.5,1.7,0.3,2.1-0.5c0.2-0.3,0.2-0.5,0.2-0.8l0.3-2.1C237.1,243.2,236.4,241.9,235.3,241.1z"/>
		<path class="st13" d="M169,191.2c-1.6,14.4,6.4,32,17.9,39.2c11.5,7.2,22.5-2.1,23.7-12.9c1.2-10.8-0.8-15.3-4.1-22.5l-6,3.3
			c2.1,4.6,3.4,7.5,2.7,14.5c-0.8,7-7.8,13-15.2,8.3c-7.4-4.7-12.5-16-11.5-25.2L169,191.2z"/>
		<path class="st14" d="M177.1,176.6c-4.3,2.3-7.4,7.4-8.1,14.6l7.4,4.7c0.5-4.6,2.5-7.9,5.2-9.4
			C180.1,183.2,178.6,179.9,177.1,176.6z"/>
		<path class="st15" d="M192.7,178.2c-5.7-3.6-11.3-4-15.5-1.7c1.5,3.3,3,6.6,4.5,9.9c2.8-1.5,6.3-1.3,10,1.1
			c3.9,2.7,7,6.5,8.9,10.9c2-1.1,4-2.1,6-3.3C203.3,188.1,198.4,181.9,192.7,178.2z"/>
		
			<linearGradient id="SVGID_4_" gradientUnits="userSpaceOnUse" x1="379.3253" y1="141.2514" x2="397.4854" y2="168.3714" gradientTransform="matrix(1 0 0 -1 -76.03 422.58)">
			<stop  offset="0" style="stop-color:#965CF2"/>
			<stop  offset="1" style="stop-color:#FF8ADC"/>
		</linearGradient>
		<path class="st16" d="M304.1,296.3c-10.5-8.4-16.8-25.8-14-38.9s13.5-16.9,24-8.5s16.8,25.8,14,38.9S314.7,304.7,304.1,296.3z"/>
		<path class="st17" d="M292.5,248c1.9-2,6.7-3.1,9.4-3.3c3.1-0.2,6.6,1.1,10.1,4c9.1,7.5,14.6,23.1,12.2,34.9
			c-0.5,3-1.8,5.9-3.8,8.2c-1.7,1.8-7,4-9.5,4.2C296,298.1,286.8,253.9,292.5,248z"/>
		
			<linearGradient id="SVGID_5_" gradientUnits="userSpaceOnUse" x1="387.0613" y1="167.0044" x2="375.7213" y2="142.2944" gradientTransform="matrix(1 0 0 -1 -76.03 422.58)">
			<stop  offset="0" style="stop-color:#FD90DA"/>
			<stop  offset="1" style="stop-color:#8E6DFD"/>
		</linearGradient>
		<path class="st18" d="M299.7,292.1c-9.1-7.5-14.6-23.1-12.2-34.9s11.7-15.2,20.8-7.7s14.5,23.1,12.2,34.8S308.8,299.6,299.7,292.1
			z"/>
		<polygon class="st0" points="313.1,263.5 315.6,265.3 297.6,282.5 290.9,264.8 294.2,266.7 298.6,272.9 		"/>
		
			<linearGradient id="SVGID_6_" gradientUnits="userSpaceOnUse" x1="338.1955" y1="72.446" x2="365.6355" y2="119.936" gradientTransform="matrix(1 0 0 -1 -76.03 422.58)">
			<stop  offset="0" style="stop-color:#965CF2"/>
			<stop  offset="1" style="stop-color:#FF8ADC"/>
		</linearGradient>
		<path class="st19" d="M335.3,331.5l-108.2-59.8c-1.7-1-3.7-1.3-5.5-0.6c-2.1,0.8-3.6,2.9-4.1,5.9l-7.5,53.2
			c-0.8,5.4,2.2,11.8,6.7,14.3l99.5,55.1c1.1-0.4,6.4-1.3,6.6-2.9L335.3,331.5z"/>
		<path class="st17" d="M342.4,347.2l-8.5,55l0.8,0.1l2.1-0.8l0.3-0.1l0,0c2.3-0.9,3.5-3.3,3.9-5.7l7.2-50.7l0,0
			c0.4-3.5-0.5-6.9-2.4-9.8c-1-1.6-2.4-2.9-4-3.8l-109.2-60.5c-1.6-1-3.5-1.2-5.3-0.6l-1.9,0.7l-0.5,0.2c-0.8,0.3-1.1,0.6-1,0.6
			C224.8,280,343.6,338.8,342.4,347.2z"/>
		
			<linearGradient id="SVGID_7_" gradientUnits="userSpaceOnUse" x1="361.9044" y1="64.1834" x2="339.0645" y2="145.2834" gradientTransform="matrix(1 0 0 -1 -76.03 422.58)">
			<stop  offset="0" style="stop-color:#1C8EF4"/>
			<stop  offset="1" style="stop-color:#00CFDD"/>
		</linearGradient>
		<path class="st20" d="M339.4,332.3l-109.3-60.5c-1.6-1-3.5-1.2-5.3-0.6c-2,0.8-3.4,2.8-3.9,5.7l-7.2,50.8
			c-0.8,5.2,2.1,11.3,6.4,13.7l109.3,60.5c4.3,2.4,8.4,0.1,9.1-5.1l7.2-50.7C346.5,340.8,343.6,334.6,339.4,332.3z"/>
		<path class="st17" d="M220.1,310.1c1.2-7.2,4-9.6,7.6-8.6c0.6,0.2,1.2,0.4,1.7,0.7c3.5,2,7.1,7.2,7.6,15.9
			c0.4,5.5,1.4,10.5,6,13.1c12.1,6.5,7.7-31.8,19.2-25.3c9.9,5.6,4,26,7.8,38.9c1.3,4.5,3.7,6.6,5.4,7.5c7,3.7,7.7-8,8.6-13
			c4.2-22.8,6.9-24.1,11.1-21.6c4.4,2.6,6.4,4.3,5.6,28.1c-0.3,9.8,0,18.5,6.9,22.6c7.7,4.4,8.3-4.6,11.7-9c2-2.6,4.6-3.1,7-1.8
			c2.6,1.5,4.9,5.2,5.9,10.9c1.7,9.6,0.9,22.8,0.4,27.4l-115.2-65.2C218.4,323.7,219.1,316.3,220.1,310.1z"/>
		
			<linearGradient id="SVGID_8_" gradientUnits="userSpaceOnUse" x1="265.5182" y1="170.5126" x2="275.7082" y2="118.8227" gradientTransform="matrix(1 0 0 -1 -76.03 422.58)">
			<stop  offset="0" style="stop-color:#FD70CB"/>
			<stop  offset="1" style="stop-color:#6E4DFD"/>
		</linearGradient>
		<path class="st21" d="M207.4,269.6l-17.9-9.8l-7.8,53l18.1,10c5.1,2.8,9.9,0.1,10.8-6l4.3-31C215.9,279.6,212.5,272.4,207.4,269.6
			z"/>
		<path class="st17" d="M206.3,283.9l-5.4,33l0.8,0.1l2.3-0.9c2.5-1,3.8-3.6,4.2-6.1l4-28.4l0,0c0.4-3.7-0.5-7.5-2.6-10.6
			c-1.1-1.7-2.5-3.1-4.3-4.1l-35-19.2c-1.7-1.1-3.8-1.3-5.7-0.6l-2,0.8c-1,0.4-1.3,0.7-1.3,0.7C162.3,257.3,207.6,274.8,206.3,283.9
			z"/>
		<path class="st0" d="M203,267.7l-35-19.2c-1.7-1.1-3.8-1.3-5.7-0.6c-2.1,0.8-3.7,3-4.2,6.1l-4,28.4c-0.8,5.6,2.3,12.2,6.9,14.8
			l34.9,19.2c4.6,2.6,9,0.1,9.9-5.5l4-28.4C210.7,276.9,207.6,270.3,203,267.7z"/>
		
			<linearGradient id="SVGID_9_" gradientUnits="userSpaceOnUse" x1="254.2763" y1="128.6402" x2="260.2963" y2="149.2002" gradientTransform="matrix(1 0 0 -1 -76.03 422.58)">
			<stop  offset="0" style="stop-color:#6D6AFE"/>
			<stop  offset="1" style="stop-color:#3FB0F7"/>
		</linearGradient>
		<path class="st22" d="M196.9,278.1c-0.4,2.4-2.3,3.5-4.3,2.4c-2.2-1.4-3.3-3.9-3-6.4c0.4-2.4,2.2-3.5,4.3-2.3
			C196,273.1,197.2,275.5,196.9,278.1L196.9,278.1z M185.9,299.6c0.4-2.4,2.2-3.5,4.3-2.3c2.1,1.4,3.3,3.8,3,6.4
			c-0.4,2.4-2.3,3.5-4.3,2.4C186.7,304.6,185.6,302.1,185.9,299.6L185.9,299.6z M173.3,278.9c-0.4,2.4-2.3,3.4-4.3,2.3
			c-2.1-1.4-3.3-3.8-3-6.3c0.4-2.4,2.3-3.5,4.3-2.4C172.5,273.8,173.6,276.3,173.3,278.9L173.3,278.9z M194.3,268.6
			c-3.4-1.9-6.7-0.1-7.3,4v0.3l-11.9,1.9c-0.8-2.3-2.3-4.2-4.4-5.4c-3.4-1.9-6.6-0.1-7.2,4s1.6,8.9,5.1,10.8c1.6,1.1,3.7,1,5.2-0.1
			l9.6,13.8l-0.1,0.2c-0.6,4.1,1.7,9,5.1,10.9s6.6,0.1,7.2-4s-1.7-9-5.1-10.8c-2.4-1.3-4.7-0.8-6.1,1l-9.1-13.2
			c0.2-0.5,0.4-1.1,0.5-1.7c0.1-0.7,0.1-1.3,0.1-2l11.3-1.9c0.6,3,2.4,5.5,4.9,7.1c3.4,1.9,6.6,0.1,7.2-4S197.7,270.5,194.3,268.6
			L194.3,268.6z"/>
		
			<linearGradient id="SVGID_10_" gradientUnits="userSpaceOnUse" x1="408.8264" y1="246.0062" x2="424.1365" y2="290.1362" gradientTransform="matrix(1 0 0 -1 -76.03 422.58)">
			<stop  offset="0" style="stop-color:#965CF2"/>
			<stop  offset="1" style="stop-color:#FF8ADC"/>
		</linearGradient>
		<path class="st23" d="M365.1,145.2l-39.4-20.4l-4.1,2l-5.8,41.9c-0.9,5.8,2.4,12.7,7.2,15.4l26.6,14.5l4.5-1.8L365.1,145.2z"/>
		<path class="st17" d="M389.1,139.8l-10.2,67.6l0.9,0.1l2.4-0.9c2.6-1,4-3.8,4.4-6.4l8.8-62.8l0,0c0.5-3.9-0.5-7.8-2.7-11.1
			c-1.1-1.8-2.7-3.3-4.5-4.3l-46.5-25.5c-1.8-1.1-4-1.3-5.9-0.7l-2.1,0.8c-1,0.4-1.4,0.7-1.4,0.8
			C333.1,106.6,390.5,130.3,389.1,139.8z"/>
		<path class="st0" d="M385.6,122.9l-46.5-25.5c-1.8-1.1-3.9-1.3-5.9-0.7c-2.2,0.9-3.9,3.1-4.4,6.4l-8.8,62.8
			c-0.9,5.8,2.4,12.7,7.2,15.4l46.5,25.5c4.8,2.7,9.4,0.1,10.3-5.7l8.8-62.8C393.7,132.5,390.5,125.6,385.6,122.9z"/>
		
			<linearGradient id="SVGID_11_" gradientUnits="userSpaceOnUse" x1="439.3824" y1="300.1396" x2="427.0424" y2="252.7596" gradientTransform="matrix(1 0 0 -1 -76.03 422.58)">
			<stop  offset="0" style="stop-color:#6D6AFE"/>
			<stop  offset="1" style="stop-color:#3FB0F7"/>
		</linearGradient>
		<path class="st24" d="M385.6,122.9l-46.5-25.5c-1.8-1.1-3.9-1.3-5.9-0.7c-2.2,0.9-3.9,3.1-4.4,6.4l-7,50l64,35.1l7-49.9
			C393.7,132.5,390.5,125.6,385.6,122.9z"/>
		<path class="st25" d="M327,161.6c0.1-1.2,1-1.7,2-1.1l21,11.4c1,0.7,1.5,1.9,1.4,3.1l-0.3,2.3c-0.2,1.2-1,1.7-2,1.1L328,167
			c-1-0.7-1.5-1.9-1.4-3.1L327,161.6z"/>
		<path class="st25" d="M325.6,171.7c0.1-1,0.9-1.5,1.7-1c11.9,6.5,31.5,17,43.4,23.5c0.9,0.6,1.3,1.7,1.2,2.7l-0.3,2
			c-0.1,1-0.9,1.5-1.7,1c-11.9-6.5-31.5-17-43.4-23.5c-0.9-0.6-1.3-1.7-1.2-2.7L325.6,171.7z"/>
		<path class="st26" d="M378.4,136.2l-5.4,40.5l10.4,5.9l5.4-40.5L378.4,136.2L378.4,136.2z M348.8,106.3l-7.3,54.3l10.4,5.9
			l7.3-54.3L348.8,106.3L348.8,106.3z M363.1,124.4l10.4,5.9l-6,45l-10.4-5.9L363.1,124.4L363.1,124.4z M331.4,111.3l10.4,5.9
			l-5.4,40.5l-10.3-5.9L331.4,111.3z"/>
		<path class="st27" d="M329.1,127.2c-0.2-0.3-0.2-0.7,0.1-1c0,0,0,0,0.1,0c0.3-0.3,0.9-0.3,1.2,0l9.4,9.4l4.9,1.9l11.4-3l7.7-7.9
			c0.3-0.3,0.8-0.4,1.2-0.2c0.1,0,0.1,0.1,0.2,0.2l13.6,16.1l9.3,1.7c0.5,0,0.8,0.2,0.8,0.6c-0.1,0.4-0.5,0.8-0.9,0.8l-9.8-1.7
			c-0.3,0-0.5,0-0.7-0.2l-13.2-15.7l-7.2,7.3l0,0c-0.1,0.1-0.3,0.2-0.5,0.3l-12,3.2c-0.2,0.1-0.4,0.1-0.6,0l-5.2-2
			c-0.1,0-0.2-0.1-0.3-0.2L329.1,127.2z"/>
		<path class="st0" d="M329.1,127.4c-0.3-0.4-0.2-0.9,0.2-1.2c0.3-0.3,0.9-0.3,1.2,0c0,0,0,0,0,0l9.1,11.1l4.8,2.3l11.4-3.5l7.9-9.2
			c0.3-0.4,0.8-0.5,1.2-0.3c0.1,0.1,0.1,0.1,0.2,0.2l12.4,18.5l10.6-1.1c0.4-0.1,0.7,0.2,0.8,0.6c0,0.1,0,0.1,0,0.2
			c-0.1,0.5-0.4,0.9-0.9,1l-11.1,1.2c-0.3,0-0.5-0.1-0.7-0.3l-12.1-18.1l-7.3,8.5l0,0c-0.1,0.2-0.3,0.3-0.5,0.3l-12.1,3.6
			c-0.2,0.1-0.4,0.1-0.6,0l-5.2-2.4c-0.1,0-0.2-0.1-0.3-0.2L329.1,127.4z"/>
		
			<linearGradient id="SVGID_12_" gradientUnits="userSpaceOnUse" x1="298.1827" y1="268.4353" x2="292.7227" y2="319.2653" gradientTransform="matrix(1 0 0 -1 -76.03 422.58)">
			<stop  offset="0" style="stop-color:#965CF2"/>
			<stop  offset="1" style="stop-color:#FF8ADC"/>
		</linearGradient>
		<path class="st28" d="M211.5,104.8l19.7,9c4.7,2.7,6.1,11.5,5.3,17.4l-4,29.5c-0.8,5.9-5.2,8.4-9.9,5.7l-17.8-10.8l0.7-4.9
			L211.5,104.8z"/>
		<path class="st17" d="M162,83.1c0.3-2-0.3-3.2,0.7-4.3c1-0.8,2.2-1.5,3.4-1.9c1.8-0.6,3.8-0.3,5.4,0.7l56.3,32.9
			c4.5,2.6,7.6,9.3,6.9,15l-3.9,28.4c-0.2,1.8-0.9,4-2.4,5.3c-1.2,1-2.6,1.7-4.1,2c-1.3,0.2-1.6-1-3.1-1.8L165,126.5
			c-4.5-2.6-7.6-9.3-6.9-15L162,83.1z"/>
		<path class="st0" d="M160.5,84c0.7-5.7,5-8.1,9.6-5.5l56.3,32.9c4.5,2.6,7.6,9.4,6.9,15l-3.9,28.4c-0.7,5.7-5,8.1-9.6,5.5
			l-56.3-32.9c-4.5-2.6-7.6-9.3-6.9-15L160.5,84z"/>
		
			<linearGradient id="SVGID_13_" gradientUnits="userSpaceOnUse" x1="272.2863" y1="313.0355" x2="274.7463" y2="332.8954" gradientTransform="matrix(1 0 0 -1 -76.03 422.58)">
			<stop  offset="0" style="stop-color:#6D6AFE"/>
			<stop  offset="1" style="stop-color:#3FB0F7"/>
		</linearGradient>
		<path class="st29" d="M160.5,84c0.7-5.7,5-8.1,9.6-5.5l56.3,32.9c4.5,2.6,7.6,9.4,6.9,15l-0.4,2.7c-0.5-0.4-1-0.7-1.5-1
			l-71.1-41.6L160.5,84z"/>
		<path class="st30" d="M170.4,101.4c5.7,1.3,10.1,8.1,9.8,15.2c-0.3,7.1-5.2,11.8-10.9,10.5c-5.7-1.3-10.1-8.1-9.8-15.2
			S164.7,100.1,170.4,101.4z"/>
		
			<linearGradient id="SVGID_14_" gradientUnits="userSpaceOnUse" x1="244.6614" y1="303.0347" x2="247.4414" y2="315.0547" gradientTransform="matrix(1 0 0 -1 -76.03 422.58)">
			<stop  offset="0" style="stop-color:#6D6AFE"/>
			<stop  offset="1" style="stop-color:#3FB0F7"/>
		</linearGradient>
		<path class="st31" d="M170.1,107.3c3.1,0.7,5.5,4.4,5.3,8.2s-2.8,6.4-5.9,5.7s-5.5-4.4-5.3-8.2S167.1,106.6,170.1,107.3z
			 M170,110.6c-1.6-0.4-3,1-3.1,3s1.2,4,2.8,4.4s3-1,3.1-3S171.6,110.9,170,110.6z"/>
		<path class="st30" d="M183.7,115.1c0.2-1.5,1.3-2.2,2.5-1.4l36.8,20.8c1.3,0.9,2,2.4,1.8,4l-0.4,3c-0.2,1.5-1.3,2.1-2.6,1.4
			l-36.7-20.8c-1.3-0.9-2-2.4-1.8-4L183.7,115.1z"/>
		<path class="st30" d="M182.3,126.1c0.1-0.9,0.8-1.3,1.5-0.9l21.7,12.3c0.8,0.5,1.2,1.4,1.1,2.4l-0.2,1.8c-0.1,0.9-0.8,1.3-1.5,0.8
			l-21.7-12.3c-0.8-0.5-1.2-1.5-1.1-2.4L182.3,126.1z"/>
		<path class="st0" d="M166.6,81.5c1.4,0.5,2.3,1.9,2.1,3.3c-0.1,1.6-1.1,2.6-2.4,2.3c-1.4-0.5-2.3-1.9-2.1-3.3
			C164.3,82.2,165.4,81.2,166.6,81.5z"/>
		<path class="st0" d="M172.3,84.8c1.4,0.5,2.3,1.9,2.1,3.3c-0.1,1.6-1.1,2.6-2.4,2.3c-1.4-0.5-2.3-1.9-2.1-3.3
			C170,85.5,171.1,84.5,172.3,84.8z"/>
		<path class="st0" d="M178.4,88.3c1.4,0.5,2.3,1.9,2.1,3.3c-0.1,1.6-1.1,2.6-2.4,2.3c-1.4-0.5-2.3-1.9-2.1-3.3
			C176.1,89.1,177.2,88.1,178.4,88.3z"/>
		<path class="st1" d="M78.8,360.4l40.7-23.2c4.4-2,10.8-3.6,15.3-1.3c4.1,2.1,10.9,6.5,13.9,8.2c2.3,1.3,10.2,6,5.3,8.7
			c-14.5,7.9-28.8,16.8-43.6,24.8c-2.8,1.5-6.9,2.1-11.1,1.7c-4.2-0.3-8.3-1.5-12.1-3.6l-7.2-4.2c-3.2-1.9-4.9-4.1-5.1-6.1
			S76.1,361.6,78.8,360.4z"/>
		<path class="st32" d="M175.8,213.2c-0.3,0-0.7-0.1-1-0.2l0.8-0.1c1.4-0.7,2.7-1.5,3.9-2.5c-1.2-2.4-4.1,0.1-4.6,0.1
			c-0.2,0-1.7-0.3-3.2-0.3c-1.8-0.2-3.7,0.5-4.9,1.9c-0.7,0.5-1.4,1-2.2,1.6c0,1.9,0.6,3.8,1.6,5.4c0.4-0.2,0.7-0.3,1.1-0.3
			c1.5-0.2,2.9,0.2,6.2,1.3c3.3,1.1,3.9,1.1,9.1-2.6c3.8-2.7,5.8-4.2,5.2-6.2C186.4,206.5,180.5,212.5,175.8,213.2z"/>
		
			<linearGradient id="SVGID_15_" gradientUnits="userSpaceOnUse" x1="252.4736" y1="209.5563" x2="253.1736" y2="202.1663" gradientTransform="matrix(1 0 0 -1 -76.03 422.58)">
			<stop  offset="0" style="stop-color:#FF8A78"/>
			<stop  offset="1" style="stop-color:#FFA799"/>
		</linearGradient>
		<path class="st33" d="M175.4,218c-3.2-0.5-5.4-3.2-8.1-1.6c-0.7,0.4-1.3,0.8-1.8,1.2c0.2,0.5,0.5,1,0.8,1.5
			c0.4-0.2,0.7-0.3,1.1-0.3c1.5-0.2,2.9,0.2,6.2,1.3c3.3,1.1,3.9,1.1,9.1-2.6c2.5-1.8,4.3-3.1,5-4.4c0.3-0.6-0.6-1.3-1.4-0.7
			C182.1,215.3,180,217.4,175.4,218z"/>
		
			<linearGradient id="SVGID_16_" gradientUnits="userSpaceOnUse" x1="253.0254" y1="210.0636" x2="253.6054" y2="203.9736" gradientTransform="matrix(1 0 0 -1 -76.03 422.58)">
			<stop  offset="0" style="stop-color:#FF8A78"/>
			<stop  offset="1" style="stop-color:#FFA799"/>
		</linearGradient>
		<path class="st34" d="M186.8,211.2c-1.4,1.1-8.8,4.5-10.5,4.1c-0.5-0.1-0.4-1-0.4-2.1c-0.4,0.7,0.1,2.4-0.6,2c-4-2-5.7-2.4-8-0.9
			c1.5-0.3,3.1-0.2,4.5,0.3c1.4,0.5,2.7,1.3,4.1,1.7C179.7,215.2,182.1,214.8,186.8,211.2z"/>
		
			<linearGradient id="SVGID_17_" gradientUnits="userSpaceOnUse" x1="214.8849" y1="223.8531" x2="224.6249" y2="197.6631" gradientTransform="matrix(1 0 0 -1 -76.03 422.58)">
			<stop  offset="0" style="stop-color:#6D6AFE"/>
			<stop  offset="1" style="stop-color:#3FB0F7"/>
		</linearGradient>
		<path class="st35" d="M133.9,231.7c-0.8-0.8-1.6-1.6-2.1-2.1c-4-3.7-10.6-15.8-14.4-33.9c1.3-1.1,5.3-2.1,6-2.3
			c2.4-0.5,5,0.3,6.7,2.1c1.7,2,3.4,5.6,4.4,11.3c0.7,3.9,3.6,9,5.5,13.8c0.1,0.2,0.2,0.4,0.3,0.6c3.3-1.7,6.8-3.1,8.6-3.9
			c3.9-1.5,8.3-3,13.1-4.4c0.6-0.2,1.1,0.2,1.7,0.1c0.3-0.1,1.7-0.6,2-0.8c-0.1,2.5,0.7,5,2.4,6.9c-0.3,0.1-1.8,0.8-2.1,0.9
			c-0.5,0.4-1,0.8-1.4,1.3c-3.6,3.7-14,9.3-23.6,12.2C137.7,234.8,135.3,234.2,133.9,231.7z"/>
		<path class="st36" d="M133.9,231.7c-0.8-0.8-1.6-1.6-2.1-2.1c-4-3.7-10.6-15.8-14.4-33.9c8-6.5,15.7,4.3,17,11.5
			c1.7,9.4,3.4,17.4,3.4,27C136.2,234.2,134.7,233.2,133.9,231.7z"/>
		<path class="st37" d="M96.9,348.6c-0.1,0.9-0.3,1.7-0.5,2.5c-0.5,1.3-1,2.7-1.3,4.1c-0.7,2.8,0.3,6.6-0.7,10.6
			c-0.6,1.4-0.3,3.1,0.6,4.3c1,1.4,3,3.6,5.6,3.5c1-0.1,2-0.5,2.7-1.3c1.2-1.3,1.7-3,1.6-4.7c-0.3-1.8-0.4-3.6-0.4-5.5
			c0.1-2,0.4-3,0.4-5.2s-0.2-5.4-0.3-6.9L96.9,348.6z"/>
		<path class="st37" d="M119.5,336.9c-0.8,1.8-1.3,3.7-1.3,5.7c0.4,1.5,1.5,2.1,2.7,3.1l0.8,0.2c2,1.1,2.8,5,4.7,6.7
			c1.3,1.2,4,1.9,6.6,2.4c2.8,0.5,5.5-0.3,4.8-2.5c-1.8-5.5-9.7-11.7-9.9-17.9L119.5,336.9z"/>
		
			<linearGradient id="SVGID_18_" gradientUnits="userSpaceOnUse" x1="206.1366" y1="155.8461" x2="190.1966" y2="104.336" gradientTransform="matrix(1 0 0 -1 -76.03 422.58)">
			<stop  offset="0" style="stop-color:#235DA3"/>
			<stop  offset="1" style="stop-color:#123A76"/>
		</linearGradient>
		<path class="st38" d="M131.3,297.8c-0.2,10.5-2.5,30.2-2.1,40.6c-2.7,2.7-8.1,1.9-9.8-0.9c-1.1-9.5-2.4-23.1-2.5-28.4
			c-0.2-4.1,0.3-8.3,1.4-12.3c-1.6-11.5-8.2-27.2-6.6-38.1c0.7-4.8,3.8-9.9,4.7-13.8c7.8,9.7,13.8,5,17.1,4.2c0,3.3,0.2,2.9,0.1,6.4
			c-0.4,11.9-0.9,24.5-1.6,36.9C132,294.2,131.8,296,131.3,297.8z"/>
		<path class="st39" d="M117.5,319.1c-0.4-4.1-0.6-7.8-0.7-10c-0.2-4.1,0.3-8.3,1.4-12.3c-1.6-11.5-8.2-27.2-6.6-38.1
			c0.7-4.8,3.8-9.9,4.7-13.8c7.8,9.7,13.8,5,17.1,4.2v1l-10.3,7.6l2.5-0.6c-0.1,13.7-1.8,26.1-2,39.6c-2.4,7.2-4.4,14.6-6,22.1
			L117.5,319.1z"/>
		
			<linearGradient id="SVGID_19_" gradientUnits="userSpaceOnUse" x1="196.9086" y1="152.7157" x2="167.3385" y2="93.1357" gradientTransform="matrix(1 0 0 -1 -76.03 422.58)">
			<stop  offset="0" style="stop-color:#235DA3"/>
			<stop  offset="1" style="stop-color:#123A76"/>
		</linearGradient>
		<path class="st40" d="M113.8,305.4c-1.9,10.5-7.4,36.1-8.7,46.5c-3.4,1.9-7.7,0.9-8.9-1.9c0-9.5,0-26.7,0.7-32
			c0.7-5.1,2-10.2,3.9-15c-0.7-24.6-3.4-31.1-0.1-42c1.5-4.8,5.3-9.4,6.8-13.3c2.1,3.2,5.4,7.8,12.3,7.3c0.7-0.1,6.5-4.2,8.4-4.7
			c-2.4,14.6-9.4,33.8-12.8,49.7C115.1,301.9,114.6,303.7,113.8,305.4z"/>
		
			<linearGradient id="SVGID_20_" gradientUnits="userSpaceOnUse" x1="188.106" y1="217.0242" x2="197.356" y2="169.6142" gradientTransform="matrix(1 0 0 -1 -76.03 422.58)">
			<stop  offset="0" style="stop-color:#6D6AFE"/>
			<stop  offset="1" style="stop-color:#3FB0F7"/>
		</linearGradient>
		<path class="st41" d="M124.7,193.2c0.8,0.1,1.5,0.3,2.2,0.7c5.2,2.9,7,11.3,7.8,18.8c0.7,6.4,0.2,11.8,0,17.6
			c-0.2,4.7,0.4,9,0.2,13.5c-0.1,1.3-0.6,2.8-0.7,4.1c0,1-0.4,2-0.3,2.8c-2.6,9.9-27.1,10.7-30.7,4c0.3-1,0.5-2,0.6-3
			c-2.3-2.1-1-7.2-1.3-10.8c-0.2-2.5-0.7-5-1.5-7.3c-3.3-8.2-8-14.5-8.9-20.8c-0.6-4.3,4.9-9.8,12.2-14.1
			C111.3,194.4,120.9,192.1,124.7,193.2z"/>
		<path class="st42" d="M134.7,212.9c-2.6,2.6-18.6,18-36.4,14l0.2-1.2c18.7,4.1,35.6-14,35.7-14.1l0.4,0.4c0,0.2,0,0.4,0.1,0.6
			L134.7,212.9z"/>
		<path class="st42" d="M135,222.4c-4.4,4.1-18,15.5-33.3,13.3c-0.1-0.5-0.2-0.9-0.3-1.3c16.3,2.6,30.9-11,33.7-13.8
			C135,221.2,135,221.8,135,222.4z"/>
		<path class="st42" d="M100.9,233.4l3.2-6.6l4.2,7.1l3.6-8.7l5,6.7l2.6-9.3l5.3,5.7l2.4-10.6l3.9,6l3.3-12.5c0.1,0.5,0.1,1,0.2,1.5
			l0.1,0.5l-3.2,12.2l-3.9-5.9l-2.3,10.3l-5.3-5.8l-2.6,9.5l-5.1-6.9l-3.7,8.9l-4.3-7.2l-2.9,6c-0.1-0.3-0.2-0.5-0.3-0.8
			L100.9,233.4z"/>
		<path class="st42" d="M104.3,232.2c0.4,0,0.6,0.3,0.6,0.7c0,0.3-0.2,0.6-0.6,0.6c0,0,0,0-0.1,0c-0.4,0-0.6-0.3-0.6-0.7
			C103.7,232.5,104,232.2,104.3,232.2C104.3,232.2,104.3,232.2,104.3,232.2z"/>
		<path class="st42" d="M108.1,228.4c0.4,0,0.6,0.3,0.6,0.7c0,0.3-0.2,0.6-0.6,0.6c0,0,0,0-0.1,0c-0.4,0-0.6-0.3-0.6-0.7
			C107.5,228.7,107.7,228.4,108.1,228.4C108.1,228.4,108.1,228.4,108.1,228.4z"/>
		<path class="st42" d="M112.5,231.2c0.4,0,0.6,0.3,0.6,0.7c0,0.3-0.2,0.6-0.6,0.6c0,0,0,0-0.1,0c-0.4,0-0.6-0.3-0.6-0.7
			C111.9,231.5,112.1,231.2,112.5,231.2C112.5,231.2,112.5,231.2,112.5,231.2z"/>
		<path class="st42" d="M116.2,226.3c0.4,0,0.6,0.3,0.6,0.7c0,0.3-0.2,0.6-0.6,0.6c0,0,0,0-0.1,0c-0.4,0-0.6-0.3-0.6-0.7
			C115.6,226.6,115.8,226.3,116.2,226.3C116.2,226.3,116.2,226.3,116.2,226.3z"/>
		<path class="st42" d="M120.9,228.2c0.4,0,0.6,0.3,0.6,0.7c0,0.3-0.2,0.6-0.6,0.6c0,0,0,0-0.1,0c-0.4,0-0.6-0.3-0.6-0.7
			C120.2,228.4,120.5,228.2,120.9,228.2C120.8,228.2,120.9,228.2,120.9,228.2z"/>
		<path class="st42" d="M123.7,222.7c0.4,0,0.6,0.3,0.6,0.7c0,0.3-0.2,0.6-0.6,0.6c0,0,0,0-0.1,0c-0.4,0-0.6-0.3-0.6-0.7
			C123,223,123.3,222.7,123.7,222.7C123.6,222.7,123.6,222.7,123.7,222.7z"/>
		<path class="st42" d="M128.4,223.9c0.4,0,0.6,0.3,0.6,0.7c0,0.3-0.3,0.6-0.6,0.6c0,0,0,0-0.1,0c-0.4,0-0.6-0.3-0.6-0.7
			C127.7,224.1,128,223.9,128.4,223.9C128.3,223.9,128.3,223.9,128.4,223.9z"/>
		<path class="st42" d="M130.9,218c0.4,0,0.6,0.3,0.6,0.7c0,0.3-0.2,0.6-0.6,0.6c0,0,0,0-0.1,0c-0.4,0-0.6-0.3-0.6-0.7
			C130.2,218.2,130.5,218,130.9,218C130.8,218,130.8,218,130.9,218z"/>
		<path class="st42" d="M134.9,218.6c0.1,0,0.1,0,0.2,0c0,0.4,0,0.8,0,1.3c-0.1,0-0.1,0-0.2,0c-0.4,0-0.6-0.3-0.6-0.7
			C134.2,218.9,134.5,218.6,134.9,218.6C134.8,218.6,134.8,218.6,134.9,218.6z"/>
		<path class="st42" d="M100.2,228.5c0.4,0,0.6,0.3,0.6,0.7c0,0.3-0.2,0.6-0.6,0.6c0,0,0,0-0.1,0c-0.4,0-0.6-0.3-0.6-0.7
			C99.5,228.8,99.8,228.5,100.2,228.5C100.1,228.5,100.1,228.5,100.2,228.5z"/>
		<path class="st36" d="M104,216.2c0.9,5.1-0.2,13.6-2.7,18.2c-1.1-2.9-2.4-5.7-3.9-8.3C97.5,225.6,102.8,209.9,104,216.2z"/>
		
			<linearGradient id="SVGID_21_" gradientUnits="userSpaceOnUse" x1="182.1233" y1="158.1431" x2="184.2033" y2="161.7531" gradientTransform="matrix(1 0 0 -1 -76.03 422.58)">
			<stop  offset="0" style="stop-color:#FF8A78"/>
			<stop  offset="1" style="stop-color:#FFA799"/>
		</linearGradient>
		<path class="st43" d="M102.3,254.4c1.1,0.6,3.2,1.1,4,1.5c0.4,0.2,3.5,1.9,5.3,2.9s2.5,2.8,3.7,4.6c0.6,1.1,1.1,2.2,1.4,3.4
			c0.2,0.8-1.8,2.5-2.7,2.4c-2-0.3-4.2-2.6-4.7-2.9c-4.6-2-6.8-2.1-8.5-3.8c-0.7-0.7-1.3-3-2.9-5l2.6-2.6L102.3,254.4z"/>
		
			<linearGradient id="SVGID_22_" gradientUnits="userSpaceOnUse" x1="166.587" y1="207.3759" x2="172.067" y2="167.3259" gradientTransform="matrix(1 0 0 -1 -76.03 422.58)">
			<stop  offset="0" style="stop-color:#6D6AFE"/>
			<stop  offset="1" style="stop-color:#3FB0F7"/>
		</linearGradient>
		<path class="st44" d="M91.7,209.8c-4.1,6.6-7,18.5-10.7,26.6c-0.3,0.5-0.4,1.1-0.5,1.7c-0.7,2,0.4,3.7,1.8,5.5
			c3.4,4.4,6.1,8.3,13.1,13.5c0.6,0.3,1.2,0.5,1.8,0.5c0.4,0.3,1.1,0.9,1.5,1.2c-0.6-0.7,2.5-4.5,4-4.4c-0.4-0.5-0.8-1-1.3-1.5
			c0-0.6-0.2-1.2-0.4-1.7c-2.6-4.4-5.8-8.5-9.3-12.3c1.6-2.1,3-4.6,4.2-6.3c2-3,3.8-6.1,5.4-9.4c0.6-1.2,1-1.9,1.6-3.1
			C107.5,210.8,96.7,201.8,91.7,209.8z"/>
		<path class="st32" d="M121.1,198c0.1-0.4,0.2-0.8,0.3-1.2c0.2-1.2-0.1-3.6,0.3-6.3l-10.5-4.4c-0.2,5.9-1.1,7.1-2.2,11.9
			c0.1,4.7,11.8,6.8,12.1,1.3C121,198.8,121,198.4,121.1,198z"/>
		
			<linearGradient id="SVGID_23_" gradientUnits="userSpaceOnUse" x1="192.9022" y1="230.8431" x2="190.1822" y2="227.7831" gradientTransform="matrix(1 0 0 -1 -76.03 422.58)">
			<stop  offset="0" style="stop-color:#FF8A78"/>
			<stop  offset="1" style="stop-color:#FFA799"/>
		</linearGradient>
		<path class="st45" d="M121.1,198c0.1-0.4,0.2-0.8,0.3-1.2c0.2-1.2-0.1-3.6,0.3-6.3l-10.5-4.4c0,1.3-0.1,2.4-0.2,3.4
			c-0.4,3.9,3.4,10.7,10.1,9.8C121,198.8,121,198.4,121.1,198z"/>
		<path class="st32" d="M121.7,197.8c-1.3-0.9-4.8-3-6-3.8c-2.5-1.9-2.2-4.2-2.9-7.9c-2.4-1.7-3.2-3-3.4-4.5
			c-0.5-3.6,1.6-7.5,4.3-9.6c2.3-1.8,5.4-2.4,8.3-1.7c6,1.3,8.5,5.9,8.8,11.1c0,0.4,0,0.9-0.2,1.3c-0.2,0.6-0.4,1.3-0.6,1.9
			c-0.3,1.5,0.7,2.1,0.3,4c-0.6,2.6-2.7,7.7-3.6,8.6C126.1,197.8,123.1,198,121.7,197.8z"/>
		
			<linearGradient id="SVGID_24_" gradientUnits="userSpaceOnUse" x1="202.0673" y1="239.8261" x2="198.6873" y2="231.4861" gradientTransform="matrix(1 0 0 -1 -76.03 422.58)">
			<stop  offset="0" style="stop-color:#FFB89E"/>
			<stop  offset="1" style="stop-color:#FFA799"/>
		</linearGradient>
		<path class="st46" d="M130.5,179c0.2,0.7,0.2,1.5,0.3,2.3c0,0.4,0,0.9-0.2,1.3c-0.2,0.6-0.4,1.3-0.6,1.9c-0.3,1.5,0.7,2.1,0.3,4
			c-0.4,1.6-1,3.2-1.6,4.8c-3.9,3-7.3-0.6-7.8-1.3c-2.4-3.1-2.6-7.8-0.8-12.2C123.6,180.8,127.3,180.5,130.5,179z"/>
		<path class="st47" d="M107.8,179.8c0.5,3.1,1.5,6.2,2.9,9c1.2,2,0.7-0.4,1.3-1.8c0.5-1,2.1-1.1,2.6-2.2c0.1,0.8,0.5,1.6,1.1,2.1
			c0.4,0.2,1.1,0.5,1.2-0.6c0.1-3.7,1.8-4,1.3-6.2c-0.4-1.7-0.3-2.4,0.1-3c1.2,0.2,2,1.4,3.4,2c2.8,0.7,5.8,0.4,8.4-0.8
			c3-1.6,3.3-5.3,0.8-7.6c-1.4-1.3-3-1.6-5.1-3.1c-3.8-2.6-9-2.1-12.2,1.3C108,170.1,107.4,175.3,107.8,179.8z"/>
		<path class="st32" d="M113.6,182.9c-2.3-1-2.6,1.7-2.3,3.4c0.1,1.2,1.1,1.2,1.3,2.1c0.2,0.9,0.9,1.6,1.8,1.7
			c1.4,0.1,0.8-2.1,0.7-3C115.3,185.7,115,183.6,113.6,182.9z"/>
		
			<linearGradient id="SVGID_25_" gradientUnits="userSpaceOnUse" x1="203.7439" y1="246.1387" x2="201.254" y2="248.5287" gradientTransform="matrix(1 0 0 -1 -76.03 422.58)">
			<stop  offset="0" style="stop-color:#8A4791"/>
			<stop  offset="1" style="stop-color:#562E65"/>
		</linearGradient>
		<path class="st48" d="M119.8,175.4c-0.2,1.6,1.8,3.4,4.6,3.5c2.6,0.1,6.1-0.5,7.4-3.6c0.4-1.5-0.1-3-1.4-3.9c-1-0.5-2.1-0.5-3.1,0
			c-1.9,0.8-3.5,3-4.9,3.5C121.6,175.1,120.7,175.3,119.8,175.4z"/>
		
			<linearGradient id="SVGID_26_" gradientUnits="userSpaceOnUse" x1="468.7727" y1="183.6736" x2="456.5027" y2="160.0736" gradientTransform="matrix(1 0 0 -1 -76.03 422.58)">
			<stop  offset="0" style="stop-color:#5A2D68"/>
			<stop  offset="1" style="stop-color:#22043D"/>
		</linearGradient>
		<path class="st49" d="M371.5,212.5c-3.4-0.5-6.1,1.8-7.5,5c-1.4,3.5-1.7,7.3-0.8,10.9c2.2,8.1-1.7,11.6-3.1,15.4
			c-0.7,2-1,4.1-0.8,6.3c0.1,2.9,1.8,4.4,3.2,7c0.3,2.5,0.9,4.9,2,7.2c3.9,7.7,16.8,11.4,29.2,10.8c9.9-0.5,19.5-4,23.9-8
			c4.8-4.4,5.4-15.7-2.6-16.8c-1.9-0.3-4-0.7-5.6-2.6c-1.1-1.3,0-4.8,0.2-9.5c0.3-4.5-0.8-9.3-7.3-10.9c-2.5-0.6-5-0.9-7.1-2.2
			c-4.6-3-2.9-8.6-7.9-11.9c-3-2-7.8-2.4-13.1-0.9C373.2,212.3,372.3,212.4,371.5,212.5z"/>
		<path class="st50" d="M368.5,216.7c-0.2,2.2,0.5,4.3,1.8,6c3.1,4.3,4.7,4,6.3,9.5c2.8-1.8,4.6-2.1,5.4-0.3
			c1.3,2.9,0.5,4.6,0.8,7.6c0.5,4.9,6.3-1.8,10.9,1.9c4.6,3.7,1.4,6.3,3.1,11.4c0.6,2,1.1,4.5,3,5.4c5.6,2.7,7.8,9.4-2.2,12.8
			c-6.2,2.1-15.3,1.5-22.8-1c-10-3.4-16.1-18.1-13.6-25.1c1.1-2.9,3.9-5.1,3.9-7.3C365.1,229.7,363.6,224.8,368.5,216.7z"/>
		
			<linearGradient id="SVGID_27_" gradientUnits="userSpaceOnUse" x1="402.2147" y1="194.2519" x2="403.0547" y2="194.8919" gradientTransform="matrix(1 0 0 -1 -76.03 422.58)">
			<stop  offset="0" style="stop-color:#FF8A78"/>
			<stop  offset="1" style="stop-color:#FFA799"/>
		</linearGradient>
		<path class="st51" d="M323.2,223.6c-1.5,0.5-0.7,2.3-0.1,2.8c0.9,0.9,2.6,1.4,2.5,2.4s5.5,3,5.5,2.9c-0.5-1.7-1.4-3.3-2.6-4.6
			C325.4,225,325.8,226.3,323.2,223.6z"/>
		<path class="st32" d="M327.2,235.4c3.3,4.4,5.9,12.8,9.2,16.8c1,1.3,2.6,3.3,4.4,3c9.4-1.6,0.8-5.2,1.8-7.8
			c-1.6-5.5-8.3-8.6-11-14.6c-0.1-0.4-0.3-0.8-0.5-1.2c-1.1-2.3-2.2-3-6.6-3.9c-0.9-0.2-1.8-0.6-2.5-1.3l-2.9-2.9
			c-1-0.8-1.8-1-2.1-0.8c-0.9,1.1-1.5,2.4-1.7,3.8l0,0c-0.2,0.5,0.4,1.3,1.5,2.2l3.6,5h0.3C324.7,234.2,326.3,234.6,327.2,235.4z"/>
		
			<linearGradient id="SVGID_28_" gradientUnits="userSpaceOnUse" x1="407.2097" y1="175.8064" x2="436.9497" y2="182.5464" gradientTransform="matrix(1 0 0 -1 -76.03 422.58)">
			<stop  offset="0" style="stop-color:#965CF2"/>
			<stop  offset="1" style="stop-color:#FF8ADC"/>
		</linearGradient>
		<path class="st52" d="M342.2,257c6.5-0.6,15.7-1.7,20.7-4.3c3.3-1.7,9.1-8.9,5.8-12.9c-0.7-1.9-6.9,2.1-10,3.2
			c-4.9,1.8-9.9,3.4-15,4.6c-1.6-4.4-5.7-7.8-9-11.9c-0.5-0.6-1.1-1.1-1.8-1.5c-0.4-0.5-0.7-1-1-1.6c-0.5-0.2-4.1,1.2-5,3
			c0.3,0.3,0.8,1.1,1,1.5c0.4,0.5,0.3,1.2,0.5,1.8c0.9,2.1,5.4,11.2,8.4,14.7c1.1,1.4,2.8,3.7,4.8,3.4L342.2,257z"/>
		<path class="st1" d="M342.2,257c6.5-0.6,15.7-1.7,20.7-4.3c2.8-1.5,7.6-7,6.7-11.1c-1.2-1.1-1.9-1.8-3-1.7c-1.3,0.1-2.9,1.5-5.8,3
			c-4.5,2.3-8.7,2.5-12.2,6.6c-2.6,3-6.9,5.7-10.5,5.5c1,1.1,2.2,2.3,3.6,2L342.2,257z"/>
		<path class="st1" d="M348.2,410l40.8-23.2c4.4-2,10.8-3.6,15.3-1.3c4.1,2.1,10.9,6.5,13.9,8.2c2.3,1.3,10.2,6,5.3,8.7
			c-14.5,7.9-28.9,16.8-43.6,24.8c-2.8,1.5-6.9,2.1-11.1,1.7c-4.2-0.3-8.3-1.5-12.1-3.6l-7.2-4.2c-3.2-1.9-4.9-4.1-5.1-6.1
			S345.5,411.2,348.2,410z"/>
		<path class="st32" d="M391.8,376.8c-0.1,0.9,0.1,1.7,0.5,2.5c2.4,3.4-0.5,3.1-0.3,8c0,0.5-2,8.2-2,8.2s-4.7,1.2-5,1.1
			s-3.2-1.2-3.2-1.2c0.2-0.4,0.6-1.4,0.8-1.8c1.3-2.9,2.2-5.9,2.6-9.1c0.3-2.1,1-5.4,0.5-7.7L391.8,376.8z"/>
		<path class="st53" d="M381.6,395.4c-0.5,1-1,2-1.3,3.1c-0.2,0.4-0.2,0.9,0.1,1.3c1.1,1.5,6.8-1,8.8-2.6c1.3-1,1.3-2.3,1.7-3.9
			c0.5-2.3,0.6-2.6,1.2-5l0.4,6.5l0.5,0.3c0.2-2.8,0.6-5.6,1.1-8.4c0.2-0.9,0.5-1.9,0.6-2.4c0.4-2.1-0.6-4.2-2.4-5.3
			c0.4,1.8-1.2,4.7-1.9,8.4C389.4,391.8,385.5,395.4,381.6,395.4z"/>
		
			<linearGradient id="SVGID_29_" gradientUnits="userSpaceOnUse" x1="442.5602" y1="118.4405" x2="470.2802" y2="64.3705" gradientTransform="matrix(1 0 0 -1 -76.03 422.58)">
			<stop  offset="0" style="stop-color:#3E4795"/>
			<stop  offset="1" style="stop-color:#273088"/>
		</linearGradient>
		<path class="st54" d="M360.8,286.6c0.4,2-1.6,9-1.1,11.6c0.5,8.8,2,16.2,8,33.8c0,0.2,5.4,11,5.8,12.1
			c3.7,11.5,8.3,23.9,12.2,35.5c1.4,1.1,5.8,0.8,6.4-2c-1.2-11.6,0.1-23-1.9-30.9c-1.5-6-3.5-8.8-6.7-13.3
			c-1-11.4-1.7-34.2-4.3-42.9L360.8,286.6z"/>
		<path class="st39" d="M360.8,286.6c0.4,2,1.8,5.7,2.3,8.4c1.6,4,5.1,9.6,7.5,14.2c0.7,5.6,0.5,13.1,4,23.6l3.2,24.2
			c2.6,7.6,5.4,15.3,7.9,22.6c1.4,1.1,5.8,0.8,6.4-2c-1.2-11.6,0.1-23-1.9-30.9c-1.5-6-3.5-8.8-6.7-13.3c-1-11.4-1.7-34.2-4.3-42.9
			L360.8,286.6z"/>
		<path class="st32" d="M387.1,388.5c0.1,1.1,0.2,2.2,0.5,3.2c0.3,1.9,0.4,3.8,0.4,5.7c-0.1,3.4-0.5,6.9-1.3,10.2
			c-0.3,1.4-1,2-1.4,4L377,413c0.8-3.2,2-9.6,2.8-15l1.6-10.1L387.1,388.5z"/>
		<path class="st53" d="M387.6,391.2c0.6,1.6,1,3.2,1.1,4.9c0.1,2.3-1,5.9-0.9,8.7l0.1,4.5c0.1,2.6-0.6,4.5-3.6,6.6
			c-2.7,2-5.4,2.8-6.8,2.1c-1.1-0.5-1.9-2.4-0.3-7.3c1.4-4.1,1.7-8.1,2.5-12.5c-0.1,3.4-0.6,6.8-1.4,10.1c-0.3,1.2-0.5,3.2,1,3.4
			c5.9,0.8,6.1-0.7,6.6-2.5C387.2,404.3,388.2,395.7,387.6,391.2z"/>
		
			<linearGradient id="SVGID_30_" gradientUnits="userSpaceOnUse" x1="436.564" y1="107.6885" x2="479.114" y2="59.8585" gradientTransform="matrix(1 0 0 -1 -76.03 422.58)">
			<stop  offset="0" style="stop-color:#3E4795"/>
			<stop  offset="1" style="stop-color:#273088"/>
		</linearGradient>
		<path class="st55" d="M389.7,293.6c6.5,8.2,6.7,12.7,5.3,22.5c-0.9,6.5-2.9,14.5-3.4,26c0.6,5.9,1.6,12.6,0.8,21.8
			c-0.6,6.8-2.5,18.4-3.9,26.7c-1.4,2.5-7.8,1.4-8.8,0.1c0.3-11.8,0.1-19.9-0.5-29.4c-0.5-9.3-1.6-17.9-2.4-27
			c-0.6-7.6-2.9-17.9-3.2-26c-1.2-3.9-12.8-16.6-10.4-16.5L389.7,293.6z"/>
		
			<linearGradient id="SVGID_31_" gradientUnits="userSpaceOnUse" x1="448.2133" y1="135.7394" x2="454.2634" y2="171.5494" gradientTransform="matrix(1 0 0 -1 -76.03 422.58)">
			<stop  offset="0" style="stop-color:#965CF2"/>
			<stop  offset="1" style="stop-color:#FF8ADC"/>
		</linearGradient>
		<path class="st56" d="M389,275.2c-2.9,6.8,2,10.5,0.3,15.2l0.5,3.2c-5.3,3.8-24.4,4.1-29.2-3.5l-0.1-3.8c-0.8-1.8-0.3-6.4,0-7.6
			c0.8-3.9,0.4-5.9,0.8-10.3c0.1-1.1,0.3-1.8,0.4-3c-4.3-3.2-4-9.3-1.5-13c1.3-1.8,2.4-3.8,3.3-5.8c0.2-1.1,0.4-2.2,0.7-3.3
			c0.2-0.7,0.5-1.3,0.9-1.8c1.2-1.7,3.2-1.9,7.2-1c7.9,1.8,16.1,6,19.8,9.8c2.6,2.8,2.5,6,1,12.7C392.1,267.1,390.7,271.2,389,275.2
			z"/>
		<path class="st1" d="M389,275.2c-2.9,6.8,1.9,10.6,0.1,15.3l0.5,3.1c-5.3,4.1-24.4,4-29.2-3.6l0.1-3.3c0-0.1,9.4,8.3,20,3.6
			c2.3-1,4.4-6.1,1.4-15.8c-0.3-0.9-3.7-1-8.5-4.5c3.5,1.5,10.3,3.6,10.6-5.5c0.1-4,0.7-7.1,2.8-9.9c1-1.4,6.9,5.8,6,9.2
			C391.9,267.7,390.5,271.5,389,275.2z"/>
		
			<linearGradient id="SVGID_32_" gradientUnits="userSpaceOnUse" x1="464.4963" y1="123.4519" x2="463.1463" y2="125.9019" gradientTransform="matrix(1 0 0 -1 -76.03 422.58)">
			<stop  offset="0" style="stop-color:#FF8A78"/>
			<stop  offset="1" style="stop-color:#FFA799"/>
		</linearGradient>
		<path class="st57" d="M391.5,290.2c-1,0.6-2.7,1.2-3.5,1.6c-0.4,0.2-3,1.9-4.5,2.9s-2,2.6-3,4.3c-0.5,1-0.9,2-1.1,3.1
			c-0.1,0.7,1.7,2.1,2.5,1.9c1.8-0.4,3.6-2.6,4-2.8c4-2.1,5.9-2.3,7.3-3.9c0.6-0.7,1-2.7,2.2-4.6l-2.4-2.2L391.5,290.2z"/>
		
			<linearGradient id="SVGID_33_" gradientUnits="userSpaceOnUse" x1="477.1223" y1="140.1579" x2="469.9624" y2="170.3979" gradientTransform="matrix(1 0 0 -1 -76.03 422.58)">
			<stop  offset="0" style="stop-color:#965CF2"/>
			<stop  offset="1" style="stop-color:#FF8ADC"/>
		</linearGradient>
		<path class="st58" d="M392,249.6c5.9,3.7,12.4,13.9,18.2,23c0.9,1.3,1,3.1,0.2,4.5c-0.3,0.7-0.7,1.4-1.1,2.1
			c-3.1,4.8-7,9.1-11.4,12.8c-0.5,0.4-1.1,0.6-1.7,0.7c-0.4,0.3-0.9,0.9-1.3,1.2c0.5-0.6-2.5-3.8-3.8-3.6c0.3-0.4,0.7-0.9,1-1.4
			c0-0.5,0.1-1,0.2-1.5c1.8-4.4,4.3-8.5,7.4-12.1c-5.3-5.7-8.4-7.1-13.3-13.1C380.6,254.8,388.1,247.2,392,249.6z"/>
		<path class="st32" d="M379.8,234.7c-0.6,3.4-0.3,6.9,0.8,10.2c-2.9,2.6-8,1.5-9.1-0.9c0.3-1.6,0.5-3,0.7-4.6L379.8,234.7z"/>
		
			<linearGradient id="SVGID_34_" gradientUnits="userSpaceOnUse" x1="451.9129" y1="183.0456" x2="452.4929" y2="180.1456" gradientTransform="matrix(1 0 0 -1 -76.03 422.58)">
			<stop  offset="0" style="stop-color:#FF8A78"/>
			<stop  offset="1" style="stop-color:#FFA799"/>
		</linearGradient>
		<path class="st59" d="M379.8,234.7c-0.3,1.6-0.4,3.3-0.3,4.9c-0.8,3.4-7.2,5.7-7.9,3c0.2-1,0.4-2.1,0.5-3.2L379.8,234.7z"/>
		<path class="st32" d="M368,219.9c-1.5,2.3-2.2,5-1.9,7.7c0.1,0.6,0,1.3-0.3,1.9c-1.3,3-1.2,4-0.6,6.4c0.7,2.4,0.6,3.6,1.4,4.4
			c0.9,0.7,2,1.1,3.1,1.1c2.1,0.1,5.8-1.3,7.9-2.4c1.6-0.9,1.5-1.5,2.2-3c2.2-1.9,0.8-3.4,0-3.5c-2.1-0.4-2.5,2.1-3.8,2.6
			C376.4,230.7,368.1,223.4,368,219.9z"/>
		
			<linearGradient id="SVGID_35_" gradientUnits="userSpaceOnUse" x1="441.5905" y1="194.3715" x2="446.0605" y2="187.1315" gradientTransform="matrix(1 0 0 -1 -76.03 422.58)">
			<stop  offset="0" style="stop-color:#FFB89E"/>
			<stop  offset="1" style="stop-color:#FFA799"/>
		</linearGradient>
		<path class="st60" d="M367,221.6c-0.8,1.9-1.2,4-0.9,6c0.1,0.6,0,1.3-0.3,1.9c-1.3,3-1.2,4-0.6,6.4c0.3,1.1,0.4,1.9,0.6,2.6
			c0.5,0.8,1.6,1.1,2.5,0.7c1.2-0.7,1.9-1.9,2-3.2c0.1-1.3,2.7-2.1,3.2-3.3c0.4-1.1-0.7-2.2-1.5-2.8
			C369.7,227.5,367.9,224.7,367,221.6z"/>
		<path class="st61" d="M368,219.9c1.2,5.3,8.2,9.4,8.2,15.1C374.3,229,367.5,224.9,368,219.9z"/>
	</g>
</g>
</svg>
