<?xml version="1.0" encoding="utf-8"?>
<!-- Generator: Adobe Illustrator 24.2.3, SVG Export Plug-In . SVG Version: 6.00 Build 0)  -->
<svg version="1.1" id="Layer_5" xmlns="http://www.w3.org/2000/svg" xmlns:xlink="http://www.w3.org/1999/xlink" x="0px" y="0px"
	 viewBox="0 0 500 500" style="enable-background:new 0 0 500 500;" xml:space="preserve">
<style type="text/css">
	.st0{fill-rule:evenodd;clip-rule:evenodd;fill:#D8EAFF;}
	.st1{fill-rule:evenodd;clip-rule:evenodd;fill:#C5DFFE;}
	.st2{fill-rule:evenodd;clip-rule:evenodd;fill:#EEF6FF;}
	.st3{fill-rule:evenodd;clip-rule:evenodd;fill:#A9CBF3;}
	.st4{fill-rule:evenodd;clip-rule:evenodd;fill:#FFFFFF;}
	.st5{fill-rule:evenodd;clip-rule:evenodd;fill:#0154A3;}
	.st6{fill-rule:evenodd;clip-rule:evenodd;fill:#16E7B3;}
	.st7{fill-rule:evenodd;clip-rule:evenodd;fill:#FFAA83;}
	.st8{fill-rule:evenodd;clip-rule:evenodd;fill:#ED9870;}
	.st9{fill-rule:evenodd;clip-rule:evenodd;fill:#452312;}
	.st10{fill-rule:evenodd;clip-rule:evenodd;fill:#713D22;}
	.st11{fill-rule:evenodd;clip-rule:evenodd;fill:#CE7C56;}
	.st12{fill-rule:evenodd;clip-rule:evenodd;fill:#D1E7F4;}
	.st13{fill-rule:evenodd;clip-rule:evenodd;fill:#0AA98E;}
	.st14{fill-rule:evenodd;clip-rule:evenodd;fill:#333333;}
	.st15{fill-rule:evenodd;clip-rule:evenodd;fill:#E8FAFF;}
	.st16{fill-rule:evenodd;clip-rule:evenodd;fill:#C5E3FF;}
	.st17{fill-rule:evenodd;clip-rule:evenodd;fill:#52517B;}
	.st18{fill-rule:evenodd;clip-rule:evenodd;fill:#DDA274;}
	.st19{fill-rule:evenodd;clip-rule:evenodd;fill:#343354;}
	.st20{fill-rule:evenodd;clip-rule:evenodd;fill:#A48263;}
	.st21{fill-rule:evenodd;clip-rule:evenodd;fill:#826448;}
	.st22{fill-rule:evenodd;clip-rule:evenodd;fill:#CEAB8B;}
	.st23{fill-rule:evenodd;clip-rule:evenodd;fill:url(#SVGID_1_);}
	.st24{fill-rule:evenodd;clip-rule:evenodd;fill:#007EFF;}
	.st25{fill-rule:evenodd;clip-rule:evenodd;fill:url(#SVGID_2_);}
	.st26{fill-rule:evenodd;clip-rule:evenodd;fill:#66658F;}
	.st27{fill-rule:evenodd;clip-rule:evenodd;fill:#666666;}
</style>
<path class="st0" d="M298.8,77.3v-7.1l6.1,3.5v7.1L298.8,77.3z M238.8,40.7l6.1,3.5v7.1l-6.1-3.5L238.8,40.7z M192.1,312.2l22,12.6
	c-0.1,0.8-0.2,1.7-0.3,2.5c-0.5,2.2-0.6,4.5-0.2,6.8c0,0.1,0,0.2,0,0.3L192,322.2L192.1,312.2z M242,350.7c0-1.1,0.1-2.1,0.1-3.2
	c0-2.3-0.2-4.7-0.6-7l43.5,24.9l10.4-4.9l0.5,0.3c0.9,0.5,2.6,1.5,5,3l2.6,1.5l-18.4,10.2L242,350.7z M205.8,456.7l12.6,7.3
	l-12.5,7.2l-12.5-7.3L205.8,456.7z"/>
<path class="st1" d="M298.8,82.1l6.1,3.5v7l-6.1-3.5V82.1z M244.9,63.2l-6.1-3.5v-7l6.1,3.5V63.2z M244.9,68l-0.1,7.1l-6.1-3.5
	l0.1-7L244.9,68z M298.7,101l0.1-7l6.1,3.5l-0.1,7L298.7,101z M241.7,354.8c0.1-1.4,0.2-2.7,0.3-4.1l43,24.7l18.4-10.2
	c2.1,1.2,4.2,2.4,6.3,3.7c3.2,1.9,6.4,3.7,9.5,5.6c3.3,1.8,6.5,3.7,9.8,5.5c1.8,1.1,3.6,2.1,5.5,3c1.2,0.6,2.7,0.6,3.9-0.2
	c1.1-0.6,2.3-1.3,3.5-2.1l2.8-1.8l0.6-0.4l9.9,5.7l-31.2,18L241.7,354.8z M202.5,307.2l-10.4,5v9.9l21.5,12.3c0.3,1.5,0.5,3,0.8,4.6
	l-68.9-39.7c0-0.6,0-1.3,0-1.9v-1.6l18.9-10.9c2.1,1.2,4.2,2.4,6.3,3.6c3.4,2,6.9,4,10.3,6c3.7,2.1,7.4,4.3,11.1,6.5
	C195.6,303.1,199.1,305.1,202.5,307.2L202.5,307.2z M248,432.3l12.5,7.3l-12.5,7.2l-12.5-7.3L248,432.3z M226.9,459l-12.5-7.3
	l12.6-7.2l12.5,7.3L226.9,459z"/>
<path class="st2" d="M304.9,61.8v7.1l-6.1-3.5v-7.1L304.9,61.8z M238.9,35.8v-7l6.1,3.5v7L238.9,35.8z M203.7,161.7v5.8l7.4,4.3
	v-5.9L203.7,161.7z M199,158.9l-13.9-8v5.9l13.9,8V158.9z M214.4,167.7v5.9l2.8,1.6v-5.9L214.4,167.7z M272.7,201.5l-3.5-2v5.9
	l3.5,2V201.5z M279.4,205.3v5.9l3.4,1.9v-5.9L279.4,205.3z M293.8,219.4l8.8,5.1v-5.8l-8.8-5.1V219.4z M240.1,182.6l-12.6-7.2v5.9
	l12.6,7.2V182.6z M260.2,200.1v-5.9l-12.5-7.3v5.9L260.2,200.1z M202.5,307.2c-3.5-2-6.9-4.1-10.4-6.2c-3.7-2.2-7.5-4.3-11.1-6.5
	c-3.5-2-6.9-4-10.3-6c-2.1-1.2-4.2-2.4-6.3-3.6l-18.8,10.9c-0.1-2.6-0.3-5.2-0.7-7.8l12.3-7.1c-2.2-1.3-4.4-2.7-6.4-4.2
	c0.2-0.1,0.4-0.2,0.5-0.4c0.7-1.2,1.3-2.6,1.6-4c0-0.3,0-0.6-0.2-0.8c-0.2-0.2-0.4-0.4-0.6-0.5c-0.3-0.1-0.6,0-0.8,0.2
	c-0.2,0.2-0.4,0.4-0.5,0.7c-0.3,1.2-0.7,2.3-1.4,3.4c-0.1,0.1-0.1,0.2-0.1,0.2c-0.2-0.2-0.4-0.5-0.5-0.7c-0.7-1.1-1.1-2.4-1.2-3.8
	c-0.2-1.8-0.3-3.7-0.2-5.5v-2.3c0.1-3.3,0.2-6.3,0.2-9v-5.9c0.1-1.1,0.1-2.3,0.1-3.5V134.3c0.2-2.7,0.9-4.3,2.1-4.7
	c1.3,0.2,2.5,0.6,3.5,1.3l183.3,107.3c1.1,1,1.8,2.3,2,3.8v141c-1.2,0.7-2.7,0.8-3.9,0.2c-1.9-1-3.7-2-5.5-3
	c-3.3-1.9-6.5-3.7-9.8-5.5c-3.2-1.9-6.3-3.7-9.5-5.6c-2.1-1.3-4.3-2.5-6.3-3.7l-2.6-1.5c-2.4-1.5-4.1-2.5-5-3l-0.4-0.3l-57.5-33
	c0,0,0-0.1,0-0.1c-0.9-4.5-1.5-9.1-1.8-13.7v-0.5c1.4-0.4,2.7-1,4-1.7l91,52.1V242.5L156,141.1v122.4l50.2,28.7
	c-0.4,0.4-0.6,1-0.8,1.6c-1.2,5.9,0.4,12.1,4.2,16.7c0.4,0.5,0.8,1,1.1,1.6c-1.5-0.9-3-1.8-4.5-2.7c-0.9-0.4-1.7-0.9-2.5-1.4
	C203.5,307.6,203,307.4,202.5,307.2z M149.4,262.9c-0.2-0.2-0.4-0.3-0.7-0.3c-0.3,0-0.6,0.1-0.7,0.4c-0.2,0.2-0.3,0.4-0.3,0.7
	c0,0.3,0.1,0.5,0.3,0.7c1,0.8,1.8,1.9,2.3,3c0.1,0.2,0.3,0.4,0.6,0.5c0.3,0.1,0.6,0.1,0.9,0c0.2-0.1,0.4-0.3,0.5-0.6
	c0.1-0.3,0.1-0.6,0-0.9C151.5,265.2,150.5,264,149.4,262.9z M145.7,305.8c-0.3,0.1-0.5,0.4-0.6,0.6c-0.1,0.3,0,0.5,0.1,0.8
	c0.7,1.2,1.2,2.5,1.7,3.8c0,0.3,0.2,0.5,0.5,0.6c0.2,0.2,0.5,0.2,0.8,0.1c0.3-0.1,0.5-0.3,0.6-0.6c0.1-0.2,0.1-0.5,0.1-0.7
	c-0.5-1.4-1.1-2.8-1.8-4.1c-0.1-0.3-0.4-0.5-0.6-0.5C146.2,305.7,145.9,305.7,145.7,305.8L145.7,305.8z M227.4,380.3l-3.2-0.4
	l0.1,1.2c-0.2-0.9-0.2-1.8-0.2-2.6c0.1-3.2,0.3-6.4,0.7-9.5c0.5-4.5,1.4-8.9,2.6-13.3v-0.1l0.4,1.4c0.1,0.2,0.1,0.3,0.2,0.5l1,3.5
	c0.1,0.6,0.1,1.2,0.1,1.8C228.6,368.6,228,374.4,227.4,380.3z M227.2,385.7l-0.2-0.1l0.2-0.2C227.3,385.6,227.3,385.7,227.2,385.7z
	 M240.3,393.3L240.3,393.3l-0.1-0.2C240.3,393.2,240.4,393.2,240.3,393.3L240.3,393.3z M248,432.3l-12.5,7.2l12.5,7.3l12.5-7.2
	L248,432.3z M205.8,456.7l-12.5,7.2l12.5,7.3l12.6-7.2L205.8,456.7z M226.9,459l12.6-7.2l-12.5-7.3l-12.6,7.2L226.9,459z
	 M281.6,427.3l-12.5-7.3l-12.5,7.3l12.5,7.3L281.6,427.3z M290.2,422.3l12.5-7.2l-12.5-7.3l-12.5,7.2L290.2,422.3z"/>
<path class="st3" d="M244.8,79.9v7l-6.1-3.4v-7L244.8,79.9z M244.8,98.8l-6.1-3.5v-7l6.1,3.5V98.8z M304.8,109.4v7l-6.1-3.5v-7
	L304.8,109.4z M304.8,128.3l-6.1-3.5v-7l6.1,3.5V128.3z M214.1,324.8l-22-12.6l10.4-5c0.5,0.2,0.9,0.4,1.4,0.7
	c0.8,0.5,1.6,1,2.5,1.4c1.5,0.9,3,1.8,4.5,2.7C213.4,315.8,214.5,320.3,214.1,324.8z M238.8,331.7c-0.4-1.4-0.8-2.8-1-4.2l57.5,33
	l-10.3,5l-43.6-25C240.9,337.5,240.1,334.5,238.8,331.7L238.8,331.7z M153.9,316.1l1.1-0.6l10.6,6.6l-1.1,0.6L153.9,316.1z
	 M156.7,314.5L156.7,314.5l1.1-0.6l10.5,6.6l-1,0.6L156.7,314.5z M167.5,324.6l1.1-0.6l10.6,6.6l-1.1,0.6L167.5,324.6z M170.2,323.1
	l1-0.6l10.8,6.6l-1,0.6L170.2,323.1z M290.2,422.4l-12.5-7.3l12.5-7.2l12.5,7.3L290.2,422.4z M281.7,427.4l-12.5,7.3l-12.5-7.3
	l12.5-7.3L281.7,427.4z"/>
<path class="st4" d="M256.5,300.4l-1.8,1.5c-0.9-3.6-2.4-5.3-4.7-5l3.2-2.2c0.5,0.3,1,0.6,1.5,0.9l0.5,0.2c0.8,0.5,1.2,1.5,1.3,3.2
	C256.5,299.3,256.5,299.8,256.5,300.4z M213.8,290c2,1.5,4.2,2.7,6.6,3.5c0.8,0.3,1.7,0.5,2.6,0.6l2.4,1.4h0.1v0.1
	c-1.2,0.8-2.6,1.2-4.1,1.1c-0.6,0-1.1-0.1-1.7-0.2c-2.5-0.5-4.5-2.2-6.2-5.2L213.8,290z M242.6,298.5l-0.1-0.6
	c0.9-1.6,1-3.5,0.2-5.1c-0.3-0.8-0.8-1.5-1.4-2.1c0.1,0,0.2,0,0.3-0.1h0.1l2.2-0.6c0,0,0.1,0.1,0.1,0.2c1,1.3,1.6,3,1.6,4.6
	c0,1.2-0.3,2.3-1,3.2h-0.2l-0.5,0.2C243.4,298.2,243,298.3,242.6,298.5L242.6,298.5z M156.7,314.5l10.6,6.6l1-0.6l-10.6-6.6
	L156.7,314.5L156.7,314.5z M153.9,316.1l10.6,6.6l1.1-0.6l-10.6-6.6L153.9,316.1z M170.2,323.2l10.8,6.6l1-0.6l-10.8-6.7
	L170.2,323.2z M167.5,324.7l10.7,6.7l1.1-0.6l-10.6-6.6L167.5,324.7z"/>
<path class="st5" d="M283.2,216.2v5.9l3,1.8V218L283.2,216.2z M279.3,214.1l-2.9-1.8v5.8l2.9,1.9L279.3,214.1z M279.5,228.7l5,2.9
	v-5.9l-5-2.9V228.7z M289.4,225.7l13.2,7.7v-5.9l-13.2-7.7L289.4,225.7z M269.4,227.7c-1-0.8-2.1-1.5-3.2-2.1
	c-3.9-2.2-7.3-3-10.3-2.3v-5.3l-8.3-4.8v5.9l7.7,4.4c-0.7,0.2-1.3,0.5-1.9,0.8c-0.3,0.2-0.5,0.3-0.8,0.5l-4.9-2.9v5.9l0.1,0.1
	c-2.1,2.2-3.1,5.5-3.1,9.9c0.1,4.6,1.1,9.1,3,13.3v2.9l2,1.2c0.1,0.2,0.2,0.4,0.3,0.6c1.4,2.4,3,4.6,4.8,6.7l-7.1-4v5.9l9.4,5.4
	l-2.5,9.6c-0.3,0-0.5,0-0.8,0c-0.1,0-0.2,0-0.4,0l-5.7-3.3v5.9l3.5,2l-0.2,0.6c-0.7,0.3-1.3,0.7-1.9,1.1l-1.5-0.9v2.3
	c-0.1,0.2-0.2,0.3-0.4,0.5l-0.2,0.3c0,0.1-0.1,0.2-0.2,0.2c-0.2,0.4-0.3,0.8-0.4,1.2h-0.3l-0.3,0.1c0.1,0,0.3,0,0.4,0.1
	c0.3,0,0.5,0.1,0.8,0.2c-0.4-0.1-0.8-0.2-1.2-0.2c-0.8,0.2-1.5,0.4-2.2,0.6l-2.2,0.6h-0.1c-0.1,0.1-0.2,0.1-0.3,0.1
	c-0.4,0.1-0.8,0.2-1.2,0.3v-1.9l-8.3-4.8v5.9l2.8,1.6c-3.8,0.5-7.7,0.6-11.5,0.4c0.2-0.8,0.6-1.6,1.2-2.2c0.1-0.2,0.3-0.3,0.5-0.5
	l3.1-2.6c0-2.5-0.5-5-1.4-7.4h-0.1c-0.5-1.3-1.1-2.5-1.8-3.6c0-0.2,0.1-0.3,0.1-0.5v-0.8c0-0.4-0.1-0.8-0.2-1.2
	c-0.6-1.2-2.1-1.5-4.6-1c-1.7,0.3-3.4,1-4.9,2l-2.6-1.5v4.3c-0.7,1.1-1.1,2.4-1.3,3.7l-0.2-0.2v5.9l1.1,0.7c0,0,0,0.1,0.1,0.1
	c0.6,0.8,1.4,1.5,2.2,2.1l-0.4,0.4l-3.2,0.5c-0.5,0-1.1,0.1-1.6,0.2c-0.5,0.1-1,0.3-1.5,0.6c-0.5,0.2-0.9,0.6-1.2,1L156,263.5V141.1
	L331,242.5v121.1l-91-52.1c2.7-1.3,5.3-2.7,7.8-4.4v1l9.9,5.8v-5.9l-5.1-3c0.6,0.1,1.1,0.1,1.7,0.1c1-0.1,1.5-0.4,1.6-0.8l1.1-4.1
	c0.4-0.2,0.7-0.5,0.8-0.9c0.2-0.4,0.4-0.8,0.4-1.2c0.1-0.1,0.2-0.1,0.4-0.2c0.4-0.5,0.8-1,1.1-1.6c1.5-2.5,2.4-5.3,2.5-8.3
	c-0.1,0-0.2,0-0.3-0.1c-0.3-0.1-0.6-0.1-0.9-0.1h-0.2l-0.2,0.1v-2l0.9-3.4c0.1-0.5-0.3-1-1.1-1.4l3-11.5c1,0.6,2.1,1,3.3,1.4v4.2
	l6.7,3.9v-5.8l-2.6-1.5c1.7,0,3.4-0.4,4.9-1.3l0.3-0.2l0.1,0.1v-0.2c0.3-0.2,0.7-0.5,1-0.7c0.7-0.2,1.4-0.5,2-0.9l0.6-0.4v4.2
	l8.5,4.9v-5.8l-7.3-4.2c2.4-2.3,3.5-5.7,3.5-10.5c0-2.9-0.4-5.8-1.3-8.7l1,0.6V243l-2.2-1.3v3.1c-0.6-1.3-1.2-2.7-1.9-4.1
	c-0.3-0.5-0.6-1.1-0.9-1.6c-1.1-1.8-2.2-3.6-3.5-5.3v-4.4l-6.1-3.6L269.4,227.7z M205.6,206.4l-20.5-11.8v5.9l20.5,11.7L205.6,206.4
	z M233.3,250.1v5.9l6.8,3.9V254L233.3,250.1z M240.1,268.6v-5.9l-3.7-2.2v5.9L240.1,268.6z M277,227.4v-5.9l-5.4-3.2v5.9L277,227.4z
	 M292.6,236.3v-5.9l-5-2.8v5.8L292.6,236.3z M283.2,239.6l7.1,4.1v-5.9l-7.1-4.1V239.6z M295.7,246.8l6.9,4.1V245l-6.9-4V246.8z
	 M298.7,233.9v5.9l3.9,2.3v-5.9L298.7,233.9z M240.1,191.4l-3.2-1.8v5.8l3.2,1.8V191.4z M233.2,204.8v5.9l6.9,3.9v-5.9L233.2,204.8z
	 M230.2,194.3v5.9l9.9,5.8V200L230.2,194.3z M247.7,204.5v5.9l3.4,1.9v-5.8L247.7,204.5z M249.9,202.8V197l-2.2-1.4v5.9L249.9,202.8
	z M217,186.7v5.9l6.3,3.5v-5.9L217,186.7z M215.3,177l-5.2-3v5.8l5.2,3.1V177z M207,180.9v5.9l5.7,3.3v-5.9L207,180.9z M199.5,176.6
	l-14.4-8.3v5.8l14.4,8.3V176.6z M212.7,198.8V193l-7.7-4.3v5.8L212.7,198.8z M212.7,201.7l-3.1-1.8v5.9l3.1,1.8V201.7z M208.1,199.1
	l-23.1-13.3v5.8l23.1,13.3V199.1z M214.9,200.1l3.7,2.2v-5.9l-3.7-2.2V200.1z M216.9,204.3l-3.3-2v5.9l3.3,1.9V204.3z M229.4,208.5
	v-5.9l-3.6-2.1v5.8L229.4,208.5z M224,199.5l-3.6-2v5.8l3.7,2.2L224,199.5z M217.8,204.7v5.8l7,4.1v-5.9L217.8,204.7z M202.5,187.2
	l-7.6-4.5v5.9l7.6,4.4V187.2z M214.4,211.6v5.8l4.3,2.4V214L214.4,211.6z M215.4,220.9v5.9l3.7,2.1V223L215.4,220.9z M227.1,224.6
	l13,7.5v-5.9l-13-7.4V224.6z M212.6,216.3v-5.8l-4.5-2.6v5.9L212.6,216.3z M209.4,217.3v5.9l3.7,2.1v-5.8L209.4,217.3z M203.1,219.6
	l4,2.3V216l-4-2.3V219.6z M199.3,211.6l-14.3-8.3v5.9l14.4,8.2L199.3,211.6z M205,229.5l7.7,4.3V228l-7.7-4.4V229.5z M203.4,222.6
	l-18.4-10.5v5.8l18.3,10.6L203.4,222.6z M211.7,243.5l5.8,3.3V241l-5.8-3.3V243.5z M199.7,230.7v5.9l8.5,4.8v-5.9L199.7,230.7z
	 M200.1,239.7l-3.6-2.2v5.9l3.6,2.2V239.7z M221.1,238.7v-5.8l-6.7-4v5.9L221.1,238.7z M210.6,245.7v5.9l5,3v-5.9L210.6,245.7z
	 M240.1,223.3v-5.8l-5.9-3.3v5.8L240.1,223.3z M229.7,243.7l10.4,6v-5.9l-10.4-5.9V243.7z M236,238.6l4.1,2.3V235l-4.1-2.3V238.6z
	 M247.7,267.2v5.9l4,2.4v-5.9L247.7,267.2z M242.6,298.5c0.4-0.2,0.8-0.3,1.3-0.4l0.5-0.2h0.2c1.4-0.4,2.5-0.7,3.2-0.9v0.3l-0.2,1
	c-2.3,1.4-4.8,2.5-7.4,3.2V299C240.8,298.9,241.6,298.8,242.6,298.5z M240.1,280.3l-11.5-6.6v5.8l11.5,6.6V280.3z M240.1,277.4v-5.8
	l-3-1.7v5.9L240.1,277.4z M214.4,256.7v5.8l6.8,4v-5.8L214.4,256.7z M203.4,250.4l-18.3-10.5v5.9l18.3,10.5V250.4z M205.1,257.3
	l7.7,4.3v-5.9l-7.7-4.3V257.3z M197.5,264.5v5.9l7.1,4.1v-5.9L197.5,264.5z M207.8,267.6l2.2,1.3v-5.9l-2.2-1.3V267.6z M206,260.6
	l-2.2-1.3v5.9l2.2,1.3V260.6z M200,257.3l-14.9-8.7v5.9l14.9,8.7V257.3z M203.4,276.6v5.9l5,2.9v-5.8L203.4,276.6z M200.2,274.7
	l-5-2.8v5.9l5,2.8V274.7z M211.9,264.1v5.9l2.3,1.2v-5.8L211.9,264.1z M234.1,302.5c-0.5-0.9-1.1-1.6-1.8-2.3c0.5,0,0.9-0.1,1.4-0.1
	c1.1-0.1,2.1-0.3,3-0.4v2.1l0.8,0.4C236.4,302.4,235.2,302.5,234.1,302.5z M258.4,299.6v5.9l3.7,2.1v-5.9L258.4,299.6z M302.6,271.3
	l-5.1-3v5.9l5.1,3V271.3z M302.6,280l-11-6.3v5.8l11,6.4V280z M302.6,253.7l-14.8-8.6v5.8l14.8,8.7V253.7z M302.6,262.5l-18.2-10.6
	v5.9l18.2,10.5V262.5z M287.8,268.5l3.6,2.2v-5.9l-3.6-2.2V268.5z M274.6,288.7l3.7,2v-5.8l-3.7-2V288.7z M272.4,281.5l-3.6-2v5.9
	l3.6,2.1V281.5z M275.1,280.2l7.7,4.4v-5.9l-7.7-4.4V280.2z M284.5,285.6l18.2,10.6v-5.9l-18.1-10.6L284.5,285.6z M280.6,286.3v5.9
	l4.1,2.3v-5.9L280.6,286.3z M279.6,309.1l23,13.4v-6l-23-13.4V309.1z M279.5,294.5l-4.5-2.6v5.9l4.5,2.6V294.5z M282.2,301.8
	l20.4,11.8v-5.8l-20.4-11.8V301.8z M288.5,296.6l14.1,8.3V299l-14.1-8.3V296.6z M273.4,290.9l-4.3-2.4v5.8l4.3,2.4V290.9z
	 M262.9,299.4l6.9,4v-5.8l-6.9-4.1V299.4z M263.7,308.7l3.8,2.2V305l-3.8-2.2V308.7z M278.2,302.4l-3-1.9v6l3.1,1.8L278.2,302.4z
	 M274.2,305.9v-5.9l-3.5-1.9v5.9L274.2,305.9z M269.1,305.9v5.9l3.7,2.2v-5.9L269.1,305.9z M264.4,317.8l6.3,3.7v-5.9l-6.3-3.6
	V317.8z M275,324l5.6,3.3v-5.9l-5.6-3.2V324z M285.1,315.1v5.9l7.7,4.5v-5.9L285.1,315.1z M282.7,313.8l-7.7-4.5v5.9l7.7,4.5V313.8z
	 M295.9,321.3v5.9l6.7,3.9v-5.9L295.9,321.3z M201.5,169.1l-4.8-2.9v5.9l4.8,2.7V169.1z M185.1,159.6v5.9l4.5,2.5v-5.8L185.1,159.6z
	 M185.1,177v5.9l6.8,3.8V181L185.1,177z M185.1,222.3v5.9l11.1,6.3v-5.9L185.1,222.3z M185.1,231.1v5.9l5.2,3v-5.8L185.1,231.1z
	 M185.1,263.2l7,4v-5.8l-7-4V263.2z M185.1,266.1v5.9l4,2.3v-5.9L185.1,266.1z M302.7,334.1l-14.3-8.4v5.9l14.3,8.3L302.7,334.1z"/>
<path class="st6" d="M277,269.6c-0.3,0.3-0.7,0.5-1,0.7l-0.1,0.1l-0.3,0.2c-1.5,0.9-3.2,1.3-4.9,1.3c-1.4,0-2.8-0.3-4.1-0.8
	c-1.1-0.4-2.2-0.9-3.3-1.4l-0.6-0.4c-1.7-1-3.2-2.1-4.6-3.3l-0.1-0.1c-1.2-1-2.3-2.1-3.3-3.3c-1.8-2.1-3.4-4.3-4.8-6.7
	c-0.1-0.2-0.2-0.4-0.3-0.6c-0.7-1.3-1.4-2.7-2-4.1c-1.9-4.2-2.9-8.7-3-13.3c0-4.4,1-7.7,3.1-9.9c1.1-1.2,2.6-2.1,4.2-2.6
	c0.3-0.1,0.7-0.2,1-0.2c2.9-0.6,6.2,0.2,9.9,2.4c4.4,2.6,8.1,6.2,10.9,10.4c0.7,1,1.3,2,1.9,3l0.2,0.4c0.7,1.2,1.3,2.5,1.9,3.8
	c0.6,1.2,1.1,2.5,1.5,3.8c0.7,2.2,1.2,4.4,1.5,6.7c0.1,1,0.2,2.1,0.2,3.1C281,263.7,279.7,267.3,277,269.6z M254.5,232
	c-0.3,0.1-0.6,0.2-0.8,0.4c-1.4,0.8-2.4,2-3,3.5c-0.3,0.7-0.4,1.3-0.6,2.1c-0.2,0.9-0.2,1.9-0.2,2.8l0,0c0,2.2,0.4,4.3,1,6.4
	c0.4,1.2,0.8,2.4,1.4,3.6c0.4,1,0.9,1.9,1.4,2.9c0.3,0.5,0.6,1,0.9,1.4c2.1,3.4,4.9,6.2,8.3,8.3c2.9,1.6,5.4,2.2,7.5,1.6
	c0.6-0.2,1.2-0.4,1.7-0.7c0.5-0.3,1-0.7,1.5-1.1l0,0c0.6-0.6,1.1-1.3,1.4-2.1c0.7-1.6,1-3.4,1-5.2v-0.1c0-1-0.1-2.1-0.2-3.1
	c-0.1-0.9-0.3-1.7-0.6-2.6c-0.7-2.5-1.7-4.9-3-7.1c-2.1-4-5.3-7.3-9.2-9.7c-1.1-0.7-2.4-1.2-3.7-1.6c-1.5-0.4-3-0.4-4.4,0.2
	L254.5,232z"/>
<path class="st7" d="M249.2,285.6c0.6-0.4,1.2-0.8,1.9-1.1c0.5-0.2,1-0.4,1.5-0.6c0.3,0.5,0.3,1.1,0,1.5c-0.3,0.4-0.7,0.7-1.2,1
	c-0.4,0.2-0.7,0.5-1,0.9l-0.2,0.2c0,0.1-0.1,0.2-0.2,0.3c0,0,0,0.1,0,0.1c0,0.1,0,0.1,0,0.2v0.1c0,0.1,0,0.1,0,0.2l0,0
	c0,0.1,0.1,0.2,0.1,0.3H250l-0.5,1.7c0-0.1-0.1-0.1-0.1-0.2c-0.5-0.7-1-1.2-1.7-1.7c-0.2-0.2-0.5-0.3-0.7-0.4
	c0.1-0.1,0.1-0.1,0.2-0.2l0.2-0.3c0.1-0.2,0.2-0.4,0.4-0.5l0.2-0.2c0.3-0.4,0.6-0.7,1-1C249,285.7,249.1,285.6,249.2,285.6z
	 M259.7,296.3l-0.4-0.4c-0.3-0.3-0.6-0.5-1-0.8c-0.6-0.4-1.2-0.7-1.9-0.9c-0.4-0.1-0.8-0.2-1.2-0.2c0.8-2,1.8-3.9,3-5.6
	c-0.4,1.2-0.7,2.4-1,3.6l0.3,0.4c-0.2,0.1,0,0,0.6-0.2c0.5-0.2,0.9-0.6,1.2-1c0.4-0.6,0.8-1.3,1.1-2v-0.1c0.1-0.3,0.1-0.6,0.2-0.8
	c0-0.1,0.1-0.2,0.2-0.4h0.2c0.3-0.1,0.6,0,0.9,0.1c0.1,0,0.2,0.1,0.3,0.1C262.1,290.9,261.2,293.8,259.7,296.3z M222.6,286
	c0.1-0.7,0.5-1.4,1-1.9h0.1l0.2-0.2l1.3,2.3v-0.8c0.5-0.2,0.9-0.9,1.2-2c0.2-1.4,0.2-2.2,0.2-2.2c0-0.5,0-1.1-0.1-1.6
	c1,2.3,1.5,4.8,1.4,7.4l-3.1,2.6l-0.9-1.1l-0.4,0.2C222.9,288,222.6,287,222.6,286L222.6,286z"/>
<path class="st8" d="M249.2,291.5c0-0.1-0.1-0.1-0.1-0.2c-0.3-0.6-0.8-1.2-1.5-1.5c-0.2-0.1-0.3-0.2-0.5-0.2
	c-0.3-0.1-0.5-0.2-0.8-0.2c0,0-0.1-0.1-0.1-0.2h0.2c0.1-0.4,0.2-0.8,0.4-1.2c0.3,0.1,0.5,0.3,0.7,0.4c0.6,0.5,1.2,1.1,1.7,1.7
	c0,0.1,0.1,0.1,0.1,0.2L249.2,291.5z M255.2,294c0.4,0,0.8,0.1,1.2,0.2c0.7,0.2,1.3,0.5,1.9,0.9c0.4,0.2,0.7,0.5,1,0.8l0.4,0.4
	c-0.3,0.6-0.7,1.1-1.1,1.6c-0.1,0.1-0.2,0.2-0.4,0.2c0-0.3,0-0.7,0-1c0-0.1-0.1-0.3-0.2-0.4l-0.1-0.4c-0.3-0.9-1.1-1.7-2-2h-0.6
	h-0.2C255.2,294.1,255.2,294.1,255.2,294L255.2,294z M260.7,288l0.2-0.1c-0.1,0.1-0.1,0.2-0.2,0.4c-0.1,0.3-0.2,0.6-0.2,0.8v0.1
	c-0.3,0.7-0.7,1.4-1.1,2c-0.3,0.5-0.7,0.8-1.2,1c-0.5,0.2-0.7,0.3-0.6,0.2l-0.3-0.4c0.3-1.2,0.6-2.4,1-3.6c0.2-0.3,0.4-0.5,0.6-0.8
	c0.1-0.2,0.3-0.2,0.6-0.2c0.1,0.2,0.2,0.4,0.2,0.6c0.1,0.5,0.1,0.9,0.1,1.4c0.1-0.3,0.2-0.6,0.4-0.9c0-0.1,0.1-0.2,0.1-0.2
	C260.4,288.1,260.6,288,260.7,288L260.7,288z M226.6,279.7c0.1,0.5,0.1,1.1,0.1,1.6c0,0-0.1,0.8-0.2,2.2c-0.3,1.1-0.7,1.8-1.2,2
	l-0.2-5.1c0-0.8,0-1.5-0.1-2.2V278c-0.1-0.3-0.1-0.6-0.2-1v-0.3c0-0.2,0-0.5-0.1-0.7C225.3,277.2,226,278.4,226.6,279.7L226.6,279.7
	z"/>
<path class="st9" d="M217.3,291.5c-1-0.3-1.9-0.8-2.6-1.5c-0.1-0.1-0.3-0.2-0.4-0.3c-0.9-0.6-1.6-1.3-2.2-2.1c0,0,0.1,0,0.1,0
	c0.1,0,0.1,0,0.2,0c-0.1-0.1-0.2-0.1-0.3-0.1c-0.4-0.5-0.7-1.1-0.8-1.8c-0.1-0.4-0.2-0.8-0.2-1.2c1.2,0.5,2.6,0.8,3.9,0.7
	c0.5,0,0.9,0,1.4-0.1c2.3-0.1,4.4-1.4,5.6-3.4c0.7-1.3,1.1-2.8,1.1-4.3c0.5-1.6,0.9-3,1.4-4.1l0.2,0.2c0.2,0.4,0.3,0.8,0.2,1.2v0.8
	c0,0.2,0,0.3-0.1,0.5c0,0.2,0.1,0.5,0.1,0.7v0.3c0,0.3,0.1,0.6,0.2,1v0.2c0,0.7,0.1,1.4,0.1,2.2l0.2,5.1v0.8l-1.3-2.3l-0.2,0.2h-0.1
	c0.2-0.4,0.3-0.7,0.4-1.1c0-0.3,0.1-0.5,0.2-0.8c-1.5,3.1-4.5,5.2-8,5.5c-0.5,0.1-1,0.1-1.4,0.1c-0.5,0-1.1-0.1-1.6-0.2l1.6,0.5
	l1.4,0.4c0.5,0.1,1,0.2,1.5,0.2c2,0.1,3.8-1,4.9-2.6c0,1,0.4,2,1,2.7c-0.2,0.2-0.3,0.4-0.5,0.6c-0.9,1-2,1.7-3.3,2.1h-2.6V291.5z
	 M230.1,401.1c0.6-0.1,1.3-0.2,1.8-0.5c1.2-0.2,2.3-0.4,3.4-0.6c1.3-0.2,2.6-0.3,3.9-0.2c3.3,0.4,5.9-0.4,7.8-2.2l0.2-0.1
	c0.3-0.3,0.5-0.6,0.7-0.9c0.3-0.3,0.6-0.6,0.8-1c0,0.9-0.3,1.7-0.9,2.4c-0.1,0.2-0.3,0.4-0.4,0.5c-0.9,0.9-2,1.5-3.2,1.8
	c-1.4,0.2-2.7,0.3-4.1,0.3c-1.4,0-2.8,0.1-4.2,0.4v1.3c-0.4,0-1.1,0.2-2.3,0.5c-0.8,0.2-1.7,0.4-2.6,0.5c-1.8,0.2-3.1-0.8-3.9-2.8
	C228.1,401,229.1,401.3,230.1,401.1L230.1,401.1z M214.9,393.6c1.9,0.4,3.9,0.1,5.5-1l0.2-0.2l1.4-1.1v-0.1c0.2-0.2,0.4-0.4,0.6-0.6
	c-1,4.4-3.4,5.7-7.2,3.8C215,394.3,214.8,393.9,214.9,393.6L214.9,393.6z M227.1,385.7l-3.6,3.4l0.5-1.2l0.2-0.6l3-2.6l0.1,0.9
	L227.1,385.7z"/>
<path class="st10" d="M211.9,287.4L211.9,287.4c0.1,0,0.2,0,0.3,0.1c-0.1,0-0.1,0-0.2,0C212,287.5,212,287.5,211.9,287.4
	C211.9,287.5,211.9,287.5,211.9,287.4z M212.3,277.4c0.7-1.1,1.6-2.1,2.6-2.8c1.5-1,3.1-1.7,4.9-2c2.5-0.5,4.1-0.2,4.6,1l-0.2-0.2
	c-0.4,1.1-0.9,2.4-1.4,4.1c0,1.5-0.4,3-1.1,4.3c-1.2,2-3.3,3.3-5.6,3.4c-0.5,0.1-0.9,0.1-1.4,0.1c-1.3,0-2.7-0.2-3.9-0.7
	c-0.1-0.2-0.1-0.4-0.1-0.6c0-0.9,0-1.8,0.2-2.7C211.2,279.8,211.6,278.5,212.3,277.4L212.3,277.4z M223.7,284.1
	c-0.5,0.5-0.9,1.2-1,1.9c-1,1.7-2.9,2.7-4.9,2.6c-0.5,0-1-0.1-1.5-0.2l-1.4-0.4l-1.6-0.5c0.5,0.1,1.1,0.2,1.6,0.2c0.5,0,1,0,1.4-0.1
	c3.5-0.2,6.5-2.3,8-5.5c-0.1,0.3-0.1,0.5-0.2,0.8C224,283.4,223.8,283.7,223.7,284.1L223.7,284.1z M219.8,291.5
	c-0.8,0.2-1.7,0.2-2.6,0H219.8z"/>
<path class="st11" d="M217.3,291.5c0.8,0.2,1.7,0.2,2.6,0c1.3-0.4,2.4-1.1,3.3-2.1c0.2-0.2,0.3-0.4,0.5-0.6l0.4-0.2l0.9,1.1
	c-0.2,0.1-0.3,0.3-0.5,0.5c-0.6,0.6-1,1.4-1.2,2.2c-0.2,0.6-0.2,1.2-0.2,1.8c-0.9-0.1-1.8-0.3-2.6-0.6c-2.4-0.7-4.6-1.9-6.6-3.5
	l0.4-0.4c0.1,0.1,0.3,0.2,0.4,0.3C215.4,290.6,216.3,291.2,217.3,291.5z"/>
<path class="st12" d="M248.8,395.4c-0.2,0.4-0.5,0.7-0.8,1c-0.2,0.3-0.4,0.6-0.7,0.9l-0.2,0.1c-2,1.9-4.6,2.6-7.9,2.2
	c-1.3-0.1-2.6,0-3.9,0.2c-1.1,0.2-2.3,0.4-3.4,0.6l0.5-0.2c0.5-0.2,1-0.4,1.4-0.7c1.5-0.7,2.9-1.6,4.1-2.7c1.4-0.6,2.3-1.9,2.4-3.5
	v-0.2c0-0.1,0-0.1-0.1-0.2l-0.6-1.3l0.8,0.1l-0.1,0.4c3.7-1,6.6-0.4,8.6,1.7c0.3,0.3,0.3,0.8,0,1.1
	C249,395.2,248.9,395.3,248.8,395.4z M227.2,384.6l-3,2.6l0.3-1.4l0.3-1.5l0.2-0.7l-0.6-0.9l-0.1-1.7l-0.1-1.2l3.2,0.4L227.2,384.6z
	"/>
<path class="st13" d="M269.4,227.7c2.3,1.8,4.3,3.8,6.1,6.1c1.3,1.7,2.5,3.4,3.5,5.3c0.3,0.5,0.6,1.1,0.9,1.6
	c0.7,1.4,1.4,2.8,1.9,4.1c0.5,1.1,0.9,2.3,1.2,3.5c0.8,2.8,1.3,5.7,1.3,8.7c0,4.7-1.2,8.2-3.5,10.5c-0.4,0.4-0.8,0.7-1.2,1l-0.6,0.4
	c-0.6,0.4-1.3,0.7-2,0.9c2.6-2.2,3.9-5.9,3.9-10.8c0-1-0.1-2.1-0.2-3.1c-0.3-2.3-0.8-4.5-1.5-6.7c-0.4-1.3-0.9-2.6-1.5-3.8
	c-0.6-1.3-1.2-2.6-1.9-3.8l-0.2-0.4c-0.6-1.1-1.3-2.1-1.9-3c-2.8-4.3-6.5-7.8-10.9-10.4c-3.7-2.1-7-2.9-9.9-2.4
	c-0.3,0.1-0.7,0.1-1,0.2c0.2-0.2,0.4-0.3,0.6-0.5c0.3-0.2,0.5-0.4,0.8-0.5c0.6-0.4,1.3-0.6,2-0.9c0.2-0.1,0.4-0.1,0.6-0.2
	c3-0.7,6.4,0.1,10.3,2.3C267.4,226.3,268.4,227,269.4,227.7z M273.5,263.2c-0.4,0.4-0.9,0.8-1.5,1.1c-0.5,0.3-1.1,0.6-1.7,0.7
	c-2.2,0.6-4.7,0-7.5-1.6c-3.4-2.1-6.2-4.9-8.3-8.3c-0.3-0.5-0.6-1-0.9-1.4c-0.5-1-1-1.9-1.4-2.9c-0.5-1.2-1-2.4-1.4-3.6
	c-0.6-2.1-1-4.2-1-6.4l0,0c0-0.9,0.1-1.9,0.2-2.8c0.1-0.7,0.3-1.4,0.6-2.1c0.6-1.5,1.6-2.7,3-3.5c0.3-0.2,0.5-0.3,0.8-0.4
	c-1.3,2-1.9,4.3-1.8,6.6c0.1,4.6,1.5,9.1,3.9,13.1c2.2,4,5.4,7.4,9.3,9.9c1.4,0.8,2.9,1.4,4.5,1.7
	C271.4,263.5,272.5,263.5,273.5,263.2L273.5,263.2z"/>
<path class="st14" d="M260.5,281.1c0.8,0.5,1.2,1,1.1,1.4l-0.9,3.4l-0.6,2.5c-0.2,0.3-0.3,0.6-0.4,0.9c0-0.5,0-0.9-0.1-1.4
	c-0.1-0.2-0.1-0.4-0.2-0.6c-0.2,0-0.4,0.1-0.6,0.2c-0.2,0.3-0.4,0.5-0.6,0.8c-1.2,1.8-2.2,3.6-3,5.6c0,0.1-0.1,0.2-0.1,0.3
	c-0.7-0.1-1.4,0.1-2,0.4l-3.2,2.2c-0.6,0.3-1.1,0.6-1.6,1l-0.9,0.6l0.2-1l0.1-0.3l1.5-5.6l0,0l0.3-1.1l0.5-1.7h0.2
	c-0.1-0.1-0.1-0.2-0.1-0.3l0,0l0.3-1c0.3-0.3,0.6-0.6,1-0.9c0.5-0.3,0.9-0.6,1.2-1c0.3-0.5,0.3-1.1,0-1.5c-0.5,0.2-1,0.4-1.5,0.6
	l0.2-0.6l1-3.8c0.1-0.4,0.5-0.7,1.2-0.8c0.1,0,0.2,0,0.4,0c0.3,0,0.5,0,0.8,0l-0.3,1.3c-0.1,0.6,0.1,1.2,0.4,1.8
	c0.5,0.6,1.2,1,2,1.1c0.7,0.2,1.5,0.2,2.2-0.1c0.3-0.1,0.6-0.3,0.8-0.5c0.3-0.2,0.4-0.5,0.5-0.8L260.5,281.1z M254.7,301.9l1.8-1.5
	c0.2,0,0.4,0,0.5-0.1l-1.1,4.1c-0.1,0.4-0.6,0.7-1.6,0.8c-0.6,0-1.2,0-1.7-0.1c-0.5-0.1-1-0.2-1.5-0.3
	C252.3,303.9,253.5,302.9,254.7,301.9L254.7,301.9z"/>
<path class="st15" d="M273.5,263.2c-1,0.2-2.1,0.3-3.1,0.1c-1.6-0.3-3.1-0.9-4.5-1.7c-3.9-2.4-7.1-5.8-9.3-9.9
	c-2.5-3.9-3.8-8.4-3.9-13.1c-0.1-2.3,0.5-4.7,1.8-6.6l0.3-0.1c1.4-0.5,3-0.6,4.4-0.2c1.3,0.3,2.5,0.9,3.7,1.6
	c3.9,2.3,7.1,5.7,9.2,9.7c1.3,2.2,2.3,4.6,3,7.1c0.2,0.9,0.4,1.7,0.6,2.6c0.2,1,0.2,2.1,0.2,3.1v0.1c0,1.8-0.3,3.6-1,5.2
	C274.6,261.9,274.1,262.6,273.5,263.2L273.5,263.2z"/>
<path class="st16" d="M227.4,400.2c0.8,2,2,2.9,3.9,2.8c0.9-0.1,1.7-0.3,2.6-0.5c1.1-0.3,1.9-0.4,2.3-0.5v-1.3
	c1.4-0.3,2.8-0.4,4.2-0.4c1.4,0,2.7-0.1,4.1-0.3c1.2-0.3,2.3-0.9,3.2-1.8c0.2-0.2,0.3-0.3,0.4-0.5l0.4,0.2c2.6,1.4,1.9,3.2-1.9,5.4
	l-8.4,4.8c-3.7,2.1-6.8,2.4-9.4,1l-22.8-13.2c-2.5-1.4-1.9-3.2,1.8-5.4l5.4-3c0.4,2.1,0.9,4.1,1.7,6.1c0,0.4,0.2,0.7,0.5,0.9
	c3.8,1.9,6.2,0.6,7.2-3.8l0.9-1.5l3.6-3.4l0.2,0.1c-0.4,3.9-0.7,7.8-1,11.7c0.1,0.2,0.1,0.3,0.2,0.5
	C226.6,398.8,226.9,399.6,227.4,400.2z M224.4,385.9l-0.3,1.4l-0.2,0.6L224.4,385.9z M237.9,397l0.7-0.6c1-0.7,1.6-1.9,1.6-3.2h0.1
	v0.2C240.3,395,239.3,396.4,237.9,397L237.9,397z"/>
<path class="st17" d="M231.1,335.3c-0.4,0.2-0.8,0.3-1.3,0.3c-0.9,0.3-1.7,0.4-2.6,0.4c-2.5,0.1-4.9-0.7-6.8-2.3
	c-0.4-0.3-0.9-0.5-1.4-0.8c-2.3-1.1-4.2-3.1-5.1-5.5c0.1-0.8,0.3-1.7,0.3-2.5c0.4-4.5-0.8-9-3.3-12.8c-0.3-0.5-0.7-1.1-1.1-1.6
	c-3.8-4.6-5.4-10.8-4.2-16.7c0.3-1.1,1-2,2-2.6c0.5-0.2,1-0.4,1.5-0.6c0.5-0.1,1.1-0.2,1.6-0.2l3.2-0.5l-0.2,1.1
	c1.6,3,3.7,4.7,6.2,5.2c0.6,0.1,1.1,0.2,1.7,0.2c1.4,0.1,2.9-0.2,4.1-1.1c1.3,0.8,2.6,1.7,3.9,2.6l1.3,1c-0.5,0.3-1,0.7-1.5,1.1
	c-1.2,1-2.2,2.2-2.9,3.6c-1.2,2.5-1.3,5.5-0.4,8.9c0.8,2.7,1.4,5.3,1.8,8c0.1,0.4,0.1,0.8,0.2,1.2c0.7,4.2,1.7,8.4,2.9,12.6
	C231,334.7,231,335,231.1,335.3z"/>
<path class="st18" d="M246.4,289.2c0,0.1,0,0.1,0.1,0.2c-0.1,0-0.3-0.1-0.4-0.1L246.4,289.2z"/>
<path class="st19" d="M237.8,327.5c0.2,1.4,0.6,2.8,1,4.2c-2,1.1-3.9,2-5.9,2.9c-0.4,0.1-0.7,0.3-1.1,0.4l-0.8,0.3
	c-0.1-0.3-0.2-0.6-0.2-0.9c-1.2-4.1-2.2-8.3-2.9-12.6c-0.1-0.4-0.1-0.8-0.2-1.2c-0.5-2.7-1.1-5.3-1.8-8c-1-3.5-0.9-6.4,0.4-8.9
	c0.7-1.4,1.7-2.6,2.9-3.6c0.5-0.4,1-0.8,1.5-1.1c0.6,0.3,1.1,0.7,1.6,1.2c0.7,0.7,1.3,1.5,1.8,2.3c-0.4,0-0.8,0-1.2,0l-2.1-0.1
	c-1.1,0.7-1.8,1.9-2,3.2c-1.1,5.7,1.1,8.2,6.6,7.7l0.5-0.2v0.5c0.4,4.6,1,9.2,1.8,13.7C237.8,327.4,237.8,327.4,237.8,327.5z"/>
<path class="st20" d="M230.1,401.1c-1,0.2-2-0.1-2.6-0.9c-0.5-0.6-0.9-1.4-1-2.2c0-0.2-0.1-0.3-0.2-0.5c0.3-3.9,0.6-7.8,1-11.7
	c0-0.1,0-0.2,0-0.3l-0.1-0.9l0.2-4.3c0.7-5.9,1.3-11.7,1.8-17.5c0.1-0.6,0-1.2-0.1-1.8l-1-3.5c0-0.2-0.1-0.3-0.2-0.5l-0.4-1.4v0.1
	c-0.7-2.2-1.5-4.5-2.4-6.6c-0.6-1.6-1.2-3.2-1.7-4.9l-0.1-0.4c-0.5-1.5-1-3.1-1.4-4.6c-0.5-1.8-1-3.6-1.4-5.5
	c1.9,1.6,4.3,2.4,6.8,2.3c0.2,0.9,0.5,1.9,0.9,2.8c0.9,2.5,1.4,4,1.5,4.5c0,0.1,0.1,0.2,0.1,0.4c0.4,1.5,0.9,3.2,1.6,5.1
	c0.4,1.3,0.9,2.6,1.5,4.1c1,2.9,1.6,6,1.7,9.1c0,4-0.4,8-1,11.9c-1,6.5-1.6,10.8-1.8,13c0,0.4,0,0.8-0.1,1.2
	c-0.1,1.3-0.3,3.1-0.6,5.2c-0.4,2.8-0.6,4.9-0.7,6.2C230.2,399.9,230.1,400.5,230.1,401.1z"/>
<path class="st21" d="M214.9,393.6c-0.8-2-1.3-4-1.7-6.1c-0.6-3.2-0.7-6.4-0.4-9.6c0.2-2.3,0.4-4.5,0.6-6.6
	c0.4-5.4,1.2-10.8,2.6-16.1c0.3-1.1,0.3-2.2,0.2-3.4c-0.5-4.2-1.1-8.5-1.8-12.7c-0.2-1.5-0.5-3-0.8-4.6c0-0.1,0-0.2,0-0.3
	c-0.4-2.3-0.3-4.6,0.2-6.8c1,2.4,2.8,4.4,5.1,5.5c0.5,0.3,1,0.5,1.4,0.8c0.4,1.8,0.9,3.6,1.4,5.5c0.4,1.6,0.9,3.1,1.4,4.6
	c0,0.1,0,0.2,0,0.3c-0.3,2.4-0.8,6.5-1.6,12.1c-1.4,10-2.1,16.3-2.1,18.7v3.8c0,2,0.1,3.8,0.2,5.6c0,0.7,0.1,1.3,0.1,2
	c0.1,2.1,0.3,4.3,0.7,6.4C218.8,393.7,216.8,394,214.9,393.6z M224.5,385.9l-0.6,2l0.9-3.5L224.5,385.9z"/>
<path class="st22" d="M231.9,400.6c-0.6,0.3-1.2,0.4-1.8,0.5c0.1-0.6,0.1-1.1,0.1-1.5c0.1-1.3,0.3-3.3,0.7-6.2
	c0.3-2.1,0.5-3.9,0.6-5.2c0.1-0.4,0.1-0.8,0.1-1.2c0.2-2.2,0.8-6.5,1.8-13c0.6-3.9,1-7.9,1-11.9c-0.1-3.1-0.6-6.2-1.7-9.1
	c-0.5-1.5-1-2.9-1.5-4.1c-0.7-2-1.2-3.7-1.6-5.1c0-0.1-0.1-0.2-0.1-0.4c-0.2-0.5-0.7-2-1.5-4.5c-0.3-0.9-0.6-1.9-0.9-2.8
	c0.9,0,1.8-0.1,2.6-0.4c0.4,0,0.9-0.2,1.3-0.3l0.8-0.3c0.4-0.1,0.7-0.3,1.1-0.4c1.9-0.9,3.8-1.8,5.9-2.9c1.3,2.8,2.2,5.8,2.7,8.8
	c0.4,2.3,0.6,4.7,0.6,7c0,1.1,0,2.1-0.1,3.2c-0.1,1.4-0.1,2.7-0.3,4.1c-0.3,3.5-0.7,7-1.2,10.5c-0.8,5.6-1.5,11.2-1.9,16.9
	c-0.2,2.7-0.2,5.3,0,8c0,0.7,0.5,1.3,1.1,1.6l0.6,1.3v0.2c0,1.3-0.6,2.4-1.6,3.2l-0.7,0.6c-1.2,1.1-2.6,2-4.1,2.7
	c-0.5,0.3-1,0.5-1.4,0.7L231.9,400.6z M223.2,343.8l0.1,0.4c0.5,1.6,1.1,3.3,1.7,4.9c0.8,2.2,1.6,4.4,2.4,6.6
	c-1.2,4.4-2.1,8.8-2.6,13.3c-0.4,3.2-0.6,6.3-0.7,9.5c-0.1,0.9,0,1.8,0.2,2.6l0.1,1.7l0.6,0.9l-0.2,0.7l-0.9,3.5l-0.5,1.2l-0.9,1.5
	c-0.2,0.2-0.4,0.4-0.6,0.6v0.1l-1.4,1.1l-0.2,0.2c-0.4-2.1-0.6-4.3-0.7-6.4c0-0.6-0.1-1.3-0.1-2c-0.1-1.8-0.1-3.6-0.2-5.6v-3.8
	c0-2.4,0.7-8.6,2.1-18.7c0.8-5.7,1.4-9.7,1.6-12.1C223.2,344,223.2,343.9,223.2,343.8z"/>
<linearGradient id="SVGID_1_" gradientUnits="userSpaceOnUse" x1="225.0821" y1="949.1156" x2="542.1522" y2="949.1156" gradientTransform="matrix(0.4956 0.8685 0.8685 -0.4956 -735.4469 372.9776)">
	<stop  offset="0.58" style="stop-color:#D8EAFF"/>
	<stop  offset="0.62" style="stop-color:#A9CBF3"/>
</linearGradient>
<path class="st23" d="M205,153.6v5.9l3.9,2.3v-5.9L205,153.6z M199.7,150.6l-3.9-2.2v5.9l3.9,2.2V150.6z M262.5,186.9v5.9l2.9,1.6
	v-5.8L262.5,186.9z M271,197.7l2.8,1.6v-5.9l-2.8-1.6V197.7z M275.1,194.1v5.9l2.8,1.7v-5.9L275.1,194.1z M269.5,196.7V191l-2.9-1.8
	v5.9L269.5,196.7z M284.3,205.3l18.4,10.6V210l-18.3-10.6L284.3,205.3z M251.7,186.5v-5.9l-4-2.2v5.8L251.7,186.5z M240.1,173.8
	l-9.5-5.4v5.8l9.5,5.5V173.8z M345.2,378.5l-0.6,0.4l-2.8,1.8c-1.2,0.8-2.3,1.4-3.5,2.1v-141c-0.2-1.5-0.9-2.8-2-3.8L153.1,130.9
	c-1.1-0.7-2.3-1.1-3.5-1.3l7.3-3.9c1.2-0.8,2.8-0.8,4,0l184.5,107.7c1.8,0.7,2.6,1.8,2.5,3.4v4.3c0,2.7-0.1,5.4-0.1,8.2v23.1
	c0,2.4,0,4.7-0.1,7.1v20c0,2.1,0,4.1-0.1,6.2v19.4c0,2.5-0.1,4.9-0.2,7.5v36.6c0,2.2-0.1,4.3-0.4,6.5c0,1.1-0.6,2.1-1.4,2.7
	L345.2,378.5z M185.1,148l5.8,3.3v-5.9l-5.8-3.3V148z"/>
<path class="st24" d="M200,239.7v5.9l-3.6-2.2v-5.9L200,239.7z M199.7,230.7l8.5,4.9v5.9l-8.5-4.8V230.7z M211.7,243.5v-5.9l5.8,3.3
	v5.9L211.7,243.5z M210.5,245.7l5,2.9v5.9l-5-3V245.7z M240.1,290.9c-1.1,0.2-2,0.4-2.9,0.5s-1.7,0.3-2.5,0.4l-2.8-1.6v-5.9l8.3,4.8
	V290.9z M240.1,268.6l-3.7-2.1v-5.9l3.8,2.2L240.1,268.6z M233.3,250.1l6.8,3.9v5.9l-6.8-3.9V250.1z M257.1,269.7l-9.4-5.4v-5.9
	l7.1,4c1,1.2,2.1,2.3,3.3,3.3L257.1,269.7z M270.8,271.8l2.6,1.5v5.8l-6.7-3.9v-4.2C268,271.5,269.4,271.8,270.8,271.8L270.8,271.8z
	 M247.7,267.2l4,2.3v5.9l-4-2.4V267.2z M240.1,277.5l-3-1.7V270l3,1.7V277.5z M240.1,280.4v5.8l-11.5-6.7v-5.9L240.1,280.4z
	 M251.2,284l-3.5-2v-5.9l5.7,3.3c-0.7,0.1-1.1,0.3-1.2,0.8L251.2,284z M250.1,288.4c0-0.1,0-0.1,0-0.2v-0.1c0-0.1,0-0.1,0-0.2
	c0,0,0-0.1,0-0.1c0-0.1,0.1-0.2,0.2-0.3l0.2-0.2L250.1,288.4z M247.7,297.5v-0.3h0.1L247.7,297.5z M260.7,286v2
	c-0.2,0.1-0.3,0.1-0.5,0.2c-0.1,0.1-0.1,0.2-0.1,0.2L260.7,286z M247.7,287v-2.3l1.5,0.9c-0.1,0.1-0.2,0.1-0.3,0.2
	c-0.4,0.3-0.7,0.6-1,1L247.7,287z M251,304.8c0.5,0.1,1,0.2,1.5,0.3l5.1,3v5.9l-9.9-5.8v-1C248.8,306.4,250,305.6,251,304.8
	L251,304.8z M211.9,287.4L211.9,287.4l-1.1-0.7v-5.8l0.2,0.2c-0.1,0.9-0.2,1.8-0.2,2.7c0,0.2,0,0.4,0.1,0.6c0,0.4,0.1,0.8,0.2,1.2
	C211.3,286.3,211.5,286.9,211.9,287.4L211.9,287.4z M214.9,274.6c-1.1,0.7-2,1.7-2.6,2.8V273L214.9,274.6z M200,257.3v5.9l-14.9-8.6
	v-5.9L200,257.3z M205.9,260.6v5.9l-2.2-1.3v-5.9L205.9,260.6z M207.8,267.6v-5.9l2.2,1.3v5.9L207.8,267.6z M197.5,264.5l7.1,4.1
	v5.9l-7.1-4.1V264.5z M205.1,257.3v-5.9l7.7,4.3v5.9L205.1,257.3z M203.4,250.4v5.9l-18.3-10.5v-5.9L203.4,250.4z M214.4,256.7
	l6.8,4v5.9l-6.8-4V256.7z M200.2,274.7v5.9l-5-2.8v-5.9L200.2,274.7z M203.3,276.5l5,2.9v5.9l-5-2.9V276.5z M211.8,264l2.3,1.3v5.8
	l-2.3-1.2V264z M240.1,299v2.6c-0.9,0.2-1.8,0.4-2.6,0.6l-0.8-0.4v-2.1c1.5-0.2,2.5-0.4,3.2-0.6L240.1,299z M258.4,299.6l3.7,2.1
	v5.9l-3.7-2.1L258.4,299.6z M275.1,280.2v-5.9l7.7,4.4v5.9L275.1,280.2z M272.4,281.5v5.9l-3.6-2.1v-5.8L272.4,281.5z M274.6,288.8
	v-5.9l3.7,2v5.9L274.6,288.8z M295.9,321.3l6.7,4v5.9l-6.7-3.9V321.3z M282.8,313.8v5.9l-7.7-4.5v-5.9L282.8,313.8z M285.2,315.1
	l7.7,4.5v5.9l-7.7-4.5V315.1z M275.1,324v-5.9l5.6,3.2v5.9L275.1,324z M264.4,317.8V312l6.3,3.6v5.9L264.4,317.8z M269.2,305.9
	l3.7,2.2v5.9l-3.7-2.2V305.9z M274.2,305.9l-3.5-1.9v-5.9l3.5,1.9V305.9z M278.2,302.4v5.9l-3.1-1.8v-6L278.2,302.4z M263.7,308.7
	v-5.9l3.8,2.2v5.9L263.7,308.7z M263,299.4v-5.9l6.9,4.1v5.8L263,299.4z M273.4,290.9v5.8l-4.3-2.4v-5.8L273.4,290.9z M288.5,296.6
	v-5.9l14.1,8.3v5.9L288.5,296.6z M282.2,301.8v-5.8l20.4,11.8v5.8L282.2,301.8z M279.6,294.5v5.8l-4.5-2.6v-5.9L279.6,294.5z
	 M279.7,309.1v-5.9l23,13.4v5.9L279.7,309.1z M280.7,286.3l4.1,2.3v5.9l-4.1-2.3V286.3z M284.5,285.6v-5.9l18.2,10.6v5.9
	L284.5,285.6z M185.1,231.1l5.2,3v5.8l-5.2-3V231.1z M185.1,222.4l11.1,6.3v5.8l-11.1-6.3V222.4z M185.1,266.1l4,2.3v5.9l-4-2.3
	V266.1z M185.1,263.2v-5.9l7,4v5.8L185.1,263.2z M302.7,334.1v5.9l-14.3-8.4v-5.9L302.7,334.1z"/>
<g>
	
		<linearGradient id="SVGID_2_" gradientUnits="userSpaceOnUse" x1="332.685" y1="292.245" x2="475.455" y2="292.245" gradientTransform="matrix(1 0 0 -1 -157.46 477.29)">
		<stop  offset="7.000000e-02" style="stop-color:#007EFF"/>
		<stop  offset="0.8" style="stop-color:#FFFFFF"/>
	</linearGradient>
	<path class="st25" d="M200,84.2v2.3l-3.6-2.2v-0.2H200z M210.5,86.7l5,2.9v5.9l-5-2.9V86.7z M211.7,84.6v-0.3h5.7v3.6L211.7,84.6z
		 M247.7,108.3l4.1,2.3v5.9l-4.1-2.3V108.3z M247.7,99.5l10.4,6v5.8l-10.4-6V99.5z M205,136.2l3.3,1.9v5.8l-3.4-1.9L205,136.2z
		 M209.8,147.6l2.9,1.6v5.9l-2.9-1.6V147.6z M203.5,143.9v5.9l-18.4-10.7v-5.9L203.5,143.9z M211.4,136.9l-3-1.8v-5.8l3,1.8V136.9z
		 M215.1,141.9l3.4,2v5.9l-3.4-2.1V141.9z M200.2,115.8v5.8l-5.1-2.8V113L200.2,115.8z M208.3,120.5v5.8l-5-2.9v-5.9L208.3,120.5z
		 M210.8,127.8v-5.9l5.4,3.3v5.8L210.8,127.8z M201.5,125.4l3,1.7v5.9l-3-1.8V125.4z M198.4,123.5v6l-13.4-7.8v-5.9L198.4,123.5z
		 M212.3,119.8V114l6.1,3.5v5.9L212.3,119.8z M200,98.3v5.8l-15-8.7v-5.8L200,98.3z M205.9,101.6v5.9l-2.2-1.3v-5.9L205.9,101.6z
		 M211.8,110.9v-5.8l2.3,1.2v5.8L211.8,110.9z M210,109.9l-2.2-1.4v-5.8l2.2,1.4V109.9z M197.5,105.4l7,4.1v5.9l-7-4V105.4z
		 M205,98.3v-5.9l7.7,4.3v5.9L205,98.3z M203.4,91.4v5.9l-18.3-10.6v-2.4h6L203.4,91.4z M221.1,101.6v5.9l-6.7-3.9v-5.9L221.1,101.6
		z M247.7,125.8l5.8,3.4v5.8l-5.8-3.3V125.8z M260.7,130.3l-13-7.4V117l13,7.4V130.3z M240.1,121.3v5.8l-11.5-6.7v-5.8L240.1,121.3z
		 M231.8,125.4l8.2,4.7v5.9l-8.2-4.8V125.4z M240.1,112.7v5.8l-3-1.8v-5.9L240.1,112.7z M236.3,101.7l3.8,2.2v5.8l-3.7-2.2
		L236.3,101.7z M203.7,161.7l7.4,4.2v5.9l-7.4-4.3V161.7z M205,153.6l3.9,2.3v5.9l-3.9-2.3V153.6z M199,158.9v5.9l-13.9-8v-5.9
		L199,158.9z M216.7,151.6v5.9l-2.8-1.6V150L216.7,151.6z M221.1,154.2v5.8l-2.7-1.7v-5.8L221.1,154.2z M222.3,160.6v-5.9l2.9,1.7
		v5.9L222.3,160.6z M214.4,167.7l2.8,1.6v5.9l-2.8-1.6V167.7z M199.7,150.5v6l-3.9-2.2v-5.9L199.7,150.5z M247.7,152l3,1.7v5.9
		l-3-1.8V152z M247.7,160.8l12.5,7.2v5.9l-12.5-7.2V160.8z M236,168.6v-5.9l4.1,2.3v5.9L236,168.6z M240.1,144.6l-3.4-1.9v-5.8
		l3.4,1.9V144.6z M237.9,146.2l2.2,1.3v5.9l-2.2-1.3V146.2z M262.1,142.7v5.9l-3.7-2.1v-5.8L262.1,142.7z M247.7,149.1v-5.9l9.9,5.8
		v5.9L247.7,149.1z M247.7,140.4v-5.9l6.8,3.8v5.9L247.7,140.4z M227.5,154.9V149l12.6,7.3v5.8L227.5,154.9z M270.5,173.9l2.9,1.8
		v5.9l-2.9-1.7V173.9z M278.8,187.5l3.9,2.3v5.8l-3.9-2.3V187.5z M284,181.7v5.8l-7.3-4.2v-5.8L284,181.7z M291.1,177.1v5.9
		l-4.8-2.8v-5.9L291.1,177.1z M302.6,207.1l-5.7-3.3v-5.9l5.7,3.3V207.1z M302.6,192.5v5.9l-13.8-8v-5.9L302.6,192.5z M302.6,174.9
		v5.9l-14.3-8.3v-5.9L302.6,174.9z M298.3,181.2l4.3,2.6v5.8l-4.3-2.6V181.2z M295.9,162.4l6.7,3.9v5.9l-6.7-3.9V162.4z
		 M282.7,154.8v5.7l-7.6-4.3v-5.9L282.7,154.8z M292.9,166.5l-7.7-4.5v-5.8l7.7,4.3V166.5z M264.5,152.9l6.3,3.6v5.9l-6.3-3.5V152.9
		z M272.5,166.3l5.1,3v5.8l-5.1-3V166.3z M275.1,164.9V159l5.6,3.4v5.9L275.1,164.9z M269.1,146.9l3.8,2.2v5.9l-3.8-2.2V146.9z
		 M275.1,141.5l3,1.8v5.9l-3-1.8V141.5z M274.1,141v5.9l-3.5-2V139L274.1,141z M263.7,149.6v-5.9l3.7,2.2v5.9L263.7,149.6z
		 M263,134.5l7,4v5.9l-7-4V134.5z M273.4,131.8v5.8l-4.3-2.4v-5.7L273.4,131.8z M288.4,137.6v-5.8l14.1,8.3v5.9L288.4,137.6z
		 M279.6,149.9v-5.8l23,13.3v5.9L279.6,149.9z M279.5,135.3v5.9l-4.4-2.6v-5.8L279.5,135.3z M282.2,142.8v-5.9l20.4,11.8v5.9
		L282.2,142.8z M280.5,127.2l4.1,2.3v5.9l-4.1-2.3V127.2z M284.4,126.5v-5.8l18.2,10.5v5.8L284.4,126.5z M275.1,121.1v-5.8l7.6,4.4
		v5.9L275.1,121.1z M274.6,123.7l3.7,2.2v5.8l-3.7-2.1V123.7z M272.4,122.5v5.9l-3.6-2.1v-5.9L272.4,122.5z M273.5,114.4v5.8l-6.8-4
		v-5.8L273.5,114.4z M269.6,196.7l-2.9-1.7v-5.9l2.9,1.8V196.7z M275.2,194l2.8,1.7v5.9l-2.8-1.7V194z M271.1,197.7v-5.9l2.8,1.6
		v5.9L271.1,197.7z M262.6,186.8l2.9,1.7v5.8l-2.9-1.6V186.8z M272.7,201.5v5.9l-3.5-2v-5.9L272.7,201.5z M288,192.8l3.9,2.3v5.9
		l-3.9-2.2V192.8z M279.4,205.2l3.4,1.9v5.9l-3.4-1.9V205.2z M284.2,205.2v-5.9l18.4,10.6v5.9L284.2,205.2z M293.8,219.4v-5.9
		l8.8,5.1v5.8L293.8,219.4z M289.4,225.7v-5.9l13.2,7.7v5.9L289.4,225.7z M279.4,228.7v-5.9l5,2.9v5.9L279.4,228.7z M279.3,214v5.9
		l-2.9-1.8v-5.8L279.3,214z M283.2,216.2l3,1.8v5.9l-3-1.8V216.2z M252.6,224.8c-0.2,0.1-0.4,0.3-0.6,0.5c-1.6,0.5-3,1.4-4.2,2.6
		l-0.1-0.1V222L252.6,224.8z M255.4,223.5l-7.6-4.4v-5.9l8.3,4.8v5.3C255.8,223.4,255.5,223.4,255.4,223.5z M280.8,267.4l7.3,4.2
		v5.8l-8.5-4.9v-4.1C280,268.1,280.4,267.7,280.8,267.4L280.8,267.4z M283.1,248.3c-0.3-1.2-0.7-2.3-1.2-3.5v-3.1l2.2,1.3v5.9
		L283.1,248.3z M277,227.4l-5.4-3.3v-5.9l5.4,3.2V227.4z M269.5,227.7v-2l6.1,3.6v4.4C273.8,231.5,271.7,229.5,269.5,227.7
		L269.5,227.7z M298.7,234l3.9,2.3v5.9l-3.9-2.3V234z M295.7,246.8V241l6.9,4v5.9L295.7,246.8z M283.2,239.6v-5.9l7.1,4.1v5.9
		L283.2,239.6z M292.6,236.3l-5-2.9v-5.8l5,2.8V236.3z M257.3,175v5.9l-9.5-5.4v-6L257.3,175z M240.1,173.8v5.9l-9.5-5.5v-5.8
		L240.1,173.8z M251.7,186.4l-4-2.3v-5.8l4,2.2V186.4z M240.1,182.6v5.9l-12.6-7.2v-5.9L240.1,182.6z M230.2,194.3l9.9,5.8v5.9
		l-9.9-5.8V194.3z M233.2,204.9l6.9,3.9v5.9l-6.9-3.9V204.9z M240.1,191.4v5.8l-3.2-1.8v-5.8L240.1,191.4z M260.2,200.1l-12.5-7.3
		V187l12.5,7.3V200.1z M203.4,222.6v5.9L185,217.9v-5.8L203.4,222.6z M205,229.5v-5.9l7.7,4.4v5.9L205,229.5z M199.4,211.6v5.8
		l-14.3-8.2v-5.9L199.4,211.6z M203.2,219.6v-5.9l4,2.3v5.9L203.2,219.6z M209.5,217.3l3.7,2.2v5.9l-3.7-2.1V217.3z M212.8,216.3
		l-4.5-2.5V208l4.5,2.6V216.3z M227.2,224.7v-5.8l13,7.4v5.9L227.2,224.7z M215.5,220.9l3.7,2.1v5.9l-3.7-2.1V220.9z M214.5,211.6
		l4.3,2.4v5.8l-4.4-2.4L214.5,211.6z M202.6,187.2v5.9l-7.6-4.4v-5.9L202.6,187.2z M217.9,204.8l7,4v5.9l-7-4.1V204.8z M224.1,199.6
		v5.9l-3.7-2.2v-5.8L224.1,199.6z M229.5,208.6l-3.6-2.2v-5.9l3.6,2.2V208.6z M217,204.3v5.8l-3.3-1.9v-5.9L217,204.3z M215,200.2
		v-5.9l3.7,2.2v5.9L215,200.2z M208.2,199.2v5.8l-23.1-13.3v-5.8L208.2,199.2z M212.8,201.7v5.9l-3.1-1.8V200L212.8,201.7z
		 M212.8,198.8l-7.7-4.4v-5.8l7.7,4.3V198.8z M199.6,176.6v5.8l-14.4-8.3v-5.8L199.6,176.6z M207.1,181l5.7,3.3v5.9l-5.7-3.3V181z
		 M215.4,177v5.9l-5.2-3.1v-5.8L215.4,177z M217.1,186.7l6.3,3.6v5.9l-6.3-3.5V186.7z M250,202.8l-2.2-1.2v-5.9l2.2,1.4V202.8z
		 M247.7,204.5l3.4,1.9v5.8l-3.4-1.9V204.5z M221.1,238.7l-6.8-3.9V229l6.7,4L221.1,238.7z M236,238.6v-5.9l4.1,2.3v5.9L236,238.6z
		 M229.7,243.7v-5.9l10.4,5.9v5.9L229.7,243.7z M240.1,223.3l-5.9-3.3v-5.8l5.9,3.3V223.3z M247.7,251.1c0.6,1.3,1.3,2.7,2,4.1
		l-2-1.2V251.1z M205.6,206.3v5.8l-20.5-11.6v-5.9L205.6,206.3z M276.1,270.3v0.2l-0.1-0.1L276.1,270.3z M287.8,268.4v-5.9l3.6,2.2
		v5.9L287.8,268.4z M302.6,262.4v5.9l-18.2-10.5v-5.9L302.6,262.4z M302.6,253.7v5.9l-14.8-8.7v-5.8L302.6,253.7z M302.6,280v5.9
		l-11-6.4v-5.8L302.6,280z M302.6,271.3v5.9l-5.1-3v-5.9L302.6,271.3z M201.5,169.1v5.7l-4.8-2.7v-5.9L201.5,169.1z M185.1,130.4
		v-5.8l9,5.2v5.9L185.1,130.4z M185.1,107.1l4,2.3v5.8l-4-2.3V107.1z M185.1,98.4l7.1,4v5.9l-7.1-4V98.4z M185.1,148v-5.9l5.8,3.3
		v5.9L185.1,148z M185.1,159.6l4.5,2.6v5.8l-4.5-2.5V159.6z M185.1,177l6.8,3.9v5.9l-6.8-3.8V177z"/>
</g>
<path class="st26" d="M240.1,290.9c0.4-0.1,0.8-0.2,1.2-0.3c0.6,0.6,1,1.3,1.4,2.1c0.8,1.6,0.7,3.6-0.2,5.1l0.1,0.6
	c-1,0.2-1.8,0.4-2.5,0.5h-0.2c-0.7,0.2-1.7,0.4-3.2,0.6c-0.9,0.1-1.9,0.3-3,0.4c-0.5,0.1-0.9,0.1-1.4,0.1c-0.5-0.5-1-0.8-1.6-1.2
	l-1.3-1c-1.3-0.9-2.6-1.8-3.9-2.6v-0.1h-0.1L223,294c0-0.6,0-1.2,0.2-1.8c3.8,0.2,7.7,0,11.5-0.4c0.9-0.1,1.7-0.2,2.5-0.4
	S239,291.2,240.1,290.9z M244.5,297.9c0.7-0.9,1-2.1,1-3.2c0-1.7-0.6-3.3-1.6-4.6c0-0.1,0-0.1-0.1-0.2c0.6-0.2,1.4-0.3,2.2-0.6
	c0.4,0,0.8,0,1.2,0.2c0.2,0.1,0.3,0.1,0.5,0.2c0.6,0.4,1.1,0.9,1.5,1.5c0,0.1,0,0.1,0.1,0.2l0,0l-1.5,5.6h-0.1
	C247,297.3,245.9,297.6,244.5,297.9L244.5,297.9z M240.1,301.6c2.6-0.7,5.1-1.8,7.4-3.2l0.9-0.6c0.5-0.4,1-0.7,1.6-1
	c2.3-0.3,3.9,1.4,4.7,5c-1.2,1-2.4,2-3.6,2.9c-1.1,0.8-2.2,1.6-3.3,2.3c-2.5,1.6-5.1,3.1-7.8,4.4c-1.3,0.7-2.6,1.2-4,1.7l-0.5,0.2
	c-5.6,0.5-7.8-2-6.6-7.7c0.2-1.3,0.9-2.5,2-3.2l2.1,0.1c0.4,0,0.8,0,1.2,0c1.1,0,2.3-0.1,3.4-0.3C238.3,302,239.2,301.8,240.1,301.6
	L240.1,301.6z M257,300.2c-0.2,0.1-0.3,0.1-0.5,0.1c0-0.5,0-1,0-1.5c-0.1-1.6-0.5-2.7-1.3-3.2l-0.5-0.2c-0.5-0.3-1-0.6-1.5-0.9
	c0.6-0.3,1.3-0.4,2-0.4h0.2h0.6c0.9,0.3,1.7,1.1,2,2l0.1,0.4c0.1,0.1,0.1,0.3,0.2,0.4c0,0.3,0,0.7,0,1c-0.1,0.4-0.2,0.8-0.4,1.2
	C257.6,299.7,257.4,300,257,300.2L257,300.2z"/>
<path class="st27" d="M263.5,269.6l-3,11.5l-0.3,1c0,0.3-0.2,0.6-0.5,0.8c-0.2,0.2-0.5,0.4-0.8,0.5c-0.7,0.3-1.5,0.3-2.2,0.1
	c-0.8-0.2-1.5-0.6-2-1.1c-0.4-0.5-0.5-1.1-0.4-1.8l0.3-1.3l2.5-9.6l1-3.9l0.1,0.1c1.4,1.3,3,2.4,4.6,3.3L263.5,269.6z"/>
</svg>
