<?xml version="1.0" encoding="utf-8"?>
<!-- Generator: Adobe Illustrator 24.2.3, SVG Export Plug-In . SVG Version: 6.00 Build 0)  -->
<svg version="1.1" id="Layer_1" xmlns="http://www.w3.org/2000/svg" xmlns:xlink="http://www.w3.org/1999/xlink" x="0px" y="0px"
	 viewBox="0 0 500 500" style="enable-background:new 0 0 500 500;" xml:space="preserve">
<style type="text/css">
	.st0{opacity:0.35;fill-rule:evenodd;clip-rule:evenodd;fill:#59CAAF;enable-background:new    ;}
	.st1{fill-rule:evenodd;clip-rule:evenodd;fill:url(#SVGID_1_);}
	.st2{fill-rule:evenodd;clip-rule:evenodd;fill:url(#SVGID_2_);}
	.st3{fill-rule:evenodd;clip-rule:evenodd;fill:#4A9FF8;}
	.st4{fill-rule:evenodd;clip-rule:evenodd;fill:#D0E7FF;}
	.st5{fill-rule:evenodd;clip-rule:evenodd;fill:#FFFFFF;}
	.st6{fill-rule:evenodd;clip-rule:evenodd;fill:url(#SVGID_3_);}
	.st7{opacity:0.2;fill-rule:evenodd;clip-rule:evenodd;fill:#6D6AFD;enable-background:new    ;}
	.st8{fill-rule:evenodd;clip-rule:evenodd;fill:url(#SVGID_4_);}
	.st9{fill-rule:evenodd;clip-rule:evenodd;fill:#4165F3;}
	.st10{fill-rule:evenodd;clip-rule:evenodd;fill:#22D2FB;}
	.st11{fill-rule:evenodd;clip-rule:evenodd;fill:url(#SVGID_5_);}
	.st12{fill-rule:evenodd;clip-rule:evenodd;fill:#12A3EB;}
	.st13{fill-rule:evenodd;clip-rule:evenodd;fill:#1C8DF3;}
	.st14{opacity:0.5;fill-rule:evenodd;clip-rule:evenodd;fill:url(#SVGID_6_);enable-background:new    ;}
	.st15{fill-rule:evenodd;clip-rule:evenodd;fill:url(#SVGID_7_);}
	.st16{fill-rule:evenodd;clip-rule:evenodd;fill:#FFFCF1;}
	.st17{opacity:0.5;fill-rule:evenodd;clip-rule:evenodd;fill:url(#SVGID_8_);enable-background:new    ;}
	.st18{fill-rule:evenodd;clip-rule:evenodd;fill:url(#SVGID_9_);}
	.st19{fill-rule:evenodd;clip-rule:evenodd;fill:url(#SVGID_10_);}
	.st20{fill-rule:evenodd;clip-rule:evenodd;fill:url(#SVGID_11_);}
	.st21{fill-rule:evenodd;clip-rule:evenodd;fill:#FDBEBE;}
	.st22{fill-rule:evenodd;clip-rule:evenodd;fill:url(#SVGID_12_);}
	.st23{fill-rule:evenodd;clip-rule:evenodd;fill:url(#SVGID_13_);}
	.st24{fill-rule:evenodd;clip-rule:evenodd;fill:url(#SVGID_14_);}
	.st25{fill-rule:evenodd;clip-rule:evenodd;fill:#5858F0;}
	.st26{opacity:0.5;fill-rule:evenodd;clip-rule:evenodd;fill:url(#SVGID_15_);enable-background:new    ;}
	.st27{opacity:0.5;fill-rule:evenodd;clip-rule:evenodd;fill:url(#SVGID_16_);enable-background:new    ;}
	.st28{opacity:0.5;fill-rule:evenodd;clip-rule:evenodd;fill:url(#SVGID_17_);enable-background:new    ;}
	.st29{fill-rule:evenodd;clip-rule:evenodd;fill:url(#SVGID_18_);}
	.st30{opacity:0.5;fill-rule:evenodd;clip-rule:evenodd;fill:#FFFCF1;enable-background:new    ;}
	.st31{opacity:0.5;fill-rule:evenodd;clip-rule:evenodd;fill:url(#SVGID_19_);enable-background:new    ;}
	.st32{fill-rule:evenodd;clip-rule:evenodd;fill:url(#SVGID_20_);}
	.st33{fill-rule:evenodd;clip-rule:evenodd;fill:url(#SVGID_21_);}
	.st34{fill-rule:evenodd;clip-rule:evenodd;fill:url(#SVGID_22_);}
	.st35{fill-rule:evenodd;clip-rule:evenodd;fill:#FFDB59;}
	.st36{opacity:0.2;fill-rule:evenodd;clip-rule:evenodd;fill:url(#SVGID_23_);enable-background:new    ;}
	.st37{fill-rule:evenodd;clip-rule:evenodd;fill:url(#SVGID_24_);}
	.st38{opacity:0.2;fill-rule:evenodd;clip-rule:evenodd;fill:url(#SVGID_25_);enable-background:new    ;}
	.st39{opacity:0.5;fill-rule:evenodd;clip-rule:evenodd;fill:url(#SVGID_26_);enable-background:new    ;}
	.st40{fill-rule:evenodd;clip-rule:evenodd;fill:url(#SVGID_27_);}
	.st41{opacity:0.2;fill-rule:evenodd;clip-rule:evenodd;fill:url(#SVGID_28_);enable-background:new    ;}
	.st42{fill-rule:evenodd;clip-rule:evenodd;fill:url(#SVGID_29_);}
	.st43{opacity:0.35;}
	.st44{opacity:0.2;fill-rule:evenodd;clip-rule:evenodd;fill:#59CAAF;enable-background:new    ;}
	.st45{fill-rule:evenodd;clip-rule:evenodd;fill:url(#SVGID_30_);}
	.st46{fill-rule:evenodd;clip-rule:evenodd;fill:#6D6AFD;}
	.st47{fill-rule:evenodd;clip-rule:evenodd;fill:url(#SVGID_31_);}
	.st48{fill-rule:evenodd;clip-rule:evenodd;fill:url(#SVGID_32_);}
</style>
<g>
	<g id="Layer_8">
		<path class="st0" d="M344.1,359.9l-97.8-54.1c-2.4-1.1-5.9-2.1-8.3-0.7l-6,3.7c-1.2,0.7-5.2,3.2-2.5,4.6
			c7.8,4.3,91.1,50.7,99.1,55c1.9,0.9,4,1.2,6,0.9c2.3-0.1,4.5-0.8,6.5-1.9l2.4-1.5c1.7-1,2.6-2.2,2.7-3.3
			C346.3,361.6,345.6,360.6,344.1,359.9z"/>
		
			<linearGradient id="SVGID_1_" gradientUnits="userSpaceOnUse" x1="350.5808" y1="273.8185" x2="312.6703" y2="131.3661" gradientTransform="matrix(1 0 0 -1 -38.03 462.14)">
			<stop  offset="0" style="stop-color:#D1E8FF"/>
			<stop  offset="1" style="stop-color:#EAEFFF"/>
		</linearGradient>
		<path class="st1" d="M268,115.1c-1.4-0.9-3.1-1-4.6-0.5l-3.5,1.3c-1.3,6.5,71.7,245,73.3,246.7l3.1-1.1c2-0.8,3.1-2.9,3.4-5
			l26.1-178.1l0,0c0.4-3-0.4-6.1-2.1-8.6c-0.9-1.4-2.1-2.5-3.5-3.4L268,115.1z"/>
		
			<linearGradient id="SVGID_2_" gradientUnits="userSpaceOnUse" x1="356.7026" y1="326.5902" x2="307.8348" y2="98.9191" gradientTransform="matrix(1 0 0 -1 -38.03 462.14)">
			<stop  offset="0" style="stop-color:#6D6AFE"/>
			<stop  offset="1" style="stop-color:#3FB0F7"/>
		</linearGradient>
		<path class="st2" d="M356.8,167.6l-92.2-51.3c-3.8-2.1-7.3-0.1-8,4.4l-26.1,178.1c-0.7,4.5,1.8,9.9,5.6,12l92.2,51.3
			c3.8,2.1,7.4,0.1,8-4.4l26.1-178.1C363,175.1,360.5,169.7,356.8,167.6z"/>
		<path class="st3" d="M356.8,167.6l-92.2-51.3c-3.8-2.1-7.3-0.1-8,4.4l-1.3,9.1L361,188.8l1.3-9.1
			C363,175.1,360.5,169.7,356.8,167.6z"/>
		<path class="st4" d="M313.5,86.1c0.2-1.5-0.2-2.4,0.5-3.2c0.8-0.6,1.6-1.1,2.6-1.5c1.4-0.5,2.9-0.3,4.1,0.5l18.8,11.2
			c3.4,2,5.8,7.1,5.2,11.4l-2.9,21.5c-0.1,1.5-0.8,2.9-1.8,4c-0.9,0.8-2,1.3-3.1,1.5c-1,0.1-1.2-0.8-2.3-1.4L315.8,119
			c-3.4-2-5.8-7.1-5.2-11.4L313.5,86.1z"/>
		<path class="st5" d="M312.4,86.8c0.6-4.3,3.8-6.2,7.2-4.2l18.8,11.2c3.4,2,5.8,7.1,5.2,11.4l-2.9,21.5c-0.6,4.3-3.8,6.1-7.2,4.2
			l-18.8-11.2c-3.4-2-5.8-7.1-5.2-11.4L312.4,86.8z"/>
		
			<linearGradient id="SVGID_3_" gradientUnits="userSpaceOnUse" x1="365.801" y1="364.2757" x2="366.9607" y2="374.937" gradientTransform="matrix(1 0 0 -1 -38.03 462.14)">
			<stop  offset="0" style="stop-color:#6D6AFE"/>
			<stop  offset="1" style="stop-color:#3FB0F7"/>
		</linearGradient>
		<path class="st6" d="M312.4,86.8c0.6-4.3,3.8-6.2,7.2-4.2l18.8,11.2c3.4,2,5.8,7.1,5.2,11.4l-0.3,2c-0.4-0.3-0.8-0.6-1.2-0.8
			l-30.1-17.7L312.4,86.8z"/>
		<path class="st7" d="M324.8,99.1c5.2,1.2,9.2,7.4,9,13.9s-4.7,10.8-10,9.6s-9.2-7.4-9-13.9S319.5,97.9,324.8,99.1z"/>
		
			<linearGradient id="SVGID_4_" gradientUnits="userSpaceOnUse" x1="361.1435" y1="346.4821" x2="363.6789" y2="357.4554" gradientTransform="matrix(1 0 0 -1 -38.03 462.14)">
			<stop  offset="0" style="stop-color:#6D6AFE"/>
			<stop  offset="1" style="stop-color:#3FB0F7"/>
		</linearGradient>
		<path class="st8" d="M324.5,104.5c2.8,0.6,5,4,4.8,7.5s-2.6,5.8-5.4,5.2c-2.8-0.6-5-4-4.8-7.5
			C319.3,106.2,321.7,103.9,324.5,104.5L324.5,104.5z M324.4,107.5c-1.5-0.3-2.8,0.9-2.9,2.7s1.1,3.6,2.6,4s2.8-0.9,2.9-2.7
			C327.1,109.6,325.9,107.9,324.4,107.5z"/>
		<path class="st5" d="M317,84.9c1,0.4,1.7,1.4,1.6,2.5c0,1.2-0.9,2-1.8,1.7c-1-0.4-1.7-1.4-1.6-2.5C315.3,85.5,316.1,84.7,317,84.9
			z"/>
		<path class="st5" d="M321.3,87.4c1,0.4,1.7,1.4,1.6,2.5c-0.1,1.2-0.9,2-1.8,1.7c-1-0.4-1.7-1.4-1.6-2.5
			C319.6,87.9,320.4,87.2,321.3,87.4z"/>
		<path class="st5" d="M326,90.1c1,0.4,1.7,1.4,1.6,2.5c0,1.2-0.9,1.9-1.8,1.7c-1-0.4-1.7-1.4-1.6-2.5C324.2,90.7,325,89.9,326,90.1
			z"/>
		<path class="st3" d="M238.9,275.4l31.4,17.2l0.1-1L239,274.5l3.8-26.1l31.4,17.2l0.1-1L243,247.4l3.8-26.1l31.5,17.2l0.1-1
			L247,220.3l3.8-26.1l31.4,17.2l0.2-1l-31.5-17.2l3.8-26.1l31.4,17.2l0.1-1l-31.5-17.2l3.8-26.1l31.4,17.2l-3.8,26.1l-0.1,1
			l-3.8,26.1l-0.2,1l-3.8,26.1l-0.1,1l-3.8,26.1l-0.1,1l-3.8,26.1l-0.1,1l-3.8,26.1l0,0l-31.4-17.2L238.9,275.4L238.9,275.4z
			 M322.5,174.9L291,157.7l-3.8,26.1l31.4,17.2l-0.1,1l-31.4-17.2l0,0l-3.8,26.1l31.5,17.2l-0.1,1l-31.4-17.2l-3.8,26.1l31.4,17.2
			l-0.1,1l-31.4-17.2l0,0l-3.8,26.1l31.4,17.2l-0.1,1L275.1,266l0,0l-3.8,26.1l31.4,17.2l-0.1,1l-31.4-17.2l0,0l-3.8,26.1l31.4,17.2
			l0,0l3.8-26.1l0.1-1l3.8-26.1l0.1-1l3.8-26.1l0.1-1l3.8-26.1l0.1-1l3.8-26.1l0.1-1L322.5,174.9L322.5,174.9z M354.7,192.6
			l-3.8,26.1l-0.1,1l-3.8,26.1l-0.1,0.9l-3.8,26.1l-0.2,0.9L339,300l-0.1,1l-3.8,26.1l-0.2,1l-3.8,26.2l0,0L299.6,337l3.8-26.1l0,0
			l31.4,17.2l0.1-1l-31.4-17.2l3.8-26.1l0,0l31.4,17.2l0.1-1l-31.4-17.2l3.8-26.2l0,0l31.5,17.3l0.2-0.9l-31.4-17.2l3.8-26.1
			l31.4,17.2l0.1-0.9l-31.5-17.2l3.8-26.1l0,0l31.4,17.2l0.1-1l-31.4-17.2l3.8-26.1l0,0L354.7,192.6z M258.1,138.6l-24,163.4
			l97.7,53.5l23.9-163.5L258.1,138.6z"/>
		<path class="st9" d="M290.1,313.3l-3.4-1.9c-0.6-0.4-1-1-1-1.8l-0.2-4.6c0-0.7-0.4-1.4-1-1.8c-0.5-0.3-1.1-0.2-1.4,0.3
			c0,0,0,0.1-0.1,0.1l-1.9,3.4c-0.2,0.5-0.8,0.7-1.3,0.5c0,0-0.1,0-0.1-0.1l-3.4-1.9c-1.2-0.7-2.2,1-1.4,2.4l2.2,4
			c0.4,0.6,0.4,1.4,0.1,2l-1.9,3.4c-0.5,1-0.1,2.2,0.8,2.7c0.2,0.1,0.5,0.2,0.8,0.1l3.3-1c0.3-0.1,0.6,0,0.8,0.1
			c0.3,0.2,0.5,0.4,0.7,0.7l2.2,4c0.2,0.3,0.4,0.6,0.7,0.7c0.8,0.4,1.7-0.1,1.7-1.4l-0.2-4.6c-0.1-0.6,0.3-1.2,0.8-1.5l3.3-1
			C291.5,316.2,291.4,313.9,290.1,313.3z"/>
		<path class="st4" d="M292.9,257.3c-1.9-1.1-4,0.4-3.9,3.2c0,1.4,0.6,2.8,1.6,3.9c0.2,0.2,0.5,0.4,0.8,0.6c1.9,1.1,4-0.4,3.9-3.1
			c0-1.4-0.6-2.8-1.6-3.9C293.5,257.6,293.2,257.4,292.9,257.3L292.9,257.3z M291.1,266.2c-0.4-0.2-0.7-0.5-1-0.8
			c-1.4-1.4-2.1-3.2-2.1-5.2c0-3.7,2.7-5.7,5.3-4.2c0.4,0.2,0.7,0.5,1.1,0.8c1.4,1.4,2.1,3.2,2.1,5.2
			C296.3,265.7,293.6,267.6,291.1,266.2L291.1,266.2z M299.9,263c0.5,0.3,0.7,0.9,0.6,1.5l-0.5,2.2c0,0.4-0.4,0.7-0.7,0.6
			c-0.1,0-0.2,0-0.3-0.1l-0.2-0.1c-0.3-0.2-0.7-0.1-0.9,0.2c0,0,0,0,0,0c-0.1,0.2-0.3,0.4-0.4,0.6c-0.2,0.4-0.3,0.8-0.1,1.2l0.1,0.3
			c0.3,0.5,0.1,1.1-0.3,1.4l-1.6,0.9c-0.2,0.1-0.4,0.1-0.6,0c-0.2-0.1-0.4-0.4-0.5-0.6l-0.1-0.3c-0.1-0.3-0.3-0.5-0.5-0.6
			c-0.1-0.1-0.2-0.1-0.4-0.1c-0.2,0-0.5,0-0.7,0c-0.4,0-0.7,0.3-0.8,0.7l-0.1,0.3c0,0.4-0.3,0.7-0.7,0.7c-0.1,0-0.2,0-0.3-0.1
			l-1.8-1c-0.5-0.3-0.7-0.9-0.6-1.5l0.1-0.3c0.1-0.4,0-0.9-0.3-1.3c-0.2-0.2-0.4-0.4-0.5-0.6c-0.1-0.1-0.2-0.2-0.3-0.3
			c-0.2-0.1-0.4-0.1-0.6,0l-0.2,0.1c-0.2,0.1-0.4,0.1-0.6,0c-0.2-0.1-0.4-0.4-0.5-0.6l-0.9-2.2c-0.3-0.5-0.1-1.1,0.3-1.4l0.2-0.1
			c0.3-0.2,0.5-0.7,0.4-1.1c0-0.3-0.1-0.6-0.1-0.9c0-0.4-0.2-0.9-0.6-1.1l-0.2-0.1c-0.5-0.3-0.7-0.9-0.6-1.5l0.5-2.2
			c0-0.4,0.3-0.7,0.7-0.7c0.1,0,0.2,0,0.3,0.1l0.2,0.1c0.3,0.2,0.7,0.1,0.9-0.2c0,0,0,0,0-0.1c0.1-0.2,0.3-0.5,0.5-0.7
			c0.2-0.4,0.3-0.8,0.1-1.2l-0.1-0.3c-0.3-0.5-0.1-1.1,0.3-1.4l1.6-0.9c0.2-0.1,0.4-0.1,0.6,0c0.2,0.1,0.4,0.4,0.5,0.6l0.1,0.3
			c0.1,0.3,0.3,0.5,0.5,0.6c0.1,0.1,0.2,0.1,0.4,0.1c0.2,0,0.5,0,0.7,0c0.4,0,0.7-0.3,0.8-0.6l0.1-0.3c0.1-0.6,0.6-0.8,1-0.6l1.8,1
			c0.5,0.3,0.7,0.9,0.6,1.5l-0.1,0.3c-0.1,0.4,0,0.9,0.3,1.2c0.2,0.2,0.4,0.4,0.5,0.7c0.1,0.1,0.2,0.2,0.3,0.3
			c0.2,0.1,0.4,0.1,0.6,0l0.2-0.1c0.2-0.1,0.4-0.1,0.6,0c0.2,0.1,0.4,0.4,0.5,0.6l0.9,2.2c0.3,0.5,0.1,1.1-0.3,1.4l-0.2,0.1
			c-0.3,0.2-0.5,0.7-0.4,1.1c0,0.3,0.1,0.6,0.1,0.9c0,0.4,0.2,0.9,0.6,1.1L299.9,263z"/>
		<path class="st10" d="M259,302.3c-1.2,5.4-5.7,7.8-10,5.4c-4.4-2.4-7-8.8-5.8-14.2c1.2-5.4,5.7-7.8,10-5.4S260.1,297,259,302.3z
			 M251.9,300.1c0.4-0.3,0.7-0.7,0.8-1.2c0.2-1-0.1-2-0.8-2.7l1-4.8c0.1-0.3-0.1-0.7-0.4-0.9c-0.3-0.2-0.5,0-0.6,0.3l-1,4.8
			c-0.8-0.1-1.6,0.5-1.7,1.3c0,0,0,0,0,0.1c-0.2,1.2,0.2,2.4,1.3,3.1c0.2,0.1,0.4,0.2,0.6,0.2l2,7.2c0,0.1,0.1,0.3,0.3,0.3
			c0.1,0,0.2,0.1,0.2,0.1c0.2,0,0.3-0.3,0.2-0.6L251.9,300.1L251.9,300.1z M253.5,286.4c-5.1-2.8-10.4,0-11.8,6.4
			c-1.4,6.4,1.7,13.9,6.8,16.7c5.1,2.8,10.4,0,11.8-6.4C261.7,296.7,258.7,289.3,253.5,286.4L253.5,286.4z"/>
		
			<linearGradient id="SVGID_5_" gradientUnits="userSpaceOnUse" x1="299.8624" y1="234.0506" x2="296.9831" y2="210.9524" gradientTransform="matrix(1 0 0 -1 -38.03 462.14)">
			<stop  offset="0" style="stop-color:#FD90DA"/>
			<stop  offset="1" style="stop-color:#8E6DFD"/>
		</linearGradient>
		<path class="st11" d="M271.4,235.4l-19.8-10.9c-0.5-0.3-1.1-0.2-1.4,0.3c-0.1,0.2-0.2,0.4-0.2,0.6l-2.5,21.7
			c-0.1,0.9,0.4,1.8,1.2,2.3l19.8,10.9c0.5,0.3,1.1,0.2,1.4-0.3c0.1-0.2,0.2-0.4,0.2-0.6l2.5-21.7
			C272.6,236.8,272.2,235.9,271.4,235.4z"/>
		<path class="st5" d="M268.9,237.5c0.5,0.3,0.7,0.9,0.4,1.4l-9.6,12.4c-0.1,0.2-0.4,0.2-0.6,0.1c-0.2-0.1-0.4-0.3-0.5-0.5
			l-5.8-15.3c-0.2-0.6,0.1-1.2,0.6-0.9l2.8,1.5c0.2,0.1,0.4,0.3,0.5,0.6l2.4,6.3c0.1,0.2,0.2,0.4,0.5,0.6c0.2,0.1,0.4,0.1,0.6-0.1
			l5.6-7.2c0.1-0.2,0.4-0.2,0.6-0.1L268.9,237.5z"/>
		<path class="st10" d="M315.9,205l-27.6-15c-0.3-0.2-0.6-0.1-0.8,0.2c-0.1,0.1-0.1,0.2-0.1,0.3l-0.4,2.4c-0.1,0.5,0.2,1,0.6,1.2
			l27.6,15c0.3,0.2,0.6,0.1,0.8-0.2c0.1-0.1,0.1-0.2,0.1-0.3l0.4-2.4C316.5,205.8,316.3,205.3,315.9,205z"/>
		<path class="st10" d="M314.2,213.9l-14.7-8c-0.3-0.2-0.6-0.1-0.8,0.2c-0.1,0.1-0.1,0.2-0.1,0.3l-0.1,0.7c-0.1,0.5,0.2,1,0.6,1.2
			l14.7,8c0.3,0.2,0.6,0.1,0.8-0.2c0-0.1,0.1-0.2,0.1-0.3l0.1-0.7C314.9,214.6,314.6,214.1,314.2,213.9z"/>
		<path class="st10" d="M294.8,172.9c-0.7,6.1,2.7,13.5,7.5,16.5s9.5-0.9,10-5.4c0.5-4.6-0.3-6.5-1.7-9.5l-2.5,1.4
			c1.1,1.9,1.4,4,1.1,6.1c-0.3,2.9-3.3,5.5-6.4,3.5c-3.1-2-5.3-6.7-4.8-10.6L294.8,172.9z"/>
		<path class="st12" d="M298.2,166.8c-1.8,1-3.1,3.1-3.4,6.2l3.1,2c0.2-2,1-3.3,2.2-4L298.2,166.8z"/>
		<path class="st13" d="M304.8,167.5c-2.4-1.5-4.8-1.7-6.6-0.7l1.9,4.2c1.4-0.6,3-0.5,4.2,0.4c1.7,1.1,3,2.7,3.8,4.6
			c0.8-0.4,1.7-0.9,2.5-1.4C309.4,171.7,307.4,169.2,304.8,167.5z"/>
		<path class="st10" d="M304.6,285.6l-27.6-15c-0.3-0.2-0.6-0.1-0.8,0.2c-0.1,0.1-0.1,0.2-0.1,0.3l-0.4,2.4c-0.1,0.5,0.2,1,0.6,1.2
			l27.6,15c0.4,0.2,0.8,0,0.8-0.5l0.4-2.4C305.2,286.4,305,285.9,304.6,285.6z"/>
		<path class="st10" d="M290.6,287.1l-14.7-8c-0.3-0.2-0.6-0.1-0.8,0.2c-0.1,0.1-0.1,0.2-0.1,0.3l-0.1,0.7c-0.1,0.5,0.2,1,0.6,1.2
			l14.7,8c0.3,0.2,0.6,0.1,0.8-0.2c0.1-0.1,0.1-0.2,0.1-0.3l0.1-0.7C291.3,287.9,291,287.4,290.6,287.1z"/>
		
			<linearGradient id="SVGID_6_" gradientUnits="userSpaceOnUse" x1="295.6264" y1="263.5308" x2="311.0066" y2="314.9739" gradientTransform="matrix(1 0 0 -1 -38.03 462.14)">
			<stop  offset="0" style="stop-color:#965CF2"/>
			<stop  offset="1" style="stop-color:#FF8ADC"/>
		</linearGradient>
		<path class="st14" d="M273.6,157.2l-20.2-9.8l-8,50l-1,7l21.1,11.4c3.7,2,7.2,0.1,7.8-4.3l5.9-42.6
			C279.7,164.5,277.3,159.2,273.6,157.2z"/>
		<path class="st4" d="M271.1,169.1l-6.3,40.8l0.7,0.1l1.8-0.7c2-0.8,3-2.8,3.3-4.8l5.2-37.1l0,0c0.3-3-0.4-5.9-2.1-8.4
			c-0.8-1.4-2-2.5-3.4-3.3l-38.7-21c-1.3-0.8-3-1-4.5-0.5l-1.6,0.6c-0.8,0.3-1,0.5-1,0.6C225.3,142.2,272.2,161.9,271.1,169.1z"/>
		
			<linearGradient id="SVGID_7_" gradientUnits="userSpaceOnUse" x1="291.2043" y1="315.32" x2="273.6726" y2="257.7424" gradientTransform="matrix(1 0 0 -1 -38.03 462.14)">
			<stop  offset="0" style="stop-color:#6D6AFE"/>
			<stop  offset="1" style="stop-color:#3FB0F7"/>
		</linearGradient>
		<path class="st15" d="M268.5,156.3l-38.7-21c-1.3-0.8-3-1-4.5-0.5c-1.7,0.7-2.9,2.4-3.3,4.8l-5.2,37.1c-0.6,4.4,1.8,9.6,5.4,11.7
			l38.7,21.1c3.7,2,7.2,0.1,7.8-4.3L274,168C274.6,163.6,272.2,158.4,268.5,156.3z"/>
		<path class="st16" d="M261.4,199.5l-38.9-20.9c-0.9-0.5-1.8,0-1.9,1.1c-0.2,1.1,0.4,2.2,1.3,2.8l38.9,20.9c0.9,0.5,1.8,0,2-1.1
			C262.8,201.2,262.3,200.1,261.4,199.5L261.4,199.5z M263.1,188.2c1,0.6,1.5,1.7,1.3,2.8c-0.2,1.1-1,1.6-1.9,1.1l-38.9-20.9
			c-1-0.6-1.5-1.7-1.3-2.8c0.2-1.1,1-1.6,1.9-1.1L263.1,188.2z M267.1,162.6l-38.9-20.9c-0.6-0.4-1.4-0.2-1.7,0.4
			c-0.1,0.2-0.2,0.4-0.2,0.6l-0.4,2.8c-0.2,1.1,0.4,2.2,1.3,2.8l38.9,20.8c0.6,0.4,1.4,0.2,1.7-0.4c0.1-0.2,0.2-0.4,0.2-0.7l0.4-2.8
			C268.6,164.3,268.1,163.2,267.1,162.6L267.1,162.6z M264.8,177c1,0.6,1.5,1.7,1.3,2.8c-0.2,1.1-1,1.6-1.9,1.1l-38.9-20.9
			c-0.9-0.6-1.5-1.7-1.3-2.8c0.2-1.1,1-1.6,1.9-1.1L264.8,177z"/>
		
			<linearGradient id="SVGID_8_" gradientUnits="userSpaceOnUse" x1="380.2608" y1="209.511" x2="366.6482" y2="260.4663" gradientTransform="matrix(1 0 0 -1 -38.03 462.14)">
			<stop  offset="0" style="stop-color:#965CF2"/>
			<stop  offset="1" style="stop-color:#FF8ADC"/>
		</linearGradient>
		<path class="st17" d="M320.4,212.5c0.6-4.3,3.8-6.2,7.2-4.2l30.3,17.7l-4.8,38.3l-3.6,2.3l-27.6-16.1c-3.4-2-5.8-7.1-5.2-11.4
			L320.4,212.5z"/>
		<path class="st4" d="M324.3,214.2c0.2-1.5-0.2-2.4,0.5-3.2c0.8-0.6,1.6-1.1,2.6-1.5c1.4-0.5,2.9-0.3,4.1,0.5l42.6,24.9
			c3.4,2,5.8,7.1,5.2,11.4l-2.9,21.5c-0.1,1.5-0.8,2.9-1.8,4c-0.9,0.8-2,1.3-3.1,1.5c-1,0.1-1.2-0.8-2.3-1.4l-42.6-24.9
			c-3.4-2-5.8-7.1-5.2-11.4L324.3,214.2z"/>
		<path class="st5" d="M323.1,214.9c0.6-4.3,3.8-6.2,7.2-4.2l42.6,24.9c3.4,2,5.8,7.1,5.2,11.4l-2.9,21.5c-0.6,4.3-3.8,6.2-7.2,4.2
			l-42.6-24.9c-3.4-2-5.8-7.1-5.2-11.4L323.1,214.9z"/>
		
			<linearGradient id="SVGID_9_" gradientUnits="userSpaceOnUse" x1="388.234" y1="227.894" x2="390.1055" y2="242.9222" gradientTransform="matrix(1 0 0 -1 -38.03 462.14)">
			<stop  offset="0" style="stop-color:#6D6AFE"/>
			<stop  offset="1" style="stop-color:#3FB0F7"/>
		</linearGradient>
		<path class="st18" d="M323.1,214.9c0.6-4.3,3.8-6.2,7.2-4.2l42.6,24.9c3.4,2,5.8,7.1,5.2,11.4l-0.3,2c-0.4-0.3-0.7-0.6-1.1-0.8
			l-53.9-31.4L323.1,214.9z"/>
		<path class="st7" d="M330.6,228.1c4.3,1,7.7,6.2,7.4,11.5c-0.2,5.4-3.9,8.9-8.3,7.9c-4.3-1-7.7-6.2-7.4-11.5
			C322.6,230.6,326.3,227.1,330.6,228.1z"/>
		
			<linearGradient id="SVGID_10_" gradientUnits="userSpaceOnUse" x1="367.3274" y1="220.3219" x2="369.4309" y2="229.4157" gradientTransform="matrix(1 0 0 -1 -38.03 462.14)">
			<stop  offset="0" style="stop-color:#6D6AFE"/>
			<stop  offset="1" style="stop-color:#3FB0F7"/>
		</linearGradient>
		<path class="st19" d="M330.5,232.6c2.3,0.5,4.1,3.3,4,6.2c-0.1,2.9-2.1,4.8-4.5,4.3c-2.3-0.5-4.1-3.3-4-6.2
			C326.1,234,328.1,232,330.5,232.6z M330.3,235c-1.2-0.3-2.3,0.7-2.4,2.3c-0.1,1.5,0.9,3,2.1,3.3s2.3-0.7,2.4-2.3
			C332.6,236.9,331.7,235.5,330.3,235z"/>
		<path class="st7" d="M340.7,238.4c0.2-1.1,1-1.6,1.9-1.1l27.8,15.8c1,0.7,1.5,1.9,1.4,3.1l-0.3,2.3c-0.2,1.1-1,1.6-1.9,1.1
			l-27.8-15.8c-1-0.7-1.5-1.9-1.4-3.1L340.7,238.4z"/>
		<path class="st7" d="M339.7,246.7c0.1-0.7,0.6-1,1.1-0.6l16.4,9.3c0.6,0.4,0.9,1.1,0.8,1.8l-0.2,1.3c-0.1,0.7-0.6,1-1.1,0.6
			l-16.4-9.3c-0.6-0.4-0.9-1.1-0.8-1.8L339.7,246.7z"/>
		<path class="st5" d="M327.8,213c1,0.4,1.7,1.4,1.6,2.5c0,1.2-0.9,2-1.8,1.7c-1-0.4-1.7-1.4-1.6-2.5
			C326.1,213.6,326.9,212.8,327.8,213z"/>
		<path class="st5" d="M332.1,215.5c1,0.4,1.7,1.4,1.6,2.5c0,1.2-0.9,2-1.8,1.7c-1-0.4-1.7-1.4-1.6-2.5
			C330.3,216.1,331.1,215.3,332.1,215.5z"/>
		<path class="st5" d="M336.7,218.2c1.1,0.4,1.7,1.4,1.6,2.5c0,1.2-0.9,1.9-1.8,1.7c-1-0.4-1.7-1.4-1.6-2.5
			C335,218.8,335.8,218,336.7,218.2z"/>
		<path class="st0" d="M404.7,184.8l-0.5,0.1c-7.7,1.5-16.1,8.2-19,15.4l2.2,3.1c0.7-1.7,1.6-3.2,2.7-4.7c0.2-0.2,0.4-0.5,0.6-0.7
			c3.8-4.5,8.9-7.8,14.6-9.4l0.3-0.1c3.9-1,9.1-1,11.6,2.6l-2.2-3.1C412.9,184.9,408.2,184.2,404.7,184.8z"/>
		<path class="st0" d="M421.5,184.1l0.2,0.3l0.2,0.3c0.1,0.1,0.1,0.2,0.2,0.4c0,0.1,0.1,0.2,0.1,0.3c0,0.1,0.1,0.2,0.1,0.4
			s0.1,0.2,0.1,0.3c0,0.1,0.1,0.2,0.1,0.4c0,0.1,0.1,0.2,0.1,0.3c0,0.1,0.1,0.3,0.1,0.4c0,0.1,0,0.2,0.1,0.4c0.1,0.1,0,0.3,0.1,0.4
			c0,0.1,0,0.2,0,0.4s0,0.4,0,0.5c0,0.2,0,0.2,0,0.3c0,0.1,0,0.4,0,0.6c0,0.1,0,0.2,0,0.3c0,0.3-0.1,0.7-0.1,1c0,0.1,0,0.2,0,0.3
			c0,0.3-0.1,0.5-0.1,0.8c0,0.1-0.1,0.2-0.1,0.4l-0.1,0.5l-0.1,0.4L422,194c0,0.2-0.1,0.3-0.2,0.4c-0.1,0.2-0.1,0.3-0.2,0.5
			l-0.2,0.5l-0.2,0.5c-0.1,0.2-0.2,0.4-0.3,0.6c-0.2,0.3-0.3,0.7-0.5,1s-0.4,0.7-0.6,1l2.2,3.1c0.4-0.7,0.8-1.4,1.1-2.1
			c0.1-0.1,0.1-0.2,0.2-0.3c0-0.1,0.1-0.2,0.1-0.3l0.2-0.5l0.2-0.5c0.1-0.2,0.1-0.3,0.2-0.5s0.1-0.3,0.2-0.4c0-0.2,0.1-0.3,0.2-0.5
			l0.1-0.4l0.1-0.5c0-0.1,0-0.1,0-0.2c0-0.1,0-0.1,0-0.2c0.1-0.3,0.1-0.5,0.1-0.8c0-0.1,0-0.2,0-0.3c0-0.3,0.1-0.7,0.1-1l0,0
			c0-0.1,0-0.1,0-0.2c0-0.2,0-0.4,0-0.6c0-0.2,0-0.2,0-0.3c0-0.1,0-0.4,0-0.5c0,0,0-0.1,0-0.1c0-0.1,0-0.1,0-0.2
			c0-0.1,0-0.3-0.1-0.4c-0.1-0.1,0-0.2-0.1-0.4c-0.1-0.1-0.1-0.3-0.1-0.4c0-0.1,0-0.1,0-0.2l0-0.2c0-0.1-0.1-0.2-0.1-0.4
			s-0.1-0.2-0.1-0.3c0-0.1-0.1-0.2-0.1-0.4l-0.1-0.2l-0.1-0.1c0-0.1-0.1-0.2-0.2-0.4l-0.2-0.3c-0.1-0.1-0.1-0.2-0.2-0.3l-0.1-0.2
			l-0.1-0.2l-2.2-3.1C421.3,183.9,421.4,184,421.5,184.1z"/>
		
			<linearGradient id="SVGID_11_" gradientUnits="userSpaceOnUse" x1="434.1567" y1="276.2274" x2="442.2747" y2="261.0632" gradientTransform="matrix(1 0 0 -1 -38.03 462.14)">
			<stop  offset="0" style="stop-color:#FA5DB1"/>
			<stop  offset="1" style="stop-color:#FEBFBF"/>
		</linearGradient>
		<path class="st20" d="M409,179.4c-11.5,1-24.8,10.2-29.6,20.6c-0.3,0.7-0.6,1.5-0.9,2.2l6.7-1.9c0.1-0.3,0.2-0.5,0.3-0.8
			c3.4-7.4,12.8-13.9,20.9-14.6c8.1-0.7,11.9,4.7,8.5,12.1c-0.1,0.3-0.3,0.6-0.4,0.8l5.4,0.7c0.4-0.7,0.8-1.4,1.1-2.1
			C425.9,186.1,420.5,178.5,409,179.4z"/>
		<path class="st21" d="M414.7,187.6c-2.8-4.1-10.5-3.5-15.9-1c-6.6,3.2-11.7,8.3-14.1,13.3c0,0-6,2-6.2,2.4l6.7-1.9
			c0.1-0.3,0.2-0.5,0.3-0.8c3.4-7.4,12.8-13.9,20.9-14.6C410.2,184.6,413.1,185.7,414.7,187.6z"/>
		<path class="st0" d="M419.6,198c0,0-5-0.3-5.1-0.1l5.4,0.7c0.4-0.7,0.8-1.4,1.1-2.1c2.5-5.4,2.3-10.1-0.2-13.2
			C424.7,189.4,420.1,197.3,419.6,198z"/>
		<path class="st0" d="M387.4,203.5c0,0-2-2.9-2.2-3.1c-2.4,5.5-1.3,7.7,2.4,11.3c-0.2-0.2-0.3-0.5-0.4-0.7c0,0,0-0.1-0.1-0.1
			C386,208.5,386.4,205.7,387.4,203.5z"/>
		<path class="st0" d="M422.2,201.7l-2.2-3.1c-5,8.7-31.5,24.3-40.7,14.2l2.2,3.1c2.2,3.1,6.4,4.8,12.2,4.3c0.7-0.1,1.3-0.1,2-0.3
			l0.7-0.1c0.5-0.1,1-0.2,1.5-0.3c1.9-0.5,3.7-1.1,5.5-1.9l0.2-0.1c6.8-2.9,12.7-7.7,17.1-13.6c0.1-0.2,0.3-0.4,0.4-0.5
			C421.5,202.8,421.8,202.3,422.2,201.7z"/>
		
			<linearGradient id="SVGID_12_" gradientUnits="userSpaceOnUse" x1="432.5443" y1="244.6978" x2="438.0229" y2="264.3489" gradientTransform="matrix(1 0 0 -1 -38.03 462.14)">
			<stop  offset="0" style="stop-color:#965CF2"/>
			<stop  offset="1" style="stop-color:#FF8ADC"/>
		</linearGradient>
		<path class="st22" d="M414.6,197.9c-3.7,7-12.7,13.1-20.5,13.7c-7.8,0.7-11.6-4.3-8.9-11.3l-6.7,1.9c-3.1,9.3,2.3,15.8,12.9,14.9
			s23-9,28.5-18.5L414.6,197.9z"/>
		<path class="st0" d="M391.6,216.6c-17.3,1.2-13.1-14.4-13.1-14.4c-3.1,9.3,2.3,15.8,12.9,14.9s23-9,28.5-18.5
			C420,198.6,409,215.3,391.6,216.6z"/>
		<path class="st0" d="M285.2,411.2l-152.6-85.8c-1.9-0.9-4.8-1.7-6.6-0.6l-4.8,3c-1,0.6-4.2,2.6-2,3.7
			c6.3,3.4,147.2,83.1,153.6,86.6c1.5,0.7,3.2,0.9,4.8,0.7c1.8-0.1,3.6-0.7,5.2-1.6l1.9-1.2c1.4-0.8,2.1-1.8,2.2-2.6
			C286.9,412.5,286.3,411.8,285.2,411.2z"/>
		
			<linearGradient id="SVGID_13_" gradientUnits="userSpaceOnUse" x1="259.1185" y1="209.3954" x2="236.972" y2="74.981" gradientTransform="matrix(1 0 0 -1 -38.03 462.14)">
			<stop  offset="0" style="stop-color:#D1E8FF"/>
			<stop  offset="1" style="stop-color:#EAEFFF"/>
		</linearGradient>
		<path class="st23" d="M150.1,185.5c-1-0.6-2.3-0.8-3.4-0.4l-2.6,1c-0.9,4.8,133,227.5,134.2,228.7l2.3-0.9
			c1.4-0.7,2.4-2.1,2.5-3.7l19.5-132.8l0,0c0.2-2.3-0.3-4.5-1.6-6.4c-0.6-1-1.5-1.9-2.6-2.5L150.1,185.5z"/>
		
			<linearGradient id="SVGID_14_" gradientUnits="userSpaceOnUse" x1="271.9288" y1="234.8362" x2="220.2457" y2="69.2855" gradientTransform="matrix(1 0 0 -1 -38.03 462.14)">
			<stop  offset="0" style="stop-color:#6D6AFE"/>
			<stop  offset="1" style="stop-color:#3FB0F7"/>
		</linearGradient>
		<path class="st24" d="M295.8,269.5l-148.3-83c-2.8-1.6-5.5-0.1-6,3.3l-19.4,132.8c-0.5,3.4,1.4,7.4,4.2,8.9l148.2,83
			c2.8,1.6,5.5,0.1,6-3.3L300,278.5C300.5,275.1,298.6,271.1,295.8,269.5z"/>
		<path class="st3" d="M295.8,269.5l-148.3-83c-2.8-1.6-5.5-0.1-6,3.3l-0.7,4.5L299.3,283l0.7-4.5
			C300.5,275.1,298.6,271.1,295.8,269.5z"/>
		<path class="st25" d="M146.6,189.8c1.3,0.4,2,1.7,1.9,3c-0.1,1.4-1,2.3-2.1,2.1c-1.2-0.4-2-1.7-1.9-3
			C144.5,190.5,145.5,189.6,146.6,189.8z"/>
		<path class="st25" d="M151.7,192.8c1.2,0.4,2,1.7,1.9,3c-0.1,1.4-1,2.3-2.1,2.1c-1.2-0.4-2-1.7-1.9-3
			C149.6,193.4,150.6,192.5,151.7,192.8z"/>
		<path class="st25" d="M157.3,196c1.2,0.4,2,1.7,1.9,3c-0.1,1.4-1,2.3-2.1,2.1c-1.2-0.4-2-1.7-1.9-3
			C155.2,196.7,156.1,195.8,157.3,196z"/>
		
			<linearGradient id="SVGID_15_" gradientUnits="userSpaceOnUse" x1="295.7076" y1="126.679" x2="308.7443" y2="154.1122" gradientTransform="matrix(1 0 0 -1 -38.03 462.14)">
			<stop  offset="0" style="stop-color:#965CF2"/>
			<stop  offset="1" style="stop-color:#FF8ADC"/>
		</linearGradient>
		<path class="st26" d="M277.7,315.6l-26.6-14.6c-1.3-0.8-2.9-1-4.3-0.5c-1.6,0.6-2.8,2.3-3.2,4.7l-3,21.7
			c-0.6,4.3,1.7,9.3,5.2,11.2l26.6,14.7c3.5,2,6.9,0.1,7.5-4.2l3-21.7C283.6,322.6,281.3,317.5,277.7,315.6z"/>
		
			<linearGradient id="SVGID_16_" gradientUnits="userSpaceOnUse" x1="294.0236" y1="175.1925" x2="318.1855" y2="210.4877" gradientTransform="matrix(1 0 0 -1 -38.03 462.14)">
			<stop  offset="0" style="stop-color:#965CF2"/>
			<stop  offset="1" style="stop-color:#FF8ADC"/>
		</linearGradient>
		<path class="st27" d="M238.8,239.4l58.4,28.5l-1.6,1.6l-5.6,39.2c-0.6,4-3.6,5.8-6.8,4l-54.7-31.3l-4.8-10.6L238.8,239.4z"/>
		
			<linearGradient id="SVGID_17_" gradientUnits="userSpaceOnUse" x1="180.3128" y1="139.2234" x2="195.461" y2="172.2632" gradientTransform="matrix(1 0 0 -1 -38.03 462.14)">
			<stop  offset="0" style="stop-color:#965CF2"/>
			<stop  offset="1" style="stop-color:#FF8ADC"/>
		</linearGradient>
		<path class="st28" d="M165.4,299.8l-36.1-20l-1.2,1.8l-5.9,40.4l37.4,20.7c4,2.2,7.7,0.1,8.4-4.7l3.3-25.6
			C172,307.7,169.4,302,165.4,299.8z"/>
		<path class="st4" d="M163.8,308.7l-4.3,28.3l0.7,0.1l1.9-0.7c2-0.8,3.1-2.9,3.4-5l3.2-24.6l0,0c0.4-3.1-0.4-6.1-2.1-8.7
			c-0.9-1.4-2.1-2.6-3.5-3.4l-74.9-41.5c-1.4-0.9-3.1-1.1-4.6-0.5l-1.6,0.6c-0.8,0.3-1.1,0.6-1.1,0.6
			C81.6,261.2,164.9,301.3,163.8,308.7z"/>
		
			<linearGradient id="SVGID_18_" gradientUnits="userSpaceOnUse" x1="161.859" y1="175.2036" x2="155.8605" y2="157.9999" gradientTransform="matrix(1 0 0 -1 -38.03 462.14)">
			<stop  offset="0" style="stop-color:#1C8EF4"/>
			<stop  offset="1" style="stop-color:#00CFDD"/>
		</linearGradient>
		<path class="st29" d="M161.1,295.4L86.3,254c-1.4-0.9-3.1-1.1-4.6-0.5c-1.7,0.7-3.1,2.4-3.4,5L75,283c-0.7,4.6,1.8,10,5.6,12.1
			l74.9,41.5c3.8,2.1,7.4,0.1,8.1-4.5l3.2-24.6C167.5,303,164.9,297.5,161.1,295.4z"/>
		<path class="st30" d="M160.2,303.1l-51.6-28.4c-0.3-0.2-0.7-0.2-1.1-0.1c-0.5,0.2-0.8,0.7-0.8,1.2l-0.3,1.7
			c-0.1,1.1,0.4,2.3,1.3,2.9l51.6,28.4c0.6,0.4,1.4,0.2,1.7-0.4c0.1-0.2,0.2-0.5,0.2-0.7l0.3-1.7
			C161.7,304.8,161.2,303.7,160.2,303.1L160.2,303.1z M131.5,309.8c1,0.6,1.5,1.8,1.4,2.9l-0.3,1.7c0,0.7-0.5,1.3-1.2,1.3
			c-0.2,0-0.5-0.1-0.7-0.2l-25.9-14c-1-0.6-1.5-1.7-1.4-2.9l0.3-1.7c0-0.5,0.3-1,0.8-1.2c0.4-0.1,0.8-0.1,1.1,0.1L131.5,309.8
			L131.5,309.8z M158.6,313.6c1,0.6,1.5,1.8,1.4,2.9l-0.3,1.7c0,0.7-0.5,1.3-1.2,1.3c-0.2,0-0.5-0.1-0.7-0.2l-51.6-28.4
			c-1-0.6-1.5-1.8-1.4-2.9l0.3-1.7c0-0.5,0.3-1,0.8-1.2c0.4-0.1,0.8-0.1,1.1,0.1L158.6,313.6z"/>
		<path class="st30" d="M92.1,274.2c-2.4-1.4-5,0.5-5,4c0,1.8,0.7,3.6,2,4.9c0.3,0.3,0.6,0.5,1,0.7c2.4,1.4,5-0.5,5-4
			c0-1.8-0.7-3.6-2-4.9C92.8,274.6,92.5,274.4,92.1,274.2L92.1,274.2z M89.8,285.5c-0.5-0.3-0.9-0.6-1.3-1c-1.7-1.8-2.7-4.1-2.7-6.6
			c0-4.7,3.4-7.2,6.7-5.4c0.5,0.3,0.9,0.6,1.3,1c1.7,1.8,2.7,4.1,2.7,6.5C96.5,284.8,93.1,287.3,89.8,285.5L89.8,285.5z M101,281.5
			c0.6,0.4,0.9,1.1,0.8,1.9l-0.6,2.8c0,0.5-0.4,0.8-0.9,0.8c-0.1,0-0.3,0-0.4-0.1l-0.3-0.2c-0.4-0.2-0.9-0.1-1.1,0.2
			c0,0,0,0.1-0.1,0.1c-0.2,0.3-0.3,0.5-0.5,0.8c-0.3,0.5-0.4,1.1-0.1,1.6l0.2,0.4c0.3,0.6,0.2,1.4-0.4,1.8l-2.1,1
			c-0.2,0.1-0.6,0.1-0.8,0c-0.3-0.2-0.5-0.5-0.6-0.8l-0.2-0.4c-0.1-0.3-0.3-0.6-0.6-0.8c-0.1-0.1-0.3-0.1-0.5-0.1
			c-0.3,0-0.6,0-0.9,0c-0.5,0-0.9,0.3-1,0.8l-0.1,0.4c0,0.5-0.4,0.8-0.9,0.8c-0.1,0-0.3,0-0.4-0.1l-2.2-1.2
			c-0.6-0.4-0.9-1.1-0.8-1.9l0.1-0.4c0.1-0.6-0.1-1.2-0.4-1.6c-0.2-0.3-0.5-0.5-0.7-0.8c-0.1-0.2-0.3-0.3-0.4-0.4
			c-0.2-0.1-0.6-0.1-0.8,0l-0.3,0.1c-0.2,0.1-0.6,0.1-0.8,0c-0.3-0.2-0.5-0.5-0.6-0.8l-1.2-2.9c-0.3-0.6-0.2-1.4,0.4-1.8l0.3-0.1
			c0.4-0.3,0.6-0.8,0.5-1.4c-0.1-0.4-0.1-0.8-0.1-1.1c0-0.6-0.3-1.1-0.8-1.4l-0.3-0.2c-0.6-0.4-0.9-1.1-0.8-1.9l0.6-2.8
			c0.2-0.7,0.7-1,1.3-0.7l0.3,0.2c0.4,0.2,0.9,0.1,1.1-0.2c0,0,0-0.1,0.1-0.1c0.2-0.3,0.3-0.5,0.5-0.8c0.3-0.5,0.4-1.1,0.1-1.6
			l-0.2-0.4c-0.3-0.6-0.2-1.4,0.4-1.8l2.1-1.1c0.2-0.1,0.6-0.1,0.8,0c0.3,0.2,0.5,0.5,0.6,0.8l0.2,0.4c0.1,0.3,0.3,0.6,0.6,0.8
			c0.1,0.1,0.3,0.1,0.5,0.1c0.3,0,0.6,0,0.9,0c0.5,0,0.9-0.3,1-0.8l0.1-0.4c0-0.5,0.4-0.9,0.9-0.8c0.1,0,0.3,0,0.4,0.1l2.2,1.2
			c0.6,0.4,0.9,1.1,0.8,1.9l-0.1,0.4c-0.1,0.6,0,1.2,0.4,1.6c0.2,0.3,0.5,0.5,0.7,0.8c0.1,0.2,0.3,0.3,0.4,0.4
			c0.2,0.1,0.6,0.1,0.8,0l0.3-0.1c0.2-0.1,0.6-0.1,0.8,0c0.3,0.2,0.5,0.5,0.7,0.8l1.2,2.8c0.3,0.6,0.2,1.4-0.4,1.8l-0.3,0.1
			c-0.4,0.3-0.6,0.8-0.5,1.3c0,0.4,0.1,0.8,0.1,1.2c0,0.6,0.3,1.1,0.8,1.4L101,281.5z"/>
		
			<linearGradient id="SVGID_19_" gradientUnits="userSpaceOnUse" x1="182.2517" y1="222.9922" x2="194.5206" y2="264.0219" gradientTransform="matrix(1 0 0 -1 -38.03 462.14)">
			<stop  offset="0" style="stop-color:#965CF2"/>
			<stop  offset="1" style="stop-color:#FF8ADC"/>
		</linearGradient>
		<path class="st31" d="M157,206.1l-16.1-7.8l-6.4,39.9l-0.8,5.6l16.8,9.1c2.9,1.6,5.7,0.1,6.2-3.4l4.7-34
			C161.9,211.9,159.9,207.7,157,206.1z"/>
		<path class="st4" d="M155,215.6l-5,32.5l0.5,0.1l1.4-0.6c1.5-0.7,2.5-2.2,2.6-3.8l4.2-29.6l0,0c0.3-2.4-0.3-4.7-1.6-6.7
			c-0.7-1.1-1.6-2-2.7-2.6l-30.9-16.8c-1.1-0.7-2.4-0.8-3.6-0.4l-1.3,0.5c-0.6,0.2-0.8,0.4-0.8,0.5
			C118.4,194.2,155.9,209.9,155,215.6z"/>
		
			<linearGradient id="SVGID_20_" gradientUnits="userSpaceOnUse" x1="178.7233" y1="264.3023" x2="164.7428" y2="218.3698" gradientTransform="matrix(1 0 0 -1 -38.03 462.14)">
			<stop  offset="0" style="stop-color:#6D6AFE"/>
			<stop  offset="1" style="stop-color:#3FB0F7"/>
		</linearGradient>
		<path class="st32" d="M152.9,205.4l-30.9-16.8c-1.1-0.7-2.4-0.8-3.6-0.4c-1.3,0.5-2.3,1.9-2.6,3.9l-4.2,29.6
			c-0.5,3.5,1.4,7.7,4.3,9.3l30.9,16.8c2.9,1.6,5.7,0.1,6.2-3.4l4.2-29.6C157.8,211.2,155.9,207,152.9,205.4z"/>
		<path class="st16" d="M147.2,239.9l-31-16.7c-0.7-0.4-1.4,0-1.5,0.9c-0.1,0.9,0.3,1.8,1.1,2.3l31,16.6c0.7,0.4,1.4,0,1.6-0.9
			C148.4,241.2,148,240.4,147.2,239.9L147.2,239.9z M148.6,230.9c0.8,0.5,1.2,1.4,1.1,2.3c-0.1,0.9-0.8,1.3-1.6,0.9l-31-16.7
			c-0.8-0.5-1.2-1.4-1-2.3c0.1-0.9,0.8-1.3,1.5-0.9L148.6,230.9L148.6,230.9z M151.8,210.4l-31-16.7c-0.5-0.3-1.1-0.1-1.4,0.4
			c-0.1,0.2-0.1,0.3-0.1,0.5l-0.3,2.2c-0.1,0.9,0.3,1.8,1,2.3l31,16.7c0.5,0.3,1.1,0.1,1.4-0.3c0.1-0.2,0.1-0.3,0.1-0.5l0.3-2.2
			C153,211.8,152.6,210.9,151.8,210.4L151.8,210.4z M150,221.9c0.8,0.5,1.2,1.4,1.1,2.2c-0.1,0.9-0.8,1.3-1.6,0.9l-31-16.7
			c-0.8-0.5-1.2-1.4-1-2.2c0.1-0.9,0.8-1.3,1.5-0.9L150,221.9z"/>
		<path class="st4" d="M276.3,325.7l-3.7,22.6l0.6,0.1l1.6-0.6c1.7-0.7,2.6-2.5,2.9-4.2l2.7-19.5l0,0c0.3-2.6-0.3-5.1-1.8-7.3
			c-0.7-1.2-1.7-2.2-2.9-2.8l-24-13.2c-1.2-0.7-2.6-0.9-3.9-0.4l-1.4,0.5c-0.7,0.3-0.9,0.5-0.9,0.5
			C246.2,307.5,277.3,319.4,276.3,325.7z"/>
		<path class="st5" d="M274.1,314.6l-24-13.2c-1.2-0.7-2.6-0.9-3.9-0.4c-1.5,0.6-2.6,2-2.9,4.2l-2.7,19.5c-0.6,3.8,1.6,8.4,4.7,10.1
			l24,13.2c3.2,1.8,6.2,0.1,6.8-3.8l2.7-19.5C279.4,320.9,277.3,316.3,274.1,314.6z"/>
		
			<linearGradient id="SVGID_21_" gradientUnits="userSpaceOnUse" x1="296.8032" y1="135.5525" x2="300.9062" y2="143.5185" gradientTransform="matrix(1 0 0 -1 -38.03 462.14)">
			<stop  offset="0" style="stop-color:#965CF2"/>
			<stop  offset="1" style="stop-color:#FF8ADC"/>
		</linearGradient>
		<path class="st33" d="M263.7,315.9c0.2,0.3,0.2,0.7,0.2,1.1c-0.1,0.5-0.3,1-0.4,1.4l-5.1,14.2c-0.2,0.5-0.3,0.8-0.4,1.1
			c-0.1,0.2-0.2,0.4-0.5,0.5c-0.2,0.1-0.4,0-0.7-0.2c-0.7-0.4-1.1-1.2-1-2c0.1-0.5,0.2-1,0.4-1.5l5.1-14.2c0.1-0.5,0.4-1,0.7-1.5
			c0.2-0.2,0.5-0.2,0.9,0.1C263.2,315.3,263.5,315.6,263.7,315.9L263.7,315.9z M265,319.6l-0.5,4l7.5,8.7l-8.5-1.1l-0.5,4l12.2,1
			l0.4-3.4L265,319.6L265,319.6z M243.7,316.6l10.7,13.2l0.5-4l-7.5-8.8l8.4,1.2l0.5-4l-12.2-1L243.7,316.6z"/>
		<path class="st5" d="M182.2,316.8c0.4-2.9,2.7-4.2,5-2.9l34.8,19.6c2.3,1.3,3.9,4.8,3.4,7.8l-4.6,31.4c-0.4,3-2.7,4.2-5,2.9
			L181,356c-2.3-1.3-3.9-4.8-3.5-7.8L182.2,316.8z"/>
		
			<linearGradient id="SVGID_22_" gradientUnits="userSpaceOnUse" x1="209.3605" y1="163.1626" x2="199.491" y2="147.8064" gradientTransform="matrix(1 0 0 -1 0 501.75)">
			<stop  offset="0" style="stop-color:#FF66BC"/>
			<stop  offset="0.56" style="stop-color:#FF8ADC"/>
			<stop  offset="1" style="stop-color:#FFBBA8"/>
		</linearGradient>
		<polygon class="st34" points="186.4,348.9 198.6,332.1 200.9,349.9 206.8,343.5 210.3,362.5 		"/>
		<path class="st35" d="M206.4,332.8c1.3,0.3,2.3,1.8,2.2,3.4c-0.1,1.6-1.2,2.7-2.5,2.4c-1.3-0.3-2.3-1.8-2.2-3.4
			S205.1,332.6,206.4,332.8z"/>
		
			<linearGradient id="SVGID_23_" gradientUnits="userSpaceOnUse" x1="250.0473" y1="118.0567" x2="224.3097" y2="116.9529" gradientTransform="matrix(1 0 0 -1 -38.03 462.14)">
			<stop  offset="0" style="stop-color:#FF66BC"/>
			<stop  offset="0.56" style="stop-color:#FF8ADC"/>
			<stop  offset="1" style="stop-color:#FFBBA8"/>
		</linearGradient>
		<path class="st36" d="M185,321.3c0.4-2.4,2.2-3.5,4.2-2.4l28.9,16.3c1.9,1.1,3.2,4,2.9,6.5l-3.9,26.1c-0.4,2.4-2.2,3.5-4.2,2.4
			l-28.9-16.3c-1.9-1.1-3.2-4-2.9-6.5L185,321.3z"/>
		<path class="st5" d="M229.1,344.1c0.4-2.9,2.7-4.2,5-2.9l34.8,19.6c2.3,1.3,3.9,4.8,3.4,7.8l-4.6,31.5c-0.4,2.9-2.7,4.2-5,2.9
			l-34.7-19.6c-2.3-1.4-3.9-4.8-3.4-7.8L229.1,344.1z"/>
		
			<linearGradient id="SVGID_24_" gradientUnits="userSpaceOnUse" x1="247.3074" y1="124.4503" x2="252.0582" y2="137.503" gradientTransform="matrix(1 0 0 -1 0 501.75)">
			<stop  offset="0" style="stop-color:#965CF2"/>
			<stop  offset="1" style="stop-color:#FF8ADC"/>
		</linearGradient>
		<polygon class="st37" points="233.3,376.1 245.4,359.3 247.8,377.1 253.7,370.7 257.2,389.8 		"/>
		<path class="st35" d="M253.3,360.1c1.3,0.3,2.3,1.8,2.2,3.4c-0.1,1.6-1.2,2.7-2.5,2.4c-1.3-0.3-2.3-1.8-2.2-3.4
			C250.8,360.9,252,359.8,253.3,360.1z"/>
		
			<linearGradient id="SVGID_25_" gradientUnits="userSpaceOnUse" x1="286.5698" y1="79.4025" x2="284.8342" y2="111.9304" gradientTransform="matrix(1 0 0 -1 -38.03 462.14)">
			<stop  offset="0" style="stop-color:#965CF2"/>
			<stop  offset="1" style="stop-color:#FF8ADC"/>
		</linearGradient>
		<path class="st38" d="M231.9,348.6c0.4-2.4,2.2-3.5,4.2-2.4l28.9,16.3c1.9,1.1,3.2,4,2.9,6.5l-3.8,26.1c-0.4,2.4-2.2,3.5-4.2,2.4
			L231,381.2c-1.9-1.1-3.2-4-2.9-6.5L231.9,348.6z"/>
		
			<linearGradient id="SVGID_26_" gradientUnits="userSpaceOnUse" x1="241.6735" y1="158.883" x2="218.3914" y2="250.4841" gradientTransform="matrix(1 0 0 -1 -38.03 462.14)">
			<stop  offset="0" style="stop-color:#965CF2"/>
			<stop  offset="1" style="stop-color:#FF8ADC"/>
		</linearGradient>
		<path class="st39" d="M168,228.7c0.8-5.7,5.1-8.2,9.7-5.5l47.5,27.7c4.6,2.7,7.7,9.6,6.9,15.3l-7.2,54.7c-0.8,5.7-5.1,8.2-9.7,5.5
			l-47.5-27.7c-4.6-2.7-7.7-9.5-6.9-15.3L168,228.7z"/>
		<path class="st4" d="M169.6,228.4c0.1-0.6,0.2-3.4,1-4c1-0.8,2.2-1.5,3.4-2c1.6-0.4,3.3-0.1,4.7,0.8l44.3,25.7
			c4.3,2.5,7.1,8.9,6.4,14.2l-6.7,50.9c-0.2,1.6-0.8,3.1-1.8,4.4c-1,0.9-2.1,1.7-3.3,2.3c-1.3,0.7-3.1-1.1-3.9-1.6l-44.3-25.7
			c-4.3-2.5-7.1-8.9-6.4-14.2L169.6,228.4z"/>
		<path class="st5" d="M168.1,229.4c0.7-5.3,4.8-7.6,9-5.1l44.1,25.7c4.3,2.5,7.1,8.9,6.4,14.2l-6.7,50.9c-0.7,5.3-4.8,7.6-9,5.1
			l-44.1-25.7c-4.3-2.5-7.1-8.9-6.4-14.2L168.1,229.4z"/>
		
			<linearGradient id="SVGID_27_" gradientUnits="userSpaceOnUse" x1="243.2018" y1="224.5852" x2="234.8918" y2="212.7801" gradientTransform="matrix(1 0 0 -1 -38.03 462.14)">
			<stop  offset="0" style="stop-color:#6D6AFE"/>
			<stop  offset="1" style="stop-color:#3FB0F7"/>
		</linearGradient>
		<path class="st40" d="M168.1,229.4c0.7-5.3,4.8-7.6,9-5.1l44.1,25.7c4.3,2.5,7.1,8.9,6.4,14.2l-0.7,5.1l-59.6-34.8L168.1,229.4z"
			/>
		<path class="st5" d="M175.2,229.6c1.1,0.4,1.8,1.5,1.7,2.6c-0.1,1.2-0.9,2-1.9,1.8c-1.1-0.4-1.8-1.5-1.7-2.6
			C173.4,230.2,174.2,229.4,175.2,229.6z"/>
		<path class="st5" d="M180.4,232.9c1.1,0.4,1.8,1.5,1.7,2.6c-0.1,1.2-0.9,2-1.9,1.8c-1.1-0.4-1.8-1.5-1.7-2.6
			C178.6,233.4,179.4,232.6,180.4,232.9z"/>
		<path class="st5" d="M185.5,236.1c1.1,0.4,1.8,1.5,1.7,2.6c-0.1,1.2-0.9,2-1.9,1.8c-1.1-0.4-1.8-1.5-1.7-2.6
			C183.7,236.7,184.6,235.9,185.5,236.1z"/>
		
			<linearGradient id="SVGID_28_" gradientUnits="userSpaceOnUse" x1="216.5506" y1="209.5629" x2="214.6151" y2="206.8196" gradientTransform="matrix(1 0 0 -1 -38.03 462.14)">
			<stop  offset="0" style="stop-color:#6D6AFE"/>
			<stop  offset="1" style="stop-color:#3FB0F7"/>
		</linearGradient>
		<path class="st41" d="M177.4,244.7c4.5,1.1,7.9,6.5,7.7,12c-0.3,5.6-4.1,9.2-8.6,8.2c-4.5-1.1-7.9-6.5-7.7-12
			C169.1,247.3,172.9,243.6,177.4,244.7z"/>
		
			<linearGradient id="SVGID_29_" gradientUnits="userSpaceOnUse" x1="218.1358" y1="209.7374" x2="212.1853" y2="205.2345" gradientTransform="matrix(1 0 0 -1 -38.03 462.14)">
			<stop  offset="0" style="stop-color:#6D6AFE"/>
			<stop  offset="1" style="stop-color:#3FB0F7"/>
		</linearGradient>
		<path class="st42" d="M177.2,249.3c2.4,0.6,4.3,3.5,4.1,6.5c-0.1,3-2.2,5-4.6,4.4c-2.4-0.6-4.3-3.5-4.1-6.5
			C172.7,250.7,174.8,248.8,177.2,249.3z"/>
		<g class="st43">
			<path class="st44" d="M187.8,255.5c0.2-1.2,1.1-1.7,2-1.1l28.8,16.6c1,0.7,1.6,2,1.4,3.2l-0.3,2.3c-0.2,1.2-1.1,1.7-2,1.1
				L188.9,261c-1-0.7-1.6-2-1.4-3.2L187.8,255.5z"/>
			<path class="st44" d="M186.7,264.1c0.1-0.7,0.6-1,1.2-0.7l17,9.8c0.6,0.4,0.9,1.2,0.8,1.9l-0.2,1.4c-0.1,0.7-0.6,1-1.2,0.7
				l-17-9.8c-0.6-0.4-0.9-1.2-0.8-1.9L186.7,264.1z"/>
		</g>
		<g class="st43">
			<path class="st44" d="M167.4,266.3c0.1-0.9,0.8-1.2,1.5-0.8l49.8,28.6c0.7,0.5,1.1,1.4,1,2.3l-0.2,1.1c-0.1,0.9-0.8,1.2-1.5,0.8
				l-49.8-28.6c-0.7-0.5-1.1-1.4-1-2.3L167.4,266.3z"/>
			<path class="st44" d="M166.4,274.7c0.1-0.9,0.8-1.2,1.5-0.8l49.8,28.6c0.7,0.5,1.1,1.4,1,2.3l-0.2,1.1c-0.1,0.9-0.8,1.2-1.5,0.8
				l-49.8-28.5c-0.7-0.5-1.1-1.4-1-2.3L166.4,274.7z"/>
			<path class="st44" d="M165.3,282.7c0.1-0.9,0.8-1.2,1.5-0.8l49.8,28.6c0.7,0.5,1.1,1.4,1,2.3l-0.2,1.1c-0.1,0.9-0.8,1.2-1.5,0.8
				l-49.8-28.6c-0.7-0.5-1.1-1.4-1-2.3L165.3,282.7z"/>
		</g>
		<path class="st4" d="M229.6,223.7c0.2-1.1-0.6-2-0.1-2.7c0.5-0.7,2.3-1.4,3-1.6c1.2-0.4,2.6-0.2,3.7,0.5l52.9,30.3
			c3.1,1.8,5.2,6.4,4.6,10.3l-5.9,41.5c-0.1,1.6-1,3.1-2.3,4c-0.7,0.4-2.7,1.3-3.5,1.2c-0.6-0.1-0.2-0.9-0.8-1.3l-52.9-30.3
			c-3.1-1.8-5.2-6.4-4.6-10.3L229.6,223.7z"/>
		
			<linearGradient id="SVGID_30_" gradientUnits="userSpaceOnUse" x1="299.0552" y1="211.6508" x2="290.2734" y2="182.3861" gradientTransform="matrix(1 0 0 -1 -38.03 462.14)">
			<stop  offset="0" style="stop-color:#6D6AFE"/>
			<stop  offset="1" style="stop-color:#3FB0F7"/>
		</linearGradient>
		<path class="st45" d="M228,224.4c0.6-3.9,3.5-5.6,6.6-3.8l52.9,30.3c3.1,1.8,5.2,6.4,4.6,10.3l-5.9,41.5c-0.6,3.9-3.5,5.6-6.6,3.8
			l-52.9-30.3c-3.1-1.8-5.2-6.4-4.6-10.3L228,224.4z"/>
		<path class="st46" d="M223.9,267.8c0-0.3,0.3-0.5,0.6-0.3l58.7,33.7c0.3,0.2,0.4,0.6,0.4,0.9l-0.2,1c0,0.3-0.3,0.5-0.6,0.3
			l-58.7-33.7c-0.3-0.2-0.4-0.6-0.4-0.9L223.9,267.8z"/>
		<path class="st0" d="M224,267.8c0-0.3,0.3-0.5,0.6-0.3l23.7,13.6c0.3,0.2,0.4,0.5,0.4,0.9l-0.2,1c0,0.3-0.3,0.5-0.6,0.3
			l-23.7-13.6c-0.3-0.2-0.4-0.5-0.4-0.9L224,267.8z"/>
		
			<linearGradient id="SVGID_31_" gradientUnits="userSpaceOnUse" x1="292.3541" y1="197.3741" x2="296.3851" y2="209.763" gradientTransform="matrix(1 0 0 -1 -38.03 462.14)">
			<stop  offset="0" style="stop-color:#965CF2"/>
			<stop  offset="1" style="stop-color:#FF8ADC"/>
		</linearGradient>
		<path class="st47" d="M247.2,247.8c0.1-0.9,0.8-1.3,1.6-0.9l16.3,9.3c0.8,0.5,1.2,1.5,1.1,2.4l-2.2,15.6c-0.1,0.9-0.8,1.3-1.6,0.9
			l-16.2-9.3c-0.8-0.5-1.2-1.5-1.1-2.4L247.2,247.8z"/>
		
			<linearGradient id="SVGID_32_" gradientUnits="userSpaceOnUse" x1="291.7319" y1="197.9483" x2="295.403" y2="204.2027" gradientTransform="matrix(1 0 0 -1 -38.03 462.14)">
			<stop  offset="0" style="stop-color:#6D6AFE"/>
			<stop  offset="1" style="stop-color:#3FB0F7"/>
		</linearGradient>
		<path class="st48" d="M256.5,254.6c-2.8-1.6-5.5,0-6,3.5s1.4,7.7,4.2,9.3c2.8,1.6,5.5,0,6-3.5S259.3,256.2,256.5,254.6z"/>
		<polygon class="st5" points="253.8,256.3 253,262.7 258.4,262.9 		"/>
	</g>
</g>
</svg>
