<?xml version="1.0" encoding="utf-8"?>
<!-- Generator: Adobe Illustrator 24.2.3, SVG Export Plug-In . SVG Version: 6.00 Build 0)  -->
<svg version="1.1" id="Layer_1" xmlns="http://www.w3.org/2000/svg" xmlns:xlink="http://www.w3.org/1999/xlink" x="0px" y="0px"
	 viewBox="0 0 500 500" style="enable-background:new 0 0 500 500;" xml:space="preserve">
<style type="text/css">
	.st0{fill:#470137;}
	.st1{fill:#FF61F6;}
</style>
<g transform="matrix(1.000000125 0 0 1.000000125 159.9999625 83.00005)">
	<path class="st0" d="M-6.9,20.7h193.8c29.4,0,53.1,23.8,53.1,53.1v186.3c0,29.4-23.8,53.1-53.1,53.1H-6.9
		c-29.4,0-53.1-23.8-53.1-53.1V73.9C-60,44.5-36.2,20.7-6.9,20.7z"/>
	<g>
		<path class="st1" d="M97.8,97.6l-37.5,61.9l40,65.6c0.2,0.5,0.4,1,0.2,1.5c-0.1,0.5-0.6,0.1-1.4,0.3H70.5c-2,0-3.4-0.1-4.3-1.4
			c-2.6-5.3-5.4-10.4-8-15.6c-2.6-5.1-5.5-10.4-8.5-15.8c-3-5.4-6-10.8-9-16.3h-0.2c-2.6,5.4-5.5,10.8-8.4,16.1s-5.7,10.8-8.5,16
			c-2.9,5.3-5.7,10.6-8.6,15.8c-0.5,1.3-1.5,1.4-2.9,1.4h-27.5c-0.5,0-0.9,0.3-0.9-0.4c-0.1-0.5,0-1,0.3-1.4l38.9-63.8L-15,97.5
			c-0.4-0.5-0.5-1-0.3-1.3c0.3-0.4,0.7-0.5,1.3-0.5h28.4c0.6,0,1.3,0.1,1.8,0.3c0.5,0.3,0.9,0.6,1.3,1.1c2.4,5.4,5.1,10.8,8,16.1
			c3,5.4,5.9,10.6,9,15.9c3,5.3,5.7,10.5,8.4,15.9H43c2.6-5.5,5.4-10.9,8.1-16.1c2.7-5.3,5.6-10.5,8.5-15.8
			c2.9-5.3,5.6-10.6,8.4-15.8c0.1-0.5,0.4-1,0.8-1.3c0.5-0.3,1-0.4,1.6-0.3h26.4c0.6-0.1,1.3,0.3,1.4,0.9
			C98.3,96.9,98,97.4,97.8,97.6L97.8,97.6z"/>
		<path class="st1" d="M155.5,229.5c-9.3,0.1-18.5-1.8-26.9-5.6c-7.9-3.6-14.4-9.6-18.9-17c-4.6-7.6-6.9-17.1-6.9-28.5
			c-0.1-9.3,2.3-18.4,6.9-26.4c4.8-8.1,11.6-14.9,19.9-19.4c8.8-4.9,19.2-7.3,31.6-7.3c0.6,0,1.5,0,2.6,0.1c1.1,0.1,2.4,0.1,3.9,0.3
			V86.2c0-0.9,0.4-1.4,1.3-1.4h25.4c0.6-0.1,1.1,0.4,1.3,0.9V205c0,2.3,0.1,4.8,0.3,7.5c0.3,2.6,0.4,5.1,0.5,7.3
			c0,0.9-0.4,1.6-1.3,2c-6.5,2.8-13.4,4.8-20.4,6C168.4,228.9,162,229.5,155.5,229.5z M167.8,204.5v-55c-1.1-0.3-2.3-0.5-3.4-0.6
			c-1.4-0.1-2.8-0.3-4.1-0.3c-4.9,0-9.8,1-14.1,3.3c-4.3,2.1-7.9,5.2-10.6,9.3c-2.8,4-4.1,9.4-4.1,15.9c-0.1,4.4,0.6,8.8,2.1,12.9
			c1.3,3.4,3.1,6.4,5.6,8.9c2.4,2.3,5.3,4,8.5,5c3.4,1.1,6.9,1.6,10.4,1.6c1.9,0,3.6-0.1,5.2-0.3C164.9,205.2,166.3,205,167.8,204.5
			L167.8,204.5z"/>
	</g>
</g>
</svg>
